<svg xmlns="http://www.w3.org/2000/svg" width="139.7" height="32.424" viewBox="0 0 139.7 32.424">
  <g id="Forte_logo" transform="translate(-4.3 -59.976)">
    <path id="Контур_350" data-name="Контур 350" d="M4.3,78H6V61.1H4.3v-.4H18.6v4.6h-.3c-.5-3.2-2-4.2-5.5-4.2a8.6,8.6,0,0,0-1.6.1V69a7.084,7.084,0,0,0,1.4.1c2.4,0,3.4-.8,3.5-3.2h.3v6.9h-.3c-.1-2.6-1.2-3.4-3.9-3.4H11.1V78h1.7v.4H4.3Z" fill="#00b2bf"/>
    <path id="Контур_351" data-name="Контур 351" d="M20.5,68.1a7.074,7.074,0,0,1,9.2,0,5.781,5.781,0,0,1,2.1,4.4A5.98,5.98,0,0,1,29.7,77a6.415,6.415,0,0,1-4.6,1.7A6.877,6.877,0,0,1,20.5,77a5.765,5.765,0,0,1,0-8.9m2.8,6.2c0,2.7.2,4,1.8,4S27,77,27,74.3V70.9c0-2.7-.2-4-1.9-4-1.6,0-1.8,1.3-1.8,4Z" fill="#00b2bf"/>
    <path id="Контур_352" data-name="Контур 352" d="M32.9,67.1v-.4h3a11.153,11.153,0,0,0,2.7-.3v2.4a3.508,3.508,0,0,1,3.3-2.3,2.232,2.232,0,0,1,2.4,2.3A2.2,2.2,0,0,1,42,71.1a1.944,1.944,0,0,1-2-2A2.6,2.6,0,0,1,41.1,67c-2.3.7-2.4,2.3-2.4,5.2v6H40v.4H32.9V78h1.2V67.1Z" fill="#00b2bf"/>
    <path id="Контур_353" data-name="Контур 353" d="M52.8,76.6a4.593,4.593,0,0,1-3.9,2.1c-2.1,0-3.1-1.2-3.1-3.7V67.1H44.7v-.4a6.253,6.253,0,0,0,5.2-5.1h.3v5.1h2.2v.4H50.2V76q0,1.2.9,1.2a1.873,1.873,0,0,0,1.4-.8Z" fill="#00b2bf"/>
    <path id="Контур_354" data-name="Контур 354" d="M65.4,74.7a5.362,5.362,0,0,1-5.5,4,6.408,6.408,0,0,1-6.6-6.3,6.023,6.023,0,0,1,6.2-6.1,5.783,5.783,0,0,1,5.9,5.6H58.3v3.3c0,2,.7,2.9,2.5,2.9s3.3-1.2,4.3-3.6Zm-4.7-3.1V68.2c0-1-.3-1.5-1.1-1.5-.9,0-1.3.5-1.3,1.5v3.4Z" fill="#00b2bf"/>
    <path id="Контур_355" data-name="Контур 355" d="M75.9,73l-1.8,5.4H72.4L66.2,61.1h-1v-.4h7.3v.4H71.4l4.1,11.6" fill="#00b2bf"/>
    <path id="Контур_356" data-name="Контур 356" d="M80.6,67.1v-.4h3a12.412,12.412,0,0,0,2.7-.3V78h1.4v.4H80.6V78h1.2V67.1Z" fill="#00b2bf"/>
    <path id="Контур_357" data-name="Контур 357" d="M88.8,61.1v-.4h3a8.306,8.306,0,0,0,2.7-.3V78h1.4v.4H88.8V78H90V61.1Z" fill="#00b2bf"/>
    <path id="Контур_358" data-name="Контур 358" d="M97,61.1v-.4h3a8.306,8.306,0,0,0,2.7-.3V78h1.4v.4H97V78h1.2V61.1Z" fill="#00b2bf"/>
    <path id="Контур_359" data-name="Контур 359" d="M108.9,78.7a3.29,3.29,0,0,1-3.6-3.3c0-2.4,2.3-3.7,6.8-3.8V69.1c0-1.7-.3-2.4-1.6-2.4-1,0-1.7.6-1.7,1,0,.5.8,1,.8,1.8s-.6,1.4-1.7,1.4a1.605,1.605,0,0,1-1.7-1.6c0-1.6,1.8-2.9,4.8-2.9,3.7,0,5.3,1.3,5.3,4.3v6.2c0,.4.2.7.5.7s.6-.2,1-.7l.2.1a3.76,3.76,0,0,1-3.2,1.6,2.686,2.686,0,0,1-2.5-1.2,4.105,4.105,0,0,1-3.4,1.3m.6-3.7c0,2,.2,3,1.1,3a1.662,1.662,0,0,0,1.4-1V71.9c-2.3.1-2.5.8-2.5,3.1" fill="#00b2bf"/>
    <path id="Контур_360" data-name="Контур 360" d="M118.7,76.5a3.543,3.543,0,0,1,2.6-3.5,3.37,3.37,0,0,1-2.1-3c0-1.9,2-3.6,5.3-3.6a7.41,7.41,0,0,1,3.2.7c.6-1.1,1.3-1.7,2.1-1.7a1.394,1.394,0,0,1,1.5,1.4A1.24,1.24,0,0,1,130,68c-.7,0-1.2-.6-1.2-1.5v-.2a2.286,2.286,0,0,0-.7,1,3.271,3.271,0,0,1,1.5,2.6c0,2.1-1.9,3.7-5.2,3.7-1.1,0-1.9-.3-2.4-.3-1.2,0-2.1.7-2.1,1.2,0,.7.8.8,2.7.8h3.6c3,0,4.4,1.1,4.4,4.3,0,3.1-2.7,5.4-6.8,5.4-3.2,0-5.4-1.5-5.4-3.1,0-1.1.9-1.9,2.6-2.4a2.775,2.775,0,0,1-2.3-3m5.6,8c3.2,0,5.5-1.8,5.5-3.3,0-1.6-1.7-1.8-5.3-1.8-2.9,0-4.4.7-4.4,2.2,0,1.7,1.5,2.9,4.2,2.9m-1-13.1c0,1.4.1,1.9,1.1,1.9s1.1-.6,1.1-1.9V68.7c0-1.4-.1-1.9-1.1-1.9s-1.1.6-1.1,1.9Z" fill="#00b2bf"/>
    <path id="Контур_361" data-name="Контур 361" d="M144,74.7a5.362,5.362,0,0,1-5.5,4,6.408,6.408,0,0,1-6.6-6.3,6.023,6.023,0,0,1,6.2-6.1,5.783,5.783,0,0,1,5.9,5.6h-7.1v3.3c0,2,.7,2.9,2.5,2.9s3.3-1.2,4.3-3.6Zm-4.7-3.1V68.2c0-1-.3-1.5-1.1-1.5-.9,0-1.3.5-1.3,1.5v3.4Z" fill="#00b2bf"/>
    <path id="Контур_362" data-name="Контур 362" d="M75.1,75.4,78.9,64l.1-.4a4.611,4.611,0,0,1,2.3-2.8,2.724,2.724,0,0,1,1.9-.3,2.08,2.08,0,0,0-1.4,2.1A2.135,2.135,0,0,0,84,64.7a2.163,2.163,0,0,0,2.1-2.3,2.127,2.127,0,0,0-.7-1.5h0a3.441,3.441,0,0,0-3-.9q-3,.45-4.2,4.2a6.9,6.9,0,0,1-.4,1L74.7,75" fill="#00b2bf"/>
    <g id="Сгруппировать_122" data-name="Сгруппировать 122">
      <path id="Контур_363" data-name="Контур 363" d="M56,91.2v-.9h.5v.9c0,.5.2.7.8.7a.632.632,0,0,0,.7-.7v-.3a1.025,1.025,0,0,0-.6-1l-.6-.6c-.5-.5-.8-.8-.8-1.4v-.2a1.049,1.049,0,0,1,1.1-1.1.959.959,0,0,1,1.1,1.1v.6h-.4v-.6c0-.5-.2-.7-.7-.7a.632.632,0,0,0-.7.7v.2c0,.4.2.6.6,1l.6.6a1.746,1.746,0,0,1,.7,1.4v.3a1.1,1.1,0,0,1-1.2,1.2C56.3,92.4,56,91.9,56,91.2Z" fill="#00b2bf"/>
      <path id="Контур_364" data-name="Контур 364" d="M60.6,92.3l1.1-5.6h.6l1.1,5.6h-.5L62.7,91H61.3L61,92.4h-.4Zm.8-1.7h1.2L62,87.5h0Z" fill="#00b2bf"/>
      <path id="Контур_365" data-name="Контур 365" d="M66.2,89.5v2.8h-.5V86.7h1.1a.959.959,0,0,1,1.1,1.1v.8c0,.7-.3,1.1-1.2,1.1h0L68,92.3h-.5Zm0-2.4v2.2h.6c.5,0,.7-.2.7-.7v-.9a.632.632,0,0,0-.7-.7h-.6Z" fill="#00b2bf"/>
      <path id="Контур_366" data-name="Контур 366" d="M71.6,86.7a1.236,1.236,0,0,1,1.3,1.4v2.8c0,.8-.3,1.4-1.3,1.4H70.4V86.7h1.2Zm-.7,5.2h.6a.839.839,0,0,0,.9-.9V88a.793.793,0,0,0-.9-.9h-.6Z" fill="#00b2bf"/>
      <path id="Контур_367" data-name="Контур 367" d="M75.4,86.7h2.1v.4H75.9v2.2H77v.4H75.9V92h1.6v.4H75.4Z" fill="#00b2bf"/>
      <path id="Контур_368" data-name="Контур 368" d="M81.1,89.5h1.2v2.8h-.4v-.5c-.1.3-.4.5-.9.5-.8,0-1.2-.6-1.2-1.4V88a1.236,1.236,0,0,1,1.3-1.4c.9,0,1.2.5,1.2,1.3v.5h-.5v-.5c0-.5-.2-.9-.8-.9s-.8.4-.8.9v3c0,.5.2.9.8.9s.8-.4.8-.9V89.7h-.7Z" fill="#00b2bf"/>
      <path id="Контур_369" data-name="Контур 369" d="M85.2,87.8v4.5h-.4V86.7h.5l1.5,4.4V86.7h.4v5.6h-.4Z" fill="#00b2bf"/>
      <path id="Контур_370" data-name="Контур 370" d="M89.5,92.3l1.1-5.6h.6l1.1,5.6h-.5L91.6,91H90.2L90,92.3Zm.8-1.7h1.2l-.6-3.1h0Z" fill="#00b2bf"/>
    </g>
  </g>
</svg>
