<svg xmlns="http://www.w3.org/2000/svg" xmlns:xlink="http://www.w3.org/1999/xlink" width="79.563" height="108.071" viewBox="0 0 79.563 108.071">
  <defs>
    <linearGradient id="linear-gradient" x1="0.003" y1="1.903" x2="1" y2="1.903" gradientUnits="objectBoundingBox">
      <stop offset="0" stop-color="#bcbbc8"/>
      <stop offset="0.534" stop-color="#857f99"/>
      <stop offset="1" stop-color="#574c77"/>
    </linearGradient>
    <linearGradient id="linear-gradient-2" x1="-0.002" y1="3.63" x2="0.992" y2="3.63" gradientUnits="objectBoundingBox">
      <stop offset="0" stop-color="#574c77"/>
      <stop offset="0.534" stop-color="#857f99"/>
      <stop offset="1" stop-color="#bcbbc8"/>
    </linearGradient>
    <linearGradient id="linear-gradient-3" x1="0" y1="3.896" x2="0.993" y2="3.896" xlink:href="#linear-gradient-2"/>
    <linearGradient id="linear-gradient-4" x1="0.003" y1="1.871" x2="1.003" y2="1.871" xlink:href="#linear-gradient"/>
  </defs>
  <g id="Hyatt_logo" transform="translate(-37.6 -26.7)">
    <g id="Сгруппировать_148" data-name="Сгруппировать 148" transform="translate(59.821 122.197)">
      <g id="Сгруппировать_147" data-name="Сгруппировать 147">
        <path id="Контур_510" data-name="Контур 510" d="M58.1,114.908h.867l1.3,2.06,1.3-2.06h.867v4.336h-.759V116.1l-1.3,2.06h0l-1.3-2.06v3.035h-.759V114.8H58.1Z" transform="translate(-58.1 -114.8)" fill="#6f6458"/>
        <path id="Контур_511" data-name="Контур 511" d="M63.2,117.076h0a2.276,2.276,0,1,1,4.553,0h0a2.276,2.276,0,0,1-4.553,0Zm3.685,0h0a1.518,1.518,0,1,0-3.035,0h0a1.518,1.518,0,0,0,3.035,0Z" transform="translate(-57.672 -114.8)" fill="#6f6458"/>
        <path id="Контур_512" data-name="Контур 512" d="M68.2,118.594l.542-.542a2.252,2.252,0,0,0,1.3.542c.434,0,.759-.217.759-.542h0c0-.325-.108-.542-.976-.65-.867-.217-1.518-.542-1.518-1.3h0a1.378,1.378,0,0,1,1.518-1.3,2.35,2.35,0,0,1,1.518.542l-.434.542a1.806,1.806,0,0,0-1.192-.434c-.434,0-.65.217-.65.542h0c0,.325.217.542,1.084.65.867.217,1.409.542,1.409,1.3h0c0,.867-.65,1.3-1.518,1.3A2.167,2.167,0,0,1,68.2,118.594Z" transform="translate(-57.252 -114.8)" fill="#6f6458"/>
        <path id="Контур_513" data-name="Контур 513" d="M72.2,117.076h0a2.162,2.162,0,0,1,2.276-2.276,2.8,2.8,0,0,1,1.734.65l-.542.542a1.553,1.553,0,0,0-1.192-.542,1.4,1.4,0,0,0-1.409,1.518h0a1.461,1.461,0,0,0,1.409,1.518,2,2,0,0,0,1.3-.542l.542.542a1.9,1.9,0,0,1-1.734.759A2.114,2.114,0,0,1,72.2,117.076Z" transform="translate(-56.916 -114.8)" fill="#6f6458"/>
        <path id="Контур_514" data-name="Контур 514" d="M76.6,117.076h0a2.162,2.162,0,0,1,2.276-2.276,2.223,2.223,0,0,1,2.276,2.276h0a2.276,2.276,0,0,1-4.553,0Zm3.685,0h0a1.518,1.518,0,1,0-3.035,0h0a1.518,1.518,0,0,0,3.035,0Z" transform="translate(-56.547 -114.8)" fill="#6f6458"/>
        <path id="Контур_515" data-name="Контур 515" d="M81.6,114.9h.867l1.084,3.252,1.084-3.252h.65l1.084,3.252,1.084-3.252h.759l-1.518,4.336h-.65L84.96,116.2l-1.084,3.035h-.759Z" transform="translate(-56.127 -114.792)" fill="#6f6458"/>
      </g>
    </g>
    <g id="Сгруппировать_150" data-name="Сгруппировать 150" transform="translate(45.513 130.218)">
      <g id="Сгруппировать_149" data-name="Сгруппировать 149">
        <path id="Контур_516" data-name="Контур 516" d="M44.9,122.3h1.734a1.454,1.454,0,0,1,1.626,1.518h0a1.543,1.543,0,0,1-1.734,1.518h-.867v1.409H44.9V122.3Zm1.734,2.276a.773.773,0,0,0,.867-.759h0c0-.542-.325-.759-.867-.759h-.867v1.518Z" transform="translate(-44.9 -122.192)" fill="#6f6458"/>
        <path id="Контур_517" data-name="Контур 517" d="M49,122.3h3.252v.65H49.759v1.084h2.168v.65H49.759v1.192h2.493v.65H49Z" transform="translate(-44.556 -122.192)" fill="#6f6458"/>
        <path id="Контур_518" data-name="Контур 518" d="M54.209,123.05H52.8v-.65h3.469v.65H54.86v3.685H54.1l.108-3.685Z" transform="translate(-44.237 -122.183)" fill="#6f6458"/>
        <path id="Контур_519" data-name="Контур 519" d="M57.1,122.3h1.843a1.728,1.728,0,0,1,1.3.434,1.231,1.231,0,0,1,.325.867h0a1.374,1.374,0,0,1-1.084,1.3l1.192,1.626H59.81l-1.084-1.518h-.867v1.518H57.1Zm1.843,2.168c.542,0,.867-.325.867-.65h0c0-.542-.325-.65-.867-.65H57.859v1.518l1.084-.217Z" transform="translate(-43.876 -122.192)" fill="#6f6458"/>
        <path id="Контур_520" data-name="Контур 520" d="M61.3,124.476h0a2.162,2.162,0,0,1,2.276-2.276,2.223,2.223,0,0,1,2.276,2.276h0a2.221,2.221,0,0,1-2.276,2.276A2.162,2.162,0,0,1,61.3,124.476Zm3.685,0h0a1.518,1.518,0,1,0-3.035,0h0a1.482,1.482,0,0,0,1.518,1.518A1.422,1.422,0,0,0,64.985,124.476Z" transform="translate(-43.523 -122.2)" fill="#6f6458"/>
        <path id="Контур_521" data-name="Контур 521" d="M65.8,122.3h.867l1.3,3.252,1.3-3.252h.867l-1.843,4.336h-.65Z" transform="translate(-43.145 -122.192)" fill="#6f6458"/>
        <path id="Контур_522" data-name="Контур 522" d="M70.1,125.994l.542-.542a2.252,2.252,0,0,0,1.3.542c.542,0,.759-.217.759-.542h0c0-.325-.108-.542-.976-.65-.867-.217-1.518-.542-1.518-1.3h0a1.378,1.378,0,0,1,1.518-1.3,2.35,2.35,0,0,1,1.518.542l-.434.542a1.806,1.806,0,0,0-1.192-.434c-.434,0-.65.217-.65.542h0c0,.325.217.542,1.084.65.867.217,1.409.542,1.409,1.3h0c0,.867-.65,1.3-1.518,1.3A1.9,1.9,0,0,1,70.1,125.994Z" transform="translate(-42.784 -122.2)" fill="#6f6458"/>
        <path id="Контур_523" data-name="Контур 523" d="M74.3,122.3h.759v2.168l2.06-2.168h.867l-1.843,1.843,1.843,2.493h-.759l-1.518-1.951-.65.65v1.3H74.3V122.3Z" transform="translate(-42.432 -122.192)" fill="#6f6458"/>
        <path id="Контур_524" data-name="Контур 524" d="M80.034,125,78.3,122.4h.867l1.192,1.843,1.192-1.843h.867L80.685,125v1.734h-.759Z" transform="translate(-42.096 -122.183)" fill="#6f6458"/>
        <path id="Контур_525" data-name="Контур 525" d="M85,122.3h1.734a1.454,1.454,0,0,1,1.626,1.518h0a1.543,1.543,0,0,1-1.734,1.518h-.867v1.409H85V122.3Zm1.734,2.276a.773.773,0,0,0,.867-.759h0c0-.542-.325-.759-.867-.759h-.867v1.518Z" transform="translate(-41.533 -122.192)" fill="#6f6458"/>
        <path id="Контур_526" data-name="Контур 526" d="M89.951,122.3h.65l1.843,4.336h-.759l-.434-1.084h-2.06l-.434,1.084H88Zm1.192,2.6-.759-1.734-.759,1.734Z" transform="translate(-41.281 -122.192)" fill="#6f6458"/>
        <path id="Контур_527" data-name="Контур 527" d="M93.008,122.3h1.843a1.728,1.728,0,0,1,1.3.434,1.231,1.231,0,0,1,.325.867h0a1.374,1.374,0,0,1-1.084,1.3l1.192,1.626h-.867l-1.084-1.518h-.976v1.518H92.9l.108-4.227Zm1.951,2.168c.542,0,.867-.325.867-.65h0c0-.542-.325-.65-.867-.65H93.876v1.518l1.084-.217Z" transform="translate(-40.87 -122.192)" fill="#6f6458"/>
        <path id="Контур_528" data-name="Контур 528" d="M97.408,122.3h.759v2.168l2.06-2.168h.867l-1.843,1.843,1.843,2.493h-.867l-1.518-1.951-.65.65v1.3H97.3l.108-4.336Z" transform="translate(-40.501 -122.192)" fill="#6f6458"/>
      </g>
    </g>
    <g id="Сгруппировать_152" data-name="Сгруппировать 152" transform="translate(114.778 103.553)">
      <g id="Сгруппировать_151" data-name="Сгруппировать 151">
        <path id="Контур_529" data-name="Контур 529" d="M109.342,98.792h-.217v-.976H108.8V97.6h.976v.217h-.325l-.108.976Zm1.3-.325h0l-.434-.542v.867h-.217V97.6h.325l.325.542.325-.542h.217v1.192h-.217v-.867Z" transform="translate(-108.8 -97.6)" fill="#574c77"/>
      </g>
    </g>
    <g id="Сгруппировать_156" data-name="Сгруппировать 156" transform="translate(37.6 83.391)">
      <g id="Сгруппировать_155" data-name="Сгруппировать 155">
        <path id="Контур_530" data-name="Контур 530" d="M40.093,87.021v6.287H37.6V79h2.493v5.637h6.721V79h2.493V93.2H46.814V86.913H40.093Zm0,0v6.287H37.6V79h2.493v5.637h6.721V79h2.493V93.2H46.814V86.913H40.093Zm53.114-5.637h4.769V79.108H85.944v2.276h4.878V93.308h2.493l-.108-11.924Zm15.609,0h4.769V79.108H101.553v2.276h4.878V93.308h2.493l-.108-11.924ZM56.894,79.108H53.968L59.6,87.13v6.287H62.1V87.13l5.637-8.021H64.807L60.8,85.07ZM79.549,89.3H73.371l-1.734,3.9H69.143L75.322,79H77.6l6.179,14.2h-2.6Zm-.976-2.276-2.06-4.986-2.06,4.986Z" transform="translate(-37.6 -79)" fill="#574c77"/>
        <g id="Сгруппировать_154" data-name="Сгруппировать 154" transform="translate(0 20.053)">
          <g id="Сгруппировать_153" data-name="Сгруппировать 153">
            <path id="Контур_531" data-name="Контур 531" d="M42.369,103.228c1.734-.325,2.71-1.3,2.71-2.71v-.108c0-1.626-1.409-2.71-3.469-2.71H37.6v9.539h.867v-3.794h2.927l2.927,3.794H45.4Zm-3.9-.65V98.35h3.143c1.626,0,2.6.759,2.6,1.951v.108c0,1.3-1.084,2.06-2.71,2.06H38.467Z" transform="translate(-37.6 -97.483)" fill="#574c77"/>
            <path id="Контур_532" data-name="Контур 532" d="M48.959,106.38v-3.685h5.42v-.759h-5.42V98.359h5.962V97.6H48.2v9.539h6.829v-.759Z" transform="translate(-36.71 -97.492)" fill="#574c77"/>
            <path id="Контур_533" data-name="Контур 533" d="M62.153,101.944v.759H65.3v2.818a4.766,4.766,0,0,1-2.927,1.084,3.815,3.815,0,0,1-3.9-4.119h0a3.989,3.989,0,0,1,3.794-4.119,4.079,4.079,0,0,1,2.927,1.084l.108.108.542-.65L65.73,98.8a5.113,5.113,0,0,0-3.469-1.3,4.734,4.734,0,0,0-4.661,4.878h0a4.581,4.581,0,0,0,4.769,4.878,5.622,5.622,0,0,0,3.685-1.409h0v-3.9Z" transform="translate(-35.921 -97.5)" fill="#574c77"/>
            <path id="Контур_534" data-name="Контур 534" d="M70.267,106.38v-3.685h5.311v-.759H70.267V98.359h5.962V97.6H69.4v9.539h6.829v-.759Z" transform="translate(-34.93 -97.492)" fill="#574c77"/>
            <path id="Контур_535" data-name="Контур 535" d="M86.454,97.6v8.021l-6.4-8.021H79.3v9.539h.759V98.9l6.5,8.13v.108h.65V97.6Z" transform="translate(-34.099 -97.492)" fill="#574c77"/>
            <path id="Контур_536" data-name="Контур 536" d="M97.83,105.088h0a4.346,4.346,0,0,1-3.252,1.518,4.006,4.006,0,0,1-3.9-4.119h0a3.939,3.939,0,0,1,3.9-4.119,3.814,3.814,0,0,1,3.035,1.3l.108.108.542-.65-.108-.108A5.23,5.23,0,0,0,94.469,97.5a4.767,4.767,0,0,0-4.769,4.878h0a4.679,4.679,0,0,0,4.661,4.878,5.041,5.041,0,0,0,3.794-1.734l.108-.108Z" transform="translate(-33.226 -97.5)" fill="#574c77"/>
          </g>
        </g>
      </g>
    </g>
    <g id="Сгруппировать_158" data-name="Сгруппировать 158" transform="translate(104.697 103.553)">
      <g id="Сгруппировать_157" data-name="Сгруппировать 157">
        <path id="Контур_537" data-name="Контур 537" d="M107.413,97.6l-3.469,4.986-3.36-4.986H99.5l4.011,5.745v3.794h.867v-3.794l4.011-5.745Z" transform="translate(-99.5 -97.6)" fill="#574c77"/>
      </g>
    </g>
    <path id="Контур_538" data-name="Контур 538" d="M74.3,57.272A18.209,18.209,0,0,0,65.632,48.6a17.72,17.72,0,0,1-7.588,1.734,19.951,19.951,0,0,1-4.444-.542V60.524L74.2,72.447h0A17.975,17.975,0,0,0,74.3,57.272Z" transform="translate(1.343 1.839)" fill="url(#linear-gradient)"/>
    <path id="Контур_539" data-name="Контур 539" d="M74.3,26.7h0L53.7,38.515V51.523a19.951,19.951,0,0,0,4.444.542,17.72,17.72,0,0,0,7.588-1.734A18.209,18.209,0,0,0,74.4,41.659a17.72,17.72,0,0,1-1.734-7.588A15.178,15.178,0,0,1,74.3,26.7Z" transform="translate(1.352)" fill="url(#linear-gradient-2)"/>
    <path id="Контур_540" data-name="Контур 540" d="M72.834,26.7h0a17.465,17.465,0,0,0,0,15.175,18.209,18.209,0,0,0,8.672,8.672,17.72,17.72,0,0,1,7.588-1.734,19.951,19.951,0,0,1,4.444.542V38.515Z" transform="translate(2.813)" fill="url(#linear-gradient-3)"/>
    <path id="Контур_541" data-name="Контур 541" d="M88.859,47.1a17.72,17.72,0,0,0-7.588,1.734A18.209,18.209,0,0,0,72.6,57.506a17.465,17.465,0,0,1,0,15.175h0L93.2,60.866V47.75A13.978,13.978,0,0,0,88.859,47.1Z" transform="translate(2.939 1.713)" fill="url(#linear-gradient-4)"/>
  </g>
</svg>
