<svg xmlns="http://www.w3.org/2000/svg" width="30" height="19.962" viewBox="0 0 30 19.962">
  <g id="ico_nonshowpassword" transform="translate(48.999 -226.662)">
    <path id="Path_1356" data-name="Path 1356" d="M154.568,269.321a26.488,26.488,0,0,0-4.3-3.651A18.84,18.84,0,0,0,139.795,262a15.177,15.177,0,0,0-4.183.616l1.676,1.676a6.151,6.151,0,0,1,8.125,8.125l1.309,1.309a7.893,7.893,0,0,0-.451-8.353,25.109,25.109,0,0,1,6.413,4.537,26.129,26.129,0,0,1-5.635,4.143l1.3,1.3q.964-.542,1.921-1.2a26.492,26.492,0,0,0,4.3-3.651A.879.879,0,0,0,154.568,269.321Z" transform="translate(-173.794 -33.267)" fill="#a7a7a7"/>
    <path id="Path_1357" data-name="Path 1357" d="M-26.813,242.789l-2.349-2.349,0,0-1.256-1.256,0,0-1.272-1.272v0l-3.581-3.581h0l-1.272-1.272,0,0-1.256-1.256,0,0-1.935-1.935h0l-3.21-3.21L-43.98,227.7l2.8,2.8A24.165,24.165,0,0,0-44.47,232.4a26.487,26.487,0,0,0-4.3,3.651.879.879,0,0,0,0,1.179,26.489,26.489,0,0,0,4.3,3.651A18.84,18.84,0,0,0-34,244.553a16,16,0,0,0,5.736-1.139l3.209,3.209,1.036-1.036-2.8-2.8Zm-9.494-7.418,3.579,3.579a2.616,2.616,0,0,1-1.272.329,2.64,2.64,0,0,1-2.637-2.637A2.618,2.618,0,0,1-36.307,235.371Zm-4.168,5.809a25.11,25.11,0,0,1-6.413-4.537,25.656,25.656,0,0,1,6.414-4.54,7.866,7.866,0,0,0-1.436,4.539A7.866,7.866,0,0,0-40.475,241.18ZM-34,242.8a6.16,6.16,0,0,1-6.152-6.152,6.121,6.121,0,0,1,1.317-3.8l1.255,1.255a4.366,4.366,0,0,0-.815,2.544A4.4,4.4,0,0,0-34,241.037a4.366,4.366,0,0,0,2.544-.815l1.255,1.255A6.121,6.121,0,0,1-34,242.8Z" fill="#a7a7a7"/>
    <path id="Path_1358" data-name="Path 1358" d="M191.36,325.867l1.662,1.662a4.393,4.393,0,0,0-5.38-5.38l1.662,1.662A2.645,2.645,0,0,1,191.36,325.867Z" transform="translate(-222.776 -89.752)" fill="#a7a7a7"/>
  </g>
</svg>
