<svg xmlns="http://www.w3.org/2000/svg" width="30" height="15.82" viewBox="0 0 30 15.82">
  <g id="ico_showpassword" transform="translate(0 -121)">
    <path id="Path_1354" data-name="Path 1354" d="M29.774,128.321a26.489,26.489,0,0,0-4.3-3.651A18.84,18.84,0,0,0,15,121,18.84,18.84,0,0,0,4.53,124.67a26.487,26.487,0,0,0-4.3,3.651.879.879,0,0,0,0,1.179,26.489,26.489,0,0,0,4.3,3.651A18.839,18.839,0,0,0,15,136.82a18.84,18.84,0,0,0,10.471-3.67,26.491,26.491,0,0,0,4.3-3.651A.879.879,0,0,0,29.774,128.321ZM8.525,133.448a25.11,25.11,0,0,1-6.413-4.537,25.656,25.656,0,0,1,6.414-4.54,7.893,7.893,0,0,0,0,9.077ZM15,135.063a6.152,6.152,0,1,1,6.152-6.152A6.16,6.16,0,0,1,15,135.063Zm6.474-1.613a7.893,7.893,0,0,0,0-9.077,25.111,25.111,0,0,1,6.413,4.537A25.654,25.654,0,0,1,21.475,133.45Z" transform="translate(0)" fill="#0098c1"/>
    <path id="Path_1355" data-name="Path 1355" d="M185.395,181a4.395,4.395,0,1,0,4.395,4.395A4.4,4.4,0,0,0,185.395,181Zm0,7.031a2.637,2.637,0,1,1,2.637-2.637A2.64,2.64,0,0,1,185.395,188.031Z" transform="translate(-170.394 -56.484)" fill="#0098c1"/>
  </g>
</svg>
