<svg xmlns="http://www.w3.org/2000/svg" width="81.949" height="59.413" viewBox="0 0 81.949 59.413">
  <g id="ico_hbprogram" transform="translate(-18 -26.8)">
    <g id="Group_1078" data-name="Group 1078" transform="translate(18 26.8)">
      <path id="Path_1202" data-name="Path 1202" d="M27.988,35.067H20.561v6.274H18V27h2.561v5.89h7.427V27h2.561V41.341H27.988Z" transform="translate(-18 -26.744)" fill="#0098c1"/>
      <path id="Path_1203" data-name="Path 1203" d="M36.9,26.8a7.1,7.1,0,0,1,7.3,7.427,7.1,7.1,0,0,1-7.3,7.427,7.1,7.1,0,0,1-7.3-7.427A7.1,7.1,0,0,1,36.9,26.8Zm0,2.3c-2.945,0-4.738,2.177-4.738,5.122s1.793,5.122,4.738,5.122c2.817,0,4.738-2.177,4.738-5.122S39.844,29.1,36.9,29.1Z" transform="translate(-14.747 -26.8)" fill="#0098c1"/>
      <path id="Path_1204" data-name="Path 1204" d="M43.58,37.428a6.34,6.34,0,0,0,4.482,1.921c2.049,0,2.817-1.024,2.817-1.921,0-1.28-1.537-1.665-3.2-2.177-2.3-.64-5.122-1.28-5.122-4.226,0-2.3,2.049-4.226,5.25-4.226a7.777,7.777,0,0,1,5.378,2.049l-1.408,1.793a5.814,5.814,0,0,0-4.1-1.665c-1.537,0-2.433.768-2.433,1.793,0,1.152,1.409,1.537,3.2,1.921,2.3.64,5.122,1.28,5.122,4.482,0,2.433-1.665,4.354-5.506,4.354a7.3,7.3,0,0,1-5.762-2.3Z" transform="translate(-11.185 -26.8)" fill="#0098c1"/>
      <path id="Path_1205" data-name="Path 1205" d="M56.226,29.177H52V27H63.14v2.177H58.786V41.213H56.226Z" transform="translate(-8.464 -26.744)" fill="#0098c1"/>
      <path id="Path_1206" data-name="Path 1206" d="M62.3,27h9.86v2.177h-7.3V32.89h7.171v2.177H64.861v3.969h7.3v2.177H62.428V27Z" transform="translate(-5.576 -26.744)" fill="#0098c1"/>
      <path id="Path_1207" data-name="Path 1207" d="M72.1,27h5.25c4.482,0,7.427,2.945,7.427,7.171S81.7,41.341,77.35,41.341H72.1Zm5.122,12.036a4.636,4.636,0,0,0,4.866-4.866c0-2.817-1.665-4.994-4.866-4.994H74.4v9.86Z" transform="translate(-2.827 -26.744)" fill="#0098c1"/>
      <path id="Path_1208" data-name="Path 1208" d="M24.1,43.7h7.043c2.561,0,4.1,1.665,4.1,3.585a3.377,3.377,0,0,1-2.433,3.329,3.575,3.575,0,0,1,2.817,3.457,3.769,3.769,0,0,1-4.1,3.841H24.356V43.7Zm6.53,5.89A1.827,1.827,0,0,0,32.679,47.8a1.92,1.92,0,0,0-2.049-1.921H26.661V49.59Zm.128,6.274a1.924,1.924,0,0,0,2.177-2.049,1.961,1.961,0,0,0-2.177-1.921h-4.1v3.969Z" transform="translate(-16.289 -22.06)" fill="#0098c1"/>
      <path id="Path_1209" data-name="Path 1209" d="M35,43.7h2.561v8.579a3.372,3.372,0,0,0,3.713,3.713c2.433,0,3.585-1.537,3.585-3.713V43.7H47.42v8.579c0,3.585-2.049,5.89-6.146,5.89s-6.146-2.433-6.146-5.89V43.7Z" transform="translate(-13.232 -22.06)" fill="#0098c1"/>
      <path id="Path_1210" data-name="Path 1210" d="M51.306,52.023,45.8,43.7h2.817l3.969,6.146L56.428,43.7h2.817l-5.506,8.323v5.89H51.178l.128-5.89Z" transform="translate(-10.203 -22.06)" fill="#0098c1"/>
      <path id="Path_1211" data-name="Path 1211" d="M57.6,43.7h9.731v2.177h-7.3V49.59H67.2v2.177H60.033v3.969h7.3v2.177H57.6Z" transform="translate(-6.894 -22.06)" fill="#0098c1"/>
      <path id="Path_1212" data-name="Path 1212" d="M72.294,52.663H69.861v5.378H67.3V43.7h6.274a4.269,4.269,0,0,1,4.61,4.482,4.01,4.01,0,0,1-3.329,4.226l3.457,5.634H75.367Zm.9-6.786H69.733v4.482H73.19a2.253,2.253,0,0,0,2.433-2.3C75.623,46.645,74.727,45.877,73.19,45.877Z" transform="translate(-4.173 -22.06)" fill="#0098c1"/>
    </g>
    <g id="Group_1079" data-name="Group 1079" transform="translate(21.201 71.232)">
      <path id="Path_1213" data-name="Path 1213" d="M21.652,70.563V76.2H20.5V61.856h1.152v1.665A4.589,4.589,0,0,1,25.238,61.6c2.817,0,4.61,2.049,4.61,5.378s-1.921,5.378-4.61,5.378A4.153,4.153,0,0,1,21.652,70.563Zm7.043-3.585c0-2.561-1.28-4.354-3.585-4.354a4.6,4.6,0,0,0-3.457,1.793v5.122A4.157,4.157,0,0,0,25.11,71.46C27.414,71.46,28.695,69.539,28.695,66.978Z" transform="translate(-20.5 -61.472)" fill="#0098c1"/>
      <path id="Path_1214" data-name="Path 1214" d="M30.1,72.228V61.856h1.152v1.793A4.53,4.53,0,0,1,34.71,61.6v1.28H34.2a4.033,4.033,0,0,0-2.945,1.793v7.555Z" transform="translate(-17.808 -61.472)" fill="#0098c1"/>
      <path id="Path_1215" data-name="Path 1215" d="M35,66.978C35,63.9,36.921,61.6,39.994,61.6s4.994,2.433,4.994,5.378c0,3.073-1.921,5.378-4.994,5.378C36.921,72.484,35,70.051,35,66.978Zm8.707,0c0-2.3-1.409-4.354-3.841-4.354s-3.713,2.177-3.713,4.354c0,2.3,1.409,4.482,3.713,4.482C42.427,71.46,43.707,69.283,43.707,66.978Z" transform="translate(-16.433 -61.472)" fill="#0098c1"/>
      <path id="Path_1216" data-name="Path 1216" d="M45.112,74.817l.64-.9a4.12,4.12,0,0,0,3.457,1.409c1.921,0,3.585-.9,3.585-3.329V70.335a4.589,4.589,0,0,1-3.585,1.921c-2.689,0-4.61-2.049-4.61-5.378S46.521,61.5,49.21,61.5a4.256,4.256,0,0,1,3.585,1.921V61.884h1.152V72.128c0,3.2-2.177,4.354-4.61,4.354C47.417,76.353,46.393,76.1,45.112,74.817Zm7.683-5.25V64.445a4.157,4.157,0,0,0-3.457-1.921c-2.3,0-3.585,1.921-3.585,4.354,0,2.561,1.28,4.354,3.585,4.354A3.975,3.975,0,0,0,52.795,69.567Z" transform="translate(-13.741 -61.5)" fill="#0098c1"/>
      <path id="Path_1217" data-name="Path 1217" d="M54.5,72.228V61.856h1.152v1.793A4.53,4.53,0,0,1,59.11,61.6v1.28H58.6a4.033,4.033,0,0,0-2.945,1.793v7.555Z" transform="translate(-10.964 -61.472)" fill="#0098c1"/>
      <path id="Path_1218" data-name="Path 1218" d="M66.443,72.228v-1.28a4.384,4.384,0,0,1-3.457,1.537A3.466,3.466,0,0,1,59.4,69.027a3.388,3.388,0,0,1,3.585-3.457,4.384,4.384,0,0,1,3.457,1.537V65.057a2.536,2.536,0,0,0-2.817-2.433,4.06,4.06,0,0,0-3.2,1.537l-.512-.768A5.058,5.058,0,0,1,63.882,61.6c2.049,0,3.713,1.024,3.713,3.329v7.3H66.443Zm0-2.049v-2.3a4.09,4.09,0,0,0-3.073-1.409,2.573,2.573,0,1,0,0,5.122A3.718,3.718,0,0,0,66.443,70.179Z" transform="translate(-9.59 -61.472)" fill="#0098c1"/>
      <path id="Path_1219" data-name="Path 1219" d="M80.792,72.228v-7.3c0-1.409-.64-2.3-2.049-2.3A3.507,3.507,0,0,0,75.8,64.417v7.811H74.646v-7.3c0-1.408-.64-2.3-2.049-2.3a4.033,4.033,0,0,0-2.945,1.793v7.811H68.5V61.856h1.152v1.537A4.424,4.424,0,0,1,72.982,61.6a2.487,2.487,0,0,1,2.689,1.921A4.157,4.157,0,0,1,79.128,61.6c1.921,0,2.817,1.024,2.817,3.2v7.427Z" transform="translate(-7.038 -61.472)" fill="#0098c1"/>
    </g>
  </g>
</svg>
