<svg xmlns="http://www.w3.org/2000/svg" width="123.585" height="46.553" viewBox="0 0 123.585 46.553">
  <g id="ico_more90perc" transform="translate(-9.55 -31.8)">
    <g id="Group_320" data-name="Group 320" transform="translate(33.829 31.8)">
      <g id="Group_319" data-name="Group 319">
        <path id="Path_879" data-name="Path 879" d="M28.649,72.48l2.292-2.722a11.286,11.286,0,0,0,9.884,5.013c9.884,0,13.321-10.313,13.321-19.767V52.856c-2.005,3.151-7.162,7.592-13.178,7.592C32.8,60.448,26.5,55.721,26.5,46.124c0-7.305,5.586-14.324,15.184-14.324C53.859,31.8,58.3,42.973,58.3,55.148c0,11.6-4.727,23.205-17.189,23.205C34.951,78.21,31.37,75.775,28.649,72.48Zm25.21-23.348c-.573-6.159-3.724-14.038-12.175-14.038-7.735,0-11.316,5.873-11.316,10.743,0,7.305,4.87,10.886,11.316,10.886C46.41,56.867,51.281,53.716,53.859,49.132Z" transform="translate(-26.5 -31.8)" fill="#0098c1"/>
        <path id="Path_880" data-name="Path 880" d="M51,55.005C51,44.262,55.584,31.8,67.616,31.8S84.232,44.262,84.232,55.005,79.648,78.353,67.616,78.353C55.44,78.21,51,65.6,51,55.005Zm29.078,0c0-9.311-3.008-19.767-12.462-19.767S55.011,45.694,55.011,55.005s3.151,19.767,12.605,19.767S80.078,64.172,80.078,55.005Z" transform="translate(-15.906 -31.8)" fill="#0098c1"/>
      </g>
    </g>
    <g id="Group_321" data-name="Group 321" transform="translate(106.729 44.246)">
      <path id="Path_881" data-name="Path 881" d="M83.707,40.489A6.17,6.17,0,0,1,90.1,46.88a6.353,6.353,0,1,1-6.391-6.391Zm0,2.564c-1.952,0-3.368,1.531-3.368,3.827a3.4,3.4,0,1,0,6.774,0C87.113,44.584,85.7,43.053,83.707,43.053Zm13.854-2.182h2.565L83.783,66.4H81.258ZM97.447,54.19a6.162,6.162,0,0,1,6.353,6.391,6.334,6.334,0,1,1-6.353-6.391Zm0,2.564c-1.99,0-3.368,1.531-3.368,3.827,0,2.219,1.378,3.751,3.368,3.751a3.439,3.439,0,0,0,3.406-3.751C100.853,58.285,99.436,56.754,97.447,56.754Z" transform="translate(-77.393 -40.489)" fill="#0098c1"/>
    </g>
    <g id="Group_322" data-name="Group 322" transform="translate(9.55 48.245)">
      <path id="Path_882" data-name="Path 882" d="M9.55,58.972,23.482,52.7,9.55,46.381v-3.1l16.994,7.96v2.871L9.55,62.034Z" transform="translate(-9.55 -43.281)" fill="#0098c1"/>
    </g>
  </g>
</svg>
