<svg id="ico_pdf" xmlns="http://www.w3.org/2000/svg" width="26.661" height="35" viewBox="0 0 26.661 35">
  <path id="Контур_1079" data-name="Контур 1079" d="M9.313,0,0,9.313V35H26.661V0Zm-.6,3.5V8.712H3.5Zm15.9,29.448H2.051V10.763h8.712V2.051H24.61Zm0,0" fill="#0098c1"/>
  <path id="Контур_1080" data-name="Контур 1080" d="M70.231,222.336H67.457V228.1H69.4v-1.416h.831c1.6,0,2.625-.839,2.625-2.173S71.836,222.336,70.231,222.336Zm-.123,2.848H69.4v-1.35h.708c.535,0,.79.255.79.675S70.642,225.184,70.107,225.184Zm0,0" transform="translate(-62.846 -207.137)" fill="#0098c1"/>
  <path id="Контур_1081" data-name="Контур 1081" d="M156.906,222.336V228.1h2.839c1.926,0,3.251-1.095,3.251-2.88s-1.325-2.88-3.251-2.88Zm4.131,2.88a1.269,1.269,0,0,1-1.374,1.366h-.815V223.85h.815A1.269,1.269,0,0,1,161.038,225.216Zm0,0" transform="translate(-146.18 -207.137)" fill="#0098c1"/>
  <path id="Контур_1082" data-name="Контур 1082" d="M259.493,226.254h2.4v-1.465h-2.4V223.8h2.741v-1.465h-4.683V228.1h1.942Zm0,0" transform="translate(-239.945 -207.137)" fill="#0098c1"/>
</svg>
