<svg xmlns="http://www.w3.org/2000/svg" width="79.192" height="68.166" viewBox="0 0 79.192 68.166">
  <g id="ico_4000" transform="translate(-10.404 -15.917)">
    <g id="Group_287" data-name="Group 287">
      <path id="Path_772" data-name="Path 772" d="M27.774,22.125c0-3.46,2.233-6.208,5.692-6.208,3.509,0,5.718,2.748,5.718,6.208s-2.209,6.232-5.718,6.232C30.007,28.357,27.774,25.585,27.774,22.125Zm10.036,0c0-2.625-1.546-5.054-4.344-5.054-2.748,0-4.318,2.429-4.318,5.054,0,2.65,1.57,5.079,4.318,5.079C36.264,27.2,37.81,24.775,37.81,22.125Z" fill="#0098c1"/>
      <path id="Path_773" data-name="Path 773" d="M45.658,28.063,40.652,16.212h1.423l4.319,10.354,4.269-10.354H52.11L47.1,28.063Z" fill="#0098c1"/>
      <path id="Path_774" data-name="Path 774" d="M53.58,22.125c0-3.435,2.429-6.208,5.717-6.208,3.606,0,5.594,2.871,5.594,6.281v.344H54.979a4.618,4.618,0,0,0,4.636,4.711,5.207,5.207,0,0,0,3.877-1.644l.662.835a6.112,6.112,0,0,1-4.636,1.913C56.058,28.357,53.58,25.781,53.58,22.125Zm5.692-5.1a4.458,4.458,0,0,0-4.293,4.514h8.612A4.345,4.345,0,0,0,59.272,17.022Z" fill="#0098c1"/>
      <path id="Path_775" data-name="Path 775" d="M68.175,28.063V16.212h1.276v2.036a5.091,5.091,0,0,1,4-2.281v1.4a2.692,2.692,0,0,0-.637-.049,4.515,4.515,0,0,0-3.362,2.11v8.637Z" fill="#0098c1"/>
    </g>
    <g id="Group_288" data-name="Group 288">
      <path id="Path_776" data-name="Path 776" d="M17.029,82.292l.737-.982a4.54,4.54,0,0,0,3.925,1.669c2.16,0,4.049-1.08,4.049-3.8V77.311a5.134,5.134,0,0,1-4.122,2.208c-3.141,0-5.3-2.38-5.3-6.182,0-3.755,2.159-6.208,5.3-6.208a5.029,5.029,0,0,1,4.122,2.208V67.423h1.3V79.151c0,3.632-2.453,4.932-5.349,4.932A5.69,5.69,0,0,1,17.029,82.292Zm8.711-6.085V70.441a4.77,4.77,0,0,0-3.9-2.159c-2.626,0-4.147,2.184-4.147,5.055s1.521,5.029,4.147,5.029A4.77,4.77,0,0,0,25.74,76.207Z" fill="#0098c1"/>
      <path id="Path_777" data-name="Path 777" d="M38.986,79.274V77.532a6.016,6.016,0,0,1-4.27,2.036c-2.429,0-3.729-1.128-3.729-3.8V67.423h1.276V75.47c0,2.307,1.153,2.945,2.871,2.945a5.121,5.121,0,0,0,3.852-1.963V67.423h1.276V79.274Z" fill="#0098c1"/>
      <path id="Path_778" data-name="Path 778" d="M43.547,73.337c0-3.436,2.429-6.208,5.717-6.208,3.606,0,5.593,2.871,5.593,6.281v.344H44.945a4.618,4.618,0,0,0,4.637,4.711,5.207,5.207,0,0,0,3.877-1.645l.663.835a6.113,6.113,0,0,1-4.638,1.913C46.024,79.568,43.547,76.992,43.547,73.337Zm5.692-5.1a4.46,4.46,0,0,0-4.294,4.515h8.613A4.346,4.346,0,0,0,49.239,68.233Z" fill="#0098c1"/>
      <path id="Path_779" data-name="Path 779" d="M57.111,77.7l.761-.957A4.936,4.936,0,0,0,61.7,78.489c1.988,0,3.165-1.03,3.165-2.4,0-3.24-7.483-1.424-7.483-5.668,0-1.817,1.546-3.288,4.221-3.288a5.448,5.448,0,0,1,4.244,1.742l-.711.907a4.32,4.32,0,0,0-3.533-1.57c-1.841,0-2.969.932-2.969,2.159,0,2.97,7.483,1.153,7.483,5.718,0,1.913-1.472,3.483-4.441,3.483A5.741,5.741,0,0,1,57.111,77.7Z" fill="#0098c1"/>
      <path id="Path_780" data-name="Path 780" d="M69.646,76.992v-8.44H67.684V67.423h1.962V64.184h1.3v3.239h2.4v1.129h-2.4V76.8c0,.957.393,1.619,1.227,1.619a1.854,1.854,0,0,0,1.325-.564l.49.982a2.664,2.664,0,0,1-2.011.735C70.407,79.568,69.646,78.611,69.646,76.992Z" fill="#0098c1"/>
      <path id="Path_781" data-name="Path 781" d="M75.116,77.7l.761-.957A4.936,4.936,0,0,0,79.7,78.489c1.987,0,3.165-1.03,3.165-2.4,0-3.24-7.483-1.424-7.483-5.668,0-1.817,1.546-3.288,4.22-3.288a5.449,5.449,0,0,1,4.245,1.742l-.711.907a4.32,4.32,0,0,0-3.534-1.57c-1.84,0-2.968.932-2.968,2.159,0,2.97,7.483,1.153,7.483,5.718,0,1.913-1.473,3.483-4.441,3.483A5.741,5.741,0,0,1,75.116,77.7Z" fill="#0098c1"/>
    </g>
    <g id="Group_289" data-name="Group 289">
      <path id="Path_782" data-name="Path 782" d="M21.08,52.364H10.4V49.208l9.2-14.166h5.405V48.906H28v3.458H25.007v5.069H21.08Zm-6.815-3.458H21.08V38.567Z" fill="#0098c1"/>
      <path id="Path_783" data-name="Path 783" d="M39.274,34.706c6.277,0,8.963,5.909,8.963,11.548s-2.686,11.581-8.963,11.581-8.963-5.941-8.963-11.581S33,34.706,39.274,34.706Zm0,3.492c-3.659,0-4.968,3.793-4.968,8.056s1.309,8.09,4.968,8.09,4.969-3.826,4.969-8.09S42.933,38.2,39.274,38.2Z" fill="#0098c1"/>
      <path id="Path_784" data-name="Path 784" d="M59.952,34.706c6.278,0,8.964,5.909,8.964,11.548S66.23,57.835,59.952,57.835s-8.963-5.941-8.963-11.581S53.675,34.706,59.952,34.706Zm0,3.492c-3.658,0-4.968,3.793-4.968,8.056s1.31,8.09,4.968,8.09,4.969-3.826,4.969-8.09S63.611,38.2,59.952,38.2Z" fill="#0098c1"/>
      <path id="Path_785" data-name="Path 785" d="M80.632,34.706c6.278,0,8.964,5.909,8.964,11.548S86.91,57.835,80.632,57.835s-8.963-5.941-8.963-11.581S74.354,34.706,80.632,34.706Zm0,3.492c-3.658,0-4.968,3.793-4.968,8.056s1.31,8.09,4.968,8.09,4.969-3.826,4.969-8.09S84.291,38.2,80.632,38.2Z" fill="#0098c1"/>
    </g>
  </g>
</svg>
