<svg xmlns="http://www.w3.org/2000/svg" width="21.996" height="22" viewBox="0 0 21.996 22"><defs><style>.a{fill:#0098c1;}</style></defs><g transform="translate(-0.898)"><path class="a" d="M22.838,6.468A8.04,8.04,0,0,0,22.327,3.8,5.636,5.636,0,0,0,19.107.58,8.06,8.06,0,0,0,16.439.069C15.261.013,14.887,0,11.9,0S8.539.013,7.366.064A8.04,8.04,0,0,0,4.7.576,5.368,5.368,0,0,0,2.746,1.848,5.417,5.417,0,0,0,1.478,3.795,8.06,8.06,0,0,0,.967,6.464C.911,7.641.9,8.015.9,11s.013,3.361.064,4.534a8.039,8.039,0,0,0,.512,2.669,5.635,5.635,0,0,0,3.219,3.219,8.061,8.061,0,0,0,2.669.511C8.535,21.987,8.909,22,11.9,22s3.361-.013,4.534-.064a8.038,8.038,0,0,0,2.669-.511,5.627,5.627,0,0,0,3.219-3.219,8.066,8.066,0,0,0,.511-2.669c.052-1.173.064-1.547.064-4.534S22.889,7.641,22.838,6.468ZM20.857,15.45a6.029,6.029,0,0,1-.378,2.041,3.649,3.649,0,0,1-2.089,2.089,6.053,6.053,0,0,1-2.041.378c-1.16.052-1.508.064-4.444.064s-3.288-.013-4.444-.064a6.028,6.028,0,0,1-2.041-.378,3.386,3.386,0,0,1-1.263-.821A3.421,3.421,0,0,1,3.335,17.5a6.052,6.052,0,0,1-.378-2.041c-.052-1.16-.064-1.509-.064-4.444s.013-3.288.064-4.444a6.026,6.026,0,0,1,.378-2.041A3.344,3.344,0,0,1,4.16,3.262a3.415,3.415,0,0,1,1.263-.821,6.055,6.055,0,0,1,2.041-.378C8.625,2.011,8.974,2,11.909,2s3.288.013,4.444.064a6.029,6.029,0,0,1,2.041.378,3.382,3.382,0,0,1,1.263.821,3.419,3.419,0,0,1,.821,1.264,6.054,6.054,0,0,1,.378,2.041c.052,1.16.064,1.508.064,4.444S20.908,14.29,20.857,15.45Z" transform="translate(0 0)"/><path class="a" d="M130.962,124.281a5.783,5.783,0,1,0,5.783,5.783A5.785,5.785,0,0,0,130.962,124.281Zm0,9.535a3.752,3.752,0,1,1,3.752-3.752A3.752,3.752,0,0,1,130.962,133.816Z" transform="translate(-119.062 -119.062)"/><path class="a" d="M363.548,88.446a1.287,1.287,0,1,0,1.287,1.287A1.287,1.287,0,0,0,363.548,88.446Z" transform="translate(-345.753 -84.625)"/></g></svg>
