<svg xmlns="http://www.w3.org/2000/svg" width="52.25" height="46.039" viewBox="0 0 52.25 46.039">
  <g id="LTM_LOGO2019-sign_blue" transform="translate(-74.2 -68.2)">
    <path id="Path_1181" data-name="Path 1181" d="M74.2,114.239h52.25V68.2H74.2ZM125.437,69.2h0v44.031H75.2L75.194,69.2Z" transform="translate(0 0)" fill="currentColor"/>
    <path id="Path_1182" data-name="Path 1182" d="M123.705,120.337h-4.289V112.8H118.8v8.087h4.9Z" transform="translate(-40.377 -40.377)" fill="currentColor"/>
    <path id="Path_1183" data-name="Path 1183" d="M178.074,120.953a2.624,2.624,0,0,0,2.774-2.689V112.8h-.616v5.378a2.16,2.16,0,1,1-4.318,0V112.8H175.3v5.464A2.634,2.634,0,0,0,178.074,120.953Z" transform="translate(-91.527 -40.377)" fill="currentColor"/>
    <path id="Path_1184" data-name="Path 1184" d="M242.791,120.887l2.112-3.6,2.112,3.6h.71l-2.5-4.147,2.32-3.939h-.7l-1.941,3.4-1.932-3.4h-.72l2.32,3.939-2.471,4.147Z" transform="translate(-152.001 -40.377)" fill="currentColor"/>
    <path id="Path_1185" data-name="Path 1185" d="M312.374,120.953a2.624,2.624,0,0,0,2.774-2.689V112.8h-.616v5.378a2.16,2.16,0,1,1-4.318,0V112.8H309.6v5.464A2.634,2.634,0,0,0,312.374,120.953Z" transform="translate(-213.11 -40.377)" fill="currentColor"/>
    <path id="Path_1186" data-name="Path 1186" d="M388.1,117.256h2.225l1.932,3.721h.72l-1.951-3.731a2.254,2.254,0,0,0,1.373-.729,2.182,2.182,0,0,0,.492-1.449,2.1,2.1,0,0,0-2.31-2.168H387.5v8.077h.615v-3.721Zm0-3.816h2.386a1.644,1.644,0,1,1,0,3.276H388.1Z" transform="translate(-283.633 -40.467)" fill="currentColor"/>
    <path id="Path_1187" data-name="Path 1187" d="M450.577,120.887h.616v-3.352l2.386-4.735h-.663l-2.008,4.091-2.055-4.091H448.2l2.377,4.735Z" transform="translate(-338.586 -40.377)" fill="currentColor"/>
    <path id="Path_1188" data-name="Path 1188" d="M121.205,235.987h.615v-7.537h2.415V227.9H118.8v.549h2.405Z" transform="translate(-40.377 -144.578)" fill="currentColor"/>
    <path id="Path_1189" data-name="Path 1189" d="M187,227.9v8.077h.616v-3.712h2.225l1.932,3.721h.72l-1.951-3.731a2.229,2.229,0,0,0,1.373-.729,2.182,2.182,0,0,0,.492-1.449,2.106,2.106,0,0,0-2.32-2.168H187Zm4.782,2.178a1.57,1.57,0,0,1-1.78,1.638h-2.386v-3.267H190A1.563,1.563,0,0,1,191.782,230.078Z" transform="translate(-102.119 -144.578)" fill="currentColor"/>
    <path id="Path_1190" data-name="Path 1190" d="M253.532,234.017l.7,1.96h.663l-2.973-8.077h-.549l-2.973,8.077h.663l.7-1.96Zm-1.884-5.293,1.686,4.753h-3.381Z" transform="translate(-157.705 -144.578)" fill="currentColor"/>
    <path id="Path_1191" data-name="Path 1191" d="M312.716,234.907l-2.273-7.007H309.8l2.661,8.087h.521l2.651-8.087h-.644Z" transform="translate(-213.291 -144.578)" fill="currentColor"/>
    <path id="Path_1192" data-name="Path 1192" d="M384.7,235.437h-4.289V232.18h3.655v-.54h-3.655v-3.191H384.7V227.9h-4.9v8.087h4.9Z" transform="translate(-276.663 -144.578)" fill="currentColor"/>
    <path id="Path_1193" data-name="Path 1193" d="M450.405,235.437h-4.29V227.9H445.5v8.087h4.905Z" transform="translate(-336.141 -144.578)" fill="currentColor"/>
    <path id="Path_1194" data-name="Path 1194" d="M119.416,344.42l2.5,5.53h.606l2.452-5.53v6.666h.615V343h-.615l-2.746,6.231L119.416,343H118.8v8.087h.616Z" transform="translate(-40.377 -248.779)" fill="currentColor"/>
    <path id="Path_1195" data-name="Path 1195" d="M202.473,343l-2.973,8.087h.653l.7-1.96h3.769l.7,1.96h.663L203.023,343Zm-1.42,5.577,1.686-4.753,1.695,4.753Z" transform="translate(-113.435 -248.779)" fill="currentColor"/>
    <path id="Path_1196" data-name="Path 1196" d="M281.914,346.627a2.235,2.235,0,0,0,.483-1.458,2.106,2.106,0,0,0-2.32-2.168H277v8.087h.616v-3.721h2.225l1.932,3.721h.72l-1.951-3.731A2.383,2.383,0,0,0,281.914,346.627Zm-4.3.189v-3.267H280a1.639,1.639,0,1,1,0,3.267Z" transform="translate(-183.597 -248.779)" fill="currentColor"/>
    <path id="Path_1197" data-name="Path 1197" d="M340.2,343.549h2.415v7.537h.606v-7.537h2.424V343H340.2Z" transform="translate(-240.812 -248.779)" fill="currentColor"/>
    <path id="Path_1198" data-name="Path 1198" d="M407.981,342.5a1.584,1.584,0,0,0-1.581,1.581,1.537,1.537,0,0,0,.464,1.127,1.516,1.516,0,0,0,1.117.464,1.584,1.584,0,0,0,1.591-1.591,1.5,1.5,0,0,0-.464-1.117A1.575,1.575,0,0,0,407.981,342.5Zm.966,2.557a1.369,1.369,0,1,1-.966-2.339,1.33,1.33,0,0,1,.966.4,1.383,1.383,0,0,1,0,1.941Z" transform="translate(-300.744 -248.326)" fill="currentColor"/>
    <path id="Path_1199" data-name="Path 1199" d="M417.816,351.448v-.265a.48.48,0,0,0-.095-.275.407.407,0,0,0-.294-.171.806.806,0,0,0,.256-.085.382.382,0,0,0,.17-.341.451.451,0,0,0-.275-.445,1.2,1.2,0,0,0-.473-.066H416.5v1.742h.312v-.682h.237a.736.736,0,0,1,.341.057.439.439,0,0,1,.161.4v.189c0,.009.01.009.01.019s0,.009.009.019h.294l-.01-.019C417.826,351.523,417.816,351.495,417.816,351.448Zm-.455-.824a.784.784,0,0,1-.294.038h-.275v-.634h.256a.853.853,0,0,1,.369.066.277.277,0,0,1,.114.256A.251.251,0,0,1,417.362,350.624Z" transform="translate(-309.887 -254.935)" fill="currentColor" />
  </g>
</svg>
