<svg xmlns="http://www.w3.org/2000/svg" width="93.7" height="93.7" viewBox="0 0 93.7 93.7">
  <g id="ttg_logo" transform="translate(-28.9 -30)">
    <path id="Контур_456" data-name="Контур 456" d="M109.2,94.1c-5.2,3-9.4,1.1-12.9-4.9-1.1-2.1-20.8-36-21.5-37.4a10.044,10.044,0,0,1,4-13.9c5.8-3.4,10.8-.8,13.2,3.4,0,0,.6,1.1,5,8.6l-7.3,4.2c-5.2-8.9-5.5-9.6-5.5-9.6-.8-1.4-3.1-.1-2.3,1.3.4.7,22.7,39.3,23,39.8a1.321,1.321,0,0,0,2.3-1.3s-5-8.7-9.5-16.4l-1.5.8-4.1-7.2,8.7-5L119,88l-4,2.3c-1.5-1.6-2.7-2.9-2.7-2.9a6.611,6.611,0,0,1-3.1,6.7Zm-22,12.5L59.7,58.9,55,61.6l-3.6-6.1L69.2,45.2l3.5,6.1-4.9,2.8,27.5,47.7-8.1,4.8ZM67.9,117.7,40.4,70.1l-4.7,2.7-3.5-6.1L50,56.4l3.5,6.1-4.9,2.8L76.1,113l-8.2,4.7ZM88.3,30,28.9,64.3l34.3,59.4,59.4-34.3L88.3,30" fill="#e20613"/>
  </g>
</svg>
