<svg xmlns="http://www.w3.org/2000/svg" width="65" height="68.297" viewBox="0 0 65 68.297">
  <g id="ap-logo" transform="translate(-0.001 0.006)">
    <g id="g12" transform="translate(0.001 -0.006)">
      <path id="path14" d="M77.887,18.334a3.145,3.145,0,0,0-1.236,0c-.082-.329,1.236-.494,1.236,0h0" transform="translate(-29.268 -6.878)" fill="#fff" fill-rule="evenodd"/>
      <path id="path16" d="M85.937,33.727c.5,1.4-.329.742,0,0h0" transform="translate(-32.784 -12.875)" fill="#fff" fill-rule="evenodd"/>
      <path id="path18" d="M27.662,81.335c-.165.33-.412-.165-.742,0,.083-.412.495-.082.742,0h0" transform="translate(-10.28 -30.976)" fill="#fff" fill-rule="evenodd"/>
      <path id="path20" d="M24.2,1.725c.907-.907,2.143-.247,2.638-.99C28,.983,29.727.076,30.8.241c0,0-.165.164-.165.247.412-.577,1.649.164,1.813-.495a8.808,8.808,0,0,0,3.545.247c0,.329,1.071.164,2.06.247V.735a20.8,20.8,0,0,1,6.512,1.236A18.919,18.919,0,0,1,55.772,8.236c.247.329.907.495.659,1.071.33-.33.248.33.66.33-.082.247-.164-.165-.412.082.824.082,1.071.742,1.484,1.236-.165.165-.577.412-.247.742.164-.082-.083-.165,0-.329.247.082.247.329.659.247-.247.247,0,.247.412.247,0,.165-.247.083-.412.083,0,.247.412.082.66.082.247.907.906,1.484.742,2.061.082.164.247,0,.66.082.164.412-.412.082-.247.495a4.714,4.714,0,0,1,1.4,2.39h-.412c0,.247.165.247.165.495.247-.165.165-.742.495-.33-.495.247.329.824.495,1.319.082.329-.082.659,0,.989.082.247.33.082.412.247.742,1.071.577,4.945.494,6.429a26.809,26.809,0,0,1-.164,4.451c-.329,1.648-.412,3.626-.989,4.451.165.329.495.329.247.742a.362.362,0,0,0-.412-.083c-.247.824-.412,3.544-1.813,3.874.083.082.165.577.247.247-.659,2.144-2.8,3.956-4.2,5.77-.412-.082-.495.083-.742.083.083.329.248-.083.5,0,0,.495-.824.247-.907.576.165.412,0-.329.412-.082a27.969,27.969,0,0,1-5.686,4.615c-3.3,1.813-7.583,4.039-11.456,4.616-.577.66-2.8.329-3.709,1.236a30.216,30.216,0,0,0-3.214-.33c-.165,0-.495.5-.247,0a4.608,4.608,0,0,1-1.814-.082c0,.165.248.082.412.082-3.709-.165-5.852-1.9-8.407-2.06.082-.412-1.566-.247-1.648-.989-.165.33,0,.083-.495,0,.329-.495-.5-.988-.742-.495,0-.165-.825-.494-1.154-.494-.165-.083,0-.248.164-.248-.247-.247-1.153,0-1.236-.825,0,.577-1.236-.412-.906-.494-.083-.165-.247,0-.247.082-2.473-2.555-5.934-4.534-7.088-7.335-1.731-1.566-1.813-3.05-3.214-4.945a3.939,3.939,0,0,0-.907-2.638c.412-.082-.329-1.071.165-1.566-.247.165-.247.165-.165-.082-.082-.247-.164.165-.412-.165-.083-.659-.165-1.236.165-1.319,0-.164-.495-.247,0-.247-.99-2.143-.165-5.11-.577-7.335a6.859,6.859,0,0,0,.495-1.9c.329.66.66-.66.247-.577.082-.247.165-.247.412-.083,0-.247-.083-.329-.247-.329,0-.165.247-.082.412-.165,0-.082-.165-.082-.248-.082.825-1.4.66-2.39,1.649-4.2.082,0,.082.164.165.247.247-.247-.329-.5,0-.989.247.165.165,0,.495,0-.329-.495.412-.495.164-.989.33,0,.248-.412.66-.329-.082-1.072,1.319-1.9,1.9-3.379.495.247,1.566-1.071,1.4-1.814.906-.082.906-.988,1.483-.988a.31.31,0,0,1,0-.495c.412.329.165-.247.66-.577.165.083,0,.083,0,.247a22.226,22.226,0,0,0,2.308-2.555c.083.082.165.247.247.329a.3.3,0,0,0-.164-.495c.329-.247.989-.577,1.4-.329,0-.329-.247-.412,0-.577.165,0,.083.082,0,.082.165.083.825-.164.989-.082-.082-.083-.082-.247-.247-.247.329.247.988-1.072,1.236-.5.082,0,.082-.494,0-.494.082-.165.247,0,.247.082a20.772,20.772,0,0,1,4.7-2.307c-.083-.166.988-.412.659,0Zm8.984,5.6c-.164,0-.164-.164-.247,0,.577.165-.412.742.247.495-.164.412.164.495-.412.577.495.329.247,1.731,0,1.812,1.9.825,4.369.577,5.934.5,0,.082-.082.165-.164.247,1.319-.495,3.791.165,4.945-.33,0,0-.082.248-.164.248,3.3-.165,6.428,0,10.88-.577a19.365,19.365,0,0,0-2.061-2.308c.082,0,.247,0,.247-.082-.247-.166-.165,0-.5,0,.412-.412-.329-.083-.412-.33.577-.247-1.153-.906-.659-.247-.412-.412-1.072-.825-.99-1.319-.494,0-1.649-.577-1.649-.989-.906.165-1.4-.577-2.554-.495.329-.412-1.319-.165-1.4-.824,0,.495-.906,0-.99-.083.166,0,.5,0,.248-.082-.577.247-1.566.165-1.813-.33.082.66-.66-.082-.5,0-.824-.247-4.615-.329-4.2-.741-.742-.165-1.9.495-1.814,0-.494-.165-.824.412-1.4.082a.619.619,0,0,0,.412-.082c0-.33-.906-.33-.741-.083.164,0,.494-.082.494.083h-.659c-.247,1.153.165,2.555-.247,3.3C33.436,6.176,32.941,7,33.188,7.329ZM29.4,2.714h-.66c0-.083.083-.165.165-.247a7.9,7.9,0,0,0-3.049.741c0-.082.247-.329-.165-.247a18.053,18.053,0,0,1-2.8.824c.165,0,.165-.165.247,0a2.961,2.961,0,0,1-.907.329c0-.247.329-.164.412-.329a23.317,23.317,0,0,1-3.214,1.566c.082,0,.164.083.164.247-1.071.165-1.648,1.072-2.637.989.247,0-.082.165.164.247,0-.164.33-.412.412-.164-1.813,1.483-2.72,2.225-4.2,3.626-.164-.577.412-.412.495-.742-.329-.165-.412-.082-.164.083-.577.082-.742.576-1.154.824.164.329.495-.165.495.082a21.429,21.429,0,0,0-2.143,2.638c0-.165-.164-.165-.164-.329a25.63,25.63,0,0,0,1.9-2.308c-.907.165-1.4,2.061-2.39,2.555,0-.082,0-.164-.164-.164.247.66-.577,1.071-.906,1.566.824,0,.824-1.4,1.566-1.071-.66.165-.5,1.154-1.154,1.319-.082-.247.577-.412.247-.495-.412.082-.247.66-.659.742,0-.082-.083-.164-.166,0,.166.247.33-.164.412.164-.329,0-.082.577-.495.5.082-.247.412-.412,0-.5a.967.967,0,0,1-.495.825.5.5,0,0,1,.248.495c-.083-.083-.66-.412-.412-.083.164.083.247.166.247.33-.412,0-.412.412-.906.33.082.412.082.247-.164.495.082,0,.247,0,.247.082-.247,0-.329.248-.495.33.082.989.165,1.154-.412,1.9,0-.082-.082-.165-.164-.247.164,0,.329,0,.247-.247-.577.082-.164.412-.164.741-.248.083-.33-.164-.412,0,.659.412-.248.99-.412,1.319-.082.247.164.66.164.825l-.247-.083c-.329.247.247,1.566-.412,1.566.577.247-.495,1.648-.247,2.143.082.165.412,1.566-.247.824,0,.577.247,2.143-.165,1.979,0,.247.165.247.248.329-.166.082-.248.329-.412.495.164,0,.329,0,.412.165a.618.618,0,0,0-.412.082c.247.247.247.659.495.824-.165,0-.165-.165-.412-.082.412.66.164.907.495,1.484-.164-.33-.66.165-.412.247,0-.082,0-.165.165-.082.247.082.412.329.659.495.412-.247-.329-.495,0-.577.248.33.33,0,.495,0-.082,0-.164-.082-.164-.247.164,0,.247.083.412.083a11.357,11.357,0,0,1,1.4-2.555c.99-1.319,2.8-2.967,3.791-4.2a2.865,2.865,0,0,1,.907-.824c-.082,0-.165-.083-.165-.247.412,0,.742-.248.495-.495.165,0,.165.082.247.082,0-.495.248-.66.495-.989.248.412-.495.495-.164.577.659-.33.824-1.236,1.484-1.566-.165,0-.247-.164-.412-.247-.165.083,0,.577-.412.495.165-.247.247-.495.5-.577.164.412.659,0,.906.5,0-.247.33-.247.412-.5.247.577-.082.33-.577.083.165-.164.66-.083.66-.329-.247-.165-.495.329-.495,0,.577,0,.907-1.236,1.566-1.071-.165,0-.165-.165-.248-.247.248,0,.33-.247.495-.33,0,.165,0,.247.248.247,0-.577.659-.247,0-.577.824-1.154,1.978-1.731,2.308-2.885.165.33.329-.329.659-.247.083.165-.494.33-.164.33,0-.33.495-.083.412-.495-.577-.083,0-.907.495-.742-.165-.412.659-.577.247-.825,0,.082-.082.165-.164,0,1.4-.33,1.731-2.473,3.049-2.8-.165-.741,1.236-1.318,1.236-2.307.577,0,.577-.907.989-.577,0-.247-.165-.247-.247-.329,1.319-1.9,2.72-3.627,4.038-5.522-.247-.083-.824.164-.906-.083a.621.621,0,0,0,.412-.082h-.412S29.232,2.549,29.4,2.714ZM10.028,27.852c.412-.164.906-.824.742-1.071A1.207,1.207,0,0,0,10.028,27.852ZM28.243,9.967c-.247.165-.988.412-.742.577,0-.164.247-.33.247-.164-.082.329-.742.412-.494.742-.248,0-.412,0-.495.082a.428.428,0,0,0,.164.329,3.182,3.182,0,0,0-1.484,1.9c-1.236.247-2.143,2.967-3.791,3.956.329.247-.33.247,0,.577-.577,0-.495.66-.66.742-.412-.329-.247.495-.66.742-.164,0-.082-.247-.247-.247-.082.577-.412,1.4-.906.989,0,.247,0,.412.165.495-.248-.165-.165,0-.5,0,0,.412-.164,1.484-.659.989.164.742-.66.577-.66,1.319a1.148,1.148,0,0,1,.247-.329c0,.329-.247.412-.412.577a11.644,11.644,0,0,0,3.461-.083c0,.165-.164.165,0,.247.412-.412.742,0,1.154-.247,2.225-.082,5.11-.824,8.49-.742.082-.164-.165-.66.164-.577.66,1.153.247.165.742-.165,0,.082.082.165.165,0-.165-.082-.247-.164-.412-.247.495,0,0-.329.247-.577-.577.165.247-.495-.247-.577-.247.247-.082.824-.164,1.236-.33-.166-.412.495-.495.082.164-.165.412-.248.412-.577,0-.247-.329-.5-.247-.989a13.745,13.745,0,0,0,.412-2.555c0-.412-.165-.412.164-.495-.329-.082-.329-1.236,0-.577a.835.835,0,0,1,.165-1.236c0-.329-.412-.329-.495-.576.577-.165.247-.742.247-.989-.412.329.082.824-.412.824.33-1.813-.082-5.358.165-7.5-.907.083-.824,1.154-1.648,1.319a.427.427,0,0,0,.164.329c-.495.083-.66.824-.989.742A1.946,1.946,0,0,0,28.243,9.967ZM13.984,9.389c-.083-.247.495-.412.659-.824C14.4,8.648,13.49,9.225,13.984,9.389Zm34.534,2.06a3.145,3.145,0,0,1,1.236,0C49.837,10.956,48.518,11.121,48.518,11.45ZM34.589,21.34c-.164.083-.247.33-.412.5.33.165.412-.5.5-.083-.5.248.082.907-.5.742.083.164.083.906.66.577-.577.577.164,1.153-.66,1.731.083,0,.165.082.165.247.165,0,.495-.082.495.083-.164.083-.412.165-.495.329.247.083.33-.164.412,0-.412.5.164.66-.412,1.236,0,.412.33.5.495.742-.329.164-.495-.33-.495,0,.412.082,0,.659.495.824-.412.082.164.412-.412.329.164.083.247.164.412.247-.082,0-.248,0-.248.165.412,0,.166.577.412.742a2.027,2.027,0,0,0,0,1.9c-.494-.082,0,.33,0,.5-.247,0-.329.824-.412.824.248,0,.166-.329.5-.247-.165.412-.742.988-.165,1.484-.412.66.247,1.153.165,2.143-.165-.166-.412-.082-.412.247.164,0,.247-.082.412-.082.247,1.814.329,3.709.495,5.687h-.412c.33.412-.082.907.412,1.236-.412-.082-.165.412-.412.495.5-.083-.082,1.072.412.742-.329-.164.165-.164.165.164-.577,2.144.742,4.039.165,6.512.329.329.082.495.412.742-.083,0-.247,0-.247.164.495.247.082.907.742,1.32-.165.082-.495.082-.495.329a23.534,23.534,0,0,0,5.6-1.813c0,.164-.247.083-.247.248a3.128,3.128,0,0,0,1.649-.825c-.33-.083-.577.495-.742.082.412-.082.659-.412.989,0,2.555-1.154,3.791-2.72,5.688-3.3,0-.247.247-.66.659-.495.165-.248.247-.824.495-.329,0-.166,0-.247.247-.247.083-.247-.164-.33,0-.33.5.5.166-.577.742-.082-.165-.577.824-1.236,1.484-1.071.165-.412-.412-.083-.247-.5.577.33.494-.824,1.236-.741a.908.908,0,0,1,.412-.824.611.611,0,0,1-.412-.083c.247-.989.165-1.9.494-3.3,0,.165,0,.33.166.33.082-.577-.082-.577-.247-.577.659-3.627-.165-6.347.165-9.561-.825-1.154.329-2.06-.5-2.8.165.082.083-.907.412-1.319-.329,0-.494,0-.494-.247.33-.082-.165-.495.494-.742.248,0,.412.577.5.247q-.371,0-.247-.495c-.329-.164-.412.495-.495.083-.082-.742.083-1.319,0-1.814.247.412.165,0,.495-.082-.164.165-.164.412-.248.577.33,0,.33-.329.5-.495-.412-.082-.083-1.071-.247-.742-.248,0-.082.329-.248.329-.247-.577,0-1.73-.494-.988-.165-.495.082-.577-.165-.989.083.247.742-.083.412-.247-.082.329-.495-.577-.165-.577.33-.083-.082.577.248.495.164-.412,0-.329.164-.577-.329-.164-.576.083-.659-.082a2.5,2.5,0,0,0,0-1.731c.412,0,.083-.33.412-.577a10.762,10.762,0,0,1-.247-2.884c-.412,0-.33-.412-.495-.577-1.319.082-4.286.082-4.945-.247a3.01,3.01,0,0,1-2.39,0c0,.412-2.06.329-1.483.165-1.236-.082-3.709.577-5.193.082-.083,0,.247-.247,0-.247,0,0-.165.247-.248.247-1.319,0-2.8-.412-3.956.247A14.73,14.73,0,0,0,35,18.7a.618.618,0,0,0-.412.083.919.919,0,0,1-.247,1.071c0,.247.412.082.412.329-.247-.083-.825.083-.412.247,0-.082.083-.164.247-.082a.429.429,0,0,0,.166.329c-.495,0,0,.083,0,.247-.166.247-.329-.164-.412.083a1.512,1.512,0,0,1,.247.329Zm21.43-3.626c.33-.083.248.247.412.329-.329-.164,0,1.236-.247.99.165,0,.165-.083.247-.083a.359.359,0,0,1,0,.577c-.247.576.33,2.143-.741,2.8.164.082.247.165.412.247-.083,0-.247,0-.247.083.495.247.412-.742.742-.247-.082,0-.247,0-.247.083.082,0,.247,0,.247.082-.082.166-.495,0-.495.248.577.412.247,1.154.412,1.566.495-.577-.247.659.412,1.071-.165,0-.247-.247-.412,0,.412.083-.083.412.412.577-.165.082-.247.165-.412.247.495,2.8.495,7.83.659,11.127.082-.247-.33.825-.247.825.082-.165.329.412.494.5-.824-.248-.494,0,0,.247-.412.082-.082.577.5.742.082-.412.082-.247,0-.577.164.247.824-.329.494-.5,0,.166-.247.33-.247.083.577-.412.577-.907,1.153-1.484a.62.62,0,0,1-.412-.082c.989-.165.248-1.649.742-1.731,0-.329-.247-1.072.165-.577.165-.412-.165-.33-.247-.5a.959.959,0,0,0,.247-1.071.62.62,0,0,0,.412-.082c-.083,0-.247,0-.247-.165.329.165.576-.577.412-.247-.165,0-.165.165-.248,0,0-.742.577-2.473.248-3.049.247.082.412-.66.412-.577a26.068,26.068,0,0,1-.248-3.626,11.6,11.6,0,0,0-.412-3.3,20.968,20.968,0,0,0-2.061-6.182c.166,0,.248.164.412.247a8.991,8.991,0,0,0-1.649-2.061,10.258,10.258,0,0,0-.164,2.638c-.165,0-.165-.165-.248,0C56.679,17.3,56.019,17.467,56.019,17.714ZM54.37,20.846m.5,3.544c-.083-.247-.083-.495-.247-.577-.248.166.082.5.164.742.248.082.577-.247.248-.247C55.03,24.308,55.03,24.39,54.865,24.39ZM22.886,25.709h.742c-.082-.248.164-.33,0-.33-.577.495-.082-.082-.247-.247A3.088,3.088,0,0,1,22.886,25.709ZM11.347,30.325c.082.742-1.4,1.566-2.06,2.39-.495.577-.989,1.648-1.484,2.39-1.4,2.143-.412,3.132.742,4.945.495.742.742,1.648,1.4,2.143-.165,0-.165-.164-.248,0,.577.66,1.484,1.072,1.4,1.813.742.247.742,1.154,1.236,1.236-.165,0-.165-.329,0-.329,0,.659.907.494.742,1.319.412-.082.412.247.66.329-.165,0-.33,0-.247.247.165,0,.247-.083.412-.165-.082.33,0,.495-.247.825.659-.33.164.412.659.494.329-.412-.329-.329,0-.576.247.247.66.412.742.824-.082-.083-.412-.5-.495-.083.495.33.577.083.989-.082.083.165.742.329.412.577v-.248a1.794,1.794,0,0,0-.66.248c.082,0,.165,0,.165.082.412.247,0-.082.247-.082.329.164.247.329,0,.494.495.165.164.165.659,0,0,.165-.164.165-.164.33.495-.33.495.164.906.247.083-.412-.412-.33-.412-.742.495.247.577.907.989,1.236.412-.412-.577-.329-.412-.824a19.666,19.666,0,0,0,4.863,2.555c-.165.082-.247.164-.412.247.412-.165.329.165.495.247.083-.247-.165-.33,0-.33a19.355,19.355,0,0,0,4.7,1.072c0,.164-.329.082-.412.247.165,0,.248.082.412.082,0-.164,0-.247.247-.247-.412.33.412.165.495.33a1.135,1.135,0,0,1,.247-.33c-.082.494.495.412.907.494,0-.164,0-.329.164-.329,0,0,.907.412.742.082a.623.623,0,0,1-.412-.082c.164-.083.495-.083.659-.247a20.617,20.617,0,0,1,.907-6.759c-.412-.577.165-.824-.247-.824.165,0,.165-.165.247-.247-.577-.165.083-.824-.412-1.072.329-.164.495.33.495,0-.495-.082-.495-1.071,0-.741,0-.247-.165-.247-.248-.33.577-.577.412-1.071-.247-1.731.329,0,.495,0,.495-.247-.165-.33-.412.247-.495-.083,0-.082,0-.247.164-.247,0,.494.165,0,.412.247,0-.164.412-.412.164-.494,0,.329-.495.247-.659,0,.164,0,.164-.083.247-.083.165,0,.082.248.247.248.082-.5-.247-.5.164-.742-.329-.082-.577-.166-.659-.495.412-.165.329.164.495.247,0-1.071-.247-1.9-.165-2.885-.329,0-.495,0-.495-.247.412-.577,0-.989,0-2.143.083,0,.495.33.495,0-.412-.329-.165-.742,0-1.319-.165,0-.495.082-.495-.082.495-.495-.329-1.319.495-1.731-.412.082-.247.082-.495-.166,0,.083,0,.248-.165.248,0-.412.495-.66.66-.248,0-.412-.165-.412.165-.576-.247,0-.247-.742-.412-.33.165.165.165.577-.247.495.165-.742-.329-1.649.495-1.649-.247-.082.083-.164.165-.247-.412,0,.247-.412-.165-.33,0,.083,0,.164-.165.083-.329-.412.33.494-.247.329-.165-1.319.164-3.545-1.236-2.885a80.882,80.882,0,0,0-11.539.495,11.394,11.394,0,0,0-4.286,1.319s-.164-.247-.247-.082c.082.33-.248.247-.248.495.165,0,.33,0,.248.247-.66.247-.577.989-1.154.989C12.088,29.336,11.841,30.325,11.347,30.325Zm6.429,20.028c.33-.165.577.33.742,0C18.352,50.271,17.941,49.941,17.776,50.353Zm1.071.247a3.615,3.615,0,0,0,2.061,1.319C20.5,51.178,19.424,51.1,18.847,50.6ZM31.128,26.533c0-.165-.247-.165-.247-.329a.124.124,0,1,0,0-.247c-.165.247-.329.495-.165.577,0-.082.083-.165.248-.082C31.046,26.533,31.046,26.7,31.128,26.533Zm.907,5.522c.082-.082.329-.825-.165-.742C31.952,31.808,31.952,31.973,32.035,32.055Zm.989,6.677c.495-.083.082.659.495.576,0-.329-.412-.576-.166-.824-.247.083-.329-.164-.411,0,.247.083.164.164.082.248h0" transform="translate(-1.218 0.006)" fill="#171717" fill-rule="evenodd"/>
      <path id="path22" d="M21.223,13.727c-.082.412-.659.577-.659.824-.495-.082.412-.659.659-.824h0" transform="translate(-7.797 -5.238)" fill="#fff" fill-rule="evenodd"/>
      <path id="path24" d="M86.765,38.888c.329,0-.083.33-.248.248-.082-.248-.329-.577-.164-.742.164.082.164.412.247.577.165.082.165,0,.165-.083h0" transform="translate(-32.953 -14.657)" fill="#fff" fill-rule="evenodd"/>
      <path id="path26" d="M35.549,40.526c.165.166-.329.742.247.248.164.082-.082.164,0,.329h-.742a1.158,1.158,0,0,0,.495-.577h0" transform="translate(-13.386 -15.471)" fill="#fff" fill-rule="evenodd"/>
      <path id="path28" d="M30.447,83.179a3.906,3.906,0,0,1-2.06-1.319c.66.5,1.731.577,2.06,1.319h0" transform="translate(-10.84 -31.254)" fill="#fff" fill-rule="evenodd"/>
      <path id="path30" d="M48.048,42.489c-.165,0-.247,0-.247.082-.165-.165-.083-.329.165-.577a.124.124,0,0,1,0,.247c0,.164.247.164.247.329-.164.164-.164,0-.164-.082h0" transform="translate(-18.22 -16.031)" fill="#fff" fill-rule="evenodd"/>
      <path id="path32" d="M15.122,43.327c.165.247-.329.907-.742,1.071a1,1,0,0,1,.742-1.071h0" transform="translate(-5.488 -16.54)" fill="#fff" fill-rule="evenodd"/>
      <path id="path34" d="M49.72,50.79c.495-.083.248.659.165.742-.165-.165-.165-.33-.165-.742h0" transform="translate(-18.986 -19.388)" fill="#fff" fill-rule="evenodd"/>
      <path id="path36" d="M51.454,62.224c.082-.164.164.083.412,0-.248.248.164.495.164.824-.495.083,0-.741-.495-.576,0-.083.082-.165-.082-.248h0" transform="translate(-19.648 -23.734)" fill="#fff" fill-rule="evenodd"/>
      <path id="path38" d="M1.614,102.013l.949-2.5.859,2.5Zm1.412-3.4H2.111L0,104.334H.8l.63-1.723H3.638l.593,1.723h.834l-2.04-5.719" transform="translate(-0.001 -37.652)" fill="#171717"/>
      <path id="path40" d="M11.992,103.837a1.4,1.4,0,0,1-.2.487,1,1,0,0,1-.352.323,1.021,1.021,0,0,1-.5.121.952.952,0,0,1-.485-.121.98.98,0,0,1-.342-.323,1.5,1.5,0,0,1-.2-.487,2.862,2.862,0,0,1-.062-.618,3.02,3.02,0,0,1,.062-.635,1.613,1.613,0,0,1,.2-.5.993.993,0,0,1,.342-.329.945.945,0,0,1,.485-.117.968.968,0,0,1,.856.446,1.5,1.5,0,0,1,.2.5,2.786,2.786,0,0,1,.066.635A2.64,2.64,0,0,1,11.992,103.837Zm.634-1.673a1.906,1.906,0,0,0-.37-.633,1.586,1.586,0,0,0-.54-.382,1.662,1.662,0,0,0-1.073-.07,1.107,1.107,0,0,0-.6.368,1.258,1.258,0,0,0-.171.269H9.859v-.566h-.7v5.719h.7v-2.077h.017a.986.986,0,0,0,.148.2,1.1,1.1,0,0,0,.238.193,1.465,1.465,0,0,0,.316.138,1.37,1.37,0,0,0,.38.05,2.106,2.106,0,0,0,.744-.123,1.368,1.368,0,0,0,.567-.4,1.921,1.921,0,0,0,.363-.723,3.806,3.806,0,0,0,.131-1.076,2.584,2.584,0,0,0-.138-.885" transform="translate(-3.497 -38.57)" fill="#171717"/>
      <path id="path42" d="M17.165,101.841H15.753v-.613h3.531v.613H17.871v3.491h-.706v-3.491" transform="translate(-6.016 -38.649)" fill="#171717"/>
      <path id="path44" d="M26.454,98.839h-.7v.8h.7v-.8" transform="translate(-9.833 -37.737)" fill="#171717"/>
      <path id="path46" d="M23.026,102.888a1.633,1.633,0,0,1,.111-.5,1.384,1.384,0,0,1,.247-.4,1.145,1.145,0,0,1,.357-.259,1.038,1.038,0,0,1,.444-.093,1.159,1.159,0,0,1,.457.085.9.9,0,0,1,.355.24,1.058,1.058,0,0,1,.229.391,1.671,1.671,0,0,1,.09.535Zm3,.205a2.716,2.716,0,0,0-.135-.911,1.9,1.9,0,0,0-.394-.648,1.627,1.627,0,0,0-.6-.385,2.386,2.386,0,0,0-.771-.128,1.724,1.724,0,0,0-.414.059,1.847,1.847,0,0,0-1.132.872,2.342,2.342,0,0,0-.224.54,2.843,2.843,0,0,0-.078.68,3,3,0,0,0,.142.974,2.051,2.051,0,0,0,.4.69,1.688,1.688,0,0,0,.605.41,2.2,2.2,0,0,0,.763.129,1.9,1.9,0,0,0,.692-.121,1.773,1.773,0,0,0,.915-.789,1.66,1.66,0,0,0,.184-.52h-.687a2.986,2.986,0,0,1-.131.283,1.125,1.125,0,0,1-.207.264,1.008,1.008,0,0,1-.314.2,1.192,1.192,0,0,1-.457.079,1.219,1.219,0,0,1-.482-.093,1,1,0,0,1-.362-.269,1.224,1.224,0,0,1-.23-.415,1.908,1.908,0,0,1-.084-.542h3v-.356" transform="translate(-8.507 -38.57)" fill="#171717"/>
      <path id="path48" d="M24.43,98.839h-.71v.8h.71v-.8" transform="translate(-9.058 -37.737)" fill="#171717"/>
      <path id="path50" d="M29.672,101.228H30.7l1.082,3.364H31.8l1.1-3.364h.966v4.1H33.2v-3.3h-.017l-1.082,3.3h-.673l-1.084-3.3H30.33v3.3h-.658v-4.1" transform="translate(-11.331 -38.649)" fill="#171717"/>
      <path id="path52" d="M41.752,98.758h4.5v5.63H45.5V99.419h-3v4.969h-.75v-5.63" transform="translate(-15.943 -37.706)" fill="#171717"/>
      <path id="path54" d="M53.45,103.829a1.428,1.428,0,0,1-.229.5,1.06,1.06,0,0,1-.381.323,1.113,1.113,0,0,1-1.409-.323,1.4,1.4,0,0,1-.231-.5,2.608,2.608,0,0,1-.075-.634,2.537,2.537,0,0,1,.075-.627,1.48,1.48,0,0,1,.231-.493,1.136,1.136,0,0,1,.378-.32,1.192,1.192,0,0,1,1.032,0,1.125,1.125,0,0,1,.381.32,1.514,1.514,0,0,1,.229.493,2.449,2.449,0,0,1,.077.627A2.517,2.517,0,0,1,53.45,103.829ZM54.1,102.3a1.927,1.927,0,0,0-.373-.684,1.62,1.62,0,0,0-.6-.44,2.164,2.164,0,0,0-1.6,0,1.573,1.573,0,0,0-.6.44,1.856,1.856,0,0,0-.375.684,2.887,2.887,0,0,0-.128.9,2.975,2.975,0,0,0,.128.91,1.942,1.942,0,0,0,.375.687,1.612,1.612,0,0,0,.6.438,2.283,2.283,0,0,0,1.6,0,1.662,1.662,0,0,0,.6-.438,2.02,2.02,0,0,0,.373-.687,2.97,2.97,0,0,0,.134-.91,2.882,2.882,0,0,0-.134-.9" transform="translate(-19.254 -38.57)" fill="#171717"/>
      <path id="path56" d="M60.37,101.841H58.762l-.061,1.971a4.356,4.356,0,0,1-.079.71,1.786,1.786,0,0,1-.2.517.9.9,0,0,1-.32.313.969.969,0,0,1-.474.1,1.141,1.141,0,0,1-.181-.01.545.545,0,0,1-.121-.035.323.323,0,0,1-.087-.037l-.049-.041v-.557a1.111,1.111,0,0,0,.146.053.672.672,0,0,0,.149.02.339.339,0,0,0,.195-.054.356.356,0,0,0,.15-.179,1.3,1.3,0,0,0,.1-.352,4.256,4.256,0,0,0,.043-.58l.09-2.454h3.009v4.1H60.37v-3.491" transform="translate(-21.84 -38.649)" fill="#171717"/>
      <path id="path58" d="M67.567,103.826a.741.741,0,0,1-.064.318.824.824,0,0,1-.174.25.966.966,0,0,1-.242.19,1.488,1.488,0,0,1-.276.127l-.514.1a1.018,1.018,0,0,1-.3-.041.66.66,0,0,1-.236-.14.6.6,0,0,1-.152-.226.815.815,0,0,1-.056-.308.547.547,0,0,1,.063-.268.571.571,0,0,1,.185-.192.845.845,0,0,1,.278-.131,3.248,3.248,0,0,1,.352-.079l.338-.043c.111-.012.219-.029.317-.048a2.281,2.281,0,0,0,.276-.067.7.7,0,0,0,.206-.1Zm1.045.954a.747.747,0,0,1-.111.011.214.214,0,0,1-.176-.071.3.3,0,0,1-.053-.172v-2.389a.964.964,0,0,0-.133-.52,1,1,0,0,0-.349-.354,1.449,1.449,0,0,0-.5-.2,2.786,2.786,0,0,0-1.244.012,1.374,1.374,0,0,0-.526.231,1.1,1.1,0,0,0-.353.418,1.467,1.467,0,0,0-.143.631h.657a.83.83,0,0,1,.263-.588,1.044,1.044,0,0,1,.695-.2,1.241,1.241,0,0,1,.7.164.6.6,0,0,1,.247.536.527.527,0,0,1-.1.347.408.408,0,0,1-.262.131l-1.151.14a1.851,1.851,0,0,0-.451.112,1.249,1.249,0,0,0-.4.238,1.092,1.092,0,0,0-.278.385,1.286,1.286,0,0,0-.111.552,1.146,1.146,0,0,0,.111.511,1.1,1.1,0,0,0,.284.37,1.192,1.192,0,0,0,.4.224,1.314,1.314,0,0,0,.462.074,2.254,2.254,0,0,0,.5-.05,1.656,1.656,0,0,0,.4-.138,1.833,1.833,0,0,0,.323-.213,2.526,2.526,0,0,0,.276-.264,1.007,1.007,0,0,0,.067.28.451.451,0,0,0,.14.186.558.558,0,0,0,.221.1,1.372,1.372,0,0,0,.315.036.964.964,0,0,0,.207-.023l.174-.039v-.489c-.039.009-.079.012-.116.021" transform="translate(-24.76 -38.57)" fill="#171717"/>
      <path id="path60" d="M72.205,101.228h.706v1.655h1.912v-1.655h.712v4.1h-.712V103.5H72.911v1.834h-.706v-4.1" transform="translate(-27.571 -38.649)" fill="#171717"/>
      <path id="path62" d="M82.339,103.809a2.139,2.139,0,0,1-.059.324,1.915,1.915,0,0,1-.128.352,1.586,1.586,0,0,1-.219.333,1.444,1.444,0,0,1-.317.288,1.609,1.609,0,0,1-.448.2,1.929,1.929,0,0,1-.587.074,1.685,1.685,0,0,1-.377-.041,1.45,1.45,0,0,1-.391-.147,1.961,1.961,0,0,1-.361-.264,1.722,1.722,0,0,1-.3-.4,2.483,2.483,0,0,1-.206-.563,3.31,3.31,0,0,1-.074-.737,2.727,2.727,0,0,1,.145-.918,2.033,2.033,0,0,1,.391-.685,1.743,1.743,0,0,1,.564-.442,1.589,1.589,0,0,1,.682-.154,2.164,2.164,0,0,1,.567.071,1.581,1.581,0,0,1,.428.187,1.213,1.213,0,0,1,.312.265,1.58,1.58,0,0,1,.205.321,1.932,1.932,0,0,1,.121.333,2.64,2.64,0,0,1,.049.331h-.658a1.152,1.152,0,0,0-.287-.657.907.907,0,0,0-.664-.234,1.076,1.076,0,0,0-.508.119,1.091,1.091,0,0,0-.362.329,1.6,1.6,0,0,0-.21.514,2.679,2.679,0,0,0-.073.661,2.865,2.865,0,0,0,.077.7,1.358,1.358,0,0,0,.218.482.88.88,0,0,0,.347.281,1.2,1.2,0,0,0,.466.086.955.955,0,0,0,.349-.062.885.885,0,0,0,.294-.2,1.277,1.277,0,0,0,.223-.312,1.629,1.629,0,0,0,.131-.43h.658" transform="translate(-30.118 -38.57)" fill="#171717"/>
      <path id="path64" d="M85.712,101.228h.7v1.945l2.071-1.945h.924l-1.8,1.655,1.828,2.448h-.91l-1.425-1.977-.692.642v1.335h-.7v-4.1" transform="translate(-32.729 -38.649)" fill="#171717"/>
      <path id="path66" d="M92.611,101.228h.707v3.067h.014l1.863-3.067H96v4.1h-.711v-3.07H95.28l-1.862,3.07h-.807v-4.1" transform="translate(-35.363 -38.649)" fill="#171717"/>
      <path id="path68" d="M100.539,98.532a.809.809,0,0,0,.113.288.624.624,0,0,0,.185.188.842.842,0,0,0,.24.1,1.292,1.292,0,0,0,.287.03,1.327,1.327,0,0,0,.284-.03.817.817,0,0,0,.24-.1.592.592,0,0,0,.183-.188.884.884,0,0,0,.111-.288h.389a1.37,1.37,0,0,1-.108.41,1.084,1.084,0,0,1-.227.345,1.113,1.113,0,0,1-.367.236,1.3,1.3,0,0,1-.507.087,1.33,1.33,0,0,1-.512-.087,1.033,1.033,0,0,1-.362-.236,1.1,1.1,0,0,1-.229-.345,1.3,1.3,0,0,1-.1-.41Zm-.87,1.667h.7v3.067h.015l1.859-3.067h.81v4.1h-.709v-3.07h-.015l-1.855,3.07h-.81v-4.1" transform="translate(-38.058 -37.62)" fill="#171717"/>
    </g>
  </g>
</svg>
