<svg xmlns="http://www.w3.org/2000/svg" width="166.914" height="59.643" viewBox="0 0 166.914 59.643">
  <g id="BicesterVillage_logo" transform="translate(-13 -53.156)">
    <g id="Group_178" data-name="Group 178" transform="translate(13 86.302)">
      <g id="Group_177" data-name="Group 177">
        <path id="Path_559" data-name="Path 559" d="M21.608,80.086h-.4c0-.807,0-1.211-1.076-1.211H17.976v7.666c0,.941.538.941,1.21.941v.4h-3.9v-.4c.672,0,1.21,0,1.21-.941V78.876H14.748c-1.21,0-1.345.4-1.479,1.211H13l.135-2.152H13.4c.135.4.538.4.807.4h6.321c.538,0,.807-.134.941-.4h.269Zm9.549,2.555V79.683c0-.941-.538-.941-1.21-.941v-.4h3.9v.4c-.672,0-1.21,0-1.21.941v6.859c0,.941.538.941,1.21.941v.4h-3.9v-.4c.673,0,1.21,0,1.21-.941V83.18H25.643v3.362c0,.941.538.941,1.21.941v.4h-3.9v-.4c.673,0,1.21,0,1.21-.941V79.683c0-.941-.538-.941-1.21-.941v-.4h3.9v.4c-.673,0-1.21,0-1.21.941v2.959Zm6.456,0H39.5c1.076,0,1.076-.807,1.21-1.211h.269v1.479a5.45,5.45,0,0,1,0,1.479h-.269c0-1.345-.4-1.345-1.479-1.345H37.748v2.286c0,1.479,0,1.883,1.479,1.883H39.9c1.345-.134,2.017-.269,2.555-1.748h.269a10.076,10.076,0,0,0-.538,2.152H34.923v-.4c1.21,0,1.345-.269,1.345-1.614V79.414c0-1.076-.269-1.211-1.345-1.211v-.4h6.859v2.017l-.269.134c-.269-1.345-.807-1.748-2.152-1.748H37.748v4.439Zm9.549,4.976c.672,0,1.21-.134,1.21-.941V79.683c0-.941-.538-.941-1.21-.941v-.4h3.362c1.076,0,3.228.269,3.228,2.286,0,1.345-1.21,1.883-2.286,2.152h0c1.076,0,3.093.672,3.093,2.555,0,1.479-1.21,2.555-3.766,2.555H47.163Zm2.555-4.976h.538a1.907,1.907,0,0,0,2.152-2.152c0-1.614-.942-1.883-2.017-1.883h-.538v4.035Zm0,3.766c0,.673,0,1.076,1.21,1.076a1.936,1.936,0,0,0,2.152-2.018c0-2.017-1.21-2.421-2.555-2.421h-.807Zm7.128-6.725c0-.941-.538-.941-1.21-.941v-.4h3.9v.4c-.673,0-1.211,0-1.211.941v6.859c0,.941.538.941,1.211.941v.4h-3.9v-.4c.672,0,1.21,0,1.21-.941Zm12.374,1.076h-.4c-.269-1.614-1.345-2.286-2.959-2.286s-3.9,1.076-3.9,4.3c0,2.824,2.017,4.842,4.169,4.842A2.87,2.87,0,0,0,68.952,85.2l.269.134-.269,2.152a7.013,7.013,0,0,1-3.093.672,4.874,4.874,0,0,1-5.245-5.245,5.087,5.087,0,0,1,5.245-4.842,13.81,13.81,0,0,1,3.228.672Zm3.9,1.883H75c1.076,0,1.076-.807,1.21-1.211h.269v1.479a5.45,5.45,0,0,1,0,1.479h-.269c0-1.345-.4-1.345-1.479-1.345H73.256v2.286c0,1.479,0,1.883,1.479,1.883h.807c1.345-.134,2.017-.269,2.555-1.748h.269a10.075,10.075,0,0,0-.538,2.152H70.566v-.4c1.21,0,1.345-.269,1.345-1.614V79.414c0-1.076-.269-1.211-1.345-1.211v-.4h6.859v2.017l-.269.134C76.887,78.607,76.349,78.2,75,78.2H73.39v4.439ZM79.577,85.6h.269A2.3,2.3,0,0,0,82,87.618a1.839,1.839,0,0,0,1.883-1.883c0-2.555-4.035-1.748-4.035-5.111,0-1.748,1.211-2.69,2.959-2.69a9.256,9.256,0,0,1,1.748.269l.269,1.749h-.269a1.643,1.643,0,0,0-1.748-1.479,1.588,1.588,0,0,0-1.614,1.749c0,2.555,4.3,1.883,4.3,4.976a3.024,3.024,0,0,1-3.228,2.824,6.092,6.092,0,0,1-2.152-.4ZM94.91,80.086h-.4c0-.807,0-1.211-1.076-1.211H91.279v7.666c0,.941.538.941,1.21.941v.4h-3.9v-.4c.672,0,1.21,0,1.21-.941V78.876H88.051c-1.211,0-1.345.4-1.479,1.211h-.4l.134-2.152h.269c.134.4.538.4.807.4H93.7c.538,0,.807-.134.941-.4h.4Zm3.9,2.555h1.883c1.076,0,1.076-.807,1.21-1.211h.269v1.479a5.45,5.45,0,0,1,0,1.479h-.4c0-1.345-.4-1.345-1.479-1.345H98.811v2.286c0,1.479,0,1.883,1.479,1.883h.807c1.345-.134,2.017-.269,2.555-1.748h.269a10.076,10.076,0,0,0-.538,2.152H96.121v-.4c1.211,0,1.345-.269,1.345-1.614V79.414c0-1.076-.269-1.211-1.345-1.211v-.4h6.859v2.017l-.269.134c-.269-1.345-.807-1.748-2.152-1.748H98.945v4.439Zm8.742.807v3.228c0,.941.538.941,1.21.941v.4h-3.9v-.4c.673,0,1.21-.134,1.21-.941V79.683c0-.941-.538-.941-1.21-.941v-.4H108.9c2.555,0,3.228,1.479,3.228,2.421a2.716,2.716,0,0,1-2.017,2.421,24.428,24.428,0,0,0,2.555,3.631,1.761,1.761,0,0,0,1.614.807v.4h-2.286a39.446,39.446,0,0,1-3.228-4.573h-1.21Zm.807-4.707a1.456,1.456,0,0,0-.807.134v4.035a5.825,5.825,0,0,1,.672.134,2.126,2.126,0,0,0,2.421-2.152A2.019,2.019,0,0,0,108.36,78.741ZM120.6,82.507a22.426,22.426,0,0,1-1.076-2.69,1.26,1.26,0,0,0-1.479-1.076v-.4h3.631v.4h-.538c-.134,0-.4.134-.4.269a9.836,9.836,0,0,0,.941,2.555l1.883,4.707,1.076-2.69c.269-.941.672-1.748.941-2.69a5.676,5.676,0,0,0,.4-1.614c0-.672-.538-.672-1.076-.672v-.4h2.959v.4a1.361,1.361,0,0,0-.941.538c0,.269-.941,2.555-.941,2.69l-2.555,6.321h-.538Zm9.684-2.825c0-.941-.538-.941-1.21-.941v-.4h3.9v.4c-.673,0-1.211,0-1.211.941v6.859c0,.941.538.941,1.211.941v.4h-3.9v-.4c.673,0,1.21,0,1.21-.941Zm11.029,8.2h-7.128v-.4c.672,0,1.21-.134,1.21-.941V79.549c0-.941-.538-.941-1.21-.941v-.4h3.9v.4c-.673,0-1.21,0-1.21.941V85.87c0,1.076.269,1.479,2.152,1.479,1.614,0,2.152-.4,2.555-1.749h.269Zm8.742,0h-7.128v-.4c.672,0,1.21-.134,1.21-.941V79.549c0-.941-.538-.941-1.21-.941v-.4h3.9v.4c-.673,0-1.21,0-1.21.941V85.87c0,1.076.269,1.479,2.152,1.479,1.614,0,2.152-.4,2.555-1.749h.269ZM159.2,85.2a7.011,7.011,0,0,0,.807,2.017,1.527,1.527,0,0,0,1.076.4v.4h-3.631v-.4h.269c.4,0,.807-.134.807-.4a2.788,2.788,0,0,0-.269-.807l-.673-2.017h-3.362l-.269.941a9.4,9.4,0,0,0-.4,1.614c0,.672.4.672.941.672h.269v.4h-3.228v-.4a1.463,1.463,0,0,0,1.345-.941,10.218,10.218,0,0,0,.538-1.479l1.748-4.976a3.212,3.212,0,0,0,.269-1.211v-.4c.269-.134.673-.269.807-.673h.269Zm-4.707-1.48h2.824l-1.479-4.035h0Zm15.871-2.959H170.1a3.053,3.053,0,0,0-3.228-2.286c-2.421,0-3.9,2.152-3.9,4.438,0,2.421,1.479,4.707,3.9,4.707a3.427,3.427,0,0,0,1.883-.538V85.063c0-.941-.538-.941-1.21-.941v-.4h3.631v.4c-.4,0-.941,0-.941.941v1.748l.269.269v.269a10.982,10.982,0,0,1-3.632.807,4.986,4.986,0,0,1-5.245-4.976,4.914,4.914,0,0,1,5.111-4.976,7.847,7.847,0,0,1,3.5.807Zm4.3,1.883h1.883c1.076,0,1.076-.807,1.21-1.211h.269v1.479a5.45,5.45,0,0,1,0,1.479h-.269c0-1.345-.4-1.345-1.479-1.345H174.8v2.286c0,1.479,0,1.883,1.48,1.883h.807c1.345-.134,2.017-.269,2.555-1.748h.269a10.075,10.075,0,0,0-.538,2.152h-7.263v-.4c1.21,0,1.345-.269,1.345-1.614V79.414c0-1.076-.269-1.211-1.345-1.211v-.4h6.859v2.017l-.269.134c-.269-1.345-.807-1.748-2.152-1.748h-1.614v4.439ZM13,101.741h.269c.269.941.941,2.018,2.017,2.018a1.732,1.732,0,0,0,1.883-1.749c0-2.421-3.9-1.748-3.9-4.842,0-1.748,1.21-2.555,2.824-2.555.538,0,1.076.134,1.614.134l.269,1.748h-.269a1.643,1.643,0,0,0-1.748-1.479c-1.076,0-1.614.673-1.614,1.749,0,2.421,4.035,1.748,4.035,4.842a2.875,2.875,0,0,1-3.093,2.69,5.4,5.4,0,0,1-2.017-.4Zm14.526-2.959V95.823c0-.941-.538-.941-1.21-.941v-.4h3.766v.4c-.673,0-1.21,0-1.21.941v6.725c0,.941.538.941,1.21.941v.4H26.45v-.4c.672,0,1.21,0,1.21-.941V99.32H22.28v3.228c0,.941.538.941,1.21.941v.4H19.859v-.4c.673,0,1.21,0,1.21-.941V95.823c0-.941-.538-.941-1.21-.941v-.4h3.766v.4c-.673,0-1.21,0-1.21.941v2.959Zm8.608-4.3a4.843,4.843,0,1,1-4.842,4.842A4.793,4.793,0,0,1,36.134,94.478Zm.134,9.146c1.883,0,3.228-1.614,3.228-4.035,0-2.017-1.21-4.707-3.5-4.707-1.883,0-3.228,1.614-3.228,4.035C32.771,100.934,33.982,103.624,36.268,103.624Zm5.918-9.011h3.228c1.345,0,3.362.538,3.362,2.69a2.811,2.811,0,0,1-2.824,2.69H45.28v-.4h.538c1.076,0,1.614-1.076,1.614-2.152a2.182,2.182,0,0,0-2.152-2.421h-.538v7.532c0,.941.538.941,1.21.941v.4H42.321v-.4c.672,0,1.21,0,1.21-.941V96.226c0-1.076-.134-1.345-1.21-1.345v-.269Zm7.4,0h3.228c1.345,0,3.362.538,3.362,2.69a2.811,2.811,0,0,1-2.824,2.69h-.672v-.4h.538c1.076,0,1.614-1.076,1.614-2.152a2.182,2.182,0,0,0-2.152-2.421h-.538v7.532c0,.941.538.941,1.21.941v.4H49.718v-.4c.673,0,1.21,0,1.21-.941V96.226c0-1.076-.134-1.345-1.21-1.345v-.269Zm8.742,1.345c0-.941-.538-.941-1.21-.941v-.4h3.766v.4c-.673,0-1.211,0-1.211.941v6.725c0,.941.538.941,1.211.941v.4H57.25v-.4c.672,0,1.21,0,1.21-.941V95.957Zm13.046,8.07H71.1L64.11,96.361v4.976c0,1.883.134,2.152,1.614,2.152v.4h-3.5v-.4c.807,0,1.479,0,1.479-1.749v-5.38c0-1.211-.538-1.614-1.614-1.614v-.4h2.286a45.312,45.312,0,0,0,3.228,3.631c1.076,1.21,2.421,2.555,3.228,3.5V96.226c0-1.21-.269-1.614-1.614-1.614v-.4h3.362v.4c-.807,0-1.21,0-1.21,1.345ZM82.4,97.033h-.269a2.931,2.931,0,0,0-3.093-2.152,3.94,3.94,0,0,0-3.766,4.169c0,2.286,1.345,4.573,3.766,4.573a2.506,2.506,0,0,0,1.748-.538v-2.018c0-.941-.538-.941-1.21-.941v-.4h3.5v.4c-.4,0-.941,0-.941.941v1.749l.134.134v.269a10.219,10.219,0,0,1-3.5.807,4.849,4.849,0,0,1-5.111-4.842,4.772,4.772,0,0,1,4.976-4.842A9.365,9.365,0,0,1,82,95.016Zm13.719,0h-.269c-.269-1.614-1.345-2.152-2.824-2.152a3.843,3.843,0,0,0-3.766,4.169c0,2.69,1.883,4.573,3.9,4.573a2.736,2.736,0,0,0,2.69-2.286l.269.134-.269,1.883a6.412,6.412,0,0,1-2.959.673,4.766,4.766,0,0,1-5.111-4.976,4.911,4.911,0,0,1,4.976-4.707,11.514,11.514,0,0,1,3.093.672Zm6.456-2.555a4.843,4.843,0,1,1-4.842,4.842A4.793,4.793,0,0,1,102.577,94.478Zm.134,9.146c1.883,0,3.228-1.614,3.228-4.035,0-2.017-1.21-4.707-3.5-4.707-1.883,0-3.228,1.614-3.228,4.035C99.214,100.934,100.425,103.624,102.711,103.624Zm12.777.269h-6.859v-.4c.673,0,1.211-.134,1.211-.941V95.823c0-.941-.538-.941-1.211-.941v-.4H112.4v.4c-.672,0-1.21,0-1.21.941v6.187c0,.941.269,1.345,2.152,1.345,1.479,0,2.017-.4,2.421-1.614h.269Zm8.473,0H117.1v-.4c.673,0,1.211-.134,1.211-.941V95.823c0-.941-.538-.941-1.211-.941v-.4h3.766v.4c-.673,0-1.211,0-1.211.941v6.187c0,.941.269,1.345,2.152,1.345,1.479,0,2.017-.4,2.421-1.614h.269Zm4.3-5.111h1.748c1.076,0,1.076-.807,1.076-1.211h.269v2.959h-.269c0-1.211-.4-1.211-1.479-1.211h-1.479v2.286c0,1.479,0,1.883,1.345,1.883h.807a2.1,2.1,0,0,0,2.421-1.614h.269a11.2,11.2,0,0,0-.538,2.017h-6.994v-.4c1.211,0,1.211-.269,1.211-1.479V96.092c0-1.076-.269-1.21-1.211-1.21v-.4H131.9V96.5h-.269c-.134-1.21-.807-1.614-2.152-1.614h-1.614v3.9Zm14.391-1.749h-.269c-.269-1.614-1.345-2.152-2.824-2.152a3.843,3.843,0,0,0-3.766,4.169c0,2.69,1.883,4.573,3.9,4.573a2.736,2.736,0,0,0,2.69-2.286l.269.134-.269,1.883a6.412,6.412,0,0,1-2.959.673,4.766,4.766,0,0,1-5.111-4.976,4.911,4.911,0,0,1,4.976-4.707,11.514,11.514,0,0,1,3.093.672Zm9.549-.672h-.4c0-.673,0-1.211-1.076-1.211h-1.883v7.4c0,.941.538.941,1.21.941v.4h-3.631v-.4c.672,0,1.21,0,1.21-.941v-7.4h-1.749c-1.21,0-1.21.269-1.479,1.211H144l.135-2.152h.269c.135.4.538.4.807.4h6.052q.807,0,.807-.4h.269Zm2.555-.4c0-.941-.538-.941-1.21-.941v-.4h3.766v.4c-.672,0-1.21,0-1.21.941v6.725c0,.941.538.941,1.21.941v.4h-3.631v-.4c.672,0,1.21,0,1.21-.941V95.957Zm8.608-1.48a4.843,4.843,0,1,1-4.842,4.842A4.793,4.793,0,0,1,163.371,94.478Zm.134,9.146c1.883,0,3.228-1.614,3.228-4.035,0-2.017-1.21-4.707-3.5-4.707-1.883,0-3.228,1.614-3.228,4.035C160.008,100.934,161.219,103.624,163.505,103.624Zm15.064.4H178.3l-6.994-7.666v4.976c0,1.883.135,2.152,1.614,2.152v.4h-3.5v-.4c.807,0,1.479,0,1.479-1.749v-5.38c0-1.211-.538-1.614-1.614-1.614v-.4h2.286a45.314,45.314,0,0,0,3.228,3.631c1.076,1.21,2.421,2.555,3.228,3.5V96.226c0-1.21-.269-1.614-1.614-1.614v-.4h3.362v.4c-.807,0-1.21,0-1.21,1.345Z" transform="translate(-13 -77.8)" fill="#1d1d1b"/>
      </g>
    </g>
    <g id="Group_179" data-name="Group 179" transform="translate(81.729 53.156)">
      <path id="Path_560" data-name="Path 560" d="M78.393,67.69a7.358,7.358,0,0,1,7.4-1.076c-3.9-.269-9.684,1.345-10.491,6.859a8.159,8.159,0,0,1,2.824-3.5,7.86,7.86,0,0,0,8.2-.538c1.345-.807,2.017-1.479,3.5-1.479-4.169-3.9-9.011-3.9-11.432-.269" transform="translate(-60.236 -49.07)" fill="#1d1d1b"/>
      <path id="Path_561" data-name="Path 561" d="M76.4,71.429a4.049,4.049,0,0,0,5.649.941c-1.345-.4-1.748-2.959-4.438-2.017a2.8,2.8,0,0,1,2.555,1.211c-1.748-.807-2.69-.673-3.766-.134" transform="translate(-59.857 -47.294)" fill="#1d1d1b"/>
      <path id="Path_562" data-name="Path 562" d="M80.2,65.2a4.659,4.659,0,0,0,5.111-3.5c-1.21.538-3.228-.942-4.438,1.345a1.714,1.714,0,0,1,2.017-.538c-1.614.269-2.152,1.21-2.69,2.69" transform="translate(-58.546 -50.208)" fill="#1d1d1b"/>
      <path id="Path_563" data-name="Path 563" d="M72.211,69.555c-2.152.4-4.573-.673-5.111-2.555,1.345.538,3.766-.672,5.111,1.345a2.481,2.481,0,0,0-2.152-.673,2.309,2.309,0,0,1,2.152,1.883" transform="translate(-63.065 -48.379)" fill="#1d1d1b"/>
      <path id="Path_564" data-name="Path 564" d="M64.1,65.572c3.5,9.415,15.871,7.4,16.005-.672,1.748,9.011-12.643,13.853-16.005.672" transform="translate(-64.1 -49.104)" fill="#1d1d1b"/>
      <path id="Path_565" data-name="Path 565" d="M84.976,63.572a3.237,3.237,0,0,0-1.076-.807c-.269-.134,0-.538.269-.672a1.619,1.619,0,0,0,.941-1.345,3.506,3.506,0,0,0-.941-2.69c-.673-.807-1.883-.269-3.362-.269a12.5,12.5,0,0,1,1.345-.673c.807-.538-.4-2.017-2.286-2.286a5.48,5.48,0,0,1-2.959-1.345c-.673-.538-2.152-.538-2.017.941.538.269.941.4,1.479.673a22.986,22.986,0,0,0-4.169-.4,2.859,2.859,0,0,0-2.421,1.21,25.859,25.859,0,0,1-1.748,2.286,2.751,2.751,0,0,0,1.345-.941,6.052,6.052,0,0,1-2.152,2.824c-.538.4-.538.941-.269,1.748a13.739,13.739,0,0,0,6.052,6.994,11.418,11.418,0,0,1-5.111-2.959,2.325,2.325,0,0,1-.807,1.614.882.882,0,0,0,.134,1.479,6.786,6.786,0,0,0,1.748.941c.807.269.4-.807.538-1.345a8.008,8.008,0,0,0,2.421,2.824,2.007,2.007,0,0,0,2.959-.269,4.313,4.313,0,0,1,2.69-1.749c.672-.134.672-.807.4-.941a4.1,4.1,0,0,1-1.345-1.748,10.256,10.256,0,0,0,4.3,2.286c1.211.269,2.152-.269,2.286-1.211a11.532,11.532,0,0,1,1.345-3.093c.673-.538.538-.807.4-1.076M75.83,56.847a13.689,13.689,0,0,0-5.783,3.228,4.719,4.719,0,0,1,5.783-3.228m-5.38,4.842a9.9,9.9,0,0,0,4.707,3.093v1.479a7.244,7.244,0,0,1-4.707-4.573m3.093,1.479c.538-.134.941-.4,1.479-.538a5.293,5.293,0,0,1-2.69-2.421,6.457,6.457,0,0,1,4.3-.4,5.468,5.468,0,0,0-2.959,1.076,5.6,5.6,0,0,0,2.69,1.076,5.382,5.382,0,0,0,1.614-1.345,3.4,3.4,0,0,0-3.228-2.286c1.748-.269,3.093,0,3.9,1.076.4,2.825-2.152,4.573-5.111,3.766m2.824,2.152a7.068,7.068,0,0,0,4.169-1.883,2.606,2.606,0,0,1-4.169,1.883m3.093-2.152c.941-3.228.672-4.707-1.345-6.725,2.825,1.076,4.3,3.5,1.345,6.725" transform="translate(-63.187 -53.156)" fill="#1d1d1b"/>
    </g>
  </g>
</svg>
