<svg xmlns="http://www.w3.org/2000/svg" width="80" height="84.058" viewBox="0 0 80 84.058"><defs><style>.a{fill:#fff;}.a,.b{fill-rule:evenodd;}.b,.c{fill:#171717;}</style></defs><g transform="translate(-0.001 0.006)"><g transform="translate(0.001 -0.006)"><path class="a" d="M78.173,18.405a3.87,3.87,0,0,0-1.522,0c-.1-.4,1.522-.608,1.522,0h0" transform="translate(-18.334 -4.306)"/><path class="a" d="M85.955,33.727c.609,1.725-.4.913,0,0h0" transform="translate(-20.537 -8.063)"/><path class="a" d="M27.834,81.382c-.2.406-.507-.2-.914,0,.1-.507.609-.1.914,0h0" transform="translate(-6.44 -19.401)"/><path class="b" d="M29.055,2.124c1.116-1.116,2.638-.3,3.246-1.218C33.721,1.211,35.852.1,37.17.3c0,0-.2.2-.2.3.507-.711,2.029.2,2.231-.609,1.42.609,3.144.3,4.362.3,0,.406,1.318.2,2.536.3v.3a25.6,25.6,0,0,1,8.014,1.522,23.285,23.285,0,0,1,13.8,7.71c.3.406,1.116.609.811,1.318.406-.406.305.406.812.406-.1.3-.2-.2-.507.1,1.014.1,1.318.913,1.826,1.522-.2.2-.711.507-.3.913.2-.1-.1-.2,0-.406.3.1.3.406.811.3-.3.3,0,.3.507.3,0,.2-.3.1-.507.1,0,.3.507.1.812.1.3,1.116,1.115,1.826.913,2.537.1.2.3,0,.812.1.2.507-.507.1-.3.609a5.8,5.8,0,0,1,1.723,2.942H74.8c0,.3.2.3.2.609.3-.2.2-.914.609-.406-.609.3.406,1.014.609,1.624.1.4-.1.811,0,1.217.1.3.406.1.507.3.913,1.318.71,6.086.608,7.912-.1,2.84.2,2.637-.2,5.478-.406,2.028-.507,4.463-1.217,5.478.2.406.609.406.3.913a.446.446,0,0,0-.507-.1c-.3,1.014-.507,4.362-2.231,4.768.1.1.2.71.3.3-.811,2.638-3.448,4.869-5.173,7.1-.507-.1-.609.1-.914.1.1.4.305-.1.609,0,0,.609-1.014.3-1.116.709.2.507,0-.4.507-.1a34.423,34.423,0,0,1-7,5.68c-4.057,2.231-9.333,4.971-14.1,5.681-.711.812-3.449.406-4.565,1.522a37.189,37.189,0,0,0-3.956-.406c-.2,0-.609.609-.3,0a5.672,5.672,0,0,1-2.232-.1c0,.2.305.1.507.1-4.565-.2-7.2-2.333-10.347-2.536.1-.507-1.927-.3-2.028-1.217-.2.406,0,.1-.609,0,.406-.609-.609-1.217-.913-.609,0-.2-1.015-.608-1.42-.608-.2-.1,0-.305.2-.305-.3-.3-1.42,0-1.522-1.015,0,.711-1.522-.507-1.115-.608-.1-.2-.3,0-.3.1-3.043-3.144-7.3-5.58-8.724-9.028-2.13-1.928-2.231-3.754-3.956-6.086A4.848,4.848,0,0,0,4.2,44.222c.507-.1-.406-1.318.2-1.928-.3.2-.3.2-.2-.1-.1-.3-.2.2-.507-.2-.1-.811-.2-1.522.2-1.623,0-.2-.609-.3,0-.3-1.218-2.638-.2-6.289-.711-9.028A8.442,8.442,0,0,0,3.8,28.7c.406.812.812-.812.3-.71.1-.3.2-.3.507-.1,0-.3-.1-.406-.3-.406,0-.2.3-.1.507-.2,0-.1-.2-.1-.305-.1,1.015-1.725.812-2.942,2.029-5.174.1,0,.1.2.2.3.3-.3-.406-.609,0-1.217.3.2.2,0,.609,0-.406-.609.507-.609.2-1.217.406,0,.305-.507.812-.406-.1-1.319,1.624-2.334,2.333-4.159.609.3,1.927-1.318,1.725-2.232,1.115-.1,1.115-1.217,1.825-1.217a.381.381,0,0,1,0-.609c.507.406.2-.3.812-.711.2.1,0,.1,0,.3A27.354,27.354,0,0,0,17.9,7.7c.1.1.2.3.3.406A.37.37,0,0,0,18,7.5c.406-.3,1.217-.71,1.724-.406,0-.406-.3-.507,0-.71.2,0,.1.1,0,.1.2.1,1.015-.2,1.217-.1-.1-.1-.1-.3-.3-.3.406.3,1.217-1.319,1.522-.609.1,0,.1-.608,0-.608.1-.2.3,0,.3.1a25.566,25.566,0,0,1,5.783-2.839c-.1-.2,1.217-.507.811,0Zm11.057,6.9c-.2,0-.2-.2-.3,0,.71.2-.507.913.3.609-.2.507.2.609-.507.711.609.406.3,2.13,0,2.231,2.333,1.015,5.377.711,7.3.609,0,.1-.1.2-.2.3,1.623-.609,4.666.2,6.086-.406,0,0-.1.305-.2.305,4.057-.2,7.912,0,13.39-.711a23.834,23.834,0,0,0-2.537-2.84c.1,0,.3,0,.3-.1-.3-.2-.2,0-.609,0,.507-.507-.4-.1-.507-.406.711-.3-1.42-1.115-.811-.3C61.313,8.514,60.5,8.007,60.6,7.4c-.608,0-2.029-.71-2.029-1.217-1.115.2-1.723-.711-3.144-.609.406-.507-1.623-.2-1.725-1.014,0,.609-1.115,0-1.218-.1.2,0,.609,0,.305-.1-.71.3-1.927.2-2.231-.406.1.812-.812-.1-.609,0-1.014-.3-5.68-.406-5.173-.912-.914-.2-2.333.609-2.232,0-.608-.2-1.014.507-1.725.1a.762.762,0,0,0,.507-.1c0-.406-1.115-.406-.912-.1.2,0,.608-.1.608.1h-.811c-.3,1.42.2,3.144-.3,4.057C40.417,7.6,39.808,8.616,40.111,9.022Zm-4.666-5.68h-.812c0-.1.1-.2.2-.3a9.725,9.725,0,0,0-3.753.912c0-.1.3-.406-.2-.3A22.219,22.219,0,0,1,27.432,4.66c.2,0,.2-.2.3,0a3.644,3.644,0,0,1-1.116.406c0-.3.406-.2.507-.406-1.217.507-2.435,1.522-3.956,1.927.1,0,.2.1.2.3-1.318.2-2.028,1.319-3.246,1.217.3,0-.1.2.2.3,0-.2.406-.507.507-.2-2.231,1.825-3.348,2.739-5.174,4.463-.2-.71.507-.507.609-.913-.406-.2-.507-.1-.2.1-.711.1-.914.709-1.42,1.014.2.406.609-.2.609.1a26.374,26.374,0,0,0-2.638,3.246c0-.2-.2-.2-.2-.406a31.545,31.545,0,0,0,2.333-2.841c-1.116.2-1.724,2.537-2.942,3.144,0-.1,0-.2-.2-.2.3.812-.71,1.318-1.115,1.927,1.014,0,1.014-1.725,1.927-1.318-.812.2-.609,1.42-1.42,1.623-.1-.3.71-.507.3-.609-.507.1-.3.812-.811.913,0-.1-.1-.2-.2,0,.2.3.406-.2.507.2-.406,0-.1.711-.609.609.1-.3.507-.507,0-.609a1.19,1.19,0,0,1-.609,1.015.614.614,0,0,1,.305.609c-.1-.1-.813-.507-.507-.1.2.1.3.2.3.406-.507,0-.507.507-1.115.406.1.507.1.3-.2.609.1,0,.3,0,.3.1-.3,0-.406.305-.609.406.1,1.217.2,1.42-.507,2.333,0-.1-.1-.2-.2-.3.2,0,.406,0,.3-.3-.71.1-.2.507-.2.912-.305.1-.406-.2-.507,0,.811.507-.305,1.218-.507,1.624-.1.3.2.812.2,1.015l-.3-.1c-.406.3.3,1.928-.507,1.928.71.3-.609,2.028-.3,2.637.1.2.507,1.928-.3,1.014,0,.711.3,2.638-.2,2.435,0,.3.2.3.305.406-.2.1-.305.406-.507.609.2,0,.406,0,.507.2a.761.761,0,0,0-.507.1c.3.3.3.811.609,1.014-.2,0-.2-.2-.507-.1.507.812.2,1.116.609,1.826-.2-.406-.812.2-.507.3,0-.1,0-.2.2-.1.3.1.507.4.811.609.507-.3-.406-.609,0-.711.305.406.406,0,.609,0-.1,0-.2-.1-.2-.3.2,0,.3.1.507.1a13.978,13.978,0,0,1,1.724-3.145c1.218-1.623,3.449-3.652,4.666-5.174a3.526,3.526,0,0,1,1.116-1.014c-.1,0-.2-.1-.2-.3.507,0,.913-.305.609-.609.2,0,.2.1.3.1,0-.609.305-.812.609-1.217.305.507-.609.609-.2.711.811-.406,1.014-1.522,1.826-1.928-.2,0-.3-.2-.507-.3-.2.1,0,.711-.507.609.2-.3.3-.609.609-.711.2.507.811,0,1.115.609,0-.3.406-.3.507-.609.3.711-.1.406-.711.1.2-.2.812-.1.812-.406-.3-.2-.609.406-.609,0,.71,0,1.116-1.522,1.928-1.318-.2,0-.2-.2-.305-.3.305,0,.406-.3.609-.406,0,.2,0,.3.305.3,0-.71.811-.3,0-.71,1.014-1.42,2.435-2.13,2.84-3.551.2.406.406-.406.811-.3.1.2-.608.406-.2.406,0-.406.609-.1.507-.609-.711-.1,0-1.116.609-.913-.2-.507.811-.711.3-1.015,0,.1-.1.2-.2,0,1.724-.406,2.13-3.043,3.753-3.45-.2-.912,1.522-1.622,1.522-2.839.711,0,.711-1.116,1.217-.711,0-.3-.2-.3-.3-.406,1.623-2.333,3.348-4.464,4.97-6.8-.3-.1-1.014.2-1.115-.1a.764.764,0,0,0,.507-.1h-.507S35.243,3.138,35.445,3.342ZM11.607,34.281c.507-.2,1.115-1.014.913-1.318A1.485,1.485,0,0,0,11.607,34.281ZM34.025,12.268c-.3.2-1.217.507-.913.71,0-.2.3-.406.3-.2-.1.406-.913.507-.608.913-.305,0-.507,0-.609.1a.527.527,0,0,0,.2.406,3.916,3.916,0,0,0-1.826,2.333c-1.522.3-2.638,3.651-4.666,4.869.406.3-.406.3,0,.71-.71,0-.609.812-.812.913-.507-.406-.3.609-.812.913-.2,0-.1-.3-.3-.3-.1.711-.507,1.725-1.115,1.217,0,.3,0,.507.2.609-.305-.2-.2,0-.609,0,0,.507-.2,1.826-.811,1.217.2.913-.812.711-.812,1.623a1.413,1.413,0,0,1,.3-.406c0,.406-.3.507-.507.711,1.825.406,3.043-.1,4.26-.1,0,.2-.2.2,0,.3.507-.507.913,0,1.42-.3,2.739-.1,6.29-1.014,10.449-.913.1-.2-.2-.812.2-.71.812,1.42.3.2.913-.2,0,.1.1.2.2,0-.2-.1-.3-.2-.507-.3.609,0,0-.406.3-.71-.71.2.3-.609-.3-.71-.3.3-.1,1.014-.2,1.522-.406-.2-.507.609-.609.1.2-.2.507-.305.507-.71,0-.3-.406-.609-.3-1.217a16.918,16.918,0,0,0,.507-3.145c0-.507-.2-.507.2-.609-.406-.1-.406-1.522,0-.711a1.028,1.028,0,0,1,.2-1.522c0-.4-.507-.4-.609-.709.71-.2.3-.913.3-1.217-.507.4.1,1.014-.507,1.014.406-2.231-.1-6.594.2-9.232-1.116.1-1.014,1.42-2.028,1.624a.526.526,0,0,0,.2.406c-.609.1-.812,1.014-1.217.913A2.4,2.4,0,0,0,34.025,12.268Zm-17.549-.711c-.1-.3.609-.507.811-1.014C16.984,10.645,15.867,11.355,16.476,11.558Zm42.5,2.536a3.87,3.87,0,0,1,1.522,0C60.6,13.485,58.98,13.689,58.98,14.093ZM41.835,26.266c-.2.1-.3.406-.507.609.406.2.507-.609.609-.1-.609.305.1,1.116-.609.914.1.2.1,1.115.812.71-.71.71.2,1.42-.812,2.13.1,0,.2.1.2.3.2,0,.609-.1.609.1-.2.1-.507.2-.609.406.3.1.406-.2.507,0-.507.609.2.812-.507,1.522,0,.507.406.609.609.914-.406.2-.609-.406-.609,0,.507.1,0,.811.609,1.014-.507.1.2.507-.507.406.2.1.3.2.507.3-.1,0-.305,0-.305.2.507,0,.2.71.507.913a2.494,2.494,0,0,0,0,2.333c-.608-.1,0,.406,0,.609-.3,0-.4,1.014-.507,1.014.305,0,.2-.406.609-.3-.2.507-.913,1.217-.2,1.826-.507.812.3,1.42.2,2.638-.2-.2-.507-.1-.507.3.2,0,.3-.1.507-.1.3,2.232.406,4.565.609,7h-.507c.406.507-.1,1.116.507,1.522-.507-.1-.2.507-.507.609.609-.1-.1,1.319.507.913-.406-.2.2-.2.2.2-.711,2.638.913,4.971.2,8.014.4.406.1.609.507.913-.1,0-.3,0-.3.2.609.3.1,1.117.913,1.624-.2.1-.609.1-.609.4a28.965,28.965,0,0,0,6.9-2.231c0,.2-.3.1-.3.305a3.85,3.85,0,0,0,2.029-1.015c-.406-.1-.711.609-.914.1.507-.1.811-.507,1.217,0,3.144-1.42,4.666-3.348,7-4.057,0-.3.3-.812.811-.609.2-.305.3-1.014.609-.406,0-.2,0-.3.3-.3.1-.3-.2-.406,0-.406.609.609.2-.711.914-.1-.2-.71,1.014-1.522,1.826-1.318.2-.507-.507-.1-.3-.609.711.406.608-1.014,1.522-.912a1.117,1.117,0,0,1,.507-1.014.753.753,0,0,1-.507-.1c.3-1.217.2-2.333.608-4.057,0,.2,0,.406.2.406.1-.71-.1-.71-.3-.71.811-4.464-.2-7.812.2-11.767-1.015-1.42.4-2.536-.609-3.449.2.1.1-1.116.507-1.624-.4,0-.608,0-.608-.3.406-.1-.2-.609.608-.913.305,0,.507.711.609.3q-.456,0-.3-.609c-.406-.2-.507.609-.609.1-.1-.913.1-1.624,0-2.232.3.507.2,0,.609-.1-.2.2-.2.507-.305.71.406,0,.406-.406.609-.609-.507-.1-.1-1.318-.3-.913-.305,0-.1.406-.305.406-.3-.71,0-2.13-.608-1.217-.2-.609.1-.711-.2-1.217.1.3.914-.1.507-.3-.1.406-.609-.711-.2-.711.406-.1-.1.711.305.609.2-.507,0-.406.2-.711-.4-.2-.709.1-.811-.1a3.076,3.076,0,0,0,0-2.13c.507,0,.1-.406.507-.711a13.245,13.245,0,0,1-.3-3.55c-.507,0-.406-.507-.609-.711-1.623.1-5.275.1-6.086-.3a3.7,3.7,0,0,1-2.942,0c0,.507-2.536.406-1.825.2-1.522-.1-4.565.71-6.391.1-.1,0,.3-.3,0-.3,0,0-.2.3-.305.3-1.623,0-3.449-.507-4.869.3a18.129,18.129,0,0,0-.2,5.174.76.76,0,0,0-.507.1,1.131,1.131,0,0,1-.3,1.318c0,.3.507.1.507.406-.3-.1-1.015.1-.507.3,0-.1.1-.2.3-.1a.528.528,0,0,0,.2.406c-.609,0,0,.1,0,.3-.2.3-.406-.2-.507.1a1.861,1.861,0,0,1,.3.4ZM68.21,21.8c.406-.1.305.3.507.406-.406-.2,0,1.522-.3,1.218.2,0,.2-.1.3-.1a.442.442,0,0,1,0,.711c-.3.709.406,2.637-.912,3.449.2.1.3.2.507.3-.1,0-.3,0-.3.1.609.3.507-.913.913-.3-.1,0-.3,0-.3.1.1,0,.3,0,.3.1-.1.2-.609,0-.609.305.711.507.3,1.42.507,1.927.609-.711-.3.811.507,1.318-.2,0-.3-.3-.507,0,.507.1-.1.507.507.711-.2.1-.3.2-.507.3.609,3.45.609,9.637.811,13.695.1-.3-.406,1.015-.3,1.015.1-.2.4.507.608.609-1.014-.305-.608,0,0,.3-.507.1-.1.711.609.913.1-.507.1-.3,0-.71.2.3,1.014-.406.608-.609,0,.2-.3.406-.3.1.71-.507.71-1.117,1.419-1.827a.763.763,0,0,1-.507-.1c1.217-.2.305-2.029.913-2.13,0-.406-.3-1.319.2-.71.2-.507-.2-.406-.3-.609a1.181,1.181,0,0,0,.3-1.318.763.763,0,0,0,.507-.1c-.1,0-.3,0-.3-.2.406.2.709-.711.507-.3-.2,0-.2.2-.305,0,0-.913.711-3.043.305-3.753.3.1.507-.812.507-.711a32.084,32.084,0,0,1-.305-4.463,14.276,14.276,0,0,0-.507-4.057,25.807,25.807,0,0,0-2.537-7.608c.2,0,.305.2.507.3a11.066,11.066,0,0,0-2.029-2.537c-.4,1.015-.1,2.637-.2,3.246-.2,0-.2-.2-.305,0C69.023,21.3,68.21,21.5,68.21,21.8Zm-2.029,3.855.609,4.362c-.1-.3-.1-.609-.3-.711-.305.2.1.609.2.914.305.1.711-.3.305-.3C66.994,29.919,66.994,30.02,66.791,30.02ZM27.432,31.644h.913c-.1-.305.2-.406,0-.406-.71.609-.1-.1-.3-.3A3.8,3.8,0,0,1,27.432,31.644Zm-14.2,5.68c.1.913-1.724,1.928-2.536,2.942-.609.71-1.217,2.028-1.826,2.942-1.725,2.637-.507,3.854.913,6.086.609.913.913,2.028,1.725,2.637-.2,0-.2-.2-.305,0,.711.812,1.827,1.319,1.725,2.231.913.3.913,1.42,1.522,1.522-.2,0-.2-.4,0-.4,0,.811,1.116.608.913,1.623.507-.1.507.3.812.406-.2,0-.406,0-.3.3.2,0,.3-.1.507-.2-.1.406,0,.609-.3,1.015.811-.406.2.507.811.608.406-.507-.406-.406,0-.709.3.3.812.507.913,1.014-.1-.1-.507-.609-.609-.1.609.406.71.1,1.217-.1.1.2.913.406.507.711V59.54a2.208,2.208,0,0,0-.812.305c.1,0,.2,0,.2.1.507.3,0-.1.3-.1.406.2.3.4,0,.608.609.2.2.2.811,0,0,.2-.2.2-.2.406.609-.406.609.2,1.115.3.1-.507-.507-.406-.507-.914.609.3.71,1.117,1.217,1.522.507-.507-.711-.4-.507-1.014A24.2,24.2,0,0,0,26.519,63.9c-.2.1-.3.2-.507.3.507-.2.406.2.609.3.1-.3-.2-.406,0-.406A23.822,23.822,0,0,0,32.4,65.424c0,.2-.406.1-.507.3.2,0,.305.1.507.1,0-.2,0-.3.3-.3-.507.406.507.2.609.406a1.4,1.4,0,0,1,.3-.406c-.1.608.609.507,1.116.608,0-.2,0-.4.2-.4,0,0,1.116.507.914.1a.766.766,0,0,1-.507-.1c.2-.1.609-.1.811-.3a25.375,25.375,0,0,1,1.116-8.319c-.507-.71.2-1.014-.3-1.014.2,0,.2-.2.3-.3-.71-.2.1-1.014-.507-1.319.406-.2.609.406.609,0-.609-.1-.609-1.318,0-.912,0-.3-.2-.3-.305-.406.711-.711.507-1.318-.3-2.13.406,0,.609,0,.609-.3-.2-.406-.507.3-.609-.1,0-.1,0-.3.2-.3,0,.608.2,0,.507.3,0-.2.507-.507.2-.608,0,.406-.609.3-.811,0,.2,0,.2-.1.3-.1.2,0,.1.305.3.305.1-.609-.3-.609.2-.913-.406-.1-.71-.2-.811-.609.507-.2.406.2.609.3,0-1.318-.3-2.333-.2-3.551-.406,0-.609,0-.609-.3.507-.71,0-1.217,0-2.638.1,0,.609.406.609,0-.507-.406-.2-.913,0-1.623-.2,0-.609.1-.609-.1.609-.609-.406-1.624.609-2.13-.507.1-.3.1-.609-.2,0,.1,0,.305-.2.305,0-.507.609-.812.812-.305,0-.507-.2-.507.2-.709-.3,0-.3-.913-.507-.406.2.2.2.711-.3.609.2-.913-.406-2.029.609-2.029-.3-.1.1-.2.2-.3-.507,0,.3-.507-.2-.406,0,.1,0,.2-.2.1-.406-.507.406.608-.3.406-.2-1.623.2-4.362-1.522-3.551a99.548,99.548,0,0,0-14.2.609,14.024,14.024,0,0,0-5.275,1.623s-.2-.3-.3-.1c.1.406-.305.3-.305.609.2,0,.406,0,.305.3-.812.3-.711,1.217-1.42,1.217C14.143,36.107,13.838,37.324,13.23,37.324Zm7.912,24.65c.406-.2.71.406.913,0C21.852,61.873,21.345,61.467,21.142,61.974Zm1.318.3A4.449,4.449,0,0,0,25,63.9C24.49,62.989,23.171,62.888,22.461,62.279ZM37.576,32.658c0-.2-.3-.2-.3-.406a.152.152,0,1,0,0-.3c-.2.3-.406.609-.2.71,0-.1.1-.2.305-.1C37.474,32.658,37.474,32.86,37.576,32.658Zm1.116,6.8c.1-.1.406-1.015-.2-.913C38.59,39.15,38.59,39.353,38.692,39.454Zm1.217,8.218c.609-.1.1.811.609.709,0-.406-.507-.709-.2-1.014-.3.1-.4-.2-.506,0,.3.1.2.2.1.305h0" transform="translate(-0.763 0.006)"/><path class="a" d="M21.409,13.727c-.1.507-.811.71-.811,1.014-.609-.1.507-.811.811-1.014h0" transform="translate(-4.885 -3.279)"/><path class="a" d="M86.873,39c.406,0-.1.406-.305.305-.1-.305-.4-.711-.2-.913.2.1.2.507.3.71.2.1.2,0,.2-.1h0" transform="translate(-20.642 -9.179)"/><path class="a" d="M35.663,40.526c.2.2-.406.914.3.305.2.1-.1.2,0,.406h-.913a1.425,1.425,0,0,0,.609-.711h0" transform="translate(-8.385 -9.689)"/><path class="a" d="M30.923,83.484a4.807,4.807,0,0,1-2.536-1.624c.812.609,2.13.711,2.536,1.624h0" transform="translate(-6.791 -19.575)"/><path class="a" d="M48.125,42.6c-.2,0-.3,0-.3.1-.2-.2-.1-.406.2-.71a.152.152,0,0,1,0,.3c0,.2.3.2.3.406-.2.2-.2,0-.2-.1h0" transform="translate(-11.414 -10.04)"/><path class="a" d="M15.3,43.327c.2.3-.406,1.116-.913,1.318a1.234,1.234,0,0,1,.913-1.318h0" transform="translate(-3.438 -10.359)"/><path class="a" d="M49.72,50.792c.609-.1.305.811.2.913-.2-.2-.2-.406-.2-.913h0" transform="translate(-11.893 -12.142)"/><path class="a" d="M51.454,62.238c.1-.2.2.1.507,0-.305.305.2.609.2,1.014-.609.1,0-.912-.609-.709,0-.1.1-.2-.1-.305h0" transform="translate(-12.308 -14.865)"/><path class="c" d="M1.986,102.8l1.168-3.08,1.058,3.08Zm1.738-4.182H2.6L0,105.653H.979l.775-2.121H4.478l.73,2.121H6.234L3.724,98.615" transform="translate(-0.001 -23.583)"/><path class="c" d="M12.646,104.487a1.723,1.723,0,0,1-.246.6,1.228,1.228,0,0,1-.434.4,1.257,1.257,0,0,1-.62.149,1.172,1.172,0,0,1-.6-.149,1.206,1.206,0,0,1-.421-.4,1.848,1.848,0,0,1-.246-.6,3.522,3.522,0,0,1-.077-.76,3.717,3.717,0,0,1,.077-.781,1.985,1.985,0,0,1,.246-.616,1.223,1.223,0,0,1,.421-.4,1.163,1.163,0,0,1,.6-.145,1.192,1.192,0,0,1,1.054.549,1.847,1.847,0,0,1,.246.616,3.429,3.429,0,0,1,.081.781A3.249,3.249,0,0,1,12.646,104.487Zm.78-2.06a2.346,2.346,0,0,0-.455-.779,1.952,1.952,0,0,0-.665-.47,2.046,2.046,0,0,0-1.321-.087,1.362,1.362,0,0,0-.733.453,1.548,1.548,0,0,0-.21.331h-.021v-.7H9.157v7.038h.864V105.66h.021a1.214,1.214,0,0,0,.183.25,1.355,1.355,0,0,0,.293.238,1.8,1.8,0,0,0,.389.17,1.687,1.687,0,0,0,.467.062,2.592,2.592,0,0,0,.915-.151,1.684,1.684,0,0,0,.7-.5,2.364,2.364,0,0,0,.447-.89,4.684,4.684,0,0,0,.161-1.324,3.18,3.18,0,0,0-.17-1.089" transform="translate(-2.191 -24.159)"/><path class="c" d="M17.491,101.982H15.753v-.754H20.1v.754H18.36v4.3h-.869v-4.3" transform="translate(-3.769 -24.208)"/><path class="c" d="M26.616,98.839h-.867v.981h.867v-.981" transform="translate(-6.16 -23.637)"/><path class="c" d="M23.2,103.319a2.01,2.01,0,0,1,.136-.62,1.7,1.7,0,0,1,.3-.486,1.41,1.41,0,0,1,.44-.319,1.277,1.277,0,0,1,.546-.114,1.427,1.427,0,0,1,.562.1,1.1,1.1,0,0,1,.437.3,1.3,1.3,0,0,1,.282.482,2.057,2.057,0,0,1,.11.658Zm3.688.253a3.343,3.343,0,0,0-.167-1.121,2.34,2.34,0,0,0-.485-.8,2,2,0,0,0-.735-.474,2.936,2.936,0,0,0-.949-.157,2.122,2.122,0,0,0-.51.072,2.273,2.273,0,0,0-1.393,1.073,2.883,2.883,0,0,0-.276.665,3.5,3.5,0,0,0-.1.837,3.7,3.7,0,0,0,.174,1.2,2.524,2.524,0,0,0,.5.85,2.078,2.078,0,0,0,.745.505,2.7,2.7,0,0,0,.939.159,2.343,2.343,0,0,0,.852-.148,2.182,2.182,0,0,0,1.126-.971,2.043,2.043,0,0,0,.227-.64H25.99a3.674,3.674,0,0,1-.161.348,1.384,1.384,0,0,1-.255.325,1.241,1.241,0,0,1-.386.242,1.468,1.468,0,0,1-.562.1,1.5,1.5,0,0,1-.593-.115,1.237,1.237,0,0,1-.446-.331,1.506,1.506,0,0,1-.283-.511,2.348,2.348,0,0,1-.1-.666h3.688v-.438" transform="translate(-5.329 -24.159)"/><path class="c" d="M24.593,98.839H23.72v.981h.873v-.981" transform="translate(-5.674 -23.637)"/><path class="c" d="M29.672,101.228h1.264l1.332,4.14h.021l1.351-4.14h1.189v5.05h-.811v-4.063H34l-1.331,4.063h-.829L30.5,102.216h-.021v4.063h-.81v-5.05" transform="translate(-7.098 -24.208)"/><path class="c" d="M41.752,98.758h5.537v6.929h-.924V99.571H42.676v6.116h-.924V98.758" transform="translate(-9.987 -23.617)"/><path class="c" d="M54.149,104.477a1.758,1.758,0,0,1-.282.609,1.3,1.3,0,0,1-.469.4,1.37,1.37,0,0,1-1.735-.4,1.72,1.72,0,0,1-.285-.609,3.21,3.21,0,0,1-.092-.78,3.122,3.122,0,0,1,.092-.771,1.821,1.821,0,0,1,.285-.607,1.4,1.4,0,0,1,.465-.394,1.467,1.467,0,0,1,1.27,0,1.385,1.385,0,0,1,.469.394,1.864,1.864,0,0,1,.282.607,3.014,3.014,0,0,1,.094.771A3.1,3.1,0,0,1,54.149,104.477Zm.8-1.884a2.371,2.371,0,0,0-.459-.841,1.994,1.994,0,0,0-.74-.542,2.663,2.663,0,0,0-1.973,0,1.935,1.935,0,0,0-.736.542,2.284,2.284,0,0,0-.461.841,3.553,3.553,0,0,0-.157,1.1,3.661,3.661,0,0,0,.157,1.12,2.39,2.39,0,0,0,.461.845,1.985,1.985,0,0,0,.736.539,2.81,2.81,0,0,0,1.973,0,2.046,2.046,0,0,0,.74-.539,2.486,2.486,0,0,0,.459-.845,3.655,3.655,0,0,0,.164-1.12,3.547,3.547,0,0,0-.164-1.1" transform="translate(-12.061 -24.159)"/><path class="c" d="M61.1,101.982h-1.98l-.075,2.425a5.361,5.361,0,0,1-.1.873,2.2,2.2,0,0,1-.242.637,1.106,1.106,0,0,1-.393.385,1.193,1.193,0,0,1-.583.127,1.4,1.4,0,0,1-.223-.012.671.671,0,0,1-.148-.043.4.4,0,0,1-.107-.046l-.061-.05v-.685a1.369,1.369,0,0,0,.18.065.827.827,0,0,0,.183.024.417.417,0,0,0,.24-.067.438.438,0,0,0,.184-.221,1.6,1.6,0,0,0,.122-.433,5.241,5.241,0,0,0,.052-.714l.111-3.02h3.7v5.05H61.1v-4.3" transform="translate(-13.681 -24.208)"/><path class="c" d="M68.2,104.473a.912.912,0,0,1-.079.391,1.014,1.014,0,0,1-.214.308,1.188,1.188,0,0,1-.3.234,1.83,1.83,0,0,1-.339.157l-.633.121a1.252,1.252,0,0,1-.373-.05.813.813,0,0,1-.29-.173.741.741,0,0,1-.187-.278,1,1,0,0,1-.068-.38.674.674,0,0,1,.078-.329.7.7,0,0,1,.228-.236,1.04,1.04,0,0,1,.342-.161,4,4,0,0,1,.434-.1l.416-.053c.137-.015.269-.036.39-.059a2.809,2.809,0,0,0,.339-.083.866.866,0,0,0,.253-.126Zm1.286,1.175a.919.919,0,0,1-.137.013.263.263,0,0,1-.216-.088.368.368,0,0,1-.065-.212v-2.941a1.186,1.186,0,0,0-.164-.641,1.227,1.227,0,0,0-.429-.436,1.783,1.783,0,0,0-.615-.244,3.429,3.429,0,0,0-1.532.015,1.691,1.691,0,0,0-.647.285,1.356,1.356,0,0,0-.434.514,1.8,1.8,0,0,0-.176.776h.809a1.022,1.022,0,0,1,.323-.724,1.285,1.285,0,0,1,.855-.243,1.528,1.528,0,0,1,.861.2.734.734,0,0,1,.3.66.649.649,0,0,1-.117.427.5.5,0,0,1-.323.161l-1.417.173a2.278,2.278,0,0,0-.555.138,1.537,1.537,0,0,0-.486.293,1.344,1.344,0,0,0-.342.474,1.583,1.583,0,0,0-.137.679,1.411,1.411,0,0,0,.137.629,1.348,1.348,0,0,0,.35.455,1.466,1.466,0,0,0,.493.275,1.617,1.617,0,0,0,.569.091,2.775,2.775,0,0,0,.618-.062,2.039,2.039,0,0,0,.5-.17,2.257,2.257,0,0,0,.4-.262,3.11,3.11,0,0,0,.34-.325,1.239,1.239,0,0,0,.082.345.555.555,0,0,0,.172.229.687.687,0,0,0,.272.119,1.688,1.688,0,0,0,.387.045,1.188,1.188,0,0,0,.255-.028c.072-.017.145-.033.214-.048v-.6c-.048.011-.1.015-.143.026" transform="translate(-15.511 -24.159)"/><path class="c" d="M72.205,101.228h.869v2.037h2.353v-2.037H76.3v5.05h-.876v-2.257H73.074v2.257h-.869v-5.05" transform="translate(-17.271 -24.208)"/><path class="c" d="M83.138,104.452a2.635,2.635,0,0,1-.073.4,2.356,2.356,0,0,1-.157.433,1.952,1.952,0,0,1-.269.41,1.778,1.778,0,0,1-.39.355,1.981,1.981,0,0,1-.551.24,2.374,2.374,0,0,1-.722.091,2.073,2.073,0,0,1-.464-.051,1.784,1.784,0,0,1-.481-.18,2.413,2.413,0,0,1-.444-.325,2.12,2.12,0,0,1-.367-.5,3.055,3.055,0,0,1-.253-.692,4.073,4.073,0,0,1-.091-.907,3.356,3.356,0,0,1,.178-1.13,2.5,2.5,0,0,1,.481-.843,2.144,2.144,0,0,1,.694-.544,1.955,1.955,0,0,1,.839-.189,2.664,2.664,0,0,1,.7.087,1.946,1.946,0,0,1,.527.23,1.493,1.493,0,0,1,.384.326,1.944,1.944,0,0,1,.253.4,2.378,2.378,0,0,1,.148.41,3.25,3.25,0,0,1,.06.407h-.81a1.418,1.418,0,0,0-.353-.809,1.116,1.116,0,0,0-.817-.288,1.325,1.325,0,0,0-.625.146,1.343,1.343,0,0,0-.446.406,1.969,1.969,0,0,0-.258.633,3.3,3.3,0,0,0-.09.813,3.526,3.526,0,0,0,.1.86,1.671,1.671,0,0,0,.268.593,1.083,1.083,0,0,0,.427.346,1.471,1.471,0,0,0,.574.106,1.176,1.176,0,0,0,.429-.076,1.09,1.09,0,0,0,.361-.242,1.572,1.572,0,0,0,.274-.384,2,2,0,0,0,.161-.529h.81" transform="translate(-18.867 -24.159)"/><path class="c" d="M85.712,101.228h.866v2.394l2.549-2.394h1.137l-2.209,2.037,2.25,3.013h-1.12l-1.754-2.434-.852.79v1.643h-.866v-5.05" transform="translate(-20.502 -24.208)"/><path class="c" d="M92.611,101.228h.87V105H93.5l2.293-3.774h.994v5.05H95.91V102.5H95.9L93.6,106.278h-.993v-5.05" transform="translate(-22.152 -24.208)"/><path class="c" d="M100.74,98.532a1,1,0,0,0,.139.355.768.768,0,0,0,.227.231,1.036,1.036,0,0,0,.3.125,1.591,1.591,0,0,0,.353.037,1.634,1.634,0,0,0,.35-.037,1,1,0,0,0,.3-.125.728.728,0,0,0,.225-.231,1.089,1.089,0,0,0,.137-.355h.479a1.687,1.687,0,0,1-.132.505,1.334,1.334,0,0,1-.28.425,1.37,1.37,0,0,1-.451.29,1.6,1.6,0,0,1-.624.107,1.636,1.636,0,0,1-.631-.107,1.272,1.272,0,0,1-.446-.29,1.354,1.354,0,0,1-.282-.425,1.6,1.6,0,0,1-.128-.505Zm-1.071,2.051h.867v3.774h.019l2.289-3.774h1v5.05h-.873v-3.778h-.019l-2.283,3.778h-1v-5.05" transform="translate(-23.841 -23.563)"/></g></g></svg>