<svg xmlns="http://www.w3.org/2000/svg" width="114.51" height="100.174" viewBox="0 0 114.51 100.174">
  <g id="Group_195" data-name="Group 195" transform="translate(-28.793 -34.578)">
    <g id="Group_192" data-name="Group 192" transform="translate(28.793 81.179)">
      <path id="Path_590" data-name="Path 590" d="M36.373,84.149V83.79c.6-.079,1.087-.079,1.346-.373a3.424,3.424,0,0,0,.252-1.69c0-.28-.02-2.6-.02-2.88H31.818c0,.373-.016,2.813-.016,3.189,0,1.623.295,1.607,1.58,1.753v.359H28.793V83.79c.584-.079,1.038-.1,1.269-.389a3.011,3.011,0,0,0,.227-1.565c0-.715.017-5.561.017-6.3,0-1.575-.264-1.546-1.513-1.705v-.363h4.569v.363a2.667,2.667,0,0,0-1.2.275c-.312.229-.328.618-.328,1.385,0,.354-.016,2.487-.016,2.845H37.95c0-.312.02-2.357.02-2.669,0-1.693-.162-1.693-1.564-1.836v-.363h4.571v.363c-.534.061-1.021.082-1.251.327-.248.24-.248.942-.248,1.688,0,.653-.012,5.433-.012,6.086a2.709,2.709,0,0,0,.228,1.512c.243.263.729.263,1.3.342v.359Z" transform="translate(-28.793 -71.88)" fill="#1d1d1b"/>
      <path id="Path_591" data-name="Path 591" d="M46.461,82.467A4.253,4.253,0,0,1,43.676,83.7,3.776,3.776,0,0,1,39.9,79.894a3.956,3.956,0,0,1,3.81-3.61,4.2,4.2,0,0,1,2.452.9A3.541,3.541,0,0,1,47.5,79.932a3.713,3.713,0,0,1-1.042,2.535m-1.09-4.8a2.06,2.06,0,0,0-1.658-.991,1.909,1.909,0,0,0-1.03.31,3.322,3.322,0,0,0-1.3,2.907c0,1.388.734,3.416,2.44,3.416,1.549,0,2.2-2.046,2.2-3.282a4.227,4.227,0,0,0-.648-2.359" transform="translate(-26.137 -71.207)" fill="#1d1d1b"/>
      <path id="Path_592" data-name="Path 592" d="M51.775,77.435h-2.29v4.181c0,.8.259,1.512,1.2,1.512a1.918,1.918,0,0,0,1.221-.437l.166.211A3.2,3.2,0,0,1,49.8,83.927c-1.176,0-1.617-.719-1.617-1.808,0-1.541.036-3.109.048-4.685H47.223l-.036-.134c.782-.679,1.549-1.348,2.347-2.015v1.45h2.541Z" transform="translate(-24.395 -71.446)" fill="#1d1d1b"/>
      <path id="Path_593" data-name="Path 593" d="M55.338,83.7A3.392,3.392,0,0,1,52.1,80.286a4.253,4.253,0,0,1,1.151-3.074,3.325,3.325,0,0,1,2.181-.928,2.617,2.617,0,0,1,2.7,2.462c-1.58.061-3.157.128-4.771.128a3.382,3.382,0,0,0-.028.519v.245a2.64,2.64,0,0,0,4.731,1.949l.214.181A3.787,3.787,0,0,1,55.338,83.7m1.123-6.329a1.355,1.355,0,0,0-1.317-.734c-.976,0-1.544,1.058-1.711,1.922A20.082,20.082,0,0,0,56.72,78.3a1.932,1.932,0,0,0-.259-.927" transform="translate(-23.219 -71.207)" fill="#1d1d1b"/>
      <path id="Path_594" data-name="Path 594" d="M58.145,84.457v-.309c.455-.051.844-.1,1-.361a3.375,3.375,0,0,0,.15-1.431c0-2.491.016-4.863.016-7.353,0-.406,0-1.092-.016-1.234-.113-.052-.895-.425-1.009-.475v-.128c.782-.328,1.549-.638,2.327-.98v.229c0,2.264-.1,4.883-.1,9.877a4.4,4.4,0,0,0,.13,1.447c.145.292.62.377,1.123.408v.309Z" transform="translate(-21.775 -72.187)" fill="#1d1d1b"/>
      <path id="Path_595" data-name="Path 595" d="M73.2,83.619a6.74,6.74,0,0,1-3.255.551H65.669v-.34c.669-.1,1.167-.1,1.447-.409a3.594,3.594,0,0,0,.259-1.854v-5.91c0-.762-.016-1.3-.259-1.559a2.02,2.02,0,0,0-1.188-.342v-.341c.228.015,1.233.032,2.036.032.826,0,1.512-.064,2.338-.064.2,0,.405,0,.6.019,1.4.081,2.862.891,2.862,2.452,0,1.27-1.349,2.131-2.505,2.426V78.3c1.7.176,3.482,1.2,3.482,3A2.782,2.782,0,0,1,73.2,83.619m-3.3-9.83c-.341,0-.653-.016-1.026.016,0,.663-.016,1.3-.016,1.922v.488c0,.667.016,1.285.016,1.984a.566.566,0,0,0,.232.016,3.314,3.314,0,0,0,2.615-.88,1.878,1.878,0,0,0,.489-1.25,2.3,2.3,0,0,0-2.31-2.3m-.7,4.764a2.108,2.108,0,0,0-.325.019c0,.067-.016.44-.016.653,0,1.38.016,2.732.016,4.116a3.1,3.1,0,0,0,.016.37,4.331,4.331,0,0,0,1.026.1,3.247,3.247,0,0,0,2.083-.5,2.333,2.333,0,0,0,.94-1.885c0-2.2-1.917-2.869-3.741-2.869" transform="translate(-19.976 -71.901)" fill="#1d1d1b"/>
      <path id="Path_596" data-name="Path 596" d="M79.224,83.7c-.441,0-.668-.763-.8-1.11a9.28,9.28,0,0,1-2.9,1.11c-.682,0-.794-.881-.794-1.447,0-.751.077-1.223.81-1.55a30.093,30.093,0,0,1,2.895-.91s.02-.762.02-1.074c0-.848-.247-1.676-1.5-1.676a1.112,1.112,0,0,0-1.11.7,6.016,6.016,0,0,0-.082.8c-.195.016-1.037,0-1.253-.019a.652.652,0,0,1,.232-.537,10.544,10.544,0,0,1,1.788-1.335,2.8,2.8,0,0,1,1.219-.425,1.994,1.994,0,0,1,1.938,2.051V81.52c0,.421-.1,1.173.539,1.173a1.6,1.6,0,0,0,.68-.243l.146.211A4.973,4.973,0,0,1,79.224,83.7m-.786-3.562A4.873,4.873,0,0,0,76.031,81.2a1.045,1.045,0,0,0,.8,1.674,4.244,4.244,0,0,0,1.606-.648Z" transform="translate(-17.861 -71.22)" fill="#1d1d1b"/>
      <path id="Path_597" data-name="Path 597" d="M80.6,84.457v-.309c.454-.051.846-.1,1.009-.361a3.449,3.449,0,0,0,.146-1.431c0-2.491.016-4.863.016-7.353,0-.406,0-1.092-.016-1.234-.114-.052-.9-.425-1.01-.475v-.128c.778-.328,1.545-.638,2.327-.98v.229c0,2.264-.1,4.883-.1,9.877a4.4,4.4,0,0,0,.13,1.447c.15.292.616.377,1.123.408v.309Z" transform="translate(-16.406 -72.187)" fill="#1d1d1b"/>
      <path id="Path_598" data-name="Path 598" d="M89.207,77.435h-2.3v4.181c0,.8.259,1.512,1.208,1.512a1.932,1.932,0,0,0,1.219-.437l.162.211a3.191,3.191,0,0,1-2.281,1.027c-1.164,0-1.61-.719-1.61-1.808,0-1.541.036-3.109.048-4.685H84.648l-.029-.134c.778-.679,1.54-1.348,2.343-2.015v1.45H89.5Z" transform="translate(-15.445 -71.446)" fill="#1d1d1b"/>
      <path id="Path_599" data-name="Path 599" d="M93.52,83.172a2.994,2.994,0,0,1-1.743.52,8.1,8.1,0,0,1-1.792-.227c-.064-.555-.193-1.256-.263-1.8l.393-.079a6.113,6.113,0,0,0,.8,1.37,1.358,1.358,0,0,0,2.31-.765A1.893,1.893,0,0,0,92.1,80.633c-.289-.178-.519-.29-.774-.442-.831-.487-1.467-.926-1.467-1.966a2.18,2.18,0,0,1,2.331-1.953,5.423,5.423,0,0,1,1.346.18.943.943,0,0,0,.507-.081c.113.537.227,1.253.291,1.808l-.373.077c-.361-.765-.9-1.658-1.82-1.658a1.149,1.149,0,0,0-1.223,1.17c0,.7.393.944.862,1.256.309.213.734.4,1.026.586.73.421,1.512.944,1.512,2.014a1.954,1.954,0,0,1-.794,1.549" transform="translate(-14.225 -71.211)" fill="#1d1d1b"/>
      <path id="Path_600" data-name="Path 600" d="M97.95,83.723a3.3,3.3,0,0,1-2.035-.75,3.234,3.234,0,0,1-1.107-2.617,4.272,4.272,0,0,1,4.114-4.084,2.137,2.137,0,0,1,1.544.6.623.623,0,0,0,.085.064,2.972,2.972,0,0,1-.539.928,2.664,2.664,0,0,1-.669-.34,2.484,2.484,0,0,0-1.411-.653c-1.289,0-1.807,1.582-1.807,2.641a3.239,3.239,0,0,0,.632,2.228,2.372,2.372,0,0,0,1.986,1.009,2.434,2.434,0,0,0,1.694-.7l.159.212a3.645,3.645,0,0,1-2.647,1.466" transform="translate(-13.009 -71.21)" fill="#1d1d1b"/>
      <path id="Path_601" data-name="Path 601" d="M104.881,84.457v-.309c.455-.031.86-.115,1.01-.341a8.561,8.561,0,0,0,.182-2.379c0-.926.029-2.26-.527-2.844a1.53,1.53,0,0,0-1.2-.44,3.443,3.443,0,0,0-1.7.669v3.7c0,1.317.032,1.514,1.14,1.629v.309h-3.478v-.309c.4-.051.791-.1.953-.328.2-.275.166-.682.166-1.348v-8.7c-.118-.067-.912-.425-1.026-.475v-.128c.507-.217,1.824-.751,2.327-.98V72.4c0,1.427-.066,3.022-.066,5.513v.571c.848-.616,1.415-1.238,2.559-1.238a2.056,2.056,0,0,1,1.344.6c.848.851.735,1.84.751,2.9v2.488c0,.864.239.834,1.123.914v.309Z" transform="translate(-11.692 -72.187)" fill="#1d1d1b"/>
      <path id="Path_602" data-name="Path 602" d="M113.458,83.8l-.029-.048c-.025-.535-.037-.6-.037-.991,0-.1,0-.28-.052-.28a1.264,1.264,0,0,0-.353.213,4.434,4.434,0,0,1-2.261.993c-1.626,0-1.9-1.659-1.922-3.078-.011-1.058.053-1.865.053-2.812a.971.971,0,0,0-.252-.737c-.157-.14-.551-.156-.81-.226v-.294c.243-.03,1.613-.176,2.331-.256v4.73a2.358,2.358,0,0,0,.325,1.32,1.171,1.171,0,0,0,1.1.539,3.015,3.015,0,0,0,1.84-.893c.012-1.58,0-2.82,0-4.279,0-.181.037-.347-.113-.475a3.69,3.69,0,0,0-1.2-.373v-.294c.439-.048,2.035-.195,2.574-.242,0,.5-.036,4.735-.036,5.235a5.41,5.41,0,0,0,.081,1.04c.13.15.8.169,1.058.2v.274c-.518.152-2.294.736-2.294.736" transform="translate(-9.904 -71.207)" fill="#1d1d1b"/>
      <path id="Path_603" data-name="Path 603" d="M122.61,77.447c-.507-.067-1.1-.165-1.678-.261a2.572,2.572,0,0,1,.457,1.432,2.436,2.436,0,0,1-.6,1.575,3.069,3.069,0,0,1-2.444,1.026c-.276,0-.568-.063-.81-.063a.9.9,0,0,0-.7.75.685.685,0,0,0,.62.682c1.183.195,3.089-.114,4.13.31a1.248,1.248,0,0,1,.912,1.336,2.583,2.583,0,0,1-.989,1.824,6.026,6.026,0,0,1-3.761,1.41,3.512,3.512,0,0,1-1.354-.259,2.089,2.089,0,0,1-1.346-1.722,5.934,5.934,0,0,1,.742-.848c.275-.31.555-.634.862-.959a5.877,5.877,0,0,1-.973-.555,2.505,2.505,0,0,1,1.4-2.049.034.034,0,0,0,0-.064,2.437,2.437,0,0,1-1.362-2.13,2.84,2.84,0,0,1,3.02-2.621c1.058,0,1.09.44,2.343.44.534,0,1.062-.115,1.6-.164,0,.307-.041.6-.069.912m-1.755,6.477a9.091,9.091,0,0,0-2.671-.313,4.979,4.979,0,0,0-1.09.068,1.684,1.684,0,0,0-.734,1.74,2.266,2.266,0,0,0,.717,1.025,2.878,2.878,0,0,0,1.549.456c.976,0,2.861-.685,2.861-1.887a1.105,1.105,0,0,0-.632-1.088m-.8-5.65a1.834,1.834,0,0,0-1.613-1.659c-1.135,0-1.536,1.206-1.536,2.137s.418,2.159,1.561,2.159,1.641-1.021,1.641-2.018a4,4,0,0,0-.052-.618" transform="translate(-8.17 -71.213)" fill="#1d1d1b"/>
    </g>
    <g id="Group_193" data-name="Group 193" transform="translate(48.067 98.927)">
      <path id="Path_604" data-name="Path 604" d="M51.133,98.47v-.361c.377-.029.762-.082.762-.325,0-.259-.357-.618-.682-.976-.787-.86-1.56-1.707-2.347-2.57-.195-.213-.6-.762-.876-.829a.548.548,0,0,0-.161-.016c-.146,0-.276,0-.475.016v3.01c0,.715.036,1.107.268,1.331a2.152,2.152,0,0,0,1.244.359v.361H44.38v-.361c.568-.082,1.042-.094,1.253-.359a2.852,2.852,0,0,0,.23-1.53V90.742a5.31,5.31,0,0,0-.247-2.261c-.228-.229-.734-.243-1.269-.325V87.8h4.519v.361a2.509,2.509,0,0,0-1.216.276c-.276.227-.276.814-.276,1.56,0,.085-.02.616-.02.7,0,.263.02,2.1.02,2.364h.142c.8,0,1.337-.766,1.824-1.3.227-.258.8-.83,1.289-1.431a3.831,3.831,0,0,0,.973-1.6c0-.5-.8-.535-1.135-.566V87.8h4v.361c-1.2.063-1.431.325-2.327,1.2-.507.506-.976,1.058-1.463,1.58s-.916,1.059-1.435,1.612c.2.177,1.678,1.791,1.857,1.985.243.259,1.689,1.819,1.937,2.083a8.872,8.872,0,0,0,1.269,1.218,1.6,1.6,0,0,0,.81.276v.361Z" transform="translate(-44.348 -86.203)" fill="#1d1d1b"/>
      <path id="Path_605" data-name="Path 605" d="M56.948,98.022a3.391,3.391,0,0,1-3.238-3.415,4.272,4.272,0,0,1,1.159-3.074,3.28,3.28,0,0,1,2.177-.926,2.62,2.62,0,0,1,2.7,2.453c-1.585.067-3.157.134-4.771.134a3.365,3.365,0,0,0-.029.519v.243a2.869,2.869,0,0,0,2.776,3.01,2.922,2.922,0,0,0,1.958-1.056l.207.178a3.772,3.772,0,0,1-2.943,1.933m1.124-6.327a1.349,1.349,0,0,0-1.318-.731c-.973,0-1.544,1.057-1.71,1.918a20.229,20.229,0,0,0,3.287-.259,1.926,1.926,0,0,0-.259-.928" transform="translate(-42.11 -85.53)" fill="#1d1d1b"/>
      <path id="Path_606" data-name="Path 606" d="M68.921,97.845v-.309a1.5,1.5,0,0,0,1.107-.328,1.656,1.656,0,0,0,.212-.989c.016-.717.027-1.875.027-2.588a2.355,2.355,0,0,0-.368-1.414,1.715,1.715,0,0,0-1.351-.6,3.262,3.262,0,0,0-1.726.73,3.73,3.73,0,0,1,.048.584c0,1.062-.016,2.053-.016,3.078,0,.618-.016,1.007.162,1.237a1.458,1.458,0,0,0,.932.294v.309H64.366v-.309a1.643,1.643,0,0,0,1.074-.328,4.164,4.164,0,0,0,.177-1.757c0-.5.017-1.382,0-1.885a3.4,3.4,0,0,0-.145-1.157,1.656,1.656,0,0,0-1.479-.829,3.182,3.182,0,0,0-1.756.717c-.032.012-.068.035-.068.063v3.579a2.557,2.557,0,0,0,.145,1.237c.167.264.589.309,1.042.361v.309H59.781v-.309c1.135-.1,1.135-.342,1.135-1.611,0-.522-.016-3.435-.016-3.956-.11-.064-.682-.325-1.042-.472v-.162c.507-.211,2.311-.926,2.311-.926v1.607c.341-.239.685-.519,1.025-.743a3.042,3.042,0,0,1,1.74-.69,2.069,2.069,0,0,1,1.479.882,2.878,2.878,0,0,1,.328.634c.81-.6,1.512-1.5,2.72-1.5a2.184,2.184,0,0,1,1.512.893,3.57,3.57,0,0,1,.568,2.152c0,.991-.1,2.047-.1,3.022,0,.8.28.784,1.123.865v.309Z" transform="translate(-40.658 -85.578)" fill="#1d1d1b"/>
      <path id="Path_607" data-name="Path 607" d="M74.288,97.827a5.336,5.336,0,0,1-.725-.035V99.58a3.948,3.948,0,0,0,.141,1.466c.178.358.617.358,1.176.421v.31H71.152v-.31c1-.1,1.155-.375,1.155-1.527v-7.96a10.639,10.639,0,0,0-1.058-.484v-.167c.28-.109,2-.81,2.277-.907v.243c0,.363.016.6.016,1.011.406-.229.8-.523,1.2-.731a2.36,2.36,0,0,1,1.074-.312,3.379,3.379,0,0,1,2.427,1.206,3.915,3.915,0,0,1,.726,2.149c0,1.818-1.642,3.84-4.686,3.84m1.642-6.12a2.5,2.5,0,0,0-.908-.211,2.446,2.446,0,0,0-1.479.517v4.251a2.173,2.173,0,0,0,1.906,1.123,1.609,1.609,0,0,0,.859-.245,3.053,3.053,0,0,0,1.351-2.75,2.742,2.742,0,0,0-1.727-2.685" transform="translate(-37.939 -85.575)" fill="#1d1d1b"/>
      <path id="Path_608" data-name="Path 608" d="M78.557,98.366v-.309c1.24-.115,1.172-.392,1.172-1.742V92.636c0-.064.016-.079-.048-.1s-.929-.436-1.01-.468v-.144c.5-.217,2.311-.947,2.311-.947v5.37c0,1.33-.033,1.593,1.187,1.709v.309ZM80.3,89.777a.792.792,0,0,1-.782-.784.78.78,0,0,1,1.56,0,.791.791,0,0,1-.778.784" transform="translate(-36.169 -86.099)" fill="#1d1d1b"/>
      <path id="Path_609" data-name="Path 609" d="M87.161,97.845v-.309a1.791,1.791,0,0,0,1.085-.294,1.622,1.622,0,0,0,.2-1.024c.017-.732.05-1.435.05-2.166a3.666,3.666,0,0,0-.227-1.624,1.7,1.7,0,0,0-1.484-.83,2.925,2.925,0,0,0-1.776.734c-.032.029-.043.029-.043.077-.037.442,0,3.042,0,3.484,0,.68,0,1.092.173,1.315.162.195.458.276.981.328v.309H82.535v-.309c.458-.052.851-.1,1.01-.377a5.128,5.128,0,0,0,.134-1.737V91.969c-.118-.064-.685-.306-1.046-.472v-.162c.507-.211,2.331-.926,2.331-.926v1.627c.291-.213.55-.456.862-.685a3.127,3.127,0,0,1,1.885-.768,2.131,2.131,0,0,1,1.5.9,3.235,3.235,0,0,1,.572,2.13c0,.928-.082,2.069-.082,3.011,0,.86.309.831,1.107.912v.309Z" transform="translate(-35.217 -85.578)" fill="#1d1d1b"/>
      <path id="Path_610" data-name="Path 610" d="M94.362,97.493a2.972,2.972,0,0,1-1.74.517,8.14,8.14,0,0,1-1.791-.223c-.066-.556-.191-1.258-.26-1.792l.394-.078a6.02,6.02,0,0,0,.8,1.365,1.353,1.353,0,0,0,2.306-.766,1.9,1.9,0,0,0-1.119-1.565c-.291-.178-.522-.294-.782-.436-.83-.489-1.467-.928-1.467-1.968a2.182,2.182,0,0,1,2.331-1.955,5.416,5.416,0,0,1,1.346.18.944.944,0,0,0,.507-.083c.113.54.227,1.251.291,1.81l-.373.079c-.356-.766-.895-1.658-1.819-1.658a1.145,1.145,0,0,0-1.221,1.17c0,.7.385.942.859,1.251.309.212.73.405,1.03.586.726.424,1.513.943,1.513,2.019a1.961,1.961,0,0,1-.8,1.546" transform="translate(-33.296 -85.534)" fill="#1d1d1b"/>
      <path id="Path_611" data-name="Path 611" d="M95.525,98.777v-.309c.405-.032.8-.067.944-.31a2.822,2.822,0,0,0,.178-1.432c0-.735.016-6.281.016-7.013,0-.259-.016-1.349-.016-1.611-.114-.064-.9-.437-1-.484v-.131c.762-.342,1.528-.634,2.306-.976v.227c0,.8-.016,1.627-.032,2.7-.016,1.79-.029,4.02-.029,7.031v.405c0,.717,0,1.107.191,1.336.166.181.437.229.912.275v.295Zm4.344,0v-.295c.26-.014.848-.032.848-.39a16.251,16.251,0,0,0-2.165-2.458c-.2-.176-.409-.373-.6-.549a13.646,13.646,0,0,0,1.836-1.431c.195-.2.83-.845.83-1.107,0-.363-.648-.427-.907-.444v-.3h3.316v.3a3.258,3.258,0,0,0-1.869.845c-.682.539-1.335,1.092-2.023,1.664.848.907,1.678,1.807,2.541,2.669.328.322.6.651.96.94a1.207,1.207,0,0,0,.682.247v.309Z" transform="translate(-32.112 -86.51)" fill="#1d1d1b"/>
      <path id="Path_612" data-name="Path 612" d="M102.735,98.366v-.309c1.235-.115,1.171-.392,1.171-1.742V92.636c0-.064.016-.079-.048-.1s-.929-.436-1.01-.468v-.144c.5-.217,2.311-.947,2.311-.947v5.37c0,1.33-.033,1.593,1.187,1.709v.309Zm1.738-8.589a.8.8,0,0,1-.783-.784.783.783,0,0,1,1.565,0,.792.792,0,0,1-.782.784" transform="translate(-30.388 -86.099)" fill="#1d1d1b"/>
    </g>
    <g id="Group_194" data-name="Group 194" transform="translate(63.972 129.168)">
      <path id="Path_613" data-name="Path 613" d="M62.23,116.348v-.178c.382-.041.584-.057.694-.278a1.545,1.545,0,0,0,.04-.622c-.04-.678-.089-1.213-.138-1.849-.041-.576-.084-1.227-.141-1.62-.316.726-1.269,2.815-1.5,3.406a9.825,9.825,0,0,0-.4,1.182h-.2c-.937-2.206-1.715-3.935-1.938-4.343-.118,1.149-.138,1.449-.287,2.813-.053.529-.064.928.084,1.087a1.358,1.358,0,0,0,.739.239v.162h-1.99v-.178c.234-.027.486-.033.623-.213a2.664,2.664,0,0,0,.284-1.2c.05-.475.13-.979.212-1.628a7.68,7.68,0,0,0,.1-1.359c-.045-.509-.344-.542-.75-.584v-.171l1.488.041a3.069,3.069,0,0,0,.121.465l1.621,3.712c.405-.835,1.192-2.525,1.6-3.5a2.631,2.631,0,0,0,.195-.677l1.662-.037v.171c-.344.016-.628.067-.75.237a1.561,1.561,0,0,0-.105.918c.025.482.073.983.114,1.437.048.545.081,1.041.15,1.643a1.228,1.228,0,0,0,.105.494c.048.1.214.207.673.261v.171Z" transform="translate(-57.184 -110.892)" fill="#1d1d1b"/>
      <path id="Path_614" data-name="Path 614" d="M69.334,115.563a2.917,2.917,0,0,1-3.819.366,2.446,2.446,0,0,1-1.066-2.228,2.816,2.816,0,0,1,2.89-2.772,2.745,2.745,0,0,1,1.995,4.634m-.641-3.5a1.77,1.77,0,0,0-1.5-.913c-1.261,0-1.833,1.385-1.833,2.458,0,1.185.673,2.65,2.035,2.65a1.757,1.757,0,0,0,1.256-.641,2.977,2.977,0,0,0,.494-1.885,3.618,3.618,0,0,0-.454-1.67" transform="translate(-55.447 -110.913)" fill="#1d1d1b"/>
      <path id="Path_615" data-name="Path 615" d="M72.349,116.478a4.032,4.032,0,0,1-.425.021,6.436,6.436,0,0,1-1.18-.136c-.085-.456-.146-.9-.195-1.362l.195-.035c.186.452.352,1,.859,1.212a1.392,1.392,0,0,0,.507.114,1.065,1.065,0,0,0,1.082-1.056c0-.768-.782-1.068-1.357-1.354a1.663,1.663,0,0,1-1.151-1.451,1.606,1.606,0,0,1,1.646-1.515,3.943,3.943,0,0,1,.936.166,1.117,1.117,0,0,0,.139.014.533.533,0,0,0,.211-.042,2.184,2.184,0,0,1,.056.408l.118.855-.2.048c-.243-.587-.616-1.214-1.346-1.214a.945.945,0,0,0-.969.969c0,.6.677.9,1.135,1.141.766.4,1.472.715,1.472,1.721a1.645,1.645,0,0,1-1.533,1.5" transform="translate(-53.988 -110.916)" fill="#1d1d1b"/>
      <path id="Path_616" data-name="Path 616" d="M79.426,116.377a1.4,1.4,0,0,0-.364-.063,4.131,4.131,0,0,0-.682.11,3,3,0,0,1-3.595-2.726,2.914,2.914,0,0,1,.425-1.46,3.014,3.014,0,0,1,2.538-1.315,4.1,4.1,0,0,1,1.208.211,2.055,2.055,0,0,0,.523.14.284.284,0,0,0,.239-.108l.077.041.041,1.487-.195.019a1.822,1.822,0,0,0-1.82-1.565,2.318,2.318,0,0,0-2.075,2.54,2.341,2.341,0,0,0,2.161,2.577c.944,0,1.455-.683,1.953-1.359l.162.074c-.178.468-.373.944-.6,1.4" transform="translate(-52.975 -110.914)" fill="#1d1d1b"/>
      <path id="Path_617" data-name="Path 617" d="M85.421,115.563a2.837,2.837,0,0,1-2.108.912,2.791,2.791,0,0,1-1.719-.546,2.459,2.459,0,0,1-1.062-2.228,2.813,2.813,0,0,1,2.886-2.772,2.66,2.66,0,0,1,2.745,2.8,2.782,2.782,0,0,1-.742,1.834m-.644-3.5a1.779,1.779,0,0,0-1.5-.913c-1.265,0-1.833,1.385-1.833,2.458,0,1.185.673,2.65,2.031,2.65a1.779,1.779,0,0,0,1.26-.641,2.977,2.977,0,0,0,.494-1.885,3.618,3.618,0,0,0-.454-1.67" transform="translate(-51.601 -110.913)" fill="#1d1d1b"/>
      <path id="Path_618" data-name="Path 618" d="M93.9,111.348a1.685,1.685,0,0,0-.45.7c-.235.561-.491,1.125-.714,1.684-.268.654-.555,1.3-.778,1.976-.086.227-.142.462-.207.7h-.264c-.364-1.275-.75-2.531-1.2-3.845-.3.742-.6,1.422-.883,2.105-.138.327-.275.663-.4.994l-.275.753h-.235c-.454-1.385-.94-2.759-1.422-4.142a3.384,3.384,0,0,0-.337-.829.88.88,0,0,0-.664-.247v-.177h2.4v.177h-.13c-.357,0-.632.2-.632.373a10.4,10.4,0,0,0,.511,1.735c.3.869.648,1.869.693,1.975.2-.48,1.208-2.87,1.208-3.145a1.528,1.528,0,0,0-.2-.644.845.845,0,0,0-.685-.294v-.177H91.54v.177c-.211.01-.734.036-.734.373a2.962,2.962,0,0,0,.166.686c.1.325.235.732.341,1.066.247.805.514,1.622.591,1.851.134-.325.442-1.046.722-1.747a8.717,8.717,0,0,0,.539-1.74V111.6c-.05-.362-.487-.4-.771-.413v-.177h2.031v.171a1.042,1.042,0,0,0-.527.162" transform="translate(-50.278 -110.892)" fill="#1d1d1b"/>
    </g>
    <rect id="Rectangle_28" data-name="Rectangle 28" width="65.781" height="0.326" transform="translate(53.154 121.864)" fill="#1d1d1b"/>
    <path id="Path_619" data-name="Path 619" d="M64.826,59.714l-1.722.264.064.424,1.722-.264ZM63.05,62.232V57.619h-.284l-.057-.268-3.343.756.089.42,3.165-.715v2.223l-.984.13v-.009l-2.173.294.061.424v0l2.124-.29v.006l.973-.126v1.772Zm7.892-3.363-1.735.238.057.421L71,59.292Zm-2.059.706-.048-.423-.88.1-.413.063.064.425.405-.064ZM63.05,65.438h-.43v3.7h.43Zm15.1-6.777a17.913,17.913,0,0,0-3.023-.176,16.306,16.306,0,0,0-3.125.2V55.794h-.43v6.085h.284l-.041.372H71.57v2.9H72V62.3c.109.009.243.01.409.01.576,0,1.476-.024,2.725-.024s2.083.024,2.642.024c.155,0,.255-.007.373-.012v2.923h.43V62.284h-.191l-.045-.389h.235V55.722h-.43Zm0,3.2c-.109.007-.211.014-.373.014-.546,0-1.39-.024-2.642-.024s-2.161.024-2.725.024c-.178,0-.307-.006-.409-.01V59.117a14.9,14.9,0,0,1,3.125-.2,17.6,17.6,0,0,1,3.023.18Zm20.493.89.012-.426L95.8,62.255l-.012.425Zm-9.707-6.2,4.551.669.066-.421L89,56.138Zm6.9,3.893,2.829.219.032-.426-2.818-.223Zm-9.489-7.389-.077.424,2.01.39.082-.4v2.254h.425V52.21h-.425v1.248l-.426-.081V52.105l-.68-.134-.089.418.344.064v.838Zm-7.244,12.5,6.871-.221-.009-.425-6.878.218ZM95.862,65l2.793-.069-.012-.424-2.788.069Zm-7.105-8.138h-.393v2.3h.425V57.09l4.706.643v2.2h.425V57.593h-.259l.036-.254-4.912-.677Zm4.924,8.2-.02-.424-4.313.151.012.425ZM79.389,62.289l6.295.156.012-.423L79.4,61.862Zm-.154-3.168,6.514.535.032-.427-6.51-.529ZM93.483,62.2l-4.264-.1-.012.426,4.264.1ZM66.334,60.11v1.752h.425v-1.37l.2-.019-.048-.425-.394.045Zm.17-2.96-.17.032v1.735h.425V57.532l.216-.047-.085-.415v-.006Zm-.737.19-.166.033v1.665h.425V57.714l.2-.041-.085-.413,0,0Zm.02,2.846-.186.02v1.686h.425v-1.3l.182-.016-.048-.426v0ZM68.94,56.65v0l-.409.082-.171.032v1.825h.426V57.115l.235-.051Zm-1.471,3.343-.195.017v1.778H67.7V60.4l.227-.024-.045-.424,0,0Zm1.317.3.207-.019-.041-.425v0l-.4.041-.191.019v1.844h.426ZM67.7,57.36l.232-.042-.085-.416h0l-.4.082-.173.03v1.76H67.7Zm17.583-2.027V53.9l-.725-.141-.081.418.38.074v1.084Zm-14.49.984h0l-.414.084-.162.041v1.9h.426l-.009-1.559.252-.055Zm-8.6,2.214-.086-.418-.3.061-.166.041v1.517h.426v-1.17Zm21.941-3.358V53.715l-.734-.14L83.321,54l.389.068v1.109ZM82.915,55V53.5l-.746-.129-.077.418.4.073V55ZM63.748,60.432l-.195.022v1.613h.425V60.833l.142-.014-.045-.424v0Zm3.113-8.747-.389.146-.138.048V53.23h.425V52.176l.252-.093-.15-.4ZM60.732,58.4l-.162.036v1.457H61V58.773l.105-.022-.093-.411v-.006Zm3.409-.337-.085-.414h0l-.328.069-.17.037v1.6h.425V58.094Zm-2.31,2.6-.183.022v1.534h.426v-1.16l.109-.01-.057-.424v0Zm-1.079.1-.182.029v1.481H61V61.152l.089-.006-.061-.418v-.006Zm-.766-2.2-.268.053-.17.033v1.408h.43V58.993l.1-.024Zm.032,2.3h0l-.279.028-.191.021v1.441h.43V61.288l.084-.009ZM81.306,53.67v1.155h.426V53.313l-.742-.133-.073.418Zm2-4.281.4.1v1.069h.426V49.15l-.726-.173ZM70.63,48.7l.292-.13-.171-.389-.418.187-.121.057v1.339h.426Zm1.922,18.086.3.048.064-.421-.543-.086-.248-.038,0,2.732.1.086.62.147.082-.421-.377-.069Zm1.626,2.586.948.061.009-.213.011.213.633-.025.207-.011V66.511H74.177Zm.425-2.44h.957v2.057l-.421.016-.535-.032Zm5.063-18.49.409.085v1.166h.43V48.186l-.746-.165Zm2.411.641v0Zm-4.5,17.767v1.926l-.694.105.073.424V69.3l.867-.128L78,69.139V66.4l-1.235.074.032.432ZM69.73,51.091l.287-.114-.157-.394-.421.167-.134.051v1.463h.425Zm7.292-3.3v0h0ZM70.63,50.743l.276-.1-.142-.4v0l-.418.149-.134.048v1.5h.426Zm-2.82.581-.394.144-.141.053V52.9H67.7V51.818l.26-.092-.15-.4Zm-1.7.657-.373.144-.138.047v1.317h.425V52.468l.235-.085-.15-.4Zm8.176,1.944h.425V52.565h.742v1.361h.425V52.137H74.286Zm11-4.512-.717-.171-.1.418.393.092v1.084h.425V49.414ZM72.016,55.6h0Zm-.361.131V55.3h-.325v.268l-.057-.268-6.039,1.37.089.4h-.352v5.09H65.4V60.029l0,.032,1.942-.274-.057-.421-1.89.268V57.076l5.93-1.348Zm27.736,2.123c-.068-.255-.121-.165-.138-.2a.787.787,0,0,0-.134-.041V54.782l.012-.113.081-.089a.314.314,0,0,0,.057-.152.269.269,0,0,0-.15-.23V52.82l-.084-.1L98.1,50.81,82.041,45.761l-.021-.033-.085-.027a.327.327,0,0,1-.222-.346v-.029l.036-.193L80.74,44.8c-.017-.131.007-.642-.175-.773l-.012.078-.012-.087c-.17.1-.178.444-.178.657l-1.349-.44c-.025-.112.007-.654-.182-.788l-.016.073-.009-.085h0c-.239.14-.15.8-.186.831,0,.01.007.014.007.022l-.105.024a1.088,1.088,0,0,0-.535-.607c-.036-.037.025-.678-.177-.823l-.017.083-.011-.1c-.171.1-.171.441-.171.654-.052-.016-.089-.038-.138-.057v-.613l.052.026V41.775l-.052-.024v-.5a.261.261,0,0,0,.13-.214.274.274,0,0,0-.268-.27.269.269,0,0,0-.271.27c0,.032.02.051.032.079a.541.541,0,0,1-.171.364l-.571-.28V39.377l-.045-.15-.632-1.585-.009.006,0-1.1-.385-1.3-.207-.669-.571,1.9v.072h-.025v1.048l-.007,0-.646,1.648-.024.077v1.9l-.669.3a.526.526,0,0,1-.175-.374c.009-.031.033-.055.033-.086l.036-.076L72.973,41a.254.254,0,0,0-.243-.214.268.268,0,0,0-.268.271.245.245,0,0,0,.125.2v.5l-.052.025,0,.146.016.606,0,.32.029-.012V43.5c-.064.021-.125.047-.191.073-.007-.214-.024-.52-.161-.616l-.016.074-.009-.087c-.252.138-.154.794-.191.829a1.093,1.093,0,0,0-.377.43l-.064-.021c-.016-.134,0-.638-.175-.767l-.016.077-.012-.085v0c-.223.125-.17.657-.182.784l-1.431.734c-.007-.213-.024-.507-.166-.6l-.012.074-.007-.085c-.232.129-.162.716-.191.8l-.653.335.021.154a.562.562,0,0,1,0,.082.706.706,0,0,1-.191.492l-.064.063v.418L59.9,50.8l-.6,1.678a.863.863,0,0,0-.539.239.424.424,0,0,0-.105.286.3.3,0,0,0,.057.188V54.29a.66.66,0,0,0-.162.248.19.19,0,0,0,.048.135l.159.143-.024,1.006a.089.089,0,0,1-.033.011c-.036.04-.15,0-.2.25a.226.226,0,0,0,.089.19l.138.056,0,.083v1.346c-.081.025-.182.057-.23.284a.273.273,0,0,0,.081.193l.142.129.012.082,0,2.075v2.109a.255.255,0,0,0-.13.2.469.469,0,0,0,.028.138l.1.14,0,.144v1.575c-.073.022-.223.085-.223.237a.6.6,0,0,0,.045.166l.178.238v3.266l.012.088.045.128,12.6,2.105.048-.28h.073v-14.9h-.43V70.571l-11.925-2,0-2.839v-.408l-.053-.077,11.783.351.012-.432-11.742-.34V63.25l0-.213v-.042l3.469-.182v2.047h.43V62.79l7.888-.42-.025-.425-11.758.628V58.406l-.028-.182-.009-.076-.045-.041,3.551-.862-.1-.416-3.372.819V56.394l-.021-.233v-.016l3.514-1.118v1.534h.033l-.082.022.1.41,2.7-.669-.1-.411-2.229.551V54.9h-.021l1.931-.612v1.582h.421V54.217h-.178l5.946-1.891v2.308H71.6v-.016h.239a1.07,1.07,0,0,0-.114.089v0h-.55v.351l-.086-.343-5.715,1.415.105.411,5.695-1.409v0h.55v-.3l.289.191v0c.129-.286,1.483-.659,3.088-.634,1.618-.031,2.952.335,2.991.574l.382-.181c-.016-.024-.029-.046-.048-.071H78.5v.367h.361V55.1l6.919.969.056-.421-6.918-.971-.012.1V54.65H78.57V49.9l.029-.01v4.653h.43V49.906l5.536,1.3-.1.411.389.088v1.1h.425V51.378l4.115.966-.094.409.257.057V53.8h.425l0-1.154v-.161l1.56.362-.109.408.243.063,0,.9h.43L92.1,53.157v-.172l-.284-.069.823.188-.1.405.239.063v.874h.43V53.24l.53.123h-.247V54.6l-2.968-.589h.41V52.741l-.58-.151-.1.413.255.066v.947L88.9,53.694l-.077.42,4.629.913.045-.211v1.722h.425V55.122l1.051.211.077-.389V56.8h.429V55.427l3.142.62.072-.357v1.855L95.4,57.073l-.066.425,3.457.492-.024.028-.016.031v0l-3.5-.494-.05.352h-.161v.211l-.576-.056-.045.427.219.017v1.162h.4V59.8h.429V58.013l3.219.457.024-.164-.048,9.837-.064.006V66.168a.612.612,0,0,0-.612-.613.649.649,0,0,0-.617.694v2.058l-.17.02V66.257a.649.649,0,0,0-.652-.66.711.711,0,0,0-.665.776v2.123l-.211.03v-2.1a.7.7,0,0,0-.709-.708.76.76,0,0,0-.71.838v2.152l-.341.045V65.076h-.425v1.556a.763.763,0,0,0-.771-.752.776.776,0,0,0-.741.724A.8.8,0,0,0,91.164,66a.886.886,0,0,0-.831.983v2.228l-.227.024V67a.871.871,0,0,0-.891-.887.96.96,0,0,0-.892,1.069v2.286l-.086.009v-2.3a.953.953,0,0,0-.969-.97,1.05,1.05,0,0,0-.976,1.165V69.72l-.086.012v-4.3h-.425v1.833a.94.94,0,0,0-.957-.906,1,1,0,0,0-.96.98.965.965,0,0,0-1-.845c-.734,0-.933.688-.937,1.326v2.462l-.232.032V67.726a1.071,1.071,0,0,0-1.1-1.1A1.183,1.183,0,0,0,79.5,67.956V70.59l-.475.061V55.66H78.6V70.651l-.02,0V65.71H78.3a.7.7,0,0,0,.2-.14l-.362-.219c-.04.217-1.3.359-3.068.322a7.542,7.542,0,0,1-3.043-.312l-.378.2c.037.053.114.076.171.115H71.57v5.209l.1.125c.307.6,1.589.628,3.4.673,1.7-.042,2.975-.036,3.405-.625l.235.041.024,0L99.1,68.518l.024-10.3.009.035.211-.271,0,0ZM69.572,44.778a.153.153,0,0,0,0-.048c.007.093.02.191.028.271l-.053.026c0-.064.012-.157.02-.249m-.823,2.082h0l-.032-.067Zm-8.508,4.25,8.277-3.986,0,.746-.912.423v.641l-2.225.959-.105-.294-.1-.124-.1-.085-2.258,1.032-.109.629L59.82,52.3Zm3.774-.1v0l-.328.139-.134.056v1.1h.405l-.883.328V51.471H62.8l2.165-.932v1.323h.161l-1.151.427v-.8l.2-.084Zm-.848-.165.029-.134,1.76-.805.036.149Zm-4.012,4.84V54.649l-.041-.078.052-.014.382-.146v1.04h.357Zm.527-2.855-.134.055v.963h.268l-.677.252v-1.14l-.012,0a1.035,1.035,0,0,1,.129-.038c.1-.025.219-.042.289-.052l-.012-.072.032.073,3.084-1.333v1.17h.223l-.8.3v-.7l.162-.073-.162-.387v0l-.3.125-.13.051v1.037h.3L61,53.412v-.638l.15-.066-.171-.387v0l-.279.116-.126.056v1H60.8l-.818.3v-.622l.134-.056-.159-.39v0Zm3.393,1.613V53.291h-.426v1.222h.223l-.8.249v-.786l.146-.053-.146-.4-.292.11-.134.048v1.139H61.9l-.907.29v-.772l.129-.047-.15-.4h0l-.268.1-.138.055v1.1h.321l-.912.287v-.747l.121-.043-.13-.383,3.583-1.349v1.237h.425v-.965l.191-.064-.138-.388.953-.357v1.383h.287Zm8.1-2.289-.082-.255-5.686,1.8V52.3h-.239l3.193-1.2v1.422h.426V51.391l.264-.1-.134-.394,2.258-.851Zm0-2.567-1.444.54V49.121L70.018,49l-.173-.388h0l-.414.185-.125.055V50.18H69.6l-.814.309V49.482l.275-.109-.157-.4h0l-.41.166-.134.048v1.315h.382l-1.042.388v-.931l.26-.1-.155-.4-.393.152-.138.052v1.253h.341l-.856.321v-.912l.26-.11-.166-.39h0l-.384.16-.13.052v1.239h.316l-.625.234v-.836l.252-.1-.162-.392v0l-.385.162-.129.051v1.213h.178l-.385.142V50.427h-.175l5.955-2.572Zm0-1.773-.159-.363-2.987,1.291v-.181l3.146-1.455Zm0-.819-.139-.3-2.092.97,0-.76,2.225-1.109Zm0-1.553-.045-.1-2.2,1.094,0-.035a1.088,1.088,0,0,0,.259-.712l1.991-1.023Zm.186-1.321h0c0-.071.007-.16.02-.259a.223.223,0,0,0,0-.051c.016.125.029.239.033.326Zm6.421-.781a.245.245,0,0,1,0-.053c.012.124.025.239.028.321a.512.512,0,0,0-.053-.025c.009-.068.012-.154.021-.243m-.446-2.416a.109.109,0,0,1,.1.108c0,.022-.033.022-.037.036h-.077l-.089-.048c.02-.051.045-.1.1-.1m-.15.45v.229l-.121-.061a1.1,1.1,0,0,0,.121-.169m-.831.274.746.385v.156l-.746-.373Zm-.616-1.247a.261.261,0,0,0,.2.239v.493l-.361,0V39.373l.373.134-.007.651a.262.262,0,0,0-.2.249m.2-.045v.082c-.009-.015-.041-.016-.041-.037s.032-.03.041-.045m-1.01-3.826.15-.5.159.524v.9a1.537,1.537,0,0,0-.171-.021,1.444,1.444,0,0,0-.15.011Zm-.13,1.4h.532l.421,1.062-.316-.11-.705-.01-.357.14Zm.357,1.359v1.84h-.219V39.287Zm-.924,1.291a.254.254,0,0,0,.146-.219.251.251,0,0,0-.146-.221v-.616l.28-.12V41.12l-.28,0Zm0,.943,1.7.017,0,.219-1.7-.021Zm-.425.151,0,.17-.835.366,0-.146Zm-.937-.245a.6.6,0,0,0,.118.16l-.118.05Zm0,1.295,1.253-.575,2.018.02,1.042.541v.683a6.741,6.741,0,0,0-.835-.156c-.012-.131.016-.651-.175-.778l-.016.079-.007-.089v0c-.2.121-.178.579-.178.753-.292-.026-.6-.045-.9-.055-.275.006-.535.022-.791.042-.012-.188,0-.612-.173-.727l-.009.079-.016-.089v0c-.211.125-.166.632-.175.776a6.819,6.819,0,0,0-1.033.191Zm3.32.493a.459.459,0,0,0-.057,0c0-.068.009-.169.017-.3a.2.2,0,0,1,0-.045c.02.146.029.273.036.343M74.12,43.2h-.057c0-.064.012-.164.02-.284a.1.1,0,0,1,0-.036c.016.131.024.242.032.32m-1.39-2.255c.048,0,.068.047.084.089l-.093.029-.007.071H72.7c-.037-.016-.073-.036-.073-.077a.1.1,0,0,1,.1-.112m-.523,2.465a.234.234,0,0,0,0-.048c.012.1.02.2.028.281-.02.006-.032.02-.053.029.009-.071.012-.16.021-.261m-.216,1.776.073.077a.352.352,0,0,1,.069-.063l0,1.435H72.3a2.308,2.308,0,0,0-.312.192Zm5.561.239v1.1a6.892,6.892,0,0,0-1.779-.332V44.685H74.4V46.2a6.887,6.887,0,0,0-1.831.341l0-1.052.5-.2-.159-.392-.636.255-.134.055a5.821,5.821,0,0,1,2.947-.622,7.817,7.817,0,0,1,2.12.271l-.143.392Zm-2.208-.318v1.066c-.085,0-.178,0-.264,0s-.175,0-.259,0V45.109Zm2.8,9.344a2.3,2.3,0,0,0-.276-.141h.086V52.656l-.734-.152-.093.415.4.083v1.2a11.14,11.14,0,0,0-2.424-.239,9.636,9.636,0,0,0-2.545.3l-.012-1.382.455-.12-.114-.411,0,0-.6.17-.157.038.007,1.778h.219a1.914,1.914,0,0,0-.353.172V51.825l.069.118a7.91,7.91,0,0,1,5.986.009l.094-.155Zm-3.36-3.514V49.663h.6v1.273c-.089,0-.182,0-.276,0s-.214,0-.32.006m3.36.579c-.089-.045-.183-.089-.3-.133h.105V49.721l-.734-.16-.093.415h0l.405.088v1.209a7.555,7.555,0,0,0-1.719-.313V49.238H74.355V50.96a8.188,8.188,0,0,0-1.774.3l-.009-1.235.414-.134-.13-.4-.564.176-.145.048.007,1.689h.025a1.977,1.977,0,0,0-.187.1V49.618l.082.125a6.459,6.459,0,0,1,3-.563,6.378,6.378,0,0,1,2.97.563l.094-.134Zm-3.36-2.758V47.616h.6V48.76c-.1,0-.2,0-.3,0s-.2,0-.3,0m3.36.54a2.8,2.8,0,0,0-.349-.147h.159V47.658l-.782-.273-.146.4.5.176v1.1a8.318,8.318,0,0,0-1.808-.287h.089V47.191H74.355v1.582h.062a8.228,8.228,0,0,0-1.852.3l0-1.007.475-.211-.17-.388-.6.26-.13.058,0,1.393h.109a2.122,2.122,0,0,0-.255.129V47.146l.1.113a5.374,5.374,0,0,1,2.991-.664,5.7,5.7,0,0,1,2.906.613l.155-.2Zm0-2.5a3.407,3.407,0,0,0-.369-.188h.211V45.19l0,.006.155-.2Zm0-2.216v.2a6.483,6.483,0,0,0-3.061-.625,6.186,6.186,0,0,0-3.089.659v-.392c.012-.123.273-.37.807-.54a8.426,8.426,0,0,1,4.536,0c.584.186.846.468.819.577Zm.457,4.872-.029.007V44.6L78.6,44.6Zm.191.2h-.02l-.029-.105h.073Zm.025-5.345c-.028,0-.025,0-.025-.028l0-.015c0-.007,0-.176.02-.352a.186.186,0,0,0,0-.045c.025.192.041.411.041.411a.034.034,0,0,1-.036.028m1.722.183a.268.268,0,0,1,.007-.05c.009.119.025.228.029.311l-.052-.017c0-.067.007-.156.016-.244m-1.508.209,2.254.735a.775.775,0,0,0,.4.6v.015l-2.631-.807-.02.079Zm0,.985,2.65.813v.769l-2.65-.75Zm0,1.276,4.346,1.232v.234L79.028,47.23ZM92.781,52.7l-.7-.166h.024L92.1,51.473v-.165l-.56-.147-.105.413h0l.247.061v.807l-.862-.2h.121V50.958l-.58-.146-.1.414.255.063v.88l-.648-.152h.121l0-1.15v-.18l-.58-.13-.1.418h0l.257.061v.911l-.965-.229h.195V50.355l3.871,1.067-.016-.006-.1.415h0l.239.057Zm1.01.237h.129v-1.17l.657.183-.17-.041-.1.415.239.055v.734Zm.2-1.595.048-.125.912.279.025.12Zm1.054,2.334v1.232l-.073-.016V53.77l-.571-.134-.094.42.239.051v.705l-.628-.125V53.406l1.156.271Zm0-1.553v1.11l-.073-.02V52.06l.057.012.068-.258.344-.071-.1-.462-.024-.126-1.346-.405-.182-.058-.1.24-.141.375.368.14-.061.227h-.364v1.192l-.446-.1h.162V51.57l.121.035.114-.411-4.552-1.25-.105.4V50.18h-.425v1.482l-2.307-.541h.118V49.548h-.43v1.5l-3.23-.76h.4V48.856l-.725-.191-.114.411.414.11v1.094l-.94-.222h.182V48.566l-.726-.185L80.9,48.8l.409.1V50l-2.277-.535V47.674l4.718,1.3.239.064,1.71.46.114-.409L84.1,48.623l-.235-.063-.061-.017v-.481l-.012-.067-.016-.138L82.1,47.387V46.232l15.7,4.924.7,1.419-2.975-.81-.1.361Zm3.643.944v1.022l-1.009-.239h.312V52.88Zm-3.238.26h.024V52.194l2.518.685-.471-.105-.089.415.139.028v.61l-1.046-.248h.234v-1l-.486-.1-.089.416.141.03v.616Zm3.238,1.42v.874l-3.137-.616-.077.4V53.77l3.248.767ZM78.149,70.776c-.02.217-1.317.532-3.08.483a5.775,5.775,0,0,1-3.036-.449L72,70.754V65.8a9.356,9.356,0,0,0,3.068.3,8.669,8.669,0,0,0,3.08-.292Zm.239.276v-.006h0Zm2.886-.691-1.346.17V67.956c.012-.577.252-.9.669-.9a.633.633,0,0,1,.677.669Zm2.189-.281-1.111.145V67.816c.025-.634.118-.9.512-.9.457.024.571.182.6.67Zm1.9-.242-1.087.138V67.523c.012-.486.212-.737.544-.741a.5.5,0,0,1,.543.543Zm2.44-.307-1.082.138v-2.3c.012-.482.2-.734.543-.742a.511.511,0,0,1,.539.548Zm1.877-.242-.932.121V67.179c.011-.431.17-.642.462-.644a.438.438,0,0,1,.47.462Zm1.876-.242-.8.1V66.978c.012-.383.154-.555.405-.559a.385.385,0,0,1,.4.278Zm1.508-.192-.684.087V66.786c.02-.335.134-.475.34-.478a.313.313,0,0,1,.344.338Zm2.185-.276-.566.069v-2.1c.02-.3.109-.408.284-.415a.262.262,0,0,1,.283.285Zm1.533-.2-.471.058V66.372c.021-.265.1-.346.24-.352.17.014.214.087.23.237ZM98.18,68.2l-.377.045v-2c.016-.2.073-.269.191-.269.138.007.173.067.186.188ZM84.459,49.663l0,0h0ZM69.916,59.749h0l-.425.05-.186.025V61.7h.425V60.2l.235-.03Zm.9-.141h0l-.413.046-.183.027v1.878h.426l-.009-1.506.232-.028ZM75.068,55c1.776-.01,2.761.2,3.077.574l.316-.28c-.539-.58-1.6-.71-3.393-.721-1.82.026-3.016.24-3.412.8l.357.221c.1-.248,1.3-.615,3.056-.594M89.3,52.757v0h0Zm-2.147-2.441v0h0ZM69.9,56.473l-.421.084-.173.031v1.864h.425V56.94l.248-.046Zm22.642-2.959v0ZM90.256,53v0Zm-9.343.6,0,0h0ZM69.925,66.661l.032-.424-.43-.028-.222-.015v2.238l.611.063.045-.424h0l-.23-.026v-1.4ZM78,64.465V62.51l-1.219,0v.424l.794,0v1.532ZM95.793,58.54l.125.02,0,1.078h.426V58.174l-.5-.055ZM72.125,62.412l0,2.075h.43V62.858l.323.019.017-.424v-.006l-.544-.022Zm5.4-1.057h.426V59.324l-1.228-.059-.021.426h0l.826.036Zm-5.229-1.979-.182.025v1.97h.43v-1.6l.38-.051-.061-.421Zm.653-3.588v0l-.636.092-.183.027v2.145h.43l0-1.776.454-.064Zm5.775-.576L78.5,55.2v.42h.295l.05,0,6.907.953.056-.42-7-.966Zm-4.543,6.135H74.6V59.707h.957v1.639h.426V59.279H74.177Zm22.759.667V60.582l-.519,0L96.406,61l.105,0v1.011Zm-1.142-3.469v0h0Zm2.37,3.569,0-1.18v-.2l-.5-.038-.033.424.105.01v.983ZM77.983,58.049v-2.1l-1.021-.149-.066.42.657.1v1.729Zm-2-.208V55.628H74.177v2.227H74.6v-1.8h.957v1.788Zm21.36,1.907V58.307l-.5-.063-.052.424.121.014v1.067Zm1.019.156V58.486l-.487-.051-.048.424.113.01V59.9ZM75.985,64.7V62.546H74.177v2.173H74.6V62.97h.957V64.7Zm6.93-.245V62.647l-.782-.019,0,.424.361.01v1.4Zm-.786-1.4v0h0Zm-.4,1.427V62.628l-.778-.022-.009.431.361,0v1.445Zm2.8-4.56-.04.424.364.036v1.311h.425v-1.7ZM80.5,64.51V62.623l-.791-.02,0,.432h.364V64.51Zm3.632-.1V62.6l-.771-.017L83.353,63l.357.01v1.4Zm1.146-.04V62.644l-.757-.057-.028.431h0l.364.021v1.33Zm-1.945-7.116,0,0h0Zm1.208-.326-.052.421.364.047v1.336h.425V57.016Zm-.409,4.757V59.915l-.758-.061-.028.427.361.027v1.374ZM80.5,58.237V56.4l-.774-.077-.045.425.389.038v1.453Zm3.989-.887v0Zm-2.761,1.092V56.634l-.746-.1-.057.427h0l.38.046v1.431Zm.373-1.363v-.006h0Zm.81,1.461V56.752l-.75-.1-.061.418.385.055V58.54Zm1.221.1V56.9l-.755-.079-.04.426.368.038v1.356ZM60,62.97l-.255.022-.2.015v1.5h.43V63.4l.061,0Zm.568.016v1.565H61V63.385h.068l-.024-.423-.271.014Zm10.255,3.74.021-.424-.414-.016-.219-.012v2.239l.28.056.325.026.036-.424h0l-.219-.014v-1.44Zm-1.852-.154.021-.426-.41-.025-.223-.014v2.181l.6.071.053-.421-.223-.031V66.56Zm-3.372-3.9v1.789h.425V63.093l.178-.006-.012-.425-.384,0ZM96.936,64.21V62.779l-.519-.014-.011.427.105,0V64.21ZM63.76,62.8l-.207,0V64.48h.425V63.212l.126,0-.016-.425v0Zm4.1,5.412.057-.419,0,0-.211-.022V66.5l.171.014.032-.424-.4-.032-.227-.014v1.911h.214l-.024.207Zm-5.711-1.976.007-.423-.291-.011-.216,0v1.859l.292.02.2.016.029-.423,0-.006-.093-.006V66.232Zm4.4-3.591-.211,0v1.821h.425V63.059l.178,0,0-.421,0-.006Zm-6.518,3.437.007-.424-.263-.006-.223-.006v1.741l.47.033.025-.424v0l-.064-.006v-.91Zm1.021.086.025-.424-.284-.016-.219-.016v1.787l.458.051.048-.425L61,67.112v-.953Zm5.87.275.029-.421-.385-.031-.227-.016v2.068l.575.071.053-.415v0l-.2-.027V66.429Zm-.739-.067.012-.427-.373-.01-.218-.01v2l.559.064.053-.421-.187-.022V66.362Zm-2.087-.048L64.1,65.9l-.328-.006-.218-.006v1.883l.252.071.295.045.062-.42-.183-.026V66.324Zm-2.245-3.415-.2.012v1.629h.426V63.32l.089,0-.021-.42h0Zm6.668-9.337-.155.041v1.506h.426V53.932l.255-.073-.125-.406v0Zm2.261-.608-.414.118-.15.041v1.569h.426l-.009-1.244.26-.069Zm-.9.227-.421.13-.15.051v1.54h.425v-1.23L70,53.594Zm-2.448.668-.154.042v1.447H67.7V54.223l.244-.073-.118-.408v-.006Zm30.229,9.028-.028.427.105.006v.988h.43l0-1.182v-.2ZM65.75,54.354l-.15.047v1.384h.425V54.715l.223-.071-.125-.4v0Zm.734-.245-.15.047v1.425h.425V54.474l.235-.073L66.877,54v0Zm-5.772,1.68-.143.047v1.228H61v-.918l.118-.036-.126-.408h0Zm9.216,6.676v0l-.421.009-.2.01v1.9h.425V62.893l.214-.006Zm-1.369.061-.2.01v1.856h.426V62.941l.207-.007-.021-.424v0Zm-4.852-7.7-.154.045v1.347h.425V55.189l.175-.048-.118-.408h0ZM70.824,62.4l-.413.011-.2.006V64.36h.426l-.009-1.525.216-.011ZM59.974,56.017h0l-.264.078-.157.045v1.2h.43v-.877l.109-.033Zm1.82-.56-.146.048v1.279h.426v-.966l.154-.046-.13-.405h0ZM67.7,64.429V63.007h.187v-.424h-.612v1.846Zm19.469-12.04Zm2.253,8.192v0Zm1.751,1.3V60.252l-.6-.076-.052.424.223.026v1.256ZM90.52,60.6v0h0ZM89.4,54.436l-.1.418.252.056,0,.988h.425l0-1.151V54.57Zm2.821,7.53V60.355l-.592-.071-.052.424.214.026v1.232Zm-4.285-6.353v-1.39l-.689-.124-.077.42.341.057v1.037ZM93.3,62.025V60.441l-.6-.061-.045.424.218.022v1.2ZM80.5,54.563V53.024l-.755-.131-.077.42h0l.405.068v1.182Zm8.8.291h0Zm4,9.7V62.97l-.6-.061-.045.421.218.025v1.2Zm-3.214-2.679V60.236l-.608-.083-.057.424.239.03v1.266Zm1.455-7.036-.105.413h0l.247.067v.9h.43L92.1,55.153v-.162Zm-1.455,4.21V57.412l-.608-.084-.057.424.239.032v1.264Zm5.695,1.421h-.426v1.8a4.086,4.086,0,0,1-.6.047,2.562,2.562,0,0,1-.332-.017.717.717,0,0,1-.239-.067l-.173.4a1.294,1.294,0,0,0,.364.1c.141.014.268.016.38.016a5.447,5.447,0,0,0,.6-.042v1.963a3.027,3.027,0,0,1-.518.041,3.8,3.8,0,0,1-.41-.02.852.852,0,0,1-.336-.118l-.264.332a1.1,1.1,0,0,0,.551.216c.17.016.328.02.458.02a2.66,2.66,0,0,0,.8-.1l-.1-.274h.239Zm-4.844-4.452v-1.28l-.58-.144-.1.41.255.064v.949ZM93.3,59.4V57.814l-.6-.057-.041.424.214.021v1.2Zm-1.09,5.121V62.917l-.592-.076-.057.421.228.028v1.234Zm1-8.186V55.131l-.568-.138-.1.418.239.058v.871Zm-.551,1.845v0h0Zm-.45,1.084V57.657l-.592-.073-.057.424.228.032V59.27Zm-1.038-.105V57.532l-.6-.081-.056.421.227.03v1.261Zm-.655-1.29h0Zm-2.882,4.809a2.308,2.308,0,0,1-.292-.068l-.154.393h-.009a2.193,2.193,0,0,0,.366.092c.02,0,.04.01.068.012v1.455h.426V62.934l-.009-.055-.04-.155-.159-.007c-.012,0-.162-.028-.2-.033m1.082-3.219v0a10.442,10.442,0,0,0-1.126-.182,9.621,9.621,0,0,0-1.087-.1.19.19,0,0,0-.125.043l.125.19v.2a9.17,9.17,0,0,1,1.03.086c.758.1,1.062.178,1.074.178Zm-.677,2.369V60.185l-.009-.048L88,59.981l-.154-.019c-.016,0-.142-.026-.235-.041a1.083,1.083,0,0,1-.268-.057l-.157.4a1.251,1.251,0,0,0,.361.079c.024,0,.04,0,.068.01v1.484Zm.839-1.84h-.43v2.3l-.02-.154a4.643,4.643,0,0,1-.58.036,5.405,5.405,0,0,1-.709-.042,1.2,1.2,0,0,1-.337-.083l-.121.3V59.717h-.425v5.07h.3l-.219.28a1.671,1.671,0,0,0,.755.281,6.722,6.722,0,0,0,.75.041,3.134,3.134,0,0,0,.908-.1l-.107-.295h.232Zm-.43,4.928a3.6,3.6,0,0,1-.6.043c-.2,0-.43-.012-.705-.04a1.332,1.332,0,0,1-.458-.149V62.453a1.55,1.55,0,0,0,.414.1c.291.028.546.047.753.047a4.525,4.525,0,0,0,.6-.038ZM87.188,57.6v0h-.009Zm-.009,2.66h0Zm-5.447,1.332V59.755L80.97,59.7l-.032.429.368.027v1.439ZM80.5,61.458V59.589l-.783-.035-.024.426.377.014v1.463ZM87.188,57.6l.325.04v1.307h.425V57.261l-.7-.088Zm-5.1-6.482v0l0,0Zm-.357,1.048V50.6l-.742-.135-.077.419.393.069v1.2ZM80.5,51.856V50.291l-.742-.17-.1.418.409.094v1.223ZM91.172,64.513V62.884l-.6-.078-.056.425.227.026v1.256Zm-1.751-1.3v0Zm-6.1-11.823Zm-.405.969v-1.5l-.737-.164-.089.418.4.089v1.155Zm0,9.285V59.854l-.762-.074-.045.424.382.04v1.4ZM94.009,60.32c.568.072,1.52.107,1.524.107L95.549,60v0s-.957-.036-1.483-.1ZM90.086,64.5V62.864l-.608-.081-.057.419.239.032V64.5Zm-5.95-11.9v-1.47l-.717-.169-.1.418.389.088v1.133Zm4.657,3.3-2.857-.446-.061.421,2.845.446Zm5.516-.1h0v0Zm-29.123.747-2.46.549.093.416,2.456-.548Zm.214,8.948h-.429v4H65.4Zm0-2.761h-.429v2.212H65.4Zm20.774-7.427V51.631h-.43v1.45l-6.573-1.3-.082.418,6.575,1.3.081-.414v2.225Zm8.135-1.25Zm.762,10.506V63.018l-.6-.058-.045.421.219.025v1.157Zm2.359-11.37,0,0h0Zm-8.893-3.808-.012-.15-2.2-.627-.182.04-.11.024-.214.545.393.162v0l.13-.318,1.82.513.04.145L86.373,49.2l-.116.411,1.13.315-.125-.032-.105.413.357.094v1.056h.425V50.088l.4.112.045-.167.332-.11-.187-.563Zm7.649,3.508v0ZM93.92,60.2h-.425v4.435h.425Zm1.151,1.912V60.558l-.6-.057-.045.43.219.016v1.164Zm-6.432-5.7-2.579-.367L86,56.467l2.582.37Zm-2.857,2.818v5.583h.425V56.6h-.425Zm9.432-1.907-1.4-.222-.068.418,1.4.226Zm-6.055,2.6,4.232.358.036-.425-4.235-.364ZM97.573,55.4h.421v-.976l-.471-.105-.093.415.142.032Zm-.812,1.512V55.9l-.486-.1-.089.415.141.036v.663ZM94.974,56.7V55.514l-.568-.13-.1.416.239.056V56.7Zm-1.422.322,1.735.26.056-.42-1.73-.264Zm4.442.162v-.973l-.471-.108-.093.414.142.032v.634Zm-1.808-.965h0Zm0-1.781Zm.141.7h.434V54.124l-.486-.105-.089.418.141.033Z" transform="translate(7.103 0)" fill="#afaaa7"/>
  </g>
</svg>
