<svg xmlns="http://www.w3.org/2000/svg" xmlns:xlink="http://www.w3.org/1999/xlink" width="103" height="103" viewBox="0 0 103 103">
  <defs>
    <clipPath id="clip-path">
      <circle id="Эллипс_4" data-name="Эллипс 4" cx="51.5" cy="51.5" r="51.5" transform="translate(1325 1159)" fill="#fff" stroke="#707070" stroke-width="1"/>
    </clipPath>
  </defs>
  <g id="Группа_масок_1" data-name="Группа масок 1" transform="translate(-1325 -1159)" clip-path="url(#clip-path)">
    <g id="addpic" transform="translate(1325 1159)">
      <rect id="Прямоугольник_30" data-name="Прямоугольник 30" width="103" height="103" fill="#a1a1a1"/>
      <g id="Сгруппировать_258" data-name="Сгруппировать 258">
        <path id="Контур_734" data-name="Контур 734" d="M47.9,53.3c0-7.9,11.8-8.4,11.8-15.8,0-3.5-2.8-6.5-8.1-6.5A12.173,12.173,0,0,0,41,36.4l-2.2-2.2a15.429,15.429,0,0,1,13-6.3c7.2,0,11.5,4.2,11.5,9.3,0,9.2-12.3,10-12.3,16.4a4.626,4.626,0,0,0,1.8,3.1L50.4,58A6.033,6.033,0,0,1,47.9,53.3Zm.4,13.2A2.669,2.669,0,0,1,51,63.9a2.65,2.65,0,1,1,0,5.3A2.628,2.628,0,0,1,48.3,66.5Z" fill="#fff"/>
      </g>
    </g>
  </g>
</svg>
