<svg xmlns="http://www.w3.org/2000/svg" width="87.5" height="60.7" viewBox="0 0 87.5 60.7">
  <g id="Lijo_logo" transform="translate(-30.5 -45)">
    <g id="Group_126" data-name="Group 126">
      <path id="Path_401" data-name="Path 401" d="M103.5,62.1a14.712,14.712,0,0,1,5.6,1.1,13.1,13.1,0,0,1,4.6,3,13.94,13.94,0,0,1,3.1,4.5,12.885,12.885,0,0,1,1.1,5.5,14.205,14.205,0,0,1-1.1,5.5,15.7,15.7,0,0,1-3.1,4.5,13.1,13.1,0,0,1-4.6,3,15.1,15.1,0,0,1-5.6,1.1,14.712,14.712,0,0,1-5.6-1.1,13.1,13.1,0,0,1-4.6-3,13.94,13.94,0,0,1-3.1-4.5,12.885,12.885,0,0,1-1.1-5.5,14.205,14.205,0,0,1,1.1-5.5,15.7,15.7,0,0,1,3.1-4.5,13.1,13.1,0,0,1,4.6-3,15.1,15.1,0,0,1,5.6-1.1m0,27.8a9.472,9.472,0,0,0,4.4-1,12.053,12.053,0,0,0,3.5-2.9,12.7,12.7,0,0,0,2.3-4.3,15.527,15.527,0,0,0,.9-5.3,15.12,15.12,0,0,0-.9-5.3,14.734,14.734,0,0,0-2.3-4.3,12.053,12.053,0,0,0-3.5-2.9,9.257,9.257,0,0,0-4.4-1.1,9.472,9.472,0,0,0-4.3,1.1,12.053,12.053,0,0,0-3.5,2.9,14.947,14.947,0,0,0-2.4,4.3,16.056,16.056,0,0,0,0,10.6A13.725,13.725,0,0,0,95.7,86a12.053,12.053,0,0,0,3.5,2.9,10.815,10.815,0,0,0,4.3,1" fill="#19233e"/>
      <path id="Path_402" data-name="Path 402" d="M91,56.4a2.9,2.9,0,1,1-2.9-2.9A2.9,2.9,0,0,1,91,56.4" fill="#c26c15"/>
      <path id="Path_403" data-name="Path 403" d="M84.2,62.2H71.9v.6a2.746,2.746,0,0,1,2.8,2.5h0v.1h0v14a18.155,18.155,0,0,1-.9,4.3A8.772,8.772,0,0,1,72,87a7.752,7.752,0,0,1-2.9,2.1,10.842,10.842,0,0,1-4.2.8,8.2,8.2,0,0,1-4.4-1A8.378,8.378,0,0,1,57.8,86a13.591,13.591,0,0,1-1.4-4.3,45.631,45.631,0,0,1-.4-5.4v-11a2.712,2.712,0,0,1,2.8-2.7V62H50.2v.6A2.76,2.76,0,0,1,53,65.2h0V76c.1,2,.3,3.9.5,5.7a10.574,10.574,0,0,0,1.7,4.5,7.941,7.941,0,0,0,3.5,3,14.283,14.283,0,0,0,6,1.1,14.789,14.789,0,0,0,5.9-1.1,10.294,10.294,0,0,0,3.9-2.8v3.8h6.1V90c-1.5,0-2.8-.6-2.8-2.1h0V65.4h0a2.712,2.712,0,0,1,2.8-2.7A2.808,2.808,0,0,1,83.4,65h0V93.7c-.1,1.6-.2,3.1-.3,4.4a9.521,9.521,0,0,1-.9,3.6,5.88,5.88,0,0,1-2,2.4,6.529,6.529,0,0,1-3.7.9v.7a11.594,11.594,0,0,0,4.9-.9,7.471,7.471,0,0,0,3-2.5,10.8,10.8,0,0,0,1.5-3.8,22.883,22.883,0,0,0,.4-4.7V62.2Z" fill="#19233e"/>
      <path id="Path_404" data-name="Path 404" d="M49.3,75a41.132,41.132,0,0,1-.4,7.2l-.6,2.7a9.192,9.192,0,0,1-2.4,4.2,3.373,3.373,0,0,1-2,.9H36.3V48.4h0a2.8,2.8,0,0,1,2.8-2.8h0V45H30.6v.7h-.1a2.843,2.843,0,0,1,2.8,2.7h0v.1h0V87.1h0v.1h0a2.843,2.843,0,0,1-2.8,2.7v.6H50.1V75Z" fill="#19233e"/>
      <path id="Path_405" data-name="Path 405" d="M90.6,93.4h.8L93,97.5h-.8l-.4-1.1H90.2l-.4,1.1H89Zm-.3,2.5h1.2L91,94.2h0Z" fill="#19233e"/>
      <path id="Path_406" data-name="Path 406" d="M93.3,93.4h1.9a1.493,1.493,0,0,1,1,.3,1.136,1.136,0,0,1,.3.8.749.749,0,0,1-.1.5c-.1.1-.1.2-.2.3s-.2.1-.2.2c-.1,0-.1.1-.2.1h0c.1,0,.1,0,.2.1.1,0,.1.1.2.1.1.1.1.2.2.3,0,.1.1.2.1.4a1.7,1.7,0,0,0,.1.7.52.52,0,0,0,.2.4H96a.367.367,0,0,1-.1-.3v-.8a1.007,1.007,0,0,0-.1-.3c-.1-.1-.1-.2-.2-.2s-.2-.1-.4-.1h-1v1.7h-.7V93.4Zm.7,1.9h1.2a.684.684,0,0,0,.7-.7.367.367,0,0,0-.1-.3c0-.1-.1-.1-.2-.2-.1,0-.1-.1-.2-.1H94Z" fill="#19233e"/>
      <path id="Path_407" data-name="Path 407" d="M96.8,93.4h3.3v.7H98.8v3.5h-.7V94.1H96.8Z" fill="#19233e"/>
      <path id="Path_408" data-name="Path 408" d="M104.3,97.1a1.756,1.756,0,0,1-.5.4,1.268,1.268,0,0,1-.6.1.749.749,0,0,1-.5-.1c-.2-.1-.3-.1-.4-.2a1.381,1.381,0,0,1-.3-.4.9.9,0,0,1-.1-.5.6.6,0,0,1,.1-.4c.1-.1.1-.2.2-.3l.3-.3c.1-.1.2-.1.3-.2l-.2-.2c0-.1-.1-.1-.1-.2a.349.349,0,0,0-.1-.2v-.3c0-.2,0-.3.1-.4s.1-.2.2-.3.2-.2.3-.2.2-.1.4-.1a.6.6,0,0,1,.4.1c.1,0,.2.1.3.2s.2.2.2.3a.6.6,0,0,1,.1.4.367.367,0,0,1-.1.3c0,.1-.1.2-.2.3s-.1.2-.2.2c-.1.1-.2.1-.3.2l.6.8c0-.1,0-.1.1-.2a.367.367,0,0,1,.1-.3h.6a4.331,4.331,0,0,1-.1.5c-.1.2-.1.3-.2.5l.8,1h-.8Zm-1.2-1.4c-.1,0-.1.1-.2.1s-.1.1-.2.1l-.2.2c0,.1-.1.2-.1.3a.684.684,0,0,0,.7.7h.3a.349.349,0,0,0,.2-.1c.1,0,.1-.1.1-.2a.1.1,0,0,1,.1-.1Zm.3-1.9a.354.354,0,0,0-.4.4v.2c0,.1.1.1.1.2s.1.1.1.2.1.1.1.2c.1,0,.1-.1.2-.1s.1-.1.2-.1c0-.1.1-.1.1-.2v-.2a.367.367,0,0,0-.1-.3q-.15-.3-.3-.3" fill="#19233e"/>
      <path id="Path_409" data-name="Path 409" d="M109.6,96.3v.5c0,.2-.1.3-.2.5a1.381,1.381,0,0,1-.4.3,1.483,1.483,0,0,1-.7.1.749.749,0,0,1-.5-.1,1.38,1.38,0,0,1-.4-.3.758.758,0,0,1-.2-.4c0-.2-.1-.3-.1-.5v-.2h.7v.2a.749.749,0,0,0,.1.5.52.52,0,0,0,.4.2.367.367,0,0,0,.3-.1c.1,0,.1-.1.2-.2,0-.1.1-.2.1-.3V93.4h.7Z" fill="#19233e"/>
      <path id="Path_410" data-name="Path 410" d="M112.1,93.4a1.884,1.884,0,0,1,.8.2,2.651,2.651,0,0,1,.6.5,1.612,1.612,0,0,1,.4.7,2.2,2.2,0,0,1,.1.8,1.95,1.95,0,0,1-.1.8,1.612,1.612,0,0,1-.4.7,2.651,2.651,0,0,1-.6.5,1.7,1.7,0,0,1-1.6,0,2.651,2.651,0,0,1-.6-.5,1.612,1.612,0,0,1-.4-.7,2.2,2.2,0,0,1-.1-.8,1.95,1.95,0,0,1,.1-.8,1.612,1.612,0,0,1,.4-.7,2.651,2.651,0,0,1,.6-.5,1.2,1.2,0,0,1,.8-.2m0,.5a1.268,1.268,0,0,0-.6.1.781.781,0,0,0-.4.4.764.764,0,0,0-.2.5c0,.2-.1.4-.1.6a1.268,1.268,0,0,0,.1.6.764.764,0,0,0,.2.5c.1.1.2.3.4.4a1.083,1.083,0,0,0,.6.1,1.268,1.268,0,0,0,.6-.1.781.781,0,0,0,.4-.4.764.764,0,0,0,.2-.5c0-.2.1-.4.1-.6a1.268,1.268,0,0,0-.1-.6.764.764,0,0,0-.2-.5c-.1-.1-.2-.3-.4-.4-.2,0-.3-.1-.6-.1" fill="#19233e"/>
      <path id="Path_411" data-name="Path 411" d="M115.8,96l-1.5-2.6h.8l1.1,1.9,1-1.9h.8L116.5,96v1.6h-.7Z" fill="#19233e"/>
    </g>
  </g>
</svg>
