<svg xmlns="http://www.w3.org/2000/svg" width="177" height="23.247" viewBox="0 0 177 23.247">
  <g id="Marriott_Int_logo" transform="translate(-4.9 -67.2)">
    <g id="Group_55" data-name="Group 55" transform="translate(21.198 81.982)">
      <g id="Group_54" data-name="Group 54">
        <path id="Path_157" data-name="Path 157" d="M17.8,79h2.021v6.7h3.916v1.516H17.8Z" transform="translate(-17.8 -78.874)" fill="#1d1d1b"/>
        <path id="Path_158" data-name="Path 158" d="M25.7,83.954V78.9h2.021v5.054c0,1.137.505,1.9,1.642,1.9s1.642-.632,1.642-1.9V78.9h1.9v5.054c0,2.021-1.137,3.285-3.664,3.285C26.837,87.238,25.7,85.975,25.7,83.954Z" transform="translate(-15.719 -78.9)" fill="#1d1d1b"/>
        <path id="Path_159" data-name="Path 159" d="M37.906,82.79,35.253,79h2.274l1.642,2.4L40.685,79h2.021L40.18,82.916l2.906,4.3H40.938l-1.9-2.906-1.9,2.906H35Z" transform="translate(-13.27 -78.874)" fill="#1d1d1b"/>
        <path id="Path_160" data-name="Path 160" d="M45,83.954V78.9h2.021v5.054c0,1.137.505,1.9,1.642,1.9s1.642-.632,1.642-1.9V78.9h1.9v5.054c0,2.021-1.137,3.285-3.664,3.285C46.137,87.238,45,85.975,45,83.954Z" transform="translate(-10.636 -78.9)" fill="#1d1d1b"/>
        <path id="Path_161" data-name="Path 161" d="M54.9,79h3.411c2.148,0,3.537.758,3.537,2.527a2.109,2.109,0,0,1-1.9,2.274l2.021,3.285H59.827l-1.9-3.032H56.8v3.032H54.9Zm3.285,3.664c1.137,0,1.642-.253,1.642-1.137,0-.758-.505-1.137-1.642-1.137H56.8v2.274Z" transform="translate(-8.028 -78.874)" fill="#1d1d1b"/>
        <path id="Path_162" data-name="Path 162" d="M66.532,83.675,63.5,79h2.021l2.021,3.158L69.564,79h2.021l-3.158,4.675v3.411H66.406V83.675Z" transform="translate(-5.763 -78.874)" fill="#1d1d1b"/>
        <path id="Path_163" data-name="Path 163" d="M78.053,79H81.59c1.642,0,3.158.379,3.158,2.021a1.836,1.836,0,0,1-1.769,1.9h0a1.827,1.827,0,0,1,1.9,2.021c0,1.642-1.642,2.274-3.285,2.274H77.8V79Zm3.285,3.285c1.011,0,1.516-.379,1.516-1.011s-.379-1.011-1.516-1.011H79.821v2.021h1.516Zm.126,3.411c1.137,0,1.516-.379,1.516-1.137s-.632-1.011-1.642-1.011H79.821V85.7h1.642Z" transform="translate(-1.997 -78.874)" fill="#1d1d1b"/>
        <path id="Path_164" data-name="Path 164" d="M87.6,79h3.411c2.148,0,3.537.758,3.537,2.527a2.109,2.109,0,0,1-1.9,2.274l2.021,3.285H92.527l-1.9-3.032H89.5v3.032H87.6Zm3.285,3.664c1.137,0,1.642-.253,1.642-1.137,0-.758-.505-1.137-1.642-1.137H89.5v2.274Z" transform="translate(0.584 -78.874)" fill="#1d1d1b"/>
        <path id="Path_165" data-name="Path 165" d="M99.632,78.9h1.9l3.158,8.212h-2.021l-.632-1.769H99l-.632,1.769H96.6Zm1.9,5.054-1.011-2.779h0l-1.011,2.779Z" transform="translate(2.955 -78.9)" fill="#1d1d1b"/>
        <path id="Path_166" data-name="Path 166" d="M106.7,79h2.021l3.79,5.18h0V79h1.769v8.212h-1.769L108.6,81.906h0v5.306h-1.769V79Z" transform="translate(5.615 -78.874)" fill="#1d1d1b"/>
        <path id="Path_167" data-name="Path 167" d="M116.9,79h2.779c2.779,0,4.8,1.011,4.8,4.043s-2.148,4.169-4.8,4.169H116.9Zm2.906,6.7c1.9,0,2.653-.758,2.653-2.653,0-1.769-.758-2.527-2.653-2.527h-.884V85.7Z" transform="translate(8.301 -78.874)" fill="#1d1d1b"/>
        <path id="Path_168" data-name="Path 168" d="M126.3,85.217l1.516-.758a2.709,2.709,0,0,0,2.4,1.39c.884,0,1.516-.253,1.516-.884s-.632-.884-1.769-1.137c-1.642-.379-3.285-.758-3.285-2.527,0-1.516,1.263-2.4,3.285-2.4a3.977,3.977,0,0,1,3.537,1.642l-1.39,1.011a3.035,3.035,0,0,0-2.148-1.137c-.884,0-1.263.379-1.263.758,0,.632.632.884,1.9,1.137,1.516.379,3.285.884,3.285,2.527,0,1.263-1.137,2.527-3.537,2.527C128.2,87.238,127.058,86.48,126.3,85.217Z" transform="translate(10.777 -78.9)" fill="#1d1d1b"/>
      </g>
    </g>
    <g id="Group_57" data-name="Group 57" transform="translate(4.9 67.2)">
      <g id="Group_56" data-name="Group 56">
        <path id="Path_169" data-name="Path 169" d="M4.9,73.364V67.3H5.911l2.148,5.18h0L10.08,67.3h1.011v6.064h-.632V68.437h0l-.379,1.137-1.642,3.79H7.679l-1.642-3.79a11.926,11.926,0,0,1-.379-1.137h0v4.927Z" transform="translate(-4.9 -67.174)" fill="#1d1d1b"/>
        <path id="Path_170" data-name="Path 170" d="M12.8,73.364,15.2,67.3h.884l2.4,6.064h-.758L17.1,71.6H14.316l-.632,1.769Zm1.769-2.4h2.148l-1.137-2.779h0Z" transform="translate(-2.819 -67.174)" fill="#1d1d1b"/>
        <path id="Path_171" data-name="Path 171" d="M20.2,73.364V67.3h2.274c1.516,0,2.4.632,2.4,1.642a1.567,1.567,0,0,1-1.516,1.642L25,73.238h-.884l-1.642-2.527H20.958v2.653Zm.758-3.285h1.516c1.011,0,1.642-.253,1.642-1.137,0-.758-.632-1.011-1.642-1.011h-1.39v2.148Z" transform="translate(-0.87 -67.174)" fill="#1d1d1b"/>
        <path id="Path_172" data-name="Path 172" d="M27,73.364V67.3h2.274c1.516,0,2.4.632,2.4,1.642a1.567,1.567,0,0,1-1.516,1.642L31.8,73.238h-.884L29.4,70.711H27.884v2.653Zm.884-3.285H29.4c1.011,0,1.642-.253,1.642-1.137,0-.758-.632-1.011-1.642-1.011h-1.39v2.148Z" transform="translate(0.921 -67.174)" fill="#1d1d1b"/>
        <path id="Path_173" data-name="Path 173" d="M34,73.364V67.3h.758v5.938H34Z" transform="translate(2.764 -67.174)" fill="#1d1d1b"/>
        <path id="Path_174" data-name="Path 174" d="M37.8,70.358A2.927,2.927,0,0,1,40.706,67.2,3.169,3.169,0,1,1,37.8,70.358Zm4.927,0c0-1.516-.884-2.527-2.021-2.527-1.263,0-2.021.884-2.021,2.527s.884,2.527,2.021,2.527S42.727,72,42.727,70.358Z" transform="translate(3.765 -67.2)" fill="#1d1d1b"/>
        <path id="Path_175" data-name="Path 175" d="M46.848,73.364V67.932H44.7V67.3h5.054v.632H47.606v5.433Z" transform="translate(5.583 -67.174)" fill="#1d1d1b"/>
        <path id="Path_176" data-name="Path 176" d="M53.348,73.364V67.932H51.2V67.3h5.054v.632H54.106v5.433Z" transform="translate(7.295 -67.174)" fill="#1d1d1b"/>
        <path id="Path_177" data-name="Path 177" d="M64.6,73.364V67.3h.884v6.064H64.6Z" transform="translate(10.824 -67.174)" fill="#1d1d1b"/>
        <path id="Path_178" data-name="Path 178" d="M68.7,73.364V67.3h.884l3.537,4.8h0V67.3h.758v6.064h-.758l-3.664-4.927h0v4.927Z" transform="translate(11.904 -67.174)" fill="#1d1d1b"/>
        <path id="Path_179" data-name="Path 179" d="M77.848,73.364V67.932H75.7V67.3h5.054v.632H78.606v5.433Z" transform="translate(13.748 -67.174)" fill="#1d1d1b"/>
        <path id="Path_180" data-name="Path 180" d="M82.6,73.364V67.3h4.043v.632H83.358v1.9h2.4v.632h-2.4v2.148H86.9v.632H82.6Z" transform="translate(15.565 -67.174)" fill="#1d1d1b"/>
        <path id="Path_181" data-name="Path 181" d="M89,73.364V67.3h2.274c1.516,0,2.4.632,2.4,1.642a1.567,1.567,0,0,1-1.516,1.642L93.8,73.238h-.884l-1.642-2.527H89.758v2.653Zm.758-3.285h1.516c1.011,0,1.642-.253,1.642-1.137,0-.758-.632-1.011-1.642-1.011h-1.39v2.148Z" transform="translate(17.251 -67.174)" fill="#1d1d1b"/>
        <path id="Path_182" data-name="Path 182" d="M95.9,73.364V67.3h.884l3.537,4.8h0V67.3h.758v6.064h-.758l-3.664-4.927h0v4.927Z" transform="translate(19.068 -67.174)" fill="#1d1d1b"/>
        <path id="Path_183" data-name="Path 183" d="M102.9,73.364l2.4-6.064h.884l2.4,6.064h-.758L107.2,71.6H104.29l-.632,1.769Zm1.642-2.4h2.148l-1.011-2.779h0Z" transform="translate(20.912 -67.174)" fill="#1d1d1b"/>
        <path id="Path_184" data-name="Path 184" d="M111.248,73.364V67.932H109.1V67.3h5.054v.632h-2.148v5.433Z" transform="translate(22.545 -67.174)" fill="#1d1d1b"/>
        <path id="Path_185" data-name="Path 185" d="M116.1,73.364V67.3h.758v6.064H116.1Z" transform="translate(24.388 -67.174)" fill="#1d1d1b"/>
        <path id="Path_186" data-name="Path 186" d="M119.9,70.358a2.927,2.927,0,0,1,2.906-3.158,3.169,3.169,0,1,1-2.906,3.158Zm4.927,0c0-1.516-.884-2.527-2.021-2.527-1.263,0-2.021.884-2.021,2.527s.884,2.527,2.021,2.527C124.069,72.885,124.827,72,124.827,70.358Z" transform="translate(25.389 -67.2)" fill="#1d1d1b"/>
        <path id="Path_187" data-name="Path 187" d="M127.6,73.364V67.3h.884l3.537,4.8h0V67.3h.758v6.064h-.758l-3.664-4.927h0v4.927Z" transform="translate(27.417 -67.174)" fill="#1d1d1b"/>
        <path id="Path_188" data-name="Path 188" d="M134.6,73.364,137,67.3h.884l2.4,6.064h-.758L138.9,71.6h-2.653l-.632,1.769Zm1.642-2.4h2.148l-1.011-2.779h0Z" transform="translate(29.261 -67.174)" fill="#1d1d1b"/>
        <path id="Path_189" data-name="Path 189" d="M141.9,73.364V67.3h.758v5.433h3.158v.632Z" transform="translate(31.184 -67.174)" fill="#1d1d1b"/>
      </g>
    </g>
  </g>
</svg>
