<svg xmlns="http://www.w3.org/2000/svg" width="103" height="79.502" viewBox="0 0 103 79.502">
  <g id="MO_logo" transform="translate(-23.225 -36.9)">
    <g id="Group_58" data-name="Group 58" transform="translate(70.544 72.631)">
      <path id="Path_217" data-name="Path 217" d="M73.58,72.9H70.9l1.191,10.719h.5L73.58,72.9Z" transform="translate(-70.9 -72.9)" fill="#b89300"/>
    </g>
    <g id="Group_59" data-name="Group 59" transform="translate(66.673 36.9)">
      <path id="Path_218" data-name="Path 218" d="M73.65,71.738c-.5,0-.893-.1-1.39-.1a7.512,7.512,0,0,0-1.489.1L67,36.9l9.925,1.29L73.65,71.738Z" transform="translate(-67 -36.9)" fill="#b89300"/>
    </g>
    <g id="Group_60" data-name="Group 60" transform="translate(73.025 72.83)">
      <path id="Path_219" data-name="Path 219" d="M77.172,73.6c-.4-.1-.794-.2-1.29-.3a6.7,6.7,0,0,0-1.39-.2L73.4,83.919l.5.1L77.172,73.6Z" transform="translate(-73.4 -73.1)" fill="#b89300"/>
    </g>
    <g id="Group_61" data-name="Group 61" transform="translate(74.216 36.999)">
      <path id="Path_220" data-name="Path 220" d="M77.478,72.433c-.4-.1-.893-.2-1.39-.3l-1.489-.3L78.272,37,87.7,40.375,77.478,72.433Z" transform="translate(-74.6 -37)" fill="#b89300"/>
    </g>
    <g id="Group_62" data-name="Group 62" transform="translate(119.277 112.829)">
      <path id="Path_221" data-name="Path 221" d="M121.985,114.492a.756.756,0,0,0-.794-.695c-.4,0-.695.1-.695.6,0,.4.5.5,1.092.6.5.1,1.092.3,1.092.993s-.695.993-1.29.993a1.256,1.256,0,0,1-1.39-1.191h.4c0,.6.5.794.993.794.4,0,.794-.1.794-.6s-.5-.5-1.092-.695c-.5-.1-1.092-.3-1.092-.893,0-.695.6-.993,1.191-.993.695,0,1.191.3,1.191,1.092h-.4Z" transform="translate(-120 -113.4)" fill="#b89300"/>
    </g>
    <g id="Group_63" data-name="Group 63" transform="translate(122.95 112.928)">
      <path id="Path_222" data-name="Path 222" d="M123.7,113.5h.6l.993,2.779,1.092-2.779h.6v3.375h-.4V114.1h0l-1.092,2.779h-.3L124.1,114.1h0v2.779h-.4Z" transform="translate(-123.7 -113.5)" fill="#b89300"/>
    </g>
    <g id="Group_64" data-name="Group 64" transform="translate(23.299 90.794)">
      <path id="Path_223" data-name="Path 223" d="M119.079,102.912H23.3v-.4h95.779v.4ZM23.3,91.6v-.4h95.779v.4Z" transform="translate(-23.3 -91.2)" fill="#b89300"/>
    </g>
    <g id="Group_65" data-name="Group 65" transform="translate(67.07 72.73)">
      <path id="Path_224" data-name="Path 224" d="M69.981,73c-.4.1-.893.1-1.29.2-.5.1-.893.2-1.29.3l3.275,10.422.5-.1L69.981,73Z" transform="translate(-67.4 -73)" fill="#b89300"/>
    </g>
    <g id="Group_66" data-name="Group 66" transform="translate(55.755 38.389)">
      <path id="Path_225" data-name="Path 225" d="M69.8,71.848c-.5.1-.893.1-1.39.2a5.689,5.689,0,0,0-1.39.4L56,39.194l9.925-.794L69.8,71.848Z" transform="translate(-56 -38.4)" fill="#b89300"/>
    </g>
    <g id="Group_67" data-name="Group 67" transform="translate(63.695 73.624)">
      <path id="Path_226" data-name="Path 226" d="M66.382,73.9a6.071,6.071,0,0,0-1.191.5l-1.191.6,5.459,9.33.4-.2L66.382,73.9Z" transform="translate(-64 -73.9)" fill="#b89300"/>
    </g>
    <g id="Group_68" data-name="Group 68" transform="translate(45.532 40.771)">
      <path id="Path_227" data-name="Path 227" d="M65.948,72.76c-.4.2-.893.3-1.29.5a5.348,5.348,0,0,0-1.29.695L45.7,43.678,55.228,40.8,65.948,72.76Z" transform="translate(-45.7 -40.8)" fill="#b89300"/>
    </g>
    <g id="Group_69" data-name="Group 69" transform="translate(60.619 75.212)">
      <path id="Path_228" data-name="Path 228" d="M63.084,75.5c-.4.2-.695.5-1.092.695-.4.3-.695.6-1.092.893l7.245,8.04.4-.3L63.084,75.5Z" transform="translate(-60.9 -75.5)" fill="#b89300"/>
    </g>
    <g id="Group_70" data-name="Group 70" transform="translate(36.401 45.436)">
      <path id="Path_229" data-name="Path 229" d="M62.5,74.482a8.278,8.278,0,0,0-1.191.794l-1.191.893L36.5,50.264,45.234,45.5,62.5,74.482Z" transform="translate(-36.5 -45.5)" fill="#b89300"/>
    </g>
    <g id="Group_71" data-name="Group 71" transform="translate(58.137 77.395)">
      <path id="Path_230" data-name="Path 230" d="M60.187,77.7a8.95,8.95,0,0,0-.893.993,10.548,10.548,0,0,0-.893,1.092l8.834,6.253.3-.3L60.187,77.7Z" transform="translate(-58.4 -77.7)" fill="#b89300"/>
    </g>
    <g id="Group_72" data-name="Group 72" transform="translate(28.957 52.086)">
      <path id="Path_231" data-name="Path 231" d="M59.371,76.914l-.993.993A10.547,10.547,0,0,1,57.486,79L29,58.651,36.543,52.2,59.371,76.914Z" transform="translate(-29 -52.2)" fill="#b89300"/>
    </g>
    <g id="Group_73" data-name="Group 73" transform="translate(56.351 80.174)">
      <path id="Path_232" data-name="Path 232" d="M57.89,80.5c-.2.4-.5.695-.695,1.092l-.6,1.191,9.925,4.367.2-.4L57.89,80.5Z" transform="translate(-56.6 -80.5)" fill="#b89300"/>
    </g>
    <g id="Group_74" data-name="Group 74" transform="translate(23.299 60.224)">
      <path id="Path_233" data-name="Path 233" d="M56.848,79.854a7.4,7.4,0,0,0-.695,1.191c-.2.4-.5.893-.695,1.29L23.3,68.34l6.054-7.94L56.848,79.854Z" transform="translate(-23.3 -60.4)" fill="#b89300"/>
    </g>
    <g id="Group_75" data-name="Group 75" transform="translate(74.316 73.624)">
      <path id="Path_234" data-name="Path 234" d="M80.556,74.992l-1.191-.6a4.986,4.986,0,0,0-1.29-.5L74.7,84.222l.4.2,5.459-9.429Z" transform="translate(-74.7 -73.9)" fill="#b89300"/>
    </g>
    <g id="Group_76" data-name="Group 76" transform="translate(77.889 39.481)">
      <path id="Path_235" data-name="Path 235" d="M80.98,73.941c-.4-.2-.794-.4-1.29-.6a7.779,7.779,0,0,0-1.39-.5L89.119,39.5l8.437,5.26L80.98,73.941Z" transform="translate(-78.3 -39.5)" fill="#b89300"/>
    </g>
    <g id="Group_77" data-name="Group 77" transform="translate(75.606 75.112)">
      <path id="Path_236" data-name="Path 236" d="M83.543,76.988a6.954,6.954,0,0,0-.993-.794,10.4,10.4,0,0,1-1.092-.794L76,84.829l.4.3,7.146-8.139Z" transform="translate(-76 -75.4)" fill="#b89300"/>
    </g>
    <g id="Group_78" data-name="Group 78" transform="translate(81.462 44.046)">
      <path id="Path_237" data-name="Path 237" d="M84.183,76.159c-.4-.3-.695-.6-1.092-.893a8.279,8.279,0,0,0-1.191-.794L99.468,44.1l7.245,6.948L84.183,76.159Z" transform="translate(-81.9 -44.1)" fill="#b89300"/>
    </g>
    <g id="Group_79" data-name="Group 79" transform="translate(76.598 77.395)">
      <path id="Path_238" data-name="Path 238" d="M86.032,79.685c-.3-.3-.5-.695-.794-.993a4.706,4.706,0,0,0-.993-.993L77,85.74l.3.3,8.734-6.352Z" transform="translate(-77 -77.7)" fill="#b89300"/>
    </g>
    <g id="Group_80" data-name="Group 80" transform="translate(84.439 50.597)">
      <path id="Path_239" data-name="Path 239" d="M86.786,78.888c-.3-.4-.6-.695-.893-1.092S85.2,77.1,84.9,76.7l23.523-26,5.558,8.238-27.2,19.95Z" transform="translate(-84.9 -50.7)" fill="#b89300"/>
    </g>
    <g id="Group_81" data-name="Group 81" transform="translate(77.392 80.075)">
      <path id="Path_240" data-name="Path 240" d="M87.924,82.782l-.6-1.191c-.2-.4-.5-.794-.695-1.191L77.8,86.752l.2.4,9.925-4.367Z" transform="translate(-77.8 -80.4)" fill="#b89300"/>
    </g>
    <g id="Group_82" data-name="Group 82" transform="translate(86.921 59.133)">
      <path id="Path_241" data-name="Path 241" d="M88.79,82.227l-.6-1.191a4.987,4.987,0,0,0-.794-1.191L115.886,59.3l3.772,9.231L88.79,82.227Z" transform="translate(-87.4 -59.3)" fill="#b89300"/>
    </g>
    <g id="Group_83" data-name="Group 83" transform="translate(88.732 106.377)">
      <path id="Path_242" data-name="Path 242" d="M89.994,108.19c0-.794,0-.893-.4-.993h-.2c-.1-.1-.1-.2,0-.2a9.082,9.082,0,0,1,1.687-.1,2.629,2.629,0,0,1,1.39.3c.4.2.6.6.6,1.29a1.49,1.49,0,0,1-.893,1.39v.1a10.065,10.065,0,0,0,1.29,2.184c.2.2.3.2.4.2v.2h-1.29a11.626,11.626,0,0,1-.6-1.092l-.6-1.191c-.1-.3-.2-.3-.5-.3-.2,0-.2,0-.2.2v1.092c0,.893.1.893.4.993h.2c.1.1,0,.2,0,.3H89.3c-.1,0-.1-.2,0-.3h.2c.4-.1.4-.1.4-.993V108.19Zm.794,1.191c0,.3,0,.3.4.3.695,0,1.092-.4,1.092-1.191,0-.695-.4-1.29-.993-1.29-.4,0-.4,0-.4.4v1.787Z" transform="translate(-89.225 -106.9)" fill="#b89300"/>
    </g>
    <g id="Group_84" data-name="Group 84" transform="translate(32.034 106.079)">
      <path id="Path_243" data-name="Path 243" d="M33.986,107.593c0-.4,0-.4-.2-.4h-.4c-.695,0-.893.1-1.092.794-.1.1-.2,0-.2-.1a12.947,12.947,0,0,1,.3-1.29h.2c0,.2.1.2.6.2h2.978c.4,0,.5,0,.6-.2h.2a7.031,7.031,0,0,0-.1,1.39c0,.1-.2.1-.2,0-.1-.695-.2-.794-.993-.794h-.695c-.2,0-.2,0-.2.4v3.672c0,.893.1.893.4.993h.3c.1.1,0,.2,0,.3H33.291c-.1,0-.1-.2,0-.3h.3c.3,0,.4-.1.4-.993v-3.672Z" transform="translate(-32.1 -106.6)" fill="#b89300"/>
    </g>
    <g id="Group_85" data-name="Group 85" transform="translate(37.647 106.377)">
      <path id="Path_244" data-name="Path 244" d="M39.586,109.778c-.4,0-.4,0-.4.3v1.29c0,.893.1.893.4.993h.2c.1.1,0,.2,0,.3H37.9c-.1,0-.1-.2,0-.3H38c.3-.1.4-.1.4-.993V108.19c0-.893-.1-.893-.4-.993h-.2c-.1,0,0-.2,0-.3h1.886c.1,0,.1.2,0,.3h-.1c-.3,0-.4.1-.4.993v.993c0,.2,0,.3.4.3h1.687c.4,0,.4,0,.4-.3v-.993c0-.893-.1-.893-.4-.993h-.2c-.1,0,0-.2,0-.3h1.886c.1,0,.1.2,0,.3h-.1c-.3,0-.4.1-.4.993v3.176c0,.893.1.893.4.993h.2v.3H41.075c-.1,0-.1-.2,0-.3h.2c.3,0,.4-.1.4-.993v-1.29c0-.2,0-.3-.4-.3Z" transform="translate(-37.756 -106.9)" fill="#b89300"/>
    </g>
    <g id="Group_86" data-name="Group 86" transform="translate(44.068 106.278)">
      <path id="Path_245" data-name="Path 245" d="M44.994,108.09c0-.893-.1-.893-.4-.993h-.1v-.3h3.375c0,.1.1.794.1,1.191,0,.1-.2.1-.2,0-.1-.5-.2-.695-.5-.794a1.259,1.259,0,0,0-.6-.1h-.5c-.3,0-.3,0-.3.5v1.489c0,.2,0,.2.2.2h.4c.6,0,.794,0,.794-.4l.1-.3c.1-.1.2-.1.2,0v1.787c0,.1-.2.1-.2,0l-.1-.3c-.1-.4-.2-.4-.794-.4h-.5c-.2,0-.2,0-.2.2v1.092a1.959,1.959,0,0,0,.1.893c.1.1.2.2.794.2.893,0,1.092-.2,1.39-.893a.137.137,0,0,1,.2,0,4.924,4.924,0,0,1-.3,1.29H44.3c-.1,0-.1-.2,0-.3h.3c.3,0,.4-.1.4-.993V108.09Z" transform="translate(-44.225 -106.8)" fill="#b89300"/>
    </g>
    <g id="Group_87" data-name="Group 87" transform="translate(51.939 106.377)">
      <path id="Path_246" data-name="Path 246" d="M53.986,109.778c-.4,0-.4,0-.4.3v1.29c0,.893.1.893.4.993h.2v.3H52.3c-.1,0-.1-.2,0-.3h.1c.3-.1.4-.1.4-.993V108.19c0-.893-.1-.893-.4-.993h-.2c-.1,0,0-.2,0-.3h1.886c.1,0,.1.2,0,.3h-.1c-.3,0-.4.1-.4.993v.993c0,.2,0,.3.4.3h1.687c.4,0,.4,0,.4-.3v-.993c0-.893-.1-.893-.4-.993h-.2v-.3H57.46c.1,0,.1.2,0,.3h-.1c-.3,0-.4.1-.4.993v3.176c0,.893.1.893.4.993h.2c.1.1,0,.2,0,.3H55.574c-.1,0-.1-.2,0-.3h.2c.3,0,.4-.1.4-.993v-1.29c0-.2,0-.3-.4-.3Z" transform="translate(-52.156 -106.9)" fill="#b89300"/>
    </g>
    <g id="Group_88" data-name="Group 88" transform="translate(58.634 106.179)">
      <path id="Path_247" data-name="Path 247" d="M64.061,109.678a2.733,2.733,0,0,1-2.581,2.978,2.636,2.636,0,0,1-2.581-2.878c0-1.787,1.092-3.077,2.581-3.077a2.722,2.722,0,0,1,2.581,2.978Zm-4.169-.2c0,1.191.4,2.779,1.687,2.779.794,0,1.489-.695,1.489-2.481,0-1.29-.5-2.779-1.687-2.779-.695.1-1.489.695-1.489,2.481Z" transform="translate(-58.9 -106.7)" fill="#b89300"/>
    </g>
    <g id="Group_89" data-name="Group 89" transform="translate(64.589 106.079)">
      <path id="Path_248" data-name="Path 248" d="M66.885,107.593c0-.4,0-.4-.2-.4h-.4c-.695,0-.893.1-1.191.794-.1.1-.2,0-.2-.1a12.945,12.945,0,0,1,.3-1.29h.2c0,.2.1.2.6.2h2.978c.4,0,.5,0,.6-.2h.2a7.031,7.031,0,0,0-.1,1.39c0,.1-.2.1-.2,0-.1-.695-.2-.794-.993-.794h-.5c-.2,0-.2,0-.2.4v3.672c0,.893.1.893.4.993h.3c.1.1,0,.2,0,.3H66.29c-.1,0-.1-.2,0-.3h.3c.3,0,.4-.1.4-.993v-3.672Z" transform="translate(-64.9 -106.6)" fill="#b89300"/>
    </g>
    <g id="Group_90" data-name="Group 90" transform="translate(70.668 106.278)">
      <path id="Path_249" data-name="Path 249" d="M71.695,108.09c0-.893-.1-.893-.4-.993h-.1c-.1-.1,0-.2,0-.3h3.375c0,.1.1.794.1,1.191,0,.1-.2.1-.2,0-.1-.5-.2-.695-.5-.794a1.259,1.259,0,0,0-.6-.1h-.5c-.3,0-.3,0-.3.5v1.489c0,.2,0,.2.2.2h.4c.6,0,.794,0,.794-.4v-.3c.1-.1.2-.1.2,0v1.787c0,.1-.2.1-.2,0v-.3c-.1-.4-.2-.4-.794-.4h-.4c-.2,0-.2,0-.2.2v1.092a1.959,1.959,0,0,0,.1.893c.1.1.2.2.794.2.893,0,1.092-.2,1.39-.893a.137.137,0,0,1,.2,0,4.924,4.924,0,0,1-.3,1.29H71.1c-.1,0-.1-.2,0-.3h.3c.3,0,.4-.1.4-.993V108.09Z" transform="translate(-71.025 -106.8)" fill="#b89300"/>
    </g>
    <g id="Group_91" data-name="Group 91" transform="translate(75.829 106.278)">
      <path id="Path_250" data-name="Path 250" d="M77.887,111.068a2.2,2.2,0,0,0,.1.893c.1.1.2.2.794.2.794,0,.893,0,1.29-.893h.2c-.1.4-.2.993-.3,1.29H76.3c-.1,0-.1-.2,0-.3h.2c.3-.1.4-.1.4-.993V108.09c0-.893-.1-.893-.4-.993h-.2c-.1,0-.1-.2,0-.3h1.985c.1,0,.1.2,0,.3h-.2c-.3.1-.4.1-.4.993v2.978Z" transform="translate(-76.225 -106.8)" fill="#b89300"/>
    </g>
    <g id="Group_92" data-name="Group 92" transform="translate(82.752 106.179)">
      <path id="Path_251" data-name="Path 251" d="M87.666,111.663c0,.3,0,.5.2.6v.1a.75.75,0,0,0-.4.1,7.786,7.786,0,0,1-1.39.2,2.874,2.874,0,0,1-2.283-.993,3.354,3.354,0,0,1-.6-1.985,2.861,2.861,0,0,1,.695-1.985,2.7,2.7,0,0,1,2.382-.993c.3,0,.695.1.993.1a4.3,4.3,0,0,1,.5.1c0,.3.1.695.1,1.39,0,.1-.2.1-.2,0a1.471,1.471,0,0,0-1.39-1.29c-1.29,0-1.886,1.092-1.886,2.581a3.487,3.487,0,0,0,.5,1.985,1.588,1.588,0,0,0,1.39.695.949.949,0,0,0,.695-.2,2.019,2.019,0,0,0,.1-.5v-.3c0-.6,0-.695-.5-.794h-.3a.186.186,0,0,1,0-.3h1.985c.1,0,.1.2,0,.3h-.1c-.3,0-.3.1-.3.6v.6Z" transform="translate(-83.2 -106.7)" fill="#b89300"/>
    </g>
    <g id="Group_93" data-name="Group 93" transform="translate(94.365 106.179)">
      <path id="Path_252" data-name="Path 252" d="M100.061,109.678a2.733,2.733,0,0,1-2.581,2.978,2.636,2.636,0,0,1-2.581-2.878c0-1.787,1.092-3.077,2.581-3.077a2.722,2.722,0,0,1,2.581,2.978Zm-4.169-.2c0,1.191.4,2.779,1.687,2.779.794,0,1.489-.695,1.489-2.481,0-1.29-.5-2.779-1.687-2.779-.695.1-1.489.695-1.489,2.481Z" transform="translate(-94.9 -106.7)" fill="#b89300"/>
    </g>
    <g id="Group_94" data-name="Group 94" transform="translate(100.772 106.377)">
      <path id="Path_253" data-name="Path 253" d="M101.9,108.091c0-.893-.1-.893-.4-.993h-.1a.137.137,0,0,1,0-.2h1.985c.1,0,.1.2,0,.2h-.2c-.3.1-.4.1-.4.993v1.985c0,1.191.3,2.184,1.29,2.184s1.39-.893,1.39-2.184v-1.092a7.571,7.571,0,0,0-.1-1.687.516.516,0,0,0-.4-.2h-.1c-.1-.1-.1-.2,0-.2h1.588c.1,0,.1.2,0,.2h-.2c-.1,0-.3.1-.3.2a7.571,7.571,0,0,0-.1,1.687v.993a3.123,3.123,0,0,1-.5,1.985,1.628,1.628,0,0,1-1.39.6,1.742,1.742,0,0,1-1.489-.6,3.067,3.067,0,0,1-.5-1.886v-1.985Z" transform="translate(-101.356 -106.9)" fill="#b89300"/>
    </g>
    <g id="Group_95" data-name="Group 95" transform="translate(106.995 106.377)">
      <path id="Path_254" data-name="Path 254" d="M108.394,108.19c0-.794,0-.893-.3-.993h-.3c-.1-.1-.1-.2,0-.2a8.023,8.023,0,0,1,1.588-.1,2.789,2.789,0,0,1,1.489.3,1.475,1.475,0,0,1,.6,1.29,1.65,1.65,0,0,1-1.687,1.687h-.2c0-.1-.1-.2,0-.2.695-.2.893-.695.893-1.39a1.155,1.155,0,0,0-1.092-1.29c-.4,0-.4,0-.4.4v3.772c0,.893.1.893.4.993h.3v.3H107.7c-.1,0-.1-.2,0-.3h.1c.3-.1.4-.1.4-.993V108.19Z" transform="translate(-107.625 -106.9)" fill="#b89300"/>
    </g>
    <g id="Group_96" data-name="Group 96" transform="translate(23.225 93.772)">
      <path id="Path_255" data-name="Path 255" d="M29.552,99.659c.1,0,.1.2,0,.3H27.667c-.1,0-.1-.2,0-.3h.2c.3-.1.3-.1.3-.695V95.49h0a7.539,7.539,0,0,0-.4,1.092l-.695,1.39a20.6,20.6,0,0,1-.794,1.985h-.2a8.446,8.446,0,0,0-.6-1.687l-.695-1.687c-.1-.4-.3-.893-.4-1.191h0v3.474c0,.6,0,.695.3.794l.2.1a.186.186,0,0,1,0,.3H23.3c-.1,0-.1-.2,0-.3h.1c.4-.1.4-.2.5-.695a10.851,10.851,0,0,0,.1-1.985c0-.6.1-1.29.1-1.787,0-.4-.1-.6-.4-.6l-.2-.1v-.3h1.489a3.231,3.231,0,0,0,.4,1.39l.794,1.985a6.838,6.838,0,0,1,.3.794,6.267,6.267,0,0,1,.4-.893l.695-1.687a11.417,11.417,0,0,0,.6-1.687h1.39c.1,0,.1.2,0,.3h-.2c-.3.1-.4.2-.4.695,0,1.29,0,2.581.1,3.871,0,.6.1.6.3.695l.2-.1Z" transform="translate(-23.225 -94.2)" fill="#b89300"/>
    </g>
    <g id="Group_97" data-name="Group 97" transform="translate(30.699 93.574)">
      <path id="Path_256" data-name="Path 256" d="M32.487,97.772c-.2,0-.2,0-.3.2l-.3.993c-.1.5-.1.5.2.6h.2c.1.1,0,.2,0,.3H30.8s-.1-.2,0-.3H31c.2,0,.3-.1.4-.4.1-.2.2-.6.4-1.092l.993-3.077c.1-.3.2-.5.1-.6a1.117,1.117,0,0,0,.5-.4c.1,0,.1,0,.1.1l.3,1.191,1.191,3.672c.2.6.2.6.6.695h.1a.186.186,0,0,1,0,.3H33.777c-.1,0-.1-.2,0-.3h.2c.3,0,.3-.1.2-.5l-.3-1.191c-.1-.2-.1-.2-.3-.2Zm.893-.4c.2,0,.2,0,.2-.2l-.3-.993c-.1-.5-.2-.6-.2-.695h0c0,.1-.1.3-.2.695l-.3.993c-.1.2-.1.2.1.2Z" transform="translate(-30.756 -94)" fill="#b89300"/>
    </g>
    <g id="Group_98" data-name="Group 98" transform="translate(36.5 93.673)">
      <path id="Path_257" data-name="Path 257" d="M41.265,98.467v1.489a.365.365,0,0,1-.3.1,6.556,6.556,0,0,0-.893-1.191l-1.687-2.283c-.5-.6-.695-.993-.794-1.092v2.283a8.055,8.055,0,0,0,.1,1.687.516.516,0,0,0,.4.2h.2a.186.186,0,0,1,0,.3H36.7c-.1,0-.1-.2,0-.3h.2c.1,0,.3-.1.3-.2a7.571,7.571,0,0,0,.1-1.687V95.688c0-.695,0-.794-.2-1.092-.1-.1-.3-.1-.4-.2h-.1v-.3h1.39a7.019,7.019,0,0,0,1.191,1.787l.695.893c.3.4.993,1.29,1.092,1.39V96.284a8.056,8.056,0,0,0-.1-1.687.516.516,0,0,0-.4-.2h-.2a.186.186,0,0,1,0-.3H41.86c.1,0,.1.2,0,.3h-.2c-.1,0-.3.1-.3.2a7.571,7.571,0,0,0-.1,1.687v2.184Z" transform="translate(-36.6 -94.1)" fill="#b89300"/>
    </g>
    <g id="Group_99" data-name="Group 99" transform="translate(43.175 93.772)">
      <path id="Path_258" data-name="Path 258" d="M44.094,95.49c0-.794,0-.893-.4-.993h-.2c-.1,0-.1-.2,0-.2a9.649,9.649,0,0,1,1.787-.1,4.277,4.277,0,0,1,1.687.3,2.64,2.64,0,0,1,1.489,2.581,2.744,2.744,0,0,1-1.29,2.481,3.634,3.634,0,0,1-1.787.4c-.5,0-.794-.1-1.092-.1H43.4c-.1,0-.1-.2,0-.3h.2c.3-.1.4-.1.4-.993V95.49Zm.794,2.878c0,.794.1,1.29.794,1.29,1.29,0,1.886-1.092,1.886-2.581,0-1.687-.794-2.481-2.084-2.481a3.51,3.51,0,0,0-.6.1c-.1.1-.1.2-.1.6v3.077Z" transform="translate(-43.325 -94.2)" fill="#b89300"/>
    </g>
    <g id="Group_100" data-name="Group 100" transform="translate(49.031 93.574)">
      <path id="Path_259" data-name="Path 259" d="M50.887,97.772c-.2,0-.2,0-.2.2l-.3.993c-.1.5-.1.5.2.6h.2v.3H49.3c-.1,0-.1-.2,0-.3h.2c.2,0,.3-.1.4-.4.1-.2.2-.6.4-1.092l.993-3.077c.1-.3.2-.5.1-.6a1.117,1.117,0,0,0,.5-.4c.1,0,.1,0,.1.1l.3,1.191,1.092,3.573c.2.6.2.6.6.695h.1a.186.186,0,0,1,0,.3H52.178c-.1,0-.1-.2,0-.3h.2c.3,0,.3-.1.2-.5l-.3-1.191c-.1-.2-.1-.2-.3-.2H50.887Zm.794-.4c.2,0,.2,0,.2-.2l-.3-.993c-.1-.5-.2-.6-.2-.695h0c0,.1-.1.3-.2.695l-.3.993c-.1.2-.1.2.1.2Z" transform="translate(-49.225 -94)" fill="#b89300"/>
    </g>
    <g id="Group_101" data-name="Group 101" transform="translate(54.49 93.772)">
      <path id="Path_260" data-name="Path 260" d="M55.494,95.49c0-.794,0-.893-.4-.993h-.2c-.1-.1-.1-.2,0-.2a9.081,9.081,0,0,1,1.687-.1,2.629,2.629,0,0,1,1.39.3c.4.2.6.6.6,1.29a1.49,1.49,0,0,1-.893,1.39v.1a10.066,10.066,0,0,0,1.29,2.184c.2.2.3.2.4.2v.2h-1.29a11.624,11.624,0,0,1-.6-1.092l-.6-1.191c-.1-.3-.2-.3-.5-.3-.2,0-.2,0-.2.2v1.092c0,.893.1.893.4.993h.2c.1.1,0,.2,0,.3H54.8c-.1,0-.1-.2,0-.3H55c.3-.1.4-.1.4-.993V95.49Zm.794,1.29c0,.3,0,.3.4.3.695,0,1.092-.4,1.092-1.191,0-.695-.4-1.29-.993-1.29-.4,0-.4,0-.4.4v1.787Z" transform="translate(-54.725 -94.2)" fill="#b89300"/>
    </g>
    <g id="Group_102" data-name="Group 102" transform="translate(80.097 93.772)">
      <path id="Path_261" data-name="Path 261" d="M81.294,95.49c0-.794,0-.893-.4-.993h-.2c-.1-.1-.1-.2,0-.2a9.081,9.081,0,0,1,1.687-.1,2.629,2.629,0,0,1,1.39.3c.4.2.6.6.6,1.29a1.49,1.49,0,0,1-.893,1.39v.1a10.065,10.065,0,0,0,1.29,2.184c.2.2.3.2.4.2v.2h-1.29a11.627,11.627,0,0,1-.6-1.092l-.6-1.191c-.1-.3-.2-.3-.5-.3-.2,0-.2,0-.2.2v1.092c0,.893.1.893.4.993h.2c.1.1,0,.2,0,.3H80.6c-.1,0-.1-.2,0-.3h.2c.3-.1.4-.1.4-.993V95.49Zm.893,1.29c0,.3,0,.3.4.3.695,0,1.092-.4,1.092-1.191,0-.695-.4-1.29-.993-1.29-.4,0-.4,0-.4.4v1.787Z" transform="translate(-80.525 -94.2)" fill="#b89300"/>
    </g>
    <g id="Group_103" data-name="Group 103" transform="translate(60.246 93.772)">
      <path id="Path_262" data-name="Path 262" d="M61.989,98.666c0,.893.1.893.4.993h.2c.1.1,0,.2,0,.3H60.6c-.1,0-.1-.2,0-.3h.2c.3-.1.4-.1.4-.993V95.49c0-.893-.1-.893-.4-.993h-.2c-.1-.1,0-.2,0-.3h1.985c.1,0,.1.2,0,.3h-.2c-.3.1-.4.1-.4.993v3.176Z" transform="translate(-60.525 -94.2)" fill="#b89300"/>
    </g>
    <g id="Group_104" data-name="Group 104" transform="translate(64.192 93.673)">
      <path id="Path_263" data-name="Path 263" d="M69.066,98.467v1.489a.307.307,0,0,1-.2.1,6.556,6.556,0,0,0-.893-1.191l-1.687-2.283c-.5-.6-.695-.993-.794-1.092v2.283a8.055,8.055,0,0,0,.1,1.687.516.516,0,0,0,.4.2h.2a.186.186,0,0,1,0,.3H64.6c-.1,0-.1-.2,0-.3h.2c.1,0,.3-.1.3-.2a7.571,7.571,0,0,0,.1-1.687V95.688c0-.695,0-.794-.2-1.092-.1-.1-.3-.1-.4-.2h-.1v-.3h1.39a7.019,7.019,0,0,0,1.191,1.787l.695.893c.3.4.993,1.29,1.092,1.39V96.284a8.056,8.056,0,0,0-.1-1.687.516.516,0,0,0-.4-.2h-.2a.186.186,0,0,1,0-.3H69.76c.1,0,.1.2,0,.3h-.2c-.1,0-.3.1-.3.2a7.571,7.571,0,0,0-.1,1.687v2.184Z" transform="translate(-64.5 -94.1)" fill="#b89300"/>
    </g>
    <g id="Group_105" data-name="Group 105" transform="translate(73.621 93.673)">
      <path id="Path_264" data-name="Path 264" d="M79.161,97.078a2.733,2.733,0,0,1-2.581,2.978A2.636,2.636,0,0,1,74,97.177c0-1.787,1.092-3.077,2.581-3.077,1.687,0,2.581,1.39,2.581,2.978Zm-4.268-.2c0,1.191.4,2.779,1.687,2.779.794,0,1.489-.695,1.489-2.481,0-1.29-.5-2.779-1.687-2.779-.695,0-1.489.695-1.489,2.481Z" transform="translate(-74 -94.1)" fill="#b89300"/>
    </g>
    <g id="Group_106" data-name="Group 106" transform="translate(86.549 93.772)">
      <path id="Path_265" data-name="Path 265" d="M88.489,98.666c0,.893.1.893.4.993h.2c.1.1,0,.2,0,.3H87.1c-.1,0-.1-.2,0-.3h.2c.3-.1.4-.1.4-.993V95.49c0-.893-.1-.893-.4-.993h-.2c-.1-.1,0-.2,0-.3h1.985c.1,0,.1.2,0,.3h-.2c-.3.1-.4.1-.4.993v3.176Z" transform="translate(-87.025 -94.2)" fill="#b89300"/>
    </g>
    <g id="Group_107" data-name="Group 107" transform="translate(90.618 93.772)">
      <path id="Path_266" data-name="Path 266" d="M91.894,95.49c0-.893-.1-.893-.4-.993h-.1v-.3h3.275c0,.1.1.794.1,1.191,0,.1-.2.1-.2,0-.1-.5-.2-.695-.5-.794a1.259,1.259,0,0,0-.6-.1h-.5c-.3,0-.3,0-.3.5v1.489c0,.2,0,.2.2.2h.4c.6,0,.794,0,.794-.4l.1-.3c.1-.1.2-.1.2,0v1.787c0,.1-.2.1-.2,0l-.1-.3c-.1-.4-.2-.4-.794-.4h-.4c-.2,0-.2,0-.2.2v1.092a1.959,1.959,0,0,0,.1.893c.1.1.2.2.794.2.893,0,1.092-.2,1.39-.893.1-.1.2,0,.2.1a4.924,4.924,0,0,1-.3,1.29H91.2c-.1,0-.1-.2,0-.3h.3c.3,0,.4-.1.4-.993V95.49Z" transform="translate(-91.125 -94.2)" fill="#b89300"/>
    </g>
    <g id="Group_108" data-name="Group 108" transform="translate(96.504 93.673)">
      <path id="Path_267" data-name="Path 267" d="M101.665,98.467v1.489a.307.307,0,0,1-.2.1,6.556,6.556,0,0,0-.893-1.191l-1.687-2.283c-.5-.6-.695-.993-.794-1.092v2.283a8.055,8.055,0,0,0,.1,1.687.516.516,0,0,0,.4.2h.2a.186.186,0,0,1,0,.3H97.2c-.1,0-.1-.2,0-.3h.2c.1,0,.3-.1.3-.2a7.571,7.571,0,0,0,.1-1.687V95.688c0-.695,0-.794-.2-1.092-.1-.1-.3-.1-.4-.2h-.1c-.1-.1,0-.2,0-.3h1.39a7.019,7.019,0,0,0,1.191,1.787l.695.893c.3.4.993,1.29,1.092,1.39V96.284a8.056,8.056,0,0,0-.1-1.687.516.516,0,0,0-.4-.2h-.2a.186.186,0,0,1,0-.3h1.588c.1,0,.1.2,0,.3h-.2c-.1,0-.3.1-.3.2a7.571,7.571,0,0,0-.1,1.687v2.184Z" transform="translate(-97.056 -94.1)" fill="#b89300"/>
    </g>
    <g id="Group_109" data-name="Group 109" transform="translate(103.397 93.574)">
      <path id="Path_268" data-name="Path 268" d="M105.886,94.993c0-.4,0-.4-.2-.4h-.4c-.695,0-.893.1-1.092.794,0,0-.2,0-.2-.1a12.944,12.944,0,0,1,.3-1.29h.2c0,.2.1.2.6.2h2.978c.4,0,.5,0,.6-.2h.2a7.032,7.032,0,0,0-.1,1.39c0,.1-.2.1-.2,0-.1-.695-.2-.794-.993-.794h-.6c-.2,0-.2,0-.2.4v3.672c0,.893.1.893.4.993h.3c.1.1,0,.2,0,.3H105.29c-.1,0-.1-.2,0-.3h.3c.3,0,.4-.1.4-.993V94.993Z" transform="translate(-104 -94)" fill="#b89300"/>
    </g>
    <g id="Group_110" data-name="Group 110" transform="translate(108.88 93.574)">
      <path id="Path_269" data-name="Path 269" d="M111.187,97.772c-.2,0-.2,0-.2.2l-.3.993c-.1.5-.1.5.2.6h.2v.3H109.6c-.1,0-.1-.2,0-.3h.2c.2,0,.3-.1.4-.4.1-.2.2-.6.4-1.092l.993-3.077c.1-.3.2-.5.1-.6a1.117,1.117,0,0,0,.5-.4c.1,0,.1,0,.1.1l.3,1.191,1.092,3.573c.2.6.2.6.6.695h.1a.186.186,0,0,1,0,.3h-1.886c-.1,0-.1-.2,0-.3h.2c.3,0,.3-.1.2-.5l-.3-1.191c-.1-.2-.1-.2-.3-.2h-1.092Zm.893-.4c.2,0,.2,0,.2-.2l-.3-.993c-.1-.5-.2-.6-.2-.695h0c0,.1-.1.3-.2.695l-.3.993c-.1.2-.1.2.1.2Z" transform="translate(-109.525 -94)" fill="#b89300"/>
    </g>
    <g id="Group_111" data-name="Group 111" transform="translate(115.133 93.871)">
      <path id="Path_270" data-name="Path 270" d="M117.388,98.469a2.2,2.2,0,0,0,.1.893c.1.1.2.2.794.2.794,0,.893,0,1.29-.893.1,0,.2,0,.2.1-.1.4-.2.993-.3,1.29H115.9c-.1,0-.1-.2,0-.3h.2c.3-.1.4-.1.4-.993V95.59c0-.893-.1-.893-.4-.993h-.2v-.3h1.985c.1,0,.1.2,0,.3h-.2c-.3.1-.4.1-.4.993v2.878Z" transform="translate(-115.825 -94.3)" fill="#b89300"/>
    </g>
  </g>
</svg>
