<svg xmlns="http://www.w3.org/2000/svg" width="91.317" height="153" viewBox="0 0 91.317 153">
  <g id="Preferred_logo" transform="translate(-40.4 -18.1)">
    <g id="Group_127" data-name="Group 127" transform="translate(40.4 139.991)">
      <path id="Path_412" data-name="Path 412" d="M52.218,132.648h-.134a.131.131,0,0,1-.134-.134v-2.145c0-.134,0-.134.134-.134H51.011a.131.131,0,0,1,.134.134v.8H50.073v-.8c0-.134,0-.134.134-.268h-.939c.134,0,.134.134.134.268v2.011c0,.134,0,.134-.134.268h1.207a.131.131,0,0,1-.134-.134v-1.073h1.073v.939c0,.134,0,.134-.134.134h.536c-.134.134.268.134.4.134Z" transform="translate(-37.468 -101.806)" fill="#c4a25e"/>
      <path id="Path_413" data-name="Path 413" d="M54.475,130a1.347,1.347,0,1,0,0,2.682,1.407,1.407,0,0,0,1.475-1.475C55.95,130.536,55.414,130,54.475,130Zm.134,2.548c-.536,0-.939-.67-.939-1.341,0-.8.4-1.073.67-1.073.67,0,.8.67.8,1.207C55.28,132.414,54.743,132.548,54.609,132.548Z" transform="translate(-36.104 -101.84)" fill="#c4a25e"/>
      <path id="Path_414" data-name="Path 414" d="M59.214,130h-2.28v.134a.493.493,0,0,1-.134.4v.134h0v-.134c0-.134.134-.134.268-.134H57.6v2.011c0,.134,0,.134-.134.134h.939a.131.131,0,0,1-.134-.134v-2.145h.536c.268,0,.268.134.268.268v.134h0v-.134c.134,0,.134-.4.134-.536Z" transform="translate(-34.809 -101.84)" fill="#c4a25e"/>
      <path id="Path_415" data-name="Path 415" d="M62.111,131.943c-.134,0-.134.134,0,0a1.031,1.031,0,0,1-.268.4h-.268c-.4,0-.4,0-.4-.268v-.67h.536a.468.468,0,0,1,.268.134v.134h0v-.536h0a.468.468,0,0,1-.268.134h-.536v-.8h.536c.134,0,.268,0,.268.134v.134h0V130.2H60.368a.131.131,0,0,1,.134.134v2.011c0,.268,0,.4-.134.4h1.475c.134,0,.134,0,.134-.134a1,1,0,0,0,.134-.671Z" transform="translate(-33.684 -101.772)" fill="#c4a25e"/>
      <path id="Path_416" data-name="Path 416" d="M65.311,132.011h0a1.031,1.031,0,0,1-.268.4h-.4c-.268,0-.4,0-.4-.134v-2.011c0-.134,0-.134.134-.268h-.8a.131.131,0,0,1,.134.134v2.011c0,.268,0,.4-.134.4h1.609c.134,0,.134,0,.134-.134,0,.134,0-.268,0-.4Z" transform="translate(-32.593 -101.84)" fill="#c4a25e"/>
      <path id="Path_417" data-name="Path 417" d="M67.339,131.039,67.2,130.9c-.268-.134-.268-.268-.268-.4s.134-.268.4-.268a.7.7,0,0,1,.536.268v.268h0v-.67h-.536c-.536,0-.939.268-.939.67a.97.97,0,0,0,.536.8l.268.134c.268.268.268.268.268.536,0,.134-.134.268-.4.268s-.536-.134-.536-.4v-.134h0v.67c0,.134,0,.134.134.134s.268.134.536.134a1.458,1.458,0,0,0,.67-.134.737.737,0,0,0,.4-.67A3.826,3.826,0,0,0,67.339,131.039Z" transform="translate(-31.536 -101.806)" fill="#c4a25e"/>
      <path id="Path_418" data-name="Path 418" d="M75.323,130.373h-.268l-.134.134v.134a.468.468,0,0,1,.134.268c0,.134-.134.268-.4.268h-.8a.985.985,0,0,0-.8.268c-.4.268-.4.536-.4.536,0,.134,0,.268.134.268h.268l.134-.134v-.134a.468.468,0,0,1-.134-.268.428.428,0,0,1,.4-.4h.268a.7.7,0,0,1,.268.536,1.024,1.024,0,0,1-.268.67.985.985,0,0,1-.8.268,1.085,1.085,0,0,1-1.207-1.073c0-.134,0-.536.268-.67a.493.493,0,0,1,.4-.134h.268a.131.131,0,0,0,.134-.134v-.134a.571.571,0,0,1-.4-.939c0-.134.134-.134.268-.134s.4,0,.4.268h.134l.134-.134v-.134c0-.134-.134-.268-.4-.268a.493.493,0,0,0-.4.134,1.852,1.852,0,0,0-.536.4,1.014,1.014,0,0,0-.134.536c0,.134.134.268.134.4v.134c-.134.134-.268.134-.4.4a1.416,1.416,0,0,0-.268.67,1.168,1.168,0,0,0,1.341,1.207,1.507,1.507,0,0,0,1.073-.4,1.6,1.6,0,0,0,.67-1.207v-.4h.268a2.266,2.266,0,0,0,.67-.268.7.7,0,0,0,.268-.536C75.457,130.507,75.457,130.373,75.323,130.373Z" transform="translate(-29.865 -102.079)" fill="#c4a25e"/>
      <path id="Path_419" data-name="Path 419" d="M80.016,132.648h0c-.134,0-.268-.134-.4-.268-.268-.268-.4-.67-.67-.939a.737.737,0,0,0,.4-.67.7.7,0,0,0-.268-.536,1,1,0,0,0-.67-.134H77.334c.134,0,.134,0,.134.268v2.011c0,.134,0,.134-.134.134h1.207a.131.131,0,0,1-.134-.134v-.67h.268c0,.134.134.268.268.536s.268.4.4.4c.134.134.268.134.67.134v-.134Zm-1.341-1.341h-.536v-.939h.134a.607.607,0,0,1,.536.67Z" transform="translate(-27.854 -101.806)" fill="#c4a25e"/>
      <path id="Path_420" data-name="Path 420" d="M82.611,131.943h0a1.031,1.031,0,0,1-.268.4h-.268c-.4,0-.4,0-.4-.268v-.67h.536a.468.468,0,0,1,.268.134v.134h0v-.536h0a.468.468,0,0,1-.268.134h-.536v-.8h.536c.134,0,.268,0,.268.134v.134h0V130.2H80.868a.131.131,0,0,1,.134.134v2.011c0,.268,0,.4-.134.4h1.475c.134,0,.134,0,.134-.134a.59.59,0,0,0,.134-.671C82.745,132.077,82.745,131.943,82.611,131.943Z" transform="translate(-26.695 -101.772)" fill="#c4a25e"/>
      <path id="Path_421" data-name="Path 421" d="M84.739,131.039,84.6,130.9c-.268-.134-.268-.268-.268-.4s.134-.268.4-.268a.7.7,0,0,1,.536.268v.268h0v-.67h-.536c-.536,0-.939.268-.939.67a.97.97,0,0,0,.536.8l.268.134c.268.268.268.268.268.536,0,.134-.134.268-.4.268s-.536-.134-.536-.4v-.134h0v.67c0,.134,0,.134.134.134s.268.134.536.134a1.458,1.458,0,0,0,.67-.134.737.737,0,0,0,.4-.67A1.86,1.86,0,0,0,84.739,131.039Z" transform="translate(-25.604 -101.806)" fill="#c4a25e"/>
      <path id="Path_422" data-name="Path 422" d="M88.075,130a1.347,1.347,0,1,0,0,2.682,1.407,1.407,0,0,0,1.475-1.475C89.55,130.536,89.014,130,88.075,130Zm.134,2.548c-.536,0-.939-.67-.939-1.341,0-.8.4-1.073.67-1.073.67,0,.8.67.8,1.207C88.88,132.414,88.343,132.548,88.209,132.548Z" transform="translate(-24.649 -101.84)" fill="#c4a25e"/>
      <path id="Path_423" data-name="Path 423" d="M93.316,132.648h0c-.134,0-.268-.134-.4-.268-.268-.268-.4-.67-.67-.939a.737.737,0,0,0,.4-.67.7.7,0,0,0-.268-.536,1,1,0,0,0-.67-.134H90.634c.134,0,.134,0,.134.268v2.011c0,.134,0,.134-.134.134h1.207a.131.131,0,0,1-.134-.134v-.67h.268c0,.134.134.268.268.536s.268.4.4.4c.134.134.268.134.67.134v-.134Zm-1.475-1.341H91.3v-.939h.134a.607.607,0,0,1,.536.67C92.109,131.039,91.975,131.307,91.841,131.307Z" transform="translate(-23.319 -101.806)" fill="#c4a25e"/>
      <path id="Path_424" data-name="Path 424" d="M96.114,130h-2.28v.134a.493.493,0,0,1-.134.4v.134h0v-.134c0-.134.134-.134.268-.134H94.5v2.011c0,.134,0,.134-.134.134h.939a.131.131,0,0,1-.134-.134v-2.145h.536c.268,0,.268.134.268.268v.134h0v-.134c.134,0,.268-.4.134-.536Z" transform="translate(-22.228 -101.84)" fill="#c4a25e"/>
      <path id="Path_425" data-name="Path 425" d="M98.039,131.039,97.9,130.9c-.268-.134-.268-.268-.268-.4s.134-.268.4-.268a.7.7,0,0,1,.536.268v.268h0v-.67h-.536c-.536,0-.939.268-.939.67a.97.97,0,0,0,.536.8l.268.134c.268.268.268.268.268.536,0,.134-.134.268-.4.268s-.536-.134-.536-.4v-.134h0v.67c0,.134,0,.134.134.134s.268.134.536.134a1.458,1.458,0,0,0,.67-.134.737.737,0,0,0,.4-.67A1.86,1.86,0,0,0,98.039,131.039Z" transform="translate(-21.069 -101.806)" fill="#c4a25e"/>
      <path id="Path_426" data-name="Path 426" d="M66.146,114.5a2.953,2.953,0,0,0-.134-1.073c.4,0,.8-.134,1.341-.134v-.4c-.536,0-.939.134-1.475.134-.8-2.145-3.486-4.023-8.716-4.023-10.191,0-16.091,5.364-16.091,8.582,0,1.475,1.207,2.548,3.621,2.548A13.891,13.891,0,0,0,57.7,111.816l-.268-.134c-1.609,3.218-9.521,8.046-13.409,8.046-1.877,0-2.682-.8-2.682-2.011,0-3.084,5.5-8.314,15.555-8.314,5.23,0,7.643,1.743,8.314,3.755-8.85,2.145-12.337,13.677-22.528,13.677a15.991,15.991,0,0,1-2.011-.134l-.268.268a33.188,33.188,0,0,0,4.693.4c4.961,0,7.241-1.609,10.057-5.364.4-.536.8-1.207,1.341-1.877a10.149,10.149,0,0,0,2.011.134C63.33,120.264,66.146,117.314,66.146,114.5Zm-9.252,5.364c2.011-2.682,4.425-5.632,8.448-6.436,0,.268.134.536.134.8,0,2.816-2.95,5.766-7.241,5.766A4.562,4.562,0,0,1,56.893,119.862Z" transform="translate(-40.4 -109)" fill="#c4a25e"/>
      <path id="Path_427" data-name="Path 427" d="M121.5,120.289a7.774,7.774,0,0,0-3.755,1.743l.134.134a8.3,8.3,0,0,1,3.352-1.609c2.011-.268,3.084,1.073,3.352,2.816.4,2.95-2.011,7.375-7.911,8.046-3.218.4-6.3-1.207-6.571-3.755-.134-1.207.67-3.084,1.877-4.559,2.95-3.352,7.241-8.18,9.789-10.459l-.134-.134s-1.207.268-2.145.4c-1.475,1.743-3.486,3.889-5.632,6.3l-.8.939h-.4a10.156,10.156,0,0,0-7.375,2.816c-1.877,1.207-3.352,2.28-4.425,2.95a5.744,5.744,0,0,1-2.145.67c-.536,0-.8-.134-.8-.67s.939-1.743,2.145-2.816c2.816-.4,4.827-2.011,4.827-2.682,0-.268-.134-.4-.536-.4a8.188,8.188,0,0,0-6.034,2.95c-2.816,1.877-5.1,3.486-5.9,3.486-.268,0-.268-.134-.268-.4,0-1.341,5.1-3.486,5.1-5.632,0-.67-.134-1.341-.134-2.011,0-.134,0-.134.134-.268.4-.134,1.073-.67,1.073-1.073a.356.356,0,0,0-.4-.4,1.225,1.225,0,0,0-1.073,1.341v.4c-.4.536-1.743,1.877-5.5,4.425h0c-2.95,2.011-5.23,3.486-6.034,3.486-.268,0-.268-.134-.268-.4,0-1.341,5.1-3.486,5.1-5.632,0-.67-.134-1.341-.134-2.011,0-.134,0-.134.134-.268.4-.134,1.073-.67,1.073-1.073a.356.356,0,0,0-.4-.4,1.225,1.225,0,0,0-1.073,1.341v.4c-.4.536-1.743,1.877-5.5,4.425h0c-1.877,1.207-3.486,2.28-4.559,2.95a5.744,5.744,0,0,1-2.145.67c-.536,0-.8-.134-.8-.67s.939-1.743,2.145-2.816c2.816-.4,4.827-2.011,4.827-2.682,0-.268-.134-.4-.536-.4a8.209,8.209,0,0,0-5.632,2.548,8.616,8.616,0,0,1-5.23,2.414c4.023-4.961,4.827-10.593,12.739-13.677.134,0,.4-.134.536-.134s.268-.134.4-.134h.4v.134l-.134.134c-.134.134-.268.268-.4.268-.268.134-.536.4-.8.536h0a2.805,2.805,0,0,0,.8-.536c.134-.134.268-.134.4-.268l.134-.134.134-.134v-.134h0c-.134-.134-.134,0-.268-.134h-.268a.493.493,0,0,0-.4.134c-.268,0-.4.134-.67.268-6.436,2.28-8.716,6.839-13.007,12.068l-1.207,1.475a4.173,4.173,0,0,1-.536-.8l1.207-.8c0-.4-.268-.4-.536-.4a.95.95,0,0,0-.939,1.073c-1.341.939-2.414,1.609-3.218,2.145a5.745,5.745,0,0,1-2.145.67c-.536,0-.8-.134-.8-.67s.939-1.743,2.145-2.816c2.816-.4,4.827-2.011,4.827-2.682,0-.268-.134-.4-.536-.4a7.747,7.747,0,0,0-5.23,2.145c-2.95,1.877-6.571,4.291-7.375,4.291-.268,0-.268-.134-.268-.4,0-1.341,5.1-3.486,5.1-5.632,0-.67-.134-1.341-.134-2.011,0-.134,0-.134.134-.268.4-.134,1.073-.67,1.073-1.073a.356.356,0,0,0-.4-.4,1.225,1.225,0,0,0-1.073,1.341v.4c-.4.536-1.743,2.011-5.766,4.559l.134.134a28.533,28.533,0,0,0,5.632-4.425,7.56,7.56,0,0,0,.134.939c0,.939-5.364,4.023-5.364,6.034,0,.67.268.939.67.939.939,0,4.291-2.145,6.973-3.889A4.453,4.453,0,0,0,62.9,125.25c0,.8.67,1.207,1.475,1.207a6.6,6.6,0,0,0,2.682-.67q1.408-.8,3.218-2.011a1.357,1.357,0,0,0,.536.939c-3.084,3.62-6.436,6.973-11.8,7.509H57.273c-.134,0-.134,0-.268-.134s-.268-.134-.134-.4l.4-.4c.134-.134.268-.134.4-.268a7.977,7.977,0,0,1,.939-.4h0s-.4.134-1.073.4c-.134,0-.268.134-.536.268-.134.134-.4.134-.536.4a.493.493,0,0,0-.134.4.288.288,0,0,0,.268.268c.134,0,.268.134.4.134H59.15c4.291-.4,8.18-2.682,11.532-5.9a16.071,16.071,0,0,0,1.475-1.609,9.759,9.759,0,0,0,4.425-1.475,3.565,3.565,0,0,0-.8,1.877c0,.8.67,1.207,1.475,1.207a6.6,6.6,0,0,0,2.682-.67c1.207-.67,2.682-1.743,4.291-2.816h0a28.532,28.532,0,0,0,5.632-4.425,7.56,7.56,0,0,0,.134.939c0,.939-5.364,4.023-5.364,6.034,0,.67.268.939.67.939,1.073,0,3.352-1.609,6.168-3.486h0A28.533,28.533,0,0,0,97.1,118.68a7.561,7.561,0,0,0,.134.939c0,.939-5.364,4.023-5.364,6.034,0,.67.268.939.67.939,1.073,0,3.218-1.475,5.766-3.218a4.212,4.212,0,0,0-.939,2.145c0,.8.67,1.207,1.475,1.207a6.6,6.6,0,0,0,2.682-.67,31.287,31.287,0,0,0,3.889-2.548,4.615,4.615,0,0,0-1.073,2.414c0,.536.268.8.67.8,1.207,0,4.023-1.743,5.9-3.084a6.819,6.819,0,0,0-.8,3.755c.4,2.816,3.084,4.827,7.241,4.291,6.571-.8,8.984-4.961,8.716-8.046C125.392,121.63,123.783,120.021,121.5,120.289Zm-17.164,0c.268,0,.4,0,.4.134,0,.536-2.145,2.145-4.425,2.414C101.658,121.5,103.4,120.289,104.339,120.289Zm-21.723,0c.268,0,.4,0,.4.134,0,.536-2.145,2.145-4.425,2.414C79.934,121.5,81.678,120.289,82.616,120.289Zm-13.141,0c.268,0,.4,0,.4.134,0,.536-2.145,2.145-4.425,2.414C66.793,121.5,68.537,120.289,69.475,120.289Zm35.266,6.3c-.134,0-.268,0-.268-.134,0-1.073,4.961-5.9,8.046-5.9h.4l-2.145,2.548-.134.134C108.9,124.58,105.948,126.591,104.742,126.591Z" transform="translate(-35.013 -108.489)" fill="#c4a25e"/>
      <path id="Path_428" data-name="Path 428" d="M106.97,113.475a.493.493,0,0,1-.4-.134v-.134l-.134.134a.288.288,0,0,0,.268.268.415.415,0,0,0,.268-.134c.4.134.536-.134.536-.268a.428.428,0,0,0-.4-.4l-.268-.134a.288.288,0,0,1-.268-.268c0-.134.134-.268.4-.268.134,0,.268,0,.268.134v.134l.134-.134c0-.134-.134-.268-.536-.268-.268,0-.536.134-.536.4a.428.428,0,0,0,.4.4c.134,0,.268.134.4.134l.134.134C107.373,113.341,107.239,113.475,106.97,113.475Z" transform="translate(-17.933 -107.977)" fill="#c4a25e"/>
      <path id="Path_429" data-name="Path 429" d="M108.707,112.1l-.536,1.207-.536-1.207H107.5v1.475h.134v-1.207l.536,1.207h.134l.4-1.207v1.207h.134V112.1Z" transform="translate(-17.524 -107.943)" fill="#c4a25e"/>
    </g>
    <path id="Path_430" data-name="Path 430" d="M115.676,111.7c-1.073,0-2.011.67-3.755,1.743-2.548,0-6.7-.268-11.532-.8,5.5-3.218,10.593-6.571,11.4-7.107.4.134.939.134,1.475.268a10.016,10.016,0,0,0,2.682.4h0c.536,0,1.475-.4,1.475-1.207s-.939-1.207-1.609-1.207c-.8,0-1.743.4-4.157,1.341-3.889-.134-7.643-.4-11-.67,4.291-2.548,8.582-5.364,11-7.107a12.476,12.476,0,0,0,3.218.67c1.073,0,1.877-.4,1.877-1.207s-.939-1.073-1.743-1.073a9.85,9.85,0,0,0-3.486,1.207,107.173,107.173,0,0,1-12.068-1.609c5.23-2.95,9.923-5.632,10.459-6.034a24.891,24.891,0,0,0,3.486.536c.4,0,1.743-.268,1.743-1.207,0-.67-.67-1.073-1.609-1.073a9,9,0,0,0-3.486,1.207.131.131,0,0,0-.134.134,103.812,103.812,0,0,1-11.4-2.682c3.755-1.743,7.241-3.486,8.984-4.291.134,0,.134-.134.268-.134a24.891,24.891,0,0,0,3.486.536c.4,0,1.743-.268,1.743-1.207,0-.67-.67-1.073-1.609-1.073a9,9,0,0,0-3.486,1.207.131.131,0,0,0-.134.134c-2.414-.4-6.973-2.145-11.4-4.023,3.621-1.475,6.973-2.816,7.911-3.084.268.134.4.134.67.268a7.841,7.841,0,0,0,2.548.536c1.341,0,1.475-.67,1.475-.939,0-.67-.8-1.073-1.475-1.073a11.474,11.474,0,0,0-3.352.8,122.936,122.936,0,0,1-12.337-4.961,51.745,51.745,0,0,1,6.3-2.548,4.645,4.645,0,0,0,2.682,1.207c.536,0,1.207-.268,1.207-.939a1.324,1.324,0,0,0-1.341-1.073,10.83,10.83,0,0,0-2.548.4h0a6.271,6.271,0,0,1-1.877-4.961c0-3.218,3.755-7.911,8.984-7.911h.8a6.968,6.968,0,0,1-.67-.4,20.188,20.188,0,0,0-7.509-1.475,17.963,17.963,0,0,0-4.157.67c2.548-5.1,7.509-10.727,12.6-11.532a1.387,1.387,0,0,0,.536-.134,1.017,1.017,0,0,0-.536-.268,25.473,25.473,0,0,0-7.643-1.207,16.278,16.278,0,0,0-7.777,1.743v-.4c0-6.168-2.682-11.264-4.827-15.421a23.111,23.111,0,0,1-2.28-5.1c-.134-.4-.4-1.475-.4-1.475s-.268,1.073-.4,1.475a23.112,23.112,0,0,1-2.28,5.1c-2.145,4.157-4.827,9.252-4.827,15.421v.4a16.278,16.278,0,0,0-7.777-1.743,25.473,25.473,0,0,0-7.643,1.207c-.268.134-.4.134-.536.268a1.336,1.336,0,0,1,.536.134c5.1.939,10.057,6.571,12.6,11.532a12.856,12.856,0,0,0-4.157-.67A20.766,20.766,0,0,0,61.368,52.7a6.966,6.966,0,0,1-.67.4h.8c5.23,0,8.984,4.827,8.984,7.911a6.1,6.1,0,0,1-1.877,4.961h0a9.9,9.9,0,0,0-2.548-.4,1.218,1.218,0,0,0-1.341,1.073c0,.67.67.939,1.207.939a5.235,5.235,0,0,0,2.682-1.207,51.743,51.743,0,0,1,6.3,2.548,122.936,122.936,0,0,1-12.337,4.961,10.614,10.614,0,0,0-3.352-.8c-.536,0-1.475.4-1.475,1.073,0,.268.134.939,1.475.939a7.841,7.841,0,0,0,2.548-.536c.268-.134.4-.134.67-.268.939.4,4.291,1.609,7.911,3.084-4.291,1.877-8.85,3.621-11.4,4.023a.131.131,0,0,1-.134-.134,9,9,0,0,0-3.486-1.207c-1.073,0-1.609.4-1.609,1.073,0,.939,1.341,1.207,1.743,1.207a13.754,13.754,0,0,0,3.486-.536c.134,0,.134.134.268.134,1.743.8,5.23,2.548,8.984,4.291-3.218.939-7.107,1.743-11.4,2.682a.131.131,0,0,1-.134-.134,9,9,0,0,0-3.486-1.207c-1.073,0-1.609.4-1.609,1.073,0,.939,1.341,1.207,1.743,1.207a13.754,13.754,0,0,0,3.486-.536c.536.268,5.23,2.95,10.459,6.034A107.173,107.173,0,0,1,55.2,96.947a7.767,7.767,0,0,0-3.486-1.207c-.8,0-1.743.4-1.743,1.073s.67,1.207,1.877,1.207a12.477,12.477,0,0,0,3.218-.67c2.414,1.743,6.7,4.425,11,7.107a93.135,93.135,0,0,1-11,.67c-2.414-1.073-3.486-1.341-4.157-1.341s-1.609.4-1.609,1.207.939,1.207,1.475,1.207h0a10.016,10.016,0,0,0,2.682-.4,5.7,5.7,0,0,1,1.475-.268c.8.536,5.9,3.889,11.4,7.107a67.72,67.72,0,0,1-11.532.8c-1.743-1.073-2.682-1.743-3.755-1.743-.8,0-1.475.268-1.475,1.073s.8,1.341,1.877,1.341a15.391,15.391,0,0,0,3.218-.268c.268.268,5.23,3.486,11.13,6.839a54.324,54.324,0,0,1-10.191.268c-1.475-.939-2.548-1.609-3.486-1.609-.67,0-1.609.4-1.609,1.073s.536,1.207,1.877,1.207c.67,0,1.877-.134,3.084-.268a64.418,64.418,0,0,0,9.923,7.375,62.05,62.05,0,0,1-10.191.268c-.134-.134-.134-.268-.268-.536-.4-.67-.8-1.609-1.743-1.609a.956.956,0,0,0-1.073.939,1.159,1.159,0,0,0,.4.8,3.5,3.5,0,0,0,2.414.8c3.621,4.961,11,7.911,19.98,7.911a43.334,43.334,0,0,0,8.18-.8,41.274,41.274,0,0,0,8.18.8c8.984,0,16.359-2.95,19.98-7.911a3.077,3.077,0,0,0,2.414-.8,1.159,1.159,0,0,0,.4-.8.956.956,0,0,0-1.073-.939c-.939,0-1.341.939-1.743,1.609-.134.134-.134.4-.268.536a62.513,62.513,0,0,1-10.191-.268,64.418,64.418,0,0,0,9.923-7.375c1.207.134,2.414.268,3.084.268,1.207,0,1.877-.536,1.877-1.207s-.939-1.073-1.609-1.073c-.939,0-2.011.67-3.486,1.609a54.137,54.137,0,0,1-10.191-.268c6.034-3.352,10.862-6.7,11.13-6.839a15.391,15.391,0,0,0,3.218.268c1.207,0,1.877-.536,1.877-1.341C117.285,111.965,116.481,111.7,115.676,111.7Zm-4.157-6.3a115.612,115.612,0,0,1-12.337,6.973c-3.486-.536-7.107-1.073-10.191-1.877a71.621,71.621,0,0,0,10.593-5.364C103.474,105.26,107.63,105.26,111.519,105.395Zm-40.764,8.18c4.827-.268,9.655-.67,13.007-1.609,3.352.939,8.18,1.207,13.007,1.609a48.277,48.277,0,0,1-13.007,4.157A46.852,46.852,0,0,1,70.755,113.574Zm25.746,8.18a95.021,95.021,0,0,1-12.739,4.425,95.021,95.021,0,0,1-12.739-4.425,59.512,59.512,0,0,0,12.739-1.743C86.712,120.949,91.539,121.486,96.5,121.754ZM83.628,50.282h0c.134-.268.134-.4.268-.67a16.826,16.826,0,0,1,4.693-5.364,37.463,37.463,0,0,1-2.548,12.337c-.268.67-.67,1.475-.939,2.145a18.148,18.148,0,0,0-1.475,4.291v0a20.419,20.419,0,0,0-1.475-4.291c-.268-.67-.536-1.341-.939-2.145a38.937,38.937,0,0,1-2.548-12.337,16.826,16.826,0,0,1,4.693,5.364,2.265,2.265,0,0,1,.268.67Zm0,14.75a25.7,25.7,0,0,0,5.5,3.889c-2.28.939-3.889,1.609-5.5,2.414-1.609-.8-3.352-1.475-5.5-2.414A31.669,31.669,0,0,0,83.628,65.033Zm9.118,12.337c-3.084,1.073-5.9,1.877-8.984,3.218-3.084-1.341-5.9-2.145-8.984-3.218,4.157-1.609,7.241-2.816,8.984-3.621C85.371,74.553,88.455,75.76,92.746,77.369Zm1.877,9.118c-4.827,1.877-8.984,3.352-11,4.157-2.011-.8-6.168-2.28-11-4.157a70.773,70.773,0,0,0,11-3.486A70.772,70.772,0,0,0,94.623,86.487ZM95.7,95.874c-4.157,2.011-8.582,3.486-11.934,4.827-3.486-1.341-7.777-2.95-11.934-4.827a90.689,90.689,0,0,0,11.934-2.28A90.689,90.689,0,0,0,95.7,95.874Zm1.073,9.118a80.5,80.5,0,0,1-13.141,4.827,64.155,64.155,0,0,1-13.141-4.827,79.793,79.793,0,0,0,13.141-1.609A67.516,67.516,0,0,0,96.769,104.992Zm14.75-7.911a123,123,0,0,1-12.873,6.973,72.342,72.342,0,0,1-11.264-2.28c3.084-1.475,6.973-3.621,10.593-5.632C102.535,96.678,107.63,96.947,111.519,97.081Zm-1.743-8.046c-1.475.8-6.571,3.218-12.068,5.766A68.825,68.825,0,0,1,86.98,91.717c1.475-.8,5.5-2.682,9.923-4.693A124.927,124.927,0,0,0,109.776,89.035ZM107.5,81.66c-2.011.8-6.3,2.414-10.727,4.023A65.368,65.368,0,0,1,86.712,81.66c1.475-.8,4.693-2.28,7.911-3.621A83.328,83.328,0,0,0,107.5,81.66Zm-3.486-7.643c-3.621.939-6.571,1.743-9.118,2.682-4.291-1.877-7.777-3.755-8.716-4.157a29.765,29.765,0,0,1,4.291-2.816A70.67,70.67,0,0,0,104.01,74.017ZM90.735,68.251A51.493,51.493,0,0,1,83.9,64.764c.134-2.548,3.084-6.168,6.839-8.984v1.207c0,3.486,2.414,8.448,6.7,9.252A43.871,43.871,0,0,0,90.735,68.251ZM105.083,52.7c-3.889,0-9.655,2.548-10.191,6.973a7.333,7.333,0,0,0,2.95,6.3c-3.621-.268-5.5-3.352-5.5-8.716a10.015,10.015,0,0,1,.4-2.682C96.769,52.294,101.06,50.953,105.083,52.7Zm1.207-12.6c-3.218.4-7.777,2.816-10.862,5.9a17.312,17.312,0,0,0-4.291,6.973,16.714,16.714,0,0,0-4.693,3.621c1.743-4.023,3.755-8.85,4.291-13.812C95.428,40.091,101.194,38.348,106.29,40.091ZM83.628,19.575c.939,3.621,5.1,11.264,5.1,21.455v.939a16.159,16.159,0,0,0-5.1,7.509,17.276,17.276,0,0,0-5.1-7.509V41.03C78.532,30.839,82.689,23.2,83.628,19.575Zm-11.8,26.282c-3.084-3.084-7.643-5.5-10.862-5.9,5.23-1.609,11,0,15.421,2.816a53.71,53.71,0,0,0,4.291,13.812,12.142,12.142,0,0,0-4.693-3.621A15.384,15.384,0,0,0,71.828,45.857Zm.536,13.812C71.828,55.244,66.2,52.7,62.173,52.7c4.157-1.743,8.448-.536,12.337,1.743a10.016,10.016,0,0,1,.4,2.682c0,5.364-1.877,8.582-5.5,8.716A6.947,6.947,0,0,0,72.364,59.669ZM69.95,66.239c4.425-.8,6.7-5.632,6.7-9.252V55.78c3.755,2.816,6.7,6.3,6.839,8.984-1.341.8-4.023,2.145-6.839,3.486A48.955,48.955,0,0,0,69.95,66.239ZM63.38,74.017a61.119,61.119,0,0,0,13.543-4.425,23.779,23.779,0,0,1,4.291,2.816c-.939.536-4.425,2.28-8.716,4.157C69.816,75.76,66.866,74.955,63.38,74.017ZM59.893,81.66A83.327,83.327,0,0,0,72.766,78.04a83.661,83.661,0,0,1,7.911,3.621,71.352,71.352,0,0,1-10.057,4.023C66.2,83.94,61.9,82.465,59.893,81.66ZM57.48,89.035a128,128,0,0,0,13.007-2.011c4.425,2.145,8.448,4.023,9.923,4.693A68.827,68.827,0,0,1,69.682,94.8C64.05,92.253,58.955,89.84,57.48,89.035Zm-1.609,8.046a121.01,121.01,0,0,0,13.409-.939c3.621,2.011,7.509,4.157,10.593,5.632a72.341,72.341,0,0,1-11.264,2.28C63.514,101.506,58.284,98.824,55.871,97.081Zm0,8.314c3.755-.134,7.911-.134,11.934-.268A71.621,71.621,0,0,0,78.4,110.49a76.448,76.448,0,0,1-10.191,1.877C63.782,110.088,59.357,107.54,55.871,105.395Zm-.4,8.314c2.548.134,7.643.268,13.141,0a58.2,58.2,0,0,0,9.655,4.827,91.436,91.436,0,0,1-10.191,2.011A129.385,129.385,0,0,1,55.468,113.708Zm.939,7.643a50.83,50.83,0,0,0,12.2.536,80.489,80.489,0,0,0,9.923,4.693,101.163,101.163,0,0,1-10.459,1.877A59.43,59.43,0,0,1,56.407,121.352Zm-.536,7.911A84.979,84.979,0,0,0,67.8,129.8a62.017,62.017,0,0,0,12.471,5.632C70.353,137.04,60.027,134.627,55.871,129.263Zm27.757,5.23A107.128,107.128,0,0,1,70.621,129.8a70.246,70.246,0,0,0,13.007-1.609A70.246,70.246,0,0,0,96.635,129.8,92.933,92.933,0,0,1,83.628,134.493Zm27.757-5.23c-4.157,5.364-14.348,7.643-24.4,6.168A62.017,62.017,0,0,0,99.451,129.8,84.979,84.979,0,0,0,111.385,129.263Zm-.4-7.911a62.8,62.8,0,0,1-11.666,7.241,101.165,101.165,0,0,1-10.459-1.877,72.263,72.263,0,0,0,9.923-4.693A84.648,84.648,0,0,0,110.983,121.352Zm-11.8-.8a65.274,65.274,0,0,1-10.191-2.011,91.516,91.516,0,0,0,9.655-4.827,104.1,104.1,0,0,0,13.141,0A114.961,114.961,0,0,1,99.183,120.547Z" transform="translate(3.034)" fill="#c4a25e" opacity="0.2"/>
    <path id="Path_431" data-name="Path 431" d="M84.789,28.6v.8H83.314v4.157h-.939V29.4H80.9v-.8Z" transform="translate(13.808 3.58)" fill="#c4a25e"/>
    <path id="Path_432" data-name="Path 432" d="M88.25,33.561l-.8-1.475H86.239v1.475H85.3V28.6h2.011c1.341,0,2.011.67,2.011,1.743a1.706,1.706,0,0,1-.939,1.609l1.073,1.609ZM86.1,31.282h1.073c.67,0,1.073-.268,1.073-.939s-.4-.939-1.073-.939H86.1Z" transform="translate(15.308 3.58)" fill="#c4a25e"/>
    <path id="Path_433" data-name="Path 433" d="M93.255,32.489H90.841l-.4,1.073H89.5L91.645,28.6h.939l2.145,4.961H93.657Zm-.268-.8-.8-2.011-.939,2.011Z" transform="translate(16.74 3.58)" fill="#c4a25e"/>
    <path id="Path_434" data-name="Path 434" d="M95.373,28.6l1.475,3.889L98.323,28.6h.939L97.25,33.561h-.939L94.3,28.6Z" transform="translate(18.376 3.58)" fill="#c4a25e"/>
    <path id="Path_435" data-name="Path 435" d="M102.921,28.634v.8h-2.682v1.207h2.414v.8h-2.414v1.207h2.816v.8H99.3V28.5h3.621Z" transform="translate(20.081 3.546)" fill="#c4a25e"/>
    <path id="Path_436" data-name="Path 436" d="M104.639,28.634v4.023h2.145v.8H103.7V28.5h.939Z" transform="translate(21.581 3.546)" fill="#c4a25e"/>
    <g id="Group_128" data-name="Group 128" transform="translate(43.886 32.18)">
      <path id="Path_437" data-name="Path 437" d="M43.939,28.7v4.961H43V28.7Z" transform="translate(-43 -28.566)" fill="#c4a25e"/>
      <path id="Path_438" data-name="Path 438" d="M46.439,28.7l2.548,3.352V28.7h.939v4.961h-.939l-2.548-3.352v3.352H45.5V28.7Z" transform="translate(-42.148 -28.566)" fill="#c4a25e"/>
      <path id="Path_439" data-name="Path 439" d="M52.311,29.539c-.4,0-.67.134-.67.4,0,.939,2.682.4,2.682,2.28,0,.939-.8,1.475-1.877,1.475a3.045,3.045,0,0,1-2.145-.8l.4-.8a3.157,3.157,0,0,0,1.743.67c.536,0,.8-.134.8-.536,0-1.073-2.682-.4-2.682-2.145A1.7,1.7,0,0,1,52.445,28.6a3.354,3.354,0,0,1,1.743.536l-.4.8A4.07,4.07,0,0,0,52.311,29.539Z" transform="translate(-40.511 -28.6)" fill="#c4a25e"/>
      <path id="Path_440" data-name="Path 440" d="M58.723,30.343c0,1.073-.67,1.743-2.011,1.743H55.639v1.475H54.7V28.6h2.011C58.052,28.734,58.723,29.27,58.723,30.343Zm-.939.134c0-.67-.4-.939-1.073-.939H55.639v1.877h1.073C57.382,31.282,57.784,31.014,57.784,30.477Z" transform="translate(-39.011 -28.6)" fill="#c4a25e"/>
      <path id="Path_441" data-name="Path 441" d="M60.139,28.7v4.961H59.2V28.7Z" transform="translate(-37.477 -28.566)" fill="#c4a25e"/>
      <path id="Path_442" data-name="Path 442" d="M64.75,33.661l-.8-1.475H62.739v1.475H61.8V28.7h2.011c1.341,0,2.011.67,2.011,1.743a1.706,1.706,0,0,1-.939,1.609l1.073,1.609ZM62.6,31.248h1.073c.67,0,1.073-.268,1.073-.939s-.4-.939-1.073-.939H62.6Z" transform="translate(-36.591 -28.566)" fill="#c4a25e"/>
      <path id="Path_443" data-name="Path 443" d="M67.339,28.7v4.961H66.4V28.7Z" transform="translate(-35.022 -28.566)" fill="#c4a25e"/>
      <path id="Path_444" data-name="Path 444" d="M69.839,28.7l2.548,3.352V28.7h.939v4.961h-.939l-2.548-3.352v3.352H68.9V28.7Z" transform="translate(-34.17 -28.566)" fill="#c4a25e"/>
      <path id="Path_445" data-name="Path 445" d="M77.355,31.148h.8v1.877a3.294,3.294,0,0,1-2.011.67A2.466,2.466,0,0,1,73.6,31.148,2.578,2.578,0,0,1,76.282,28.6a2.907,2.907,0,0,1,1.877.67l-.536.67a1.921,1.921,0,0,0-1.341-.536,1.614,1.614,0,1,0,0,3.218,3.156,3.156,0,0,0,1.073-.268Z" transform="translate(-32.568 -28.6)" fill="#c4a25e"/>
    </g>
    <line id="Line_5" data-name="Line 5" x1="34.328" transform="translate(45.496 45.187)" fill="none" stroke="#c4a25e" stroke-miterlimit="10" stroke-width="0.221"/>
    <line id="Line_6" data-name="Line 6" x1="32.048" transform="translate(93.233 45.187)" fill="none" stroke="#c4a25e" stroke-miterlimit="10" stroke-width="0.221"/>
    <g id="Group_129" data-name="Group 129" transform="translate(81.164 42.103)">
      <path id="Path_446" data-name="Path 446" d="M76.03,36.67h-.268v-.134c0-.134-.134-.268-.4-.268-.536,0-.8.4-1.073,1.341l-.134.4h.8l-.134.268h-.8l-.536,1.475c-.4,1.073-1.073,2.682-2.145,2.682-.4,0-.536-.134-.536-.4s.134-.268.4-.268h.134V41.9a.288.288,0,0,0,.268.268c.536,0,.8-.536,1.073-1.475l.8-2.414h-.4v-.134l.536-.134v-.134A2.258,2.258,0,0,1,75.627,36c.536,0,.67.134.67.4C76.432,36.4,76.164,36.67,76.03,36.67Z" transform="translate(-70.8 -36)" fill="#c4a25e"/>
      <path id="Path_447" data-name="Path 447" d="M73.8,39.411c0-.939.67-2.011,1.609-2.011.4,0,.67.268.67.8,0,.939-.67,2.011-1.609,2.011C74.068,40.216,73.8,39.948,73.8,39.411ZM75.677,38.2c0-.4-.134-.67-.4-.67-.536,0-.939,1.073-.939,1.743,0,.4.134.67.4.67C75.141,39.948,75.677,38.875,75.677,38.2Z" transform="translate(-69.777 -35.523)" fill="#c4a25e"/>
      <path id="Path_448" data-name="Path 448" d="M76.27,38.1v-.268c0-.134-.134-.134-.4-.134v-.134a2.672,2.672,0,0,0,1.073-.268,7.786,7.786,0,0,0-.67,1.743h0s.67-1.743,1.475-1.743a.356.356,0,0,1,.4.4.428.428,0,0,1-.4.4h0V37.97s0-.134-.268-.134c-.536,0-1.341,1.877-1.341,2.414h-.268a.288.288,0,0,1-.268-.268v-.134Z" transform="translate(-69.164 -35.557)" fill="#c4a25e"/>
    </g>
    <path id="Path_449" data-name="Path 449" d="M87.53,49.6a22.93,22.93,0,1,0,22.93,22.93A23.006,23.006,0,0,0,87.53,49.6Zm19.041,22.93A18.907,18.907,0,1,1,87.664,53.623,18.885,18.885,0,0,1,106.571,72.53Z" transform="translate(8.251 10.739)" fill="#c4a25e"/>
    <path id="Path_450" data-name="Path 450" d="M65.175,57.337a15,15,0,0,0-4.827.67l2.95-9.252H77.646V45h-17.3l-5.9,19.041A17.314,17.314,0,0,1,64.1,61.225c9.923,0,18.5,7.643,18.5,17.7A18.349,18.349,0,0,1,63.968,97.564c-5.364,0-14.08-4.425-16.225-11.264L46,91.933a22.051,22.051,0,0,0,17.968,9.252c12.739,0,22.8-9.387,22.8-22.259A21.49,21.49,0,0,0,65.175,57.337Z" transform="translate(1.909 9.171)" fill="#c4a25e"/>
    <g id="Group_130" data-name="Group 130" transform="translate(49.921 113.976)">
      <path id="Path_451" data-name="Path 451" d="M51.791,96.271,47.5,89.7h2.28l3.084,4.827L55.948,89.7h2.145L53.8,96.271V100.7H51.925V96.271Z" transform="translate(-47.5 -89.566)" fill="#c4a25e"/>
      <path id="Path_452" data-name="Path 452" d="M59,89.6h8.18v1.743H61.011v2.816h5.5V95.9h-5.5v2.95h6.3V100.6H59Z" transform="translate(-43.579 -89.6)" fill="#c4a25e"/>
      <path id="Path_453" data-name="Path 453" d="M73.227,89.6h1.743l4.827,11H77.787l-1.073-2.682h-5.23L70.411,100.6H68.4Zm2.816,6.7L74.166,91.88,72.289,96.3Z" transform="translate(-40.375 -89.6)" fill="#c4a25e"/>
      <path id="Path_454" data-name="Path 454" d="M80.7,89.6h4.827a4.893,4.893,0,0,1,3.218,1.073,3.575,3.575,0,0,1,.939,2.414h0a3.46,3.46,0,0,1-2.548,3.352l2.95,4.157h-2.28l-2.682-3.755H82.711V100.6H80.834v-11Zm4.693,5.5c1.341,0,2.28-.67,2.28-1.877h0c0-1.207-.8-1.877-2.28-1.877H82.577v3.621h2.816Z" transform="translate(-36.181 -89.6)" fill="#c4a25e"/>
      <path id="Path_455" data-name="Path 455" d="M90.9,98.952l1.207-1.341a5.109,5.109,0,0,0,3.486,1.475c1.207,0,1.877-.536,1.877-1.341h0c0-.8-.4-1.207-2.414-1.609-2.28-.536-3.621-1.207-3.621-3.218h0c0-1.877,1.609-3.218,3.755-3.218a6.9,6.9,0,0,1,4.023,1.341l-1.073,1.475a5.316,5.316,0,0,0-2.95-1.073c-1.073,0-1.743.536-1.743,1.341h0c0,.8.536,1.207,2.548,1.743,2.28.536,3.486,1.341,3.486,3.218h0c0,2.011-1.609,3.218-3.889,3.218A8.7,8.7,0,0,1,90.9,98.952Z" transform="translate(-32.704 -89.566)" fill="#c4a25e"/>
    </g>
  </g>
</svg>
