<svg xmlns="http://www.w3.org/2000/svg" width="140.3" height="38.1" viewBox="0 0 140.3 38.1">
  <g id="Accor_logo" transform="translate(-4.7 -56.5)">
    <g id="Сгруппировать_52" data-name="Сгруппировать 52">
      <path id="Контур_131" data-name="Контур 131" d="M17.2,84.4,12.1,72.5H9.8L4.7,84.4H7.3l1.1-2.6h5l1.1,2.6Zm-4.7-4.9H9.4L11,75.7l1.5,3.8Zm16.7,3-1.7-1.7a4.483,4.483,0,0,1-3.1,1.4A3.508,3.508,0,0,1,21,78.5h0a3.508,3.508,0,0,1,3.4-3.7,4.335,4.335,0,0,1,3,1.3l1.7-1.9a6.009,6.009,0,0,0-4.7-1.8,5.939,5.939,0,0,0-6.1,6.1h0a5.977,5.977,0,0,0,6,6.1,6.1,6.1,0,0,0,4.9-2.1m12.6,0-1.7-1.7A4.483,4.483,0,0,1,37,82.2a3.508,3.508,0,0,1-3.4-3.7h0A3.508,3.508,0,0,1,37,74.8a4.335,4.335,0,0,1,3,1.3l1.7-1.9a5.927,5.927,0,0,0-4.6-1.8A5.939,5.939,0,0,0,31,78.5h0a6.164,6.164,0,0,0,10.8,4m14.2-4h0a6.3,6.3,0,0,0-12.6,0h0a6.048,6.048,0,0,0,6.3,6.1A6.048,6.048,0,0,0,56,78.5m-2.7,0a3.525,3.525,0,0,1-3.5,3.7,3.607,3.607,0,0,1-3.6-3.7h0a3.525,3.525,0,0,1,3.5-3.7,3.607,3.607,0,0,1,3.6,3.7ZM69,84.4l-2.9-4.2a3.738,3.738,0,0,0,2.5-3.7h0c0-2.4-1.7-3.9-4.4-3.9H58.8V84.4h2.6V80.6h2l2.5,3.8H69Zm-2.9-7.7c0,1-.7,1.7-2,1.7H61.5V75H64c1.3-.1,2.1.5,2.1,1.7Z" fill="#0a2c3f"/>
      <path id="Контур_132" data-name="Контур 132" d="M65.8,66.8c0,.2.7.1,1.3.1a29.189,29.189,0,0,0,7.3-.8c3.1-.7,4-1.8,5.7-2.8,3.6-2,8.1-1.7,8.1-2,0-.1-.1-.1-1.3-.4-.1-.5-.7-.8-1.4-.8-1.5,0-3.9,1.7-6,1.7a1.7,1.7,0,0,1-.7-.1,7.081,7.081,0,0,0-5.3-3.4c-1.4-.2-2.4-.3-3.2-.5a14.111,14.111,0,0,1-3.9-1.3.1.1,0,0,0-.1.1c0,.5,1,2.1,2.5,3.8,1,1.1,2.7,2.8,2.7,3.5,0,.4-.9.9-2.7,1.7a21.469,21.469,0,0,1-3,1.2" fill="#e5a302"/>
      <path id="Контур_133" data-name="Контур 133" d="M85.2,84.4V72.6H82.6v4.7H76.7V72.6H74.1V84.4h2.6V79.7h5.9v4.7Zm15.4-5.9h0a6.3,6.3,0,0,0-12.6,0h0a6.3,6.3,0,0,0,12.6,0m-2.7,0a3.525,3.525,0,0,1-3.5,3.7,3.607,3.607,0,0,1-3.6-3.7h0a3.525,3.525,0,0,1,3.5-3.7,3.607,3.607,0,0,1,3.6,3.7ZM111.8,75V72.6H102V75h3.6v9.4h2.6V75Zm11.5,9.4V82.1h-6.4V79.6h5.6V77.3h-5.6V74.9h6.3V72.6h-8.9V84.4h9Zm10.7,0V82h-5.3V72.6h-2.6V84.4Zm11-3.5h0c0-2.1-1.3-2.9-3.7-3.6-2-.5-2.5-.8-2.5-1.5h0c0-.6.5-1,1.5-1a5.285,5.285,0,0,1,3.1,1.2l1.3-2a6.706,6.706,0,0,0-4.4-1.5c-2.4,0-4.1,1.4-4.1,3.6h0c0,2.3,1.5,3,3.9,3.6,2,.5,2.4.8,2.4,1.5h0c0,.7-.6,1.1-1.7,1.1a5.705,5.705,0,0,1-3.5-1.4l-1.5,1.8a7.28,7.28,0,0,0,5,1.9c2.4,0,4.2-1.3,4.2-3.7" fill="#0a2c3f"/>
    </g>
    <g id="Сгруппировать_53" data-name="Сгруппировать 53">
      <path id="Контур_134" data-name="Контур 134" d="M99.6,92.8v-.2a1.686,1.686,0,0,0-1.7-1.9,1.74,1.74,0,0,0-1.7,1.9A1.817,1.817,0,0,0,98,94.5a1.955,1.955,0,0,0,1.5-.7l-.3-.3A1.656,1.656,0,0,1,98,94a1.3,1.3,0,0,1-1.3-1.2Zm-2.9-.5a1.216,1.216,0,0,1,1.2-1.2A1.131,1.131,0,0,1,99,92.3Zm-17.2-3H79v4.3c0,.8.4.9.8.9.2,0,.3,0,.4-.1l-.1-.5c-.3.1-.6.1-.6-.3V89.3Zm-1.7,3.5v-.2a1.686,1.686,0,0,0-1.7-1.9,1.74,1.74,0,0,0-1.7,1.9,1.817,1.817,0,0,0,1.8,1.9,1.955,1.955,0,0,0,1.5-.7l-.3-.3a1.433,1.433,0,0,1-1.1.5A1.3,1.3,0,0,1,75,92.8h2.8ZM75,92.3a1.216,1.216,0,0,1,1.2-1.2,1.131,1.131,0,0,1,1.1,1.2Zm-13.2.5v-.2a1.686,1.686,0,0,0-1.7-1.9,1.74,1.74,0,0,0-1.7,1.9,1.817,1.817,0,0,0,1.8,1.9,1.955,1.955,0,0,0,1.5-.7l-.3-.3a1.433,1.433,0,0,1-1.1.5A1.3,1.3,0,0,1,59,92.8h2.8Zm-8.3-3.3H50.3v4.9h.6V92.3h2.3v-.5H50.9V90h2.6v-.5Zm4,3.3v-.2a1.686,1.686,0,0,0-1.7-1.9,1.74,1.74,0,0,0-1.7,1.9,1.817,1.817,0,0,0,1.8,1.9,1.955,1.955,0,0,0,1.5-.7l-.3-.3A1.606,1.606,0,0,1,56,94a1.3,1.3,0,0,1-1.3-1.2Zm-2.8-.5a1.216,1.216,0,0,1,1.2-1.2A1.131,1.131,0,0,1,57,92.3Zm4.3,0a1.216,1.216,0,0,1,1.2-1.2,1.131,1.131,0,0,1,1.1,1.2Zm4.5-3H63v4.3c0,.8.4.9.8.9.2,0,.3,0,.4-.1l-.1-.5c-.3.1-.6.1-.6-.3Zm5.4,4.2-1.4-4.1h-.6l1.7,4.9h.5l1.3-4,1.3,4h.5l1.7-4.9h-.6L72,93.5l-1.3-4.1h-.5Zm14.8-.1a1.738,1.738,0,0,1-1.1.6,1.288,1.288,0,0,1-1.3-1.4,1.347,1.347,0,0,1,1.3-1.4,1.255,1.255,0,0,1,1.1.6l.4-.4a2.026,2.026,0,0,0-1.4-.6,1.815,1.815,0,0,0-1.8,1.9,1.88,1.88,0,0,0,1.8,1.9,1.955,1.955,0,0,0,1.5-.7Zm4.8-.8a1.9,1.9,0,1,0-1.9,1.9,1.965,1.965,0,0,0,1.9-1.9m-.6,0A1.288,1.288,0,0,1,86.6,94a1.347,1.347,0,0,1-1.3-1.4,1.288,1.288,0,0,1,1.3-1.4c.8-.1,1.3.6,1.3,1.4m4.6-1.2a1.23,1.23,0,0,0-1.1-.7,1.387,1.387,0,0,0-1.2.7v-.6h-.5v3.6h.5v-2a.975.975,0,0,1,1-1.1c.6,0,.9.4.9,1.1v2.1h.5V92.4a1.029,1.029,0,0,1,1-1.1c.6,0,.9.4.9,1.1v2.1H95V92.3a1.321,1.321,0,0,0-1.3-1.5,1.071,1.071,0,0,0-1.2.6" fill="#0c2b3f"/>
    </g>
  </g>
</svg>
