<svg xmlns="http://www.w3.org/2000/svg" width="157.699" height="69.032" viewBox="0 0 157.699 69.032">
  <g id="BDV" transform="translate(-18.652 -50.336)">
    <path id="Контур_457" data-name="Контур 457" d="M80.486,89.8l-18.8-26.3L71.871,50.4H88.849l10.1,12.966Zm0,0" transform="translate(17.186 0.027)" fill="#1d1d1b" fill-rule="evenodd"/>
    <path id="Контур_458" data-name="Контур 458" d="M86.314,93.01l20.618-28.566H122ZM48.871,64.444H63.936L84.549,93.01ZM122,62.87l-14.89-12.534H97.881l9.746,12.534Zm-73.127,0,14.89-12.534h9.227L63.242,62.87Zm0,0" transform="translate(12.068)" fill="#1d1d1b" fill-rule="evenodd"/>
    <path id="Контур_459" data-name="Контур 459" d="M47.211,100.658V96.93h.47v1.476h2.2V96.93h.465v3.728h-.465V98.832h-2.2v1.826Zm0,0" transform="translate(11.405 18.607)" fill="#1d1d1b"/>
    <path id="Контур_460" data-name="Контур 460" d="M49.855,100.658l1.826-3.728h.388l1.848,3.728h-.5l-.5-1H50.845l-.492,1Zm1.208-1.438H52.7l-.825-1.651Zm0,0" transform="translate(12.461 18.607)" fill="#1d1d1b"/>
    <path id="Контур_461" data-name="Контур 461" d="M53.472,96.93v2.416a1.054,1.054,0,0,0,.213.776,1.922,1.922,0,0,0,1.716,0,1.054,1.054,0,0,0,.213-.776V96.93h.465v2.536a1.252,1.252,0,0,1-.355.995,1.87,1.87,0,0,1-1.181.3,1.842,1.842,0,0,1-1.175-.3,1.235,1.235,0,0,1-.361-.995V96.93Zm0,0" transform="translate(13.72 18.607)" fill="#1d1d1b"/>
    <path id="Контур_462" data-name="Контур 462" d="M57.084,100.658v-3.3H55.516V96.93h3.6v.432H57.544v3.3Zm0,0" transform="translate(14.721 18.607)" fill="#1d1d1b"/>
    <path id="Контур_463" data-name="Контур 463" d="M58.461,100.658V96.93H61.4v.432H58.926v1.093h1.5v.426h-1.5v1.35h2.624v.426Zm0,0" transform="translate(15.897 18.607)" fill="#1d1d1b"/>
    <path id="Контур_464" data-name="Контур 464" d="M67.3,99.489l.377.279a1.881,1.881,0,0,1-.705.754,2,2,0,0,1-1.011.262,1.992,1.992,0,0,1-1.383-3.362,1.85,1.85,0,0,1,1.377-.552,1.949,1.949,0,0,1,.946.224,1.884,1.884,0,0,1,.694.65l-.388.273a1.305,1.305,0,0,0-.508-.525,1.481,1.481,0,0,0-.738-.186,1.373,1.373,0,0,0-1.044.432,1.648,1.648,0,0,0,0,2.176,1.389,1.389,0,0,0,1.044.426,1.427,1.427,0,0,0,.776-.213,1.658,1.658,0,0,0,.563-.64" transform="translate(18.122 18.583)" fill="#1d1d1b"/>
    <path id="Контур_465" data-name="Контур 465" d="M68.945,100.779a1.866,1.866,0,0,1-1.383-.552,2.064,2.064,0,0,1,.005-2.8,1.833,1.833,0,0,1,1.377-.552,1.87,1.87,0,0,1,1.394.558,1.952,1.952,0,0,1-1.394,3.351m.005-.432a1.389,1.389,0,0,0,1.039-.432,1.655,1.655,0,0,0,0-2.181,1.478,1.478,0,0,0-2.083.005,1.648,1.648,0,0,0,0,2.176,1.393,1.393,0,0,0,1.044.432" transform="translate(19.313 18.583)" fill="#1d1d1b"/>
    <path id="Контур_466" data-name="Контур 466" d="M70.756,96.93v2.416a1.052,1.052,0,0,0,.219.776,1.91,1.91,0,0,0,1.711,0,1.03,1.03,0,0,0,.213-.776V96.93h.465v2.536a1.233,1.233,0,0,1-.355.995,2.5,2.5,0,0,1-2.356,0,1.233,1.233,0,0,1-.355-.995V96.93Zm0,0" transform="translate(20.624 18.607)" fill="#1d1d1b"/>
    <path id="Контур_467" data-name="Контур 467" d="M74.37,100.658v-3.3H72.8V96.93h3.608v.432H74.834v3.3Zm0,0" transform="translate(21.624 18.607)" fill="#1d1d1b"/>
    <path id="Контур_468" data-name="Контур 468" d="M76.144,96.93v2.416a1.028,1.028,0,0,0,.219.776,1.91,1.91,0,0,0,1.711,0,1.054,1.054,0,0,0,.213-.776V96.93h.465v2.536a1.217,1.217,0,0,1-.361.995,2.487,2.487,0,0,1-2.35,0,1.235,1.235,0,0,1-.361-.995V96.93Zm0,0" transform="translate(22.773 18.607)" fill="#1d1d1b"/>
    <path id="Контур_469" data-name="Контур 469" d="M78.6,100.658V96.93H80.74a1.258,1.258,0,0,1,.853.273.977.977,0,0,1,.312.765,1.037,1.037,0,0,1-.88,1.05l.929,1.64H81.44l-.929-1.629H79.062v1.629Zm.465-2.066h1.645a.8.8,0,0,0,.536-.159.569.569,0,0,0,.175-.454.593.593,0,0,0-.175-.454.738.738,0,0,0-.508-.164H79.062Zm0,0" transform="translate(23.939 18.607)" fill="#1d1d1b"/>
    <path id="Контур_470" data-name="Контур 470" d="M81.566,100.658V96.93H84.5v.432H82.031v1.093h1.492v.426H82.031v1.35h2.618v.426Zm0,0" transform="translate(25.124 18.607)" fill="#1d1d1b"/>
    <path id="Контур_471" data-name="Контур 471" d="M88.262,100.658v-3.3H86.688V96.93H90.3v.432H88.721v3.3Zm0,0" transform="translate(27.169 18.607)" fill="#1d1d1b"/>
    <path id="Контур_472" data-name="Контур 472" d="M89.621,100.658V96.93h2.143a1.263,1.263,0,0,1,.858.273.977.977,0,0,1,.312.765,1.023,1.023,0,0,1-.246.689,1.009,1.009,0,0,1-.64.361l.935,1.64h-.514l-.935-1.629H90.086v1.629Zm.465-2.066h1.651a.787.787,0,0,0,.53-.159.554.554,0,0,0,.18-.454.577.577,0,0,0-.18-.454.729.729,0,0,0-.508-.164H90.086Zm0,0" transform="translate(28.341 18.607)" fill="#1d1d1b"/>
    <path id="Контур_473" data-name="Контур 473" d="M92.242,100.658l1.831-3.728h.383l1.853,3.728H95.8l-.5-1H93.237l-.5,1Zm1.2-1.438H95.09l-.825-1.651Zm0,0" transform="translate(29.387 18.607)" fill="#1d1d1b"/>
    <path id="Контур_474" data-name="Контур 474" d="M96.954,100.658h-.284l-1.8-3.728h.5l1.438,2.99,1.443-2.99h.508Zm0,0" transform="translate(30.437 18.607)" fill="#1d1d1b"/>
    <path id="Контур_475" data-name="Контур 475" d="M98.02,100.658V96.93h2.935v.432H98.484v1.093h1.492v.426H98.484v1.35H101.1v.426Zm0,0" transform="translate(31.695 18.607)" fill="#1d1d1b"/>
    <path id="Контур_476" data-name="Контур 476" d="M100.719,100.658V96.93h.465v3.3h2.432v.426Zm0,0" transform="translate(32.773 18.607)" fill="#1d1d1b"/>
    <path id="Контур_477" data-name="Контур 477" d="M18.652,95.415v-10.6h6.27a3.632,3.632,0,0,1,2.372.667,2.431,2.431,0,0,1,.8,1.973,2.394,2.394,0,0,1-.251,1.132,1.986,1.986,0,0,1-.705.809,3.507,3.507,0,0,1,1.274,1.2,3.081,3.081,0,0,1,.432,1.634,2.974,2.974,0,0,1-.962,2.329,3.8,3.8,0,0,1-2.618.858ZM19.97,94.2h5.548a1.884,1.884,0,0,0,1.427-.536,2.262,2.262,0,0,0,0-2.9,1.887,1.887,0,0,0-1.427-.541H19.97Zm0-5.193h5.073a1.914,1.914,0,0,0,1.274-.377,1.385,1.385,0,0,0,.437-1.1,1.42,1.42,0,0,0-.421-1.121,1.9,1.9,0,0,0-1.29-.377H19.97Zm0,0" transform="translate(0 13.769)" fill="#1d1d1b"/>
    <path id="Контур_478" data-name="Контур 478" d="M51.314,93.006V86.692H52.1v3.149l3.613-3.149h1.022l-2.547,2.247,2.935,4.067h-.946L53.626,89.48,52.1,90.764v2.241Zm-3.362-2.012.629.47a3.106,3.106,0,0,1-1.192,1.268,3.333,3.333,0,0,1-1.711.437,3.139,3.139,0,0,1-2.334-.935,3.5,3.5,0,0,1,0-4.739,3.164,3.164,0,0,1,2.334-.929,3.29,3.29,0,0,1,1.591.383,3.157,3.157,0,0,1,1.175,1.088l-.661.47a2.179,2.179,0,0,0-.853-.886,2.464,2.464,0,0,0-1.252-.317,2.322,2.322,0,0,0-1.755.727,2.784,2.784,0,0,0,0,3.679,2.342,2.342,0,0,0,1.755.727A2.412,2.412,0,0,0,47,92.065a2.817,2.817,0,0,0,.951-1.071M33.778,93.006l3.083-6.3h.656l3.116,6.3h-.847l-.858-1.695H35.446l-.831,1.695Zm2.028-2.427h2.777l-1.394-2.793Zm-8.259,2.427v-6.3h.782v5.576h4.116v.722Zm0,0" transform="translate(3.552 14.468)" fill="#1d1d1b"/>
    <path id="Контур_479" data-name="Контур 479" d="M103.7,86.883a3.348,3.348,0,0,1,2.4.875,3.071,3.071,0,0,1,.907,2.3,3.022,3.022,0,0,1-.9,2.279,3.347,3.347,0,0,1-2.411.853H101v-6.3Zm0,.727h-1.919v4.848H103.7a2.524,2.524,0,0,0,1.831-.65,2.654,2.654,0,0,0-.011-3.531,2.474,2.474,0,0,0-1.82-.667M92.5,93.185v-6.3h.415l4.089,4.712V86.883h.782v6.3h-.4l-4.1-4.712v4.712Zm-5.98.159a3.134,3.134,0,0,1-2.334-.929,3.5,3.5,0,0,1,0-4.739,3.4,3.4,0,0,1,4.679.005,3.294,3.294,0,0,1-2.345,5.663m0-.732a2.325,2.325,0,0,0,1.76-.727,2.768,2.768,0,0,0,0-3.679,2.488,2.488,0,0,0-3.515,0,2.784,2.784,0,0,0,0,3.679,2.322,2.322,0,0,0,1.755.727m-12.474.574v-6.3h.722l2.547,3.859,2.564-3.859h.711v6.3h-.771v-4.92l-2.5,3.722-2.5-3.722v4.92Zm-9.118,0,3.088-6.3h.65l3.121,6.3h-.847l-.858-1.695H66.6l-.831,1.695Zm2.033-2.432h2.771l-1.388-2.788Zm-5.105-3.9h.793v6.335h-.793Zm0,0" transform="translate(17.254 14.54)" fill="#1d1d1b"/>
    <path id="Контур_480" data-name="Контур 480" d="M136.8,93.185v-6.3h4.958v.727h-4.176v1.848h2.525v.722h-2.525v2.279h4.433v.727Zm-3.728-1.705v-.929h-1.716v-.722h2.5V91.72a3.2,3.2,0,0,1-1.192,1.208,3.311,3.311,0,0,1-1.667.415,3.134,3.134,0,0,1-2.334-.929,3.5,3.5,0,0,1,0-4.739A3.143,3.143,0,0,1,131,86.746a3.365,3.365,0,0,1,1.591.377,3.116,3.116,0,0,1,1.17,1.093l-.656.465a2.145,2.145,0,0,0-.858-.88A2.462,2.462,0,0,0,131,87.479a2.342,2.342,0,0,0-1.755.727,2.784,2.784,0,0,0,0,3.679,2.322,2.322,0,0,0,1.755.727,2.449,2.449,0,0,0,1.181-.284,2.57,2.57,0,0,0,.891-.847M119.3,93.185l3.088-6.3h.65l3.127,6.3h-.853l-.853-1.695h-3.482l-.836,1.695Zm2.039-2.432h2.771l-1.394-2.788Zm-6.16,2.432V90.026l-2.842-3.143h.989l2.252,2.487,2.241-2.487h.995l-2.853,3.154v3.149Zm-7.292.159a3.147,3.147,0,0,1-2.34-.929,3.509,3.509,0,0,1,.005-4.739,3.4,3.4,0,0,1,4.679.005,3.479,3.479,0,0,1,0,4.734,3.159,3.159,0,0,1-2.345.929m0-.732a2.325,2.325,0,0,0,1.76-.727,2.784,2.784,0,0,0,0-3.679,2.494,2.494,0,0,0-3.52,0,2.8,2.8,0,0,0,0,3.679,2.334,2.334,0,0,0,1.76.727" transform="translate(34.334 14.54)" fill="#1d1d1b"/>
    <path id="Контур_481" data-name="Контур 481" d="M57.368,84.816A5.551,5.551,0,0,1,61.4,86.292a5.619,5.619,0,0,1,.033,7.685,5.64,5.64,0,0,1-4.061,1.438H52.82v-10.6Zm0,1.213H54.138V94.2h3.231a4.206,4.206,0,0,0,3.077-1.1,4.458,4.458,0,0,0-.016-5.942,4.184,4.184,0,0,0-3.061-1.126" transform="translate(13.645 13.769)" fill="#1d1d1b"/>
    <path id="Контур_482" data-name="Контур 482" d="M102.628,95.415H101.8l-5.111-10.6h1.432l4.094,8.494,4.094-8.494h1.459Zm0,0" transform="translate(31.164 13.769)" fill="#1d1d1b"/>
  </g>
</svg>
