<svg xmlns="http://www.w3.org/2000/svg" width="103" height="79.281" viewBox="0 0 103 79.281">
  <g id="Emirates_logo" transform="translate(-28.2 -40.8)">
    <path id="Контур_190" data-name="Контур 190" d="M131.2,120.081H28.2V40.8h103Z" fill="#d11217"/>
    <path id="Контур_191" data-name="Контур 191" d="M79.424,54.5a4.509,4.509,0,0,0-1.1,3.075v9.443A2.866,2.866,0,0,1,77.667,69c-.22.22-1.867,1.647-1.867,1.647h.878c.22-.22,3.075-2.745,3.4-3.075A5.156,5.156,0,0,0,81.4,64.277V55.163a3.4,3.4,0,0,1,.988-2.526c.329-.329,1.428-1.318,1.647-1.537h-.878c-.439.329-3.4,3.075-3.733,3.4Z" transform="translate(4.669 1.01)" fill="#fff"/>
    <path id="Контур_192" data-name="Контур 192" d="M72.7,86.8l3.4,2.965H78.52a8.567,8.567,0,0,0,5.93-2.416,7.033,7.033,0,0,0,1.977-5.051V77.353A3.587,3.587,0,0,0,85.108,74.5l-1.1-1.1v3.733l1.318,1.318c.988,1.1.988,3.075-2.2,6.259A6.552,6.552,0,0,1,78.739,86.8Z" transform="translate(4.365 3.197)" fill="#fff"/>
    <path id="Контур_193" data-name="Контур 193" d="M87.874,70.445A16.8,16.8,0,0,0,89.3,71.873c1.318.988,1.867-.11.988-1.428-.22-.439-.988-.878-2.416,0ZM83.481,67.7a4.408,4.408,0,0,0-.769,2.306v1.867h1.867a3.407,3.407,0,0,0,1.977-.988V69.018s.439.549.878.988c.659-.549,2.306-2.306,3.4-2.306,2.416,0,1.867,2.965.878,3.953-.329.329-1.757,1.647-2.2,1.977-1.1,1.1-3.075.549-3.075-2.2,0,0-2.086,1.977-2.416,2.2A17.147,17.147,0,0,0,82.6,75.057V80a4.681,4.681,0,0,1-1.428,3.843c-.329.329-2.855,2.635-3.294,2.965H77s1.647-1.428,1.977-1.757a3.289,3.289,0,0,0,.769-2.306V75.057H67.669c-4.173,0-5.051-4.612-5.051-5.93V64.516A2.755,2.755,0,0,0,61.3,62.1h1.208c.11.11.878.329.878,3.184V68.8a3.02,3.02,0,0,0,2.855,3.075H79.858a5.784,5.784,0,0,1,1.1-2.526c.439-.439,3.294-3.075,3.624-3.4h.878A25.475,25.475,0,0,0,83.481,67.7Z" transform="translate(3.246 2.089)" fill="#fff"/>
    <path id="Контур_194" data-name="Контур 194" d="M72.6,77.955c0,.659-2.086,2.416-2.2,2.526-.11-.659-.659-1.537-2.306-3.075L70.406,75.1c1.537,1.647,2.2,1.867,2.2,2.855Z" transform="translate(3.913 3.364)" fill="#fff"/>
    <path id="Контур_195" data-name="Контур 195" d="M68.992,66.773a6.246,6.246,0,0,1-1.318,1.208h7.247c1.867,0,1.537-1.208,1.1-1.867a27.368,27.368,0,0,0-2.965-3.624s-3.953,4.173-4.063,4.283ZM76.9,53.926c.549.439,1.428,1.757.878,2.306l-1.318,1.318c0-.329-.878-.988-.878-.988v2.526a1.925,1.925,0,0,1-.329,1.318,6.738,6.738,0,0,1,1.867,4.173v2.416a1.651,1.651,0,0,1-.439,1.208c-.11.22-1.867,1.867-2.2,2.2a1.968,1.968,0,0,1-1.428.549H66.686c-.988,0-2.086-.769-2.086-1.537V66.993a1.834,1.834,0,0,0,1.428.769,3.369,3.369,0,0,0,1.537-.659c.22-.22,4.832-5.051,4.832-5.051s-2.2-1.977-3.624-2.965a1.229,1.229,0,0,0-1.757.769,16.147,16.147,0,0,0,0,4.832L65.259,62.93c-.769-.659-.659-2.306.22-3.184a4.767,4.767,0,0,1,3.075-1.537h2.526a6.264,6.264,0,0,1,3.514,1.647s.329-.329.329-.549V56.122c-1.318-1.318-1.537-2.635-.878-3.184A13.9,13.9,0,0,1,75.581,51.4,3.942,3.942,0,0,0,76.9,53.926Z" transform="translate(3.57 1.04)" fill="#fff"/>
    <path id="Контур_196" data-name="Контур 196" d="M61.208,71.4H60a2.77,2.77,0,0,1,1.318,2.526v5.71a7.133,7.133,0,0,0,6.808,7.138H71.2a4.417,4.417,0,0,0,3.624-1.428,12.41,12.41,0,0,0,1.208-1.208,4.034,4.034,0,0,0,1.318-3.294V78.977a3.414,3.414,0,0,0-1.428-2.745l-1.1-1.1v3.843a10,10,0,0,0,1.1,1.1,1.982,1.982,0,0,1-1.208,3.514H67.8a6.031,6.031,0,0,1-5.93-5.93V74.475c.22-3.075-.659-3.075-.659-3.075Z" transform="translate(3.119 3.001)" fill="#fff"/>
    <path id="Контур_197" data-name="Контур 197" d="M68.292,77.955c0,.659-2.086,2.416-2.2,2.526-.11-.659-.659-1.537-2.2-3.075L66.206,75.1c1.537,1.647,2.086,1.977,2.086,2.855Z" transform="translate(3.501 3.364)" fill="#fff"/>
    <path id="Контур_198" data-name="Контур 198" d="M46.853,102.226H43.12c-1.1,0-1.1-.988-1.208-1.757V95.2h1.647a6.919,6.919,0,0,1,3.514.549,3.771,3.771,0,0,0-3.514-2.086H41.912V92.014s0-1.537-.329-1.867H44c2.086,0,3.733,0,5.49,1.1,0,0-.329-2.745-4.392-2.745H37.3a4.764,4.764,0,0,1,1.318,3.624v9.663c0,2.416.988,2.526.988,2.526h7.8a2.163,2.163,0,0,0,2.416-1.977v-.878c0-.329-.659.769-2.965.769Z" transform="translate(0.893 4.678)" fill="#fff"/>
    <path id="Контур_199" data-name="Контур 199" d="M66.559,101.2V94.5c0-2.635-2.086-3.294-3.733-3.294a3.149,3.149,0,0,0-2.965,2.306A3.52,3.52,0,0,0,56.347,91.1a3.364,3.364,0,0,0-3.184,2.416s-.11-2.306-2.086-2.306H49.1s1.1.439,1.1,2.526V101.2c0,2.526.988,2.526.988,2.526h3.294a2.924,2.924,0,0,1-1.318-2.526V94.614A1.826,1.826,0,0,1,55.139,93.3a1.88,1.88,0,0,1,1.647,1.757V101.2c0,2.526.988,2.526.988,2.526h3.294a3.215,3.215,0,0,1-1.318-2.526V94.614a1.828,1.828,0,0,1,1.867-1.208,1.806,1.806,0,0,1,1.757,1.757v6.149c0,2.526.988,2.526.988,2.526h3.294a3.767,3.767,0,0,1-1.1-2.635Z" transform="translate(2.05 4.933)" fill="#fff"/>
    <path id="Контур_200" data-name="Контур 200" d="M70.563,101.193a3.215,3.215,0,0,0,1.318,2.526H68.586s-.988,0-.988-2.526h0V93.726c0-1.977-1.1-2.526-1.1-2.526h1.977c.769,0,2.2,0,2.2,2.745l-.11,7.247Z" transform="translate(3.757 4.943)" fill="#fff"/>
    <path id="Контур_201" data-name="Контур 201" d="M80.255,92.188s-.329-.878-1.757-.878c-2.086,0-2.526,2.416-2.526,2.416-.11-1.977-.769-2.526-2.2-2.526H71.8s1.208.439,1.208,2.526v7.467c0,2.526.988,2.526.988,2.526H77.29a2.924,2.924,0,0,1-1.318-2.526V95.043a1.806,1.806,0,0,1,.878-1.318,2.571,2.571,0,0,1,3.4.549V92.188Z" transform="translate(4.276 4.943)" fill="#fff"/>
    <path id="Контур_202" data-name="Контур 202" d="M94.03,92.883a4.894,4.894,0,0,1,1.977.439V91.455H93.261V88.6a10.944,10.944,0,0,1-2.2,2.526A23.343,23.343,0,0,1,88.1,92.883h2.086v8.675c0,2.416.988,2.416.988,2.416h3.294a3.192,3.192,0,0,1-1.208-2.416V92.883Z" transform="translate(5.875 4.688)" fill="#fff"/>
    <path id="Контур_203" data-name="Контур 203" d="M101.32,95.6c.549-.988.988-3.624-.878-3.4-2.2.11-1.757,5.93-1.757,5.93.769-.878,1.757-.988,2.635-2.526Zm2.086.769c-1.867,1.977-3.294,1.647-4.392,3.075a3.734,3.734,0,0,0,1.647,2.635,2.9,2.9,0,0,0,3.843-1.428v2.2s-.878.878-3.514.878c-3.184,0-5.49-2.526-5.49-6.039,0-3.4,1.757-6.588,5.161-6.588,3.294,0,5.161,2.745,2.745,5.271Z" transform="translate(6.601 4.933)" fill="#fff"/>
    <path id="Контур_204" data-name="Контур 204" d="M69.037,90.575A1.537,1.537,0,1,0,67.5,89.037a1.5,1.5,0,0,0,1.537,1.537Z" transform="translate(3.855 4.58)" fill="#fff"/>
    <path id="Контур_205" data-name="Контур 205" d="M109.751,100.324a2.242,2.242,0,0,1-2.416,2.086,2.951,2.951,0,0,1-2.416-1.757v2.2a5.768,5.768,0,0,0,3.184.878h0c2.306,0,4.5-1.757,4.392-4.063a3.8,3.8,0,0,0-.769-2.2,12.165,12.165,0,0,0-3.294-2.416c-1.537-.878-1.318-2.745.878-2.526a2.9,2.9,0,0,1,2.306,1.757v-2.2a5.763,5.763,0,0,0-3.184-.988c-1.977,0-3.733,1.318-3.733,2.965a3.862,3.862,0,0,0,1.867,3.294c.439.329,1.1.659,1.757,1.1.988.549,1.428,1.208,1.428,1.867Z" transform="translate(7.503 4.933)" fill="#fff"/>
    <path id="Контур_206" data-name="Контур 206" d="M85.249,93.955A2.406,2.406,0,0,1,83.6,96.041c-1.977.878-4.5,1.757-4.5,4.722,0,1.867,1.428,2.965,3.4,2.965a2.737,2.737,0,0,0,2.635-1.537c.22,1.428.988,1.428.988,1.428h3.294a3.215,3.215,0,0,1-1.318-2.526h0V94.065c0-1.647-1.867-2.965-3.843-2.965a5.6,5.6,0,0,0-3.075.878v2.2A2.758,2.758,0,0,1,83.6,92.418a1.582,1.582,0,0,1,1.647,1.537ZM83.383,102.3a1.567,1.567,0,0,1-1.757-1.757c0-2.855,2.526-3.4,3.294-4.173v5.271a2.282,2.282,0,0,1-1.537.659Z" transform="translate(4.992 4.933)" fill="#fff"/>
  </g>
</svg>
