<svg xmlns="http://www.w3.org/2000/svg" width="148.638" height="70.499" viewBox="0 0 148.638 70.499">
  <g id="Сгруппировать_196" data-name="Сгруппировать 196" transform="translate(-13.331 -45.751)">
    <path id="Контур_620" data-name="Контур 620" d="M24.5,78.977c-.693,0-1.038.218-1.038.652h-.356v-3.5h.356c0,.592.345.889,1.038.889h6.37v.356a.522.522,0,0,0-.429.134,1.2,1.2,0,0,0-.1.636v2.578a1.164,1.164,0,0,0,.118.652.671.671,0,0,0,.415.207v.356A12.852,12.852,0,0,1,26.5,84.282a14.793,14.793,0,0,1-4.1.652,11.76,11.76,0,0,1-3.615-.534,8.388,8.388,0,0,1-2.874-1.556,7.128,7.128,0,0,1-2.579-5.586A7.778,7.778,0,0,1,14,74.028a8.161,8.161,0,0,1,1.837-2.592A8.411,8.411,0,0,1,18.606,69.7a9.576,9.576,0,0,1,3.5-.623,13.827,13.827,0,0,1,3.185.312,11.559,11.559,0,0,1,2.119.7,9.624,9.624,0,0,1,1.289.7,1.456,1.456,0,0,0,.725.31.468.468,0,0,0,.341-.1,1.331,1.331,0,0,0,.193-.252l.356.237-2.074,3.051-.356-.237A.483.483,0,0,0,28,73.436q0-.266-.445-.651a5.747,5.747,0,0,0-1.229-.771,9.632,9.632,0,0,0-4.164-.92,7.689,7.689,0,0,0-2.874.489,5.69,5.69,0,0,0-2,1.3,5.108,5.108,0,0,0-1.156,1.882,6.813,6.813,0,0,0-.37,2.252,6,6,0,0,0,.518,2.563,5.7,5.7,0,0,0,1.363,1.866,5.94,5.94,0,0,0,1.941,1.157,6.606,6.606,0,0,0,2.281.4,11.227,11.227,0,0,0,3.5-.5,8.518,8.518,0,0,0,2.548-1.274V78.977Z" transform="translate(0 4.785)" fill="#9d8858"/>
    <path id="Контур_621" data-name="Контур 621" d="M40.823,76.043a3.746,3.746,0,0,0,2.549-.682,2.413,2.413,0,0,0,.74-1.867,3.016,3.016,0,0,0-.148-1.007,1.46,1.46,0,0,0-.533-.7,2.658,2.658,0,0,0-1.052-.415,8.931,8.931,0,0,0-1.7-.133H34.334v4.8Zm-6.49,7.7a.827.827,0,0,0,.148.518.675.675,0,0,0,.563.192v.357H31.134v-.357a.676.676,0,0,0,.563-.192.827.827,0,0,0,.148-.518V70.295a.831.831,0,0,0-.148-.519.68.68,0,0,0-.563-.193v-.356h9.927a6.367,6.367,0,0,1,4.207,1.112,4.034,4.034,0,0,1,1.275,3.214,4.288,4.288,0,0,1-.979,2.963,5.037,5.037,0,0,1-3.2,1.393L46.1,83.689a2.948,2.948,0,0,0,.518.622,1.064,1.064,0,0,0,.638.147v.357H42.986v-.357a1.231,1.231,0,0,0,.489-.058.219.219,0,0,0,.1-.207.453.453,0,0,0-.148-.327l-3.646-5.808H34.334v5.689Z" transform="translate(3.652 4.816)" fill="#9d8858"/>
    <path id="Контур_622" data-name="Контур 622" d="M48.221,70.4a.831.831,0,0,0-.148-.519.683.683,0,0,0-.564-.193v-.356H59.925A2.189,2.189,0,0,0,60.9,69.2a.5.5,0,0,0,.208-.46h.356v3.378h-.356a.79.79,0,0,0-.237-.606,1.38,1.38,0,0,0-.918-.223H50.71v4.682h6.015a1.892,1.892,0,0,0,.875-.177.671.671,0,0,0,.341-.652H58.3v3.585h-.356a.69.69,0,0,0-.268-.622,1.653,1.653,0,0,0-.888-.178H50.71v5.037h9.9a1.534,1.534,0,0,0,.918-.222.926.926,0,0,0,.3-.786h.356v3.527h-.356q0-.564-1.038-.564H47.509v-.357a.679.679,0,0,0,.564-.192.827.827,0,0,0,.148-.518V70.4Z" transform="translate(7.011 4.715)" fill="#9d8858"/>
    <path id="Контур_623" data-name="Контур 623" d="M78.755,82.74a.565.565,0,0,0-.445-.207q-.148,0-.607.386a8.192,8.192,0,0,1-1.3.845,10.136,10.136,0,0,1-2.148.815,12.254,12.254,0,0,1-3.172.356,11.569,11.569,0,0,1-3.793-.593,8.43,8.43,0,0,1-2.948-1.7A7.775,7.775,0,0,1,62.427,80a8.085,8.085,0,0,1-.681-3.335,6.7,6.7,0,0,1,.638-2.874,7.314,7.314,0,0,1,1.837-2.415,9.109,9.109,0,0,1,2.9-1.674,11.137,11.137,0,0,1,3.837-.623,12.491,12.491,0,0,1,2.638.253,18.122,18.122,0,0,1,2.014.548q.86.3,1.408.548a2.279,2.279,0,0,0,.757.251c.157,0,.257-.024.3-.072s.089-.114.148-.194l.357.237L76.74,73.821l-.386-.178a.518.518,0,0,0,.148-.384q0-.237-.445-.607a5.142,5.142,0,0,0-1.215-.711,10.782,10.782,0,0,0-1.808-.593,9.422,9.422,0,0,0-2.222-.253,8.676,8.676,0,0,0-2.385.342A6.328,6.328,0,0,0,66.3,72.487a5.391,5.391,0,0,0-2.12,4.475,5.012,5.012,0,0,0,.607,2.445A6.252,6.252,0,0,0,66.4,81.318a7.723,7.723,0,0,0,2.3,1.245,8.077,8.077,0,0,0,2.652.443,6.565,6.565,0,0,0,2.029-.31,8.193,8.193,0,0,0,1.7-.757,5.75,5.75,0,0,0,1.185-.9,1.261,1.261,0,0,0,.446-.754.563.563,0,0,0-.149-.416l.386-.237,2.192,2.845-.384.266Z" transform="translate(9.931 4.785)" fill="#9d8858"/>
    <path id="Контур_624" data-name="Контур 624" d="M87.189,71.094a6.45,6.45,0,0,0-4.666,1.587,6.628,6.628,0,0,0,0,8.741,7.664,7.664,0,0,0,9.334,0,6.628,6.628,0,0,0,0-8.741,6.455,6.455,0,0,0-4.667-1.587Zm0-2.015a11.708,11.708,0,0,1,3.556.519,8.091,8.091,0,0,1,2.83,1.541,7.032,7.032,0,0,1,1.867,2.5,9.048,9.048,0,0,1,0,6.816,6.886,6.886,0,0,1-1.867,2.489,7.873,7.873,0,0,1-2.83,1.5,13.165,13.165,0,0,1-7.111,0,7.864,7.864,0,0,1-2.83-1.5,6.875,6.875,0,0,1-1.868-2.489,9.048,9.048,0,0,1,0-6.816,7.021,7.021,0,0,1,1.868-2.5,8.08,8.08,0,0,1,2.83-1.541,11.7,11.7,0,0,1,3.555-.519Z" transform="translate(13.321 4.785)" fill="#9d8858"/>
    <path id="Контур_625" data-name="Контур 625" d="M100.159,84.589a.676.676,0,0,0,.563-.192.827.827,0,0,0,.148-.518V71.314H95.892a1.479,1.479,0,0,0-.8.163.692.692,0,0,0-.237.609H94.5v-3.5h.356c0,.515.346.77,1.038.77h12.445c.692,0,1.038-.255,1.038-.77h.356v3.5h-.356a.688.688,0,0,0-.237-.609,1.479,1.479,0,0,0-.8-.163h-4.978V83.879a.82.82,0,0,0,.149.518.673.673,0,0,0,.563.192v.357h-3.912v-.357Z" transform="translate(16.65 4.685)" fill="#9d8858"/>
    <path id="Контур_626" data-name="Контур 626" d="M110.233,70.4a.831.831,0,0,0-.148-.519.68.68,0,0,0-.563-.193v-.356h12.416a2.193,2.193,0,0,0,.977-.133.507.507,0,0,0,.207-.46h.356v3.378h-.356a.79.79,0,0,0-.236-.606,1.38,1.38,0,0,0-.918-.223h-9.246v4.682h6.015a1.883,1.883,0,0,0,.874-.177.669.669,0,0,0,.341-.652h.357v3.585h-.357a.692.692,0,0,0-.266-.622,1.658,1.658,0,0,0-.889-.178h-6.074v5.037h9.9a1.538,1.538,0,0,0,.92-.222.926.926,0,0,0,.3-.786h.357v3.527h-.357q0-.564-1.036-.564H109.522v-.357a.676.676,0,0,0,.563-.192.827.827,0,0,0,.148-.518V70.4Z" transform="translate(19.732 4.715)" fill="#9d8858"/>
    <path id="Контур_627" data-name="Контур 627" d="M128.507,69.583a.652.652,0,0,0-.563.207,1.076,1.076,0,0,0-.148.623V82.858h9.957q1.038,0,1.036-.888h.357v3.408h-.357q0-.564-1.036-.564H124.6v-.357a.675.675,0,0,0,.563-.192.82.82,0,0,0,.149-.518V70.295a.824.824,0,0,0-.149-.519.678.678,0,0,0-.563-.193v-.356h3.912v.356Z" transform="translate(22.824 4.816)" fill="#9d8858"/>
    <path id="Контур_628" data-name="Контур 628" d="M37.714,91.662a.229.229,0,0,0,.042.145.186.186,0,0,0,.157.054v.1H36.822v-.1a.187.187,0,0,0,.157-.054.229.229,0,0,0,.041-.145V90.01H34.1v1.652a.229.229,0,0,0,.041.145.187.187,0,0,0,.157.054v.1H33.2v-.1a.187.187,0,0,0,.157-.054.229.229,0,0,0,.042-.145V87.911a.227.227,0,0,0-.042-.145.187.187,0,0,0-.157-.054v-.1h1.091v.1a.187.187,0,0,0-.157.054.227.227,0,0,0-.041.145v1.553H37.02V87.911a.227.227,0,0,0-.041-.145.187.187,0,0,0-.157-.054v-.1h1.091v.1a.186.186,0,0,0-.157.054.227.227,0,0,0-.042.145v3.752Z" transform="translate(4.076 8.587)" fill="#9d8858"/>
    <path id="Контур_629" data-name="Контур 629" d="M41.752,88.134a1.8,1.8,0,0,0-1.3.442,1.848,1.848,0,0,0,0,2.438,2.136,2.136,0,0,0,2.6,0,1.848,1.848,0,0,0,0-2.438,1.8,1.8,0,0,0-1.3-.442Zm0-.562a3.255,3.255,0,0,1,.992.145,2.273,2.273,0,0,1,.789.429,1.973,1.973,0,0,1,.521.7,2.529,2.529,0,0,1,0,1.9,1.918,1.918,0,0,1-.521.694,2.193,2.193,0,0,1-.789.417,3.68,3.68,0,0,1-1.984,0,2.193,2.193,0,0,1-.789-.417,1.918,1.918,0,0,1-.521-.694,2.529,2.529,0,0,1,0-1.9,1.973,1.973,0,0,1,.521-.7,2.273,2.273,0,0,1,.789-.429,3.261,3.261,0,0,1,.992-.145Z" transform="translate(5.32 8.579)" fill="#9d8858"/>
    <path id="Контур_630" data-name="Контур 630" d="M46.742,91.9a.187.187,0,0,0,.157-.054.229.229,0,0,0,.042-.145v-3.5H45.552a.415.415,0,0,0-.224.046.193.193,0,0,0-.066.169h-.1v-.975h.1c0,.145.1.216.29.216h3.471c.193,0,.289-.071.289-.216h.1v.975h-.1a.19.19,0,0,0-.066-.169.41.41,0,0,0-.223-.046H47.635v3.5a.229.229,0,0,0,.041.145.187.187,0,0,0,.157.054V92H46.742v-.1Z" transform="translate(6.53 8.551)" fill="#9d8858"/>
    <path id="Контур_631" data-name="Контур 631" d="M50.924,87.939a.227.227,0,0,0-.042-.145.187.187,0,0,0-.157-.054v-.1h3.464a.6.6,0,0,0,.272-.037.141.141,0,0,0,.058-.128h.1v.941h-.1a.218.218,0,0,0-.066-.169.388.388,0,0,0-.255-.063H51.618v1.306H53.3a.53.53,0,0,0,.243-.049.187.187,0,0,0,.1-.182h.1v1h-.1a.2.2,0,0,0-.074-.175.473.473,0,0,0-.248-.048H51.618v1.4h2.761a.429.429,0,0,0,.255-.061.26.26,0,0,0,.082-.219h.1v.983h-.1c0-.1-.1-.157-.288-.157h-3.7v-.1a.187.187,0,0,0,.157-.054.229.229,0,0,0,.042-.145V87.939Z" transform="translate(7.671 8.559)" fill="#9d8858"/>
    <path id="Контур_632" data-name="Контур 632" d="M57.393,87.712a.182.182,0,0,0-.158.058.3.3,0,0,0-.041.174v3.471h2.777c.193,0,.289-.082.289-.247h.1v.95h-.1c0-.1-.1-.157-.289-.157H56.3v-.1a.186.186,0,0,0,.157-.054.229.229,0,0,0,.042-.145V87.911a.227.227,0,0,0-.042-.145.186.186,0,0,0-.157-.054v-.1h1.092v.1Z" transform="translate(8.814 8.587)" fill="#9d8858"/>
    <path id="Контур_633" data-name="Контур 633" d="M61.909,90.662a.3.3,0,0,0-.024.108.333.333,0,0,0,.145.239,1.484,1.484,0,0,0,.38.228,2.976,2.976,0,0,0,.533.17,2.826,2.826,0,0,0,.6.066,2.117,2.117,0,0,0,1.136-.233.687.687,0,0,0,.352-.594.466.466,0,0,0-.087-.289.559.559,0,0,0-.24-.178,1.435,1.435,0,0,0-.356-.087,3.754,3.754,0,0,0-.434-.025c-.254,0-.522,0-.806,0a2.885,2.885,0,0,1-.781-.107,1.3,1.3,0,0,1-.587-.343.983.983,0,0,1-.231-.71.95.95,0,0,1,.165-.542,1.449,1.449,0,0,1,.451-.417,2.468,2.468,0,0,1,.674-.272,3.393,3.393,0,0,1,.842-.1,3.273,3.273,0,0,1,.616.049,4.252,4.252,0,0,1,.451.107c.127.039.231.075.315.107a.559.559,0,0,0,.206.049.217.217,0,0,0,.133-.033.938.938,0,0,0,.082-.075l.1.041-.456.951L65,88.712a.4.4,0,0,0,.008-.107c0-.039-.033-.086-.1-.141a1.237,1.237,0,0,0-.281-.161,2.4,2.4,0,0,0-.435-.131,2.606,2.606,0,0,0-.55-.054,2.232,2.232,0,0,0-1.062.215.64.64,0,0,0-.393.563.363.363,0,0,0,.087.252.587.587,0,0,0,.24.149,1.408,1.408,0,0,0,.356.07c.135.011.28.017.434.017q.389,0,.81.011a2.812,2.812,0,0,1,.777.129,1.322,1.322,0,0,1,.587.372,1.087,1.087,0,0,1,.231.752,1.035,1.035,0,0,1-.136.509,1.326,1.326,0,0,1-.41.434,2.144,2.144,0,0,1-.674.3,3.637,3.637,0,0,1-.929.106,3.7,3.7,0,0,1-.772-.07,3.281,3.281,0,0,1-.558-.165c-.154-.063-.281-.122-.381-.174a.557.557,0,0,0-.24-.078.251.251,0,0,0-.174.1l-.082-.049.446-.95.107.057Z" transform="translate(9.851 8.579)" fill="#9d8858"/>
    <path id="Контур_634" data-name="Контур 634" d="M72.575,88.646a.616.616,0,0,0-.174-.417.72.72,0,0,0-.562-.194.622.622,0,0,0-.711.628.558.558,0,0,0,.174.4.731.731,0,0,0,.546.178.818.818,0,0,0,.536-.157.535.535,0,0,0,.19-.439Zm-1.933,1.992a.809.809,0,0,0,.272.653,1.112,1.112,0,0,0,.744.231,1.363,1.363,0,0,0,.5-.083,1.14,1.14,0,0,0,.351-.207.867.867,0,0,0,.211-.264.6.6,0,0,0,.071-.264.616.616,0,0,0-.1-.311,1.258,1.258,0,0,0-.247-.3,1.291,1.291,0,0,0-.356-.224,1.071,1.071,0,0,0-.417-.086,1.376,1.376,0,0,0-.389.057.966.966,0,0,0-.33.171.869.869,0,0,0-.228.268.722.722,0,0,0-.086.355Zm3.735-.711a.282.282,0,0,0-.029-.149.081.081,0,0,0-.061-.04.313.313,0,0,0-.187.1,2,2,0,0,0-.231.256,3.028,3.028,0,0,0-.227.347,2.439,2.439,0,0,0-.174.372,1.052,1.052,0,0,0,.186.264,1.515,1.515,0,0,0,.231.2,1.2,1.2,0,0,0,.219.124.43.43,0,0,0,.149.041.1.1,0,0,0,.1-.061.2.2,0,0,0,.02-.119h.1v.71h-.124c-.128,0-.24,0-.34-.008a.777.777,0,0,1-.284-.07,1.1,1.1,0,0,1-.274-.186,1.894,1.894,0,0,1-.284-.348,1.292,1.292,0,0,1-.686.5,2.811,2.811,0,0,1-.859.136,3.744,3.744,0,0,1-.653-.053,1.336,1.336,0,0,1-.529-.206,1.077,1.077,0,0,1-.352-.406,1.383,1.383,0,0,1-.128-.631,1.107,1.107,0,0,1,.078-.417,1.293,1.293,0,0,1,.216-.356,1.751,1.751,0,0,1,.313-.289,1.914,1.914,0,0,1,.368-.211.793.793,0,0,1-.3-.323.912.912,0,0,1-.108-.43.966.966,0,0,1,.422-.842,1.308,1.308,0,0,1,.439-.194,2.081,2.081,0,0,1,.5-.061,1.794,1.794,0,0,1,.562.082,1.368,1.368,0,0,1,.425.223.97.97,0,0,1,.274.331.9.9,0,0,1,.094.4.887.887,0,0,1-.169.578,1.166,1.166,0,0,1-.492.33.88.88,0,0,1,.359.248,1.278,1.278,0,0,1,.228.372,2.529,2.529,0,0,1,.521-.733,2,2,0,0,1,.777-.475v.992Z" transform="translate(11.617 8.579)" fill="#9d8858"/>
    <path id="Контур_635" data-name="Контур 635" d="M81.753,89.513a1.05,1.05,0,0,0,.71-.189.672.672,0,0,0,.207-.522.869.869,0,0,0-.041-.281.4.4,0,0,0-.149-.194.715.715,0,0,0-.293-.116,2.552,2.552,0,0,0-.476-.037H79.943v1.339Zm-1.81,2.149a.229.229,0,0,0,.041.145.189.189,0,0,0,.158.054v.1H79.05v-.1a.187.187,0,0,0,.157-.054.229.229,0,0,0,.041-.145V87.911a.227.227,0,0,0-.041-.145.187.187,0,0,0-.157-.054v-.1h2.769a1.776,1.776,0,0,1,1.174.31,1.127,1.127,0,0,1,.356.9,1.2,1.2,0,0,1-.274.827,1.4,1.4,0,0,1-.893.388l1.042,1.612a.85.85,0,0,0,.145.174.3.3,0,0,0,.177.041v.1H82.356v-.1a.35.35,0,0,0,.137-.017.061.061,0,0,0,.029-.058.127.127,0,0,0-.042-.09l-1.016-1.621H79.943v1.587Z" transform="translate(13.481 8.587)" fill="#9d8858"/>
    <path id="Контур_636" data-name="Контур 636" d="M85.188,87.939a.227.227,0,0,0-.041-.145.19.19,0,0,0-.158-.054v-.1h3.464a.611.611,0,0,0,.274-.037.143.143,0,0,0,.057-.128h.1v.941h-.1a.218.218,0,0,0-.066-.169.383.383,0,0,0-.255-.063H85.882v1.306H87.56a.538.538,0,0,0,.245-.049.189.189,0,0,0,.1-.182H88v1h-.1a.2.2,0,0,0-.075-.175.475.475,0,0,0-.248-.048H85.882v1.4h2.761a.429.429,0,0,0,.255-.061.257.257,0,0,0,.083-.219h.1v.983h-.1c0-.1-.1-.157-.289-.157h-3.7v-.1a.19.19,0,0,0,.158-.054.229.229,0,0,0,.041-.145V87.939Z" transform="translate(14.699 8.559)" fill="#9d8858"/>
    <path id="Контур_637" data-name="Контур 637" d="M90.955,90.662a.276.276,0,0,0-.025.108.333.333,0,0,0,.145.239,1.506,1.506,0,0,0,.38.228,2.959,2.959,0,0,0,.534.17,2.809,2.809,0,0,0,.6.066,2.113,2.113,0,0,0,1.135-.233.69.69,0,0,0,.352-.594.466.466,0,0,0-.087-.289.552.552,0,0,0-.24-.178,1.435,1.435,0,0,0-.356-.087,3.754,3.754,0,0,0-.434-.025c-.253,0-.522,0-.806,0a2.892,2.892,0,0,1-.781-.107,1.3,1.3,0,0,1-.587-.343.983.983,0,0,1-.23-.71.949.949,0,0,1,.164-.542,1.463,1.463,0,0,1,.451-.417,2.468,2.468,0,0,1,.674-.272,3.4,3.4,0,0,1,.844-.1,3.282,3.282,0,0,1,.616.049,4.3,4.3,0,0,1,.45.107c.128.039.231.075.315.107a.56.56,0,0,0,.207.049.212.212,0,0,0,.131-.033.935.935,0,0,0,.082-.075l.1.041-.454.951-.092-.058a.4.4,0,0,0,.008-.107c0-.039-.033-.086-.1-.141a1.237,1.237,0,0,0-.281-.161,2.418,2.418,0,0,0-.434-.131,2.623,2.623,0,0,0-.55-.054,2.232,2.232,0,0,0-1.062.215.638.638,0,0,0-.393.563.357.357,0,0,0,.087.252.572.572,0,0,0,.24.149,1.387,1.387,0,0,0,.354.07c.135.011.281.017.435.017.258,0,.529,0,.81.011a2.8,2.8,0,0,1,.776.129,1.322,1.322,0,0,1,.587.372,1.087,1.087,0,0,1,.231.752,1.035,1.035,0,0,1-.136.509,1.309,1.309,0,0,1-.409.434,2.182,2.182,0,0,1-.674.3,3.64,3.64,0,0,1-.93.106,3.7,3.7,0,0,1-.772-.07,3.281,3.281,0,0,1-.558-.165c-.154-.063-.281-.122-.38-.174a.566.566,0,0,0-.241-.078.247.247,0,0,0-.172.1l-.083-.049.447-.95.107.057Z" transform="translate(15.809 8.579)" fill="#9d8858"/>
    <path id="Контур_638" data-name="Контур 638" d="M98.422,88.134a1.8,1.8,0,0,0-1.3.442,1.851,1.851,0,0,0,0,2.438,2.136,2.136,0,0,0,2.6,0,1.848,1.848,0,0,0,0-2.438,1.8,1.8,0,0,0-1.3-.442Zm0-.562a3.249,3.249,0,0,1,.992.145,2.262,2.262,0,0,1,.789.429,1.976,1.976,0,0,1,.522.7,2.529,2.529,0,0,1,0,1.9,1.921,1.921,0,0,1-.522.694,2.183,2.183,0,0,1-.789.417,3.676,3.676,0,0,1-1.982,0,2.2,2.2,0,0,1-.791-.417,1.918,1.918,0,0,1-.521-.694,2.529,2.529,0,0,1,0-1.9,1.973,1.973,0,0,1,.521-.7,2.278,2.278,0,0,1,.791-.429,3.247,3.247,0,0,1,.991-.145Z" transform="translate(16.945 8.579)" fill="#9d8858"/>
    <path id="Контур_639" data-name="Контур 639" d="M104.921,89.513a1.05,1.05,0,0,0,.71-.189.672.672,0,0,0,.207-.522.837.837,0,0,0-.041-.281.4.4,0,0,0-.149-.194.715.715,0,0,0-.293-.116,2.552,2.552,0,0,0-.476-.037h-1.768v1.339Zm-1.81,2.149a.229.229,0,0,0,.041.145.187.187,0,0,0,.157.054v.1h-1.091v-.1a.186.186,0,0,0,.157-.054.229.229,0,0,0,.042-.145V87.911a.227.227,0,0,0-.042-.145.186.186,0,0,0-.157-.054v-.1h2.769a1.77,1.77,0,0,1,1.173.31,1.123,1.123,0,0,1,.356.9,1.2,1.2,0,0,1-.272.827,1.4,1.4,0,0,1-.893.388l1.041,1.612a.886.886,0,0,0,.146.174.3.3,0,0,0,.177.041v.1h-1.191v-.1a.35.35,0,0,0,.137-.017.061.061,0,0,0,.029-.058.127.127,0,0,0-.042-.09l-1.016-1.621h-1.521v1.587Z" transform="translate(18.233 8.587)" fill="#9d8858"/>
    <path id="Контур_640" data-name="Контур 640" d="M109.393,91.9a.19.19,0,0,0,.158-.054.229.229,0,0,0,.041-.145v-3.5H108.2a.408.408,0,0,0-.223.046.19.19,0,0,0-.066.169h-.1v-.975h.1c0,.145.1.216.289.216h3.471c.194,0,.289-.071.289-.216h.1v.975h-.1a.192.192,0,0,0-.065-.169.418.418,0,0,0-.224-.046h-1.388v3.5a.229.229,0,0,0,.041.145.189.189,0,0,0,.158.054V92h-1.092v-.1Z" transform="translate(19.381 8.551)" fill="#9d8858"/>
    <path id="Контур_641" data-name="Контур 641" d="M113.737,90.662a.273.273,0,0,0-.024.108.335.335,0,0,0,.143.239,1.515,1.515,0,0,0,.381.228,2.959,2.959,0,0,0,.534.17,2.807,2.807,0,0,0,.6.066,2.117,2.117,0,0,0,1.136-.233.69.69,0,0,0,.352-.594.474.474,0,0,0-.087-.289.552.552,0,0,0-.24-.178,1.435,1.435,0,0,0-.356-.087,3.754,3.754,0,0,0-.434-.025c-.254,0-.523,0-.806,0a2.885,2.885,0,0,1-.781-.107,1.3,1.3,0,0,1-.587-.343.983.983,0,0,1-.231-.71.95.95,0,0,1,.165-.542,1.436,1.436,0,0,1,.451-.417,2.452,2.452,0,0,1,.674-.272,3.393,3.393,0,0,1,.842-.1,3.282,3.282,0,0,1,.616.049,4.253,4.253,0,0,1,.451.107c.127.039.231.075.313.107a.57.57,0,0,0,.207.049.214.214,0,0,0,.133-.033.94.94,0,0,0,.082-.075l.1.041-.456.951-.09-.058a.4.4,0,0,0,.008-.107c0-.039-.034-.086-.1-.141a1.237,1.237,0,0,0-.281-.161,2.4,2.4,0,0,0-.435-.131,2.606,2.606,0,0,0-.55-.054,2.224,2.224,0,0,0-1.061.215.638.638,0,0,0-.393.563.357.357,0,0,0,.087.252.56.56,0,0,0,.239.149,1.408,1.408,0,0,0,.356.07c.135.011.28.017.434.017q.389,0,.811.011a2.819,2.819,0,0,1,.776.129,1.329,1.329,0,0,1,.587.372,1.087,1.087,0,0,1,.231.752,1.035,1.035,0,0,1-.136.509,1.334,1.334,0,0,1-.409.434,2.182,2.182,0,0,1-.674.3,3.656,3.656,0,0,1-.932.106,3.694,3.694,0,0,1-.771-.07,3.331,3.331,0,0,1-.559-.165c-.153-.063-.28-.122-.38-.174a.557.557,0,0,0-.24-.078.249.249,0,0,0-.174.1l-.082-.049.446-.95.107.057Z" transform="translate(20.483 8.579)" fill="#9d8858"/>
    <path id="Контур_642" data-name="Контур 642" d="M75.869,54.746l.884,4.362,4.22-1.416-3.337,2.946,3.337,2.946-4.22-1.416-.884,4.362-.883-4.362-4.22,1.417L74.1,60.639l-3.337-2.945,4.22,1.415" transform="translate(11.781 1.845)" fill="#9d8858" fill-rule="evenodd"/>
    <path id="Контур_643" data-name="Контур 643" d="M75.869,94.47l.884,4.363,4.22-1.416-3.337,2.946,3.337,2.946-4.22-1.416-.884,4.363-.883-4.363-4.22,1.418,3.337-2.948-3.337-2.945,4.22,1.415" transform="translate(11.781 9.994)" fill="#9d8858" fill-rule="evenodd"/>
    <path id="Контур_644" data-name="Контур 644" d="M75.489,45.751l.5,2.457,2.377-.8-1.88,1.659,1.88,1.66-2.377-.8-.5,2.457-.5-2.457-2.377.8,1.879-1.66-1.879-1.659,2.377.8" transform="translate(12.161 0)" fill="#9d8858" fill-rule="evenodd"/>
  </g>
</svg>
