<svg xmlns="http://www.w3.org/2000/svg" width="18.323" height="24.5" viewBox="0 0 18.323 24.5">
  <g id="Сгруппировать_261" data-name="Сгруппировать 261" transform="translate(-8.812 -7.103)">
    <circle id="Эллипс_1" data-name="Эллипс 1" cx="1.764" cy="1.764" r="1.764" transform="matrix(0.973, -0.23, 0.23, 0.973, 22.381, 27.796)" fill="currentColor"/>
    <circle id="Эллипс_2" data-name="Эллипс 2" cx="1.764" cy="1.764" r="1.764" transform="matrix(0.973, -0.23, 0.23, 0.973, 15.851, 27.796)" fill="currentColor"/>
    <circle id="Эллипс_3" data-name="Эллипс 3" cx="1.764" cy="1.764" r="1.764" transform="translate(8.948 29.108) rotate(-45)" fill="currentColor"/>
    <path id="Контур_731" data-name="Контур 731" d="M30.708,7.1,18.126,19.685l3.427,3.427L34.135,10.53ZM19.532,19.685,30.708,8.508l2.022,2.022L21.553,21.706Z" transform="translate(-7 0)" fill="currentColor"/>
    <path id="Контур_732" data-name="Контур 732" d="M8.812,63.877l.861.862,4.494-1.946-3.409-3.409Zm3.619-1.415-2.367,1.025,1.025-2.366Z" transform="translate(0 -39.291)" fill="currentColor"/>
  </g>
</svg>
