<svg xmlns="http://www.w3.org/2000/svg" width="22" height="21.194" viewBox="0 0 22 21.194">
  <g id="_002-message" data-name="002-message" transform="translate(0.2 -5.5)">
    <path id="Контур_736" data-name="Контур 736" d="M21.8,12.083,10.952,5.5-.2,12.124l.009.018V26.694H21.786V12.124h-.014ZM10.943,6.994l9.413,5.714-.539.5L18.2,14.632V11.454H3.436Zm-.317,9.413-2.6,2.286L4.065,15.216V12.1H17.549v3.1l-3.984,3.5-2.6-2.286Zm-7.2-4.944v3.192L1.779,13.206l-.534-.448Zm-2.536,2.4,6.316,5.546L.891,24.96Zm.892,11.749L10.8,17.7l9.015,7.914ZM20.7,24.96l-6.316-5.546L20.7,13.867Z" fill="#a7a7a7"/>
  </g>
</svg>
