<svg id="menu" xmlns="http://www.w3.org/2000/svg" width="32.037" height="32.037" viewBox="0 0 32.037 32.037">
  <path id="Контур_1367" data-name="Контур 1367" d="M16.019,32.037A16.019,16.019,0,1,1,32.037,16.019,16.036,16.036,0,0,1,16.019,32.037ZM16.019,2A14.016,14.016,0,1,0,30.035,16.019,14.032,14.032,0,0,0,16.019,2Zm0,0" fill="#606060"/>
  <path id="Контур_1368" data-name="Контур 1368" d="M161.68,151.334H150.333a1,1,0,1,1,0-2H161.68a1,1,0,1,1,0,2Zm0,0" transform="translate(-139.988 -139.988)" fill="#606060"/>
  <path id="Контур_1369" data-name="Контур 1369" d="M161.68,242H150.333a1,1,0,1,1,0-2H161.68a1,1,0,1,1,0,2Zm0,0" transform="translate(-139.988 -224.983)" fill="#606060"/>
  <path id="Контур_1370" data-name="Контур 1370" d="M161.68,332.67H150.333a1,1,0,1,1,0-2H161.68a1,1,0,1,1,0,2Zm0,0" transform="translate(-139.988 -309.977)" fill="#606060"/>
</svg>
