<svg xmlns="http://www.w3.org/2000/svg" width="76.727" height="77.392" viewBox="0 0 76.727 77.392">
  <g id="ico_preselected" transform="translate(-11.781 -11.781)">
    <g id="Group_313" data-name="Group 313">
      <g id="Group_302" data-name="Group 302">
        <path id="Path_844" data-name="Path 844" d="M39.934,38.815h3.531a2.522,2.522,0,1,1,0,5.039H41.344v3h-1.41Zm3.338,1.242H41.344v2.555h1.928a1.281,1.281,0,1,0,0-2.555Z" fill="#0098c1"/>
      </g>
      <g id="Group_303" data-name="Group 303">
        <path id="Path_845" data-name="Path 845" d="M50.068,43.854h-1.4v3h-1.41v-8.04h3.532a2.44,2.44,0,0,1,2.628,2.519,2.254,2.254,0,0,1-1.9,2.363l1.964,3.158H51.852Zm.53-3.8H48.669v2.555H50.6a1.281,1.281,0,1,0,0-2.555Z" fill="#0098c1"/>
      </g>
      <g id="Group_304" data-name="Group 304">
        <path id="Path_846" data-name="Path 846" d="M54.825,38.815h5.509v1.242h-4.1v2.085H60.25v1.242H56.236v2.23h4.1v1.241H54.825Z" fill="#0098c1"/>
      </g>
      <g id="Group_305" data-name="Group 305">
        <path id="Path_847" data-name="Path 847" d="M22.138,56.687a3.468,3.468,0,0,0,2.543,1.108c1.157,0,1.615-.566,1.615-1.1,0-.723-.856-.94-1.832-1.193-1.314-.325-2.857-.711-2.857-2.411,0-1.325,1.169-2.351,2.93-2.351a4.188,4.188,0,0,1,3.013,1.121l-.807,1.049A3.269,3.269,0,0,0,24.416,52c-.832,0-1.362.4-1.362,1,0,.626.82.831,1.772,1.072,1.326.338,2.905.747,2.905,2.495,0,1.338-.94,2.484-3.11,2.484a4.3,4.3,0,0,1-3.267-1.278Z" fill="#0098c1"/>
      </g>
      <g id="Group_306" data-name="Group 306">
        <path id="Path_848" data-name="Path 848" d="M29.029,50.864h5.509V52.1h-4.1v2.086h4.015v1.242H30.439v2.23h4.1V58.9H29.029Z" fill="#0098c1"/>
      </g>
      <g id="Group_307" data-name="Group 307">
        <path id="Path_849" data-name="Path 849" d="M35.982,50.864h1.41v6.8h3.544V58.9H35.982Z" fill="#0098c1"/>
      </g>
      <g id="Group_308" data-name="Group 308">
        <path id="Path_850" data-name="Path 850" d="M42.211,50.864H47.72V52.1h-4.1v2.086h4.014v1.242H43.621v2.23h4.1V58.9H42.211Z" fill="#0098c1"/>
      </g>
      <g id="Group_309" data-name="Group 309">
        <path id="Path_851" data-name="Path 851" d="M48.8,54.891a4.042,4.042,0,0,1,4.159-4.16,3.666,3.666,0,0,1,3.291,1.809l-1.2.614a2.413,2.413,0,0,0-2.086-1.169,2.912,2.912,0,0,0,0,5.81,2.387,2.387,0,0,0,2.086-1.169l1.2.615a3.68,3.68,0,0,1-3.291,1.808A4.042,4.042,0,0,1,48.8,54.891Z" fill="#0098c1"/>
      </g>
      <g id="Group_310" data-name="Group 310">
        <path id="Path_852" data-name="Path 852" d="M59.3,52.1H56.862V50.864h6.281V52.1H60.707v6.8H59.3Z" fill="#0098c1"/>
      </g>
      <g id="Group_311" data-name="Group 311">
        <path id="Path_853" data-name="Path 853" d="M64.332,50.864h5.51V52.1h-4.1v2.086h4.014v1.242H65.743v2.23h4.1V58.9h-5.51Z" fill="#0098c1"/>
      </g>
      <g id="Group_312" data-name="Group 312">
        <path id="Path_854" data-name="Path 854" d="M71.284,50.864h2.99a4.024,4.024,0,1,1,0,8.04h-2.99Zm2.99,6.8a2.641,2.641,0,0,0,2.76-2.772,2.605,2.605,0,0,0-2.76-2.786H72.695v5.558Z" fill="#0098c1"/>
      </g>
    </g>
    <path id="Path_855" data-name="Path 855" d="M88.508,87.169,77.665,76.326a37.967,37.967,0,1,0-2.022,1.986L86.5,89.173ZM50,85.384A35.384,35.384,0,1,1,85.384,50,35.424,35.424,0,0,1,50,85.384Z" fill="#0098c1"/>
  </g>
</svg>
