<svg xmlns="http://www.w3.org/2000/svg" width="16.495" height="16.357" viewBox="0 0 16.495 16.357">
  <g id="ico_filtres" transform="translate(-124.5 -125.6)">
    <path id="Контур_1374" data-name="Контур 1374" d="M125.5,129.093h8.943a2.487,2.487,0,0,0,4.553,0h.985a1,1,0,1,0,0-2.007H139a2.487,2.487,0,0,0-4.553,0H125.5a1,1,0,1,0,0,2.007Zm11.22-2.007a1,1,0,1,1-1,1A1.006,1.006,0,0,1,136.724,127.086Z" fill="#0098c1"/>
    <path id="Контур_1375" data-name="Контур 1375" d="M139.991,308.486h-.985a2.487,2.487,0,0,0-4.553,0H125.5a1,1,0,1,0,0,2.007h8.943a2.487,2.487,0,0,0,4.553,0h.985a1,1,0,0,0,.006-2.007Zm-3.268,2.007a1,1,0,1,1,1-1A1.006,1.006,0,0,1,136.724,310.493Z" transform="translate(0 -170.023)" fill="#0098c1"/>
    <path id="Контур_1376" data-name="Контур 1376" d="M140.085,217.786h-8.943a2.487,2.487,0,0,0-4.553,0H125.6a1,1,0,1,0,0,2.007h.985a2.487,2.487,0,0,0,4.553,0h8.943a1,1,0,0,0,0-2.007Zm-11.22,2.007a1,1,0,1,1,1-1A1.006,1.006,0,0,1,128.865,219.793Z" transform="translate(-0.094 -85.012)" fill="#0098c1"/>
  </g>
</svg>
