<svg xmlns="http://www.w3.org/2000/svg" width="76.05" height="80.522" viewBox="0 0 76.05 80.522">
  <g id="ico_maxcapacity" transform="translate(-18.298 -16.434)">
    <g id="Group_315" data-name="Group 315" transform="translate(19.382 16.434)">
      <path id="Path_856" data-name="Path 856" d="M42.351,36.345V22.671c0-2.759-1.2-4.438-3.958-4.438a7.212,7.212,0,0,0-5.517,3.358V36.345H30.717V22.671c0-2.759-1.08-4.438-3.958-4.438a7.212,7.212,0,0,0-5.517,3.358V36.345H19.2V16.914h2.039v3c.84-1.2,3.478-3.478,6.237-3.478a4.975,4.975,0,0,1,5.158,3.718,8.186,8.186,0,0,1,6.477-3.718c3.6,0,5.278,2.039,5.278,5.877V36.345Z" transform="translate(-19.202 -16.434)" fill="#0098c1"/>
      <path id="Path_857" data-name="Path 857" d="M58.236,36.345V34.066a8.361,8.361,0,0,1-6.6,2.759c-3.358,0-6.837-2.279-6.837-6.477s3.478-6.477,6.837-6.477a8.361,8.361,0,0,1,6.6,2.759V22.671c0-2.879-2.279-4.438-5.278-4.438a7.639,7.639,0,0,0-6.117,2.879l-1.2-1.439a9.549,9.549,0,0,1,7.437-3.239c3.958,0,7.077,1.919,7.077,6.237V36.345Zm0-3.838V28.189a7.181,7.181,0,0,0-5.877-2.639c-3.239,0-5.278,2.039-5.278,4.8s2.039,4.8,5.278,4.8A7.341,7.341,0,0,0,58.236,32.507Z" transform="translate(-14.096 -16.434)" fill="#0098c1"/>
      <path id="Path_858" data-name="Path 858" d="M76.475,36.265,70,27.629l-6.477,8.636H61l7.677-9.955-7.2-9.476H64l6,8.036,6-8.036h2.519l-7.2,9.476,7.677,9.955Z" transform="translate(-10.865 -16.354)" fill="#0098c1"/>
      <path id="Path_859" data-name="Path 859" d="M78.7,32.113a1.743,1.743,0,0,1,1.8-1.679,1.74,1.74,0,1,1-1.8,1.679Z" transform="translate(-7.334 -13.642)" fill="#0098c1"/>
    </g>
    <g id="Group_316" data-name="Group 316" transform="translate(18.298 40.851)">
      <path id="Path_860" data-name="Path 860" d="M23,39.9a4.079,4.079,0,0,1,3.481,1.618l-1.3,1.2A2.427,2.427,0,0,0,23.1,41.647a2.744,2.744,0,0,0-2.747,3.011,2.759,2.759,0,0,0,2.747,3.03,2.471,2.471,0,0,0,2.089-1.074l1.3,1.2A4.076,4.076,0,0,1,23,49.436,4.77,4.77,0,0,1,23,39.9Z" transform="translate(-18.298 -36.171)" fill="#0098c1"/>
      <path id="Path_861" data-name="Path 861" d="M32.209,48.233a3.836,3.836,0,0,1-2.935,1.2,3.018,3.018,0,0,1-3.161-3.009,2.926,2.926,0,0,1,3.161-2.954,3.756,3.756,0,0,1,2.935,1.166V43.284c0-1.053-.865-1.694-2.127-1.694a3.724,3.724,0,0,0-2.69,1.148l-.808-1.373A5.4,5.4,0,0,1,30.4,39.9c2.014,0,3.782.847,3.782,3.293v6.021H32.209Zm0-2.466a2.663,2.663,0,0,0-2.164-.94,1.653,1.653,0,1,0,0,3.255,2.66,2.66,0,0,0,2.164-.942Z" transform="translate(-16.739 -36.171)" fill="#0098c1"/>
      <path id="Path_862" data-name="Path 862" d="M34.979,52.672V40.124h1.976v1.241A3.625,3.625,0,0,1,39.87,39.9c2.352,0,4.027,1.769,4.027,4.761s-1.674,4.779-4.027,4.779a3.566,3.566,0,0,1-2.916-1.486v4.722Zm4.308-11.025a2.948,2.948,0,0,0-2.333,1.223v3.594a3,3,0,0,0,2.333,1.223c1.562,0,2.558-1.261,2.558-3.03C41.846,42.908,40.849,41.647,39.287,41.647Z" transform="translate(-14.971 -36.171)" fill="#0098c1"/>
      <path id="Path_863" data-name="Path 863" d="M49.722,48.233a3.839,3.839,0,0,1-2.936,1.2,3.018,3.018,0,0,1-3.161-3.009,2.926,2.926,0,0,1,3.161-2.954,3.76,3.76,0,0,1,2.936,1.166V43.284c0-1.053-.866-1.694-2.127-1.694A3.725,3.725,0,0,0,44.9,42.739L44.1,41.365A5.4,5.4,0,0,1,47.914,39.9c2.013,0,3.782.847,3.782,3.293v6.021H49.722Zm0-2.466a2.665,2.665,0,0,0-2.165-.94,1.652,1.652,0,1,0,0,3.255,2.662,2.662,0,0,0,2.165-.942Z" transform="translate(-13.246 -36.171)" fill="#0098c1"/>
      <path id="Path_864" data-name="Path 864" d="M56.724,39.9a4.077,4.077,0,0,1,3.481,1.618l-1.3,1.2a2.425,2.425,0,0,0-2.088-1.072,2.744,2.744,0,0,0-2.747,3.011,2.759,2.759,0,0,0,2.747,3.03,2.469,2.469,0,0,0,2.088-1.074l1.3,1.2a4.074,4.074,0,0,1-3.481,1.618,4.77,4.77,0,0,1,0-9.539Z" transform="translate(-11.572 -36.171)" fill="#0098c1"/>
      <path id="Path_865" data-name="Path 865" d="M60.085,38.014a1.234,1.234,0,0,1,1.225-1.223,1.223,1.223,0,0,1,0,2.447A1.234,1.234,0,0,1,60.085,38.014Zm.246,2.729h1.976V49.83H60.331Z" transform="translate(-9.963 -36.791)" fill="#0098c1"/>
      <path id="Path_866" data-name="Path 866" d="M64.652,47.479V42.23H63.147V40.5h1.505V38.015h1.974V40.5H68.47V42.23H66.627v4.759c0,.621.3,1.074.866,1.074a1.279,1.279,0,0,0,.884-.32l.47,1.486a2.608,2.608,0,0,1-1.863.583A2.1,2.1,0,0,1,64.652,47.479Z" transform="translate(-9.353 -36.547)" fill="#0098c1"/>
      <path id="Path_867" data-name="Path 867" d="M69.953,51.111a1.231,1.231,0,0,0,1.3-.79l.451-1.035-3.724-9.2h2.107L72.74,46.9l2.652-6.811h2.127L73.134,50.81a3.042,3.042,0,0,1-3.123,2.05,5.647,5.647,0,0,1-1.109-.131l.3-1.769A2.071,2.071,0,0,0,69.953,51.111Z" transform="translate(-8.389 -36.134)" fill="#0098c1"/>
    </g>
    <g id="Group_317" data-name="Group 317" transform="translate(19.128 60.598)">
      <path id="Path_868" data-name="Path 868" d="M35.96,68.654V67.279A5.075,5.075,0,0,1,32,68.944a3.9,3.9,0,0,1-4.077-3.884A3.853,3.853,0,0,1,32,61.2a5.041,5.041,0,0,1,3.956,1.665V60.5c0-1.737-1.4-2.678-3.137-2.678a4.53,4.53,0,0,0-3.642,1.714l-.7-.87a5.655,5.655,0,0,1,4.486-1.954c2.364,0,4.245,1.135,4.245,3.739v8.2Zm0-2.291V63.805a4.378,4.378,0,0,0-3.522-1.616,2.9,2.9,0,1,0,0,5.765A4.355,4.355,0,0,0,35.96,66.363Z" transform="translate(-17.207 -52.564)" fill="#0098c1"/>
      <path id="Path_869" data-name="Path 869" d="M39.447,66.892v-8.3h-1.93V57.483h1.93V54.3h1.279v3.183H43.09v1.111H40.726v8.1c0,.94.386,1.592,1.205,1.592a1.82,1.82,0,0,0,1.3-.554l.482.964a2.62,2.62,0,0,1-1.978.724C40.2,69.425,39.447,68.484,39.447,66.892Z" transform="translate(-15.295 -53.045)" fill="#0098c1"/>
      <path id="Path_870" data-name="Path 870" d="M57.17,68.654V67.279a5.071,5.071,0,0,1-3.955,1.665,3.9,3.9,0,0,1-4.077-3.884,3.853,3.853,0,0,1,4.077-3.86,5.037,5.037,0,0,1,3.955,1.665V60.5c0-1.737-1.4-2.678-3.135-2.678a4.532,4.532,0,0,0-3.642,1.714l-.7-.87a5.659,5.659,0,0,1,4.487-1.954c2.364,0,4.245,1.135,4.245,3.739v8.2Zm0-2.291V63.805a4.374,4.374,0,0,0-3.52-1.616,2.9,2.9,0,1,0,0,5.765A4.351,4.351,0,0,0,57.17,66.363Z" transform="translate(-12.977 -52.564)" fill="#0098c1"/>
      <path id="Path_871" data-name="Path 871" d="M60.135,69.343V53.254H61.39V69.343Z" transform="translate(-10.783 -53.254)" fill="#0098c1"/>
      <path id="Path_872" data-name="Path 872" d="M64.438,69.343V53.254h1.255V69.343Z" transform="translate(-9.925 -53.254)" fill="#0098c1"/>
      <path id="Path_873" data-name="Path 873" d="M18.99,79.472c0-3.376,2.388-6.1,5.621-6.1,3.546,0,5.5,2.822,5.5,6.175v.337H20.365a4.541,4.541,0,0,0,4.559,4.632A5.121,5.121,0,0,0,28.736,82.9l.651.819a6.016,6.016,0,0,1-4.56,1.882C21.426,85.6,18.99,83.066,18.99,79.472Zm5.6-5.016a4.385,4.385,0,0,0-4.221,4.438h8.467A4.271,4.271,0,0,0,24.585,74.456Z" transform="translate(-18.99 -49.242)" fill="#0098c1"/>
      <path id="Path_874" data-name="Path 874" d="M34.385,85.263,29.464,73.611h1.4l4.246,10.18,4.2-10.18h1.424L35.808,85.263Z" transform="translate(-16.901 -49.194)" fill="#0098c1"/>
      <path id="Path_875" data-name="Path 875" d="M40.06,79.472c0-3.376,2.387-6.1,5.621-6.1,3.546,0,5.5,2.822,5.5,6.175v.337H41.435a4.541,4.541,0,0,0,4.559,4.632A5.121,5.121,0,0,0,49.806,82.9l.65.819A6.012,6.012,0,0,1,45.9,85.6C42.5,85.6,40.06,83.066,40.06,79.472Zm5.6-5.016a4.385,4.385,0,0,0-4.221,4.438H49.9A4.271,4.271,0,0,0,45.655,74.456Z" transform="translate(-14.787 -49.242)" fill="#0098c1"/>
      <path id="Path_876" data-name="Path 876" d="M59.887,85.311V77.422c0-2.243-1.135-2.918-2.824-2.918a4.985,4.985,0,0,0-3.787,2v8.805H52.022V73.659h1.255V75.42a5.909,5.909,0,0,1,4.2-2.05c2.364,0,3.668,1.157,3.668,3.787v8.154Z" transform="translate(-12.402 -49.242)" fill="#0098c1"/>
      <path id="Path_877" data-name="Path 877" d="M63.4,83.548v-8.3h-1.93V74.141H63.4V70.956h1.279v3.185h2.364v1.111H64.681v8.1c0,.942.385,1.593,1.205,1.593a1.82,1.82,0,0,0,1.3-.554l.482.963a2.615,2.615,0,0,1-1.978.724C64.149,86.081,63.4,85.141,63.4,83.548Z" transform="translate(-10.517 -49.723)" fill="#0098c1"/>
      <path id="Path_878" data-name="Path 878" d="M67.563,83.766l.748-.94a4.854,4.854,0,0,0,3.763,1.713c1.954,0,3.111-1.014,3.111-2.364,0-3.185-7.356-1.4-7.356-5.571,0-1.785,1.519-3.233,4.149-3.233a5.358,5.358,0,0,1,4.173,1.712l-.7.892a4.244,4.244,0,0,0-3.472-1.544c-1.81,0-2.919.918-2.919,2.123,0,2.918,7.357,1.133,7.357,5.621,0,1.882-1.448,3.426-4.366,3.426A5.644,5.644,0,0,1,67.563,83.766Z" transform="translate(-9.302 -49.242)" fill="#0098c1"/>
    </g>
  </g>
</svg>
