<svg xmlns="http://www.w3.org/2000/svg" width="24.591" height="24.5" viewBox="0 0 24.591 24.5">
  <g id="writemessage" transform="translate(-11.5 -11.55)">
    <path id="Контур_1083" data-name="Контур 1083" d="M32.227,34.055a.391.391,0,0,1-.364.364H13.591a.391.391,0,0,1-.364-.364V15.782a.391.391,0,0,1,.364-.364h14L29.409,13.6H12.318a.815.815,0,0,0-.818.818v21a.815.815,0,0,0,.818.818h21a.815.815,0,0,0,.818-.818V18.236l-1.818,1.818v14Z" transform="translate(0 -0.186)" fill="#606060"/>
    <path id="Контур_1084" data-name="Контур 1084" d="M19.032,31.309,22.3,29.855,19.85,27.4,18.4,30.673A.5.5,0,0,0,19.032,31.309Z" transform="translate(-0.623 -1.441)" fill="#606060"/>
    <path id="Контур_1085" data-name="Контур 1085" d="M36.782,13.5l-1.818-1.818a.553.553,0,0,0-.727,0L20.6,25.323l2.545,2.545L36.782,14.232A.553.553,0,0,0,36.782,13.5Z" transform="translate(-0.827 0)" fill="#606060"/>
  </g>
</svg>
