<svg xmlns="http://www.w3.org/2000/svg" width="90.894" height="90.894" viewBox="0 0 90.894 90.894">
  <g id="ico_98percents" transform="translate(-4.553 -4.553)">
    <path id="Path_815" data-name="Path 815" d="M68.576,44.377c0-2.193-1.41-3.948-3.478-3.948-2.036,0-3.446,1.755-3.446,3.948a3.485,3.485,0,1,0,6.924,0Z" fill="#0098c1"/>
    <path id="Path_816" data-name="Path 816" d="M48.236,48.087c1.377-.236,4.23-1.041,4.23-3.156,0-1.88-1.846-2.988-4.23-2.988-2.45,0-4.263,1.108-4.263,2.988C43.973,47.046,46.86,47.851,48.236,48.087Z" fill="#0098c1"/>
    <path id="Path_817" data-name="Path 817" d="M27.792,41.91A4.156,4.156,0,0,0,23.328,45.8c0,2.753,2.148,4,4.565,4a6.055,6.055,0,0,0,4.9-2.619C32.593,44.763,31.25,41.91,27.792,41.91Z" fill="#0098c1"/>
    <path id="Path_818" data-name="Path 818" d="M87.762,57.511,95.447,50l-7.685-7.511,4.226-9.881-9.975-4,.123-10.745-10.745.123-4-9.975-9.881,4.226L50,4.553l-7.511,7.685L32.608,8.012l-4,9.975-10.745-.123.123,10.745-9.975,4,4.226,9.881L4.553,50l7.685,7.511L8.012,67.392l9.975,4-.123,10.745,10.745-.123,4,9.975,9.881-4.226L50,95.447l7.511-7.685,9.881,4.226,4-9.975,10.745.123-.123-10.745,9.975-4ZM26.953,61.548a8.8,8.8,0,0,1-6.411-2.484l1.812-2.954a5.878,5.878,0,0,0,4.6,1.947c4.062,0,5.908-3.692,5.908-7.352v-.672a7.761,7.761,0,0,1-6.009,3.157c-4.028,0-7.519-2.485-7.519-7.252,0-4.129,3.256-7.519,8.258-7.519,6.579,0,9.231,5.337,9.231,11.581C36.822,56.446,33.432,61.548,26.953,61.548Zm21.283.033c-4.6,0-8.594-2.114-8.594-6.142,0-2.854,2.316-4.9,5.036-5.808-2.518-.806-4.666-2.451-4.666-5.3,0-4.129,4.229-5.875,8.224-5.875,3.928,0,8.224,1.746,8.224,5.875,0,2.853-2.181,4.5-4.7,5.3,2.719.906,5.035,2.954,5.035,5.808C56.8,59.433,52.8,61.581,48.236,61.581Zm11.975-17.2a4.909,4.909,0,1,1,9.805,0,4.905,4.905,0,1,1-9.805,0Zm4.355,16.039h-1.41L76.5,39.521h1.442Zm11.183.376a5.142,5.142,0,1,1,4.918-5.106A4.857,4.857,0,0,1,75.749,60.792Z" fill="#0098c1"/>
    <path id="Path_819" data-name="Path 819" d="M75.749,51.739c-2.068,0-3.477,1.786-3.477,3.947a3.485,3.485,0,1,0,6.923,0C79.195,53.525,77.817,51.739,75.749,51.739Z" fill="#0098c1"/>
    <path id="Path_820" data-name="Path 820" d="M48.236,51.41c-1.41.168-4.632,1.208-4.632,3.525,0,1.947,2.081,3.155,4.632,3.155,2.484,0,4.6-1.208,4.6-3.155C52.835,52.618,49.613,51.578,48.236,51.41Z" fill="#0098c1"/>
  </g>
</svg>
