<svg id="Сгруппировать_4" data-name="Сгруппировать 4" xmlns="http://www.w3.org/2000/svg" width="25.169" height="29.589" viewBox="0 0 25.169 29.589">
  <g id="Сгруппировать_3" data-name="Сгруппировать 3" transform="translate(0)">
    <path id="Контур_75" data-name="Контур 75" d="M143.37,15.943h.2a5.654,5.654,0,0,0,4.32-1.869c2.359-2.659,1.967-7.218,1.924-7.653-.153-3.266-1.7-4.828-2.972-5.558a6.813,6.813,0,0,0-3.3-.864h-.1a6.823,6.823,0,0,0-3.3.839c-1.287.729-2.855,2.292-3.009,5.582-.043.435-.435,4.994,1.924,7.653A5.632,5.632,0,0,0,143.37,15.943Zm-4.6-9.369c0-.018.006-.037.006-.049.2-4.393,3.321-4.865,4.657-4.865h.074c1.654.037,4.467.711,4.657,4.865a.119.119,0,0,0,.006.049c.006.043.435,4.21-1.513,6.4a4.016,4.016,0,0,1-3.156,1.311h-.061a4,4,0,0,1-3.15-1.311C138.345,10.8,138.762,6.611,138.768,6.575Z" transform="translate(-130.892)" fill="#0098c1"/>
    <path id="Контур_76" data-name="Контур 76" d="M61.24,266.864v-.018c0-.049-.006-.1-.006-.153-.037-1.213-.116-4.05-2.776-4.957l-.061-.018a17.68,17.68,0,0,1-5.086-2.316.827.827,0,1,0-.95,1.354,19.085,19.085,0,0,0,5.594,2.555c1.428.509,1.587,2.034,1.63,3.431a1.231,1.231,0,0,0,.006.153,11.122,11.122,0,0,1-.129,1.893,22.551,22.551,0,0,1-10.8,2.512,22.681,22.681,0,0,1-10.809-2.518,10.528,10.528,0,0,1-.129-1.893c0-.049.006-.1.006-.153.043-1.4.2-2.923,1.63-3.431a19.262,19.262,0,0,0,5.594-2.555.827.827,0,0,0-.95-1.354,17.488,17.488,0,0,1-5.086,2.316c-.025.006-.043.012-.061.018-2.659.913-2.739,3.75-2.776,4.957a1.23,1.23,0,0,1-.006.153v.018a9.4,9.4,0,0,0,.313,2.776.786.786,0,0,0,.319.386c.184.123,4.589,2.929,11.961,2.929s11.777-2.812,11.961-2.929a.82.82,0,0,0,.319-.386A9.858,9.858,0,0,0,61.24,266.864Z" transform="translate(-36.073 -243.359)" fill="#0098c1"/>
  </g>
</svg>
