<svg id="Japan_logo" xmlns="http://www.w3.org/2000/svg" width="141.001" height="55.804" viewBox="0 0 141.001 55.804">
  <g id="Сгруппировать_47" data-name="Сгруппировать 47" transform="translate(90.521 4.154)">
    <path id="Контур_107" data-name="Контур 107" d="M101.694,53.206V61.3c0,2.982-1.81,4.26-4.047,4.26-3.088,0-3.834-1.7-4.047-4.153h2.556c0,.852.213,2.236,1.491,2.236,1.384,0,1.384-1.6,1.491-2.449V53.1h2.556Z" transform="translate(-93.6 -53.1)" fill="#1d1d1b"/>
    <path id="Контур_108" data-name="Контур 108" d="M102.919,59.062a2.223,2.223,0,0,1,1.171-2.13,4.619,4.619,0,0,1,2.449-.532c1.7,0,3.621.639,3.621,3.195v4.579c0,.426.107.639.107.958h-2.236c0-.426-.106-.745-.106-1.171h0a2.774,2.774,0,0,1-2.556,1.384A2.52,2.52,0,0,1,102.6,62.79a2.944,2.944,0,0,1,1.81-2.662,6.919,6.919,0,0,1,3.3-.426v-.745a1.154,1.154,0,0,0-1.171-1.065,1.236,1.236,0,0,0-1.171,1.171Zm2.023,3.408a1.148,1.148,0,0,0,1.278,1.171c1.384,0,1.491-1.6,1.491-2.556C106.753,61.086,104.943,61.086,104.943,62.47Z" transform="translate(-93.015 -52.886)" fill="#1d1d1b"/>
    <path id="Контур_109" data-name="Контур 109" d="M114.062,57.678h0A2.894,2.894,0,0,1,116.3,56.4c2.662,0,3.94,2.236,3.94,4.473,0,2.13-1.171,4.473-3.621,4.473a2.678,2.678,0,0,1-2.556-1.491h0v4.366h-2.556V58.21a9.161,9.161,0,0,0-.106-1.7h2.556Zm1.81,5.964c1.6,0,1.81-1.491,1.81-2.769s-.213-2.769-1.81-2.769c-1.384,0-1.81,1.6-1.81,2.769S114.488,63.642,115.873,63.642Z" transform="translate(-92.444 -52.886)" fill="#1d1d1b"/>
    <path id="Контур_110" data-name="Контур 110" d="M121.019,59.062a2.223,2.223,0,0,1,1.171-2.13,4.619,4.619,0,0,1,2.449-.532c1.7,0,3.621.639,3.621,3.195v4.579c0,.426.107.639.107.958h-2.236c0-.426-.106-.745-.106-1.171h0a2.774,2.774,0,0,1-2.556,1.384A2.52,2.52,0,0,1,120.7,62.79a2.944,2.944,0,0,1,1.81-2.662,6.919,6.919,0,0,1,3.3-.426v-.745a1.154,1.154,0,0,0-1.171-1.065,1.236,1.236,0,0,0-1.171,1.171Zm2.023,3.408a1.148,1.148,0,0,0,1.278,1.171c1.384,0,1.491-1.6,1.491-2.556C124.853,61.086,123.043,61.086,123.043,62.47Z" transform="translate(-91.84 -52.886)" fill="#1d1d1b"/>
    <path id="Контур_111" data-name="Контур 111" d="M132.049,57.678h0a3.189,3.189,0,0,1,5.431.532,8.856,8.856,0,0,1,.213,1.384v5.538h-2.556V60.021c0-.958-.213-1.917-1.491-1.917a1.726,1.726,0,0,0-1.491,1.917v5.112H129.6V56.719h2.449v.958Z" transform="translate(-91.262 -52.886)" fill="#1d1d1b"/>
    <path id="Контур_112" data-name="Контур 112" d="M139,64.736V62.5h2.13v2.236Z" transform="translate(-90.651 -52.489)" fill="#1d1d1b"/>
  </g>
  <g id="Сгруппировать_48" data-name="Сгруппировать 48" transform="translate(85.836 22.685)">
    <path id="Контур_113" data-name="Контур 113" d="M89.2,82.64V70.5h7.242v.958h-6.07v4.366h5.857v.958H90.371v4.792h6.39v.958H89.2Z" transform="translate(-89.2 -70.5)" fill="#1d1d1b"/>
    <path id="Контур_114" data-name="Контур 114" d="M99.465,82.426h-.958v-6.5a11.575,11.575,0,0,0-.106-1.917h1.065v1.278h0a2.939,2.939,0,0,1,2.662-1.491c2.769,0,2.982,2.449,2.982,3.408v5.325h-.958V77.1a2.1,2.1,0,0,0-2.236-2.343c-1.7,0-2.449,1.384-2.449,2.875Z" transform="translate(-88.602 -70.286)" fill="#1d1d1b"/>
    <path id="Контур_115" data-name="Контур 115" d="M112.783,81.363h0a3.536,3.536,0,0,1-2.875,1.491c-2.556,0-3.408-2.343-3.408-4.473s.958-4.473,3.408-4.473a3.266,3.266,0,0,1,2.875,1.491h0V70.5h.958V80.724a11.575,11.575,0,0,0,.106,1.917h-1.065Zm-2.769-6.5c-1.917,0-2.556,1.81-2.556,3.408S107.884,82,109.8,82c2.236,0,2.875-1.81,2.875-3.727C112.783,76.464,111.931,74.866,110.014,74.866Z" transform="translate(-88.076 -70.5)" fill="#1d1d1b"/>
    <path id="Контур_116" data-name="Контур 116" d="M116.758,82.64H115.8V70.5h.958Z" transform="translate(-87.472 -70.5)" fill="#1d1d1b"/>
    <path id="Контур_117" data-name="Контур 117" d="M119.871,78.386c0,1.81.852,3.3,2.875,3.3a2.6,2.6,0,0,0,2.449-2.023h1.065a3.6,3.6,0,0,1-3.834,2.982c-2.556,0-3.727-2.13-3.727-4.473,0-2.236,1.278-4.473,3.727-4.473,2.875,0,3.834,2.023,3.834,4.686h-6.39Zm5.325-.852c-.106-1.6-.958-2.875-2.769-2.875a2.824,2.824,0,0,0-2.662,2.875Z" transform="translate(-87.284 -70.292)" fill="#1d1d1b"/>
    <path id="Контур_118" data-name="Контур 118" d="M130.508,73.7c1.6,0,2.982.532,3.088,2.343h-1.065c-.107-1.065-1.065-1.384-2.13-1.384-.958,0-1.917.319-1.917,1.384,0,1.278,1.6,1.171,3.94,1.917a2.046,2.046,0,0,1,1.384,1.917c0,1.917-1.81,2.769-3.514,2.769-1.491,0-3.195-.745-3.195-2.556h1.065c.107,1.278,1.171,1.6,2.343,1.6,1.065,0,2.236-.532,2.236-1.7s-1.278-1.384-2.662-1.7c-1.278-.319-2.662-.745-2.662-2.236C127.419,74.339,129.017,73.7,130.508,73.7Z" transform="translate(-86.738 -70.292)" fill="#1d1d1b"/>
    <path id="Контур_119" data-name="Контур 119" d="M138.108,73.7c1.6,0,2.982.532,3.088,2.343h-1.065c-.107-1.065-1.065-1.384-2.13-1.384-.958,0-1.917.319-1.917,1.384,0,1.278,1.6,1.171,3.94,1.917a2.047,2.047,0,0,1,1.384,1.917c0,1.917-1.81,2.769-3.514,2.769-1.491,0-3.195-.745-3.195-2.556h1.065c.107,1.278,1.171,1.6,2.343,1.6,1.065,0,2.236-.532,2.236-1.7s-1.384-1.384-2.662-1.7-2.662-.745-2.662-2.236C135.019,74.339,136.617,73.7,138.108,73.7Z" transform="translate(-86.245 -70.292)" fill="#1d1d1b"/>
  </g>
  <g id="Сгруппировать_49" data-name="Сгруппировать 49" transform="translate(67.412 38.126)">
    <path id="Контур_120" data-name="Контур 120" d="M75.2,85c3.94,0,6.283,2.023,6.283,6.07s-2.236,6.07-6.283,6.07H71.9V85Zm.319,11.076c3.408,0,4.792-2.023,4.792-5.112,0-3.621-2.13-5.112-5.538-5.005h-1.7V96.076Z" transform="translate(-71.9 -85)" fill="#1d1d1b"/>
    <path id="Контур_121" data-name="Контур 121" d="M84.271,86.278H83.1V85h1.171Zm-.106,2.343v8.413h-.958V88.621Z" transform="translate(-71.173 -85)" fill="#1d1d1b"/>
    <path id="Контур_122" data-name="Контур 122" d="M89.508,88.2c1.6,0,2.982.532,3.088,2.343H91.531c-.106-1.065-1.065-1.384-2.13-1.384-.958,0-1.917.319-1.917,1.384,0,1.278,1.6,1.171,3.94,1.917a2.047,2.047,0,0,1,1.384,1.917c0,1.917-1.81,2.769-3.514,2.769-1.491,0-3.195-.639-3.195-2.556h1.065c.106,1.278,1.171,1.6,2.343,1.6,1.065,0,2.236-.532,2.236-1.7s-1.278-1.384-2.662-1.7c-1.278-.319-2.662-.745-2.662-2.236C86.419,88.839,88.017,88.2,89.508,88.2Z" transform="translate(-70.978 -84.792)" fill="#1d1d1b"/>
    <path id="Контур_123" data-name="Контур 123" d="M99.964,91.075c-.106-1.278-.958-1.917-2.343-1.917-1.6,0-2.556,1.6-2.556,3.514s.958,3.514,2.556,3.514a2.239,2.239,0,0,0,2.343-1.917h1.065a3.029,3.029,0,0,1-3.3,2.875c-2.556,0-3.727-2.13-3.727-4.473,0-2.236,1.278-4.473,3.727-4.473a2.944,2.944,0,0,1,3.195,2.875Z" transform="translate(-70.465 -84.792)" fill="#1d1d1b"/>
    <path id="Контур_124" data-name="Контур 124" d="M110.081,92.673c0,2.236-1.278,4.473-3.94,4.473s-3.94-2.236-3.94-4.473,1.278-4.473,3.94-4.473S110.081,90.436,110.081,92.673Zm-3.94-3.514c-2.023,0-2.875,2.023-2.875,3.514,0,1.6.852,3.514,2.875,3.514s2.875-2.023,2.875-3.514C109.016,91.075,108.164,89.158,106.14,89.158Z" transform="translate(-69.932 -84.792)" fill="#1d1d1b"/>
    <path id="Контур_125" data-name="Контур 125" d="M111.271,88.4l2.875,7.029,2.769-7.029h1.065l-3.3,8.413h-1.171L110.1,88.4Z" transform="translate(-69.419 -84.779)" fill="#1d1d1b"/>
    <path id="Контур_126" data-name="Контур 126" d="M119.371,92.886c0,1.81.852,3.3,2.875,3.3a2.6,2.6,0,0,0,2.449-2.023h1.065a3.6,3.6,0,0,1-3.834,2.982c-2.556,0-3.727-2.13-3.727-4.473,0-2.236,1.278-4.473,3.727-4.473,2.875,0,3.834,2.023,3.834,4.686Zm5.431-.852c-.106-1.6-.958-2.875-2.769-2.875a2.824,2.824,0,0,0-2.662,2.875Z" transform="translate(-68.893 -84.792)" fill="#1d1d1b"/>
    <path id="Контур_127" data-name="Контур 127" d="M128.565,96.926h-.958v-6.5a11.575,11.575,0,0,0-.106-1.917h1.065v1.278h0a2.153,2.153,0,0,1,1.917-1.491h.958v.958c-.213,0-.426-.107-.639-.107-1.491,0-2.236,1.065-2.343,2.662v5.112Z" transform="translate(-68.289 -84.786)" fill="#1d1d1b"/>
    <path id="Контур_128" data-name="Контур 128" d="M133.578,88.4l2.875,7.029,2.769-7.029h1.065L135.6,100.008h-1.065l1.278-3.195L132.3,88.4Z" transform="translate(-67.977 -84.779)" fill="#1d1d1b"/>
    <path id="Контур_129" data-name="Контур 129" d="M139.7,96.491V95h1.384v1.491Z" transform="translate(-67.496 -84.35)" fill="#1d1d1b"/>
  </g>
  <g id="Сгруппировать_51" data-name="Сгруппировать 51">
    <g id="Сгруппировать_50" data-name="Сгруппировать 50">
      <path id="Контур_130" data-name="Контур 130" d="M62.274,82.32c.213-2.13,1.917-4.473,4.9-5.857A7.121,7.121,0,0,1,69.2,75.93,27.969,27.969,0,0,0,13.286,77.1v1.384l.532-.532a4.923,4.923,0,0,1,.532,2.662A5.187,5.187,0,0,1,16.374,78.7a8.538,8.538,0,0,1,0,4.26,6.116,6.116,0,0,1-1.7,2.769A27.954,27.954,0,0,0,41.294,105a28.3,28.3,0,0,0,15.655-4.792c-.106-.107-.213-.213-.213-.32a6.091,6.091,0,0,1-.958-5.644c1.6-.213,3.621.745,5.112,2.662a.1.1,0,0,0,.106.106A27.857,27.857,0,0,0,68.77,82.959,9.581,9.581,0,0,1,62.274,82.32Zm-7.242-9.8a6.112,6.112,0,0,1,2.236-3.195,4.174,4.174,0,0,1,.532,2.449,4.884,4.884,0,0,1,1.81-1.81,8.009,8.009,0,0,1,.106,3.94,5.954,5.954,0,0,1-3.727,4.047A5.741,5.741,0,0,1,55.032,72.523ZM41.507,78.06a11.542,11.542,0,0,1,6.07,0,7.23,7.23,0,0,1-2.662,2.769,6.794,6.794,0,0,1,3.834.745,11.828,11.828,0,0,1-4.9,3.514,9.459,9.459,0,0,1-8.307-1.171C35.863,81.681,38.1,79.125,41.507,78.06ZM19.037,81.575a9.277,9.277,0,0,1,3.834-.745,8.139,8.139,0,0,1-2.662-2.769,11.542,11.542,0,0,1,6.07,0,9.456,9.456,0,0,1,6.07,5.857c-1.7,1.6-4.9,2.343-8.307,1.171A11.842,11.842,0,0,1,19.037,81.575ZM31.39,94.035a10.9,10.9,0,0,1-4.9,3.514,6.352,6.352,0,0,1,.532-3.834,9.226,9.226,0,0,1-3.514,1.7,11.274,11.274,0,0,1,1.917-5.751,9.679,9.679,0,0,1,7.455-3.94C33.839,87.858,33.52,91.159,31.39,94.035Zm-1.278-18.85a12.6,12.6,0,0,1,1.81-5.751,7.128,7.128,0,0,1,1.81,3.408,8.37,8.37,0,0,1,1.81-3.408,12.6,12.6,0,0,1,1.81,5.751,9.427,9.427,0,0,1-3.727,7.561A9.035,9.035,0,0,1,30.112,75.185ZM44.169,95.419a7.6,7.6,0,0,1-3.514-1.7,9.273,9.273,0,0,1,.532,3.834,13.254,13.254,0,0,1-4.9-3.514A9.588,9.588,0,0,1,34.8,85.728c2.343-.213,5.325,1.065,7.455,3.94A12.563,12.563,0,0,1,44.169,95.419Zm.639-4.047a4.923,4.923,0,0,1,2.662-.532,5.606,5.606,0,0,1-1.81-1.917,8.073,8.073,0,0,1,4.153,0,6.5,6.5,0,0,1,4.153,4.047,6.041,6.041,0,0,1-5.751.852A7.877,7.877,0,0,1,44.808,91.372ZM53.328,100a8.621,8.621,0,0,1-3.3,2.449,5.673,5.673,0,0,1,.319-2.662,5.806,5.806,0,0,1-2.449,1.171,8.283,8.283,0,0,1,1.278-3.94,6.131,6.131,0,0,1,5.112-2.662A6.059,6.059,0,0,1,53.328,100Zm1.6-7.774a5.951,5.951,0,0,1-2.556-5.218,8.2,8.2,0,0,1,1.278-3.94,5.812,5.812,0,0,1,1.278,2.343A5.812,5.812,0,0,1,56.2,83.066a8.2,8.2,0,0,1,1.278,3.94A6.661,6.661,0,0,1,54.926,92.224Zm6.816,1.6a6.677,6.677,0,0,1-5.751-.852,5.863,5.863,0,0,1,4.153-4.047,8.072,8.072,0,0,1,4.153,0,5.607,5.607,0,0,1-1.81,1.917,5.313,5.313,0,0,1,2.662.532A8.765,8.765,0,0,1,61.741,93.822Zm-1.81,8.626a5.673,5.673,0,0,0-.319-2.662,5.805,5.805,0,0,0,2.449,1.171,8.025,8.025,0,0,0-1.278-3.834,28.687,28.687,0,0,1-3.94,3.195A9.9,9.9,0,0,0,59.931,102.448ZM11.369,81.468a6.257,6.257,0,0,0,.852,5.857,6.874,6.874,0,0,0,2.449-1.491,32.286,32.286,0,0,1-1.384-7.242A7.907,7.907,0,0,0,11.369,81.468Zm59.1-2.875a7.85,7.85,0,0,0,2.13-2.769,15.345,15.345,0,0,0-3.408,0V77.1a25.985,25.985,0,0,1-.639,5.857,6,6,0,0,0,1.278-.426,10.472,10.472,0,0,0,4.047-3.621A4.941,4.941,0,0,0,70.474,78.593Zm-55.7,17.039A5.981,5.981,0,0,0,16.268,93.4a9.3,9.3,0,0,0-4.153.639C9.878,95.206,8.6,97.123,8.6,98.72a6.843,6.843,0,0,0,5.964-.107,7.767,7.767,0,0,0,2.982-2.982A6.777,6.777,0,0,0,14.777,95.632ZM76.544,63.151a7.364,7.364,0,0,0,2.662-2.343,11.429,11.429,0,0,0-5.431-.532c-3.195.745-5.325,2.769-5.964,4.792a8.527,8.527,0,0,0,7.455,1.7A9.861,9.861,0,0,0,79.952,64,8.806,8.806,0,0,0,76.544,63.151Z" transform="translate(-8.6 -49.199)" fill="#e1111a"/>
    </g>
  </g>
</svg>
