<svg xmlns="http://www.w3.org/2000/svg" width="141.2" height="56.148" viewBox="0 0 141.2 56.148">
  <g id="Kempinski_logo" transform="translate(-15.1 -52.9)">
    <path id="Контур_135" data-name="Контур 135" d="M32.872,95.2h1.066V101H32.872V98.4H30.266V101H29.2V95.2h1.066v2.251h2.606Z" transform="translate(2.602 7.807)" fill="#b4a090"/>
    <path id="Контур_136" data-name="Контур 136" d="M40.094,98.08a1.928,1.928,0,0,0-2.014-2.014,1.9,1.9,0,0,0-1.9,2.014,1.962,1.962,0,1,0,3.909,0Zm-2.014,3.08A2.988,2.988,0,0,1,35,98.08,2.922,2.922,0,0,1,38.08,95a3.082,3.082,0,1,1,0,6.16Z" transform="translate(3.673 7.77)" fill="#b4a090"/>
    <path id="Контур_137" data-name="Контур 137" d="M41.5,95.2h4.62v.948H44.461V101H43.277V96.148H41.5Z" transform="translate(4.872 7.807)" fill="#b4a090"/>
    <path id="Контур_138" data-name="Контур 138" d="M48.466,96.148v1.3h2.606v1.066H48.466v1.54h2.961V101H47.4V95.2h3.909v.948Z" transform="translate(5.961 7.807)" fill="#b4a090"/>
    <path id="Контур_139" data-name="Контур 139" d="M53.966,100.057h2.488V101H52.9V95.2h1.066Z" transform="translate(6.977 7.807)" fill="#b4a090"/>
    <path id="Контур_140" data-name="Контур 140" d="M57.7,95.2h1.066V101H57.7Z" transform="translate(7.862 7.807)" fill="#b4a090"/>
    <path id="Контур_141" data-name="Контур 141" d="M62.185,96.148v1.3h2.606v1.066H62.185v1.54h2.843V101H61V95.2h3.909v.948Z" transform="translate(8.471 7.807)" fill="#b4a090"/>
    <path id="Контур_142" data-name="Контур 142" d="M69.68,96.858c0-.592-.592-.711-1.066-.711h-.948v1.54H68.5c.474-.118,1.185-.118,1.185-.829Zm-.237,1.54L70.983,101h-1.3l-1.3-2.488h-.711V101H66.6V95.2h2.014c1.185,0,2.132.474,2.132,1.658a1.447,1.447,0,0,1-1.3,1.54Z" transform="translate(9.505 7.807)" fill="#b4a090"/>
    <path id="Контур_143" data-name="Контур 143" d="M74.861,97.569c.829.237,1.9.474,1.9,1.777s-1.066,1.9-2.251,1.9a3.153,3.153,0,0,1-2.606-1.066h0l.948-.592a2.166,2.166,0,0,0,1.658.711c.592,0,1.185-.237,1.185-.829,0-.355-.237-.592-.948-.711l-1.066-.237c-.829-.237-1.658-.474-1.658-1.54s.948-1.777,2.251-1.777a2.723,2.723,0,0,1,2.251,1.066l-.829.711a1.516,1.516,0,0,0-1.421-.711c-.592,0-1.066.237-1.066.711s.592.592,1.066.711l.592-.118Z" transform="translate(10.483 7.807)" fill="#b4a090"/>
    <path id="Контур_144" data-name="Контур 144" d="M83.861,97.569c.829.237,1.9.474,1.9,1.777s-1.066,1.9-2.251,1.9a3.153,3.153,0,0,1-2.606-1.066h0l.948-.592a2.166,2.166,0,0,0,1.658.711c.592,0,1.185-.237,1.185-.829,0-.355-.237-.592-.948-.711l-1.066-.237c-.829-.237-1.658-.474-1.658-1.54s.948-1.777,2.251-1.777a2.723,2.723,0,0,1,2.251,1.066l-.829.711a1.516,1.516,0,0,0-1.421-.711c-.592,0-1.066.237-1.066.711s.592.592,1.066.711l.592-.118Z" transform="translate(12.144 7.807)" fill="#b4a090"/>
    <path id="Контур_145" data-name="Контур 145" d="M87,95.2h1.066V101H87Z" transform="translate(13.27 7.807)" fill="#b4a090"/>
    <path id="Контур_146" data-name="Контур 146" d="M91.166,96.621V101H90.1V95.2h1.421l2.606,4.146V95.2h1.066V101h-1.3Z" transform="translate(13.842 7.807)" fill="#b4a090"/>
    <path id="Контур_147" data-name="Контур 147" d="M101.412,99.5a2.606,2.606,0,0,1-2.488,1.658,3.1,3.1,0,0,1,0-6.16,2.31,2.31,0,0,1,2.369,1.658l-1.066.355a1.215,1.215,0,0,0-1.3-.948,1.8,1.8,0,0,0-1.658,2.014c0,1.3.711,2.132,1.658,2.132.829,0,1.185-.711,1.421-1.066l1.066.355Z" transform="translate(14.968 7.77)" fill="#b4a090"/>
    <path id="Контур_148" data-name="Контур 148" d="M103.566,96.148v1.3h2.606v1.066h-2.606v1.54h2.961V101H102.5V95.2h3.791v.948Z" transform="translate(16.131 7.807)" fill="#b4a090"/>
    <path id="Контур_149" data-name="Контур 149" d="M112.277,96.385l-1.185.711-.592-.829,1.777-1.066h1.066V101h-1.066Z" transform="translate(17.607 7.807)" fill="#b4a090"/>
    <path id="Контур_150" data-name="Контур 150" d="M117.661,96.777a.829.829,0,1,0-.829.829.81.81,0,0,0,.829-.829Zm.237,2.606a1.074,1.074,0,0,0-2.132,0c0,.474.355.829,1.066.829a.831.831,0,0,0,1.066-.829Zm-1.066,1.777c-1.185,0-2.132-.592-2.132-1.658a1.569,1.569,0,0,1,1.066-1.54,1.507,1.507,0,0,1-.829-1.421c0-.948.829-1.54,1.9-1.54s1.9.592,1.9,1.54a1.428,1.428,0,0,1-.948,1.421,1.569,1.569,0,0,1,1.066,1.54c.118,1.066-.829,1.658-2.014,1.658Z" transform="translate(18.383 7.77)" fill="#b4a090"/>
    <path id="Контур_151" data-name="Контур 151" d="M121.814,98.2a1.062,1.062,0,0,0,1.066-1.066.994.994,0,0,0-1.066-1.066,1.062,1.062,0,0,0-1.066,1.066c.118.592.474,1.066,1.066,1.066Zm.118.711a1.768,1.768,0,0,1-2.132-1.9,2.136,2.136,0,0,1,4.264,0c0,.829-.474,1.3-1.066,2.251l-1.185,1.658h-1.3l1.421-2.014Z" transform="translate(19.324 7.77)" fill="#b4a090"/>
    <path id="Контур_152" data-name="Контур 152" d="M124.6,95.2h4.146v.829L126.5,101h-1.185l2.251-4.857H124.6Z" transform="translate(20.21 7.807)" fill="#b4a090"/>
    <path id="Контур_153" data-name="Контур 153" d="M93.188,62.2A3.326,3.326,0,0,0,90.7,64.688a.56.56,0,0,0,.592.592,3.032,3.032,0,0,0,2.488-2.369.663.663,0,0,0-.592-.711Z" transform="translate(13.953 1.716)" fill="#b4a090"/>
    <path id="Контур_154" data-name="Контур 154" d="M130.888,62.2a3.326,3.326,0,0,0-2.488,2.488.56.56,0,0,0,.592.592,3.032,3.032,0,0,0,2.488-2.369.663.663,0,0,0-.592-.711Z" transform="translate(20.911 1.716)" fill="#b4a090"/>
    <path id="Контур_155" data-name="Контур 155" d="M79.066,52.9c-9.477,0-24.4,12.912-32.457,18.479,2.251-4.5,4.383-9,6.752-12.319,1.066-1.421.711-1.9.237-1.9s-2.014.592-8.292,1.421c-6.16.829-9.477,4.146-9.477,7.937a5.546,5.546,0,0,0,1.658,4.028c.355.237.592.118.237-.355a6.208,6.208,0,0,1-1.066-2.961,6.439,6.439,0,0,1,4.62-5.923c2.488-.948,4.738-.948,8.529-1.54-5.212,8.766-13.978,34-25.35,34A8.372,8.372,0,0,1,17.114,89.5c-.355-.592-.474-.948-1.066-.948a.872.872,0,0,0-.948.948c0,2.725,5.331,4.975,9.121,4.975,10.306,0,16.465-11.372,21.8-22.151,3.08,8.529,6.16,20.611,16.229,20.611,4.146,0,8.292-3.08,10.187-5.449.474-.592.355-.948-.237-.474-1.658,1.658-5.331,4.62-9.358,4.62-5.923,0-9.95-5.686-14.1-19.9,6.634-5.212,22.625-17.887,30.325-17.887,1.777,0,2.961.474,2.961,1.3,0,.948-1.066,1.777-1.066,2.014a.51.51,0,0,0,.474.474,2.34,2.34,0,0,0,1.9-2.369c.237-1.3-1.9-2.369-4.264-2.369Z" transform="translate(0)" fill="#b4a090"/>
    <path id="Контур_156" data-name="Контур 156" d="M56.363,71.779a.56.56,0,0,1,.592.592c0,1.185-2.961,4.028-5.449,4.5.948-2.724,3.791-5.094,4.857-5.094Zm93.107.829c-.118,0-.237.118-.474.474-1.185,1.9-5.923,7.226-8.647,7.226-.711,0-1.066-.711-1.066-1.421,0-2.606,2.843-5.923,2.843-6.87a.542.542,0,0,0-.592-.474c-1.066,0-1.421.237-2.132,1.3-1.54,2.132-3.909,7.344-6.515,7.344-1.9,0-3.08-3.554-3.317-6.634a38.41,38.41,0,0,1,6.278-4.146c.592-.237.355-1.185-.355-1.185-.474,0-6.278,4.146-7.818,5.331,2.725-5.567,6.4-13.03,8.41-16.347.592-.948,2.251-2.606,2.251-3.435,0-.237-.118-.474-.355-.474-1.9,0-5.212,6.278-13.622,12.2-1.066.711-3.909,2.488-4.146,4.738a4.25,4.25,0,0,0-4.264,2.606c-1.777,4.028-5.331,7.226-6.989,7.226-.355,0-.474-.355-.474-.592,0-1.54,2.606-5.212,2.606-6.515a1.277,1.277,0,0,0-1.421-1.3c-1.777,0-3.317,1.185-5.212,2.961.237-.474.829-2.014.948-2.369.237-.474-.237-.592-.592-.592a2.1,2.1,0,0,0-1.9,1.066c-2.014,3.2-6.16,7.463-7.581,7.463-.355,0-.474-.237-.474-.711,0-1.54,3.08-6.515,3.435-7.107.237-.474-.237-.592-.592-.592a2.288,2.288,0,0,0-1.777.829c0,.118-.118.237-.237.355a26.758,26.758,0,0,1-9.24,7.107c2.251-1.658,4.264-4.264,4.264-6.4,0-1.185-.948-1.9-2.251-1.9A7.087,7.087,0,0,0,84.2,73.556c.829-1.658,1.9-3.317,2.014-3.672.237-.474-.237-.592-.474-.592a2.477,2.477,0,0,0-2.014,1.066c-1.066,2.014-2.488,4.975-3.317,6.87a6.886,6.886,0,0,1-4.383,2.961c-.355,0-.474-.237-.474-.592,0-1.54,2.606-5.212,2.606-6.515a1.277,1.277,0,0,0-1.421-1.3c-1.777,0-3.08.948-4.975,2.843.474-1.777-.118-2.843-1.421-2.843-1.777,0-3.554,1.54-5.094,3.435a4.827,4.827,0,0,0,.592-2.132A1.063,1.063,0,0,0,64.655,71.9c-4.028,0-6.87,9-11.49,9a1.832,1.832,0,0,1-1.9-2.014,2.016,2.016,0,0,1,.118-.829c3.08-.355,7.818-3.2,7.818-5.8,0-.948-.829-1.421-1.9-1.421-3.791,0-8.41,4.857-8.41,8.173a3.171,3.171,0,0,0,3.317,3.317c3.435,0,6.278-3.2,8.292-5.923,1.3-1.658,2.369-2.606,2.724-2.606.118,0,.118,0,.118.237,0,1.066-2.843,6.87-2.843,7.581,0,.355.355.355.711.355,1.3,0,1.777-.711,2.606-2.369.829-1.54,3.909-6.16,5.567-6.16.355,0,.474.237.474.592,0,1.658-3.08,6.87-3.08,7.581,0,.355.355.355.711.355,1.658,0,2.014-1.3,3.2-3.791s3.909-4.738,4.975-4.738a.314.314,0,0,1,.355.355c0,.948-2.725,5.094-2.725,6.752,0,.948.711,1.421,1.658,1.421a7.5,7.5,0,0,0,4.62-2.132c-3.317,7.7-5.094,12.912-12.2,16.584-.237.118-.237.237,0,.237a4.017,4.017,0,0,0,1.658-.592c6.634-3.2,9.24-7.937,12.438-14.689,2.251-4.738,4.264-8.292,6.4-8.292.592,0,.829.474.829,1.066,0,1.3-2.014,4.264-3.909,5.686-1.185.829-1.777,1.066-1.777,1.54a.663.663,0,0,0,.711.592c2.961,0,6.989-2.369,10.187-5.331a9.824,9.824,0,0,0-1.3,3.672,1.617,1.617,0,0,0,1.658,1.658c2.251,0,5.094-2.843,7.581-5.8-1.066,2.488-2.369,4.857-2.369,5.449,0,.355.355.355.711.355,1.658,0,2.014-1.3,3.2-3.791s4.028-4.738,5.094-4.738a.314.314,0,0,1,.355.355c0,.948-2.725,5.094-2.725,6.752,0,.948.711,1.421,1.658,1.421,2.843,0,6.4-3.317,8.41-6.752.592,1.421,2.251,2.843,2.251,4.264a1.565,1.565,0,0,1-1.54,1.54c-1.658,0-1.777-1.3-2.488-1.3-.592,0-1.066.355-1.066.711-.118.829,1.777,1.658,2.961,1.658,2.014,0,4.264-1.54,4.264-3.672s-2.488-3.672-2.488-5.212c0-.711.592-1.3,1.658-1.3a2.205,2.205,0,0,1,1.3.474,2.69,2.69,0,0,0,1.9.711,3.742,3.742,0,0,0,2.488-1.066c.355-.355.118-.711-.237-.474a3.4,3.4,0,0,1-1.421.237,1.428,1.428,0,0,1-1.54-1.54c0-2.488,5.094-4.5,9.832-9.24-2.961,5.567-7.818,15.755-9.121,18.716a8.689,8.689,0,0,0-.829,2.014c0,.355.237.355.711.355a2.22,2.22,0,0,0,2.251-1.658c.474-.948,1.421-3.08,2.724-5.8.474,4.5,2.132,7.463,4.738,7.463,1.9,0,3.435-1.185,4.857-3.317,0,2.132.948,3.317,2.961,3.317,4.028,0,9.713-6.515,9.713-8.766-.355-.711-.474-.711-.592-.711Z" transform="translate(6.238 0.074)" fill="#b4a090"/>
  </g>
</svg>
