<svg xmlns="http://www.w3.org/2000/svg" xmlns:xlink="http://www.w3.org/1999/xlink" width="154.973" height="154.973" viewBox="0 0 154.973 154.973">
  <defs>
    <clipPath id="clip-path">
      <path id="path16" d="M0-200H154.973V-45.027H0Z" transform="translate(0 200)"/>
    </clipPath>
  </defs>
  <g id="rc" transform="translate(0 200)">
    <g id="g12" transform="translate(0 -200)">
      <g id="g14" clip-path="url(#clip-path)">
        <g id="g20" transform="translate(19.869 101.87)">
          <path id="path22" d="M-1.184-.424c0-.1.059-.654-.143-.66H-3.682c-.894,0-.921.216-1.183,1.008-.044.146-.059.333-.246.333-.085,0-.147-.1-.147-.173l.16-1.4c.013-.176,0-.568.263-.568,1.125,0,2.236.064,4.1.064,2.62,0,3.954-.064,4.24-.064.335,0,.4.091.419.424L3.994-.3c.013.138.027.317-.156.317-.536,0,.246-1.1-1.233-1.1H.539c-.651,0-.58-.062-.58.7V6.994c0,1.21,1.174.737,1.174,1.184,0,.04.013.177-.133.177-.348,0-.75-.061-1.17-.061a18.265,18.265,0,0,0-1.977.061c-.129,0-.178-.05-.178-.194,0-.347,1.142-.2,1.142-1.069Z" transform="translate(5.257 1.885)" fill="#090a0d"/>
        </g>
        <g id="g24" transform="translate(28.49 104.412)">
          <path id="path26" d="M-.274-.271c-.009-.785-.942-.571-.942-.812,0-.1.086-.122.175-.122.4,0,.789.049,1.2.049.335,0,.668-.049,1-.049.182,0,.2.068.2.108,0,.223-.78.013-.78.825V2.076c0,.148,0,.19.164.19H4.716c.106,0,.085-.273.085-.31V-.271c0-.743-.813-.56-.813-.812,0-.065.023-.122.183-.122.357,0,.925.049,1.129.049.4,0,.567-.049.781-.049.281,0,.3.108.3.179,0,.2-.718.012-.718.755V5.475c0,.791.981.6.981.866,0,.034-.044.133-.116.133-.294,0-.629-.042-1.022-.042-.7,0-1,.042-1.2.042-.094,0-.263.03-.263-.137,0-.266.763-.112.763-.8v-2.6c0-.174.044-.27-.085-.27h-4c-.133,0-.133.069-.133.187v2.7c0,.736,1.03.5,1.03.836,0,.056-.075.087-.179.087-.133,0-.928-.042-1.5-.042A5.721,5.721,0,0,0-1,6.474c-.085,0-.12-.053-.12-.158,0-.319.843.035.843-1.031Z" transform="translate(1.216 1.205)" fill="#090a0d"/>
        </g>
        <g id="g28" transform="translate(36.569 104.411)">
          <path id="path30" d="M-.513-.919c0,.37-.022.37.41.37H1.071c1.121,0,.831-.87,1.094-.87.085,0,.12.118.12.208,0,.377-.026.745-.026,1.1,0,.277.026.56.026.856,0,.09-.044.136-.12.136-.339,0,.027-.958-.879-.958H-.321c-.223,0-.192.19-.192.346v2c0,.64-.089.9.821.9,2.5,0,2.874-1.118,3.012-1.118.076,0,.09.112.09.134a1.727,1.727,0,0,1-.544,1.049c-.348.391-.581.37-1.062.37C.982,3.6.156,3.535-.665,3.557c-.437.011-.893.042-1.326.042-.1,0-.165-.022-.165-.111.027-.127.134-.105.487-.28.273-.133.3-.435.3-.943V-2.673c0-.5,0-1.011-.585-1.1-.09-.02-.325-.04-.325-.169,0-.088.066-.136.374-.136,2.049,0,2.611.049,3.071.049.215,0,1.214-.049,1.549-.049.089,0,.107.11.107.25,0,1.191-.152,1.283-.214,1.283-.259,0-.09-.518-.259-.772-.281-.365-1.41-.3-1.843-.3-1.039,0-1.018-.038-1.018.685Z" transform="translate(2.28 4.081)" fill="#090a0d"/>
        </g>
        <g id="g32" transform="translate(45.964 101.862)">
          <path id="path34" d="M-2.221-2.518C-1.182-.925-.472-1.463-.472-1.113c0,.177-.812.177-.941.177-1.054,0-1.616-.739-2.169-1.563l-1.6-2.529c-.523-.812-.3-.77-1.924-.77-.46,0-.37.258-.37.411v3.043c0,1.248,1.5.794,1.5,1.29,0,.141-.129.118-.246.118S-6.684-1-7.884-1c-.554,0-1.1.06-1.648.06a.152.152,0,0,1-.152-.16c0-.367,1.063-.158,1.063-1.261V-9.715c0-1.391-1.245-.793-1.245-1.287,0-.083.111-.174.285-.174a7.563,7.563,0,0,0,.928.065c.839,0,1.66-.065,2.41-.065.232,0,3.428-.286,3.428,2.505a2.8,2.8,0,0,1-1.821,2.5ZM-7.478-6.49c0,.271.892.2,1.57.2A1.881,1.881,0,0,0-3.9-8.338c0-1.763-1.343-2.355-2.759-2.355-.522,0-.82-.033-.82.533Z" transform="translate(9.865 11.184)" fill="#090a0d"/>
        </g>
        <g id="g36" transform="translate(55.58 104.412)">
          <path id="path38" d="M-.254-.271c-.009-.785-.875-.571-.875-.812,0-.1.019-.122.107-.122.4,0,.789.049,1.192.049.339,0,.669-.049,1.008-.049.174,0,.21.026.21.108,0,.266-.785.013-.785.825V5.551c0,.736.968.488.968.812,0,.08-.036.111-.219.111-.246,0-.718-.042-1.182-.042-.661,0-.884.042-1.04.042-.2,0-.227-.053-.227-.158,0-.319.843.035.843-1.031Z" transform="translate(1.129 1.205)" fill="#090a0d"/>
        </g>
        <g id="g40" transform="translate(58.549 104.412)">
          <path id="path42" d="M-.888-.319c0-.075.044-.489-.107-.495H-2.762c-.669,0-.692.156-.889.753-.035.112-.039.248-.187.248-.067,0-.106-.073-.106-.125l.12-1.053c.009-.131,0-.428.192-.428.848,0,1.682.048,3.084.048,1.955,0,2.958-.048,3.177-.048.246,0,.3.068.313.32l.053.866c.009.106.018.239-.12.239-.4,0,.187-.82-.92-.82H.4c-.487,0-.433-.044-.433.526V5.244c0,.906.879.551.879.883,0,.033.012.133-.1.133-.254,0-.557-.042-.875-.042-1.213,0-1.414.042-1.482.042-.1,0-.129-.031-.129-.138,0-.264.852-.16.852-.8Z" transform="translate(3.944 1.419)" fill="#090a0d"/>
        </g>
        <g id="g44" transform="translate(65.841 104.46)">
          <path id="path46" d="M-.414-1.927a1.057,1.057,0,0,0-.165.357c0,.119.174.154.419.154H1.862c1.405,0,1.366-.733,1.768-.733.053,0,.106.1.066.19l-.383.712a.5.5,0,0,1-.54.277H-1.654a.162.162,0,0,1-.183-.165.464.464,0,0,1,.075-.21l3.83-6.38a2.386,2.386,0,0,0,.183-.323c0-.058-.054-.067-.085-.067H-.114c-1.505,0-1.125,1.135-1.473,1.135A.142.142,0,0,1-1.739-7.1l.152-1.127c.044-.3.054-.331.41-.331H3.045c.258,0,.312.073.312.175a.542.542,0,0,1-.112.328Z" transform="translate(1.837 8.559)" fill="#090a0d"/>
        </g>
        <g id="g48" transform="translate(71.697 107.877)">
          <path id="path50" d="M-.752-.049A2.417,2.417,0,0,1-.265-.219c.16,0,.133.252.133.34,0,.524.04.51-.388.651l-2.2.781a2.279,2.279,0,0,1-.495.173c-.161,0-.125-.232-.125-.322,0-.543-.044-.535.388-.678Z" transform="translate(3.339 0.219)" fill="#090a0d"/>
        </g>
        <g id="g52" transform="translate(75.789 101.745)">
          <path id="path54" d="M-1.511,0C1.212,0,1.961,1.111,2.381,1.111c.116,0,.2-.143.348-.143s.156.232.2,1.17c.031.763.164,1.245-.085,1.245-.169,0-.273-.379-.331-.481C1.613,1.359.587.414-1.278.414c-2.816,0-4.173,1.879-4.173,4.568,0,2.518,1.441,5.032,4.217,5.032A4.274,4.274,0,0,0,2.672,7.9a.242.242,0,0,1,.2-.184A.141.141,0,0,1,3,7.875l-.33,1.441c-.014.065-1.04,1.147-4.294,1.147A4.841,4.841,0,0,1-6.709,5.435,5.213,5.213,0,0,1-1.511,0" transform="translate(6.709)" fill="#090a0d"/>
        </g>
        <g id="g56" transform="translate(85.312 104.242)">
          <path id="path58" d="M-1.61-1.527c-.112-.252-.174-.406-.482-.406H-4.475c-.206,0-.4,0-.509.227L-5.677-.2a1.258,1.258,0,0,0-.08.379c0,.761.772.442.772.725,0,.188-.147.159-.29.159-.308,0-.606-.042-.914-.042-.29,0-.58.042-.866.042-.067,0-.1-.054-.1-.123,0-.229.509-.036.789-.656l2.593-5.534c.643-1.368.675-1.537.812-1.537.122,0,.2.319.232.4L-.472-.8A6.419,6.419,0,0,0,.067.434c.325.5.96.261.96.532,0,.1-.08.1-.157.1-.449,0-.892-.042-1.334-.042-.29,0-.585.042-.883.042-.058,0-.237,0-.237-.112,0-.259.66-.147.66-.561A4.538,4.538,0,0,0-1.266-.635ZM-4.533-2.612c-.085.157,0,.2.133.2h2.147c.237,0,.232-.086.175-.226L-3.145-5.247c-.055-.128-.1-.128-.17,0Z" transform="translate(7.153 6.784)" fill="#090a0d"/>
        </g>
        <g id="g60" transform="translate(93.492 104.406)">
          <path id="path62" d="M-1.665-1.89C-.884-.7-.353-1.1-.353-.843c0,.133-.612.133-.7.133-.8,0-1.223-.552-1.633-1.174l-1.2-1.9c-.393-.607-.228-.571-1.442-.571-.343,0-.285.192-.285.3v2.3c0,.921,1.129.589,1.129.958,0,.106-.1.087-.183.087s-.348-.042-1.25-.042c-.406,0-.821.042-1.232.042a.114.114,0,0,1-.112-.124c0-.267.8-.115.8-.941V-7.29c0-1.041-.933-.6-.933-.963,0-.068.081-.136.215-.136a5.493,5.493,0,0,0,.7.049c.624,0,1.245-.049,1.807-.049.175,0,2.565-.213,2.565,1.876A2.1,2.1,0,0,1-3.477-4.632Zm-3.95-2.981c0,.2.678.15,1.187.15a1.415,1.415,0,0,0,1.5-1.542c0-1.319-1-1.763-2.07-1.763-.388,0-.62-.023-.62.4Z" transform="translate(7.396 8.396)" fill="#090a0d"/>
        </g>
        <g id="g64" transform="translate(100.477 104.411)">
          <path id="path66" d="M-.513-1.844c0,.64-.085.9.827.9,2.5,0,2.869-1.118,3.017-1.118.075,0,.08.112.08.134A1.741,1.741,0,0,1,2.874-.88c-.352.391-.585.37-1.067.37C.987-.51.165-.574-.664-.553c-.43.011-.889.042-1.317.042-.1,0-.165-.022-.165-.111.027-.127.125-.105.478-.28.28-.133.3-.435.3-.943v-5.5c0-.564-.91-.487-.91-.7,0-.123.075-.15.223-.15.223,0,.562.049,1.089.049.624,0,.879-.049,1.043-.049.134,0,.207.027.207.157,0,.249-.8-.021-.8.921Z" transform="translate(2.28 8.191)" fill="#090a0d"/>
        </g>
        <g id="g68" transform="translate(104.935 104.412)">
          <path id="path70" d="M-.887-.319c0-.075.044-.489-.1-.495H-2.757c-.669,0-.7.156-.889.753-.03.112-.044.248-.183.248A.123.123,0,0,1-3.94.062l.121-1.053c.009-.131,0-.428.188-.428.852,0,1.687.048,3.088.048,1.959,0,2.954-.048,3.173-.048.246,0,.3.068.312.32L3-.233c.013.106.023.239-.12.239-.4,0,.187-.82-.92-.82H.408c-.487,0-.438-.044-.438.526V5.244c0,.906.884.551.884.883,0,.033.008.133-.1.133-.259,0-.563-.042-.879-.042a14.676,14.676,0,0,0-1.482.042c-.1,0-.138-.031-.138-.138,0-.264.856-.16.856-.8Z" transform="translate(3.94 1.419)" fill="#090a0d"/>
        </g>
        <g id="g72" transform="translate(112.039 104.32)">
          <path id="path74" d="M0-1.131A3.848,3.848,0,0,1,3.978-5.023,3.77,3.77,0,0,1,7.887-1.187a3.837,3.837,0,0,1-4.1,4.012A3.662,3.662,0,0,1,0-1.131m.786-.317A3.68,3.68,0,0,0,4.244,2.5,2.963,2.963,0,0,0,7.1-.771,3.661,3.661,0,0,0,3.651-4.665,2.943,2.943,0,0,0,.786-1.448" transform="translate(0 5.023)" fill="#090a0d"/>
        </g>
        <g id="g76" transform="translate(119.84 104.412)">
          <path id="path78" d="M-.382-.621c0-2.25-1.313-1.62-1.313-2.029,0-.06.113-.108.166-.108.169,0,.335.049.508.049s.335-.049.5-.049c.113,0,.21.179.282.254L4.934,3.252c.066.073.112.116.125.116s.035-.029.035-.116v-4.53c0-1.424-1.2-1.01-1.2-1.372a.108.108,0,0,1,.121-.108c.32,0,.633.049.986.049s.836-.049,1.09-.049a.1.1,0,0,1,.111.1c0,.275-.643.087-.643.872V4.5c0,.315,0,.466-.1.466-.071,0-.179-.055-.41-.3L.39-.584C.369-.611.239-.792.163-.792c-.045,0-.081.031-.081.25V3.89c0,.977.956.6.956.893,0,.052-.009.138-.121.138-.254,0-.558-.042-1.089-.042-.379,0-.946.042-1.022.042-.125,0-.134-.064-.134-.123,0-.376.946.1.946-1.416Z" transform="translate(1.695 2.759)" fill="#090a0d"/>
        </g>
        <g id="g80" transform="translate(129.267 101.624)">
          <path id="path82" d="M-.848,0A2.938,2.938,0,0,1,2.071,2.919,2.935,2.935,0,0,1-.848,5.835,2.932,2.932,0,0,1-3.765,2.919,2.935,2.935,0,0,1-.848,0m0,5.47A2.578,2.578,0,0,0,1.705,2.919,2.576,2.576,0,0,0-.848.368,2.574,2.574,0,0,0-3.4,2.919,2.576,2.576,0,0,0-.848,5.47M-2.056,4.5V1.152H-.767c.95,0,1.32.419,1.32.977a.891.891,0,0,1-.714.893L.545,4.5H-.1L-.789,3.078h-.675V4.5Zm.593-1.862h.715c.387,0,.674-.136.674-.482,0-.365-.215-.558-.674-.558h-.715Z" transform="translate(3.765)" fill="#090a0d"/>
        </g>
        <g id="g84" transform="translate(61.101 116.601)">
          <path id="path86" d="M-1.955-1.618c.044.758.714.424.714.739,0,.092-.12.092-.214.092-.175,0-.5-.038-.852-.038-.281,0-.567.038-.794.038-.085,0-.1-.048-.1-.083,0-.273.562-.072.558-.743l-.094-3.5c0-.225-.039-.352-.094-.352s-.147.082-.241.268L-4.936-1.385c-.045.083-.192.45-.282.45s-.151-.194-.178-.259L-7.319-5.221c-.027-.074-.071-.1-.112-.1s-.054.048-.062.142L-7.6-2.018c-.05,1.2.812.806.812,1.129,0,.092-.1.1-.223.1s-.527-.038-.794-.038c-.473,0-.625.038-.79.038-.062,0-.089-.048-.089-.111,0-.308.581.063.643-.871.107-1.475.214-2.435.214-3.391,0-2.121-.856-1.62-.856-1.926,0-.077.071-.1.156-.1.161,0,.321.038.5.038s.325-.038.487-.038c.124,0,.147.159.187.254l2.147,4.588c.1.187.137.271.2.271.043,0,.137-.19.28-.487l2.152-4.319c.053-.1.124-.315.236-.308.09,0,.38.038.425.038.2,0,.289-.038.433-.038a.1.1,0,0,1,.089.113c0,.287-.723-.1-.683.972Z" transform="translate(8.685 7.186)" fill="#090a0d"/>
        </g>
        <g id="g88" transform="translate(68.808 118.128)">
          <path id="path90" d="M0-.707A2.416,2.416,0,0,1,2.49-3.139a2.361,2.361,0,0,1,2.445,2.4A2.393,2.393,0,0,1,2.378,1.77,2.3,2.3,0,0,1,0-.707M.5-.9A2.3,2.3,0,0,0,2.66,1.567,1.853,1.853,0,0,0,4.445-.478a2.286,2.286,0,0,0-2.16-2.431A1.836,1.836,0,0,0,.5-.9" transform="translate(0 3.139)" fill="#090a0d"/>
        </g>
        <g id="g92" transform="translate(74.141 118.128)">
          <path id="path94" d="M0-1.063c-.027-.134.009-.208.076-.208.093,0,.093.083.129.223A1.441,1.441,0,0,0,1.622-.03,1.141,1.141,0,0,0,2.894-1.1C2.894-2.407.145-1.68.145-3.445a1.334,1.334,0,0,1,1.5-1.278,2.364,2.364,0,0,1,1.139.247c.062,0,.075-.073.143-.073.04,0,.076.019.085.094l.1.922c.009.054,0,.1-.071.1s-.125-.141-.147-.2A1.285,1.285,0,0,0,1.6-4.513c-.531,0-1.1.249-1.1.877,0,1.274,2.749.528,2.749,2.4,0,.568-.4,1.421-1.941,1.421A1.749,1.749,0,0,1,.167-.188Z" transform="translate(0.012 4.723)" fill="#090a0d"/>
        </g>
        <g id="g96" transform="translate(77.984 118.128)">
          <path id="path98" d="M-.708,0A3.474,3.474,0,0,1,1.119.527c.053,0,.089-.07.164-.07s.071.11.09.555c.017.359.075.58-.04.58-.082,0-.129-.175-.153-.221A1.915,1.915,0,0,0-.6.2,1.878,1.878,0,0,0-2.555,2.341,2.124,2.124,0,0,0-.583,4.7a2,2,0,0,0,1.834-.988.1.1,0,0,1,.094-.086A.065.065,0,0,1,1.4,3.7l-.153.671c-.008.032-.486.538-2.013.538A2.267,2.267,0,0,1-3.144,2.555,2.446,2.446,0,0,1-.708,0" transform="translate(3.144)" fill="#090a0d"/>
        </g>
        <g id="g100" transform="translate(82.875 118.128)">
          <path id="path102" d="M0-.707A2.411,2.411,0,0,1,2.482-3.139a2.368,2.368,0,0,1,2.454,2.4A2.4,2.4,0,0,1,2.365,1.77,2.292,2.292,0,0,1,0-.707M.495-.9a2.3,2.3,0,0,0,2.16,2.467A1.848,1.848,0,0,0,4.431-.478,2.278,2.278,0,0,0,2.285-2.909,1.839,1.839,0,0,0,.495-.9" transform="translate(0 3.139)" fill="#090a0d"/>
        </g>
        <g id="g104" transform="translate(87.766 118.193)">
          <path id="path106" d="M-.141-.162c-.164-.4-.487-.311-.487-.449,0-.08.081-.108.148-.108.2,0,.41.029.6.029C.287-.691.443-.72.609-.72c.045,0,.058.033.058.085,0,.1-.294.1-.294.328a.449.449,0,0,0,.04.169L1.7,3.046c.028.072.075.177.116.177s.063-.048.089-.118l.505-1.2A1.129,1.129,0,0,0,2.5,1.629a.843.843,0,0,0-.072-.212L1.746-.21c-.183-.45-.656-.21-.656-.437,0-.067.04-.073.1-.073.232,0,.589.029.687.029.317,0,.508-.029.652-.029.026,0,.044.042.044.085,0,.105-.277.085-.277.308a.468.468,0,0,0,.044.208L2.7.768c.059.132.071.179.09.179s.05-.075.094-.175l.33-.786a1.007,1.007,0,0,0,.059-.244c.012-.292-.388-.254-.388-.4,0-.06.094-.06.138-.06.143,0,.289.029.436.029.3,0,.376-.029.5-.029C3.97-.72,4-.7,4-.678c0,.192-.169-.067-.473.643L3.05,1.074a.626.626,0,0,0-.058.259,1.355,1.355,0,0,0,.08.323l.571,1.4c.071.157.107.212.148.212s.1-.106.156-.256L5.174-.014a.439.439,0,0,0,.049-.221c0-.294-.436-.246-.436-.381,0-.054.026-.1.07-.1.156,0,.308.029.478.029.2,0,.4-.029.558-.029.049,0,.08,0,.08.073,0,.152-.169-.031-.388.5L3.84,3.959c-.041.1-.09.223-.2.223-.062,0-.089-.038-.183-.254L2.715,2.142c-.013-.028-.027-.055-.049-.055s-.04,0-.059.048l-.758,1.88c-.044.136-.094.167-.169.167-.1,0-.144-.2-.339-.663Z" transform="translate(0.628 0.72)" fill="#090a0d"/>
        </g>
        <g id="g108" transform="translate(55.505 31.878)">
          <path id="path110" d="M-12.758-11.589c-.683.063-.6.914-1.214,1.141a2.159,2.159,0,0,1-1.745.227c-1.535-.288-2.3-1.984-2.736-3.265-1.008-3.89,3.744-6.091,2.736-10.089,1.174-2.367,2.785-4.822,1.972-7.738a6.808,6.808,0,0,1-.612-2.505c.242,0,.661.167.835-.076.509-1.7-1.187-2.807-2.124-4.094-.335-.5.339-.578.612-.763.147-.408-.437-.747-.683-1.057-1.628-1.812-.7-4.613-1.972-6.53-.925-1.473-2.535-1.725-4.177-1.82-1.5-.581-2.089-2.449-3.566-3.184-1.066-.538-1.745.736-2.655.984-1.633.685-3.33.175-5.008.152-1.2.2-2.048,1.381-2.878,2.049a34.014,34.014,0,0,0-5.618.83c-1.273.2-1.433,1.56-2.049,2.508l-3.338,1.674c-1.223.765-2.745,1.182-3.49,2.577-.612.985.487,1.66.91,2.426.509,1.27.344,3.309,2.2,3.721.513.515,1.289,1.023,1.289,1.814-.691.313-1.624-.364-2.352-.45a2.382,2.382,0,0,0-2.731,1.139c-.1.472-.272,1.234.228,1.6a.814.814,0,0,0,.834-.152c.956-.631,2.057-.031,2.955.3,1.393.509.964,2.21,1.745,3.114.325.618,1.168.709,1.066,1.291a34.807,34.807,0,0,0-2.044,3.561c-1.241,3.144-.058,7.384-1.6,10.4a4.271,4.271,0,0,1-3.642,2.121c-1.682.29-2.864-.979-3.8-2.276-.259-.147-.6.113-.75.382A4.4,4.4,0,0,0-56.31-7.8,6.461,6.461,0,0,0-50.692-4.3c2.915.241,5.373-.86,7.734-2.124,3.231-.1,6.288-.938,8.654-3.5h.6c2.628,2.807,6.27,3.825,10.095,3.8l2.351,1.141a8.765,8.765,0,0,0,7.587-.378A3.962,3.962,0,0,0-12-7.871a4.975,4.975,0,0,0-.758-3.717m-8.046-33c.668-.09,1.174.42,1.674.834a4.175,4.175,0,0,1,.91,2.878c-.219.362-.563.015-.763-.147a16.412,16.412,0,0,1-2.347-3.2c.085-.2.343-.283.527-.37m-11.984-4.1c.269-.222.862-.3,1.063,0a.819.819,0,0,1-1.063.461c-.151-.169-.151-.34,0-.461M-46.6-35.032a.818.818,0,0,1,.232-.828.455.455,0,0,1,.6.448v.912c-.317.175-.741-.167-.835-.533m-2.272,3.565-1.37-.077c-.249-.325.175-.667.531-.756,1.508-.588,2.7.6,4.173.756a1.829,1.829,0,0,1,.076.462c-1.129.821-2.232-.367-3.41-.384m11.3,20.636c.054.573-.8.829-1.214,1.135a3.471,3.471,0,0,1-1.9.456c.107-.587.7-1.018.91-1.591,1.237-2.9-.629-6.545,1.143-9.177A4.119,4.119,0,0,1-37.49-21.3c.227.614-.027,1.3.147,1.97.589,2.123.759,5.18-.606,7.058a4.656,4.656,0,0,0-.911,1.593c.411.344.831-.162,1.29-.152M-27.325-10a6.348,6.348,0,0,1-5.77-2.424,11.464,11.464,0,0,1-2.044-8.341,8.673,8.673,0,0,1,.3-1.591c.37-1.29.963-2.393,1.436-3.644-.053-.11-.053-.355-.227-.379-2.284,1.466-4.909,2.394-6.524,4.933-.125.227-.241.453-.375.681-.835,1.9-.964,4.127-1.6,5.989-.313-.478-.058-1.076-.232-1.67a23.293,23.293,0,0,1,0-4.32,6.876,6.876,0,0,1,2.74-4.934c5.15-3.119,11.68-3.8,15.63-9.106a5.331,5.331,0,0,0-.157-5.458A7.457,7.457,0,0,0-31.194-43.3c-.223,0-.133.328-.156.383.617.791,1.8,1.214,1.594,2.2,1.651.794,4.02,1.9,3.789,4.177.147,2.129-1.8,3.575-3.254,4.927-4.06,2.886-9.059,2.718-13.053,5.766-1.6,1.368-1.9,3.186-2.049,5.088,0,.7-.018,1.412-.075,2.121-.071,3.988,1.031,8.221-2.276,10.924-.34.433.339.606.075.914-1.518,1.221-3.717,1.048-5.61.607a4,4,0,0,1-1.749-1.9c1.1.221,2.365.808,3.717.453A4.578,4.578,0,0,0-46.675-9.77c1.53-2.517.5-5.909.91-8.875.125-.709.263-1.419.46-2.121a10.236,10.236,0,0,1,3.486-5.766,32.6,32.6,0,0,1,11.308-5.316c1.976-.7,1.553-2.9,2.049-4.246.184-.607,1.121-1.372.3-1.824l-3.8,1.218A4.894,4.894,0,0,0-33.4-34.423c.88.436,2.326-.328,2.656.833.089.531-.585.7-.91.981-1.455.146-3.405.065-5.008.154-1.535.586-3.571,1.516-3.946,3.422a2.883,2.883,0,0,1-1.589,1.74c-1,0-2.275,0-2.811-.984.112-.542-.312-.964-.071-1.441A13.02,13.02,0,0,0-40.3-32.912a11.733,11.733,0,0,1,2.728-.6c.393-.135.393-.729.152-1.064a33.348,33.348,0,0,1-3.946-3.639c-.9-.6-1.585.495-2.424.758l-2.432.61c-.71-.025-1.218,1.593-1.82.6-.076-.883-.75-1.647-.3-2.506.227-.491.987-1,.456-1.669-.482.158-.991.752-1.589.612-.335-.284-.081-.706.071-1.067.616-.83,1.714-1.089,2.58-1.593,1.339-.593,2.7-1.187,4.025-1.9.192.542.446,1.3,1.138,1.366.505-.062.669.277.669.687.848.527,1.612-.323,2.285-.762a.357.357,0,0,0,.228-.531l-1.29.229c.134-.446.812-.531.758-1.062-.37-.315-.794.192-1.138-.075a1.2,1.2,0,0,1-.071-.768c.495-.487,1.343.1,1.741-.3a2.755,2.755,0,0,0-2.5-.6l-1.215.527c.438-1.56,2.388-1.223,3.643-1.6,2.217.036,4.6-.049,6.52.686a16.7,16.7,0,0,1,2.579,2.051.876.876,0,0,0,.991-.073c.527-.931-.92-1.273-1.365-1.977A1.375,1.375,0,0,1-29.6-48.23a9.575,9.575,0,0,1,3.182-2.049c1.277.179,1.96,1.618,2.433,2.649.624,1.178-.9,2.111-.46,3.264,1.593,2.321,4.985,3,5.316,6.077.517,2.523,2.717,4.889,1.365,7.582a20.265,20.265,0,0,1-6.753,5.083v-.3C-22.259-29.5-17.345-32.3-18.984-37c-1.07-2.584-3.356-5.635-6.216-5.918-.278.116-.2.368-.081.533,1.58,1.781,3.446,3.477,3.642,5.918a8.02,8.02,0,0,1-.758,4.548c-.37-.542.223-1.988-.755-1.893-2.159,3.811-5.552,7.2-7.136,11.3l-.223.072a3.324,3.324,0,0,1-.081-1.891c.447-2.115,1.8-3.894,2.884-5.768-.482-.331-.827.268-1.21.458-2.9,2.162-5.239,5.293-5.386,8.877.018.441.036.9.071,1.363.191.5.191,1.181.606,1.443.6-.176.175-1.028.456-1.443.906,1.943,1.076,4.323,2.659,5.918a12.05,12.05,0,0,0,4.021,3.037c-.094.368-.518.446-.835.446M-43.56-31.467a.455.455,0,0,1-.308.6c-.518,0-.6-.585-.759-.984.326-.533.92.063,1.067.381m.526-2.276c.259-.075.6-.245.839-.071-.071.5-.58.841-1.062,1.2l-.383-.147c-.237-.3.188-.812.606-.987m26.781,26.4c-2.361.815-4.56-.627-6.144-2.357a10.588,10.588,0,0,1-2.121-10.621c-.115-.371-.539-.2-.682.081-1.045,1.247-1.129,2.86-1.441,4.4-.451.16-.7-.521-.835-.831-.29-1.466-.46-3.411.835-4.55,2.94-2.261,6.587-2.854,9.407-5.391A4.462,4.462,0,0,1-18.6-24.481c-2.468,2.19-5.775,4.478-5.159,8.113a2.855,2.855,0,0,0,.986,1.974c.433.152.513-.355.683-.61.5.507.254,1.36.606,1.971.749,1.934,2.276,4.65,4.7,4.781h1.441c.121.544-.562.622-.915.912M-27.325-47.932a1.317,1.317,0,0,0,.835,1.292c.5.27.925-.155,1.058-.613.206-.3.121-1.148.684-.978.455.418.289,1.1.23,1.591-.28.947-1.3,1.2-2.052,1.519a2.986,2.986,0,0,1-2.884-1.6,1.67,1.67,0,0,1,.607-1.674c.567-.272.995-.78,1.669-.83.424.479-.254.819-.148,1.287m-18.587,6.226a2.467,2.467,0,0,1-.914,1.513.694.694,0,0,1-.607-.531c0-.727.929-.9,1.522-.981m6.6,2.734L-37.8-37.46l1.215,2.653c-1.786-.286-2.125-2.577-3.714-3.182-1.03-.408-.7-1.765-1.825-2.432-.232-.348-.652-.44-.835-.756.348-.529.946-.192,1.366,0a4.543,4.543,0,0,1,2.276,2.2" transform="translate(56.667 51.475)" fill="#090a0d"/>
        </g>
        <g id="g112" transform="translate(55.71 74.407)">
          <path id="path114" d="M-12.9-.885A12.572,12.572,0,0,1-16.846,1.69c-.644.615.713.953.455,1.753a.933.933,0,0,1-1.29.529,6.967,6.967,0,0,1-1.066-1.141c-.606-.189-1.116.407-1.508.833-.625.25-.37,1.012-.232,1.445.456,1.692,1.986-.1,2.728,1.059a1.557,1.557,0,0,1,0,1.746,3.2,3.2,0,0,1-1.817,1.44A3.6,3.6,0,0,1-22.006,8.6a3.054,3.054,0,0,1-.91-2.278c-.25-1.31,1.7-1.9.981-3.262-.388-.589-.477-1.518-1.289-1.674-.706.666-1.9,1.005-2.05,2.057a3.821,3.821,0,0,1,.385,3.189,4.692,4.692,0,0,1-4.629,1.812c-1.2-.29-2.472-.713-2.963-1.9A1.854,1.854,0,0,1-31.793,4.5,2.085,2.085,0,0,1-29.9,4.276c.629.069.883.828,1.6.756A3.446,3.446,0,0,0-26.71,2.985a4.456,4.456,0,0,0-1.746-1.969c-.816.527-1.494,1.376-2.5,1.513a1.606,1.606,0,0,1-1.593-.457c-.706-.529-.028-1.2.147-1.743.415-.478,1.183-.394,1.522-.9a14.353,14.353,0,0,1-3.646-3.345c-.852-.13-1.357.886-1.968,1.362-.75.794-1.678,1.225-2.357,1.984.509.426,1.272.336,1.749.9a1.517,1.517,0,0,1,.3,1.362,1.825,1.825,0,0,1-1.37.766,3.345,3.345,0,0,1-2.579-1.215c-.991-.12-1.161,1.064-1.817,1.666-.1.842.827,1.438,1.441,2.05.915.488,1.339-.958,2.272-1.059a3.223,3.223,0,0,1,1.674.6,2.4,2.4,0,0,1,.531,1.974c-.513,1.337-1.955,1.6-3.191,1.824-1.815.027-4.355.027-5.078-1.977-.633-1.218.214-2.064.3-3.186-.6-.664-1.276-1.593-2.2-1.445-.433.615-1.108,1.207-1.143,2.048.629,1.118,1.562,2.214,1.143,3.571a2.694,2.694,0,0,1-1.442,1.6c-1.445.266-3.142.357-3.869-1.062a1.361,1.361,0,0,1,.3-1.673c.339-.386,1.187-.3,1.593-.15A2.037,2.037,0,0,0-49.015,4.2a4.034,4.034,0,0,0-1.67-1.292C-51.4,3.154-51.653,4-52.358,4.2a.861.861,0,0,1-.991-.379c-.513-.924,1.268-1.349.612-2.13a13.228,13.228,0,0,1-4.4-2.576l-.152.154c1.476,3.2,3.173,6.347,4.476,9.714.482.787-.08.91-.152,2.049.117,1.832,1.5,3.13,1.37,5.613.192.753-.155,1.175-.155,1.967a1.122,1.122,0,0,0,.834,1.14c2.9.031,29.339.031,31.49,0a.974.974,0,0,0,1.062-1.291,5.133,5.133,0,0,1-.086-2.27c.246-2.706,1.357-3.327,1.3-4.631a3.218,3.218,0,0,1,.219-2.048,38.275,38.275,0,0,1,1.669-4.479C-14.607,2.985-13.331,1.2-12.827-.8ZM-50.684,15.056a.252.252,0,0,1-.232-.231.212.212,0,0,1,.232-.153.21.21,0,0,1,.227.153.252.252,0,0,1-.227.231M-21.4,18.624l-27.7-.012c-.539,0-1-.132-.981-.3-.023-.2.442-.342.981-.382h27.7c.6.04,1.062.186,1.062.382,0,.167-.46.312-1.062.312m.611-2.664c-.026.03.1.779.68.759.526.02.709.335,0,.3-.759.035-29.049-.072-29.817-.057-.7,0-.513-.317,0-.312.585,0,.714-.768.682-.749.032,0,.032-1.71,0-2.293.032-.515-.722-.886-.986-.912-.25.026-.268-.226,0-.214.286,0,1.566-.012,1.593-.012l27.237.079a15.547,15.547,0,0,0,1.593,0c.272.027.259.27,0,.3-.258-.034-1.008.326-.983.91-.026.522-.026,2.227,0,2.2m1.442-.83c-.148-.042-.237-.131-.237-.235h.008a.2.2,0,0,1,.228-.209c.081-.014.175.089.147.209.028.1-.066.192-.147.235m-.383-3.644h-30.5c-.567-.022-1.027-.193-1.062-.383.035-.215.495-.384,1.062-.384v.007h30.5c.558,0,1.017.162.986.377.031.19-.428.362-.986.383" transform="translate(57.289 3.932)" fill="#090a0d"/>
        </g>
        <g id="g116" transform="translate(64.131 92.41)">
          <path id="path118" d="M-.221,0A.757.757,0,0,0-.98.753h.013a.768.768,0,0,0,.746.753A.8.8,0,0,0,.542.753.771.771,0,0,0-.221,0" transform="translate(0.98 0)" fill="#090a0d"/>
        </g>
        <g id="g120" transform="translate(72.784 92.41)">
          <path id="path122" d="M-.221,0A.72.72,0,0,0-.979.753a.738.738,0,0,0,.758.753A.724.724,0,0,0,.458.753.7.7,0,0,0-.221,0" transform="translate(0.981 0)" fill="#090a0d"/>
        </g>
        <g id="g124" transform="translate(90.306 92.41)">
          <path id="path126" d="M-.22,0A.757.757,0,0,0-.979.753h0a.776.776,0,0,0,.754.753A.8.8,0,0,0,.542.753.773.773,0,0,0-.22,0" transform="translate(0.979 0)" fill="#090a0d"/>
        </g>
        <g id="g128" transform="translate(66.026 91.108)">
          <path id="path130" d="M-1.477,0h-4.1V.021a.976.976,0,0,0-.986,1.046V2.735a.943.943,0,0,0,.986.988h4.1a.958.958,0,0,0,.986-.988V1.066A1.01,1.01,0,0,0-1.477,0M-3.522,2.965A1.123,1.123,0,0,1-4.66,1.9,1.1,1.1,0,0,1-3.522.839,1.062,1.062,0,0,1-2.464,1.9,1.089,1.089,0,0,1-3.522,2.965" transform="translate(6.563)" fill="#090a0d"/>
        </g>
        <g id="g132" transform="translate(74.904 91.191)">
          <path id="path134" d="M-1.5,0H-5.6A1.106,1.106,0,0,0-6.664,1.055V2.726A1.033,1.033,0,0,0-5.6,3.719h4.1a.965.965,0,0,0,.981-.993L-.5,1.055A1.052,1.052,0,0,0-1.5,0M-3.553,2.956A1.069,1.069,0,0,1-4.611,1.892,1.024,1.024,0,0,1-3.553.839.992.992,0,0,1-2.491,1.892,1.031,1.031,0,0,1-3.553,2.956" transform="translate(6.664)" fill="#090a0d"/>
        </g>
        <g id="g136" transform="translate(83.71 91.264)">
          <path id="path138" d="M-1.5,0H-5.59A1.116,1.116,0,0,0-6.652,1.063V2.729a1.012,1.012,0,0,0,1.062.991H-1.5a.962.962,0,0,0,.987-.991l0-1.665A1.069,1.069,0,0,0-1.5,0M-3.542,2.956A1.034,1.034,0,0,1-4.608,1.9,1,1,0,0,1-3.542.837,1.028,1.028,0,0,1-2.483,1.9,1.067,1.067,0,0,1-3.542,2.956" transform="translate(6.652)" fill="#090a0d"/>
        </g>
        <g id="g140" transform="translate(81.661 92.41)">
          <path id="path142" d="M-.219,0A.723.723,0,0,0-.974.753a.742.742,0,0,0,.754.753A.719.719,0,0,0,.462.753.7.7,0,0,0-.219,0" transform="translate(0.975 0)" fill="#090a0d"/>
        </g>
      </g>
    </g>
  </g>
</svg>
