
<svg xmlns="http://www.w3.org/2000/svg" width="112.154" height="88.569" viewBox="0 0 112.154 88.569">
  <g id="Сгруппировать_197" data-name="Сгруппировать 197" transform="translate(-24.305 -34.966)">
    <path id="Контур_645" data-name="Контур 645" d="M72.127,47.127,73.6,48.6l1.182,2.583c-1.738-.279-2.066-2.5-3.619-3.1-1.006-.4-.674-1.718-1.773-2.363-.221-.345-.635-.428-.81-.74.34-.512.918-.183,1.33,0a4.453,4.453,0,0,1,2.213,2.143ZM65.7,44.469a2.358,2.358,0,0,1-.887,1.476.67.67,0,0,1-.588-.515c0-.709.9-.874,1.476-.96ZM83.8,38.413a1.279,1.279,0,0,0,.813,1.258c.49.263.9-.148,1.034-.592.2-.3.116-1.124.664-.961.442.415.279,1.074.223,1.553-.277.924-1.264,1.17-2,1.476a2.894,2.894,0,0,1-2.809-1.552,1.624,1.624,0,0,1,.593-1.624c.55-.264.965-.758,1.625-.812.413.467-.246.8-.148,1.254Zm10.78,39.505c-2.3.794-4.443-.607-5.98-2.29A10.315,10.315,0,0,1,86.53,65.29c-.111-.356-.522-.191-.667.075-1.012,1.218-1.092,2.786-1.4,4.284-.438.153-.687-.508-.814-.815-.285-1.426-.449-3.321.814-4.43,2.865-2.191,6.411-2.77,9.152-5.241a4.338,4.338,0,0,1-1.328,2.069c-2.4,2.135-5.623,4.363-5.02,7.9a2.837,2.837,0,0,0,.956,1.92c.42.15.5-.343.67-.592.5.5.249,1.322.59,1.918.731,1.878,2.215,4.518,4.578,4.653h1.4c.116.528-.544.609-.887.887Zm-26.064-25.7c.248-.077.58-.24.81-.075-.064.5-.562.824-1.035,1.182l-.368-.148c-.229-.292.181-.79.594-.959Zm-.52,2.216a.441.441,0,0,1-.3.59c-.5,0-.586-.571-.736-.959.315-.519.89.059,1.031.369ZM83.8,75.331a6.2,6.2,0,0,1-5.613-2.361,11.2,11.2,0,0,1-1.992-8.123,8.7,8.7,0,0,1,.294-1.551c.363-1.249.94-2.324,1.4-3.544-.052-.1-.052-.347-.225-.369-2.219,1.425-4.78,2.332-6.348,4.8-.123.223-.236.444-.368.665-.811,1.858-.939,4.022-1.554,5.835-.3-.468-.059-1.048-.221-1.625a22.031,22.031,0,0,1,0-4.21,6.7,6.7,0,0,1,2.659-4.8c5.016-3.035,11.369-3.7,15.215-8.861a5.208,5.208,0,0,0-.148-5.315,7.278,7.278,0,0,0-6.869-2.955c-.213,0-.129.317-.144.369.591.773,1.748,1.186,1.546,2.143,1.6.775,3.912,1.848,3.692,4.06.142,2.08-1.76,3.482-3.174,4.8C78,57.1,73.133,56.931,69.246,59.9,67.688,61.23,67.4,63,67.254,64.848c0,.686-.019,1.379-.074,2.069-.071,3.875,1,8-2.218,10.631-.329.424.331.586.074.887-1.478,1.185-3.62,1.02-5.463.59a3.864,3.864,0,0,1-1.7-1.846c1.066.213,2.3.793,3.617.444a4.476,4.476,0,0,0,3.47-2.066c1.486-2.453.5-5.753.887-8.639a20.715,20.715,0,0,1,.445-2.069,10,10,0,0,1,3.4-5.61,31.672,31.672,0,0,1,11-5.169c1.925-.686,1.517-2.831,1.992-4.136.181-.591,1.09-1.335.3-1.772l-3.691,1.182a4.736,4.736,0,0,0-1.4,2.215c.854.425,2.26-.32,2.585.814.086.518-.574.682-.888.958-1.418.134-3.317.053-4.874.149-1.5.564-3.479,1.471-3.838,3.32a2.8,2.8,0,0,1-1.553,1.7c-.973,0-2.211,0-2.73-.957.107-.527-.308-.938-.073-1.4a12.585,12.585,0,0,0,4.649-3.1,11.239,11.239,0,0,1,2.659-.59c.379-.133.379-.71.146-1.033a32.943,32.943,0,0,1-3.837-3.544c-.878-.588-1.542.483-2.365.738l-2.362.591c-.691-.02-1.19,1.55-1.773.592-.076-.861-.733-1.6-.3-2.438.22-.483.963-.979.441-1.624-.467.15-.961.729-1.548.59-.319-.274-.073-.686.074-1.033.6-.809,1.667-1.055,2.508-1.552,1.305-.576,2.625-1.155,3.917-1.845.192.525.441,1.269,1.108,1.328.489-.06.654.269.654.666.826.51,1.569-.313,2.223-.739a.348.348,0,0,0,.223-.517l-1.254.222c.127-.436.786-.515.736-1.035-.359-.308-.773.188-1.105-.072A1.134,1.134,0,0,1,71.242,41c.486-.486,1.315.091,1.7-.3a2.7,2.7,0,0,0-2.437-.592l-1.182.518c.429-1.519,2.327-1.19,3.545-1.551,2.163.032,4.476-.052,6.353.665a16.611,16.611,0,0,1,2.508,1.994.841.841,0,0,0,.961-.075c.513-.9-.89-1.232-1.33-1.919-.383-.47-.137-1.128.222-1.626a9.469,9.469,0,0,1,3.1-1.992c1.24.18,1.9,1.581,2.364,2.585.609,1.142-.873,2.049-.442,3.174,1.545,2.26,4.848,2.918,5.168,5.908.506,2.457,2.649,4.764,1.325,7.384a19.59,19.59,0,0,1-6.567,4.947v-.3c2.2-3.474,6.982-6.2,5.391-10.78-1.046-2.513-3.278-5.482-6.058-5.761-.27.114-.186.362-.073.518,1.539,1.74,3.353,3.391,3.544,5.759a7.84,7.84,0,0,1-.739,4.43c-.363-.53.217-1.929-.739-1.846-2.1,3.712-5.4,7.012-6.94,11l-.221.074a3.191,3.191,0,0,1-.076-1.846c.436-2.053,1.759-3.786,2.809-5.613-.473-.32-.807.259-1.186.444-2.821,2.108-5.086,5.15-5.241,8.639.019.437.036.877.074,1.33.185.489.185,1.15.59,1.4.586-.173.173-1,.445-1.4.882,1.892,1.049,4.2,2.586,5.758a11.7,11.7,0,0,0,3.914,2.956c-.085.357-.5.44-.813.44Zm-9.97-.812c.052.563-.778.812-1.179,1.109a3.459,3.459,0,0,1-1.847.442c.105-.574.682-.989.886-1.552,1.2-2.818-.615-6.367,1.105-8.932A4.124,4.124,0,0,1,73.9,64.332c.226.6-.02,1.262.148,1.918.574,2.065.737,5.036-.59,6.869a4.472,4.472,0,0,0-.887,1.548c.4.333.811-.163,1.257-.148Zm-11-20.081-1.33-.075c-.242-.32.173-.65.519-.738,1.468-.571,2.623.583,4.06.738a1.711,1.711,0,0,1,.073.444c-1.1.8-2.17-.35-3.322-.368Zm2.215-3.47a.811.811,0,0,1,.223-.812.45.45,0,0,1,.59.441v.887c-.308.165-.722-.163-.813-.517ZM78.478,37.676c.264-.217.844-.3,1.035,0a.792.792,0,0,1-1.035.441c-.147-.163-.147-.325,0-.441Zm11.669,3.987c.645-.077,1.139.418,1.625.813a4.078,4.078,0,0,1,.886,2.805c-.218.347-.545.015-.737-.146a15.794,15.794,0,0,1-2.29-3.1c.085-.2.334-.282.515-.369Zm7.828,32.121c-.665.062-.581.885-1.185,1.107a2.077,2.077,0,0,1-1.7.22c-1.5-.278-2.24-1.927-2.66-3.176-.982-3.783,3.639-5.929,2.66-9.818,1.14-2.3,2.711-4.692,1.918-7.531a6.554,6.554,0,0,1-.59-2.441c.227,0,.638.166.81-.071.49-1.661-1.159-2.732-2.066-3.987-.331-.48.33-.561.59-.739.15-.4-.424-.73-.661-1.034-1.583-1.759-.674-4.482-1.92-6.348-.9-1.434-2.467-1.681-4.063-1.772-1.456-.569-2.032-2.384-3.469-3.1-1.038-.518-1.7.719-2.586.96-1.591.666-3.241.171-4.874.148-1.173.188-2,1.342-2.807,1.994a33.089,33.089,0,0,0-5.462.81c-1.236.188-1.4,1.51-2,2.437L64.67,43.066c-1.191.747-2.678,1.159-3.4,2.51-.6.958.471,1.619.887,2.364.493,1.234.329,3.217,2.139,3.617.5.507,1.255,1,1.255,1.772-.676.3-1.581-.358-2.286-.444a2.32,2.32,0,0,0-2.659,1.107c-.1.463-.268,1.206.221,1.552a.776.776,0,0,0,.81-.148c.931-.612,2-.033,2.882.3,1.351.5.939,2.146,1.7,3.028.315.605,1.14.686,1.036,1.255a32.943,32.943,0,0,0-1.994,3.47c-1.2,3.056-.049,7.183-1.554,10.117a4.164,4.164,0,0,1-3.54,2.066c-1.639.279-2.8-.96-3.693-2.217-.256-.144-.588.1-.741.372a4.32,4.32,0,0,0-.148,3.691,6.293,6.293,0,0,0,5.467,3.395c2.841.237,5.233-.835,7.534-2.066A11.327,11.327,0,0,0,77,75.408h.593c2.555,2.726,6.1,3.717,9.82,3.69l2.292,1.107a8.515,8.515,0,0,0,7.385-.368A3.86,3.86,0,0,0,98.714,77.4a4.825,4.825,0,0,0-.739-3.618Z" transform="translate(3.284)" fill="#1d1d1b"/>
    <path id="Контур_646" data-name="Контур 646" d="M91.973,87.385H62.287c-.556-.02-1-.184-1.034-.369.03-.212.478-.375,1.034-.375v.006H91.973c.535,0,.986.157.962.369.023.186-.427.35-.962.369Zm.369,3.544c-.142-.037-.227-.124-.227-.221h0a.2.2,0,0,1,.222-.209c.076-.013.166.087.147.209.019.1-.071.185-.147.221Zm-1.4.812c-.023.029.1.759.664.737.511.022.689.326,0,.3-.742.029-28.278-.075-29.023-.06-.682,0-.5-.311,0-.3.567,0,.694-.744.667-.732.027,0,.027-1.661,0-2.227.027-.509-.708-.865-.961-.887-.247.022-.262-.221,0-.209s1.522-.012,1.551-.012l26.511.074a14.957,14.957,0,0,0,1.553,0c.265.027.247.259,0,.294-.254-.035-.984.322-.961.886-.023.508-.023,2.171,0,2.143Zm-.592,2.6L63.4,94.326c-.536,0-.983-.136-.963-.3-.02-.192.427-.337.963-.367H90.35c.591.03,1.036.175,1.036.367,0,.162-.446.308-1.036.308Zm-28.5-3.479a.254.254,0,0,1-.226-.226.216.216,0,0,1,.226-.146.2.2,0,0,1,.22.146c-.025.138-.111.226-.22.226ZM98.624,75.349a12.282,12.282,0,0,1-3.844,2.51c-.623.594.7.925.446,1.7a.9.9,0,0,1-1.255.518,6.289,6.289,0,0,1-1.034-1.109c-.593-.181-1.087.395-1.479.813-.6.242-.353.984-.223,1.4.446,1.645,1.932-.09,2.659,1.033a1.517,1.517,0,0,1,0,1.7,3.147,3.147,0,0,1-1.772,1.4,3.553,3.553,0,0,1-2.364-.739,2.983,2.983,0,0,1-.882-2.213c-.25-1.271,1.653-1.848.959-3.176-.382-.57-.463-1.478-1.258-1.624-.694.642-1.846.972-1.991,1.992a3.708,3.708,0,0,1,.368,3.1,4.552,4.552,0,0,1-4.505,1.774c-1.165-.284-2.4-.7-2.882-1.847a1.808,1.808,0,0,1,.667-1.993,2.054,2.054,0,0,1,1.845-.223c.606.066.856.809,1.552.741a3.369,3.369,0,0,0,1.552-1.993,4.29,4.29,0,0,0-1.7-1.92c-.794.515-1.453,1.342-2.432,1.476a1.566,1.566,0,0,1-1.552-.442c-.686-.518-.029-1.177.146-1.7.406-.469,1.146-.39,1.477-.887a13.848,13.848,0,0,1-3.543-3.251c-.829-.129-1.325.862-1.921,1.331-.722.77-1.632,1.182-2.29,1.92.5.418,1.238.334,1.7.887a1.457,1.457,0,0,1,.3,1.327,1.754,1.754,0,0,1-1.33.739,3.255,3.255,0,0,1-2.509-1.181c-.961-.117-1.127,1.036-1.772,1.625-.1.814.811,1.393,1.4,1.993.895.472,1.305-.932,2.216-1.033a3.172,3.172,0,0,1,1.624.59,2.284,2.284,0,0,1,.521,1.919c-.5,1.305-1.9,1.552-3.106,1.772-1.765.029-4.24.029-4.946-1.918-.615-1.188.212-2.013.294-3.1-.576-.644-1.237-1.552-2.142-1.4-.417.594-1.077,1.171-1.107,1.993.606,1.077,1.513,2.149,1.107,3.472a2.6,2.6,0,0,1-1.4,1.549c-1.407.264-3.056.345-3.769-1.033a1.318,1.318,0,0,1,.3-1.624c.329-.379,1.158-.3,1.551-.148A1.99,1.99,0,0,0,63.469,80.3a3.944,3.944,0,0,0-1.623-1.254c-.7.238-.945,1.061-1.625,1.254a.837.837,0,0,1-.965-.369c-.5-.9,1.232-1.307.592-2.067a13.02,13.02,0,0,1-4.284-2.51l-.147.149c1.441,3.12,3.091,6.173,4.359,9.451.465.764-.077.887-.148,1.992.114,1.785,1.458,3.047,1.328,5.463.194.733-.146,1.148-.146,1.921a1.1,1.1,0,0,0,.81,1.107c2.823.03,28.557.03,30.648,0A.947.947,0,0,0,93.3,94.178a4.974,4.974,0,0,1-.074-2.216c.231-2.628,1.314-3.237,1.257-4.5a3.166,3.166,0,0,1,.22-1.994,36.574,36.574,0,0,1,1.625-4.356c.629-1.993,1.868-3.728,2.365-5.687l-.072-.073Z" transform="translate(3.303 3.972)" fill="#1d1d1b"/>
    <path id="Контур_647" data-name="Контур 647" d="M63.567,88.221a.734.734,0,0,0-.738.729h.01a.755.755,0,0,0,.728.74.782.782,0,0,0,.739-.74.745.745,0,0,0-.739-.729Z" transform="translate(4.09 5.654)" fill="#1d1d1b"/>
    <path id="Контур_648" data-name="Контур 648" d="M71.177,88.221a.7.7,0,0,0-.733.729.72.72,0,0,0,.733.74.712.712,0,0,0,.666-.74.679.679,0,0,0-.666-.729Z" transform="translate(4.898 5.654)" fill="#1d1d1b"/>
    <path id="Контур_649" data-name="Контур 649" d="M86.6,88.221a.733.733,0,0,0-.741.729h.008a.755.755,0,0,0,.733.74.784.784,0,0,0,.736-.74.746.746,0,0,0-.736-.729Z" transform="translate(6.535 5.654)" fill="#1d1d1b"/>
    <path id="Контур_650" data-name="Контур 650" d="M67.454,89.962a1.1,1.1,0,0,1-1.109-1.036,1.067,1.067,0,0,1,1.109-1.033,1.026,1.026,0,0,1,1.031,1.033,1.06,1.06,0,0,1-1.031,1.036Zm1.992-2.883H65.459v.015a.953.953,0,0,0-.961,1.02v1.623a.914.914,0,0,0,.961.961h3.987a.929.929,0,0,0,.957-.961V88.114a.982.982,0,0,0-.957-1.035Z" transform="translate(4.267 5.532)" fill="#1d1d1b"/>
    <path id="Контур_651" data-name="Контур 651" d="M75.336,90.028A1.047,1.047,0,0,1,74.3,88.992h0a1.012,1.012,0,0,1,1.035-1.034.978.978,0,0,1,1.034,1.034,1.007,1.007,0,0,1-1.034,1.035Zm2-2.883h-3.99a1.082,1.082,0,0,0-1.031,1.034V89.8a1,1,0,0,0,1.031.959h3.99a.936.936,0,0,0,.96-.959l.014-1.625a1.033,1.033,0,0,0-.975-1.034Z" transform="translate(5.096 5.539)" fill="#1d1d1b"/>
    <path id="Контур_652" data-name="Контур 652" d="M83.083,90.09a1,1,0,0,1-1.034-1.033.974.974,0,0,1,1.034-1.033,1,1,0,0,1,1.032,1.033,1.039,1.039,0,0,1-1.032,1.033Zm1.994-2.879h-3.99a1.086,1.086,0,0,0-1.034,1.035V89.87a.981.981,0,0,0,1.034.96h3.99a.935.935,0,0,0,.958-.96l0-1.624a1.045,1.045,0,0,0-.961-1.035Z" transform="translate(5.918 5.546)" fill="#1d1d1b"/>
    <path id="Контур_653" data-name="Контур 653" d="M78.989,88.221a.7.7,0,0,0-.737.729.725.725,0,0,0,.737.74.712.712,0,0,0,.666-.74.679.679,0,0,0-.666-.729Z" transform="translate(5.727 5.654)" fill="#1d1d1b"/>
    <path id="Контур_654" data-name="Контур 654" d="M28.274,97.867c0-.1.055-.633-.142-.645H25.84c-.872,0-.9.208-1.155.983-.042.143-.054.324-.239.324-.084,0-.142-.1-.142-.17l.157-1.365c.011-.167,0-.549.251-.549,1.1,0,2.181.058,4,.058,2.545,0,3.841-.058,4.122-.058.324,0,.393.084.408.408l.07,1.126c.012.139.028.311-.154.311-.521,0,.237-1.069-1.2-1.069H29.946c-.632,0-.561-.058-.561.687v7.173c0,1.18,1.139.717,1.139,1.154,0,.041.013.17-.126.17-.338,0-.731-.059-1.139-.059a18.387,18.387,0,0,0-1.93.059c-.124,0-.168-.044-.168-.185,0-.338,1.113-.2,1.113-1.042V97.867Z" transform="translate(0 6.527)" fill="#1d1d1b"/>
    <path id="Контур_655" data-name="Контур 655" d="M32.81,99.592c-.01-.77-.917-.56-.917-.791,0-.1.084-.116.168-.116.39,0,.769.042,1.161.042.326,0,.656-.042.981-.042.178,0,.2.064.2.1,0,.213-.758.012-.758.8v2.28c0,.146,0,.189.156.189h3.864c.1,0,.087-.265.087-.306V99.592c0-.728-.793-.55-.793-.791,0-.062.022-.116.178-.116.35,0,.9.042,1.1.042.389,0,.548-.042.76-.042.272,0,.3.1.3.168,0,.189-.707.011-.707.739v5.591c0,.77.957.58.957.843,0,.032-.039.128-.113.128-.285,0-.614-.043-.992-.043-.676,0-.969.043-1.173.043-.1,0-.252.032-.252-.139,0-.252.741-.1.741-.768v-2.533c0-.168.04-.264-.087-.264H33.77c-.125,0-.125.064-.125.18v2.627c0,.716,1,.487,1,.813,0,.052-.074.084-.167.084-.137,0-.908-.043-1.468-.043a5.512,5.512,0,0,0-.91.043c-.082,0-.113-.054-.113-.158,0-.305.822.042.822-1v-5.4Z" transform="translate(0.806 6.764)" fill="#1d1d1b"/>
    <path id="Контур_656" data-name="Контур 656" d="M40.719,101.755c0,.36-.022.36.4.36h1.142c1.1,0,.81-.845,1.065-.845.082,0,.116.115.116.2,0,.369-.025.726-.025,1.065,0,.273.025.551.025.835,0,.094-.042.134-.116.134-.33,0,.03-.927-.856-.927H40.908c-.221,0-.189.179-.189.337v1.94c0,.622-.083.875.8.875,2.439,0,2.8-1.086,2.932-1.086.074,0,.085.105.085.126a1.666,1.666,0,0,1-.527,1.024c-.338.379-.57.359-1.036.359-.8,0-1.605-.064-2.406-.043-.421.011-.865.043-1.286.043-.1,0-.16-.022-.16-.107.022-.125.129-.1.463-.272.277-.128.3-.424.3-.919v-4.811c0-.475,0-.981-.572-1.065-.083-.021-.316-.042-.316-.168,0-.084.065-.126.367-.126,2,0,2.545.042,2.99.042.209,0,1.179-.042,1.509-.042.084,0,.1.1.1.231,0,1.171-.147,1.258-.208,1.258-.256,0-.086-.508-.256-.75-.273-.361-1.374-.3-1.794-.3-1.014,0-.992-.042-.992.664v1.962Z" transform="translate(1.56 6.764)" fill="#1d1d1b"/>
    <path id="Контур_657" data-name="Контур 657" d="M49.585,101.006c0,.265.873.195,1.535.195a1.832,1.832,0,0,0,1.952-2c0-1.717-1.3-2.293-2.682-2.293-.506,0-.805-.029-.805.519v3.575Zm5.123,3.867c1.01,1.548,1.7,1.024,1.7,1.364,0,.17-.785.17-.915.17-1.027,0-1.576-.719-2.111-1.521l-1.561-2.461c-.506-.788-.293-.746-1.868-.746-.451,0-.369.253-.369.395v2.965c0,1.211,1.466.775,1.466,1.252,0,.143-.126.116-.239.116s-.452-.059-1.619-.059c-.534,0-1.069.059-1.6.059a.148.148,0,0,1-.14-.157c0-.353,1.028-.154,1.028-1.225V97.868c0-1.351-1.209-.772-1.209-1.251,0-.086.111-.17.279-.17a7.929,7.929,0,0,0,.9.058c.813,0,1.616-.058,2.345-.058.228,0,3.334-.28,3.334,2.436a2.72,2.72,0,0,1-1.772,2.431l2.351,3.56Z" transform="translate(2.438 6.526)" fill="#1d1d1b"/>
    <path id="Контур_658" data-name="Контур 658" d="M56.582,99.592c-.009-.77-.854-.56-.854-.791,0-.1.022-.116.1-.116.394,0,.771.042,1.165.042.325,0,.652-.042.981-.042.168,0,.2.02.2.1,0,.253-.758.012-.758.8v5.665c0,.716.939.473.939.79,0,.075-.031.107-.211.107-.242,0-.7-.043-1.149-.043-.645,0-.865.043-1.013.043-.19,0-.225-.054-.225-.158,0-.305.823.042.823-1v-5.4Z" transform="translate(3.336 6.764)" fill="#1d1d1b"/>
    <path id="Контур_659" data-name="Контур 659" d="M61.316,99.75c0-.073.042-.476-.1-.485h-1.72c-.654,0-.675.158-.865.737-.032.107-.041.243-.178.243a.124.124,0,0,1-.107-.126l.116-1.025c.011-.124,0-.409.189-.409.823,0,1.638.042,3,.042,1.909,0,2.88-.042,3.088-.042.246,0,.3.064.308.305l.052.844c.012.105.022.231-.114.231-.389,0,.178-.8-.9-.8H62.572c-.476,0-.42-.043-.42.517v5.378c0,.886.854.538.854.865,0,.032.008.128-.1.128-.252,0-.55-.043-.854-.043a13.98,13.98,0,0,0-1.446.043c-.094,0-.126-.032-.126-.139,0-.252.833-.146.833-.78V99.75Z" transform="translate(3.613 6.764)" fill="#1d1d1b"/>
    <path id="Контур_660" data-name="Контур 660" d="M66.142,105.179a1.046,1.046,0,0,0-.159.347c0,.116.168.147.411.147h1.962c1.373,0,1.328-.7,1.719-.7.052,0,.107.094.065.18l-.369.7a.5.5,0,0,1-.528.262H64.936c-.1,0-.178-.053-.178-.158a.446.446,0,0,1,.074-.2l3.722-6.214a1.664,1.664,0,0,0,.181-.315c0-.054-.052-.062-.085-.062H66.436c-1.465,0-1.1,1.107-1.435,1.107a.138.138,0,0,1-.147-.128L65,99.05c.042-.3.052-.327.4-.327h4.107c.252,0,.3.074.3.169a.516.516,0,0,1-.1.316l-3.565,5.97Z" transform="translate(4.294 6.768)" fill="#1d1d1b"/>
    <path id="Контур_661" data-name="Контур 661" d="M72.427,101.892a2.2,2.2,0,0,1,.479-.168c.156,0,.126.252.126.337,0,.5.042.491-.378.632l-2.137.761a2.2,2.2,0,0,1-.479.168c-.154,0-.125-.226-.125-.31,0-.534-.044-.519.376-.659l2.138-.761Z" transform="translate(4.842 7.087)" fill="#1d1d1b"/>
    <path id="Контур_662" data-name="Контур 662" d="M78.573,96.333c2.648,0,3.379,1.083,3.783,1.083.116,0,.2-.142.34-.142s.155.226.2,1.139c.025.746.153,1.21-.09,1.21-.166,0-.263-.366-.322-.465-.874-1.5-1.872-2.418-3.686-2.418-2.744,0-4.065,1.827-4.065,4.445,0,2.446,1.409,4.894,4.107,4.894a4.154,4.154,0,0,0,3.8-2.053.238.238,0,0,1,.2-.183.14.14,0,0,1,.126.154l-.323,1.408c-.014.055-1.014,1.108-4.179,1.108a4.711,4.711,0,0,1-4.951-4.894,5.076,5.076,0,0,1,5.063-5.287Z" transform="translate(5.224 6.515)" fill="#1d1d1b"/>
    <path id="Контур_663" data-name="Контур 663" d="M84.438,102.594c-.077.147,0,.189.135.189h2.087c.23,0,.22-.074.168-.211l-1.036-2.542c-.049-.127-.1-.127-.165,0l-1.189,2.564Zm2.846,1.054c-.107-.243-.17-.4-.465-.4H84.5c-.2,0-.39,0-.494.222l-.675,1.477a1.022,1.022,0,0,0-.074.367c0,.741.749.424.749.7,0,.19-.152.158-.285.158-.3,0-.59-.043-.887-.043s-.567.043-.842.043c-.066,0-.1-.054-.1-.116,0-.221.5-.042.771-.645l2.523-5.379c.619-1.328.65-1.5.79-1.5.117,0,.191.305.221.389l2.192,5.431a6.547,6.547,0,0,0,.531,1.2c.314.484.927.253.927.517,0,.1-.074.1-.147.1-.433,0-.866-.043-1.3-.043-.286,0-.569.043-.854.043-.064,0-.233,0-.233-.107,0-.252.637-.145.637-.548a4.434,4.434,0,0,0-.33-1l-.337-.866Z" transform="translate(6.113 6.748)" fill="#1d1d1b"/>
    <path id="Контур_664" data-name="Контур 664" d="M90.824,102.1c0,.2.656.148,1.149.148a1.377,1.377,0,0,0,1.469-1.5c0-1.285-.98-1.719-2.014-1.719-.382,0-.6-.021-.6.392V102.1Zm3.841,2.9c.76,1.159,1.277.77,1.277,1.021,0,.128-.587.128-.684.128-.771,0-1.184-.54-1.585-1.14L92.5,103.169c-.379-.591-.22-.561-1.4-.561-.337,0-.274.191-.274.3v2.226c0,.907,1.1.579,1.1.939,0,.1-.1.084-.178.084s-.341-.043-1.212-.043c-.4,0-.805.043-1.207.043a.11.11,0,0,1-.105-.116c0-.263.771-.116.771-.919V99.751c0-1.011-.906-.582-.906-.939,0-.062.082-.126.208-.126a6.261,6.261,0,0,0,.676.042c.615,0,1.216-.042,1.764-.042.167,0,2.5-.211,2.5,1.824a2.049,2.049,0,0,1-1.331,1.826l1.764,2.669Z" transform="translate(6.877 6.764)" fill="#1d1d1b"/>
    <path id="Контур_665" data-name="Контур 665" d="M96.953,104.855c0,.622-.082.875.805.875,2.434,0,2.793-1.086,2.932-1.086.073,0,.083.105.083.126a1.653,1.653,0,0,1-.53,1.024c-.337.379-.567.359-1.031.359-.8,0-1.606-.064-2.407-.043-.42.011-.862.043-1.284.043-.1,0-.159-.022-.159-.107.022-.125.126-.1.463-.272.274-.128.3-.424.3-.919V99.507c0-.549-.887-.475-.887-.685,0-.117.072-.137.213-.137.218,0,.548.042,1.063.042.6,0,.853-.042,1.013-.042.137,0,.2.02.2.148,0,.241-.774-.022-.774.895v5.127Z" transform="translate(7.53 6.764)" fill="#1d1d1b"/>
    <path id="Контур_666" data-name="Контур 666" d="M102.133,99.75c0-.073.041-.476-.107-.485h-1.72c-.653,0-.674.158-.864.737-.033.107-.042.243-.181.243-.061,0-.1-.072-.1-.126l.117-1.025c.009-.124,0-.409.187-.409.823,0,1.636.042,3,.042,1.909,0,2.879-.042,3.091-.042.243,0,.3.064.308.305l.049.844c.013.105.025.231-.113.231-.393,0,.178-.8-.9-.8h-1.507c-.477,0-.424-.043-.424.517v5.378c0,.886.855.538.855.865,0,.032.01.128-.094.128-.256,0-.549-.043-.856-.043a13.69,13.69,0,0,0-1.445.043c-.1,0-.129-.032-.129-.139,0-.252.836-.146.836-.78V99.75Z" transform="translate(7.946 6.764)" fill="#1d1d1b"/>
    <path id="Контур_667" data-name="Контур 667" d="M106.173,102.081a3.577,3.577,0,0,0,3.367,3.838,2.883,2.883,0,0,0,2.772-3.186,3.56,3.56,0,0,0-3.354-3.787,2.866,2.866,0,0,0-2.785,3.135Zm-.768.3a3.75,3.75,0,0,1,3.869-3.785,3.665,3.665,0,0,1,3.809,3.732,3.732,3.732,0,0,1-3.987,3.9,3.568,3.568,0,0,1-3.691-3.849Z" transform="translate(8.61 6.755)" fill="#1d1d1b"/>
    <path id="Контур_668" data-name="Контур 668" d="M113.551,100.761c0-2.192-1.278-1.58-1.278-1.972,0-.062.107-.1.156-.1.169,0,.33.042.5.042s.327-.042.483-.042c.118,0,.213.168.278.243l5.026,5.6c.06.073.107.115.126.115s.033-.032.033-.115V100.12c0-1.38-1.167-.983-1.167-1.331a.1.1,0,0,1,.114-.1c.319,0,.619.042.954.042.363,0,.815-.042,1.067-.042.067,0,.107.032.107.094,0,.275-.619.085-.619.853v6.112c0,.3-.011.452-.1.452s-.181-.054-.4-.294l-4.53-5.108c-.022-.02-.152-.2-.222-.2-.043,0-.074.034-.074.243v4.316c0,.947.928.577.928.862,0,.055-.012.139-.115.139-.253,0-.549-.043-1.067-.043-.368,0-.918.043-.991.043-.126,0-.135-.064-.135-.116,0-.369.927.094.927-1.383v-3.894Z" transform="translate(9.339 6.764)" fill="#1d1d1b"/>
    <path id="Контур_669" data-name="Контур 669" d="M122.8,98.793h.692c.383,0,.657-.132.657-.466,0-.357-.2-.548-.657-.548H122.8v1.013Zm-.569,1.814V97.35h1.251c.919,0,1.29.4,1.29.955a.883.883,0,0,1-.7.871l.692,1.432h-.637l-.665-1.384H122.8v1.384Zm1.169.942a2.481,2.481,0,1,0-2.486-2.483,2.5,2.5,0,0,0,2.486,2.483Zm0-5.322a2.841,2.841,0,1,1-2.841,2.838,2.856,2.856,0,0,1,2.841-2.838Z" transform="translate(10.218 6.504)" fill="#1d1d1b"/>
    <path id="Контур_670" data-name="Контур 670" d="M64.159,112.664c-.06.122,0,.156.115.156h1.741c.194,0,.185-.059.142-.176l-.864-2.118c-.046-.1-.085-.1-.14,0l-.993,2.138Zm2.376.879c-.086-.206-.142-.335-.387-.335H64.211c-.164,0-.324,0-.413.184l-.563,1.231a.936.936,0,0,0-.061.308c0,.615.624.351.624.581,0,.158-.125.133-.237.133-.246,0-.492-.035-.738-.035s-.476.035-.7.035c-.052,0-.081-.045-.081-.1,0-.184.415-.034.642-.534l2.1-4.485c.519-1.107.548-1.248.656-1.248s.16.257.189.327l1.831,4.528a5.363,5.363,0,0,0,.44,1c.26.406.772.209.772.428,0,.082-.063.082-.122.082-.364,0-.721-.035-1.084-.035-.237,0-.473.035-.712.035-.052,0-.194,0-.194-.088,0-.212.528-.125.528-.457a3.56,3.56,0,0,0-.273-.833l-.279-.722Z" transform="translate(4.006 7.889)" fill="#1d1d1b"/>
    <path id="Контур_671" data-name="Контур 671" d="M69.326,114.662c0,.387-.054.546.5.546,1.52,0,1.747-.679,1.834-.679.045,0,.052.067.052.08a1.041,1.041,0,0,1-.33.638c-.211.238-.359.227-.648.227-.5,0-1-.042-1.5-.028-.265.006-.544.028-.8.028-.06,0-.1-.017-.1-.067.013-.079.081-.065.292-.171.171-.079.185-.263.185-.573v-3.344c0-.342-.552-.3-.552-.427,0-.072.045-.087.131-.087.139,0,.341.027.667.027.375,0,.531-.027.632-.027s.126.015.126.092c0,.154-.482-.011-.482.562v3.2Z" transform="translate(4.666 8.051)" fill="#1d1d1b"/>
    <path id="Контур_672" data-name="Контур 672" d="M76.544,114.866c.035.554.52.311.52.541,0,.067-.083.067-.157.067-.126,0-.356-.028-.619-.028-.2,0-.418.028-.582.028-.056,0-.07-.034-.07-.059,0-.2.415-.055.408-.544l-.067-2.555c0-.167-.03-.261-.071-.261s-.107.063-.171.2l-1.365,2.783c-.035.06-.14.329-.2.329s-.114-.145-.133-.19l-1.4-2.941c-.022-.054-.052-.072-.082-.072s-.038.031-.044.1l-.079,2.313c-.033.877.592.588.592.825,0,.065-.071.074-.165.074s-.382-.028-.582-.028c-.341,0-.45.028-.571.028-.045,0-.067-.034-.067-.081,0-.226.424.046.467-.638.08-1.077.16-1.774.16-2.473,0-1.549-.627-1.179-.627-1.4,0-.059.052-.074.111-.074.119,0,.239.027.365.027s.237-.027.356-.027c.088,0,.106.114.139.185l1.571,3.348c.071.139.1.2.143.2s.1-.139.207-.356l1.569-3.149c.038-.074.093-.233.171-.227s.274.027.311.027c.149,0,.208-.027.316-.027a.074.074,0,0,1,.065.081c0,.211-.53-.072-.5.712l.091,3.269Z" transform="translate(5.024 8.051)" fill="#1d1d1b"/>
    <path id="Контур_673" data-name="Контур 673" d="M78.4,113.247c-.046.094,0,.121.085.121H79.8c.145,0,.137-.045.107-.133l-.647-1.588c-.034-.081-.065-.081-.105,0l-.746,1.6Zm1.78.66c-.063-.153-.107-.25-.29-.25h-1.45c-.126,0-.246,0-.311.137l-.424.924a.753.753,0,0,0-.042.232c0,.46.466.263.466.434,0,.117-.091.1-.175.1-.187,0-.372-.028-.556-.028s-.357.028-.528.028a.068.068,0,0,1-.062-.074c0-.138.314-.027.482-.4l1.58-3.361c.386-.832.408-.938.493-.938s.118.194.136.246l1.373,3.394a4.35,4.35,0,0,0,.327.752c.2.3.583.158.583.326,0,.059-.045.059-.094.059-.267,0-.538-.028-.807-.028-.181,0-.356.028-.538.028-.038,0-.145,0-.145-.067,0-.159.4-.092.4-.343a2.68,2.68,0,0,0-.2-.625l-.21-.542Z" transform="translate(5.574 8.041)" fill="#1d1d1b"/>
    <path id="Контур_674" data-name="Контур 674" d="M82.65,111.472c0-.046.029-.3-.064-.305H81.51c-.408,0-.424.1-.543.462-.019.065-.025.153-.107.153-.044,0-.067-.049-.067-.081l.071-.638c.006-.081,0-.259.123-.259.512,0,1.02.027,1.868.027,1.2,0,1.8-.027,1.934-.027.149,0,.183.04.189.194l.034.525c.008.067.011.146-.074.146-.24,0,.114-.5-.558-.5h-.942c-.294,0-.264-.027-.264.323v3.363c0,.554.534.336.534.541,0,.022.007.081-.059.081-.159,0-.343-.028-.534-.028a8.58,8.58,0,0,0-.906.028c-.059,0-.076-.022-.076-.087,0-.158.519-.093.519-.488v-3.427Z" transform="translate(5.997 8.051)" fill="#1d1d1b"/>
    <path id="Контур_675" data-name="Контур 675" d="M85.249,111.221c-.17-.284-.493-.206-.493-.316a.1.1,0,0,1,.085-.1c.178,0,.3.027.75.027.22,0,.4-.027.465-.027.045,0,.123.009.123.069,0,.11-.308.116-.308.306a.556.556,0,0,0,.118.272l.8,1.273c.049.077.091.119.127.119s.074-.048.126-.135l.679-1.1a.611.611,0,0,0,.137-.361c0-.324-.493-.185-.493-.343,0-.085.067-.1.14-.1.158,0,.323.027.479.027.192,0,.382-.027.575-.027a.088.088,0,0,1,.074.081c0,.072-.115.1-.16.124a1.245,1.245,0,0,0-.371.457l-.921,1.435c-.105.165-.159.2-.159.3v1.618c0,.571.543.387.543.591,0,.059-.06.067-.154.067s-.481-.028-.726-.028c-.293,0-.534.028-.591.028s-.1-.009-.1-.081c0-.185.511-.012.511-.48v-1.6a.689.689,0,0,0-.152-.336l-1.1-1.76Z" transform="translate(6.417 8.051)" fill="#1d1d1b"/>
  </g>
</svg>
