<svg xmlns="http://www.w3.org/2000/svg" xmlns:xlink="http://www.w3.org/1999/xlink" width="77.6" height="77.5" viewBox="0 0 77.6 77.5">
  <defs>
    <clipPath id="clip-path">
      <path id="Контур_552" data-name="Контур 552" d="M36.7,114.5V37h77.6v77.5"/>
    </clipPath>
  </defs>
  <g id="ttg_luxury_logo" transform="translate(-36.7 -37)">
    <g id="Сгруппировать_159" data-name="Сгруппировать 159">
      <path id="Контур_542" data-name="Контур 542" d="M114.3,114.5H36.8V37h77.5Z" fill="#1d1d1b"/>
    </g>
    <g id="Сгруппировать_160" data-name="Сгруппировать 160">
      <path id="Контур_543" data-name="Контур 543" d="M44.1,88.8c-1.9.1-3-.6-3-3.6V77.1H39V75.7h2.2V71.9h1.5v3.9h2.7v1.4H42.7V85c0,1.6,0,2.5,1.5,2.5a1.929,1.929,0,0,0,1.5-.4v1.3a2.4,2.4,0,0,1-1.6.4Z" fill="#b1b1b1"/>
    </g>
    <g id="Сгруппировать_162" data-name="Сгруппировать 162">
      <path id="Контур_544" data-name="Контур 544" d="M59,76.8c-2.6,0-4,2-4,5s1.4,5,4,5,4-2,4-5-1.4-5-4-5Zm-.2,16.5a12.1,12.1,0,0,1-4.3-.5l.3-1.3a17.618,17.618,0,0,0,4,.5c3,0,4.2-1.6,4.2-3.8V86.1a4.908,4.908,0,0,1-4.2,2A5.178,5.178,0,0,1,55,86.6a6.88,6.88,0,0,1-1.6-4.9A6.88,6.88,0,0,1,55,76.8a5.178,5.178,0,0,1,3.8-1.5,5.026,5.026,0,0,1,4.3,1.9V75.5h1.4V88.2c0,3.3-1.8,5.1-5.7,5.1Z" fill="#b1b1b1"/>
    </g>
    <g id="Сгруппировать_163" data-name="Сгруппировать 163">
      <path id="Контур_545" data-name="Контур 545" d="M51.1,88.8c-1.9.1-3-.6-3-3.6V77.1H45.9V75.7h2.2V71.9h1.5v3.9h2.7v1.4H49.6V85c0,1.6,0,2.5,1.5,2.5a1.929,1.929,0,0,0,1.5-.4v1.3a2.146,2.146,0,0,1-1.5.4Z" fill="#b1b1b1"/>
    </g>
    <g id="Сгруппировать_164" data-name="Сгруппировать 164">
      <path id="Контур_546" data-name="Контур 546" d="M51.6,109.7c-3.4,0-3.8-1.7-3.8-4.6V90.8h1.5v14c0,2.6-.2,3.5,2.5,3.5h.6v1.4h-.8Z" fill="#fff"/>
    </g>
    <g id="Сгруппировать_165" data-name="Сгруппировать 165">
      <path id="Контур_547" data-name="Контур 547" d="M62.9,109.5v-2.1a4.923,4.923,0,0,1-4.5,2.3,5.754,5.754,0,0,1-3.9-1.3,4.573,4.573,0,0,1-1.3-3.3V96.6h1.5v7.8a4.03,4.03,0,0,0,.9,2.9,4.319,4.319,0,0,0,7.2-3.2V96.6h1.5v12.9Z" fill="#fff"/>
    </g>
    <g id="Сгруппировать_166" data-name="Сгруппировать 166">
      <path id="Контур_548" data-name="Контур 548" d="M74.8,109.5l-3.9-5.6-3.8,5.6H65.2l4.8-6.7-4.5-6.2h2l3.6,5.1,3.5-5.1h1.9l-4.4,6.2,4.7,6.7Z" fill="#fff"/>
    </g>
    <g id="Сгруппировать_167" data-name="Сгруппировать 167">
      <path id="Контур_549" data-name="Контур 549" d="M87.8,109.5v-2.1a4.923,4.923,0,0,1-4.5,2.3,5.754,5.754,0,0,1-3.9-1.3,4.573,4.573,0,0,1-1.3-3.3V96.6h1.5v7.8a4.03,4.03,0,0,0,.9,2.9,4.319,4.319,0,0,0,7.2-3.2V96.6h1.5v12.9Z" fill="#fff"/>
    </g>
    <g id="Сгруппировать_168" data-name="Сгруппировать 168">
      <path id="Контур_550" data-name="Контур 550" d="M97.9,97.9a11.567,11.567,0,0,0-2.1-.1c-2.4,0-3.7,2.8-3.7,5.1v6.8H90.6V96.9h1.6v1.6a3.45,3.45,0,0,1,.8-.9,4.1,4.1,0,0,1,2.9-1c2.4,0,2,.1,2,.1v1.2Z" fill="#fff"/>
    </g>
    <g id="Сгруппировать_170" data-name="Сгруппировать 170">
      <g id="Сгруппировать_169" data-name="Сгруппировать 169" clip-path="url(#clip-path)">
        <path id="Контур_551" data-name="Контур 551" d="M103.2,116.2c-.7,1.8-1.9,3-3.5,3H99v-1.8h.7c1,0,1.6-.6,2.1-1.8l2.4-5.9L98.3,96.6h1.9l4.8,11.1,4.5-11.1h1.7l-8,19.6Z" fill="#fff"/>
      </g>
    </g>
    <g id="Сгруппировать_171" data-name="Сгруппировать 171">
      <path id="Контур_553" data-name="Контур 553" d="M102.7,85.5c0-1.3-.2-1.9-.6-2.3a3.022,3.022,0,0,0-5.4,2.2v1.9h5.9V85.5Zm7.6-5.2v1.6l-6.5,3.2v2.1h6.5v1.4H95.7V85.2a5.181,5.181,0,0,1,.5-2.8c.5-1,1.6-1.6,3.3-1.6a3.858,3.858,0,0,1,4.1,2.9l6.7-3.4Z" fill="#81358a"/>
    </g>
    <g id="Сгруппировать_172" data-name="Сгруппировать 172">
      <path id="Контур_554" data-name="Контур 554" d="M106,71.2c3.1,0,4.5,1.5,4.5,4.1,0,2.7-1.3,4.1-4.4,4.1H95.7V78h10a4.7,4.7,0,0,0,2.4-.4,2.383,2.383,0,0,0,1.3-2.4,2.264,2.264,0,0,0-1.2-2.3,5.744,5.744,0,0,0-2.4-.4H95.7V71.1H106Z" fill="#81358a"/>
    </g>
    <g id="Сгруппировать_173" data-name="Сгруппировать 173">
      <path id="Контур_555" data-name="Контур 555" d="M96.9,63.2a14.316,14.316,0,0,0-.3,2.3c0,2,1,2.9,2.4,2.9s2.2-.9,3.1-2.5c1.2-2.1,2.3-3.3,4.3-3.3,2.5,0,4,1.5,4,4.5a10.26,10.26,0,0,1-.4,2.7h-1.1a10.425,10.425,0,0,0,.4-2.8c0-2.2-1-3.1-2.7-3.1-1.6,0-2.3,1-3.4,2.7-1.1,1.8-2.1,3.1-4.1,3.1-2.5,0-3.7-1.8-3.7-4.3a8.26,8.26,0,0,1,.3-2.4h1.2Z" fill="#81358a"/>
    </g>
    <g id="Сгруппировать_174" data-name="Сгруппировать 174">
      <path id="Контур_556" data-name="Контур 556" d="M96.9,55.1a14.316,14.316,0,0,0-.3,2.3c0,2,1,2.9,2.4,2.9s2.2-.9,3.1-2.5c1.2-2.1,2.3-3.3,4.3-3.3,2.5,0,4,1.5,4,4.5a10.26,10.26,0,0,1-.4,2.7h-1.1a10.425,10.425,0,0,0,.4-2.8c0-2.2-1-3.1-2.7-3.1-1.6,0-2.3,1-3.4,2.7-1.1,1.8-2.1,3.1-4.1,3.1-2.5,0-3.7-1.8-3.7-4.3a8.26,8.26,0,0,1,.3-2.4h1.2Z" fill="#81358a"/>
    </g>
    <g id="Сгруппировать_175" data-name="Сгруппировать 175">
      <path id="Контур_557" data-name="Контур 557" d="M110.3,50.4v3.3h-1.1v-1H96.8v1H95.7V50.4h1.1v1h12.4v-1Z" fill="#81358a"/>
    </g>
    <g id="Сгруппировать_176" data-name="Сгруппировать 176">
      <path id="Контур_558" data-name="Контур 558" d="M105.5,42.7,97.2,45l8.3,2.4V42.7Zm4.8-2.8v1.4l-3.7,1.1v5.3l3.7,1.1v1.3L95.7,45.6V44.1l14.6-4.2Z" fill="#81358a"/>
    </g>
  </g>
</svg>
