<svg xmlns="http://www.w3.org/2000/svg" width="69.3" height="67.391" viewBox="0 0 69.3 67.391">
  <g id="ico_1k" transform="translate(-15.4 -20.42)">
    <g id="Group_295" data-name="Group 295">
      <path id="Path_800" data-name="Path 800" d="M23.4,63V54.929c0-2.283-1.153-2.92-2.87-2.92a5.074,5.074,0,0,0-3.853,2.037V63H15.4V46.636h1.276v6.305a6.009,6.009,0,0,1,4.27-2.085c2.4,0,3.729,1.128,3.729,3.8V63Z" fill="#0098c1"/>
      <path id="Path_801" data-name="Path 801" d="M27.959,57.063c0-3.459,2.233-6.207,5.693-6.207,3.509,0,5.717,2.748,5.717,6.207S37.161,63.3,33.652,63.3C30.192,63.3,27.959,60.523,27.959,57.063Zm10.036,0c0-2.625-1.546-5.054-4.343-5.054-2.748,0-4.319,2.429-4.319,5.054,0,2.65,1.571,5.08,4.319,5.08C36.449,62.143,37.995,59.713,37.995,57.063Z" fill="#0098c1"/>
      <path id="Path_802" data-name="Path 802" d="M41.623,61.431l.76-.957a4.936,4.936,0,0,0,3.828,1.742c1.988,0,3.165-1.03,3.165-2.4,0-3.24-7.483-1.423-7.483-5.668,0-1.816,1.545-3.288,4.22-3.288A5.451,5.451,0,0,1,50.358,52.6l-.712.908a4.315,4.315,0,0,0-3.533-1.57c-1.84,0-2.969.932-2.969,2.159,0,2.968,7.483,1.153,7.483,5.717,0,1.914-1.471,3.484-4.44,3.484A5.742,5.742,0,0,1,41.623,61.431Z" fill="#0098c1"/>
      <path id="Path_803" data-name="Path 803" d="M54.158,60.72V52.279H52.195V51.15h1.963V47.912h1.3V51.15h2.4v1.129h-2.4v8.244c0,.956.393,1.62,1.227,1.62a1.856,1.856,0,0,0,1.325-.565l.49.982a2.666,2.666,0,0,1-2.012.736C54.919,63.3,54.158,62.339,54.158,60.72Z" fill="#0098c1"/>
      <path id="Path_804" data-name="Path 804" d="M59.972,57.063c0-3.435,2.429-6.207,5.717-6.207,3.607,0,5.594,2.871,5.594,6.281v.343H61.371a4.618,4.618,0,0,0,4.637,4.711,5.209,5.209,0,0,0,3.877-1.643l.662.834A6.115,6.115,0,0,1,65.91,63.3C62.45,63.3,59.972,60.72,59.972,57.063Zm5.692-5.1a4.459,4.459,0,0,0-4.293,4.515h8.611A4.344,4.344,0,0,0,65.664,51.96Z" fill="#0098c1"/>
      <path id="Path_805" data-name="Path 805" d="M83.3,63V61.112A5.05,5.05,0,0,1,79.181,63.3c-3.141,0-5.3-2.405-5.3-6.208,0-3.754,2.16-6.232,5.3-6.232A5.033,5.033,0,0,1,83.3,53.064V46.636h1.3V63Zm0-2.969V54.168a4.737,4.737,0,0,0-3.9-2.159c-2.626,0-4.146,2.208-4.146,5.079s1.52,5.055,4.146,5.055A4.757,4.757,0,0,0,83.3,60.032Z" fill="#0098c1"/>
      <path id="Path_806" data-name="Path 806" d="M15.989,83V66.636h1.276v6.428a5.067,5.067,0,0,1,4.122-2.209c3.165,0,5.3,2.479,5.3,6.233,0,3.8-2.159,6.208-5.3,6.208a5.05,5.05,0,0,1-4.122-2.184V83Zm5.178-.858c2.649,0,4.146-2.184,4.146-5.055s-1.5-5.079-4.146-5.079a4.829,4.829,0,0,0-3.9,2.159v5.864A4.789,4.789,0,0,0,21.167,82.143Z" fill="#0098c1"/>
      <path id="Path_807" data-name="Path 807" d="M37.995,83V81.259A6.011,6.011,0,0,1,33.726,83.3c-2.43,0-3.73-1.129-3.73-3.8V71.15h1.276V79.2c0,2.307,1.153,2.945,2.871,2.945a5.128,5.128,0,0,0,3.852-1.963V71.15h1.276V83Z" fill="#0098c1"/>
      <path id="Path_808" data-name="Path 808" d="M42.678,86.461a2.97,2.97,0,0,0,1.03.2c.786,0,1.326-.319,1.792-1.448l.932-2.109L41.427,71.15H42.85L47.168,81.5l4.27-10.355h1.448L46.751,85.6a3.146,3.146,0,0,1-3.043,2.209,5.026,5.026,0,0,1-1.251-.172Z" fill="#0098c1"/>
      <path id="Path_809" data-name="Path 809" d="M54.354,77.063c0-3.435,2.429-6.208,5.717-6.208,3.607,0,5.6,2.872,5.6,6.282v.343H55.753a4.619,4.619,0,0,0,4.638,4.711,5.209,5.209,0,0,0,3.876-1.643l.663.834A6.118,6.118,0,0,1,60.292,83.3C56.833,83.3,54.354,80.72,54.354,77.063Zm5.693-5.1a4.461,4.461,0,0,0-4.294,4.515h8.612A4.344,4.344,0,0,0,60.047,71.96Z" fill="#0098c1"/>
      <path id="Path_810" data-name="Path 810" d="M68.949,83V71.15h1.277v2.037a5.087,5.087,0,0,1,4-2.282v1.4a2.66,2.66,0,0,0-.639-.05,4.517,4.517,0,0,0-3.361,2.11V83Z" fill="#0098c1"/>
      <path id="Path_811" data-name="Path 811" d="M75.695,81.431l.761-.957a4.936,4.936,0,0,0,3.827,1.742c1.988,0,3.165-1.03,3.165-2.4,0-3.24-7.483-1.423-7.483-5.668,0-1.816,1.546-3.289,4.221-3.289A5.449,5.449,0,0,1,84.43,72.6l-.711.908a4.317,4.317,0,0,0-3.533-1.57c-1.841,0-2.969.932-2.969,2.159,0,2.968,7.483,1.153,7.483,5.717,0,1.914-1.472,3.484-4.441,3.484A5.742,5.742,0,0,1,75.695,81.431Z" fill="#0098c1"/>
    </g>
    <g id="Group_296" data-name="Group 296">
      <path id="Path_812" data-name="Path 812" d="M37.126,25.523l-3.659,3.793-2.282-2.383L37.63,20.42h3.424V42.811H37.126Z" fill="#0098c1"/>
      <path id="Path_813" data-name="Path 813" d="M51.494,36.131l-2.249,2.316v4.364H45.72V20.42h3.525v14L56.4,26.6H60.76l-6.748,7.352,6.882,8.862H56.463Z" fill="#0098c1"/>
      <path id="Path_814" data-name="Path 814" d="M65.19,38.48a2.35,2.35,0,1,1-2.349,2.351A2.379,2.379,0,0,1,65.19,38.48Z" fill="#0098c1"/>
    </g>
  </g>
</svg>
