<svg xmlns="http://www.w3.org/2000/svg" width="72.208" height="68.166" viewBox="0 0 72.208 68.166">
  <g id="ico_1200" transform="translate(-13.896 -15.917)">
    <g id="Group_291" data-name="Group 291">
      <path id="Path_786" data-name="Path 786" d="M27.162,22.125c0-3.46,2.233-6.208,5.692-6.208,3.509,0,5.718,2.748,5.718,6.208s-2.209,6.232-5.718,6.232C29.4,28.357,27.162,25.585,27.162,22.125Zm10.036,0c0-2.625-1.546-5.054-4.344-5.054-2.748,0-4.318,2.429-4.318,5.054,0,2.65,1.57,5.079,4.318,5.079C35.652,27.2,37.2,24.775,37.2,22.125Z" fill="#0098c1"/>
      <path id="Path_787" data-name="Path 787" d="M45.046,28.063,40.04,16.212h1.423l4.318,10.354,4.27-10.354H51.5L46.493,28.063Z" fill="#0098c1"/>
      <path id="Path_788" data-name="Path 788" d="M52.968,22.125c0-3.435,2.429-6.208,5.717-6.208,3.606,0,5.594,2.871,5.594,6.281v.344H54.366A4.619,4.619,0,0,0,59,27.253a5.207,5.207,0,0,0,3.877-1.644l.662.835a6.112,6.112,0,0,1-4.636,1.913C55.446,28.357,52.968,25.781,52.968,22.125Zm5.692-5.1a4.46,4.46,0,0,0-4.294,4.514h8.613A4.345,4.345,0,0,0,58.66,17.022Z" fill="#0098c1"/>
      <path id="Path_789" data-name="Path 789" d="M67.563,28.063V16.212h1.276v2.036a5.091,5.091,0,0,1,4-2.281v1.4a2.7,2.7,0,0,0-.638-.049,4.515,4.515,0,0,0-3.361,2.11v8.637Z" fill="#0098c1"/>
    </g>
    <g id="Group_292" data-name="Group 292">
      <path id="Path_790" data-name="Path 790" d="M16.81,82.292l.736-.982a4.541,4.541,0,0,0,3.926,1.669c2.159,0,4.048-1.08,4.048-3.8V77.311A5.133,5.133,0,0,1,21.4,79.519c-3.14,0-5.3-2.38-5.3-6.182,0-3.755,2.16-6.208,5.3-6.208a5.027,5.027,0,0,1,4.122,2.208V67.423h1.3V79.151c0,3.632-2.454,4.932-5.349,4.932A5.69,5.69,0,0,1,16.81,82.292Zm8.71-6.085V70.441a4.768,4.768,0,0,0-3.9-2.159c-2.625,0-4.147,2.184-4.147,5.055s1.522,5.029,4.147,5.029A4.768,4.768,0,0,0,25.52,76.207Z" fill="#0098c1"/>
      <path id="Path_791" data-name="Path 791" d="M38.766,79.274V77.532A6.012,6.012,0,0,1,34.5,79.568c-2.429,0-3.73-1.128-3.73-3.8V67.423h1.276V75.47c0,2.307,1.154,2.945,2.871,2.945a5.121,5.121,0,0,0,3.852-1.963V67.423h1.276V79.274Z" fill="#0098c1"/>
      <path id="Path_792" data-name="Path 792" d="M43.327,73.337c0-3.436,2.429-6.208,5.717-6.208,3.607,0,5.594,2.871,5.594,6.281v.344H44.726a4.618,4.618,0,0,0,4.637,4.711A5.207,5.207,0,0,0,53.24,76.82l.663.835a6.113,6.113,0,0,1-4.638,1.913C45.805,79.568,43.327,76.992,43.327,73.337Zm5.693-5.1a4.459,4.459,0,0,0-4.294,4.515h8.612A4.344,4.344,0,0,0,49.02,68.233Z" fill="#0098c1"/>
      <path id="Path_793" data-name="Path 793" d="M56.892,77.7l.761-.957a4.934,4.934,0,0,0,3.827,1.742c1.987,0,3.165-1.03,3.165-2.4,0-3.24-7.484-1.424-7.484-5.668,0-1.817,1.546-3.288,4.221-3.288a5.447,5.447,0,0,1,4.244,1.742l-.711.907a4.318,4.318,0,0,0-3.533-1.57c-1.841,0-2.969.932-2.969,2.159,0,2.97,7.484,1.153,7.484,5.718,0,1.913-1.473,3.483-4.442,3.483A5.739,5.739,0,0,1,56.892,77.7Z" fill="#0098c1"/>
      <path id="Path_794" data-name="Path 794" d="M69.427,76.992v-8.44H67.464V67.423h1.963V64.184h1.3v3.239h2.4v1.129h-2.4V76.8c0,.957.392,1.619,1.226,1.619a1.854,1.854,0,0,0,1.326-.564l.49.982a2.665,2.665,0,0,1-2.012.735C70.188,79.568,69.427,78.611,69.427,76.992Z" fill="#0098c1"/>
      <path id="Path_795" data-name="Path 795" d="M74.9,77.7l.76-.957a4.938,4.938,0,0,0,3.828,1.742c1.987,0,3.165-1.03,3.165-2.4,0-3.24-7.484-1.424-7.484-5.668,0-1.817,1.546-3.288,4.221-3.288a5.447,5.447,0,0,1,4.244,1.742l-.711.907a4.318,4.318,0,0,0-3.533-1.57c-1.841,0-2.969.932-2.969,2.159,0,2.97,7.484,1.153,7.484,5.718,0,1.913-1.473,3.483-4.442,3.483A5.738,5.738,0,0,1,74.9,77.7Z" fill="#0098c1"/>
    </g>
    <g id="Group_293" data-name="Group 293">
      <path id="Path_796" data-name="Path 796" d="M19.838,40.145l-3.659,3.793L13.9,41.554l6.445-6.512h3.425V57.433H19.838Z" fill="#0098c1"/>
      <path id="Path_797" data-name="Path 797" d="M27.827,54.344c8.695-6.579,12.085-9.5,12.085-12.722,0-2.35-2.014-3.424-4.061-3.424a7.775,7.775,0,0,0-6.043,2.685L27.525,38.3a10.733,10.733,0,0,1,8.258-3.592c4.331,0,8.124,2.451,8.124,6.916,0,4.128-3.793,7.822-9.8,12.353h9.937v3.458H27.827Z" fill="#0098c1"/>
      <path id="Path_798" data-name="Path 798" d="M56.462,34.706c6.278,0,8.963,5.909,8.963,11.548S62.74,57.835,56.462,57.835,47.5,51.894,47.5,46.254,50.184,34.706,56.462,34.706Zm0,3.492c-3.659,0-4.968,3.793-4.968,8.056s1.309,8.09,4.968,8.09,4.968-3.826,4.968-8.09S60.121,38.2,56.462,38.2Z" fill="#0098c1"/>
      <path id="Path_799" data-name="Path 799" d="M77.14,34.706c6.278,0,8.964,5.909,8.964,11.548S83.418,57.835,77.14,57.835s-8.963-5.941-8.963-11.581S70.863,34.706,77.14,34.706Zm0,3.492c-3.658,0-4.968,3.793-4.968,8.056s1.31,8.09,4.968,8.09,4.969-3.826,4.969-8.09S80.8,38.2,77.14,38.2Z" fill="#0098c1"/>
    </g>
  </g>
</svg>
