<svg xmlns="http://www.w3.org/2000/svg" width="119" height="85.31" viewBox="0 0 119 85.31">
  <g id="ElCorte_logo" transform="translate(-14.2 -32.6)">
    <path id="Path_207" data-name="Path 207" d="M15.6,108.311h1.379a3.385,3.385,0,0,0,2.266-.493,2.883,2.883,0,0,0,.985-2.266,2.6,2.6,0,0,0-.985-2.266,4.14,4.14,0,0,0-2.561-.493H15.5v5.517Zm.887-.887v-3.94h.591c.69,0,1.182,0,1.576.394a2.08,2.08,0,0,1,.591,1.576,1.939,1.939,0,0,1-.591,1.576,2.374,2.374,0,0,1-1.478.394h-.69Zm6.994.887h3.152v-.788H24.464v-1.773h2.167v-.788H24.464v-1.379h2.167v-.788H23.479v5.517Zm7.191-2.561h.493a2.061,2.061,0,0,0,1.379-.3,1.755,1.755,0,0,0,.591-1.281,1.464,1.464,0,0,0-.591-1.281,2.061,2.061,0,0,0-1.379-.3H29.784v5.517h.887v-2.364Zm0-.69v-1.576h.2c.887,0,1.281.1,1.281.788s-.394.788-1.281.788h-.2Zm8.669,3.251h.985l-2.66-5.812L35,108.311h.985l.69-1.478h2.167l.493,1.478Zm-2.463-2.266.591-1.281c.1-.2.1-.394.2-.591a3.874,3.874,0,0,1,.2.591l.591,1.281Zm6.994-.3h.1l1.872,2.463h.985l-1.872-2.561a1.3,1.3,0,0,0,1.281-1.478,1.476,1.476,0,0,0-.493-1.182c-.3-.3-.788-.3-1.379-.3H43.083v5.517h.887v-2.463Zm.1-.69v-1.576h.2c.788,0,1.182.2,1.182.788,0,.69-.394.788-1.182.788h-.2Zm7.388-1.576h1.478V102.7H48.993v.788h1.478v4.827h.887v-4.827Zm8.866,2.069.591,2.758H61.7L60.322,102.5l-1.576,3.448a6.786,6.786,0,0,0-.3.788,2.666,2.666,0,0,1-.3-.788L56.48,102.5,55.2,108.311h.788l.591-2.758a2.169,2.169,0,0,0,.1-.788,4.8,4.8,0,0,0,.3.69l1.478,3.054,1.478-2.955c.1-.3.2-.493.3-.788v.788Zm4.334,2.758H67.71v-.788H65.543v-1.773H67.71v-.788H65.543v-1.379H67.71v-.788H64.558v5.517Zm6.3,0h.788v-3.842c.2.2.3.394.493.591l3.645,3.448V102.7H75v3.842c-.2-.2-.394-.493-.591-.69L70.863,102.4v5.911Zm10.245-4.827h1.478V102.7H78.743v.788h1.478v4.827h.887v-4.827Zm8.57,3.645a1.876,1.876,0,0,0,3.645-.394c0-.788-.493-1.182-1.478-1.675-.591-.3-1.084-.493-1.084-.985a.7.7,0,0,1,.788-.69.877.877,0,0,1,.788.493l.69-.394a1.75,1.75,0,0,0-3.251.591c0,.887.591,1.182,1.576,1.675.591.3.985.394.985.985,0,.493-.3.788-.887.788a1,1,0,0,1-1.084-.788l-.69.394Zm8.57-3.645h1.478V102.7H95.884v.788h1.478v4.827h.887v-4.827Zm9.752,1.97a3.03,3.03,0,0,0-2.955-2.955,2.683,2.683,0,0,0-2.069.887,2.956,2.956,0,0,0,2.069,5.024,2.683,2.683,0,0,0,2.069-.887,2.544,2.544,0,0,0,.887-2.069Zm-.985,0a2.09,2.09,0,1,1-2.069-2.069,2.02,2.02,0,0,1,2.069,2.069Zm5.024.3h.1l1.872,2.463H115l-1.872-2.561a1.3,1.3,0,0,0,1.281-1.478,1.476,1.476,0,0,0-.493-1.182c-.3-.3-.788-.3-1.379-.3h-1.281v5.517h.887v-2.463Zm.1-.69v-1.576h.2c.788,0,1.182.2,1.182.788,0,.69-.394.788-1.182.788h-.2Zm5.615,3.251h3.152v-.788h-2.167v-1.773h2.167v-.788h-2.167v-1.379h2.167v-.788h-3.152v5.517Zm6.009-1.182a1.876,1.876,0,0,0,3.645-.394c0-.788-.493-1.182-1.478-1.675-.591-.3-1.084-.493-1.084-.985a.7.7,0,0,1,.788-.69.877.877,0,0,1,.788.493l.69-.394a1.75,1.75,0,0,0-3.251.591c0,.887.591,1.182,1.576,1.675.591.3.985.394.985.985,0,.493-.3.788-.887.788a1,1,0,0,1-1.084-.788l-.69.394Z" transform="translate(-0.019 -1.04)" fill="#1d1d1b"/>
    <path id="Path_208" data-name="Path 208" d="M14.8,117.727a1.652,1.652,0,0,0,1.773,1.281,1.663,1.663,0,0,0,1.872-1.675c0-.788-.493-1.182-1.478-1.675-.591-.3-1.084-.493-1.084-.985a.7.7,0,0,1,.788-.69.877.877,0,0,1,.788.493l.69-.394a1.5,1.5,0,0,0-1.576-.887,1.508,1.508,0,0,0-1.675,1.478c0,.887.591,1.182,1.576,1.675.591.3.985.394.985.985,0,.493-.3.788-.887.788a1,1,0,0,1-1.084-.788l-.69.394Zm8.275-1.379h.493a2.061,2.061,0,0,0,1.379-.3,1.755,1.755,0,0,0,.591-1.281,1.588,1.588,0,0,0-.591-1.281,2.061,2.061,0,0,0-1.379-.3H22.188v5.517h.887v-2.364Zm.1-.69v-1.576h.2c.887,0,1.281.1,1.281.788s-.394.788-1.281.788Zm9.26,3.251h.985l-2.66-5.812-2.66,5.812h.985l.69-1.478h1.97l.69,1.478Zm-2.561-2.266.591-1.281c.1-.2.1-.394.2-.591a3.875,3.875,0,0,1,.2.591l.591,1.281Zm6.8,2.266h.887v-5.517h-.887v5.517Zm5.024,0h.887v-3.94c.2.2.3.394.493.591l3.645,3.448V113.2h-.788v3.842c-.2-.2-.394-.493-.591-.69L41.792,112.9v6.009Zm17.732,0h1.084l-.887-1.084a7.164,7.164,0,0,0,.788-.887l-.493-.591c-.2.3-.493.591-.69.887l-1.182-1.379c.69-.394,1.084-.887,1.084-1.379,0-.69-.493-1.182-1.379-1.182a1.3,1.3,0,0,0-1.478,1.281,1.07,1.07,0,0,0,.394.887l.2.2c-.788.493-1.281.985-1.281,1.675a1.612,1.612,0,0,0,1.773,1.576,2.161,2.161,0,0,0,1.675-.69l.394.69Zm-.985-1.182a1.56,1.56,0,0,1-1.182.493.883.883,0,0,1-.887-.887c0-.394.3-.69.69-.985l.1-.1,1.281,1.478Zm-.985-2.364-.3-.3a.747.747,0,0,1-.2-.394.568.568,0,0,1,.591-.591.465.465,0,0,1,.493.493.744.744,0,0,1-.394.69l-.2.1Zm12.511.985h.493a2.061,2.061,0,0,0,1.379-.3,1.755,1.755,0,0,0,.591-1.281,1.588,1.588,0,0,0-.591-1.281,2.061,2.061,0,0,0-1.379-.3H69.079v5.517h.887v-2.364Zm0-.69v-1.576h.2c.887,0,1.281.1,1.281.788s-.394.788-1.281.788Zm11.723.394a3.03,3.03,0,0,0-2.955-2.955,2.683,2.683,0,0,0-2.069.887,2.956,2.956,0,0,0,2.069,5.024,2.683,2.683,0,0,0,2.069-.887,2.544,2.544,0,0,0,.887-2.069Zm-.887,0a2.09,2.09,0,1,1-2.069-2.069,2.02,2.02,0,0,1,2.069,2.069Zm5.615.3h.1l1.872,2.463h.985L87.5,116.249a1.3,1.3,0,0,0,1.281-1.478,1.476,1.476,0,0,0-.493-1.182c-.3-.3-.788-.3-1.379-.3H85.629v5.517h.887v-2.463Zm0-.69v-1.576h.2c.788,0,1.182.2,1.182.788,0,.69-.394.788-1.182.788Zm8.078-1.576h1.478v-.788H92.13v.788h1.478v4.827h.887v-4.827Zm4.925-.788v3.448a2.03,2.03,0,0,0,2.266,2.266,1.99,1.99,0,0,0,2.266-2.266v-3.448h-.887v3.349c0,.985-.493,1.478-1.379,1.478s-1.379-.493-1.379-1.478v-3.349Zm11.723,2.758v.788h1.379v.1c0,.788-.591,1.379-1.675,1.379a2.02,2.02,0,0,1-2.069-2.069,1.964,1.964,0,0,1,2.069-2.069,1.491,1.491,0,0,1,1.379.69l.69-.493a2.357,2.357,0,0,0-2.069-.985,3.442,3.442,0,0,0-2.167.788,2.835,2.835,0,0,0-.887,2.069,2.992,2.992,0,0,0,.788,2.069,2.691,2.691,0,0,0,2.167.788,2.306,2.306,0,0,0,2.561-2.463v-.493h-2.167Zm9.654,2.857h.985l-2.66-5.812-2.66,5.812h.985l.69-1.478H120.3l.493,1.478Zm-2.561-2.266.591-1.281c.1-.2.1-.394.2-.591a3.875,3.875,0,0,1,.2.591l.591,1.281Zm6.8,2.266h2.955v-.788h-2.069v-4.728h-.887v5.517Z" transform="translate(-0.009 -1.197)" fill="#1d1d1b"/>
    <path id="Path_209" data-name="Path 209" d="M14.2,99.784l119-33.493L14.2,32.6Z" fill="#fff"/>
    <path id="Path_210" data-name="Path 210" d="M15.9,97.651,127.118,66.325,15.9,34.9Z" transform="translate(-0.025 -0.034)" fill="#008a3c"/>
    <path id="Path_211" data-name="Path 211" d="M29.056,64.8c-.1.69-.394,1.281-.591,1.182-.2,0-.3-.591-.2-1.379.1-.69.394-1.281.591-1.281a2.037,2.037,0,0,1,.2,1.478M23.54,65a.493.493,0,1,1-.493.493A.465.465,0,0,1,23.54,65m6.108,2.758c4.334-9.26-4.433-9.654-2.955-.3-1.478.887-3.152.985-3.743-.1,5.123.394,2.758-6.108-.788-3.546-.69-2.167,1.478-4.039,4.137-2.758V58.594c-3.349-1.478-8.964,1.281-5.812,7.388-.887,4.236,3.743,5.714,7.29,3.448a2.851,2.851,0,0,0,3.645.2V67.756c-.788.69-2.167.591-1.773,0" transform="translate(-0.08 -0.381)" fill="#fff"/>
    <path id="Path_212" data-name="Path 212" d="M44.915,65.4a.394.394,0,1,1,.394-.394c-.1.2-.2.394-.394.394m4.433.394a2.617,2.617,0,0,0-2.364-1.084c-2.266-4.63-6.5.985-2.66,2.266.985.1.394,1.182-.493,1.084s-.985-1.281-.887-1.97c-.1-1.576-2.857-.788-2.463,1.379-6.4,4.728-8.472-8.275-.1-6.108V59.2c-11.723-1.773-9.161,16.648,1.379,10.245,2.66,1.675,5.123-.493,5.123-2.069.788,0,1.182.394,1.182.887v1.872H49.84v-1.97a.958.958,0,0,1,1.084-.985v-1.97a1.251,1.251,0,0,0-1.576.591" transform="translate(-0.275 -0.395)" fill="#fff"/>
    <path id="Path_213" data-name="Path 213" d="M57.02,66.123c-.2-.1-.1-.493.2-.788.2-.3.591-.493.788-.394s.1.493-.2.788-.591.493-.788.394m.3,1.872c6.4-2.66.591-8.373-2.463-2.463h-.591L54.655,61H52.784l-.394,4.334H51.7V67.3h.493v3.152h1.97V68.093c0-.3.493-.394.788.394a3.556,3.556,0,0,0,5.517,1.773V68.093c-1.084.493-2.364.985-3.152-.1" transform="translate(-0.559 -0.423)" fill="#fff"/>
    <path id="Path_214" data-name="Path 214" d="M65.157,70.185c-.1,1.182-.3,2.167-.493,2.167s-.3-.985-.3-2.167c.1-1.182.3-2.167.493-2.167.3,0,.394.985.3,2.167m5.024-5.024a3.206,3.206,0,0,0-3.349-1.97L66.339,56H64.27l.493,8.176c-3.054,2.955-3.448,11.132-.2,11.329,3.546-.3,2.561-8.176,2.463-8.866-.394-1.576,1.379-.887,1.478.2l.1,3.743h2.069l.1-3.054c0-1.379,1.576-1.281,1.576.1v2.463h2.266V67.624c-.3-4.236-3.546-3.546-4.433-2.463" transform="translate(-0.717 -0.349)" fill="#fff"/>
    <path id="Path_215" data-name="Path 215" d="M90.568,67.906c-.3,0-.493-.394-.493-.788s.2-.788.493-.788.493.394.493.788c0,.493-.3.788-.493.788m-4.827-2.561c-.1.69-.394,1.182-.591,1.182s-.3-.591-.2-1.281.394-1.182.591-1.182.3.591.2,1.281m-6.206,7.979c-.2,0-.394-.3-.394-.591a.465.465,0,0,1,.493-.493c.3,0,.394.3.394.591a.465.465,0,0,1-.493.493m20.687-8.57c-2.167-.2-5.812,2.955-7.585,3.448,2.167-4.925-6.4-5.221-4.433.788a1.527,1.527,0,0,1-1.97-.394c1.97-2.463,2.758-6.4-.394-6.9-1.872-.3-3.842,2.857-2.463,6.8a7.789,7.789,0,0,1-1.281.394V66.034H80.027c-.591,1.478-2.069,2.266-2.364,1.97-.3-1.084,1.182-2.266,3.94-2.364V63.473c-3.645.1-6.009,1.97-6.4,4.137-.1,3.152,2.758,2.955,4.531,1.773v.69c-3.448,1.281-3.448,5.123-.591,5.418,2.66.3,3.054-2.364,2.857-3.94l2.463-1.675c.788,1.576,4.334,1.379,6.009.394.69.591,2.463.3,3.054-.1l5.024-2.955c1.478-.887,1.872.493,1.379,1.084a5.919,5.919,0,0,1-2.463,1.182v2.167c5.714-.1,6.9-6.9,2.758-6.9" transform="translate(-0.909 -0.433)" fill="#fff"/>
    <path id="Path_216" data-name="Path 216" d="M97.431,60.7l1.084,1.773-4.334,2.66L92.9,63.458Z" transform="translate(-1.173 -0.419)" fill="#fff"/>
  </g>
</svg>
