<svg xmlns="http://www.w3.org/2000/svg" xmlns:xlink="http://www.w3.org/1999/xlink" width="50" height="67.916" viewBox="0 0 50 67.916">
  <defs>
    <linearGradient id="linear-gradient" x1="0.003" y1="1.903" x2="1" y2="1.903" gradientUnits="objectBoundingBox">
      <stop offset="0" stop-color="#bcbbc8"/>
      <stop offset="0.534" stop-color="#857f99"/>
      <stop offset="1" stop-color="#574c77"/>
    </linearGradient>
    <linearGradient id="linear-gradient-2" x1="-0.002" y1="3.63" x2="0.992" y2="3.63" gradientUnits="objectBoundingBox">
      <stop offset="0" stop-color="#574c77"/>
      <stop offset="0.534" stop-color="#857f99"/>
      <stop offset="1" stop-color="#bcbbc8"/>
    </linearGradient>
    <linearGradient id="linear-gradient-3" x1="0" y1="3.896" x2="0.993" y2="3.896" xlink:href="#linear-gradient-2"/>
    <linearGradient id="linear-gradient-4" x1="0.003" y1="1.871" x2="1.003" y2="1.871" xlink:href="#linear-gradient"/>
  </defs>
  <g id="Hyatt_logo" transform="translate(-37.6 -26.7)">
    <g id="Сгруппировать_389" data-name="Сгруппировать 389" transform="translate(51.565 86.714)">
      <g id="Сгруппировать_388" data-name="Сгруппировать 388" transform="translate(0)">
        <path id="Контур_956" data-name="Контур 956" d="M58.1,114.868h.545l.817,1.294.817-1.294h.545v2.725h-.477v-1.975l-.817,1.294h0l-.817-1.294v1.907h-.477V114.8H58.1Z" transform="translate(-58.1 -114.8)" fill="#6f6458"/>
        <path id="Контур_957" data-name="Контур 957" d="M63.2,116.231h0a1.431,1.431,0,1,1,2.861,0h0a1.431,1.431,0,1,1-2.861,0Zm2.316,0h0a.954.954,0,0,0-1.907,0h0a.954.954,0,1,0,1.907,0Z" transform="translate(-59.726 -114.8)" fill="#6f6458"/>
        <path id="Контур_958" data-name="Контур 958" d="M68.2,117.184l.341-.341a1.415,1.415,0,0,0,.817.341c.272,0,.477-.136.477-.341h0c0-.2-.068-.341-.613-.409-.545-.136-.954-.341-.954-.817h0a.866.866,0,0,1,.954-.817,1.477,1.477,0,0,1,.954.341l-.272.341a1.135,1.135,0,0,0-.749-.272c-.272,0-.409.136-.409.341h0c0,.2.136.341.681.409.545.136.886.341.886.817h0c0,.545-.409.817-.954.817A1.362,1.362,0,0,1,68.2,117.184Z" transform="translate(-61.32 -114.8)" fill="#6f6458"/>
        <path id="Контур_959" data-name="Контур 959" d="M72.2,116.231h0a1.358,1.358,0,0,1,1.431-1.431,1.756,1.756,0,0,1,1.09.409l-.341.341a.976.976,0,0,0-.749-.341.877.877,0,0,0-.886.954h0a.918.918,0,0,0,.886.954,1.257,1.257,0,0,0,.817-.341l.341.341a1.194,1.194,0,0,1-1.09.477A1.328,1.328,0,0,1,72.2,116.231Z" transform="translate(-62.595 -114.8)" fill="#6f6458"/>
        <path id="Контур_960" data-name="Контур 960" d="M76.6,116.231h0a1.358,1.358,0,0,1,1.431-1.431,1.4,1.4,0,0,1,1.431,1.431h0a1.431,1.431,0,0,1-2.861,0Zm2.316,0h0a.954.954,0,0,0-1.907,0h0a.954.954,0,0,0,1.907,0Z" transform="translate(-63.998 -114.8)" fill="#6f6458"/>
        <path id="Контур_961" data-name="Контур 961" d="M81.6,114.9h.545l.681,2.044.681-2.044h.409l.681,2.044.681-2.044h.477l-.954,2.725h-.409l-.681-1.907-.681,1.907h-.477Z" transform="translate(-65.592 -114.832)" fill="#6f6458"/>
      </g>
    </g>
    <g id="Сгруппировать_391" data-name="Сгруппировать 391" transform="translate(42.573 91.754)">
      <g id="Сгруппировать_390" data-name="Сгруппировать 390" transform="translate(0)">
        <path id="Контур_962" data-name="Контур 962" d="M44.9,122.3h1.09a.914.914,0,0,1,1.022.954h0a.97.97,0,0,1-1.09.954h-.545v.886H44.9V122.3Zm1.09,1.431a.486.486,0,0,0,.545-.477h0c0-.341-.2-.477-.545-.477h-.545v.954Z" transform="translate(-44.9 -122.232)" fill="#6f6458"/>
        <path id="Контур_963" data-name="Контур 963" d="M49,122.3h2.044v.409H49.477v.681h1.362v.409H49.477v.749h1.567v.409H49Z" transform="translate(-46.207 -122.232)" fill="#6f6458"/>
        <path id="Контур_964" data-name="Контур 964" d="M53.686,122.809H52.8V122.4h2.18v.409h-.886v2.316h-.477l.068-2.316Z" transform="translate(-47.419 -122.264)" fill="#6f6458"/>
        <path id="Контур_965" data-name="Контур 965" d="M57.1,122.3h1.158a1.086,1.086,0,0,1,.817.272.774.774,0,0,1,.2.545h0a.863.863,0,0,1-.681.817l.749,1.022H58.8L58.122,124h-.545v.954H57.1Zm1.158,1.362c.341,0,.545-.2.545-.409h0c0-.341-.2-.409-.545-.409h-.681v.954l.681-.136Z" transform="translate(-48.789 -122.232)" fill="#6f6458"/>
        <path id="Контур_966" data-name="Контур 966" d="M61.3,123.631h0a1.358,1.358,0,0,1,1.431-1.431,1.4,1.4,0,0,1,1.431,1.431h0a1.4,1.4,0,0,1-1.431,1.431A1.358,1.358,0,0,1,61.3,123.631Zm2.316,0h0a.954.954,0,1,0-1.907,0h0a.931.931,0,0,0,.954.954A.894.894,0,0,0,63.616,123.631Z" transform="translate(-50.128 -122.2)" fill="#6f6458"/>
        <path id="Контур_967" data-name="Контур 967" d="M65.8,122.3h.545l.817,2.044.817-2.044h.545l-1.158,2.725h-.409Z" transform="translate(-51.563 -122.232)" fill="#6f6458"/>
        <path id="Контур_968" data-name="Контур 968" d="M70.1,124.584l.341-.341a1.415,1.415,0,0,0,.817.341c.341,0,.477-.136.477-.341h0c0-.2-.068-.341-.613-.409-.545-.136-.954-.341-.954-.817h0a.866.866,0,0,1,.954-.817,1.477,1.477,0,0,1,.954.341l-.272.341a1.135,1.135,0,0,0-.749-.272c-.272,0-.409.136-.409.341h0c0,.2.136.341.681.409.545.136.886.341.886.817h0c0,.545-.409.817-.954.817A1.193,1.193,0,0,1,70.1,124.584Z" transform="translate(-52.934 -122.2)" fill="#6f6458"/>
        <path id="Контур_969" data-name="Контур 969" d="M74.3,122.3h.477v1.362l1.294-1.362h.545l-1.158,1.158,1.158,1.567h-.477l-.954-1.226-.409.409v.817H74.3V122.3Z" transform="translate(-54.273 -122.232)" fill="#6f6458"/>
        <path id="Контур_970" data-name="Контур 970" d="M79.39,124.035,78.3,122.4h.545l.749,1.158.749-1.158h.545l-1.09,1.635v1.09h-.477Z" transform="translate(-55.548 -122.264)" fill="#6f6458"/>
        <path id="Контур_971" data-name="Контур 971" d="M85,122.3h1.09a.914.914,0,0,1,1.022.954h0a.97.97,0,0,1-1.09.954h-.545v.886H85V122.3Zm1.09,1.431a.486.486,0,0,0,.545-.477h0c0-.341-.2-.477-.545-.477h-.545v.954Z" transform="translate(-57.684 -122.232)" fill="#6f6458"/>
        <path id="Контур_972" data-name="Контур 972" d="M89.226,122.3h.409l1.158,2.725h-.477l-.272-.681H88.749l-.272.681H88Zm.749,1.635-.477-1.09-.477,1.09Z" transform="translate(-58.64 -122.232)" fill="#6f6458"/>
        <path id="Контур_973" data-name="Контур 973" d="M92.968,122.3h1.158a1.086,1.086,0,0,1,.817.272.774.774,0,0,1,.2.545h0a.863.863,0,0,1-.681.817l.749,1.022h-.545L93.99,124h-.613v.954H92.9l.068-2.657Zm1.226,1.362c.341,0,.545-.2.545-.409h0c0-.341-.2-.409-.545-.409h-.681v.954l.681-.136Z" transform="translate(-60.202 -122.232)" fill="#6f6458"/>
        <path id="Контур_974" data-name="Контур 974" d="M97.368,122.3h.477v1.362l1.294-1.362h.545l-1.158,1.158,1.158,1.567h-.545l-.954-1.226-.409.409v.817H97.3l.068-2.725Z" transform="translate(-61.605 -122.232)" fill="#6f6458"/>
      </g>
    </g>
    <g id="Сгруппировать_393" data-name="Сгруппировать 393" transform="translate(86.101 74.997)">
      <g id="Сгруппировать_392" data-name="Сгруппировать 392" transform="translate(0 0)">
        <path id="Контур_975" data-name="Контур 975" d="M109.141,98.349H109v-.613h-.2V97.6h.613v.136h-.2l-.068.613Zm.817-.2h0l-.272-.341v.545h-.136V97.6h.2l.2.341.2-.341h.136v.749h-.136V97.8Z" transform="translate(-108.8 -97.6)" fill="#574c77"/>
      </g>
    </g>
    <g id="Сгруппировать_397" data-name="Сгруппировать 397" transform="translate(37.6 62.327)">
      <g id="Сгруппировать_396" data-name="Сгруппировать 396">
        <path id="Контур_976" data-name="Контур 976" d="M39.167,84.041v3.951H37.6V79h1.567v3.542H43.39V79h1.567v8.924H43.39V83.973H39.167Zm0,0v3.951H37.6V79h1.567v3.542H43.39V79h1.567v8.924H43.39V83.973H39.167ZM72.546,80.5h3V79.068H67.981V80.5h3.065v7.493h1.567L72.546,80.5Zm9.809,0h3V79.068H77.791V80.5h3.065v7.493h1.567L82.355,80.5ZM49.725,79.068H47.886l3.542,5.041V88.06H53V84.109l3.542-5.041H54.7l-2.52,3.747Zm14.237,6.4H60.08l-1.09,2.452H57.423L61.306,79h1.431l3.883,8.924H64.984Zm-.613-1.431-1.294-3.134-1.294,3.134Z" transform="translate(-37.6 -79)" fill="#574c77"/>
        <g id="Сгруппировать_395" data-name="Сгруппировать 395" transform="translate(0 12.602)">
          <g id="Сгруппировать_394" data-name="Сгруппировать 394">
            <path id="Контур_977" data-name="Контур 977" d="M40.6,101.174c1.09-.2,1.7-.817,1.7-1.7V99.4c0-1.022-.886-1.7-2.18-1.7H37.6v5.995h.545V101.31h1.839l1.839,2.384H42.5Zm-2.452-.409V98.109H40.12c1.022,0,1.635.477,1.635,1.226V99.4c0,.817-.681,1.294-1.7,1.294H38.145Z" transform="translate(-37.6 -97.564)" fill="#574c77"/>
            <path id="Контур_978" data-name="Контур 978" d="M48.677,103.118V100.8h3.406v-.477H48.677V98.077h3.747V97.6H48.2v5.995h4.292v-.477Z" transform="translate(-40.979 -97.532)" fill="#574c77"/>
            <path id="Контур_979" data-name="Контур 979" d="M60.461,100.293v.477h1.975v1.771a3,3,0,0,1-1.839.681,2.4,2.4,0,0,1-2.452-2.589h0a2.507,2.507,0,0,1,2.384-2.589,2.564,2.564,0,0,1,1.839.681l.068.068.341-.409-.068-.068a3.213,3.213,0,0,0-2.18-.817,2.975,2.975,0,0,0-2.929,3.065h0a2.879,2.879,0,0,0,3,3.065,3.533,3.533,0,0,0,2.316-.886h0v-2.452Z" transform="translate(-43.976 -97.5)" fill="#574c77"/>
            <path id="Контур_980" data-name="Контур 980" d="M69.945,103.118V100.8h3.338v-.477H69.945V98.077h3.747V97.6H69.4v5.995h4.292v-.477Z" transform="translate(-47.738 -97.532)" fill="#574c77"/>
            <path id="Контур_981" data-name="Контур 981" d="M83.8,97.6v5.041L79.777,97.6H79.3v5.995h.477V98.417l4.087,5.109v.068h.409V97.6Z" transform="translate(-50.894 -97.532)" fill="#574c77"/>
            <path id="Контур_982" data-name="Контур 982" d="M94.809,102.268h0a2.731,2.731,0,0,1-2.044.954,2.517,2.517,0,0,1-2.452-2.589h0a2.476,2.476,0,0,1,2.452-2.589,2.4,2.4,0,0,1,1.907.817l.068.068.341-.409-.068-.068A3.287,3.287,0,0,0,92.7,97.5a3,3,0,0,0-3,3.065h0a2.941,2.941,0,0,0,2.929,3.065,3.168,3.168,0,0,0,2.384-1.09l.068-.068Z" transform="translate(-54.21 -97.5)" fill="#574c77"/>
          </g>
        </g>
      </g>
    </g>
    <g id="Сгруппировать_399" data-name="Сгруппировать 399" transform="translate(79.766 74.997)">
      <g id="Сгруппировать_398" data-name="Сгруппировать 398" transform="translate(0 0)">
        <path id="Контур_983" data-name="Контур 983" d="M104.473,97.6l-2.18,3.134L100.181,97.6H99.5l2.52,3.61v2.384h.545V101.21l2.52-3.61Z" transform="translate(-99.5 -97.6)" fill="#574c77"/>
      </g>
    </g>
    <path id="Контур_984" data-name="Контур 984" d="M66.611,54.05a11.443,11.443,0,0,0-5.45-5.45,11.136,11.136,0,0,1-4.768,1.09,12.538,12.538,0,0,1-2.793-.341v6.744l12.943,7.493h0a11.3,11.3,0,0,0,.068-9.537Z" transform="translate(-5.101 -6.982)" fill="url(#linear-gradient)"/>
    <path id="Контур_985" data-name="Контур 985" d="M66.643,26.7h0L53.7,34.125V42.3a12.538,12.538,0,0,0,2.793.341,11.136,11.136,0,0,0,4.768-1.09,11.443,11.443,0,0,0,5.45-5.45,11.136,11.136,0,0,1-1.09-4.768A9.539,9.539,0,0,1,66.643,26.7Z" transform="translate(-5.133)" fill="url(#linear-gradient-2)"/>
    <path id="Контур_986" data-name="Контур 986" d="M72.19,26.7h0a10.976,10.976,0,0,0,0,9.537,11.443,11.443,0,0,0,5.45,5.45,11.136,11.136,0,0,1,4.768-1.09,12.538,12.538,0,0,1,2.793.341V34.125Z" transform="translate(-10.68)" fill="url(#linear-gradient-3)"/>
    <path id="Контур_987" data-name="Контур 987" d="M82.818,47.1a11.136,11.136,0,0,0-4.768,1.09,11.443,11.443,0,0,0-5.45,5.45,10.976,10.976,0,0,1,0,9.537h0l12.943-7.425V47.509A8.784,8.784,0,0,0,82.818,47.1Z" transform="translate(-11.158 -6.504)" fill="url(#linear-gradient-4)"/>
  </g>
</svg>
