<svg xmlns="http://www.w3.org/2000/svg" width="102.989" height="103" viewBox="0 0 102.989 103">
  <g id="techsupport" transform="translate(-0.184 -0.184)">
    <path id="Контур_738" data-name="Контур 738" d="M57.826,47.823a6.1,6.1,0,0,0-.264-.631.823.823,0,0,1,.161-.929l2.03-2.03-2.306-2.306-2.03,2.03a.823.823,0,0,1-.929.161,6.1,6.1,0,0,0-.631-.264.818.818,0,0,1-.539-.769V40.207H50.049v2.879a.818.818,0,0,1-.539.769,6.1,6.1,0,0,0-.631.264.823.823,0,0,1-.929-.161l-2.03-2.03-2.306,2.306,2.03,2.03a.823.823,0,0,1,.161.929,6.1,6.1,0,0,0-.264.631.818.818,0,0,1-.769.539H41.893v3.269h2.879a.818.818,0,0,1,.769.539,6.1,6.1,0,0,0,.264.631.823.823,0,0,1-.161.929l-2.03,2.03,2.306,2.306,2.03-2.03a.823.823,0,0,1,.929-.161,6.1,6.1,0,0,0,.631.264.818.818,0,0,1,.539.769v2.879h3.269V56.909a.818.818,0,0,1,.539-.769,6.1,6.1,0,0,0,.631-.264.823.823,0,0,1,.929.161l2.03,2.03,2.306-2.306-2.03-2.03a.823.823,0,0,1-.161-.929,6.1,6.1,0,0,0,.264-.631.818.818,0,0,1,.769-.539h2.891V48.363H58.606A.792.792,0,0,1,57.826,47.823ZM51.689,54.9a4.9,4.9,0,1,1,4.9-4.9A4.9,4.9,0,0,1,51.689,54.9Z" fill="#a7a7a7"/>
    <circle id="Эллипс_5" data-name="Эллипс 5" cx="3.269" cy="3.269" r="3.269" transform="translate(48.42 46.734)" fill="#a7a7a7"/>
    <path id="Контур_739" data-name="Контур 739" d="M72.1,34.494H31.282a2.445,2.445,0,0,0-2.443,2.443v26.12A2.445,2.445,0,0,0,31.282,65.5h6.527a.818.818,0,0,1,.814.814v7.823l8.4-8.4a.817.817,0,0,1,.574-.241H72.085a2.445,2.445,0,0,0,2.443-2.443V36.949A2.431,2.431,0,0,0,72.1,34.494ZM63.115,52.458a.818.818,0,0,1-.814.814H59.57L61.5,55.2a.817.817,0,0,1,0,1.159l-3.464,3.464a.817.817,0,0,1-1.159,0l-1.927-1.939v2.73a.818.818,0,0,1-.814.814h-4.9a.818.818,0,0,1-.814-.814v-2.73l-1.927,1.927a.817.817,0,0,1-1.159,0L41.87,56.358a.817.817,0,0,1,0-1.159L43.8,53.272h-2.73a.818.818,0,0,1-.814-.814v-4.9a.818.818,0,0,1,.814-.814H43.8L41.87,44.807a.817.817,0,0,1,0-1.159l3.464-3.464a.817.817,0,0,1,1.159,0l1.927,1.927v-2.73a.818.818,0,0,1,.814-.814h4.9a.818.818,0,0,1,.814.814v2.73l1.927-1.927a.817.817,0,0,1,1.159,0L61.5,43.648a.817.817,0,0,1,0,1.159L59.57,46.734H62.3a.818.818,0,0,1,.814.814Z" fill="#a7a7a7"/>
    <path id="Контур_740" data-name="Контур 740" d="M51.689.184a51.5,51.5,0,1,0,51.483,51.506A51.5,51.5,0,0,0,51.689.184ZM76.18,63.069A4.085,4.085,0,0,1,72.1,67.152H47.938L39.771,75.32a1.63,1.63,0,0,1-2.788-1.147V67.164H31.271a4.085,4.085,0,0,1-4.084-4.084V36.949a4.085,4.085,0,0,1,4.084-4.084H72.085a4.085,4.085,0,0,1,4.084,4.084v26.12Z" fill="#a7a7a7"/>
  </g>
</svg>
