<svg id="MO_logo" xmlns="http://www.w3.org/2000/svg" width="64.399" height="49.707" viewBox="0 0 64.399 49.707">
  <g id="Сгруппировать_333" data-name="Сгруппировать 333" transform="translate(29.585 22.34)">
    <path id="Контур_902" data-name="Контур 902" d="M72.576,72.9H70.9l.745,6.7h.31l.621-6.7Z" transform="translate(-70.9 -72.9)" fill="#b89300"/>
  </g>
  <g id="Сгруппировать_334" data-name="Сгруппировать 334" transform="translate(27.165 0)">
    <path id="Контур_903" data-name="Контур 903" d="M71.158,58.682c-.31,0-.559-.062-.869-.062a4.7,4.7,0,0,0-.931.062L67,36.9l6.206.807L71.158,58.682Z" transform="translate(-67 -36.9)" fill="#b89300"/>
  </g>
  <g id="Сгруппировать_335" data-name="Сгруппировать 335" transform="translate(31.137 22.464)">
    <path id="Контур_904" data-name="Контур 904" d="M75.758,73.41c-.248-.062-.5-.124-.807-.186a4.19,4.19,0,0,0-.869-.124L73.4,79.864l.31.062,2.048-6.516Z" transform="translate(-73.4 -73.1)" fill="#b89300"/>
  </g>
  <g id="Сгруппировать_336" data-name="Сгруппировать 336" transform="translate(31.881 0.062)">
    <path id="Контур_905" data-name="Контур 905" d="M76.4,59.154c-.248-.062-.559-.124-.869-.186l-.931-.186L76.9,37l5.9,2.11L76.4,59.154Z" transform="translate(-74.6 -37)" fill="#b89300"/>
  </g>
  <g id="Сгруппировать_337" data-name="Сгруппировать 337" transform="translate(60.055 47.473)">
    <path id="Контур_906" data-name="Контур 906" d="M121.241,114.083a.473.473,0,0,0-.5-.434c-.248,0-.434.062-.434.372,0,.248.31.31.683.372.31.062.683.186.683.621s-.434.621-.807.621a.785.785,0,0,1-.869-.745h.248c0,.372.31.5.621.5.248,0,.5-.062.5-.372s-.31-.31-.683-.434c-.31-.062-.683-.186-.683-.559,0-.434.372-.621.745-.621.434,0,.745.186.745.683Z" transform="translate(-120 -113.4)" fill="#b89300"/>
  </g>
  <g id="Сгруппировать_338" data-name="Сгруппировать 338" transform="translate(62.351 47.535)">
    <path id="Контур_907" data-name="Контур 907" d="M123.7,113.5h.372l.621,1.738.683-1.738h.372v2.11H125.5v-1.738h0l-.683,1.738h-.186l-.683-1.738h0v1.738H123.7Z" transform="translate(-123.7 -113.5)" fill="#b89300"/>
  </g>
  <g id="Сгруппировать_339" data-name="Сгруппировать 339" transform="translate(0.047 33.697)">
    <path id="Контур_908" data-name="Контур 908" d="M83.184,98.523H23.3v-.248H83.184v.248ZM23.3,91.448V91.2H83.184v.248Z" transform="translate(-23.3 -91.2)" fill="#b89300"/>
  </g>
  <g id="Сгруппировать_340" data-name="Сгруппировать 340" transform="translate(27.413 22.402)">
    <path id="Контур_909" data-name="Контур 909" d="M69.013,73c-.248.062-.559.062-.807.124-.31.062-.559.124-.807.186l2.048,6.516.31-.062L69.013,73Z" transform="translate(-67.4 -73)" fill="#b89300"/>
  </g>
  <g id="Сгруппировать_341" data-name="Сгруппировать 341" transform="translate(20.339 0.931)">
    <path id="Контур_910" data-name="Контур 910" d="M64.626,59.313c-.31.062-.559.062-.869.124a3.557,3.557,0,0,0-.869.248L56,38.9l6.206-.5,2.42,20.913Z" transform="translate(-56 -38.4)" fill="#b89300"/>
  </g>
  <g id="Сгруппировать_342" data-name="Сгруппировать 342" transform="translate(25.303 22.961)">
    <path id="Контур_911" data-name="Контур 911" d="M65.489,73.9a3.8,3.8,0,0,0-.745.31L64,74.583l3.413,5.833.248-.124L65.489,73.9Z" transform="translate(-64 -73.9)" fill="#b89300"/>
  </g>
  <g id="Сгруппировать_343" data-name="Сгруппировать 343" transform="translate(13.947 2.42)">
    <path id="Контур_912" data-name="Контур 912" d="M58.359,60.782c-.248.124-.559.186-.807.31a3.343,3.343,0,0,0-.807.434L45.7,42.6l5.957-1.8,6.7,19.982Z" transform="translate(-45.7 -40.8)" fill="#b89300"/>
  </g>
  <g id="Сгруппировать_344" data-name="Сгруппировать 344" transform="translate(23.38 23.954)">
    <path id="Контур_913" data-name="Контур 913" d="M62.265,75.5c-.248.124-.434.31-.683.434-.248.186-.434.372-.683.559l4.53,5.027.248-.186L62.265,75.5Z" transform="translate(-60.9 -75.5)" fill="#b89300"/>
  </g>
  <g id="Сгруппировать_345" data-name="Сгруппировать 345" transform="translate(8.238 5.337)">
    <path id="Контур_914" data-name="Контур 914" d="M52.759,63.62a5.178,5.178,0,0,0-.745.5l-.745.559L36.5,48.479,41.961,45.5l10.8,18.12Z" transform="translate(-36.5 -45.5)" fill="#b89300"/>
  </g>
  <g id="Сгруппировать_346" data-name="Сгруппировать 346" transform="translate(21.828 25.319)">
    <path id="Контур_915" data-name="Контур 915" d="M59.517,77.7a5.6,5.6,0,0,0-.559.621A6.594,6.594,0,0,0,58.4,79l5.523,3.91.186-.186L59.517,77.7Z" transform="translate(-58.4 -77.7)" fill="#b89300"/>
  </g>
  <g id="Сгруппировать_347" data-name="Сгруппировать 347" transform="translate(3.584 9.495)">
    <path id="Контур_916" data-name="Контур 916" d="M47.989,67.652l-.621.621a6.6,6.6,0,0,1-.559.683L29,56.234,33.716,52.2,47.989,67.652Z" transform="translate(-29 -52.2)" fill="#b89300"/>
  </g>
  <g id="Сгруппировать_348" data-name="Сгруппировать 348" transform="translate(20.711 27.057)">
    <path id="Контур_917" data-name="Контур 917" d="M57.407,80.5c-.124.248-.31.434-.434.683l-.372.745,6.206,2.73.124-.248L57.407,80.5Z" transform="translate(-56.6 -80.5)" fill="#b89300"/>
  </g>
  <g id="Сгруппировать_349" data-name="Сгруппировать 349" transform="translate(0.047 14.583)">
    <path id="Контур_918" data-name="Контур 918" d="M44.275,72.563a4.629,4.629,0,0,0-.434.745c-.124.248-.31.559-.434.807L23.3,65.364,27.085,60.4l17.19,12.163Z" transform="translate(-23.3 -60.4)" fill="#b89300"/>
  </g>
  <g id="Сгруппировать_350" data-name="Сгруппировать 350" transform="translate(31.943 22.961)">
    <path id="Контур_919" data-name="Контур 919" d="M78.361,74.583l-.745-.372a3.118,3.118,0,0,0-.807-.31L74.7,80.354l.248.124,3.413-5.9Z" transform="translate(-74.7 -73.9)" fill="#b89300"/>
  </g>
  <g id="Сгруппировать_351" data-name="Сгруппировать 351" transform="translate(34.177 1.613)">
    <path id="Контур_920" data-name="Контур 920" d="M79.976,61.034c-.248-.124-.5-.248-.807-.372a4.864,4.864,0,0,0-.869-.31L85.064,39.5l5.275,3.289L79.976,61.034Z" transform="translate(-78.3 -39.5)" fill="#b89300"/>
  </g>
  <g id="Сгруппировать_352" data-name="Сгруппировать 352" transform="translate(32.75 23.892)">
    <path id="Контур_921" data-name="Контур 921" d="M80.716,76.393a4.349,4.349,0,0,0-.621-.5,6.5,6.5,0,0,1-.683-.5L76,81.3l.248.186,4.468-5.089Z" transform="translate(-76 -75.4)" fill="#b89300"/>
  </g>
  <g id="Сгруппировать_353" data-name="Сгруппировать 353" transform="translate(36.411 4.468)">
    <path id="Контур_922" data-name="Контур 922" d="M83.327,64.144c-.248-.186-.434-.372-.683-.559a5.177,5.177,0,0,0-.745-.5L92.884,44.1l4.53,4.344-14.087,15.7Z" transform="translate(-81.9 -44.1)" fill="#b89300"/>
  </g>
  <g id="Сгруппировать_354" data-name="Сгруппировать 354" transform="translate(33.371 25.319)">
    <path id="Контур_923" data-name="Контур 923" d="M82.647,78.941c-.186-.186-.31-.434-.5-.621a2.942,2.942,0,0,0-.621-.621L77,82.727l.186.186,5.461-3.972Z" transform="translate(-77 -77.7)" fill="#b89300"/>
  </g>
  <g id="Сгруппировать_355" data-name="Сгруппировать 355" transform="translate(38.273 8.564)">
    <path id="Контур_924" data-name="Контур 924" d="M86.079,68.324c-.186-.248-.372-.434-.559-.683s-.434-.434-.621-.683L99.607,50.7l3.475,5.151-17,12.473Z" transform="translate(-84.9 -50.7)" fill="#b89300"/>
  </g>
  <g id="Сгруппировать_356" data-name="Сгруппировать 356" transform="translate(33.867 26.994)">
    <path id="Контур_925" data-name="Контур 925" d="M84.13,81.889l-.372-.745c-.124-.248-.31-.5-.434-.745L77.8,84.372l.124.248,6.206-2.73Z" transform="translate(-77.8 -80.4)" fill="#b89300"/>
  </g>
  <g id="Сгруппировать_357" data-name="Сгруппировать 357" transform="translate(39.825 13.901)">
    <path id="Контур_926" data-name="Контур 926" d="M88.269,73.635,87.9,72.89a3.118,3.118,0,0,0-.5-.745L105.21,59.3l2.358,5.771-19.3,8.564Z" transform="translate(-87.4 -59.3)" fill="#b89300"/>
  </g>
  <g id="Сгруппировать_358" data-name="Сгруппировать 358" transform="translate(40.957 43.439)">
    <path id="Контур_927" data-name="Контур 927" d="M89.706,107.707c0-.5,0-.559-.248-.621h-.124c-.062-.062-.062-.124,0-.124a5.677,5.677,0,0,1,1.055-.062,1.644,1.644,0,0,1,.869.186c.248.124.372.372.372.807a.932.932,0,0,1-.559.869v.062a6.293,6.293,0,0,0,.807,1.365c.124.124.186.124.248.124v.124h-.807a7.267,7.267,0,0,1-.372-.683l-.372-.745c-.062-.186-.124-.186-.31-.186-.124,0-.124,0-.124.124v.683c0,.559.062.559.248.621h.124c.062.062,0,.124,0,.186H89.272c-.062,0-.062-.124,0-.186H89.4c.248-.062.248-.062.248-.621v-1.924Zm.5.745c0,.186,0,.186.248.186.434,0,.683-.248.683-.745,0-.434-.248-.807-.621-.807-.248,0-.248,0-.248.248v1.117Z" transform="translate(-89.225 -106.9)" fill="#b89300"/>
  </g>
  <g id="Сгруппировать_359" data-name="Сгруппировать 359" transform="translate(5.507 43.253)">
    <path id="Контур_928" data-name="Контур 928" d="M33.279,107.221c0-.248,0-.248-.124-.248h-.248c-.434,0-.559.062-.683.5-.062.062-.124,0-.124-.062a8.1,8.1,0,0,1,.186-.807h.124c0,.124.062.124.372.124h1.862c.248,0,.31,0,.372-.124h.124a4.4,4.4,0,0,0-.062.869c0,.062-.124.062-.124,0-.062-.434-.124-.5-.621-.5H33.9c-.124,0-.124,0-.124.248v2.3c0,.559.062.559.248.621h.186c.062.062,0,.124,0,.186H32.845c-.062,0-.062-.124,0-.186h.186c.186,0,.248-.062.248-.621v-2.3Z" transform="translate(-32.1 -106.6)" fill="#b89300"/>
  </g>
  <g id="Сгруппировать_360" data-name="Сгруппировать 360" transform="translate(9.017 43.439)">
    <path id="Контур_929" data-name="Контур 929" d="M38.9,108.7c-.248,0-.248,0-.248.186v.807c0,.559.062.559.248.621h.124c.062.062,0,.124,0,.186H37.845c-.062,0-.062-.124,0-.186h.062c.186-.062.248-.062.248-.621v-1.986c0-.559-.062-.559-.248-.621h-.124c-.062,0,0-.124,0-.186h1.179c.062,0,.062.124,0,.186H38.9c-.186,0-.248.062-.248.621v.621c0,.124,0,.186.248.186h1.055c.248,0,.248,0,.248-.186v-.621c0-.559-.062-.559-.248-.621h-.124c-.062,0,0-.124,0-.186H41.01c.062,0,.062.124,0,.186h-.062c-.186,0-.248.062-.248.621v1.986c0,.559.062.559.248.621h.124v.186H39.831c-.062,0-.062-.124,0-.186h.124c.186,0,.248-.062.248-.621v-.807c0-.124,0-.186-.248-.186Z" transform="translate(-37.756 -106.9)" fill="#b89300"/>
  </g>
  <g id="Сгруппировать_361" data-name="Сгруппировать 361" transform="translate(13.032 43.377)">
    <path id="Контур_930" data-name="Контур 930" d="M44.706,107.607c0-.559-.062-.559-.248-.621H44.4V106.8h2.11c0,.062.062.5.062.745,0,.062-.124.062-.124,0-.062-.31-.124-.434-.31-.5a.787.787,0,0,0-.372-.062h-.31c-.186,0-.186,0-.186.31v.931c0,.124,0,.124.124.124h.248c.372,0,.5,0,.5-.248l.062-.186c.062-.062.124-.062.124,0v1.117c0,.062-.124.062-.124,0l-.062-.186c-.062-.248-.124-.248-.5-.248h-.31c-.124,0-.124,0-.124.124v.683a1.225,1.225,0,0,0,.062.559c.062.062.124.124.5.124.559,0,.683-.124.869-.559a.086.086,0,0,1,.124,0,3.079,3.079,0,0,1-.186.807h-2.3c-.062,0-.062-.124,0-.186h.186c.186,0,.248-.062.248-.621v-1.924Z" transform="translate(-44.225 -106.8)" fill="#b89300"/>
  </g>
  <g id="Сгруппировать_362" data-name="Сгруппировать 362" transform="translate(17.953 43.439)">
    <path id="Контур_931" data-name="Контур 931" d="M53.3,108.7c-.248,0-.248,0-.248.186v.807c0,.559.062.559.248.621h.124v.186H52.245c-.062,0-.062-.124,0-.186h.062c.186-.062.248-.062.248-.621v-1.986c0-.559-.062-.559-.248-.621h-.124c-.062,0,0-.124,0-.186h1.179c.062,0,.062.124,0,.186H53.3c-.186,0-.248.062-.248.621v.621c0,.124,0,.186.248.186h1.055c.248,0,.248,0,.248-.186v-.621c0-.559-.062-.559-.248-.621h-.124V106.9h1.241c.062,0,.062.124,0,.186H55.41c-.186,0-.248.062-.248.621v1.986c0,.559.062.559.248.621h.124c.062.062,0,.124,0,.186H54.293c-.062,0-.062-.124,0-.186h.124c.186,0,.248-.062.248-.621v-.807c0-.124,0-.186-.248-.186Z" transform="translate(-52.156 -106.9)" fill="#b89300"/>
  </g>
  <g id="Сгруппировать_363" data-name="Сгруппировать 363" transform="translate(22.139 43.315)">
    <path id="Контур_932" data-name="Контур 932" d="M62.127,108.562a1.709,1.709,0,0,1-1.613,1.862,1.648,1.648,0,0,1-1.613-1.8,1.731,1.731,0,0,1,1.613-1.924,1.7,1.7,0,0,1,1.613,1.862Zm-2.606-.124c0,.745.248,1.738,1.055,1.738.5,0,.931-.434.931-1.551,0-.807-.31-1.738-1.055-1.738-.434.062-.931.434-.931,1.551Z" transform="translate(-58.9 -106.7)" fill="#b89300"/>
  </g>
  <g id="Сгруппировать_364" data-name="Сгруппировать 364" transform="translate(25.862 43.253)">
    <path id="Контур_933" data-name="Контур 933" d="M66.141,107.221c0-.248,0-.248-.124-.248h-.248c-.434,0-.559.062-.745.5-.062.062-.124,0-.124-.062a8.093,8.093,0,0,1,.186-.807h.124c0,.124.062.124.372.124h1.862c.248,0,.31,0,.372-.124h.124a4.4,4.4,0,0,0-.062.869c0,.062-.124.062-.124,0-.062-.434-.124-.5-.621-.5h-.31c-.124,0-.124,0-.124.248v2.3c0,.559.062.559.248.621h.186c.062.062,0,.124,0,.186H65.769c-.062,0-.062-.124,0-.186h.186c.186,0,.248-.062.248-.621v-2.3Z" transform="translate(-64.9 -106.6)" fill="#b89300"/>
  </g>
  <g id="Сгруппировать_365" data-name="Сгруппировать 365" transform="translate(29.663 43.377)">
    <path id="Контур_934" data-name="Контур 934" d="M71.444,107.607c0-.559-.062-.559-.248-.621h-.062c-.062-.062,0-.124,0-.186h2.11c0,.062.062.5.062.745,0,.062-.124.062-.124,0-.062-.31-.124-.434-.31-.5a.787.787,0,0,0-.372-.062h-.31c-.186,0-.186,0-.186.31v.931c0,.124,0,.124.124.124h.248c.372,0,.5,0,.5-.248v-.186c.062-.062.124-.062.124,0v1.117c0,.062-.124.062-.124,0v-.186c-.062-.248-.124-.248-.5-.248h-.248c-.124,0-.124,0-.124.124v.683a1.225,1.225,0,0,0,.062.559c.062.062.124.124.5.124.559,0,.683-.124.869-.559a.086.086,0,0,1,.124,0,3.078,3.078,0,0,1-.186.807h-2.3c-.062,0-.062-.124,0-.186h.186c.186,0,.248-.062.248-.621v-1.924Z" transform="translate(-71.025 -106.8)" fill="#b89300"/>
  </g>
  <g id="Сгруппировать_366" data-name="Сгруппировать 366" transform="translate(32.89 43.377)">
    <path id="Контур_935" data-name="Контур 935" d="M77.264,109.468a1.377,1.377,0,0,0,.062.559c.062.062.124.124.5.124.5,0,.559,0,.807-.559h.124c-.062.248-.124.621-.186.807h-2.3c-.062,0-.062-.124,0-.186H76.4c.186-.062.248-.062.248-.621v-1.986c0-.559-.062-.559-.248-.621h-.124c-.062,0-.062-.124,0-.186h1.241c.062,0,.062.124,0,.186h-.124c-.186.062-.248.062-.248.621v1.862Z" transform="translate(-76.225 -106.8)" fill="#b89300"/>
  </g>
  <g id="Сгруппировать_367" data-name="Сгруппировать 367" transform="translate(37.218 43.315)">
    <path id="Контур_936" data-name="Контур 936" d="M85.993,109.8c0,.186,0,.31.124.372v.062a.469.469,0,0,0-.248.062,4.868,4.868,0,0,1-.869.124,1.8,1.8,0,0,1-1.427-.621,2.1,2.1,0,0,1-.372-1.241,1.789,1.789,0,0,1,.434-1.241,1.687,1.687,0,0,1,1.489-.621c.186,0,.434.062.621.062a2.687,2.687,0,0,1,.31.062c0,.186.062.434.062.869,0,.062-.124.062-.124,0a.92.92,0,0,0-.869-.807c-.807,0-1.179.683-1.179,1.613a2.18,2.18,0,0,0,.31,1.241.993.993,0,0,0,.869.434.594.594,0,0,0,.434-.124,1.263,1.263,0,0,0,.062-.31v-.186c0-.372,0-.434-.31-.5h-.186a.116.116,0,0,1,0-.186h1.241c.062,0,.062.124,0,.186H86.3c-.186,0-.186.062-.186.372v.372Z" transform="translate(-83.2 -106.7)" fill="#b89300"/>
  </g>
  <g id="Сгруппировать_368" data-name="Сгруппировать 368" transform="translate(44.479 43.315)">
    <path id="Контур_937" data-name="Контур 937" d="M98.127,108.562a1.709,1.709,0,0,1-1.613,1.862,1.648,1.648,0,0,1-1.613-1.8,1.731,1.731,0,0,1,1.613-1.924,1.7,1.7,0,0,1,1.613,1.862Zm-2.606-.124c0,.745.248,1.738,1.055,1.738.5,0,.931-.434.931-1.551,0-.807-.31-1.738-1.055-1.738-.434.062-.931.434-.931,1.551Z" transform="translate(-94.9 -106.7)" fill="#b89300"/>
  </g>
  <g id="Сгруппировать_369" data-name="Сгруппировать 369" transform="translate(48.485 43.439)">
    <path id="Контур_938" data-name="Контур 938" d="M101.693,107.645c0-.559-.062-.559-.248-.621h-.062a.086.086,0,0,1,0-.124h1.241c.062,0,.062.124,0,.124H102.5c-.186.062-.248.062-.248.621v1.241c0,.745.186,1.365.807,1.365s.869-.559.869-1.365V108.2a4.735,4.735,0,0,0-.062-1.055.322.322,0,0,0-.248-.124h-.062c-.062-.062-.062-.124,0-.124h.993c.062,0,.062.124,0,.124h-.124c-.062,0-.186.062-.186.124a4.735,4.735,0,0,0-.062,1.055v.621a1.952,1.952,0,0,1-.31,1.241,1.018,1.018,0,0,1-.869.372,1.089,1.089,0,0,1-.931-.372,1.918,1.918,0,0,1-.31-1.179v-1.241Z" transform="translate(-101.356 -106.9)" fill="#b89300"/>
  </g>
  <g id="Сгруппировать_370" data-name="Сгруппировать 370" transform="translate(52.375 43.439)">
    <path id="Контур_939" data-name="Контур 939" d="M108.106,107.707c0-.5,0-.559-.186-.621h-.186c-.062-.062-.062-.124,0-.124a5.015,5.015,0,0,1,.993-.062,1.744,1.744,0,0,1,.931.186.922.922,0,0,1,.372.807,1.031,1.031,0,0,1-1.055,1.055h-.124c0-.062-.062-.124,0-.124.434-.124.559-.434.559-.869a.722.722,0,0,0-.683-.807c-.248,0-.248,0-.248.248v2.358c0,.559.062.559.248.621h.186v.186h-1.241c-.062,0-.062-.124,0-.186h.062c.186-.062.248-.062.248-.621v-2.048Z" transform="translate(-107.625 -106.9)" fill="#b89300"/>
  </g>
  <g id="Сгруппировать_371" data-name="Сгруппировать 371" transform="translate(0 35.558)">
    <path id="Контур_940" data-name="Контур 940" d="M27.181,97.613c.062,0,.062.124,0,.186H26c-.062,0-.062-.124,0-.186h.124c.186-.062.186-.062.186-.434V95.007h0a4.713,4.713,0,0,0-.248.683l-.434.869a12.878,12.878,0,0,1-.5,1.241h-.124a5.28,5.28,0,0,0-.372-1.055L24.2,95.689c-.062-.248-.186-.559-.248-.745h0v2.172c0,.372,0,.434.186.5l.124.062a.116.116,0,0,1,0,.186h-.993c-.062,0-.062-.124,0-.186h.062c.248-.062.248-.124.31-.434A6.784,6.784,0,0,0,23.706,96c0-.372.062-.807.062-1.117,0-.248-.062-.372-.248-.372l-.124-.062v-.186h.931a2.02,2.02,0,0,0,.248.869l.5,1.241a4.276,4.276,0,0,1,.186.5,3.919,3.919,0,0,1,.248-.559l.434-1.055a7.139,7.139,0,0,0,.372-1.055h.869c.062,0,.062.124,0,.186h-.124c-.186.062-.248.124-.248.434,0,.807,0,1.613.062,2.42,0,.372.062.372.186.434l.124-.062Z" transform="translate(-23.225 -94.2)" fill="#b89300"/>
  </g>
  <g id="Сгруппировать_372" data-name="Сгруппировать 372" transform="translate(4.673 35.434)">
    <path id="Контур_941" data-name="Контур 941" d="M31.838,96.358c-.124,0-.124,0-.186.124l-.186.621c-.062.31-.062.31.124.372h.124c.062.062,0,.124,0,.186h-.931s-.062-.124,0-.186h.124c.124,0,.186-.062.248-.248.062-.124.124-.372.248-.683l.621-1.924c.062-.186.124-.31.062-.372A.7.7,0,0,0,32.4,94c.062,0,.062,0,.062.062l.186.745.745,2.3c.124.372.124.372.372.434h.062a.116.116,0,0,1,0,.186H32.645c-.062,0-.062-.124,0-.186h.124c.186,0,.186-.062.124-.31l-.186-.745c-.062-.124-.062-.124-.186-.124Zm.559-.248c.124,0,.124,0,.124-.124l-.186-.621c-.062-.31-.124-.372-.124-.434h0c0,.062-.062.186-.124.434l-.186.621c-.062.124-.062.124.062.124Z" transform="translate(-30.756 -94)" fill="#b89300"/>
  </g>
  <g id="Сгруппировать_373" data-name="Сгруппировать 373" transform="translate(8.3 35.496)">
    <path id="Контур_942" data-name="Контур 942" d="M39.517,96.83v.931a.228.228,0,0,1-.186.062,4.1,4.1,0,0,0-.559-.745l-1.055-1.427c-.31-.372-.434-.621-.5-.683V96.4a5.037,5.037,0,0,0,.062,1.055.322.322,0,0,0,.248.124h.124a.116.116,0,0,1,0,.186h-.993c-.062,0-.062-.124,0-.186h.124c.062,0,.186-.062.186-.124a4.733,4.733,0,0,0,.062-1.055v-1.3c0-.434,0-.5-.124-.683-.062-.062-.186-.062-.248-.124H36.6V94.1h.869a4.389,4.389,0,0,0,.745,1.117l.434.559c.186.248.621.807.683.869V95.465a5.036,5.036,0,0,0-.062-1.055.322.322,0,0,0-.248-.124H38.9a.116.116,0,0,1,0-.186h.993c.062,0,.062.124,0,.186h-.124c-.062,0-.186.062-.186.124a4.734,4.734,0,0,0-.062,1.055V96.83Z" transform="translate(-36.6 -94.1)" fill="#b89300"/>
  </g>
  <g id="Сгруппировать_374" data-name="Сгруппировать 374" transform="translate(12.473 35.558)">
    <path id="Контур_943" data-name="Контур 943" d="M43.806,95.007c0-.5,0-.559-.248-.621h-.124c-.062,0-.062-.124,0-.124a6.034,6.034,0,0,1,1.117-.062,2.674,2.674,0,0,1,1.055.186A1.651,1.651,0,0,1,46.536,96a1.716,1.716,0,0,1-.807,1.551,2.272,2.272,0,0,1-1.117.248c-.31,0-.5-.062-.683-.062h-.559c-.062,0-.062-.124,0-.186H43.5c.186-.062.248-.062.248-.621V95.007Zm.5,1.8c0,.5.062.807.5.807.807,0,1.179-.683,1.179-1.613,0-1.055-.5-1.551-1.3-1.551a2.194,2.194,0,0,0-.372.062c-.062.062-.062.124-.062.372v1.924Z" transform="translate(-43.325 -94.2)" fill="#b89300"/>
  </g>
  <g id="Сгруппировать_375" data-name="Сгруппировать 375" transform="translate(16.135 35.434)">
    <path id="Контур_944" data-name="Контур 944" d="M50.264,96.358c-.124,0-.124,0-.124.124l-.186.621c-.062.31-.062.31.124.372H50.2v.186h-.931c-.062,0-.062-.124,0-.186H49.4c.124,0,.186-.062.248-.248.062-.124.124-.372.248-.683l.621-1.924c.062-.186.124-.31.062-.372a.7.7,0,0,0,.31-.248c.062,0,.062,0,.062.062l.186.745.683,2.234c.124.372.124.372.372.434h.062a.116.116,0,0,1,0,.186H51.071c-.062,0-.062-.124,0-.186H51.2c.186,0,.186-.062.124-.31l-.186-.745c-.062-.124-.062-.124-.186-.124h-.683Zm.5-.248c.124,0,.124,0,.124-.124l-.186-.621c-.062-.31-.124-.372-.124-.434h0c0,.062-.062.186-.124.434l-.186.621c-.062.124-.062.124.062.124Z" transform="translate(-49.225 -94)" fill="#b89300"/>
  </g>
  <g id="Сгруппировать_376" data-name="Сгруппировать 376" transform="translate(19.548 35.558)">
    <path id="Контур_945" data-name="Контур 945" d="M55.206,95.007c0-.5,0-.559-.248-.621h-.124c-.062-.062-.062-.124,0-.124a5.679,5.679,0,0,1,1.055-.062,1.644,1.644,0,0,1,.869.186c.248.124.372.372.372.807a.932.932,0,0,1-.559.869v.062a6.293,6.293,0,0,0,.807,1.365c.124.124.186.124.248.124v.124h-.807a7.268,7.268,0,0,1-.372-.683l-.372-.745c-.062-.186-.124-.186-.31-.186-.124,0-.124,0-.124.124v.683c0,.559.062.559.248.621h.124c.062.062,0,.124,0,.186H54.772c-.062,0-.062-.124,0-.186H54.9c.186-.062.248-.062.248-.621V95.007Zm.5.807c0,.186,0,.186.248.186.434,0,.683-.248.683-.745,0-.434-.248-.807-.621-.807-.248,0-.248,0-.248.248v1.117Z" transform="translate(-54.725 -94.2)" fill="#b89300"/>
  </g>
  <g id="Сгруппировать_377" data-name="Сгруппировать 377" transform="translate(35.558 35.558)">
    <path id="Контур_946" data-name="Контур 946" d="M81.006,95.007c0-.5,0-.559-.248-.621h-.124c-.062-.062-.062-.124,0-.124a5.678,5.678,0,0,1,1.055-.062,1.644,1.644,0,0,1,.869.186c.248.124.372.372.372.807a.932.932,0,0,1-.559.869v.062a6.293,6.293,0,0,0,.807,1.365c.124.124.186.124.248.124v.124h-.807a7.269,7.269,0,0,1-.372-.683l-.372-.745c-.062-.186-.124-.186-.31-.186-.124,0-.124,0-.124.124v.683c0,.559.062.559.248.621h.124c.062.062,0,.124,0,.186H80.572c-.062,0-.062-.124,0-.186H80.7c.186-.062.248-.062.248-.621V95.007Zm.558.807c0,.186,0,.186.248.186.434,0,.683-.248.683-.745,0-.434-.248-.807-.621-.807-.248,0-.248,0-.248.248v1.117Z" transform="translate(-80.525 -94.2)" fill="#b89300"/>
  </g>
  <g id="Сгруппировать_378" data-name="Сгруппировать 378" transform="translate(23.147 35.558)">
    <path id="Контур_947" data-name="Контур 947" d="M61.44,96.993c0,.559.062.559.248.621h.124c.062.062,0,.124,0,.186H60.572c-.062,0-.062-.124,0-.186H60.7c.186-.062.248-.062.248-.621V95.007c0-.559-.062-.559-.248-.621h-.124c-.062-.062,0-.124,0-.186h1.241c.062,0,.062.124,0,.186h-.124c-.186.062-.248.062-.248.621v1.986Z" transform="translate(-60.525 -94.2)" fill="#b89300"/>
  </g>
  <g id="Сгруппировать_379" data-name="Сгруппировать 379" transform="translate(25.614 35.496)">
    <path id="Контур_948" data-name="Контур 948" d="M67.355,96.83v.931a.192.192,0,0,1-.124.062,4.1,4.1,0,0,0-.559-.745l-1.055-1.427c-.31-.372-.434-.621-.5-.683V96.4a5.037,5.037,0,0,0,.062,1.055.322.322,0,0,0,.248.124h.124a.116.116,0,0,1,0,.186h-.993c-.062,0-.062-.124,0-.186h.124c.062,0,.186-.062.186-.124a4.734,4.734,0,0,0,.062-1.055v-1.3c0-.434,0-.5-.124-.683-.062-.062-.186-.062-.248-.124H64.5V94.1h.869a4.388,4.388,0,0,0,.745,1.117l.434.559c.186.248.621.807.683.869V95.465a5.036,5.036,0,0,0-.062-1.055.322.322,0,0,0-.248-.124H66.8a.116.116,0,0,1,0-.186h.993c.062,0,.062.124,0,.186h-.124c-.062,0-.186.062-.186.124a4.734,4.734,0,0,0-.062,1.055V96.83Z" transform="translate(-64.5 -94.1)" fill="#b89300"/>
  </g>
  <g id="Сгруппировать_380" data-name="Сгруппировать 380" transform="translate(31.509 35.496)">
    <path id="Контур_949" data-name="Контур 949" d="M77.227,95.962a1.709,1.709,0,0,1-1.613,1.862A1.648,1.648,0,0,1,74,96.024,1.731,1.731,0,0,1,75.613,94.1a1.669,1.669,0,0,1,1.613,1.862Zm-2.668-.124c0,.745.248,1.738,1.055,1.738.5,0,.931-.434.931-1.551,0-.807-.31-1.738-1.055-1.738-.434,0-.931.434-.931,1.551Z" transform="translate(-74 -94.1)" fill="#b89300"/>
  </g>
  <g id="Сгруппировать_381" data-name="Сгруппировать 381" transform="translate(39.592 35.558)">
    <path id="Контур_950" data-name="Контур 950" d="M87.94,96.993c0,.559.062.559.248.621h.124c.062.062,0,.124,0,.186H87.072c-.062,0-.062-.124,0-.186H87.2c.186-.062.248-.062.248-.621V95.007c0-.559-.062-.559-.248-.621h-.124c-.062-.062,0-.124,0-.186h1.241c.062,0,.062.124,0,.186h-.124c-.186.062-.248.062-.248.621v1.986Z" transform="translate(-87.025 -94.2)" fill="#b89300"/>
  </g>
  <g id="Сгруппировать_382" data-name="Сгруппировать 382" transform="translate(42.136 35.558)">
    <path id="Контур_951" data-name="Контур 951" d="M91.606,95.007c0-.559-.062-.559-.248-.621H91.3V94.2h2.048c0,.062.062.5.062.745,0,.062-.124.062-.124,0-.062-.31-.124-.434-.31-.5a.787.787,0,0,0-.372-.062h-.31c-.186,0-.186,0-.186.31v.931c0,.124,0,.124.124.124h.248c.372,0,.5,0,.5-.248l.062-.186c.062-.062.124-.062.124,0v1.117c0,.062-.124.062-.124,0l-.062-.186c-.062-.248-.124-.248-.5-.248h-.248c-.124,0-.124,0-.124.124v.683a1.225,1.225,0,0,0,.062.559c.062.062.124.124.5.124.559,0,.683-.124.869-.559.062-.062.124,0,.124.062a3.078,3.078,0,0,1-.186.807h-2.3c-.062,0-.062-.124,0-.186h.186c.186,0,.248-.062.248-.621V95.007Z" transform="translate(-91.125 -94.2)" fill="#b89300"/>
  </g>
  <g id="Сгруппировать_383" data-name="Сгруппировать 383" transform="translate(45.816 35.496)">
    <path id="Контур_952" data-name="Контур 952" d="M99.938,96.83v.931a.192.192,0,0,1-.124.062,4.1,4.1,0,0,0-.559-.745L98.2,95.651c-.31-.372-.434-.621-.5-.683V96.4a5.037,5.037,0,0,0,.062,1.055.322.322,0,0,0,.248.124h.124a.116.116,0,0,1,0,.186h-.993c-.062,0-.062-.124,0-.186h.124c.062,0,.186-.062.186-.124a4.734,4.734,0,0,0,.062-1.055v-1.3c0-.434,0-.5-.124-.683-.062-.062-.186-.062-.248-.124h-.062c-.062-.062,0-.124,0-.186h.869a4.389,4.389,0,0,0,.745,1.117l.434.559c.186.248.621.807.683.869V95.465a5.036,5.036,0,0,0-.062-1.055.322.322,0,0,0-.248-.124h-.124a.116.116,0,0,1,0-.186h.993c.062,0,.062.124,0,.186h-.124c-.062,0-.186.062-.186.124A4.734,4.734,0,0,0,100,95.465V96.83Z" transform="translate(-97.056 -94.1)" fill="#b89300"/>
  </g>
  <g id="Сгруппировать_384" data-name="Сгруппировать 384" transform="translate(50.126 35.434)">
    <path id="Контур_953" data-name="Контур 953" d="M105.179,94.621c0-.248,0-.248-.124-.248h-.248c-.434,0-.559.062-.683.5,0,0-.124,0-.124-.062a8.1,8.1,0,0,1,.186-.807h.124c0,.124.062.124.372.124h1.862c.248,0,.31,0,.372-.124h.124a4.4,4.4,0,0,0-.062.869c0,.062-.124.062-.124,0-.062-.434-.124-.5-.621-.5h-.372c-.124,0-.124,0-.124.248v2.3c0,.559.062.559.248.621h.186c.062.062,0,.124,0,.186h-1.365c-.062,0-.062-.124,0-.186h.186c.186,0,.248-.062.248-.621v-2.3Z" transform="translate(-104 -94)" fill="#b89300"/>
  </g>
  <g id="Сгруппировать_385" data-name="Сгруппировать 385" transform="translate(53.555 35.434)">
    <path id="Контур_954" data-name="Контур 954" d="M110.564,96.358c-.124,0-.124,0-.124.124l-.186.621c-.062.31-.062.31.124.372h.124v.186h-.931c-.062,0-.062-.124,0-.186h.124c.124,0,.186-.062.248-.248.062-.124.124-.372.248-.683l.621-1.924c.062-.186.124-.31.062-.372a.7.7,0,0,0,.31-.248c.062,0,.062,0,.062.062l.186.745.683,2.234c.124.372.124.372.372.434h.062a.116.116,0,0,1,0,.186h-1.179c-.062,0-.062-.124,0-.186h.124c.186,0,.186-.062.124-.31l-.186-.745c-.062-.124-.062-.124-.186-.124h-.683Zm.559-.248c.124,0,.124,0,.124-.124l-.186-.621c-.062-.31-.124-.372-.124-.434h0c0,.062-.062.186-.124.434l-.186.621c-.062.124-.062.124.062.124Z" transform="translate(-109.525 -94)" fill="#b89300"/>
  </g>
  <g id="Сгруппировать_386" data-name="Сгруппировать 386" transform="translate(57.464 35.62)">
    <path id="Контур_955" data-name="Контур 955" d="M116.8,96.906a1.377,1.377,0,0,0,.062.559c.062.062.124.124.5.124.5,0,.559,0,.807-.559.062,0,.124,0,.124.062-.062.248-.124.621-.186.807h-2.234c-.062,0-.062-.124,0-.186H116c.186-.062.248-.062.248-.621V95.107c0-.559-.062-.559-.248-.621h-.124V94.3h1.241c.062,0,.062.124,0,.186h-.124c-.186.062-.248.062-.248.621v1.8Z" transform="translate(-115.825 -94.3)" fill="#b89300"/>
  </g>
</svg>
