<svg xmlns="http://www.w3.org/2000/svg" xmlns:xlink="http://www.w3.org/1999/xlink" width="71.692" height="71.692" viewBox="0 0 71.692 71.692">
  <defs>
    <clipPath id="clip-path">
      <path id="path16" d="M0-200H71.692v71.692H0Z" transform="translate(0 200)"/>
    </clipPath>
  </defs>
  <g id="g10" transform="translate(0 200)">
    <g id="g12" transform="translate(0 -200)">
      <g id="g14" clip-path="url(#clip-path)">
        <g id="g20" transform="translate(9.192 47.126)">
          <path id="path22" d="M-3.373-1.21c0-.046.027-.3-.066-.305h-1.09c-.413,0-.426.1-.547.466-.021.067-.027.154-.114.154-.039,0-.068-.046-.068-.08l.074-.648c.006-.081,0-.263.122-.263.52,0,1.034.03,1.9.03,1.212,0,1.829-.03,1.961-.03.155,0,.186.042.194.2l.033.537c.006.064.012.147-.072.147-.248,0,.114-.509-.57-.509h-.956c-.3,0-.268-.029-.268.324V2.222c0,.56.543.341.543.548,0,.019.006.082-.062.082-.161,0-.347-.028-.541-.028a8.45,8.45,0,0,0-.915.028c-.06,0-.082-.023-.082-.09,0-.161.528-.092.528-.495Z" transform="translate(5.257 1.885)" fill="#090a0d"/>
        </g>
        <g id="g24" transform="translate(13.18 48.302)">
          <path id="path26" d="M-.78-.773c0-.363-.436-.264-.436-.376,0-.044.04-.056.081-.056.186,0,.365.022.553.022.155,0,.309-.022.465-.022.084,0,.095.032.095.05,0,.1-.361.006-.361.382V.313c0,.068,0,.088.076.088H1.528c.049,0,.039-.126.039-.143V-.773c0-.344-.376-.259-.376-.376,0-.03.011-.056.085-.056.165,0,.428.022.522.022.186,0,.262-.022.361-.022.13,0,.138.05.138.083,0,.09-.332.006-.332.349V1.885c0,.366.454.276.454.4,0,.016-.021.062-.054.062-.136,0-.291-.02-.473-.02-.322,0-.461.02-.557.02-.043,0-.122.014-.122-.064,0-.123.353-.052.353-.368V.711c0-.08.021-.125-.039-.125H-.322c-.062,0-.062.032-.062.087V1.92c0,.34.477.23.477.387,0,.026-.035.04-.083.04s-.429-.02-.7-.02a2.647,2.647,0,0,0-.43.02c-.039,0-.055-.024-.055-.073,0-.148.39.016.39-.477Z" transform="translate(1.216 1.205)" fill="#090a0d"/>
        </g>
        <g id="g28" transform="translate(16.917 48.302)">
          <path id="path30" d="M-1.463-2.618c0,.171-.01.171.19.171H-.73c.519,0,.384-.4.506-.4.039,0,.055.054.055.1,0,.174-.012.345-.012.508,0,.128.012.259.012.4,0,.042-.021.063-.055.063-.157,0,.012-.443-.407-.443h-.743c-.1,0-.089.088-.089.16v.924c0,.3-.041.416.38.416C.075-.729.247-1.247.31-1.247c.035,0,.042.052.042.062A.8.8,0,0,1,.1-.7c-.161.181-.269.171-.491.171-.38,0-.762-.03-1.142-.02-.2.005-.413.02-.613.02-.045,0-.076-.01-.076-.051.012-.059.062-.049.225-.13.126-.062.139-.2.139-.436V-3.43c0-.229,0-.468-.271-.51-.042-.009-.151-.019-.151-.078,0-.041.031-.063.173-.063.948,0,1.208.022,1.42.022.1,0,.562-.022.716-.022.041,0,.05.051.05.116,0,.551-.07.594-.1.594-.12,0-.042-.239-.12-.357C-.269-3.9-.792-3.87-.992-3.87c-.481,0-.471-.018-.471.317Z" transform="translate(2.28 4.081)" fill="#090a0d"/>
        </g>
        <g id="g32" transform="translate(21.263 47.122)">
          <path id="path34" d="M-6.329-7.175c.481.737.809.488.809.65,0,.082-.376.082-.435.082-.488,0-.748-.342-1-.723L-7.7-8.336c-.242-.376-.139-.356-.89-.356-.213,0-.171.119-.171.19v1.408c0,.577.693.368.693.6,0,.065-.06.054-.114.054s-.213-.028-.768-.028c-.256,0-.51.028-.762.028a.07.07,0,0,1-.07-.074c0-.17.492-.073.492-.584v-3.4c0-.643-.576-.367-.576-.6,0-.038.051-.08.132-.08a3.5,3.5,0,0,0,.429.03c.388,0,.768-.03,1.115-.03.108,0,1.586-.132,1.586,1.159a1.294,1.294,0,0,1-.843,1.154ZM-8.761-9.013c0,.125.412.093.726.093a.87.87,0,0,0,.929-.948c0-.815-.621-1.089-1.276-1.089-.241,0-.379-.015-.379.247Z" transform="translate(9.865 11.184)" fill="#090a0d"/>
        </g>
        <g id="g36" transform="translate(25.712 48.302)">
          <path id="path38" d="M-.725-.773c0-.363-.4-.264-.4-.376,0-.044.009-.056.05-.056.186,0,.365.022.552.022.157,0,.31-.022.466-.022.08,0,.1.012.1.05,0,.123-.363.006-.363.382V1.92c0,.34.448.226.448.376,0,.037-.017.051-.1.051-.114,0-.332-.02-.547-.02-.306,0-.409.02-.481.02-.091,0-.105-.024-.105-.073,0-.148.39.016.39-.477Z" transform="translate(1.129 1.205)" fill="#090a0d"/>
        </g>
        <g id="g40" transform="translate(27.085 48.302)">
          <path id="path42" d="M-2.53-.91c0-.035.021-.226-.05-.229H-3.4c-.31,0-.32.072-.411.348-.016.052-.018.115-.087.115-.031,0-.049-.034-.049-.058l.055-.487c0-.061,0-.2.089-.2.392,0,.778.022,1.427.022.9,0,1.368-.022,1.47-.022s.138.032.145.148l.024.4c0,.049.008.11-.055.11-.186,0,.087-.379-.425-.379h-.718c-.225,0-.2-.021-.2.243V1.664c0,.419.407.255.407.409,0,.015.006.062-.048.062-.118,0-.258-.02-.4-.02-.561,0-.654.02-.685.02s-.06-.014-.06-.064c0-.122.394-.074.394-.372Z" transform="translate(3.944 1.419)" fill="#090a0d"/>
        </g>
        <g id="g44" transform="translate(30.459 48.324)">
          <path id="path46" d="M-1.179-5.491a.489.489,0,0,0-.076.165c0,.055.08.071.194.071h.935c.65,0,.632-.339.818-.339.024,0,.049.048.031.088l-.177.329a.233.233,0,0,1-.25.128H-1.753a.075.075,0,0,1-.085-.076.215.215,0,0,1,.035-.1L-.031-8.172a1.1,1.1,0,0,0,.085-.15c0-.027-.025-.031-.039-.031H-1.04c-.7,0-.52.525-.682.525a.066.066,0,0,1-.07-.056l.07-.521c.021-.139.025-.153.19-.153H.421c.119,0,.144.034.144.081a.251.251,0,0,1-.052.152Z" transform="translate(1.837 8.559)" fill="#090a0d"/>
        </g>
        <g id="g48" transform="translate(33.168 49.905)">
          <path id="path50" d="M-2.142-.14a1.118,1.118,0,0,1,.225-.078c.074,0,.062.117.062.157,0,.242.019.236-.18.3L-3.051.6a1.054,1.054,0,0,1-.229.08c-.075,0-.058-.108-.058-.149,0-.251-.021-.248.18-.314Z" transform="translate(3.339 0.219)" fill="#090a0d"/>
        </g>
        <g id="g52" transform="translate(35.061 47.068)">
          <path id="path54" d="M-4.3,0A3.4,3.4,0,0,1-2.5.514c.054,0,.093-.066.161-.066s.072.108.091.541c.014.353.076.576-.039.576-.078,0-.126-.175-.153-.223A1.9,1.9,0,0,0-4.2.192,1.854,1.854,0,0,0-6.127,2.3,2.1,2.1,0,0,0-4.176,4.633,1.977,1.977,0,0,0-2.37,3.656a.112.112,0,0,1,.093-.085.065.065,0,0,1,.06.072l-.152.667c-.007.03-.481.531-1.986.531A2.239,2.239,0,0,1-6.709,2.514,2.412,2.412,0,0,1-4.3,0" transform="translate(6.709)" fill="#090a0d"/>
        </g>
        <g id="g56" transform="translate(39.466 48.224)">
          <path id="path58" d="M-4.589-4.352c-.052-.117-.08-.188-.223-.188h-1.1c-.1,0-.186,0-.236.105l-.32.7a.582.582,0,0,0-.037.175c0,.352.357.2.357.336,0,.087-.068.074-.134.074-.142,0-.281-.02-.423-.02s-.268.02-.4.02c-.031,0-.045-.025-.045-.057,0-.106.236-.017.365-.3l1.2-2.56c.3-.633.312-.711.376-.711s.093.148.108.184l1.043,2.584a2.969,2.969,0,0,0,.249.572c.151.231.444.121.444.246,0,.046-.037.046-.073.046-.208,0-.412-.02-.617-.02-.134,0-.271.02-.409.02-.027,0-.109,0-.109-.052,0-.12.305-.068.305-.26a2.1,2.1,0,0,0-.159-.476Zm-1.352-.5c-.039.073,0,.094.062.094h.993c.109,0,.108-.04.081-.1L-5.3-6.073c-.025-.059-.048-.059-.079,0Z" transform="translate(7.153 6.784)" fill="#090a0d"/>
        </g>
        <g id="g60" transform="translate(43.25 48.299)">
          <path id="path62" d="M-4.745-5.386c.361.55.607.366.607.485,0,.062-.283.062-.324.062-.37,0-.566-.255-.756-.543l-.555-.878c-.182-.281-.106-.264-.667-.264-.159,0-.132.089-.132.138v1.063c0,.426.522.272.522.443,0,.049-.045.04-.085.04s-.161-.02-.578-.02c-.188,0-.38.02-.57.02A.053.053,0,0,1-7.334-4.9c0-.123.369-.053.369-.435V-7.884c0-.482-.432-.277-.432-.445,0-.032.037-.063.1-.063a2.541,2.541,0,0,0,.322.022c.289,0,.576-.022.836-.022.081,0,1.187-.1,1.187.868a.971.971,0,0,1-.631.87ZM-6.572-6.765c0,.095.314.069.549.069a.655.655,0,0,0,.7-.714c0-.61-.464-.815-.958-.815-.18,0-.287-.011-.287.184Z" transform="translate(7.396 8.396)" fill="#090a0d"/>
        </g>
        <g id="g64" transform="translate(46.482 48.302)">
          <path id="path66" d="M-1.463-5.255c0,.3-.039.416.382.416a1.552,1.552,0,0,0,1.4-.517c.035,0,.037.052.037.062A.805.805,0,0,1,.1-4.809c-.163.181-.271.171-.494.171-.379,0-.759-.03-1.143-.02-.2.005-.411.02-.609.02-.048,0-.076-.01-.076-.051.012-.059.058-.049.221-.13.13-.062.138-.2.138-.436V-7.8c0-.261-.421-.225-.421-.324,0-.057.035-.069.1-.069.1,0,.26.022.5.022.289,0,.407-.022.483-.022s.1.012.1.073c0,.115-.368-.01-.368.426Z" transform="translate(2.28 8.191)" fill="#090a0d"/>
        </g>
        <g id="g68" transform="translate(48.544 48.302)">
          <path id="path70" d="M-2.528-.91c0-.035.021-.226-.048-.229h-.817c-.31,0-.322.072-.411.348-.014.052-.021.115-.085.115A.057.057,0,0,1-3.94-.734l.056-.487c0-.061,0-.2.087-.2.394,0,.78.022,1.429.022C-1.462-1.4-1-1.419-.9-1.419s.141.032.144.148l.025.4c.006.049.011.11-.055.11-.184,0,.087-.379-.425-.379h-.716c-.225,0-.2-.021-.2.243V1.664c0,.419.409.255.409.409,0,.015,0,.062-.045.062-.12,0-.26-.02-.407-.02a6.789,6.789,0,0,0-.685.02c-.048,0-.064-.014-.064-.064,0-.122.4-.074.4-.372Z" transform="translate(3.94 1.419)" fill="#090a0d"/>
        </g>
        <g id="g72" transform="translate(51.831 48.259)">
          <path id="path74" d="M0-3.222a1.78,1.78,0,0,1,1.84-1.8A1.744,1.744,0,0,1,3.649-3.248a1.775,1.775,0,0,1-1.9,1.856A1.694,1.694,0,0,1,0-3.222m.364-.147a1.7,1.7,0,0,0,1.6,1.827,1.371,1.371,0,0,0,1.32-1.514,1.694,1.694,0,0,0-1.594-1.8A1.361,1.361,0,0,0,.364-3.369" transform="translate(0 5.023)" fill="#090a0d"/>
        </g>
        <g id="g76" transform="translate(55.439 48.302)">
          <path id="path78" d="M-1.087-1.77c0-1.041-.607-.749-.607-.939,0-.028.052-.05.077-.05.078,0,.155.022.235.022s.155-.022.233-.022c.052,0,.1.083.13.118L1.372.022c.031.034.052.054.058.054s.016-.013.016-.054v-2.1c0-.659-.555-.467-.555-.635a.05.05,0,0,1,.056-.05c.148,0,.293.022.456.022s.387-.022.5-.022a.046.046,0,0,1,.051.048c0,.127-.3.04-.3.4V.6c0,.146,0,.216-.045.216S1.532.787,1.425.674L-.73-1.753c-.01-.012-.07-.1-.105-.1s-.037.014-.037.116V.317c0,.452.442.276.442.413,0,.024,0,.064-.056.064-.118,0-.258-.02-.5-.02-.175,0-.438.02-.473.02-.058,0-.062-.03-.062-.057,0-.174.438.047.438-.655Z" transform="translate(1.695 2.759)" fill="#090a0d"/>
        </g>
        <g id="g80" transform="translate(59.8 47.012)">
          <path id="path82" d="M-2.416,0a1.359,1.359,0,0,1,1.35,1.35A1.358,1.358,0,0,1-2.416,2.7,1.356,1.356,0,0,1-3.765,1.35,1.358,1.358,0,0,1-2.416,0m0,2.53A1.192,1.192,0,0,0-1.235,1.35,1.192,1.192,0,0,0-2.416.17,1.191,1.191,0,0,0-3.6,1.35,1.192,1.192,0,0,0-2.416,2.53m-.559-.448V.533h.6c.44,0,.611.194.611.452A.412.412,0,0,1-2.1,1.4l.326.684h-.3l-.318-.658H-2.7v.658Zm.274-.861h.331c.179,0,.312-.063.312-.223s-.1-.258-.312-.258H-2.7Z" transform="translate(3.765)" fill="#090a0d"/>
        </g>
        <g id="g84" transform="translate(28.266 53.941)">
          <path id="path86" d="M-5.572-4.61c.021.351.33.2.33.342,0,.043-.055.043-.1.043-.081,0-.229-.018-.394-.018-.13,0-.262.018-.368.018-.039,0-.045-.022-.045-.038,0-.126.26-.033.258-.344l-.043-1.62c0-.1-.018-.163-.043-.163s-.068.038-.111.124L-6.951-4.5c-.021.038-.089.208-.13.208s-.07-.09-.082-.12l-.89-1.863c-.012-.034-.033-.048-.052-.048s-.025.022-.029.065l-.05,1.464c-.023.557.376.373.376.522,0,.043-.045.047-.1.047s-.244-.018-.368-.018c-.219,0-.289.018-.366.018-.029,0-.041-.022-.041-.051,0-.142.269.029.3-.4.05-.683.1-1.127.1-1.569,0-.981-.4-.749-.4-.891,0-.036.033-.046.072-.046.075,0,.149.018.229.018s.151-.018.225-.018c.057,0,.068.074.087.118l.993,2.123c.047.087.064.125.093.125s.064-.088.13-.225l1-2c.024-.044.057-.146.109-.142s.176.018.2.018c.095,0,.134-.018.2-.018a.047.047,0,0,1,.041.052c0,.133-.335-.048-.316.45Z" transform="translate(8.685 7.186)" fill="#090a0d"/>
        </g>
        <g id="g88" transform="translate(31.831 54.647)">
          <path id="path90" d="M0-2.014A1.118,1.118,0,0,1,1.152-3.139,1.092,1.092,0,0,1,2.283-2.028,1.107,1.107,0,0,1,1.1-.868,1.063,1.063,0,0,1,0-2.014M.231-2.1a1.062,1.062,0,0,0,1,1.141.857.857,0,0,0,.825-.946,1.057,1.057,0,0,0-1-1.125.849.849,0,0,0-.826.93" transform="translate(0 3.139)" fill="#090a0d"/>
        </g>
        <g id="g92" transform="translate(34.299 54.647)">
          <path id="path94" d="M-.007-3.03c-.012-.062,0-.1.035-.1s.043.038.06.1a.667.667,0,0,0,.656.471.528.528,0,0,0,.589-.495c0-.605-1.272-.269-1.272-1.085a.617.617,0,0,1,.7-.591,1.094,1.094,0,0,1,.527.114c.029,0,.035-.034.066-.034s.035.009.039.043l.045.426c0,.025,0,.046-.033.046s-.058-.065-.068-.094a.594.594,0,0,0-.6-.406c-.246,0-.508.115-.508.406,0,.589,1.272.244,1.272,1.111,0,.263-.186.657-.9.657a.809.809,0,0,1-.529-.173Z" transform="translate(0.012 4.723)" fill="#090a0d"/>
        </g>
        <g id="g96" transform="translate(36.076 54.647)">
          <path id="path98" d="M-2.017,0a1.607,1.607,0,0,1,.845.244c.024,0,.041-.033.076-.033s.033.051.042.257c.008.166.035.268-.019.268-.038,0-.06-.081-.071-.1a.886.886,0,0,0-.824-.54.869.869,0,0,0-.9.989.983.983,0,0,0,.912,1.09.927.927,0,0,0,.848-.457.048.048,0,0,1,.043-.04.03.03,0,0,1,.027.035l-.071.31c0,.015-.225.249-.931.249a1.049,1.049,0,0,1-1.1-1.089A1.131,1.131,0,0,1-2.017,0" transform="translate(3.144)" fill="#090a0d"/>
        </g>
        <g id="g100" transform="translate(38.339 54.647)">
          <path id="path102" d="M0-2.014A1.116,1.116,0,0,1,1.148-3.139,1.1,1.1,0,0,1,2.283-2.028,1.11,1.11,0,0,1,1.094-.868,1.06,1.06,0,0,1,0-2.014M.229-2.1a1.063,1.063,0,0,0,1,1.141.855.855,0,0,0,.822-.946,1.054,1.054,0,0,0-.993-1.125.851.851,0,0,0-.828.93" transform="translate(0 3.139)" fill="#090a0d"/>
        </g>
        <g id="g104" transform="translate(40.601 54.677)">
          <path id="path106" d="M-.4-.462C-.479-.647-.628-.606-.628-.67c0-.037.037-.05.068-.05.093,0,.19.013.279.013S-.132-.72-.056-.72c.021,0,.027.015.027.039,0,.045-.136.045-.136.152a.208.208,0,0,0,.019.078l.6,1.473C.463,1.056.485,1.1.5,1.1s.029-.022.041-.054L.778.495A.522.522,0,0,0,.818.367a.39.39,0,0,0-.033-.1L.47-.484c-.085-.208-.3-.1-.3-.2,0-.031.019-.034.048-.034.108,0,.272.013.318.013.147,0,.235-.013.3-.013.012,0,.021.02.021.039,0,.049-.128.039-.128.142a.217.217,0,0,0,.021.1L.91-.032C.937.029.943.051.952.051S.975.016,1-.03l.152-.364a.466.466,0,0,0,.027-.113C1.181-.642,1-.624,1-.692c0-.028.043-.028.064-.028.066,0,.134.013.2.013.137,0,.174-.013.229-.013.009,0,.023.009.023.02,0,.089-.078-.031-.219.3L1.073.11a.29.29,0,0,0-.027.12.627.627,0,0,0,.037.15l.264.649c.033.073.05.1.068.1s.045-.049.072-.119l.568-1.4a.2.2,0,0,0,.022-.1c0-.136-.2-.114-.2-.176,0-.025.012-.048.033-.048.072,0,.142.013.221.013s.185-.013.258-.013c.022,0,.037,0,.037.034,0,.07-.078-.014-.18.23l-.807,1.9c-.019.045-.042.1-.091.1-.029,0-.041-.018-.085-.118L.919.6C.912.591.906.579.9.579S.878.579.869.6l-.351.87C.5,1.534.475,1.548.44,1.548S.373,1.457.283,1.241Z" transform="translate(0.628 0.72)" fill="#090a0d"/>
        </g>
        <g id="g108" transform="translate(25.677 14.747)">
          <path id="path110" d="M-36.354-33.023c-.316.029-.277.423-.562.528a1,1,0,0,1-.807.105c-.71-.133-1.065-.918-1.266-1.51-.466-1.8,1.732-2.818,1.266-4.667.543-1.095,1.289-2.231.912-3.58a3.15,3.15,0,0,1-.283-1.159c.112,0,.306.077.386-.035.236-.788-.549-1.3-.983-1.894-.155-.23.157-.267.283-.353.068-.189-.2-.346-.316-.489-.753-.838-.322-2.134-.912-3.021a2.2,2.2,0,0,0-1.932-.842c-.692-.269-.966-1.133-1.65-1.473-.493-.249-.807.34-1.228.455a5.523,5.523,0,0,1-2.317.07c-.555.092-.947.639-1.332.948a15.736,15.736,0,0,0-2.6.384c-.589.093-.663.722-.948,1.16l-1.544.774c-.566.354-1.27.547-1.615,1.192-.283.455.225.768.421,1.122.236.587.159,1.531,1.018,1.722.238.238.6.473.6.839-.32.145-.751-.168-1.088-.208a1.1,1.1,0,0,0-1.263.527c-.047.218-.126.571.106.738a.376.376,0,0,0,.386-.07c.442-.292.952-.014,1.367.138.644.236.446,1.022.807,1.441.151.286.541.328.493.6a16.1,16.1,0,0,0-.945,1.647c-.574,1.454-.027,3.416-.739,4.81a1.976,1.976,0,0,1-1.685.981c-.778.134-1.325-.453-1.756-1.053-.12-.068-.277.052-.347.177a2.036,2.036,0,0,0-.072,1.755,2.989,2.989,0,0,0,2.6,1.615,6.345,6.345,0,0,0,3.578-.983,5.38,5.38,0,0,0,4-1.617h.279a6.1,6.1,0,0,0,4.67,1.756l1.088.528a4.055,4.055,0,0,0,3.51-.175A1.833,1.833,0,0,0-36-31.3a2.3,2.3,0,0,0-.351-1.72m-3.722-15.266c.309-.042.543.195.774.386a1.931,1.931,0,0,1,.421,1.332c-.1.167-.26.007-.353-.068a7.592,7.592,0,0,1-1.086-1.478c.039-.094.159-.131.244-.171m-5.544-1.9c.124-.1.4-.14.492,0a.379.379,0,0,1-.492.213c-.07-.078-.07-.157,0-.213m-6.39,6.319a.378.378,0,0,1,.108-.383.211.211,0,0,1,.279.207v.422c-.147.081-.343-.077-.386-.247m-1.051,1.649-.634-.036c-.115-.151.081-.309.246-.35.7-.272,1.247.275,1.93.35a.846.846,0,0,1,.035.214c-.522.38-1.032-.17-1.578-.178m5.228,9.546c.025.265-.37.383-.562.525a1.606,1.606,0,0,1-.878.211c.05-.271.326-.471.421-.736.572-1.342-.291-3.028.529-4.246a1.906,1.906,0,0,1,.527-.6c.105.284-.012.6.068.911a4.1,4.1,0,0,1-.281,3.265,2.154,2.154,0,0,0-.422.737c.19.159.384-.075.6-.07m4.74.383a2.937,2.937,0,0,1-2.669-1.121,5.3,5.3,0,0,1-.945-3.858A4.012,4.012,0,0,1-46.568-38c.171-.6.445-1.107.664-1.686-.024-.051-.024-.164-.105-.175-1.057.678-2.271,1.107-3.018,2.282-.058.105-.111.209-.173.315-.386.88-.446,1.909-.739,2.771-.145-.221-.027-.5-.108-.772a10.776,10.776,0,0,1,0-2,3.181,3.181,0,0,1,1.268-2.283c2.383-1.443,5.4-1.756,7.23-4.213a2.466,2.466,0,0,0-.073-2.525,3.45,3.45,0,0,0-3.262-1.406c-.1,0-.062.152-.072.177.285.366.832.562.737,1.016.764.368,1.86.881,1.753,1.932.068.985-.832,1.654-1.506,2.279-1.878,1.335-4.191,1.257-6.038,2.667a3.13,3.13,0,0,0-.948,2.354c0,.325-.008.653-.035.981-.033,1.845.477,3.8-1.053,5.053-.157.2.157.281.035.423a3.047,3.047,0,0,1-2.6.281,1.852,1.852,0,0,1-.809-.878,3.634,3.634,0,0,0,1.72.209,2.118,2.118,0,0,0,1.65-.984c.708-1.164.233-2.733.421-4.106.058-.328.122-.656.213-.981A4.735,4.735,0,0,1-49.8-39.936,15.083,15.083,0,0,1-44.567-42.4c.914-.322.718-1.343.948-1.964.085-.281.519-.635.141-.844l-1.757.563a2.264,2.264,0,0,0-.667,1.053c.407.2,1.076-.152,1.229.385.041.246-.271.325-.421.454-.673.067-1.575.03-2.317.071-.71.271-1.652.7-1.825,1.583a1.334,1.334,0,0,1-.735.8c-.464,0-1.052,0-1.3-.455.052-.251-.144-.446-.033-.667a6.023,6.023,0,0,0,2.211-1.477,5.428,5.428,0,0,1,1.262-.279c.182-.063.182-.337.07-.492a15.427,15.427,0,0,1-1.825-1.683c-.417-.279-.733.229-1.121.351l-1.125.282c-.328-.011-.563.737-.842.28-.035-.409-.347-.762-.141-1.159.105-.227.456-.463.211-.772-.223.073-.458.348-.735.283-.155-.131-.037-.326.033-.494.285-.384.793-.5,1.193-.737.619-.274,1.249-.549,1.862-.878.089.251.206.6.526.632.234-.029.31.128.31.318.392.244.746-.15,1.057-.353a.165.165,0,0,0,.106-.246l-.6.106c.062-.206.376-.246.351-.491-.171-.146-.368.089-.526-.035a.554.554,0,0,1-.033-.355c.229-.225.621.045.805-.139a1.275,1.275,0,0,0-1.156-.278l-.562.244c.2-.722,1.1-.566,1.685-.738a9.2,9.2,0,0,1,3.016.317,7.725,7.725,0,0,1,1.193.949.405.405,0,0,0,.458-.034c.244-.431-.425-.589-.631-.915a.636.636,0,0,1,.1-.77,4.43,4.43,0,0,1,1.472-.948c.591.083.907.748,1.126,1.225.289.545-.415.976-.213,1.51.737,1.074,2.306,1.387,2.459,2.811.239,1.167,1.257,2.262.631,3.508a9.375,9.375,0,0,1-3.124,2.351v-.141c1.045-1.651,3.318-2.946,2.56-5.123-.5-1.2-1.552-2.607-2.876-2.738-.129.054-.091.17-.037.247a5.016,5.016,0,0,1,1.685,2.738,3.71,3.71,0,0,1-.351,2.1c-.171-.251.1-.92-.349-.876-1,1.763-2.568,3.329-3.3,5.227l-.1.033a1.538,1.538,0,0,1-.037-.875,9.571,9.571,0,0,1,1.334-2.668c-.223-.153-.382.124-.56.212a5.645,5.645,0,0,0-2.492,4.107c.008.2.017.416.033.63.088.233.088.546.281.668.279-.081.081-.476.211-.668.419.9.5,2,1.23,2.738a5.575,5.575,0,0,0,1.86,1.405c-.043.17-.239.206-.386.206m-7.51-9.93a.21.21,0,0,1-.142.279c-.239,0-.279-.271-.351-.455.151-.247.425.029.494.176m.243-1.053c.12-.035.277-.113.388-.033-.033.233-.268.389-.491.557l-.177-.068c-.109-.141.087-.376.281-.456m12.389,12.215a2.745,2.745,0,0,1-2.842-1.09,4.9,4.9,0,0,1-.981-4.913c-.053-.172-.249-.091-.315.037a4.266,4.266,0,0,0-.667,2.034c-.209.074-.324-.241-.386-.384a2.18,2.18,0,0,1,.386-2.1c1.36-1.046,3.047-1.32,4.352-2.494a2.064,2.064,0,0,1-.631.985c-1.142,1.013-2.672,2.071-2.386,3.753a1.321,1.321,0,0,0,.456.913c.2.07.238-.164.316-.282.233.235.118.629.281.912.347.895,1.053,2.151,2.176,2.212h.667c.056.252-.26.288-.423.422m-5.122-18.779a.609.609,0,0,0,.386.6c.233.125.428-.072.489-.283.1-.14.056-.531.316-.453.21.194.134.51.107.736-.13.438-.6.555-.949.7a1.381,1.381,0,0,1-1.334-.738.773.773,0,0,1,.281-.774c.262-.126.46-.361.772-.384.2.222-.118.379-.068.6m-8.6,2.88a1.141,1.141,0,0,1-.423.7A.321.321,0,0,1-52.4-46.5c0-.336.43-.415.7-.454m3.052,1.265.7.7.562,1.227c-.826-.132-.983-1.192-1.718-1.472-.477-.189-.322-.816-.844-1.125-.108-.161-.3-.2-.386-.35.161-.245.438-.089.632,0a2.1,2.1,0,0,1,1.053,1.02" transform="translate(56.667 51.475)" fill="#090a0d"/>
        </g>
        <g id="g112" transform="translate(25.772 34.421)">
          <path id="path114" d="M-36.753-2.523A5.816,5.816,0,0,1-38.58-1.331c-.3.284.33.441.21.811a.431.431,0,0,1-.6.245A3.223,3.223,0,0,1-39.46-.8c-.281-.087-.516.188-.7.385-.289.116-.171.468-.108.669.211.783.919-.045,1.262.49a.72.72,0,0,1,0,.808,1.48,1.48,0,0,1-.841.666,1.664,1.664,0,0,1-1.123-.349A1.413,1.413,0,0,1-41.388.812C-41.5.206-40.6-.066-40.934-.7c-.18-.272-.221-.7-.6-.774-.326.308-.878.465-.948.952A1.767,1.767,0,0,1-42.3.955a2.171,2.171,0,0,1-2.141.838A1.782,1.782,0,0,1-45.812.916a.857.857,0,0,1,.318-.947.964.964,0,0,1,.875-.1c.291.032.409.383.739.35a1.594,1.594,0,0,0,.737-.947,2.061,2.061,0,0,0-.808-.911c-.378.244-.691.637-1.158.7a.743.743,0,0,1-.737-.211c-.326-.245-.013-.557.068-.806.192-.221.547-.182.7-.418A6.64,6.64,0,0,1-46.76-3.927c-.394-.06-.628.41-.91.63-.347.368-.776.567-1.09.918.236.2.588.155.809.418a.7.7,0,0,1,.141.63.844.844,0,0,1-.634.354,1.547,1.547,0,0,1-1.193-.562c-.458-.055-.537.492-.841.771-.047.39.382.665.667.948.423.226.619-.443,1.051-.49a1.491,1.491,0,0,1,.774.279,1.109,1.109,0,0,1,.246.913c-.238.618-.9.739-1.476.844-.84.012-2.015.012-2.349-.915-.293-.563.1-.955.14-1.474-.276-.307-.59-.737-1.019-.669-.2.284-.512.558-.529.947.291.517.723,1.024.529,1.652a1.246,1.246,0,0,1-.667.738c-.669.123-1.453.165-1.79-.491a.63.63,0,0,1,.141-.774c.157-.179.549-.139.737-.069a.942.942,0,0,0,.564-.842,1.866,1.866,0,0,0-.772-.6c-.333.114-.448.505-.774.6a.4.4,0,0,1-.458-.175c-.238-.427.586-.624.283-.986a6.12,6.12,0,0,1-2.036-1.192l-.07.071c.683,1.482,1.468,2.936,2.07,4.494.223.364-.037.421-.07.948.054.847.694,1.448.634,2.6.089.348-.072.543-.072.91a.519.519,0,0,0,.386.527c1.342.014,13.573.014,14.568,0a.451.451,0,0,0,.491-.6,2.374,2.374,0,0,1-.04-1.05c.114-1.252.628-1.539.6-2.142a1.489,1.489,0,0,1,.1-.947A17.706,17.706,0,0,1-37.845.215c.3-.947.892-1.771,1.125-2.7Zm-17.48,7.375a.117.117,0,0,1-.108-.107.1.1,0,0,1,.108-.071.1.1,0,0,1,.105.071.116.116,0,0,1-.105.107M-40.688,6.5-53.5,6.5c-.249,0-.465-.061-.454-.139-.011-.091.2-.158.454-.177h12.813c.279.019.491.086.491.177s-.213.144-.491.144m.282-1.233c-.012.014.048.36.314.351.243.009.328.155,0,.139-.351.016-13.438-.033-13.794-.026-.324,0-.238-.147,0-.144.271,0,.33-.355.315-.347.015,0,.015-.791,0-1.061.015-.238-.334-.41-.456-.422-.116.012-.124-.1,0-.1s.725-.006.737-.006l12.6.036a7.192,7.192,0,0,0,.737,0c.126.012.12.125,0,.141-.119-.016-.466.151-.455.421-.012.241-.012,1.03,0,1.017m.667-.384c-.068-.02-.109-.061-.109-.108h0a.1.1,0,0,1,.106-.1c.037-.007.081.041.068.1.013.048-.031.089-.068.108M-39.916,3.2H-54.025c-.262-.01-.475-.089-.491-.177.016-.1.229-.178.491-.178v0h14.109c.258,0,.47.075.456.174.014.088-.2.167-.456.177" transform="translate(57.289 3.932)" fill="#090a0d"/>
        </g>
        <g id="g116" transform="translate(29.668 42.75)">
          <path id="path118" d="M-.629,0A.35.35,0,0,0-.98.348h.006A.355.355,0,0,0-.629.7.37.37,0,0,0-.276.348.357.357,0,0,0-.629,0" transform="translate(0.98 0)" fill="#090a0d"/>
        </g>
        <g id="g120" transform="translate(33.67 42.75)">
          <path id="path122" d="M-.629,0A.333.333,0,0,0-.98.348.341.341,0,0,0-.629.7.335.335,0,0,0-.315.348.324.324,0,0,0-.629,0" transform="translate(0.981 0)" fill="#090a0d"/>
        </g>
        <g id="g124" transform="translate(41.777 42.75)">
          <path id="path126" d="M-.628,0A.35.35,0,0,0-.979.348h0A.359.359,0,0,0-.628.7.371.371,0,0,0-.275.348.358.358,0,0,0-.628,0" transform="translate(0.979 0)" fill="#090a0d"/>
        </g>
        <g id="g128" transform="translate(30.544 42.147)">
          <path id="path130" d="M-4.21,0h-1.9V.01a.452.452,0,0,0-.456.484v.772a.436.436,0,0,0,.456.457h1.9a.443.443,0,0,0,.456-.457V.493A.467.467,0,0,0-4.21,0m-.946,1.372A.519.519,0,0,1-5.682.88.507.507,0,0,1-5.156.388.491.491,0,0,1-4.667.88a.5.5,0,0,1-.489.491" transform="translate(6.563)" fill="#090a0d"/>
        </g>
        <g id="g132" transform="translate(34.652 42.186)">
          <path id="path134" d="M-4.275,0h-1.9a.512.512,0,0,0-.491.488v.773a.478.478,0,0,0,.491.459h1.9a.446.446,0,0,0,.454-.459l.009-.773A.487.487,0,0,0-4.275,0m-.95,1.367A.494.494,0,0,1-5.714.875.474.474,0,0,1-5.225.388a.459.459,0,0,1,.491.487.477.477,0,0,1-.491.492" transform="translate(6.664)" fill="#090a0d"/>
        </g>
        <g id="g136" transform="translate(38.725 42.22)">
          <path id="path138" d="M-4.268,0H-6.161a.516.516,0,0,0-.491.492v.77a.468.468,0,0,0,.491.458h1.893a.445.445,0,0,0,.456-.458l0-.77A.494.494,0,0,0-4.268,0m-.946,1.367A.478.478,0,0,1-5.707.878.462.462,0,0,1-5.213.387a.475.475,0,0,1,.49.491.494.494,0,0,1-.49.489" transform="translate(6.652)" fill="#090a0d"/>
        </g>
        <g id="g140" transform="translate(37.777 42.75)">
          <path id="path142" d="M-.625,0A.335.335,0,0,0-.974.348.343.343,0,0,0-.625.7.333.333,0,0,0-.31.348.322.322,0,0,0-.625,0" transform="translate(0.975 0)" fill="#090a0d"/>
        </g>
      </g>
    </g>
  </g>
</svg>
