<svg xmlns="http://www.w3.org/2000/svg" width="110" height="48.385" viewBox="0 0 110 48.385">
  <g id="tm-logo" transform="translate(-96.2 -153.2)">
    <path id="Path_105" data-name="Path 105" d="M347.355,186.583a3.015,3.015,0,0,0-.715.781c.187-.429.319-.539.506-.9m1.321.9c-.352.374-.682.9-1,1.31a1.085,1.085,0,0,1-1.376.264,1.175,1.175,0,0,0,1.222-.352c.308-.462.605-.925.958-1.42Zm-1.332-.947a4.534,4.534,0,0,0-1.046,1.156,11.072,11.072,0,0,1,.748-1.321Zm-1.288,1.134a.94.94,0,0,0,.165,1.431,1.185,1.185,0,0,0,1.6-.2l1-1.387a6.009,6.009,0,0,0-1.827-1.255Zm1.134-1.508-.044-.022c-.044-.2.121-.473.352-.418a.479.479,0,0,0-.308.44m.132.066-.055-.022c-.033-.2.121-.462.363-.418a.5.5,0,0,0-.308.44m.132.077-.044-.022c-.044-.2.121-.473.352-.418a.483.483,0,0,0-.308.44m1.618,1.2h0a.524.524,0,0,0,.4-.451c.154.22-.165.517-.4.451m.594.055h0a.353.353,0,0,0-.088-.473,10.286,10.286,0,0,0-1.013-.781,3.9,3.9,0,0,1,1.09.605,1.2,1.2,0,0,0-.319-1.442l-.088-.077c-.033-.022-.066-.055-.1-.077a1.448,1.448,0,0,0-1.915.22l-.077-.044a.414.414,0,0,0-.517.077.309.309,0,0,0,.088.473l.077.033-.936,1.541a1.136,1.136,0,0,0,.242,1.673,1.413,1.413,0,0,0,1.849-.2l1.145-1.5.066.055a.36.36,0,0,0,.5-.088m-.649-2.234a1.481,1.481,0,0,0-1.651.264l.308.154c.165-.473.815-.55,1.343-.418m7.044-17.919a1.187,1.187,0,0,1-.033.583,1.057,1.057,0,0,1-.352.506.938.938,0,0,1-.429.176.8.8,0,0,1-.275.8c-.209.11-.462-.011-.682-.242a.6.6,0,0,1-.33.616.614.614,0,0,1-.572-.209,1.6,1.6,0,0,1-.374-.506c.2-.033.374-.066.539-.11a1.918,1.918,0,0,0,.2.363c.132.187.132.143.055-.022-.055-.121-.1-.242-.154-.374a3.711,3.711,0,0,0,.848-.363,2.427,2.427,0,0,0,.231.352c.1.121.143.121.055-.044l-.2-.363a6.4,6.4,0,0,0,.583-.418c.2-.165.187-.165-.022-.033a6.9,6.9,0,0,1-.605.341,3.771,3.771,0,0,1-.143-.374c-.033-.143-.077-.176-.055.011a1.36,1.36,0,0,0,.1.418,5.317,5.317,0,0,1-.847.319,4.05,4.05,0,0,1-.11-.429c-.044-.2-.055-.121-.055.044a1.652,1.652,0,0,0,.055.407c-.176.044-.363.077-.561.11v-.011a.867.867,0,0,1,.011-.671.583.583,0,0,1,.418-.308.6.6,0,0,1,.583.242.765.765,0,0,1,.374-.561.462.462,0,0,1,.583.176,1.753,1.753,0,0,1,.341-.374,1.223,1.223,0,0,1,.517-.286c.165-.055.264.055.308.231m.528,23.092a1.058,1.058,0,0,0,.132-.539,1.007,1.007,0,0,0-.176-.572.935.935,0,0,0-.341-.3.8.8,0,0,0-.022-.826c-.154-.165-.418-.143-.682-.011a.6.6,0,0,0-.132-.66.559.559,0,0,0-.572,0,1.4,1.4,0,0,0-.484.341,4.688,4.688,0,0,1,.462.286,1.319,1.319,0,0,1,.286-.264c.165-.121.165-.088.044.044-.077.088-.165.187-.242.286a4.558,4.558,0,0,1,.671.616,1.5,1.5,0,0,1,.308-.231c.132-.077.176-.066.044.066-.088.088-.187.165-.275.264.143.176.275.374.407.572.132.22.121.209-.033.022s-.3-.352-.451-.506a3.509,3.509,0,0,0-.231.3c-.077.121-.121.132-.055-.022a.984.984,0,0,1,.209-.341,5.628,5.628,0,0,0-.682-.583,3.622,3.622,0,0,0-.22.341c-.088.165-.077.1-.033-.055a1.291,1.291,0,0,1,.165-.352c-.154-.1-.308-.2-.473-.286h-.011a.806.806,0,0,0-.176.627.6.6,0,0,0,.3.418.579.579,0,0,0,.594-.022.824.824,0,0,0,.187.638.458.458,0,0,0,.583.044,1.5,1.5,0,0,0,.209.451,1.352,1.352,0,0,0,.385.429c.1.033.22-.033.308-.176m-4.5-2.366a3.307,3.307,0,0,1,.55,1,8.4,8.4,0,0,0-.308-1.079Zm-1.376.539c.275.484.484,1.112.715,1.629a1.186,1.186,0,0,0,1.376.638,1.266,1.266,0,0,1-1.189-.682c-.209-.561-.4-1.123-.627-1.739Zm1.64-.649a4.712,4.712,0,0,1,.8,1.475,10.351,10.351,0,0,0-.451-1.574Zm1.068,1.519a1.019,1.019,0,0,1-.539,1.464,1.31,1.31,0,0,1-1.629-.616l-.7-1.717a6.48,6.48,0,0,1,2.234-.847Zm-.8-1.882.055-.011c.1-.2,0-.528-.264-.528a.532.532,0,0,1,.209.539m-.154.044.055-.011a.361.361,0,0,0-.264-.528.544.544,0,0,1,.209.539m-.165.044.055-.011c.1-.2,0-.528-.264-.528a.515.515,0,0,1,.209.539m-1.992.859h0a.574.574,0,0,1-.3-.583c-.231.187.033.583.3.583m-.649-.11h0a.38.38,0,0,1,.22-.473,11.922,11.922,0,0,1,1.266-.561,4.622,4.622,0,0,0-1.3.352,1.3,1.3,0,0,1,.715-1.431l.11-.055c.044-.022.077-.033.132-.055a1.567,1.567,0,0,1,1.959.726l.1-.022a.435.435,0,0,1,.517.22.344.344,0,0,1-.22.473l-.088.022.594,1.86a1.213,1.213,0,0,1-.693,1.684,1.539,1.539,0,0,1-1.893-.682l-.826-1.871-.077.033a.405.405,0,0,1-.517-.22m1.255-2.168a1.6,1.6,0,0,1,1.662.7l-.363.077c-.044-.55-.7-.781-1.3-.781m-8.156,3.863a.955.955,0,0,1-.121-.539,1.007,1.007,0,0,1,.176-.572.935.935,0,0,1,.341-.3.807.807,0,0,1,.022-.814c.154-.176.418-.154.682-.011a.492.492,0,0,1,.7-.66,1.408,1.408,0,0,1,.484.33c-.165.1-.319.187-.451.286a1.318,1.318,0,0,0-.286-.264c-.165-.121-.165-.088-.044.044.077.1.154.187.231.286a4.507,4.507,0,0,0-.671.616,1.3,1.3,0,0,0-.308-.242c-.121-.077-.176-.055-.044.055.088.088.187.176.275.264a4.932,4.932,0,0,0-.407.583c-.132.22-.121.209.033.022s.308-.363.451-.517a3.466,3.466,0,0,1,.231.3c.077.121.121.132.055-.022a1.418,1.418,0,0,0-.209-.352,4.706,4.706,0,0,1,.682-.572,3.606,3.606,0,0,1,.22.341c.088.165.077.1.033-.055a.946.946,0,0,0-.165-.352c.154-.1.308-.2.473-.286l.011.011a.839.839,0,0,1,.176.616.583.583,0,0,1-.892.4.825.825,0,0,1-.187.638.461.461,0,0,1-.583.044,1.5,1.5,0,0,1-.209.451,1.351,1.351,0,0,1-.385.429c-.11.044-.231-.011-.319-.154m4.689-9.3a1.053,1.053,0,0,0-.385.451,1.353,1.353,0,0,0-.11.649,1.143,1.143,0,0,0,.176.484.823.823,0,0,0-.363.8.639.639,0,0,1,.451,1.134.671.671,0,0,0,.55.341,1.53,1.53,0,0,0,.627-.044,5.542,5.542,0,0,1-.308-.539,1.489,1.489,0,0,1-.4.088c-.22.022-.2-.011-.022-.066l.363-.132a5.2,5.2,0,0,1-.341-.98,1.285,1.285,0,0,1-.407.044c-.154,0-.2-.044-.011-.088.121-.033.253-.055.385-.088-.055-.253-.088-.517-.121-.792-.022-.3-.011-.275.044,0s.121.517.187.759a2.008,2.008,0,0,0,.352-.154c.132-.066.176-.066.044.055a1.009,1.009,0,0,1-.363.209,8.233,8.233,0,0,0,.374.958c.121-.066.253-.132.374-.209.165-.1.121-.044.011.077a1.416,1.416,0,0,1-.33.242c.1.187.209.374.319.55h.011a.777.777,0,0,0,.462-.5.71.71,0,0,0-.077-.572.675.675,0,0,0-.583-.33.914.914,0,0,0,.121-.726.522.522,0,0,0-.539-.374,1.507,1.507,0,0,0,.011-.55,1.555,1.555,0,0,0-.165-.638c-.033-.143-.187-.154-.341-.066m4.337.363a1.307,1.307,0,0,1,.308.616,1.365,1.365,0,0,1-.044.759,1.239,1.239,0,0,1-.319.484.993.993,0,0,1,.209,1,.729.729,0,0,1-.826.264.748.748,0,0,1,.033.848.72.72,0,0,1-.693.209,1.8,1.8,0,0,1-.682-.231c.176-.176.33-.341.473-.506a1.677,1.677,0,0,0,.418.22c.242.1.22.044.044-.066a2.776,2.776,0,0,1-.363-.264,4.816,4.816,0,0,0,.627-.991,1.674,1.674,0,0,0,.44.176c.176.044.22.011.033-.088-.143-.066-.275-.143-.407-.22a7.553,7.553,0,0,0,.33-.848c.1-.319.088-.3-.055-.011s-.264.539-.4.781a2.252,2.252,0,0,1-.363-.275c-.121-.11-.187-.121-.055.055a1.782,1.782,0,0,0,.352.352,6.573,6.573,0,0,1-.66.947c-.121-.11-.242-.22-.363-.341-.154-.165-.121-.088-.033.077a2.023,2.023,0,0,0,.3.374c-.154.176-.319.341-.5.517l-.011-.011a1.037,1.037,0,0,1-.4-.693.8.8,0,0,1,.242-.616.745.745,0,0,1,.726-.187,1.067,1.067,0,0,1,.044-.848.563.563,0,0,1,.693-.253,2.432,2.432,0,0,1,.462-1.277c.11-.132.286-.1.429.044M346,168.18a1.015,1.015,0,0,0,.033.506.867.867,0,0,0,.3.429.663.663,0,0,0,.363.143.683.683,0,0,0,.242.693c.187.1.4-.011.583-.209a.52.52,0,0,0,.286.528.561.561,0,0,0,.5-.176,1.539,1.539,0,0,0,.33-.44c-.165-.033-.319-.055-.473-.1a2.206,2.206,0,0,1-.165.319c-.11.165-.121.121-.055-.022.044-.1.088-.209.132-.319a2.9,2.9,0,0,1-.726-.319,1.4,1.4,0,0,1-.2.3c-.088.11-.132.11-.055-.044.055-.1.11-.2.165-.308a5.2,5.2,0,0,1-.5-.363c-.176-.143-.165-.143.022-.033s.352.209.517.3a2.744,2.744,0,0,0,.121-.319c.033-.121.066-.154.055,0a1.351,1.351,0,0,1-.088.363,3.917,3.917,0,0,0,.726.275l.1-.363c.033-.165.044-.11.044.033a1.24,1.24,0,0,1-.055.352,3.419,3.419,0,0,0,.484.088v-.011a.75.75,0,0,0-.011-.583.484.484,0,0,0-.363-.264.556.556,0,0,0-.506.209.665.665,0,0,0-.33-.484.4.4,0,0,0-.506.143,1.314,1.314,0,0,0-.3-.319,1.137,1.137,0,0,0-.44-.253c-.11,0-.2.1-.231.253m2.873,1.563a1.11,1.11,0,0,1,.385-.5.982.982,0,0,1,.616-.2.851.851,0,0,1,.484.165c.187-.341.473-.572.726-.517s.407.352.462.715c.187-.275.462-.4.66-.3a.792.792,0,0,1,.385.605,2.045,2.045,0,0,1,.033.737,5.484,5.484,0,0,0-.55-.3,2.224,2.224,0,0,0,.044-.473c0-.253-.033-.231-.066-.022-.022.143-.055.286-.088.44a3.963,3.963,0,0,0-.98-.3,1.782,1.782,0,0,0,0-.484c-.022-.187-.055-.22-.077,0-.011.154-.033.308-.055.462a5.638,5.638,0,0,0-.77-.055c-.286,0-.264.011,0,.055s.506.088.737.143a3.57,3.57,0,0,1-.1.44c-.055.154-.044.209.055.044a1.643,1.643,0,0,0,.165-.44,5.07,5.07,0,0,1,.947.341,3.781,3.781,0,0,1-.154.462c-.077.209-.022.154.077,0a1.546,1.546,0,0,0,.2-.407c.187.1.374.2.561.319v.011a.909.909,0,0,1-.418.594.571.571,0,0,1-.561-.033.8.8,0,0,1-.374-.638.753.753,0,0,1-.671.22.6.6,0,0,1-.418-.583,1.488,1.488,0,0,1-.528.077,1.232,1.232,0,0,1-.627-.121.41.41,0,0,1-.1-.473m5.624,9.268.044.033.033.033.044.044.033.055.033.055.033.055.033.066.022.066.011.066.022.066.011.077v.231l-.011.066-.011.066-.022.066-.022.055-.022.055-.022.055-.022.044-.033.044-.033.044-.121.143.121.132.033.044.033.044.033.044.022.044.022.044.022.044.022.044.011.044.011.044v.187l-.011.033-.022.033-.022.033-.011.044-.022.033-.033.022-.033.022-.033.022-.033.022-.044.011-.044.011-.044.011-.044.011-.044.011-.055.011h-.374l.187.253.022.044.022.044.022.044.011.033.011.044.011.044.011.044v.132l-.011.033-.011.022-.011.022-.011.022-.044.055-.044.044-.044.033-.055.033-.066.022-.066.022-.077.011-.088.011h-.22l-.044-.011-.044-.011-.044-.011-.044-.011-.044-.011-.044-.011h-.011a4.472,4.472,0,0,0,.286-.4,1.979,1.979,0,0,0,.385.132c.22.044.2,0,.033-.066-.11-.055-.231-.11-.341-.165a4.688,4.688,0,0,0,.462-.947,1.705,1.705,0,0,0,.4.088c.154.011.2-.022.022-.077-.121-.044-.242-.077-.374-.132a7.075,7.075,0,0,0,.22-.77c.066-.286.044-.264-.044,0s-.187.506-.286.737a2.513,2.513,0,0,1-.341-.176c-.121-.077-.165-.077-.044.055a1.161,1.161,0,0,0,.33.242,8.922,8.922,0,0,1-.5.914c-.121-.077-.231-.154-.352-.242-.154-.121-.121-.055-.022.066a1.68,1.68,0,0,0,.286.275c-.1.143-.2.275-.308.407l-.033-.022-.077-.055-.066-.055-.055-.055-.044-.055-.033-.055-.033-.055-.022-.055-.011-.055v-.11l.011-.055.011-.055.022-.055.022-.055.033-.055.044-.055.044-.055.055-.044.055-.044.066-.033.066-.022.077-.022.077-.011h.286l-.11-.286-.022-.077-.022-.077v-.154l.011-.077.022-.066.022-.066.033-.055.033-.055.044-.044.055-.033.066-.033.066-.011.077-.011h.231l-.011-.209v-.165l.011-.066.011-.066.011-.066.011-.077.022-.077.022-.088.022-.077.022-.077.033-.077.033-.066.033-.055.022-.044.022-.022.022-.011.022-.011h.066l.033.011.033.022Zm-2.388-7.606a.841.841,0,0,1,.572-.132.986.986,0,0,1,.594.242,1.077,1.077,0,0,1,.3.44.725.725,0,0,1,.859.066.872.872,0,0,1-.011.87.542.542,0,0,1,.682.187.844.844,0,0,1-.022.726,2.017,2.017,0,0,1-.363.605c-.088-.209-.187-.407-.275-.594a2.234,2.234,0,0,0,.286-.341c.132-.209.1-.209-.044-.055a3.81,3.81,0,0,1-.308.286,4.87,4.87,0,0,0-.616-.87,1.725,1.725,0,0,0,.253-.374c.077-.154.066-.22-.066-.055-.088.11-.187.22-.286.341a6.9,6.9,0,0,0-.583-.539c-.22-.187-.22-.165-.022.044s.363.4.517.594a1.837,1.837,0,0,1-.308.275c-.132.088-.143.143.022.066a1.033,1.033,0,0,0,.363-.253,6.433,6.433,0,0,1,.572.892,3.767,3.767,0,0,1-.363.264c-.176.11-.1.1.055.044a1.109,1.109,0,0,0,.374-.2c.1.2.187.4.275.616l-.011.011a.711.711,0,0,1-.649.2.622.622,0,0,1-.418-.4.886.886,0,0,1,.044-.759.761.761,0,0,1-.66-.264.66.66,0,0,1-.022-.737,1.5,1.5,0,0,1-.462-.275,1.449,1.449,0,0,1-.44-.506.354.354,0,0,1,.165-.418m3.566,1.486a.841.841,0,0,1,.451.209,1.022,1.022,0,0,1,.3.473,1.116,1.116,0,0,1,.022.462.652.652,0,0,1,.55.484.668.668,0,0,1-.374.594.512.512,0,0,1,.385.484.644.644,0,0,1-.319.484,1.168,1.168,0,0,1-.506.22,3.328,3.328,0,0,0,.055-.55,1.378,1.378,0,0,0,.352-.088c.176-.066.154-.088,0-.066a3.266,3.266,0,0,1-.341.033,4.219,4.219,0,0,0-.055-.925,1.261,1.261,0,0,0,.341-.121c.121-.066.143-.11-.022-.077-.11.022-.22.055-.341.088a5.514,5.514,0,0,0-.176-.671c-.077-.242-.077-.22-.033.011s.077.462.1.682a1.163,1.163,0,0,1-.341.022c-.121,0-.165.022-.011.066a.967.967,0,0,0,.352.022,6.207,6.207,0,0,1,.011.9c-.121,0-.242,0-.363-.011-.165-.011-.11.011.022.055a1.248,1.248,0,0,0,.341.066,5.459,5.459,0,0,1-.077.572h-.011a.622.622,0,0,1-.528-.209.565.565,0,0,1-.121-.484.65.65,0,0,1,.352-.5.742.742,0,0,1-.341-.528.521.521,0,0,1,.3-.517,1.971,1.971,0,0,1-.2-.429,1.353,1.353,0,0,1-.077-.572.3.3,0,0,1,.308-.187m-.649,2.862a.564.564,0,0,0-.3.242.9.9,0,0,0-.143.418.82.82,0,0,0,.066.341.548.548,0,0,0-.33.484.474.474,0,0,0,.385.352.416.416,0,0,0-.2.44.506.506,0,0,0,.319.3,1.017,1.017,0,0,0,.418.055c-.055-.143-.1-.264-.143-.4a2.118,2.118,0,0,1-.264.011c-.154-.011-.132-.033-.011-.055a2.463,2.463,0,0,0,.253-.044,3.984,3.984,0,0,1-.121-.693.778.778,0,0,1-.275-.022c-.1-.022-.121-.055,0-.055a2.123,2.123,0,0,0,.264-.011,4.239,4.239,0,0,1,0-.528c.011-.2.022-.176.022,0s.022.352.044.517a1.169,1.169,0,0,0,.253-.055c.088-.033.121-.022.022.044a.938.938,0,0,1-.264.1,3.15,3.15,0,0,0,.154.671,2.474,2.474,0,0,0,.264-.088c.121-.044.088-.011,0,.055a1,1,0,0,1-.242.121c.044.132.1.264.154.4h0a.46.46,0,0,0,.352-.264.469.469,0,0,0,0-.385.452.452,0,0,0-.341-.286.569.569,0,0,0,.154-.462.362.362,0,0,0-.308-.319,1.126,1.126,0,0,0,.066-.363.944.944,0,0,0-.044-.44c-.011-.088-.1-.121-.209-.077m2.851-.264a1.49,1.49,0,0,1,.55.737,1.8,1.8,0,0,1-.209,1.761,1.337,1.337,0,0,1,.506,1.288.986.986,0,0,0-.8,1.706,1.035,1.035,0,0,1-.881.473,2.284,2.284,0,0,1-.969-.121c.2-.275.363-.55.517-.814a2.766,2.766,0,0,0,.605.187c.341.055.308,0,.044-.11-.187-.077-.363-.154-.55-.242a7.171,7.171,0,0,0,.616-1.5,2.436,2.436,0,0,0,.627.121c.242.011.308-.044.022-.132a6.151,6.151,0,0,1-.594-.187c.1-.385.176-.792.242-1.222.066-.451.044-.418-.066,0s-.231.792-.352,1.156a2.8,2.8,0,0,1-.55-.264c-.2-.121-.275-.11-.066.088a1.99,1.99,0,0,0,.55.363,9.591,9.591,0,0,1-.66,1.442,5.5,5.5,0,0,1-.572-.363c-.253-.176-.187-.077-.022.121a2.435,2.435,0,0,0,.5.407,9.794,9.794,0,0,1-.55.826l-.022-.011a1.3,1.3,0,0,1-.682-.814,1.111,1.111,0,0,1,.176-.881,1.025,1.025,0,0,1,.925-.451,1.393,1.393,0,0,1-.132-1.134.823.823,0,0,1,.87-.539,2.859,2.859,0,0,1,.022-.859,2.445,2.445,0,0,1,.308-.98.411.411,0,0,1,.605-.055M347.322,170.3a.606.606,0,0,0-.209-.264.623.623,0,0,0-.33-.11.424.424,0,0,0-.264.088c-.1-.187-.264-.319-.4-.275s-.22.187-.253.385c-.1-.143-.242-.22-.363-.165a.43.43,0,0,0-.209.33.957.957,0,0,0-.011.4,1.918,1.918,0,0,1,.3-.154.987.987,0,0,1-.022-.253c0-.143.022-.121.044-.011a1.763,1.763,0,0,0,.055.231,2.638,2.638,0,0,1,.528-.165,1.063,1.063,0,0,1,0-.264c.011-.1.033-.121.044,0,.011.077.011.165.022.253a2.6,2.6,0,0,1,.418-.022c.154,0,.143,0,0,.022s-.275.044-.407.077a1.754,1.754,0,0,0,.055.231c.033.088.022.121-.033.022a.907.907,0,0,1-.088-.242,2.621,2.621,0,0,0-.517.187,2.3,2.3,0,0,0,.088.253c.044.11.011.077-.033,0a.824.824,0,0,1-.11-.22,2.732,2.732,0,0,0-.308.165v.011a.463.463,0,0,0,.231.319.29.29,0,0,0,.3-.022.465.465,0,0,0,.209-.352.394.394,0,0,0,.374.121.355.355,0,0,0,.231-.319.745.745,0,0,0,.286.044.654.654,0,0,0,.341-.066c.055-.033.066-.121.033-.231m-3.566,8.5a1.065,1.065,0,0,0-.407.418,1.136,1.136,0,0,0,.011,1.134.8.8,0,0,0-.407.77.666.666,0,0,0,.627.462.642.642,0,0,0-.242.693.672.672,0,0,0,.528.374,1.436,1.436,0,0,0,.649,0,3.638,3.638,0,0,1-.3-.55,2.29,2.29,0,0,1-.4.066c-.22.011-.2-.022-.011-.066.121-.033.242-.066.363-.11a6,6,0,0,1-.286-1,1.687,1.687,0,0,1-.407.022c-.154-.011-.187-.055,0-.088q.182-.033.4-.066a6.063,6.063,0,0,1-.066-.792c-.011-.3,0-.275.044,0s.088.528.143.77a2.341,2.341,0,0,0,.363-.121c.132-.066.187-.044.033.055a1.326,1.326,0,0,1-.374.187,6.384,6.384,0,0,0,.319.98c.132-.055.253-.11.385-.176.176-.088.121-.033,0,.077a1.287,1.287,0,0,1-.341.22,2.609,2.609,0,0,0,.319.561.77.77,0,0,0,.473-.451.714.714,0,0,0-.605-.947.9.9,0,0,0,.165-.715.543.543,0,0,0-.506-.418,2.06,2.06,0,0,0,.044-.55,1.667,1.667,0,0,0-.121-.649.28.28,0,0,0-.4-.088m2.014-7.4a.841.841,0,0,0-.572-.132.986.986,0,0,0-.594.242,1.078,1.078,0,0,0-.3.44.725.725,0,0,0-.859.066.822.822,0,0,0,.011.87.547.547,0,0,0-.682.187.844.844,0,0,0,.022.726,2.017,2.017,0,0,0,.363.605c.088-.209.187-.407.286-.594a2.238,2.238,0,0,1-.286-.341c-.143-.209-.1-.209.044-.055a3.81,3.81,0,0,0,.308.286,4.87,4.87,0,0,1,.616-.87,1.722,1.722,0,0,1-.253-.374c-.088-.154-.077-.22.055-.055.088.11.187.22.286.341a6.9,6.9,0,0,1,.583-.539c.22-.187.22-.165.022.044s-.363.4-.517.594a1.914,1.914,0,0,0,.319.275c.121.088.143.143-.022.066a1.186,1.186,0,0,1-.374-.253,6.428,6.428,0,0,0-.572.892,2.283,2.283,0,0,0,.374.264c.165.11.1.1-.055.044a1.224,1.224,0,0,1-.374-.2c-.1.2-.187.4-.275.616l.011.011a.71.71,0,0,0,.649.2.66.66,0,0,0,.429-.4.886.886,0,0,0-.044-.759.749.749,0,0,0,.66-.264.66.66,0,0,0,.022-.737,1.5,1.5,0,0,0,.462-.275,1.57,1.57,0,0,0,.44-.506.4.4,0,0,0-.187-.418m-3.566,1.486a.807.807,0,0,0-.451.209.963.963,0,0,0-.308.936.552.552,0,0,0-.176,1.079.526.526,0,0,0-.385.484.644.644,0,0,0,.319.484,1.228,1.228,0,0,0,.506.22,5.333,5.333,0,0,1-.066-.55,1.3,1.3,0,0,1-.341-.088c-.187-.066-.154-.088,0-.066.11.011.22.033.33.033a5.056,5.056,0,0,1,.044-.925,1.407,1.407,0,0,1-.341-.121c-.121-.066-.143-.11.022-.077.11.022.22.055.341.088.044-.22.1-.44.165-.671s.077-.22.033.011-.077.462-.1.682a1.114,1.114,0,0,0,.33.022c.121,0,.165.022.011.066a1.012,1.012,0,0,1-.363.022,4.972,4.972,0,0,0-.011.9c.121,0,.242,0,.363-.011.165-.011.11.011-.022.055a1.248,1.248,0,0,1-.341.066,3.568,3.568,0,0,0,.077.572h.011a.622.622,0,0,0,.528-.209.6.6,0,0,0,.121-.484.65.65,0,0,0-.352-.5.7.7,0,0,0,.33-.528.521.521,0,0,0-.3-.517,1.56,1.56,0,0,0,.2-.429,1.354,1.354,0,0,0,.077-.572c.011-.121-.1-.187-.253-.187m1,2.829a.622.622,0,0,1,.3.242.8.8,0,0,1,.143.418.785.785,0,0,1-.066.341.548.548,0,0,1,.33.484.459.459,0,0,1-.385.352.416.416,0,0,1,.2.44.506.506,0,0,1-.319.3,1.043,1.043,0,0,1-.418.055c.055-.132.1-.264.143-.4a1.153,1.153,0,0,0,.275,0c.143-.011.132-.033.011-.044a2.032,2.032,0,0,1-.253-.044,3.16,3.16,0,0,0,.121-.693,1.161,1.161,0,0,0,.275-.022c.11-.022.121-.055,0-.055a2.124,2.124,0,0,1-.264-.011c0-.176,0-.352-.011-.528-.011-.2-.022-.176-.033,0s-.022.363-.044.517a1.169,1.169,0,0,1-.253-.055c-.088-.033-.121-.022-.022.044a.939.939,0,0,0,.264.1,4.6,4.6,0,0,1-.154.671,2.478,2.478,0,0,1-.264-.088c-.121-.044-.088-.011,0,.055a1,1,0,0,0,.242.121c-.044.132-.1.264-.154.4h-.011a.481.481,0,0,1-.352-.264.469.469,0,0,1,0-.385.489.489,0,0,1,.341-.3.569.569,0,0,1-.154-.462.374.374,0,0,1,.308-.319,1.533,1.533,0,0,1-.066-.363.941.941,0,0,1,.044-.44.189.189,0,0,1,.231-.066m-3.247-.363a1.665,1.665,0,0,0-.561.748,2.008,2.008,0,0,0-.121,1.046,1.8,1.8,0,0,0,.33.748,1.349,1.349,0,0,0-.517,1.3,1.023,1.023,0,0,0,1.057.583,1.045,1.045,0,0,0-.242,1.145,1.03,1.03,0,0,0,.891.473,2.335,2.335,0,0,0,.98-.121,9.036,9.036,0,0,1-.517-.826,2.861,2.861,0,0,1-.616.187c-.341.066-.319,0-.044-.11.187-.077.374-.154.561-.253a7.337,7.337,0,0,1-.616-1.519,2.612,2.612,0,0,1-.638.121c-.253.011-.308-.044-.022-.132.2-.055.4-.11.605-.187-.1-.4-.176-.8-.242-1.233-.066-.451-.044-.429.066,0s.231.8.363,1.167a3.222,3.222,0,0,0,.561-.264c.2-.121.275-.121.066.088a2.318,2.318,0,0,1-.55.374,11.156,11.156,0,0,0,.671,1.464c.187-.11.385-.231.572-.363.253-.176.187-.077.011.11a2.177,2.177,0,0,1-.5.418,7.8,7.8,0,0,0,.55.837h.011a1.306,1.306,0,0,0,.693-.826,1.136,1.136,0,0,0-.176-.892,1.047,1.047,0,0,0-.947-.462,1.4,1.4,0,0,0,.132-1.156.82.82,0,0,0-.881-.539,2.943,2.943,0,0,0-.022-.87,2.5,2.5,0,0,0-.308-.991c-.143-.209-.374-.209-.605-.066M338.9,182a1.724,1.724,0,0,0,.055,1.145,2.008,2.008,0,0,0,.792,1.013,2.289,2.289,0,0,0,1.013.374,1.433,1.433,0,0,0,.583,1.6,1.655,1.655,0,0,0,1.662-.407,1.148,1.148,0,0,0,.737,1.222,1.747,1.747,0,0,0,1.4-.352,3.489,3.489,0,0,0,.958-.969q-.693-.116-1.288-.264a4.186,4.186,0,0,1-.506.7c-.319.352-.341.275-.143-.055a7.379,7.379,0,0,0,.385-.715,10.106,10.106,0,0,1-2.014-.792,3.69,3.69,0,0,1-.583.66c-.253.22-.374.231-.132-.1.165-.22.33-.451.484-.693a14.031,14.031,0,0,1-1.354-.87c-.473-.341-.429-.33.066-.066s.969.506,1.431.715a4.473,4.473,0,0,0,.363-.726c.11-.275.2-.341.154.022a2.379,2.379,0,0,1-.275.814,14.682,14.682,0,0,0,2.025.693c.11-.264.22-.539.308-.826.121-.374.132-.231.121.088a2.49,2.49,0,0,1-.165.8c.429.1.881.187,1.343.253l.011-.022a1.421,1.421,0,0,0,.022-1.332,1.363,1.363,0,0,0-.98-.627,1.733,1.733,0,0,0-1.431.418,1.57,1.57,0,0,0-.87-1.134,1.316,1.316,0,0,0-1.431.286,3.416,3.416,0,0,0-.781-.748,3.091,3.091,0,0,0-1.2-.605.681.681,0,0,0-.759.5m3.379-14.584a1.074,1.074,0,0,0,.044.583,1.119,1.119,0,0,0,.341.506.938.938,0,0,0,.429.176.827.827,0,0,0,.275.8c.209.11.462-.011.682-.242,0,.308.132.561.33.605a.614.614,0,0,0,.572-.209,1.73,1.73,0,0,0,.374-.506c-.2-.033-.374-.077-.539-.121a1.168,1.168,0,0,1-.2.363c-.121.187-.132.143-.055-.033.055-.121.1-.242.154-.363a3.725,3.725,0,0,1-.847-.374,2.429,2.429,0,0,1-.231.352c-.1.121-.154.121-.055-.044a3.756,3.756,0,0,0,.187-.363,6.409,6.409,0,0,1-.583-.418c-.2-.165-.187-.165.033-.033a6.894,6.894,0,0,0,.605.341,2.162,2.162,0,0,0,.132-.374c.033-.143.077-.176.066,0a1.364,1.364,0,0,1-.1.418,5.315,5.315,0,0,0,.848.319,4.077,4.077,0,0,0,.11-.429c.044-.2.055-.121.055.044a1.656,1.656,0,0,1-.055.407c.187.044.363.077.561.11v-.011a.9.9,0,0,0-.011-.682.544.544,0,0,0-.418-.3.61.61,0,0,0-.583.231.787.787,0,0,0-.374-.561.479.479,0,0,0-.594.176,1.754,1.754,0,0,0-.341-.374,1.256,1.256,0,0,0-.506-.286c-.154,0-.253.11-.308.286m16.994,14.518a1.932,1.932,0,0,1-.055,1.189,2.186,2.186,0,0,1-.8,1.057,2.459,2.459,0,0,1-1.013.385,1.523,1.523,0,0,1-.594,1.651,1.641,1.641,0,0,1-1.673-.429,1.2,1.2,0,0,1-.748,1.266,1.664,1.664,0,0,1-1.387-.374,3.518,3.518,0,0,1-.958-1.013,12.778,12.778,0,0,0,1.3-.275,3.462,3.462,0,0,0,.506.726c.308.374.341.286.132-.055-.132-.242-.264-.484-.385-.737a9.278,9.278,0,0,0,2.014-.815,3.476,3.476,0,0,0,.583.682c.253.231.374.242.143-.1-.165-.231-.33-.473-.5-.715a12.589,12.589,0,0,0,1.354-.9c.473-.352.429-.352-.066-.066s-.969.528-1.431.737a4.646,4.646,0,0,1-.352-.748c-.11-.3-.2-.352-.154.022a2.615,2.615,0,0,0,.264.848,14.836,14.836,0,0,1-2.025.715q-.165-.413-.3-.858c-.11-.385-.132-.242-.121.088a2.5,2.5,0,0,0,.165.826c-.429.1-.88.187-1.343.253l-.011-.022a1.509,1.509,0,0,1-.022-1.376,1.375,1.375,0,0,1,.991-.649,1.694,1.694,0,0,1,1.431.44,1.638,1.638,0,0,1,.881-1.178,1.287,1.287,0,0,1,1.431.308,3.315,3.315,0,0,1,.793-.77,3.279,3.279,0,0,1,1.211-.627.68.68,0,0,1,.737.517m-13.252-17.82a.775.775,0,1,1,.715.792.75.75,0,0,1-.715-.792m-8.772-7.143c.231-.11.594.143.8.572s.209.87-.022.991-.594-.143-.815-.572-.2-.881.033-.991m1.7,1.046c.308-.044.693.308.847.792s.044.9-.264.958-.693-.308-.859-.792-.033-.914.275-.958m21.925-1.244c-.231-.11-.594.143-.8.572s-.209.87.022.991.594-.143.815-.572.2-.881-.033-.991m-1.7,1.046c-.308-.044-.693.308-.859.793s-.044.9.264.958.693-.308.859-.792.055-.914-.264-.958m-3.643.022a.944.944,0,0,0-.947.925.954.954,0,0,0,.715,1.123.944.944,0,0,0,.947-.925.965.965,0,0,0-.715-1.123m.033-.33h-.253l-.242.055-.209.11-.187.154-.154.187-.132.209-.088.242-.055.253-.011.264.033.253.066.242.11.22.143.187.187.154.22.11.242.066h.253l.242-.066.209-.11.187-.154.154-.187.132-.209.088-.231.055-.253.011-.264-.033-.253-.077-.242-.11-.22-.143-.187-.187-.154-.22-.11ZM349.16,155.9a1.637,1.637,0,1,0,1.277,1.618,1.478,1.478,0,0,0-1.277-1.618m0-.319-.176.011-.165.033-.165.055-.154.066-.143.077-.132.1-.121.11-.11.121-.1.132-.088.143-.077.154-.066.165-.055.165-.044.176-.022.187-.011.187v.187l.022.187.033.176.044.176.066.165.077.154.088.154.1.143.11.121.121.121.132.1.143.088.154.066.154.055.176.033.176.011.176-.011.165-.033.165-.055.154-.066.143-.077.132-.1.121-.11.11-.121.11-.143.088-.143.077-.154.066-.165.055-.176.044-.176.022-.187.011-.187v-.187l-.022-.187-.033-.176-.044-.176-.066-.165-.077-.154-.088-.154-.1-.143-.11-.132-.121-.11-.132-.1-.143-.088-.154-.066-.165-.055-.165-.033Zm-6.461,2.157a1.048,1.048,0,1,1-.7,1.112.927.927,0,0,1,.7-1.112m-.033-.286-.231.055-.209.11-.176.154-.143.187-.11.209-.066.231-.033.242.011.253.055.253.088.231.121.209.154.176.176.143.209.11.231.055h.242l.231-.055.209-.11.176-.154.143-.187.11-.209.066-.231.033-.242-.011-.253-.055-.253-.088-.231-.121-.209-.154-.176-.176-.143-.209-.11-.231-.055Zm9.1.484c-.308-.044-.693.308-.858.792s-.044.9.264.958.693-.308.859-.792.044-.914-.264-.958m-5.327.143c.308-.044.693.308.859.792s.044.914-.264.958-.693-.308-.859-.792-.044-.914.264-.958m2.664-4.105a.585.585,0,1,1-.7.572.664.664,0,0,1,.7-.572m-9.807,10.1a.437.437,0,0,1,.517-.418.583.583,0,0,1,.352.66.437.437,0,0,1-.517.418.6.6,0,0,1-.352-.66m1.431.011a.525.525,0,0,1,.594-.484.606.606,0,0,1,.44.693.525.525,0,0,1-.594.484.63.63,0,0,1-.44-.693m1.585.011a.591.591,0,0,1,.671-.539.653.653,0,0,1,.528.726.585.585,0,0,1-.671.539.659.659,0,0,1-.528-.726m1.75.011a.665.665,0,0,1,.748-.594.7.7,0,0,1,.616.759.68.68,0,0,1-.748.605.724.724,0,0,1-.616-.77m4.194.022a.825.825,0,0,1,.914-.715.808.808,0,0,1,.792.826.825.825,0,0,1-.914.715.794.794,0,0,1-.792-.826m10.665-.055a.437.437,0,0,0-.517-.418.6.6,0,0,0-.352.66.437.437,0,0,0,.517.418.6.6,0,0,0,.352-.66m-1.431.011a.525.525,0,0,0-.594-.484.607.607,0,0,0-.44.693.525.525,0,0,0,.594.484.641.641,0,0,0,.44-.693m-1.585.011a.6.6,0,0,0-.682-.539.653.653,0,0,0-.528.726.585.585,0,0,0,.671.539.659.659,0,0,0,.539-.726m-1.75.011a.676.676,0,0,0-.759-.594.707.707,0,0,0-.616.759.678.678,0,0,0,.759.605.724.724,0,0,0,.616-.77m-1.959.011a.759.759,0,0,0-.837-.66.747.747,0,0,0-.7.792.775.775,0,0,0,1.541-.132m-5.316-7.165a.414.414,0,0,1,.407.407.407.407,0,0,1-.815,0,.413.413,0,0,1,.407-.407m.418-.848a.324.324,0,0,1,.33.33.33.33,0,1,1-.33-.33m.517-.506a.209.209,0,1,1-.209.209.216.216,0,0,1,.209-.209m1.343,5.019a.517.517,0,0,1-.517-.517.526.526,0,0,1,.517-.528.523.523,0,0,1,0,1.046m-.506.759a.334.334,0,0,1-.33-.341.336.336,0,1,1,.671,0,.336.336,0,0,1-.341.341m-.517.506a.209.209,0,1,1,.209-.209.209.209,0,0,1-.209.209m-.528.418a.209.209,0,0,1-.209-.209.209.209,0,1,1,.418,0,.209.209,0,0,1-.209.209m-.583.33a.209.209,0,0,1,0-.418.216.216,0,0,1,.209.209.209.209,0,0,1-.209.209m-.561.088a.209.209,0,0,1,0-.418.209.209,0,1,1,0,.418m-.726-.033a.209.209,0,0,1,0-.418.2.2,0,0,1,.209.209.2.2,0,0,1-.209.209m-.8-.165a.209.209,0,0,1-.209-.209.209.209,0,0,1,.418,0,.2.2,0,0,1-.209.209m-.693-.308a.209.209,0,0,1,0-.418.209.209,0,0,1,.209.209.2.2,0,0,1-.209.209m-.539-.418a.341.341,0,0,1-.341-.33.336.336,0,1,1,.341.33m-.7-.627a.407.407,0,1,1,0-.814.406.406,0,0,1,.407.407.4.4,0,0,1-.407.407m-.528.792a.343.343,0,0,1-.341-.341.334.334,0,0,1,.341-.33.336.336,0,0,1,0,.671m-.7.308a.209.209,0,0,1-.209-.209.2.2,0,0,1,.209-.209.209.209,0,1,1,0,.418m-.616.176a.209.209,0,0,1-.209-.209.216.216,0,0,1,.209-.209.209.209,0,0,1,0,.418m-.781,0a.209.209,0,0,1,0-.418.209.209,0,1,1,0,.418m-.5-.341a.2.2,0,0,1-.209-.209.209.209,0,1,1,.209.209m-.572-.363a.33.33,0,1,1,.33-.33.331.331,0,0,1-.33.33m-.044.616a.2.2,0,0,1-.209-.209.209.209,0,0,1,.418,0,.209.209,0,0,1-.209.209m.132,1.057a.2.2,0,0,1-.209-.209.209.209,0,0,1,.418,0,.2.2,0,0,1-.209.209m.594-.253a.209.209,0,0,1,0-.418.2.2,0,0,1,.209.209.216.216,0,0,1-.209.209m.638.286a.209.209,0,0,1,0-.418.209.209,0,0,1,0,.418m.726-.033a.2.2,0,0,1-.209-.209.209.209,0,0,1,.209-.209.2.2,0,0,1,.209.209.209.209,0,0,1-.209.209m.583-.253a.217.217,0,0,1-.209-.209.209.209,0,0,1,.209-.209.2.2,0,0,1,.209.209.209.209,0,0,1-.209.209m.638.286a.209.209,0,0,1-.209-.209.209.209,0,1,1,.209.209m.561-.033a.2.2,0,0,1-.209-.209.209.209,0,1,1,.209.209m.583-.253a.209.209,0,1,1,.209-.209.209.209,0,0,1-.209.209m.638.286a.209.209,0,1,1,0-.418.209.209,0,0,1,.209.209.216.216,0,0,1-.209.209m.671-.033a.209.209,0,0,1-.209-.209.216.216,0,0,1,.209-.209.2.2,0,0,1,.209.209.209.209,0,0,1-.209.209m.583-.253a.209.209,0,0,1-.209-.209.2.2,0,0,1,.209-.209.209.209,0,0,1,0,.418m.638.286a.209.209,0,0,1-.209-.209.209.209,0,1,1,.418,0,.209.209,0,0,1-.209.209m.98-.033a.209.209,0,1,1,0-.418.2.2,0,0,1,.209.209.209.209,0,0,1-.209.209m.583-.253a.209.209,0,0,1-.209-.209.209.209,0,1,1,.209.209m.638.286a.209.209,0,0,1,0-.418.209.209,0,0,1,0,.418m-8.827,1.508a.209.209,0,1,0,.209.209.209.209,0,0,0-.209-.209m.583.242a.2.2,0,0,0-.209.209.209.209,0,1,0,.418,0,.209.209,0,0,0-.209-.209m.638-.275a.209.209,0,1,0,0,.418.216.216,0,0,0,.209-.209.209.209,0,0,0-.209-.209m.726.033a.209.209,0,1,0,.209.209.209.209,0,0,0-.209-.209m.583.242a.209.209,0,1,0,.209.209.2.2,0,0,0-.209-.209m.638-.275a.209.209,0,0,0,0,.418.209.209,0,0,0,.209-.209.2.2,0,0,0-.209-.209m.561.033a.2.2,0,0,0-.209.209.209.209,0,1,0,.209-.209m.583.242a.2.2,0,0,0-.209.209.209.209,0,0,0,.209.209.217.217,0,0,0,.209-.209.209.209,0,0,0-.209-.209m.638-.275a.209.209,0,0,0,0,.418.209.209,0,0,0,.209-.209.2.2,0,0,0-.209-.209m.671.033a.209.209,0,1,0,.209.209.2.2,0,0,0-.209-.209m.583.242a.2.2,0,0,0-.209.209.209.209,0,0,0,.209.209.217.217,0,0,0,.209-.209.2.2,0,0,0-.209-.209m.638-.275a.209.209,0,0,0,0,.418.209.209,0,0,0,.209-.209.2.2,0,0,0-.209-.209m.837.033a.209.209,0,0,0-.209.209.209.209,0,1,0,.209-.209m.583.242a.209.209,0,0,0-.209.209.216.216,0,0,0,.209.209.209.209,0,0,0,.209-.209.2.2,0,0,0-.209-.209m.649-.275a.209.209,0,0,0,0,.418.217.217,0,0,0,.209-.209.209.209,0,0,0-.209-.209m-13.813-10.8a.561.561,0,1,1-.561.561.564.564,0,0,1,.561-.561m1.1.242a.343.343,0,0,1,.341.341.336.336,0,1,1-.341-.341m.836.341a.33.33,0,1,1-.33.33.331.331,0,0,1,.33-.33m.737.5a.2.2,0,0,1,.209.209.209.209,0,1,1-.418,0,.216.216,0,0,1,.209-.209m.616.4a.209.209,0,0,1,0,.418.209.209,0,1,1,0-.418m.506.5a.209.209,0,1,1-.209.209.209.209,0,0,1,.209-.209m.33.451a.209.209,0,1,1-.209.209.209.209,0,0,1,.209-.209m0,.726a.209.209,0,0,1,.209.209.209.209,0,1,1-.418,0,.209.209,0,0,1,.209-.209m-1.893-1.728a.209.209,0,0,1,.209.209.209.209,0,1,1-.418,0,.209.209,0,0,1,.209-.209m.165.715a.209.209,0,1,1-.209.209.209.209,0,0,1,.209-.209m14.3.693a.407.407,0,1,0,0,.814.407.407,0,0,0,0-.814m-.418-.848a.33.33,0,0,0,0,.66.324.324,0,0,0,.33-.33.331.331,0,0,0-.33-.33m-.517-.506a.209.209,0,0,0-.209.209.217.217,0,0,0,.209.209.209.209,0,0,0,0-.418m-.837,5.778a.341.341,0,1,0-.33-.341.327.327,0,0,0,.33.341m.517.506a.209.209,0,0,0,.209-.209.209.209,0,1,0-.209.209m.528.418a.209.209,0,1,0,0-.418.209.209,0,0,0,0,.418m.583.33a.209.209,0,1,0,0-.418.209.209,0,0,0,0,.418m.561.088a.209.209,0,0,0,0-.418.216.216,0,0,0-.209.209.209.209,0,0,0,.209.209m.726-.033a.2.2,0,0,0,.209-.209.209.209,0,1,0-.418,0,.2.2,0,0,0,.209.209m.8-.165a.209.209,0,0,0,0-.418.217.217,0,0,0-.209.209.209.209,0,0,0,.209.209m.7-.308a.209.209,0,1,0-.209-.209.2.2,0,0,0,.209.209m.539-.418a.33.33,0,1,0-.33-.33.318.318,0,0,0,.33.33m.693-.627a.407.407,0,0,0,0-.814.407.407,0,0,0,0,.814m.528.792a.336.336,0,0,0,0-.671.336.336,0,0,0,0,.671m.715.308a.209.209,0,0,0,.209-.209.209.209,0,1,0-.209.209m.616.176a.217.217,0,0,0,.209-.209.209.209,0,0,0-.418,0,.2.2,0,0,0,.209.209m.77,0a.209.209,0,0,0,.209-.209.209.209,0,1,0-.209.209m.506-.341a.2.2,0,0,0,.209-.209.209.209,0,0,0-.209-.209.217.217,0,0,0-.209.209.2.2,0,0,0,.209.209m.572-.363a.33.33,0,0,0,0-.66.341.341,0,0,0-.341.33.334.334,0,0,0,.341.33m.044.616a.209.209,0,0,0,.209-.209.209.209,0,0,0-.418,0,.2.2,0,0,0,.209.209m-.143,1.057a.209.209,0,1,0,0-.418.209.209,0,0,0,0,.418m-.583-.253a.216.216,0,0,0,.209-.209.209.209,0,0,0-.209-.209.209.209,0,1,0,0,.418m-.649.286a.209.209,0,0,0,0-.418.209.209,0,1,0,0,.418m-.715-.033a.209.209,0,0,0,.209-.209.217.217,0,0,0-.209-.209.2.2,0,0,0-.209.209.2.2,0,0,0,.209.209m-.594-.253a.209.209,0,0,0,.209-.209.2.2,0,0,0-.209-.209.209.209,0,0,0,0,.418m-.638.286a.209.209,0,0,0,0-.418.209.209,0,0,0-.209.209.216.216,0,0,0,.209.209m-.55-.033a.209.209,0,0,0,.209-.209.217.217,0,0,0-.209-.209.209.209,0,1,0,0,.418m-.583-.253a.217.217,0,0,0,.209-.209.209.209,0,0,0-.209-.209.2.2,0,0,0-.209.209.2.2,0,0,0,.209.209m-.649.286a.209.209,0,1,0-.209-.209.216.216,0,0,0,.209.209m-.671-.033a.2.2,0,0,0,.209-.209.209.209,0,1,0-.209.209m-.583-.253a.217.217,0,0,0,.209-.209.209.209,0,0,0-.209-.209.2.2,0,0,0-.209.209.209.209,0,0,0,.209.209m-.638.286a.209.209,0,1,0-.209-.209.209.209,0,0,0,.209.209m-.98-.033a.2.2,0,0,0,.209-.209.216.216,0,0,0-.209-.209.209.209,0,0,0,0,.418m-.583-.253a.209.209,0,0,0,.209-.209.209.209,0,0,0-.418,0,.209.209,0,0,0,.209.209m-.638.286a.209.209,0,1,0-.209-.209.216.216,0,0,0,.209.209m8.838,1.508a.209.209,0,1,1,0,.418.209.209,0,1,1,0-.418m-.594.242a.209.209,0,0,1,.209.209.209.209,0,1,1-.418,0,.209.209,0,0,1,.209-.209m-.638-.275a.209.209,0,0,1,.209.209.209.209,0,0,1-.418,0,.209.209,0,0,1,.209-.209m-.726.033a.209.209,0,1,1,0,.418.2.2,0,0,1-.209-.209.209.209,0,0,1,.209-.209m-.583.242a.2.2,0,0,1,.209.209.209.209,0,1,1-.418,0,.209.209,0,0,1,.209-.209m-.638-.275a.209.209,0,1,1-.209.209.209.209,0,0,1,.209-.209m-.561.033a.209.209,0,1,1,0,.418.2.2,0,0,1-.209-.209.209.209,0,0,1,.209-.209m-.583.242a.209.209,0,0,1,.209.209.216.216,0,0,1-.209.209.209.209,0,0,1,0-.418m-.638-.275a.209.209,0,0,1,.209.209.209.209,0,0,1-.418,0,.209.209,0,0,1,.209-.209m-.671.033a.2.2,0,0,1,.209.209.209.209,0,1,1-.209-.209m-.583.242a.209.209,0,0,1,.209.209.217.217,0,0,1-.209.209.209.209,0,0,1-.209-.209.2.2,0,0,1,.209-.209m-.638-.275a.209.209,0,0,1,0,.418.216.216,0,0,1-.209-.209.2.2,0,0,1,.209-.209m-.837.033a.209.209,0,1,1,0,.418.209.209,0,0,1-.209-.209.2.2,0,0,1,.209-.209m-.583.242a.2.2,0,0,1,.209.209.209.209,0,0,1-.209.209.217.217,0,0,1-.209-.209.2.2,0,0,1,.209-.209m-.649-.275a.209.209,0,0,1,.209.209.209.209,0,0,1-.418,0,.209.209,0,0,1,.209-.209m13.813-10.8a.561.561,0,1,0,.561.561.557.557,0,0,0-.561-.561m-1.1.242a.33.33,0,1,0,.33.33.331.331,0,0,0-.33-.33m-.836.341a.341.341,0,0,0-.341.33.334.334,0,0,0,.341.33.33.33,0,0,0,0-.66m-.737.5a.209.209,0,0,0-.209.209.216.216,0,0,0,.209.209.209.209,0,0,0,.209-.209.217.217,0,0,0-.209-.209m-.616.4a.209.209,0,1,0,0,.418.209.209,0,0,0,0-.418m-.506.5a.217.217,0,0,0-.209.209.209.209,0,0,0,.209.209.209.209,0,1,0,0-.418m-.33.451a.209.209,0,0,0-.209.209.209.209,0,0,0,.418,0,.2.2,0,0,0-.209-.209m0,.726a.2.2,0,0,0-.209.209.209.209,0,1,0,.418,0,.2.2,0,0,0-.209-.209m1.893-1.728a.2.2,0,0,0-.209.209.209.209,0,1,0,.418,0,.2.2,0,0,0-.209-.209m-.165.715a.217.217,0,0,0-.209.209.2.2,0,0,0,.209.209.209.209,0,0,0,0-.418m-19.834,2.752a.2.2,0,0,1-.209-.209.209.209,0,0,1,.209-.209.2.2,0,0,1,.209.209.209.209,0,0,1-.209.209m.077-.671a.209.209,0,1,1,.209-.209.2.2,0,0,1-.209.209m.374-.638a.341.341,0,0,1-.341-.33.336.336,0,0,1,.671,0,.324.324,0,0,1-.33.33m.726-.539a.414.414,0,0,1-.407-.407.407.407,0,1,1,.815,0,.414.414,0,0,1-.407.407m.892.264a.33.33,0,0,1,0-.66.33.33,0,1,1,0,.66m.517.473a.209.209,0,0,1,0-.418.209.209,0,0,1,0,.418m.253.583a.209.209,0,1,1,0-.418.209.209,0,1,1,0,.418m.11.638a.209.209,0,0,1,0-.418.209.209,0,1,1,0,.418m-.055.726a.209.209,0,0,1,0-.418.209.209,0,1,1,0,.418m-.473.528a.209.209,0,1,1,.209-.209.209.209,0,0,1-.209.209m-2.311-.748a.209.209,0,0,1-.209-.209.209.209,0,1,1,.209.209m.308.561a.209.209,0,0,1-.209-.209.2.2,0,0,1,.209-.209.209.209,0,1,1,0,.418m.44.44a.209.209,0,1,1,0-.418.2.2,0,0,1,.209.209.209.209,0,0,1-.209.209m14.683-1.618a.209.209,0,0,0,.209-.209.216.216,0,0,0-.209-.209.2.2,0,0,0-.209.209.209.209,0,0,0,.209.209m-.077-.671a.216.216,0,0,0,.209-.209.209.209,0,0,0-.209-.209.209.209,0,0,0,0,.418m-.374-.638a.339.339,0,0,0,.33-.33.331.331,0,0,0-.33-.33.33.33,0,1,0,0,.66m-.726-.539a.407.407,0,1,0,0-.814.4.4,0,0,0-.4.407.39.39,0,0,0,.4.407m-.891.264a.33.33,0,0,0,0-.66.33.33,0,1,0,0,.66m-.517.473a.209.209,0,1,0-.209-.209.209.209,0,0,0,.209.209m-.253.583a.209.209,0,1,0,0-.418.217.217,0,0,0-.209.209.209.209,0,0,0,.209.209m-.11.638a.209.209,0,1,0,0-.418.209.209,0,0,0,0,.418m.055.726a.209.209,0,0,0,0-.418.2.2,0,0,0-.209.209.209.209,0,0,0,.209.209m.473.528a.209.209,0,0,0,0-.418.209.209,0,1,0,0,.418m2.311-.748a.217.217,0,0,0,.209-.209.209.209,0,0,0-.209-.209.209.209,0,0,0,0,.418m-.308.561a.209.209,0,0,0,.209-.209.2.2,0,0,0-.209-.209.209.209,0,0,0,0,.418m-.44.44a.209.209,0,1,0,0-.418.209.209,0,0,0,0,.418m-6.9,5.382h-.044L339.276,166c-.2-.308-.033-.792-.033-1.134-.583-.264-.264-.583-.319-1.178.2.022.253-.44.011-.44-.055-.154-.187-.407.033-.5.1-.2.1-.2-.077-.231-.374-.044-.341-1.387-.319-1.64.209-.286-.187-2.025-.991-2.091-1.409-1.794-.44-3.357-2.675-3.335-1.365.011-2.157-1.508-.605-1.739a5.337,5.337,0,0,1,2.388.7,7.44,7.44,0,0,1,2.554,2.091c.66,1.387,1.321,2.322,1.013,3.038-.022,0-.033-.011-.055-.011-.308.5-.737.726-1.178.275a1.752,1.752,0,0,0,.242.8c.264.033.407.528.528.748a.214.214,0,0,1,.088-.011,1.55,1.55,0,0,0,1.75.319c.022-.132.154-.176.253-.253,0-.033.011-.176.011-.209.154-.066.176-.154.176-.308-.352-.033-.55-.1-.528-.517-.066-.1-.088-.165-.2-.2a3.063,3.063,0,0,1-.352-2.465,1.313,1.313,0,0,1,.165-.1,1.993,1.993,0,0,1,1.321-1.552,2.268,2.268,0,0,1,1.684,1.233,1.946,1.946,0,0,1,.22.1,3.472,3.472,0,0,1,.3,2.531c.011.011-.132.154-.066.264.088.143.209.5-.11.616-.088.011-.286.11-.319.1,0,.209-.066.209-.022.3.022,0,.187.11.22.121.022.2.3.319.429.473.991.319,2.586.341,2.84-.925a1.01,1.01,0,0,0,.033-1.585c0,.627-.253.925-.9.925-1.178-.3-1.09-1.816-.881-2.763a5.626,5.626,0,0,1,.991-1.651c.044-.561.165-.517.693-.616.771-.583-.253-1.112.693-1.541a1.769,1.769,0,0,1,.8-.088,2.117,2.117,0,0,1,.8.088c.947.429-.077.969.693,1.541.528.1.649.055.693.616a5.487,5.487,0,0,1,.991,1.651c.22.936.308,2.454-.87,2.763-.66,0-.914-.286-.9-.925a1.01,1.01,0,0,0,.033,1.585c.253,1.266,1.849,1.244,2.851.925.132-.154.407-.275.429-.473.022-.011.2-.121.209-.121.055-.088-.011-.088-.011-.3-.033.011-.231-.088-.308-.1-.319-.121-.209-.473-.11-.616.066-.1-.077-.242-.066-.264a3.41,3.41,0,0,1,.3-2.531c.055-.033.165-.066.231-.1a2.288,2.288,0,0,1,1.684-1.233,2.009,2.009,0,0,1,1.321,1.552,1.309,1.309,0,0,1,.165.1,3.063,3.063,0,0,1-.352,2.465c-.11.033-.132.1-.209.2.022.418-.176.484-.528.517.011.154.022.242.176.308,0,.033.011.176.011.209.1.077.231.121.253.253a1.549,1.549,0,0,0,1.75-.319c.022,0,.055.011.077.011.121-.22.264-.715.528-.748a1.629,1.629,0,0,0,.242-.8c-.451.451-.88.22-1.189-.275a.475.475,0,0,1-.055.011c-.319-.7.352-1.64,1.013-3.038a7.567,7.567,0,0,1,2.554-2.091,5.251,5.251,0,0,1,2.4-.7c1.541.231.748,1.75-.605,1.739-2.223-.011-1.255,1.552-2.664,3.335-.8.066-1.211,1.805-1,2.091.011.253.055,1.6-.319,1.64-.176.033-.176.033-.077.231.22.088.088.341.044.5-.253,0-.2.462.011.44-.066.594.264.914-.33,1.178,0,.341.165.826-.033,1.134Zm-8.486-6.615-.011.1-.165.473-.121-.044-.154.165-.187.143-.22.11-.209.033.132.11.11.143.088.143.066.132.055.11h.033l.176.22.055.055.055.044.066.033.077.033.088.033.088.022.1.022.1.011h.2l.1-.011.1-.011.1-.022.055-.011.066-.077.066-.055.044-.033v-.121l-.11-.066-.121-.132-.077-.165-.033-.176v-.066l-.1-.033-.121-.187-.066-.121-.066-.132-.066-.143-.066-.154-.055-.165Zm16.928,0-.044.154-.055.165-.055.154-.066.143-.066.132-.066.121-.121.187-.1.033v.066l-.033.176-.077.165-.132.132-.11.066v.132l.044.033.066.055.066.077.055.011.1.022.1.011.1.011h.2l.1-.011.088-.022.088-.022.077-.033.077-.033.066-.033.055-.044.055-.055.165-.22h.033l.055-.11.066-.132.077-.143.11-.143.132-.11-.209-.033-.231-.11-.187-.143-.154-.176-.121.033-.165-.462Zm-5.437,2.256h.2l.2-.011.2-.022.2-.033.187-.044.1-.033.011-.011.077-.066.066-.055.055-.044.044-.033.022-.022.044-.176-.143-.088-.143-.154-.066-.176-.022-.165.022-.154.033-.132.044-.1-.033-.055-.011-.055-.044-.22-.033-.209-.022-.2-.022-.187v-.352l.011-.165.022-.165.033-.154.044-.154.044-.154.055-.154.055-.154.055-.154.066-.154.11-.275.143-.066.033-.011.033-.011.044-.022.022-.033.088-.132.088-.121.1-.121.1-.11.1-.11.11-.1.11-.088.121-.088.132-.077.132-.077.143-.066.143-.055.154-.044.154-.044.242-.044.231.077.154.066.143.077.143.088.121.1.11.11.11.11.1.121.088.121.077.121.066.132.066.132.055.132.055.143.055.143.011.022h.011l.022.011.022.011.121.077.1.3.044.2.033.209.011.209v.011l.022-.066.077-.2.088-.2.1-.209.11-.209.11-.22.11-.231.121-.231.121-.242.143-.286.165-.2.143-.165.143-.165.143-.154.143-.154.154-.143.154-.143.165-.132.165-.132.165-.132.176-.121.176-.121.187-.121.2-.121.2-.11.209-.11.088-.044.1-.055.121-.055.132-.055.143-.066.154-.066.165-.066.176-.066.176-.066.187-.055.187-.055.187-.044.187-.033.2-.022.187-.011.209.011.319.066.264.11.22.143.176.187.11.22.044.231-.022.231-.066.22-.11.2-.143.187-.176.165-.209.143-.231.121-.264.088-.275.055-.275.011-.363.022-.275.044-.2.066-.143.077-.11.1-.1.121-.077.154-.077.187-.077.231-.066.253-.088.286-.1.308-.132.319-.154.341-.209.352-.319.451-.231.055-.077.033-.077.055-.088.088-.077.11-.077.132-.077.154-.066.154-.055.165-.044.154-.033.154-.011.143-.011.11v.121l.044.088.011.121v.594l-.011.154-.011.154-.022.154-.022.154-.033.143-.044.143-.066.132-.088.132-.044.033.044.165v.143l-.022.121-.022.1-.022.077-.033.11h.044l-.011.484.011.165.022.165.011.187-.022.22-.1.22-.187.187-.033.022v.055l.022.154.022.165v.176l-.011.187-.044.2-.165.341-10.016.011h-.033l-10.016-.011-.165-.341-.044-.2-.011-.187.011-.176.022-.165.022-.154V165.1l-.033-.022-.187-.187-.1-.22-.022-.22.011-.187.022-.165.011-.165-.011-.2v-.385l-.022-.077-.033-.1-.022-.121v-.143l.044-.165-.044-.033-.088-.132-.055-.132-.044-.143-.033-.143-.022-.154-.022-.154-.011-.154-.011-.154v-.594l.011-.132.044-.088v-.121l-.011-.11-.011-.143-.033-.154-.044-.154-.055-.165-.066-.154-.077-.154-.077-.132-.088-.11-.077-.088-.077-.055-.066-.033-.231-.055-.319-.451-.209-.352-.165-.341-.121-.319-.1-.308-.088-.286-.077-.253-.077-.231-.1-.187-.077-.154-.088-.121-.11-.1-.143-.077-.2-.066-.275-.044-.363-.022-.275-.011-.275-.055-.253-.088-.231-.121-.209-.143-.176-.165-.143-.187-.11-.2-.066-.22-.011-.231.044-.231.11-.22.165-.187.22-.143.264-.11.319-.066.209-.011.187.011.2.022.187.033.187.044.187.055.187.055.176.066.165.066.165.066.154.066.143.066.132.055.121.055.11.055.088.044.209.11.2.11.2.121.187.121.176.121.176.121.165.132.165.132.165.132.154.143.154.143.143.154.143.154.143.165.143.165.165.2.143.286.121.242.121.231.121.231.11.22.11.209.1.209.088.2.077.2.022.066v-.011l.011-.209.033-.2.044-.209.1-.3.121-.077.011-.011.022-.011h.011v-.022l.055-.143.055-.143.055-.132.066-.132.066-.132.077-.121.088-.121.1-.121.1-.11.11-.11.121-.1.132-.088.143-.077.154-.066.231-.077.242.044.165.044.154.044.143.055.143.066.132.077.121.077.121.088.121.088.11.1.11.11.1.11.088.121.088.121.088.132.022.033h.011l.033.011.033.011.033.011.143.066.121.275.066.154.055.154.055.154.044.154.044.154.044.154.022.154.022.165.011.165v.352l-.011.187-.022.2-.033.209-.044.22-.011.055-.033.066.044.1.033.132.022.154-.022.165-.077.176-.132.154-.154.088.044.176.022.022.044.033.055.044.066.055.077.066.011.011.1.033.187.044.2.033.2.022.2.011h.2l.2-.011.187-.033.165-.044.154-.055.132-.077.121-.088.1-.1.088-.121.066-.143.077-.3.154-.132.055-.055.044-.055.033-.066.022-.066.022-.077v-.011l-.176.143-.231.1-.253.055-.308.022-.3-.1-.231-.121-.2-.154-.165-.176-.143-.209-.1-.209-.077-.22-.055-.22-.033-.231-.011-.231v-.231l.011-.231.022-.22.033-.209.033-.209.044-.209.055-.165.055-.132.055-.132.055-.121.055-.121.066-.11.066-.11.066-.11.066-.1.077-.1.066-.1.066-.1.066-.088.077-.1.066-.1.022-.022.011-.11.044-.187.088-.176.143-.143.165-.088.154-.044.165-.033.088-.011.033-.022.055-.066.022-.044.011-.044v-.121l-.011-.077-.022-.088-.011-.11-.011-.132.011-.143.044-.165.088-.154.132-.143.154-.121.22-.11.154-.044.121-.022.121-.022.11-.022.11-.011h.242l.077.011.077-.011h.242l.11.011.11.022.121.022.121.022.154.044.209.11.154.121.132.143.088.154.044.165.011.143-.011.132-.022.11-.011.088-.011.077v.066l.011.055.011.044.022.055.055.066.033.022.088.011.165.033.165.044.165.088.143.143.088.176.044.187.011.11.022.022.077.1.066.1.066.1.066.088.066.1.066.1.066.1.066.11.066.11.066.11.055.121.055.121.055.132.055.132.055.165.044.209.033.209.033.209.022.22.011.231v.231l-.022.231-.033.231-.055.22-.077.22-.1.209-.132.2-.165.176-.2.154-.231.121-.3.1-.319-.022-.242-.055-.231-.1-.176-.143v.011l.022.077.033.066.033.066.044.055.055.055.154.132.088.3.066.143.077.121.1.1.121.088.143.077.154.055.165.044.187.033Zm27.792,27.164c-.022-1.3-.044-2.6-.077-3.885-1.453-2.168-2.895-1.981-1.882-4.887,2.135-1.706,2.465-3.291,1.244-4.689-.991-1.09-2.763-2.2-3.346-3.313-.649-1.244,1.189-.726,2.4-1.717-.3-.176-.693-.055-.374-.253.572-.33,1.519-.737,1.662-1.024-.418-.011-.991.2-.925-.022.154-.5,1.035-.121,1.222-.308-1.046-1.255-3.324-1.684-5.382.044a6.155,6.155,0,0,0,.143-6.263,5.015,5.015,0,0,0-2.036-1.926,3.922,3.922,0,0,0-2.763-.264,5.736,5.736,0,0,0-1.607,1.255c-.176.165-.484.286-.671.473-.429.936-.572,1.321-.253,2.124.594.066,1.2.132,1.794.209-.649.275-1.948.649-2.6-.055a2.041,2.041,0,0,1-.055-1.629c-.4.187-.737.66-.914.638-.209-.033-.22-.693-.649-.693-.22,1.838-.308,2.454,1.09,3.038a3.045,3.045,0,0,0,1.772,0c.308.925,2.08.638,1.871,1.167a14.975,14.975,0,0,0-2.928.209c-1.277-.209-2.807-1.156-2.983-2.6a8.1,8.1,0,0,0-.484-2.554,1.927,1.927,0,0,0-1.255-.881,1.632,1.632,0,0,0-.892-.022c-.407.165-.407.319-.363.682a2.057,2.057,0,0,1-.154,1.354,1.217,1.217,0,0,0,.594,1.068c.2.154.506.451.231,1.332-.143.528.506,1.156.848,1.057l.308-.132a8.961,8.961,0,0,1,.066,2.113c.22.55.319.605.319.969-.66,1.42-.264,4.711.418,4.832.011-.484-.011-1.189.286-1.178.022,2.4.088,2.52-.022,2.851a4.1,4.1,0,0,1-1.1,1.035,5.826,5.826,0,0,0-2.08.33c-1.046.759-1.112,1-.9,2,.044.253.3.671.693.616a21.191,21.191,0,0,1,2.884-.154,10.153,10.153,0,0,0,2.972-2.961c.9-.363,1.6-.033,2.543-.4l.792.165a3.116,3.116,0,0,1,1.376,1.09c-1.431-.275-3.247,1.772-4.832,2.014.2.583.583.352.4.726a5.305,5.305,0,0,0-2.4,4.337.777.777,0,0,1,.87-.176,1.978,1.978,0,0,1-.154,2.465c-1.178.374-3.115-.209-3.126,2.014a.578.578,0,0,0,.55.429c1.134,0,2.168.11,3.28.022.319-.022.319.022.462-.231.825-1.519,1.882-2.4,3.522-2.278a3.587,3.587,0,0,1-.352-2.653c.616-1.211,1.079-1.6,2.763-1.442a3.112,3.112,0,0,1-.077,1.013c.848-.374,1.145,1.178.715,2.19a9.229,9.229,0,0,1,2.7.044c.5-.682.726-.859,1.376-.484a1.253,1.253,0,0,1,.143,1.189,5.885,5.885,0,0,1-2.157.088l-1.288,1.167c0,1.629.1,1.3,1.772,1.453l4.546-.077a.847.847,0,0,0,.462-.66m-1.068.143c.4-.077.4-.429.385-.925a29.556,29.556,0,0,0-.066-2.961,28.9,28.9,0,0,0-1.992-2.355,4.455,4.455,0,0,1,.275-2.895c1.178-.881,2.829-2.333,1.6-4.006-.682-.726-3.654-2.961-3.654-3.852-.242-1.684,1.453-1.354,1.9-1.585-.209-.077-.4-.2-.616-.275.4-.55,1.145-.209,1.409-.77a2.888,2.888,0,0,0-1.145-.5,4.914,4.914,0,0,0,1.805-.539c-2.477-.792-4.865,1.079-3.874,4.138.759,1.992,2.322,2.477,3.17,3.6a1.138,1.138,0,0,1-.88,1.849,6.619,6.619,0,0,1-3.038-1.7,9.488,9.488,0,0,1-2.322-3.522c-.165.286-2.344,1.024-3.148.583a1.27,1.27,0,0,0-.87-1.618c-.594.022-1.211.98-1.9,1.7-.286-.3-.242-1.783-.539-2.069-.814.044-1.156.55-1.277,1.376a24,24,0,0,0,.011,3.269c-.231.484-.462.726-1.585,1.629-.858.044-2.565-.022-2.443,1.332.044.253.308.583.539.594a1.122,1.122,0,0,1,.308-.87c.3.1.088.715.7.7a1.023,1.023,0,0,1,.605-.759c.154.2-.055.352.143.7a1.41,1.41,0,0,0,1.156-.33,9.158,9.158,0,0,0,2.245-2.664c.881-.242,2.146,0,2.972-.517a7.079,7.079,0,0,1,3.874,3.093,4.057,4.057,0,0,0-.374,3.324,2.332,2.332,0,0,1-.022,1.211c.231,0,.451.264.517.33a1.7,1.7,0,0,1,.363,1.728c1.431.033,1.706.341,2.686-.638,1.145-.055,1.64,1.761,1.288,2.6-1.145.033-2.322-.176-3.027.473-.407.374-.561,1.244.253,1.31.077-.209.121-.781.2-.98.132-.011.253-.033.385-.044a1.181,1.181,0,0,0,.638,1.068c.088-.209.121-.826.2-1.024.077-.022.143-.044.209-.066a2.5,2.5,0,0,1,.44.87c.936.022,1.079-.055,2.5-.022m-13.571.022c.5-.539,1.288-1.948,1.75-2.179a4.224,4.224,0,0,1,1.552-.3,3.237,3.237,0,0,1,1.618-4.128,3.812,3.812,0,0,1,1.453-.22c-.55-2.465.253-2.278.176-3.093-.055-.594-.22-.693-.715-.848-1.618-.5-3.39,1.772-4.392,1.728l.539.55c-.605.066-2.972,2.333-2.84,3.522.815-.264.869-.022,1.112.286a2.343,2.343,0,0,1,.033,1.9c-.308.748-.407,1.1-1.288,1.453a5.38,5.38,0,0,0-1.64.165c-.308.154-.572,1.123-.044,1.255a1.8,1.8,0,0,1,.308-.814c.132-.011.253-.033.374-.044-.1.3.275.936.473.814.044-.1.176-.627.209-.715l.4-.022c.165.594.385.638.925.682m11.942-11.722c1.233-.616-.418-1.915-1.156-2.421-2.851-2.454-2.058-4.039-1.871-5.371-.506,1.442-1.607,2.135-1.783,3.049a3.359,3.359,0,0,0,.793,1.794c.892,1.156,2.961,3.269,4.017,2.95m-5.349-5.569c1.9-2,4.425-6.406,2.113-9.135-1.222-1.849-2.906-2.388-4.788-1.5a2.279,2.279,0,0,0-1.288,2.509,4.17,4.17,0,0,0,1.882.363.978.978,0,0,1,0,1.662c-.748.253-.792.286-1.266.209v.209a7.683,7.683,0,0,1,2.2.44c.187.3-.033.572-.506.671-.781.165-2.245.044-3.632.319-.649.121-.9.484-1.431.826a4.7,4.7,0,0,0-2.014,2.1,3.251,3.251,0,0,0,.044,2.311c.627-1.332,1.079-1.7,1.9-1.838.385-1,1.651-1.871,3.489-2.19-2.1.836-3.06,1.9-2.994,2.157.473.539.462,1.992.528,1.7.077-.4.936-1.156,1.849-1.893a7.1,7.1,0,0,1,2.5-1.288,3.661,3.661,0,0,0,2.664-2.719,3.7,3.7,0,0,1-2.212,2.862c-1.508.429-2.752,1.6-2.565,1.86.286.374.991,1.211.87,1.475.859.407,1.86-.506,2.653-1.112m-8.409-2.741a10.485,10.485,0,0,1,2.168-1.475c-1.013-.462-2.521-1.651-2.509-2.587-.088-1.5.407-3.148-1.53-3.357a1.024,1.024,0,0,0-.572.2,1.21,1.21,0,0,1,.892.638c-.308.066-.539-.022-.892.3.22.341.55.308.826.737.033.715.066,1.442.1,2.168.011.682.539.517.947.308.143.638,0,2.961.572,3.071m7.518-3.159a2.067,2.067,0,0,1,.253-1.2c.121-.253,1.827-1.706,1.9,1.134.209-1.409-.605-3.148.176-2.465a2.419,2.419,0,0,0-1.332-1.464c.352.925.418,1.6-.275,2.058a1.209,1.209,0,0,1-1.068.055,2.029,2.029,0,0,1-.044,1.717,1.7,1.7,0,0,1,.385.165m-4.061-.363a8.866,8.866,0,0,1,2.3-.308c-1.486-.583-3.17.66-3.225-1.464-.165-.022-.407.407-.583.385-.121-.022-.242-.231-.363-.44a1.573,1.573,0,0,0,1.871,1.827m1.024-1.915a1.769,1.769,0,0,1,.98-.715,1.346,1.346,0,0,0-.936-.088,4.854,4.854,0,0,0-.044.8m2.036-1.178c.132-.165.275-.319.407-.462-.044-.088-.088-.165-.132-.253h-.98v.308a1.151,1.151,0,0,0,.7.407M318,188.817c.022-1.3.055-2.6.077-3.885,1.453-2.168,2.895-1.981,1.882-4.887-2.135-1.706-2.465-3.291-1.244-4.689.991-1.09,2.763-2.2,3.346-3.313.649-1.244-1.189-.726-2.4-1.717.3-.176.693-.055.374-.253-.572-.33-1.519-.737-1.662-1.024.418-.011.991.2.925-.022-.154-.5-1.035-.121-1.222-.308,1.046-1.255,3.324-1.684,5.371.044a6.155,6.155,0,0,1-.143-6.263,5.015,5.015,0,0,1,2.036-1.926,3.932,3.932,0,0,1,2.763-.264,5.53,5.53,0,0,1,1.6,1.255c.176.165.5.286.682.473.44.936.572,1.321.253,2.124-.605.066-1.2.132-1.794.209.649.275,1.948.649,2.6-.055a2.042,2.042,0,0,0,.055-1.629c.407.187.726.66.914.638.209-.033.22-.693.649-.693.22,1.838.3,2.454-1.09,3.038a3.04,3.04,0,0,1-1.772,0c-.308.925-2.069.638-1.871,1.167a14.825,14.825,0,0,1,2.917.209c1.277-.209,2.807-1.156,2.994-2.6a7.527,7.527,0,0,1,.484-2.554,1.927,1.927,0,0,1,1.255-.881,1.635,1.635,0,0,1,.892-.022c.4.165.4.319.363.682a2.057,2.057,0,0,0,.154,1.354,1.232,1.232,0,0,1-.583,1.068c-.2.154-.506.451-.231,1.332.132.528-.506,1.156-.859,1.057l-.308-.132a8.953,8.953,0,0,0-.066,2.113c-.22.55-.319.605-.319.969.671,1.42.264,4.711-.418,4.832-.011-.484.011-1.189-.3-1.178a13.964,13.964,0,0,0,.022,2.851,4.1,4.1,0,0,0,1.1,1.035,5.789,5.789,0,0,1,2.08.33c1.046.759,1.112,1,.9,2-.055.253-.3.671-.7.616a21.192,21.192,0,0,0-2.884-.154,10.322,10.322,0,0,1-2.983-2.961c-.892-.363-1.585-.033-2.531-.4l-.793.165a3.057,3.057,0,0,0-1.376,1.09c1.431-.275,3.247,1.772,4.832,2.014-.2.583-.583.352-.4.726a5.322,5.322,0,0,1,2.388,4.337.76.76,0,0,0-.859-.176,1.964,1.964,0,0,0,.154,2.465c1.178.374,3.115-.209,3.126,2.014a.576.576,0,0,1-.539.429c-1.134,0-2.168.11-3.28.022-.319-.022-.319.022-.462-.231-.825-1.519-1.882-2.4-3.522-2.278a3.587,3.587,0,0,0,.352-2.653c-.627-1.211-1.079-1.6-2.763-1.442a3.109,3.109,0,0,0,.077,1.013c-.848-.374-1.134,1.178-.715,2.19a9.223,9.223,0,0,0-2.7.044c-.5-.682-.726-.859-1.376-.484a1.253,1.253,0,0,0-.143,1.189,5.886,5.886,0,0,0,2.157.088l1.277,1.167c0,1.629-.1,1.3-1.761,1.453l-4.535-.077a.889.889,0,0,1-.451-.66m1.068.143c-.4-.077-.4-.429-.385-.925a29.556,29.556,0,0,1,.066-2.961,28.887,28.887,0,0,1,1.992-2.355,4.455,4.455,0,0,0-.275-2.895c-1.178-.881-2.829-2.333-1.6-4.006.682-.726,3.654-2.961,3.654-3.852.242-1.684-1.442-1.354-1.9-1.585.209-.077.4-.2.616-.275-.407-.55-1.156-.209-1.42-.77a2.887,2.887,0,0,1,1.145-.5,4.913,4.913,0,0,1-1.805-.539c2.477-.792,4.865,1.079,3.885,4.138-.759,1.992-2.322,2.477-3.17,3.6a1.138,1.138,0,0,0,.881,1.849,6.563,6.563,0,0,0,3.038-1.7,9.352,9.352,0,0,0,2.322-3.522c.165.286,2.344,1.024,3.148.583a1.267,1.267,0,0,1,.881-1.618c.583.022,1.211.98,1.9,1.7.286-.3.253-1.783.55-2.069.815.044,1.156.55,1.288,1.376a22,22,0,0,1-.022,3.269c.231.484.462.726,1.585,1.629.87.044,2.565-.022,2.443,1.332-.044.253-.308.583-.539.594a1.164,1.164,0,0,0-.308-.87c-.3.1-.088.715-.7.7a1.015,1.015,0,0,0-.616-.759c-.154.2.055.352-.143.7a1.411,1.411,0,0,1-1.156-.33,9.159,9.159,0,0,1-2.245-2.664c-.88-.242-2.146,0-2.972-.517a7.079,7.079,0,0,0-3.874,3.093,4.057,4.057,0,0,1,.374,3.324,2.332,2.332,0,0,0,.022,1.211c-.231,0-.451.264-.517.33a1.7,1.7,0,0,0-.363,1.728c-1.431.033-1.706.341-2.686-.638-1.156-.055-1.64,1.761-1.288,2.6,1.145.033,2.322-.176,3.027.473.407.374.561,1.244-.253,1.31-.077-.209-.11-.781-.2-.98-.132-.011-.253-.033-.385-.044a1.181,1.181,0,0,1-.638,1.068c-.088-.209-.121-.826-.2-1.024-.066-.022-.143-.044-.209-.066a2.5,2.5,0,0,0-.44.87c-.936.022-1.079-.055-2.51-.022m13.582.022c-.5-.539-1.288-1.948-1.761-2.179a4.211,4.211,0,0,0-1.541-.3,3.233,3.233,0,0,0-1.629-4.128,3.836,3.836,0,0,0-1.464-.22c.561-2.465-.242-2.278-.165-3.093.055-.594.22-.693.715-.848,1.618-.5,3.39,1.772,4.4,1.728l-.539.55c.605.066,2.972,2.333,2.84,3.522-.814-.264-.87-.022-1.112.286a2.387,2.387,0,0,0-.033,1.9c.308.748.418,1.1,1.3,1.453a5.423,5.423,0,0,1,1.64.165c.308.154.561,1.123.044,1.255a1.8,1.8,0,0,0-.308-.814c-.132-.011-.253-.033-.374-.044.1.3-.275.936-.473.814-.055-.1-.165-.627-.209-.715l-.4-.022c-.176.594-.407.638-.936.682M320.708,177.26c-1.233-.616.407-1.915,1.156-2.421,2.851-2.454,2.058-4.039,1.871-5.371.506,1.442,1.607,2.135,1.783,3.049a3.359,3.359,0,0,1-.793,1.794c-.9,1.156-2.961,3.269-4.017,2.95m5.338-5.569c-1.915-2-4.425-6.406-2.1-9.135,1.222-1.849,2.906-2.388,4.788-1.5a2.28,2.28,0,0,1,1.288,2.509,4.17,4.17,0,0,1-1.882.363.978.978,0,0,0,0,1.662c.748.253.792.286,1.266.209v.209a7.683,7.683,0,0,0-2.2.44c-.187.3.033.572.506.671.781.165,2.245.044,3.632.319.649.121.9.484,1.431.826a4.7,4.7,0,0,1,2.014,2.1,3.251,3.251,0,0,1-.044,2.311c-.627-1.332-1.079-1.7-1.893-1.838-.385-1-1.662-1.871-3.489-2.19,2.113.836,3.06,1.9,2.994,2.157-.473.539-.473,1.992-.528,1.7-.088-.4-.936-1.156-1.849-1.893a7.2,7.2,0,0,0-2.5-1.288,3.679,3.679,0,0,1-2.664-2.719,3.7,3.7,0,0,0,2.212,2.862c1.519.429,2.763,1.6,2.565,1.86-.286.374-.991,1.211-.87,1.475-.87.407-1.882-.506-2.675-1.112m8.409-2.741a10.485,10.485,0,0,0-2.168-1.475c1.013-.462,2.521-1.651,2.5-2.587.088-1.5-.407-3.148,1.53-3.357a1.091,1.091,0,0,1,.583.2,1.211,1.211,0,0,0-.892.638c.308.066.539-.022.881.3-.22.341-.55.308-.826.737-.044.715-.077,1.442-.11,2.168-.011.682-.539.517-.947.308-.11.638.033,2.961-.55,3.071m-7.506-3.159a2.067,2.067,0,0,0-.253-1.2c-.121-.253-1.827-1.706-1.9,1.134-.209-1.409.616-3.148-.165-2.465a2.419,2.419,0,0,1,1.332-1.464c-.363.925-.429,1.6.275,2.058a1.211,1.211,0,0,0,1.068.055,2.029,2.029,0,0,0,.044,1.717,1.583,1.583,0,0,0-.4.165m4.061-.363a8.866,8.866,0,0,0-2.3-.308c1.486-.583,3.181.66,3.225-1.464.165-.022.407.407.583.385.121-.022.242-.231.374-.44a1.592,1.592,0,0,1-1.882,1.827m-1.024-1.915a1.806,1.806,0,0,0-.98-.715,1.35,1.35,0,0,1,.935-.088,6.423,6.423,0,0,1,.044.8m-2.036-1.178c-.132-.165-.275-.319-.407-.462.044-.088.088-.165.132-.253h.98v.308a1.215,1.215,0,0,1-.7.407" transform="translate(-197.387 0)" fill-rule="evenodd"/>
    <path id="Path_106" data-name="Path 106" d="M201.368,470.507l-1.156-2.939h-4.854l-.682,1.75a3.7,3.7,0,0,0-.264,1.387,1.862,1.862,0,0,0,.44,1.211,1.62,1.62,0,0,0,1.222.55v.561h-4.755v-.561c1.057-.154,1.915-1.068,2.565-2.741l3.555-9.1a1.718,1.718,0,0,0-.583-.649,2.6,2.6,0,0,0-.9-.231v-.506l2.465-.837h.947l4.755,12.129a3.781,3.781,0,0,0,.826,1.387,2.777,2.777,0,0,0,1.255.55v.561h-6.12v-.561a4.513,4.513,0,0,0,1.189-.242.624.624,0,0,0,.4-.638,2.857,2.857,0,0,0-.3-1.079m-5.767-3.6h4.359l-2.19-5.536Zm6.7,3.225-3.676-9.3a2.944,2.944,0,0,0-.55-.991,1.032,1.032,0,0,0-.792-.286,2.861,2.861,0,0,0-.484.033,1.632,1.632,0,0,1,.748.539,4.092,4.092,0,0,1,.473.936l3.643,9.3a3.6,3.6,0,0,1,.341,1.288.718.718,0,0,1-.11.429,3.3,3.3,0,0,1-.451.385h.22a1.061,1.061,0,0,0,.748-.253.827.827,0,0,0,.264-.605,5.075,5.075,0,0,0-.374-1.475m-9.906,2.333h1.97a1.545,1.545,0,0,1-.649-1.266,2.508,2.508,0,0,1,.022-.341,5.968,5.968,0,0,1-.561.87,3.178,3.178,0,0,1-.781.737m-30.587-1.42,2.543-6.23h2.521v.319a1.622,1.622,0,0,0-.826.154.556.556,0,0,0-.275.418,9.181,9.181,0,0,0-.044,1.013v5.03a1.358,1.358,0,0,0,.1.583.554.554,0,0,0,.33.275,2.863,2.863,0,0,0,.715.11v.319H163.12v-.319a1.769,1.769,0,0,0,.8-.143.535.535,0,0,0,.3-.363,4.049,4.049,0,0,0,.044-.748V465.84l-2.895,7.187h-.341l-2.862-6.956v4.766a2.159,2.159,0,0,0,.308,1.255,1.567,1.567,0,0,0,1.013.605v.319h-2.939V472.7a1.35,1.35,0,0,0,.958-.484,1.852,1.852,0,0,0,.341-1.178v-5.4a1.577,1.577,0,0,0-.572-.4,1.74,1.74,0,0,0-.726-.11v-.319h2.664Zm3.027.638v-5.624a2.544,2.544,0,0,1,.11-.936.511.511,0,0,0-.341.132.608.608,0,0,0-.121.319c-.011.132-.022.341-.022.649v5.613a1.33,1.33,0,0,1-.088.572.941.941,0,0,1-.341.3h.209q.4,0,.5-.231a2.179,2.179,0,0,0,.1-.792m-7.154-6.549h-.209a1.341,1.341,0,0,1,.561.385,2.83,2.83,0,0,1,.418.77l2.7,6.417a.871.871,0,0,0,.132-.407,1.349,1.349,0,0,0-.132-.473l-2.322-5.624a2.707,2.707,0,0,0-.451-.815.94.94,0,0,0-.693-.253m-.451,7.573h1.222a.921.921,0,0,1-.341-.308,1.519,1.519,0,0,1-.2-.451,1.153,1.153,0,0,1-.253.418,1.507,1.507,0,0,1-.429.341m13.1-3.742v2.565a2.536,2.536,0,0,0,.066.66.56.56,0,0,0,.22.352,1,1,0,0,0,.462.143,8.323,8.323,0,0,0,.837.033,3.081,3.081,0,0,0,1.145-.2,3.3,3.3,0,0,0,.958-.572,8.949,8.949,0,0,0,.991-1.024h.473l-.726,2.113h-7.165v-.319a3.434,3.434,0,0,0,.792-.088.676.676,0,0,0,.385-.264,1,1,0,0,0,.11-.528v-5.756a1.16,1.16,0,0,0-.11-.594.542.542,0,0,0-.352-.253,4.615,4.615,0,0,0-.826-.1v-.319h6.879l.7,1.86h-.407a4.254,4.254,0,0,0-.825-.77,4.636,4.636,0,0,0-1.09-.561,3.744,3.744,0,0,0-1.277-.209,2.092,2.092,0,0,0-.792.11.636.636,0,0,0-.352.319,1.45,1.45,0,0,0-.088.539v2.543h1.167c1.024,0,1.541-.473,1.552-1.4h.407v3.093h-.352a1.734,1.734,0,0,0-.4-1.035,1.382,1.382,0,0,0-1.013-.319h-1.376Zm3.852,3.742.407-1.013a3.854,3.854,0,0,1-.627.561c-.187.121-.44.275-.792.462h1.013Zm-1.2-3.368V468.2a1.355,1.355,0,0,1-.826.572,1.846,1.846,0,0,1,.506.209,1.15,1.15,0,0,1,.319.363m.947-4.2h-1.057a3.648,3.648,0,0,1,.781.352c.22.132.462.3.715.484Zm-4.854.991v5.635a1.482,1.482,0,0,1-.1.627.852.852,0,0,1-.3.33.678.678,0,0,0,.627-.253,1.632,1.632,0,0,0,.143-.8v-5.646a.849.849,0,0,0-.176-.649.886.886,0,0,0-.594-.176.755.755,0,0,1,.308.308,1.725,1.725,0,0,1,.088.627m11.8,6.912h-4.623v-.319a3.432,3.432,0,0,0,.737-.088.569.569,0,0,0,.352-.275,1.358,1.358,0,0,0,.1-.583v-5.856a.6.6,0,0,0-.275-.583,2.444,2.444,0,0,0-.9-.2v-.319h4.81a4.639,4.639,0,0,1,1.728.308,3.884,3.884,0,0,1,2.234,2.2,4.36,4.36,0,0,1,.308,1.651,4.1,4.1,0,0,1-.319,1.607,3.672,3.672,0,0,1-.914,1.288,4.115,4.115,0,0,1-1.431.848,5.1,5.1,0,0,1-1.805.319m-2.862-1.233v-5.382a2.548,2.548,0,0,0-.132-.98c-.088-.187-.308-.286-.671-.286a.624.624,0,0,1,.33.319,1.58,1.58,0,0,1,.077.583v5.6a2.5,2.5,0,0,1-.044.561.668.668,0,0,1-.121.308.6.6,0,0,1-.242.176.781.781,0,0,0,.616-.209,1.006,1.006,0,0,0,.187-.693m.892-4.986v4.7a2.927,2.927,0,0,0,.066.737.532.532,0,0,0,.33.341,2.306,2.306,0,0,0,.848.11,4.454,4.454,0,0,0,1.134-.132,2.954,2.954,0,0,0,.958-.462,3.316,3.316,0,0,0,.837-.826,3.364,3.364,0,0,0,.44-1.013,5.561,5.561,0,0,0,.143-1.266,3.859,3.859,0,0,0-1.222-3.115,2.828,2.828,0,0,0-1.068-.583,4.772,4.772,0,0,0-1.387-.176,1.332,1.332,0,0,0-.77.165.607.607,0,0,0-.264.462,7.76,7.76,0,0,0-.044,1.057m2.719,5.889a2.688,2.688,0,0,0,1.343-.517,2.806,2.806,0,0,0,.936-1.244,4.86,4.86,0,0,0,.341-1.926,6.081,6.081,0,0,0-.165-1.464,3.848,3.848,0,0,0-.5-1.167,2.558,2.558,0,0,0-.781-.792,2.211,2.211,0,0,0-.561-.275c-.2-.066-.407-.11-.638-.165,1.486.583,2.234,1.882,2.234,3.9a4.836,4.836,0,0,1-.242,1.607,3.179,3.179,0,0,1-.737,1.211,3.348,3.348,0,0,1-1.233.836m4.7-7.892H190.2v.319a2.359,2.359,0,0,0-.847.143.551.551,0,0,0-.319.528c-.011.165-.022.3-.022.385s-.011.143-.011.121v5.371a1.538,1.538,0,0,0,.077.55.481.481,0,0,0,.209.286.86.86,0,0,0,.308.121,6.117,6.117,0,0,0,.616.066v.319h-3.885v-.319a2.316,2.316,0,0,0,.781-.11.512.512,0,0,0,.341-.33,2.287,2.287,0,0,0,.077-.715v-5.206a3.675,3.675,0,0,0-.044-.693.549.549,0,0,0-.165-.319.7.7,0,0,0-.33-.132,4.949,4.949,0,0,0-.671-.077v-.308Zm1.4,1.376v5.8a.726.726,0,0,1-.1.429,1.3,1.3,0,0,1-.363.275,1.6,1.6,0,0,0,.616-.132.5.5,0,0,0,.231-.5V465.9a.912.912,0,0,0-.165-.594.779.779,0,0,0-.649-.187.9.9,0,0,1,.44.881v.088a.457.457,0,0,0-.011.11m-63.541,5.4-.649-1.662h-2.752l-.385.991a2.148,2.148,0,0,0-.154.781,1.027,1.027,0,0,0,.253.682.941.941,0,0,0,.693.319v.319h-2.7v-.319q.892-.132,1.453-1.552l2.025-5.162a.983.983,0,0,0-.33-.363,1.347,1.347,0,0,0-.517-.132v-.286l1.4-.473h.539l2.7,6.879a2.094,2.094,0,0,0,.473.793,1.447,1.447,0,0,0,.7.308v.319h-3.456v-.319a2.488,2.488,0,0,0,.671-.143.354.354,0,0,0,.22-.363,1.783,1.783,0,0,0-.187-.616m-3.269-2.036h2.477l-1.244-3.137Zm3.8,1.827-2.08-5.272a1.6,1.6,0,0,0-.319-.561.616.616,0,0,0-.451-.165.989.989,0,0,0-.275.022.889.889,0,0,1,.418.308,2.334,2.334,0,0,1,.275.528l2.058,5.272a1.943,1.943,0,0,1,.187.726c0,.11-.011.2-.066.242a2.085,2.085,0,0,1-.253.22h.132a.629.629,0,0,0,.429-.143.458.458,0,0,0,.143-.341,2.2,2.2,0,0,0-.2-.836m-5.6,1.321h1.123a.871.871,0,0,1-.363-.715,1.011,1.011,0,0,1,.011-.2,2.571,2.571,0,0,1-.319.5,2.091,2.091,0,0,1-.451.418m12.493-7.892h2.686v.319a1.234,1.234,0,0,0-.859.517,5.774,5.774,0,0,0-.781,1.475l-2.41,6.065h-.319l-2.972-7.077a2.563,2.563,0,0,0-.429-.8,1.107,1.107,0,0,0-.682-.176v-.319h3.511v.319h-.1a.987.987,0,0,0-.594.143.437.437,0,0,0-.209.385c0-.011.011.055.044.2a1.388,1.388,0,0,0,.088.33l2.113,5.074,1.53-3.83a3.6,3.6,0,0,0,.33-1.3,1.028,1.028,0,0,0-.242-.737.879.879,0,0,0-.682-.264v-.319Zm1.739.319h-1.145a1.047,1.047,0,0,1,.506.924,2.062,2.062,0,0,1,.638-.924m-6.219.891,2.862,6.846a1.189,1.189,0,0,0,.165-.451,1.455,1.455,0,0,0-.165-.5l-2.443-5.845c-.11-.253-.2-.44-.275-.583a.77.77,0,0,0-.3-.3,1.364,1.364,0,0,0-.506-.121.707.707,0,0,1,.341.275,3.53,3.53,0,0,1,.319.671m10.632,2.939v2.565a2.537,2.537,0,0,0,.066.66.61.61,0,0,0,.22.352,1,1,0,0,0,.473.143,8.173,8.173,0,0,0,.837.033,3.081,3.081,0,0,0,1.145-.2,3.3,3.3,0,0,0,.958-.572,8.949,8.949,0,0,0,.991-1.024h.473l-.726,2.113H135.02v-.319a3.434,3.434,0,0,0,.792-.088.676.676,0,0,0,.385-.264,1,1,0,0,0,.11-.528v-5.756a1.16,1.16,0,0,0-.11-.594.542.542,0,0,0-.352-.253,4.615,4.615,0,0,0-.825-.1v-.319H141.9l.7,1.86h-.418a3.961,3.961,0,0,0-.826-.77,4.244,4.244,0,0,0-1.09-.561,3.744,3.744,0,0,0-1.277-.209,2.195,2.195,0,0,0-.8.11.636.636,0,0,0-.352.319,1.45,1.45,0,0,0-.088.539v2.543h1.178c1.024,0,1.541-.473,1.552-1.4h.407v3.093h-.363a1.606,1.606,0,0,0-.4-1.035,1.354,1.354,0,0,0-1-.319H137.75Zm3.841,3.742L142,471.7a3.855,3.855,0,0,1-.627.561q-.281.182-.792.462h1.013Zm-1.189-3.368V468.2a1.355,1.355,0,0,1-.826.572,1.846,1.846,0,0,1,.506.209,1.3,1.3,0,0,1,.319.363m.936-4.2h-1.057a3.325,3.325,0,0,1,.77.352c.22.132.462.3.715.484Zm-4.854.991v5.635a1.482,1.482,0,0,1-.1.627.851.851,0,0,1-.3.33.678.678,0,0,0,.627-.253,1.632,1.632,0,0,0,.143-.8v-5.646a.9.9,0,0,0-.165-.649.921.921,0,0,0-.605-.176.694.694,0,0,1,.308.308,1.725,1.725,0,0,1,.088.627m6.923-.991v-.319h4.05v.319h-.176a2.161,2.161,0,0,0-.693.088.543.543,0,0,0-.341.3,1.529,1.529,0,0,0-.1.616v5.7a.971.971,0,0,0,.121.517.664.664,0,0,0,.407.264,3.224,3.224,0,0,0,.837.088,4.111,4.111,0,0,0,.848-.077,3.467,3.467,0,0,0,.759-.264,3.289,3.289,0,0,0,.781-.55,5.991,5.991,0,0,0,.814-.892h.539l-.77,2.1h-7.055v-.319h.077a2.2,2.2,0,0,0,.77-.1.593.593,0,0,0,.341-.308,1.38,1.38,0,0,0,.088-.583V466.2a1.99,1.99,0,0,0-.077-.66.542.542,0,0,0-.352-.319,3.39,3.39,0,0,0-.87-.088m1.475.891v5.966a.816.816,0,0,1-.1.44.84.84,0,0,1-.308.275.484.484,0,0,1,.1.011.378.378,0,0,0,.1.011c.385,0,.583-.275.583-.848v-5.591a3.33,3.33,0,0,0-.088-.87c-.066-.187-.231-.286-.528-.286h-.176a.9.9,0,0,1,.33.308,1.355,1.355,0,0,1,.088.583m3.94,6.681h1.068l.506-1.145a4.456,4.456,0,0,1-.7.671,3.457,3.457,0,0,1-.87.473M96.915,458.521H109.98l.737,3.39h-.737a6.346,6.346,0,0,0-1.651-1.937,3.984,3.984,0,0,0-1.629-.738,13.3,13.3,0,0,0-1.992-.143v11.689a2.009,2.009,0,0,0,.22,1.035,1.121,1.121,0,0,0,.715.484,6.487,6.487,0,0,0,1.376.165v.561H99.81v-.561a5.962,5.962,0,0,0,1.376-.143,1.1,1.1,0,0,0,.715-.5,2.188,2.188,0,0,0,.242-1.178V459.093a8.311,8.311,0,0,0-1.937.22,4.543,4.543,0,0,0-1.376.572,4.4,4.4,0,0,0-.925.771c-.242.264-.605.693-1.079,1.266H96.2Zm12.647,2.212-.462-1.651h-1.937a4.275,4.275,0,0,1,1.31.638,8.2,8.2,0,0,1,1.09,1.013m-6.428,9.686v-10.1a2.082,2.082,0,0,0-.143-.892.572.572,0,0,0-.517-.33v11.689a2.9,2.9,0,0,1-.154,1.024,1.513,1.513,0,0,1-.583.671h.231a.932.932,0,0,0,.958-.473,4.51,4.51,0,0,0,.209-1.585m-4.3-11.326H97.169l-.407,1.75a7.066,7.066,0,0,1,.914-1.024,5.575,5.575,0,0,1,1.156-.726m14.7,13.945H109.5v-.319a3.563,3.563,0,0,0,.836-.088.565.565,0,0,0,.374-.286,1.505,1.505,0,0,0,.1-.638V466.27a2.161,2.161,0,0,0-.088-.693.511.511,0,0,0-.363-.319,3.029,3.029,0,0,0-.87-.11v-.319h4.6a3.632,3.632,0,0,1,1.519.3,2.3,2.3,0,0,1,.98.792,1.892,1.892,0,0,1,.176,1.816,1.838,1.838,0,0,1-.44.649,2.324,2.324,0,0,1-.693.5,3.333,3.333,0,0,1-.936.3c.264.264.594.649.991,1.134l.572.682c.033.033.066.077.11.132s.11.121.187.2c.187.22.341.407.473.561a4.245,4.245,0,0,0,.385.385,3.39,3.39,0,0,0,.363.286,1.315,1.315,0,0,0,.385.165v.319h-1.1a1.576,1.576,0,0,1-.7-.165,2.453,2.453,0,0,1-.638-.473,7.037,7.037,0,0,1-.693-.8l-.814-1.035c-.374-.5-.66-.826-.836-1.024a.764.764,0,0,0-.484-.286h-.649v2.476a1.389,1.389,0,0,0,.088.572.575.575,0,0,0,.407.3,3,3,0,0,0,.407.077,1.611,1.611,0,0,0,.374.022v.341ZM111,466.215v5.745a.761.761,0,0,1-.4.748c.506-.011.759-.209.759-.583v-5.878a3.443,3.443,0,0,0-.055-.682.509.509,0,0,0-.231-.341.946.946,0,0,0-.55-.1.682.682,0,0,1,.385.352,2.33,2.33,0,0,1,.088.737m1.255.1v2.631h.947a3.03,3.03,0,0,0,.936-.154,1.57,1.57,0,0,0,1.178-1.75,1.8,1.8,0,0,0-.737-1.6,1.621,1.621,0,0,0-.55-.242,3.359,3.359,0,0,0-.726-.055,1.488,1.488,0,0,0-.671.121.6.6,0,0,0-.308.363,2.611,2.611,0,0,0-.066.682m1.519,2.95H113.3a3.743,3.743,0,0,1,.484.473c.187.209.418.5.693.848s.561.715.848,1.09a5.478,5.478,0,0,0,.715.759,1.97,1.97,0,0,0,.583.341,2.131,2.131,0,0,0,.55.088,2.826,2.826,0,0,1-.693-.484,7.242,7.242,0,0,1-.715-.77c-.253-.308-.517-.638-.781-.991s-.55-.671-.837-.98a.944.944,0,0,0-.143-.187,1.528,1.528,0,0,0-.231-.187m.506-.352a1.861,1.861,0,0,0,1.2-.583,2.31,2.31,0,0,0,.044-2.587,1.578,1.578,0,0,0-1.068-.572,1.773,1.773,0,0,1,.781.715,2.364,2.364,0,0,1,.264,1.2,1.894,1.894,0,0,1-.308,1.189,1.82,1.82,0,0,1-.914.638" transform="translate(0 -271.608)" fill-rule="evenodd"/>
  </g>
</svg>
