<svg xmlns="http://www.w3.org/2000/svg" width="130" height="57.183" viewBox="0 0 130 57.183"><defs><style>.a{fill-rule:evenodd;}</style></defs><g transform="translate(-96.2 -153.2)"><path class="a" d="M352.692,192.653a3.562,3.562,0,0,0-.845.924c.221-.507.377-.637.6-1.067m1.561,1.067c-.416.442-.806,1.067-1.184,1.548a1.282,1.282,0,0,1-1.626.312,1.389,1.389,0,0,0,1.444-.416c.364-.546.715-1.093,1.132-1.678Zm-1.574-1.119a5.357,5.357,0,0,0-1.236,1.366,13.085,13.085,0,0,1,.885-1.561Zm-1.522,1.34a1.111,1.111,0,0,0,.2,1.691,1.4,1.4,0,0,0,1.886-.234l1.184-1.639a7.1,7.1,0,0,0-2.159-1.483Zm1.34-1.782-.052-.026c-.052-.234.143-.559.416-.494a.567.567,0,0,0-.364.52m.156.078-.065-.026c-.039-.234.143-.546.429-.494a.586.586,0,0,0-.364.52m.156.091-.052-.026c-.052-.234.143-.559.416-.494a.571.571,0,0,0-.364.52m1.912,1.418h0a.62.62,0,0,0,.468-.533c.182.26-.2.611-.468.533m.7.065h0a.417.417,0,0,0-.1-.559,12.166,12.166,0,0,0-1.2-.924,4.61,4.61,0,0,1,1.288.715,1.422,1.422,0,0,0-.377-1.7l-.1-.091c-.039-.026-.078-.065-.117-.091a1.712,1.712,0,0,0-2.263.26l-.091-.052a.49.49,0,0,0-.611.091.366.366,0,0,0,.1.559l.091.039-1.106,1.821a1.342,1.342,0,0,0,.286,1.977,1.669,1.669,0,0,0,2.185-.234l1.353-1.769.078.065a.425.425,0,0,0,.585-.1m-.767-2.641a1.751,1.751,0,0,0-1.951.312l.364.182c.2-.559.963-.65,1.587-.494m8.325-21.177a1.4,1.4,0,0,1-.039.689,1.248,1.248,0,0,1-.416.6,1.109,1.109,0,0,1-.507.208.94.94,0,0,1-.325.95c-.247.13-.546-.013-.806-.286a.71.71,0,0,1-.39.728.726.726,0,0,1-.676-.247,1.888,1.888,0,0,1-.442-.6c.234-.039.442-.078.637-.13a2.265,2.265,0,0,0,.234.429c.156.221.156.169.065-.026-.065-.143-.117-.286-.182-.442a4.386,4.386,0,0,0,1-.429,2.866,2.866,0,0,0,.273.416c.117.143.169.143.065-.052l-.234-.429a7.563,7.563,0,0,0,.689-.494c.234-.2.221-.2-.026-.039a8.147,8.147,0,0,1-.715.4,4.47,4.47,0,0,1-.169-.442c-.039-.169-.091-.208-.065.013a1.61,1.61,0,0,0,.117.494,6.283,6.283,0,0,1-1,.377,4.783,4.783,0,0,1-.13-.507c-.052-.234-.065-.143-.065.052a1.954,1.954,0,0,0,.065.481c-.208.052-.429.091-.663.13v-.013a1.025,1.025,0,0,1,.013-.793.689.689,0,0,1,.494-.364.7.7,0,0,1,.689.286.9.9,0,0,1,.442-.663.546.546,0,0,1,.689.208,2.073,2.073,0,0,1,.4-.442,1.445,1.445,0,0,1,.611-.338c.2-.065.312.065.364.273m.624,27.29a1.25,1.25,0,0,0,.156-.637,1.19,1.19,0,0,0-.208-.676,1.1,1.1,0,0,0-.4-.351.948.948,0,0,0-.026-.976c-.182-.2-.494-.169-.807-.013a.713.713,0,0,0-.156-.78.661.661,0,0,0-.676,0,1.649,1.649,0,0,0-.572.4,5.552,5.552,0,0,1,.546.338,1.558,1.558,0,0,1,.338-.312c.2-.143.2-.1.052.052-.091.1-.2.221-.286.338a5.388,5.388,0,0,1,.793.728,1.777,1.777,0,0,1,.364-.273c.156-.091.208-.078.052.078-.1.1-.221.2-.325.312.169.208.325.442.481.676.156.26.143.247-.039.026s-.351-.416-.533-.6a4.136,4.136,0,0,0-.273.351c-.091.143-.143.156-.065-.026a1.163,1.163,0,0,1,.247-.4,6.654,6.654,0,0,0-.806-.689,4.271,4.271,0,0,0-.26.4c-.1.2-.091.117-.039-.065a1.526,1.526,0,0,1,.2-.416c-.182-.117-.364-.234-.559-.338h-.013a.952.952,0,0,0-.208.741.714.714,0,0,0,.351.494.684.684,0,0,0,.7-.026.974.974,0,0,0,.221.754.541.541,0,0,0,.689.052,1.769,1.769,0,0,0,.247.533,1.6,1.6,0,0,0,.455.507c.117.039.26-.039.364-.208m-5.32-2.8a3.908,3.908,0,0,1,.65,1.184,9.933,9.933,0,0,0-.364-1.275Zm-1.626.637c.325.572.572,1.314.845,1.925a1.4,1.4,0,0,0,1.626.754,1.5,1.5,0,0,1-1.4-.806c-.247-.663-.468-1.327-.741-2.055Zm1.938-.767a5.567,5.567,0,0,1,.95,1.743,12.233,12.233,0,0,0-.533-1.86Zm1.262,1.8a1.2,1.2,0,0,1-.637,1.73,1.549,1.549,0,0,1-1.925-.728l-.832-2.029a7.658,7.658,0,0,1,2.641-1Zm-.95-2.224.065-.013c.117-.234,0-.624-.312-.624a.629.629,0,0,1,.247.637m-.182.052.065-.013a.427.427,0,0,0-.312-.624.643.643,0,0,1,.247.637m-.2.052.065-.013c.117-.234,0-.624-.312-.624a.609.609,0,0,1,.247.637m-2.354,1.015h0a.678.678,0,0,1-.351-.689c-.273.221.039.689.351.689m-.767-.13h0a.449.449,0,0,1,.26-.559,14.086,14.086,0,0,1,1.5-.663,5.463,5.463,0,0,0-1.535.416,1.535,1.535,0,0,1,.846-1.691l.13-.065c.052-.026.091-.039.156-.065a1.853,1.853,0,0,1,2.315.859l.117-.026a.514.514,0,0,1,.611.26.406.406,0,0,1-.26.559l-.1.026.7,2.2a1.433,1.433,0,0,1-.82,1.99,1.819,1.819,0,0,1-2.237-.806l-.976-2.211-.091.039a.479.479,0,0,1-.611-.26m1.483-2.563a1.9,1.9,0,0,1,1.964.832l-.429.091c-.052-.65-.832-.924-1.535-.924m-9.639,4.566a1.129,1.129,0,0,1-.143-.637,1.19,1.19,0,0,1,.208-.676,1.105,1.105,0,0,1,.4-.351.954.954,0,0,1,.026-.963c.182-.208.494-.182.806-.013a.582.582,0,0,1,.833-.78,1.663,1.663,0,0,1,.572.39c-.2.117-.377.221-.533.338a1.557,1.557,0,0,0-.338-.312c-.2-.143-.2-.1-.052.052.091.117.182.221.273.338a5.328,5.328,0,0,0-.793.728,1.539,1.539,0,0,0-.364-.286c-.143-.091-.208-.065-.052.065.1.1.221.208.325.312a5.824,5.824,0,0,0-.481.689c-.156.26-.143.247.039.026s.364-.429.533-.611a4.112,4.112,0,0,1,.273.351c.091.143.143.156.065-.026a1.676,1.676,0,0,0-.247-.416,5.564,5.564,0,0,1,.806-.676,4.26,4.26,0,0,1,.26.4c.1.2.091.117.039-.065a1.118,1.118,0,0,0-.2-.416c.182-.117.364-.234.559-.338l.013.013a.991.991,0,0,1,.208.728.69.69,0,0,1-1.054.468.975.975,0,0,1-.221.754.545.545,0,0,1-.689.052,1.77,1.77,0,0,1-.247.533,1.6,1.6,0,0,1-.455.507c-.13.052-.273-.013-.377-.182m5.541-10.992a1.245,1.245,0,0,0-.455.533,1.6,1.6,0,0,0-.13.767,1.35,1.35,0,0,0,.208.572.972.972,0,0,0-.429.95.755.755,0,0,1,.533,1.34.793.793,0,0,0,.65.4,1.808,1.808,0,0,0,.741-.052,6.54,6.54,0,0,1-.364-.637,1.761,1.761,0,0,1-.468.1c-.26.026-.234-.013-.026-.078l.429-.156a6.141,6.141,0,0,1-.4-1.158,1.52,1.52,0,0,1-.481.052c-.182,0-.234-.052-.013-.1.143-.039.3-.065.455-.1-.065-.3-.1-.611-.143-.937-.026-.351-.013-.325.052,0s.143.611.221.9a2.376,2.376,0,0,0,.416-.182c.156-.078.208-.078.052.065a1.193,1.193,0,0,1-.429.247,9.724,9.724,0,0,0,.442,1.132c.143-.078.3-.156.442-.247.2-.117.143-.052.013.091a1.673,1.673,0,0,1-.39.286c.117.221.247.442.377.65h.013a.919.919,0,0,0,.546-.585.838.838,0,0,0-.091-.676.8.8,0,0,0-.689-.39,1.08,1.08,0,0,0,.143-.859.617.617,0,0,0-.637-.442,1.782,1.782,0,0,0,.013-.65,1.838,1.838,0,0,0-.2-.754c-.039-.169-.221-.182-.4-.078m5.125.429a1.543,1.543,0,0,1,.364.728,1.613,1.613,0,0,1-.052.9,1.464,1.464,0,0,1-.377.572,1.174,1.174,0,0,1,.247,1.184.862.862,0,0,1-.976.312.884.884,0,0,1,.039,1,.851.851,0,0,1-.82.247,2.121,2.121,0,0,1-.806-.273c.208-.208.39-.4.559-.6a1.982,1.982,0,0,0,.494.26c.286.117.26.052.052-.078a3.279,3.279,0,0,1-.429-.312,5.691,5.691,0,0,0,.741-1.171,1.978,1.978,0,0,0,.52.208c.208.052.26.013.039-.1-.169-.078-.325-.169-.481-.26a8.922,8.922,0,0,0,.39-1c.117-.377.1-.351-.065-.013s-.312.637-.468.924a2.658,2.658,0,0,1-.429-.325c-.143-.13-.221-.143-.065.065a2.105,2.105,0,0,0,.416.416,7.772,7.772,0,0,1-.78,1.119c-.143-.13-.286-.26-.429-.4-.182-.2-.143-.1-.039.091a2.39,2.39,0,0,0,.351.442c-.182.208-.377.4-.585.611l-.013-.013a1.226,1.226,0,0,1-.468-.82.949.949,0,0,1,.286-.728.881.881,0,0,1,.859-.221,1.261,1.261,0,0,1,.052-1,.666.666,0,0,1,.819-.3,2.874,2.874,0,0,1,.546-1.509c.13-.156.338-.117.507.052m-6.582-15.31a1.2,1.2,0,0,0,.039.6,1.025,1.025,0,0,0,.351.507.783.783,0,0,0,.429.169.808.808,0,0,0,.286.819c.221.117.468-.013.689-.247a.615.615,0,0,0,.338.624.663.663,0,0,0,.585-.208,1.818,1.818,0,0,0,.39-.52c-.2-.039-.377-.065-.559-.117a2.6,2.6,0,0,1-.2.377c-.13.2-.143.143-.065-.026.052-.117.1-.247.156-.377a3.433,3.433,0,0,1-.859-.377,1.654,1.654,0,0,1-.234.351c-.1.13-.156.13-.065-.052.065-.117.13-.234.2-.364a6.138,6.138,0,0,1-.585-.429c-.208-.169-.2-.169.026-.039s.416.247.611.351a3.234,3.234,0,0,0,.143-.377c.039-.143.078-.182.065,0a1.6,1.6,0,0,1-.1.429,4.627,4.627,0,0,0,.859.325l.117-.429c.039-.2.052-.13.052.039a1.466,1.466,0,0,1-.065.416,4.039,4.039,0,0,0,.572.1v-.013a.886.886,0,0,0-.013-.689.572.572,0,0,0-.429-.312.657.657,0,0,0-.6.247.787.787,0,0,0-.39-.572.475.475,0,0,0-.6.169,1.552,1.552,0,0,0-.351-.377,1.343,1.343,0,0,0-.52-.3c-.13,0-.234.117-.273.3m3.4,1.847a1.311,1.311,0,0,1,.455-.585,1.16,1.16,0,0,1,.728-.234,1.007,1.007,0,0,1,.572.2c.221-.4.559-.676.858-.611s.481.416.546.846c.221-.325.546-.468.78-.351a.936.936,0,0,1,.455.715,2.417,2.417,0,0,1,.039.872,6.472,6.472,0,0,0-.65-.351,2.63,2.63,0,0,0,.052-.559c0-.3-.039-.273-.078-.026-.026.169-.065.338-.1.52a4.684,4.684,0,0,0-1.158-.351,2.106,2.106,0,0,0,0-.572c-.026-.221-.065-.26-.091,0-.013.182-.039.364-.065.546a6.661,6.661,0,0,0-.911-.065c-.338,0-.312.013,0,.065s.6.1.872.169a4.219,4.219,0,0,1-.117.52c-.065.182-.052.247.065.052a1.942,1.942,0,0,0,.2-.52,5.99,5.99,0,0,1,1.119.4,4.472,4.472,0,0,1-.182.546c-.091.247-.026.182.091,0a1.828,1.828,0,0,0,.234-.481c.221.117.442.234.663.377v.013a1.074,1.074,0,0,1-.494.7.675.675,0,0,1-.663-.039.945.945,0,0,1-.442-.754.89.89,0,0,1-.793.26.706.706,0,0,1-.494-.689,1.758,1.758,0,0,1-.624.091,1.456,1.456,0,0,1-.741-.143.485.485,0,0,1-.117-.559m6.647,10.953.052.039.039.039.052.052.039.065.039.065.039.065.039.078.026.078.013.078.026.078.013.091v.273l-.013.078-.013.078-.026.078-.026.065-.026.065-.026.065-.026.052-.039.052-.039.052-.143.169.143.156.039.052.039.052.039.052.026.052.026.052.026.052.026.052.013.052.013.052v.221l-.013.039-.026.039-.026.039-.013.052-.026.039-.039.026-.039.026-.039.026-.039.026-.052.013-.052.013-.052.013-.052.013-.052.013-.065.013H360.5l.221.3.026.052.026.052.026.052.013.039.013.052.013.052.013.052v.156l-.013.039-.013.026-.013.026-.013.026-.052.065-.052.052-.052.039-.065.039-.078.026-.078.026-.091.013-.1.013h-.26l-.052-.013-.052-.013-.052-.013-.052-.013-.052-.013-.052-.013h-.013a5.27,5.27,0,0,0,.338-.468,2.341,2.341,0,0,0,.455.156c.26.052.234,0,.039-.078-.13-.065-.273-.13-.4-.2a5.54,5.54,0,0,0,.546-1.119,2.018,2.018,0,0,0,.468.1c.182.013.234-.026.026-.091-.143-.052-.286-.091-.442-.156a8.357,8.357,0,0,0,.26-.911c.078-.338.052-.312-.052,0s-.221.6-.338.872a2.97,2.97,0,0,1-.4-.208c-.143-.091-.2-.091-.052.065a1.372,1.372,0,0,0,.39.286,10.546,10.546,0,0,1-.585,1.08c-.143-.091-.273-.182-.416-.286-.182-.143-.143-.065-.026.078a1.983,1.983,0,0,0,.338.325c-.117.169-.234.325-.364.481l-.039-.026-.091-.065-.078-.065-.065-.065-.052-.065-.039-.065-.039-.065-.026-.065-.013-.065v-.13l.013-.065.013-.065.026-.065.026-.065.039-.065.052-.065.052-.065.065-.052.065-.052.078-.039.078-.026.091-.026.091-.013H360l-.13-.338-.026-.091-.026-.091v-.182l.013-.091.026-.078.026-.078.039-.065.039-.065.052-.052.065-.039.078-.039.078-.013.091-.013h.273l-.013-.247v-.2l.013-.078.013-.078.013-.078.013-.091.026-.091.026-.1.026-.091.026-.091.039-.091.039-.078.039-.065.026-.052.026-.026.026-.013.026-.013h.078l.039.013.039.026Zm-2.823-8.988a.994.994,0,0,1,.676-.156,1.166,1.166,0,0,1,.7.286,1.274,1.274,0,0,1,.351.52.856.856,0,0,1,1.015.078,1.031,1.031,0,0,1-.013,1.028.641.641,0,0,1,.806.221,1,1,0,0,1-.026.859,2.383,2.383,0,0,1-.429.715c-.1-.247-.221-.481-.325-.7a2.638,2.638,0,0,0,.338-.4c.156-.247.117-.247-.052-.065a4.487,4.487,0,0,1-.364.338,5.757,5.757,0,0,0-.728-1.028,2.035,2.035,0,0,0,.3-.442c.091-.182.078-.26-.078-.065-.1.13-.221.26-.338.4a8.159,8.159,0,0,0-.689-.637c-.26-.221-.26-.2-.026.052s.429.468.611.7a2.173,2.173,0,0,1-.364.325c-.156.1-.169.169.026.078a1.22,1.22,0,0,0,.429-.3,7.6,7.6,0,0,1,.676,1.054,4.461,4.461,0,0,1-.429.312c-.208.13-.117.117.065.052a1.31,1.31,0,0,0,.442-.234c.117.234.221.468.325.728l-.013.013a.84.84,0,0,1-.768.234.735.735,0,0,1-.494-.468,1.047,1.047,0,0,1,.052-.9.9.9,0,0,1-.78-.312.78.78,0,0,1-.026-.872,1.771,1.771,0,0,1-.546-.325,1.712,1.712,0,0,1-.52-.6.418.418,0,0,1,.2-.494m4.215,1.756a.994.994,0,0,1,.533.247,1.208,1.208,0,0,1,.351.559,1.319,1.319,0,0,1,.026.546.771.771,0,0,1,.65.572.789.789,0,0,1-.442.7.605.605,0,0,1,.455.572.761.761,0,0,1-.377.572,1.381,1.381,0,0,1-.6.26,3.931,3.931,0,0,0,.065-.65,1.628,1.628,0,0,0,.416-.1c.208-.078.182-.1,0-.078a3.86,3.86,0,0,1-.4.039,4.987,4.987,0,0,0-.065-1.093,1.491,1.491,0,0,0,.4-.143c.143-.078.169-.13-.026-.091-.13.026-.26.065-.4.1a6.513,6.513,0,0,0-.208-.794c-.091-.286-.091-.26-.039.013s.091.546.117.806a1.375,1.375,0,0,1-.4.026c-.143,0-.2.026-.013.078a1.143,1.143,0,0,0,.416.026,7.338,7.338,0,0,1,.013,1.067c-.143,0-.286,0-.429-.013-.2-.013-.13.013.026.065a1.475,1.475,0,0,0,.4.078,6.463,6.463,0,0,1-.091.676h-.013a.735.735,0,0,1-.624-.247.667.667,0,0,1-.143-.572.768.768,0,0,1,.416-.585.877.877,0,0,1-.4-.624.616.616,0,0,1,.351-.611,2.329,2.329,0,0,1-.234-.507,1.6,1.6,0,0,1-.091-.676.353.353,0,0,1,.364-.221m-.767,3.382a.667.667,0,0,0-.351.286,1.068,1.068,0,0,0-.169.494.969.969,0,0,0,.078.4.648.648,0,0,0-.39.572.56.56,0,0,0,.455.416.492.492,0,0,0-.234.52.6.6,0,0,0,.377.351,1.2,1.2,0,0,0,.494.065c-.065-.169-.117-.312-.169-.468a2.506,2.506,0,0,1-.312.013c-.182-.013-.156-.039-.013-.065a2.9,2.9,0,0,0,.3-.052,4.713,4.713,0,0,1-.143-.819.919.919,0,0,1-.325-.026c-.117-.026-.143-.065,0-.065a2.507,2.507,0,0,0,.312-.013,5,5,0,0,1,0-.624c.013-.234.026-.208.026,0s.026.416.052.611a1.382,1.382,0,0,0,.3-.065c.1-.039.143-.026.026.052a1.111,1.111,0,0,1-.312.117,3.722,3.722,0,0,0,.182.793,2.927,2.927,0,0,0,.312-.1c.143-.052.1-.013,0,.065a1.181,1.181,0,0,1-.286.143c.052.156.117.312.182.468h0a.544.544,0,0,0,.416-.312.554.554,0,0,0,0-.455.534.534,0,0,0-.4-.338.672.672,0,0,0,.182-.546.428.428,0,0,0-.364-.377,1.331,1.331,0,0,0,.078-.429,1.114,1.114,0,0,0-.052-.52c-.013-.1-.117-.143-.247-.091m3.369-.312a1.76,1.76,0,0,1,.65.872,2.125,2.125,0,0,1-.247,2.081,1.58,1.58,0,0,1,.6,1.522,1.208,1.208,0,0,1-1.236.689,1.2,1.2,0,0,1,.286,1.327,1.223,1.223,0,0,1-1.041.559,2.7,2.7,0,0,1-1.145-.143c.234-.325.429-.65.611-.963a3.269,3.269,0,0,0,.715.221c.4.065.364,0,.052-.13-.221-.091-.429-.182-.65-.286a8.475,8.475,0,0,0,.728-1.769,2.879,2.879,0,0,0,.741.143c.286.013.364-.052.026-.156a7.272,7.272,0,0,1-.7-.221c.117-.455.208-.937.286-1.444.078-.533.052-.494-.078,0s-.273.937-.416,1.366a3.311,3.311,0,0,1-.65-.312c-.234-.143-.325-.13-.078.1a2.352,2.352,0,0,0,.65.429,11.337,11.337,0,0,1-.78,1.7,6.5,6.5,0,0,1-.676-.429c-.3-.208-.221-.091-.026.143a2.879,2.879,0,0,0,.585.481,11.565,11.565,0,0,1-.65.976l-.026-.013a1.54,1.54,0,0,1-.806-.963,1.313,1.313,0,0,1,.208-1.041,1.212,1.212,0,0,1,1.093-.533,1.647,1.647,0,0,1-.156-1.34.973.973,0,0,1,1.028-.637,3.379,3.379,0,0,1,.026-1.015,2.891,2.891,0,0,1,.364-1.158.485.485,0,0,1,.715-.065m-12.474-6.127a.716.716,0,0,0-.247-.312.736.736,0,0,0-.39-.13.5.5,0,0,0-.312.1c-.117-.221-.312-.377-.468-.325s-.26.221-.3.455c-.117-.169-.286-.26-.429-.2a.509.509,0,0,0-.247.39,1.132,1.132,0,0,0-.013.468,2.265,2.265,0,0,1,.351-.182,1.167,1.167,0,0,1-.026-.3c0-.169.026-.143.052-.013a2.085,2.085,0,0,0,.065.273,3.12,3.12,0,0,1,.624-.2,1.254,1.254,0,0,1,0-.312c.013-.117.039-.143.052,0,.013.091.013.2.026.3a3.068,3.068,0,0,1,.494-.026c.182,0,.169,0,0,.026s-.325.052-.481.091a2.077,2.077,0,0,0,.065.273c.039.1.026.143-.039.026a1.073,1.073,0,0,1-.1-.286,3.1,3.1,0,0,0-.611.221,2.727,2.727,0,0,0,.1.3c.052.13.013.091-.039,0a.975.975,0,0,1-.13-.26,3.237,3.237,0,0,0-.364.2v.013a.547.547,0,0,0,.273.377.343.343,0,0,0,.351-.026.549.549,0,0,0,.247-.416.466.466,0,0,0,.442.143.42.42,0,0,0,.273-.377.881.881,0,0,0,.338.052.773.773,0,0,0,.4-.078c.065-.039.078-.143.039-.273m-4.215,10.042a1.258,1.258,0,0,0-.481.494,1.343,1.343,0,0,0,.013,1.34.944.944,0,0,0-.481.911.787.787,0,0,0,.741.546.759.759,0,0,0-.286.82.794.794,0,0,0,.624.442,1.7,1.7,0,0,0,.767,0,4.3,4.3,0,0,1-.351-.65,2.708,2.708,0,0,1-.468.078c-.26.013-.234-.026-.013-.078.143-.039.286-.078.429-.13a7.081,7.081,0,0,1-.338-1.184,2,2,0,0,1-.481.026c-.182-.013-.221-.065,0-.1q.215-.039.468-.078a7.166,7.166,0,0,1-.078-.937c-.013-.351,0-.325.052,0s.1.624.169.911a2.772,2.772,0,0,0,.429-.143c.156-.078.221-.052.039.065a1.566,1.566,0,0,1-.442.221,7.546,7.546,0,0,0,.377,1.158c.156-.065.3-.13.455-.208.208-.1.143-.039,0,.091a1.52,1.52,0,0,1-.4.26,3.082,3.082,0,0,0,.377.663.91.91,0,0,0,.559-.533.844.844,0,0,0-.715-1.119,1.063,1.063,0,0,0,.2-.846.642.642,0,0,0-.6-.494,2.435,2.435,0,0,0,.052-.65,1.97,1.97,0,0,0-.143-.767.331.331,0,0,0-.468-.1m2.38-8.741a.994.994,0,0,0-.676-.156,1.166,1.166,0,0,0-.7.286,1.274,1.274,0,0,0-.351.52.856.856,0,0,0-1.015.078.971.971,0,0,0,.013,1.028.646.646,0,0,0-.806.221,1,1,0,0,0,.026.859,2.382,2.382,0,0,0,.429.715c.1-.247.221-.481.338-.7a2.641,2.641,0,0,1-.338-.4c-.169-.247-.117-.247.052-.065a4.482,4.482,0,0,0,.364.338,5.758,5.758,0,0,1,.728-1.028,2.035,2.035,0,0,1-.3-.442c-.1-.182-.091-.26.065-.065.1.13.221.26.338.4a8.156,8.156,0,0,1,.689-.637c.26-.221.26-.2.026.052s-.429.468-.611.7a2.261,2.261,0,0,0,.377.325c.143.1.169.169-.026.078a1.4,1.4,0,0,1-.442-.3,7.6,7.6,0,0,0-.676,1.054,2.7,2.7,0,0,0,.442.312c.2.13.117.117-.065.052a1.447,1.447,0,0,1-.442-.234c-.117.234-.221.468-.325.728l.013.013a.839.839,0,0,0,.767.234.78.78,0,0,0,.507-.468,1.047,1.047,0,0,0-.052-.9.885.885,0,0,0,.78-.312.78.78,0,0,0,.026-.872,1.771,1.771,0,0,0,.546-.325,1.856,1.856,0,0,0,.52-.6.47.47,0,0,0-.221-.494m-4.215,1.756a.953.953,0,0,0-.533.247,1.138,1.138,0,0,0-.364,1.106.652.652,0,0,0-.208,1.275.621.621,0,0,0-.455.572.762.762,0,0,0,.377.572,1.452,1.452,0,0,0,.6.26,6.3,6.3,0,0,1-.078-.65,1.537,1.537,0,0,1-.4-.1c-.221-.078-.182-.1,0-.078.13.013.26.039.39.039a5.976,5.976,0,0,1,.052-1.093,1.664,1.664,0,0,1-.4-.143c-.143-.078-.169-.13.026-.091.13.026.26.065.4.1.052-.26.117-.52.2-.794s.091-.26.039.013-.091.546-.117.806a1.317,1.317,0,0,0,.39.026c.143,0,.2.026.013.078a1.2,1.2,0,0,1-.429.026,5.872,5.872,0,0,0-.013,1.067c.143,0,.286,0,.429-.013.2-.013.13.013-.026.065a1.475,1.475,0,0,1-.4.078,4.211,4.211,0,0,0,.091.676h.013a.735.735,0,0,0,.624-.247.711.711,0,0,0,.143-.572.768.768,0,0,0-.416-.585.823.823,0,0,0,.39-.624.616.616,0,0,0-.351-.611,1.847,1.847,0,0,0,.234-.507,1.6,1.6,0,0,0,.091-.676c.013-.143-.117-.221-.3-.221m1.184,3.343a.735.735,0,0,1,.351.286.939.939,0,0,1,.169.494.929.929,0,0,1-.078.4.648.648,0,0,1,.39.572.543.543,0,0,1-.455.416.492.492,0,0,1,.234.52.6.6,0,0,1-.377.351,1.233,1.233,0,0,1-.494.065c.065-.156.117-.312.169-.468a1.361,1.361,0,0,0,.325,0c.169-.013.156-.039.013-.052a2.4,2.4,0,0,1-.3-.052,3.735,3.735,0,0,0,.143-.819,1.373,1.373,0,0,0,.325-.026c.13-.026.143-.065,0-.065a2.505,2.505,0,0,1-.312-.013c0-.208,0-.416-.013-.624-.013-.234-.026-.208-.039,0s-.026.429-.052.611a1.382,1.382,0,0,1-.3-.065c-.1-.039-.143-.026-.026.052a1.11,1.11,0,0,0,.312.117,5.419,5.419,0,0,1-.182.794,2.931,2.931,0,0,1-.312-.1c-.143-.052-.1-.013,0,.065a1.179,1.179,0,0,0,.286.143c-.052.156-.117.312-.182.468h-.013a.568.568,0,0,1-.416-.312.555.555,0,0,1,0-.455.578.578,0,0,1,.4-.351.672.672,0,0,1-.182-.546.441.441,0,0,1,.364-.377,1.812,1.812,0,0,1-.078-.429,1.113,1.113,0,0,1,.052-.52.224.224,0,0,1,.273-.078m-3.837-.429a1.967,1.967,0,0,0-.663.885,2.374,2.374,0,0,0-.143,1.236,2.13,2.13,0,0,0,.39.885,1.6,1.6,0,0,0-.611,1.535,1.209,1.209,0,0,0,1.249.689,1.235,1.235,0,0,0-.286,1.353,1.217,1.217,0,0,0,1.054.559,2.759,2.759,0,0,0,1.158-.143,10.683,10.683,0,0,1-.611-.976,3.38,3.38,0,0,1-.728.221c-.4.078-.377,0-.052-.13.221-.091.442-.182.663-.3a8.673,8.673,0,0,1-.728-1.8,3.087,3.087,0,0,1-.754.143c-.3.013-.364-.052-.026-.156.234-.065.468-.13.715-.221-.117-.468-.208-.95-.286-1.457-.078-.533-.052-.507.078,0s.273.95.429,1.379a3.81,3.81,0,0,0,.663-.312c.234-.143.325-.143.078.1a2.739,2.739,0,0,1-.65.442,13.184,13.184,0,0,0,.793,1.73c.221-.13.455-.273.676-.429.3-.208.221-.091.013.13a2.573,2.573,0,0,1-.585.494,9.224,9.224,0,0,0,.65.989h.013a1.543,1.543,0,0,0,.819-.976,1.343,1.343,0,0,0-.208-1.054,1.237,1.237,0,0,0-1.119-.546,1.652,1.652,0,0,0,.156-1.366.969.969,0,0,0-1.041-.637,3.476,3.476,0,0,0-.026-1.028,2.957,2.957,0,0,0-.364-1.171c-.169-.247-.442-.247-.715-.078m-1.249,7.857a2.037,2.037,0,0,0,.065,1.353,2.373,2.373,0,0,0,.937,1.2,2.705,2.705,0,0,0,1.2.442,1.694,1.694,0,0,0,.689,1.886,1.956,1.956,0,0,0,1.964-.481,1.357,1.357,0,0,0,.872,1.444,2.065,2.065,0,0,0,1.652-.416,4.124,4.124,0,0,0,1.132-1.145q-.819-.137-1.522-.312a4.948,4.948,0,0,1-.6.833c-.377.416-.4.325-.169-.065a8.725,8.725,0,0,0,.455-.846,11.944,11.944,0,0,1-2.38-.937,4.362,4.362,0,0,1-.689.78c-.3.26-.442.273-.156-.117.2-.26.39-.533.572-.819a16.586,16.586,0,0,1-1.6-1.028c-.559-.4-.507-.39.078-.078s1.145.6,1.691.846a5.29,5.29,0,0,0,.429-.859c.13-.325.234-.4.182.026a2.811,2.811,0,0,1-.325.963,17.354,17.354,0,0,0,2.393.82c.13-.312.26-.637.364-.976.143-.442.156-.273.143.1a2.943,2.943,0,0,1-.2.95c.507.117,1.041.221,1.587.3l.013-.026a1.679,1.679,0,0,0,.026-1.574,1.611,1.611,0,0,0-1.158-.741,2.049,2.049,0,0,0-1.691.494,1.856,1.856,0,0,0-1.028-1.34,1.556,1.556,0,0,0-1.691.338,4.037,4.037,0,0,0-.924-.885,3.653,3.653,0,0,0-1.418-.715.8.8,0,0,0-.9.585m3.993-17.235a1.269,1.269,0,0,0,.052.689,1.322,1.322,0,0,0,.4.6,1.109,1.109,0,0,0,.507.208.978.978,0,0,0,.325.95c.247.13.546-.013.806-.286,0,.364.156.663.39.715a.726.726,0,0,0,.676-.247,2.046,2.046,0,0,0,.442-.6c-.234-.039-.442-.091-.637-.143a1.381,1.381,0,0,1-.234.429c-.143.221-.156.169-.065-.039.065-.143.117-.286.182-.429a4.4,4.4,0,0,1-1-.442,2.87,2.87,0,0,1-.273.416c-.117.143-.182.143-.065-.052a4.431,4.431,0,0,0,.221-.429,7.571,7.571,0,0,1-.689-.494c-.234-.2-.221-.2.039-.039a8.146,8.146,0,0,0,.715.4,2.552,2.552,0,0,0,.156-.442c.039-.169.091-.208.078,0a1.613,1.613,0,0,1-.117.494,6.282,6.282,0,0,0,1,.377,4.806,4.806,0,0,0,.13-.507c.052-.234.065-.143.065.052a1.954,1.954,0,0,1-.065.481c.221.052.429.091.663.13v-.013a1.062,1.062,0,0,0-.013-.806.643.643,0,0,0-.494-.351.721.721,0,0,0-.689.273.93.93,0,0,0-.442-.663.566.566,0,0,0-.7.208,2.073,2.073,0,0,0-.4-.442,1.484,1.484,0,0,0-.6-.338c-.182,0-.3.13-.364.338m20.084,17.157a2.283,2.283,0,0,1-.065,1.4,2.583,2.583,0,0,1-.95,1.249,2.906,2.906,0,0,1-1.2.455,1.8,1.8,0,0,1-.7,1.951,1.939,1.939,0,0,1-1.977-.507,1.413,1.413,0,0,1-.885,1.5,1.966,1.966,0,0,1-1.639-.442,4.157,4.157,0,0,1-1.132-1.2,15.093,15.093,0,0,0,1.535-.325,4.091,4.091,0,0,0,.6.859c.364.442.4.338.156-.065-.156-.286-.312-.572-.455-.872a10.965,10.965,0,0,0,2.38-.963,4.109,4.109,0,0,0,.689.806c.3.273.442.286.169-.117-.2-.273-.39-.559-.585-.846a14.867,14.867,0,0,0,1.6-1.067c.559-.416.507-.416-.078-.078s-1.145.624-1.691.872a5.486,5.486,0,0,1-.416-.885c-.13-.351-.234-.416-.182.026a3.092,3.092,0,0,0,.312,1,17.531,17.531,0,0,1-2.393.846q-.2-.488-.351-1.015c-.13-.455-.156-.286-.143.1a2.958,2.958,0,0,0,.2.976c-.507.117-1.041.221-1.587.3l-.013-.026a1.783,1.783,0,0,1-.026-1.626,1.625,1.625,0,0,1,1.171-.767,2,2,0,0,1,1.691.52,1.936,1.936,0,0,1,1.041-1.392,1.521,1.521,0,0,1,1.691.364,3.919,3.919,0,0,1,.937-.911,3.876,3.876,0,0,1,1.431-.741.8.8,0,0,1,.872.611M351.118,166.1a.916.916,0,1,1,.845.937.886.886,0,0,1-.845-.937m-10.367-8.442c.273-.13.7.169.95.676s.247,1.028-.026,1.171-.7-.169-.963-.676-.234-1.041.039-1.171m2,1.236c.364-.052.819.364,1,.937s.052,1.067-.312,1.132-.82-.364-1.015-.937-.039-1.08.325-1.132m25.912-1.47c-.273-.13-.7.169-.95.676s-.247,1.028.026,1.171.7-.169.963-.676.234-1.041-.039-1.171m-2,1.236c-.364-.052-.82.364-1.015.937s-.052,1.067.312,1.132.819-.364,1.015-.937.065-1.08-.312-1.132m-4.306.026a1.115,1.115,0,0,0-1.119,1.093,1.127,1.127,0,0,0,.846,1.327,1.115,1.115,0,0,0,1.119-1.093,1.14,1.14,0,0,0-.845-1.327m.039-.39h-.3l-.286.065-.247.13-.221.182-.182.221-.156.247-.1.286-.065.3-.013.312.039.3.078.286.13.26.169.221.221.182.26.13.286.078h.3l.286-.078.247-.13.221-.182.182-.221.156-.247.1-.273.065-.3.013-.312-.039-.3-.091-.286-.13-.26-.169-.221-.221-.182-.26-.13Zm-7.571-1.912a1.935,1.935,0,1,0,1.509,1.912,1.747,1.747,0,0,0-1.509-1.912m0-.377-.208.013-.2.039-.2.065-.182.078-.169.091-.156.117-.143.13-.13.143-.117.156-.1.169-.091.182-.078.2-.065.2-.052.208-.026.221-.013.221v.221l.026.221.039.208.052.208.078.2.091.182.1.182.117.169.13.143.143.143.156.117.169.1.182.078.182.065.208.039.208.013.208-.013.2-.039.2-.065.182-.078.169-.091.156-.117.143-.13.13-.143.13-.169.1-.169.091-.182.078-.2.065-.208.052-.208.026-.221.013-.221v-.221l-.026-.221-.039-.208-.052-.208-.078-.2-.091-.182-.1-.182-.117-.169-.13-.156-.143-.13-.156-.117-.169-.1-.182-.078-.2-.065-.2-.039Zm-7.636,2.55a1.239,1.239,0,1,1-.833,1.314,1.1,1.1,0,0,1,.833-1.314m-.039-.338-.273.065-.247.13-.208.182-.169.221-.13.247-.078.273-.039.286.013.3.065.3.1.273.143.247.182.208.208.169.247.13.273.065h.286l.273-.065.247-.13.208-.182.169-.221.13-.247.078-.273.039-.286-.013-.3-.065-.3-.1-.273-.143-.247-.182-.208-.208-.169-.247-.13-.273-.065Zm10.757.572c-.364-.052-.819.364-1.015.937s-.052,1.067.312,1.132.819-.364,1.015-.937.052-1.08-.312-1.132m-6.3.169c.364-.052.819.364,1.015.937s.052,1.08-.312,1.132-.819-.364-1.015-.937-.052-1.08.312-1.132m3.148-4.852a.691.691,0,1,1-.833.676.785.785,0,0,1,.833-.676m-11.59,11.941a.517.517,0,0,1,.611-.494.689.689,0,0,1,.416.78.517.517,0,0,1-.611.494.705.705,0,0,1-.416-.78m1.691.013a.62.62,0,0,1,.7-.572.717.717,0,0,1,.52.819.62.62,0,0,1-.7.572.745.745,0,0,1-.52-.819m1.873.013a.7.7,0,0,1,.793-.637.771.771,0,0,1,.624.859.692.692,0,0,1-.793.637.779.779,0,0,1-.624-.859m2.068.013a.786.786,0,0,1,.885-.7.825.825,0,0,1,.728.9.8.8,0,0,1-.884.715.856.856,0,0,1-.728-.911m4.956.026a.975.975,0,0,1,1.08-.846.955.955,0,0,1,.937.976.975.975,0,0,1-1.08.846.939.939,0,0,1-.937-.976m12.6-.065a.517.517,0,0,0-.611-.494.7.7,0,0,0-.416.78.517.517,0,0,0,.611.494.705.705,0,0,0,.416-.78m-1.691.013a.62.62,0,0,0-.7-.572.717.717,0,0,0-.52.819.62.62,0,0,0,.7.572.758.758,0,0,0,.52-.819m-1.873.013a.7.7,0,0,0-.807-.637.771.771,0,0,0-.624.859.692.692,0,0,0,.793.637.778.778,0,0,0,.637-.859m-2.068.013a.8.8,0,0,0-.9-.7.835.835,0,0,0-.728.9.8.8,0,0,0,.9.715.856.856,0,0,0,.728-.911m-2.315.013a.9.9,0,0,0-.989-.78.883.883,0,0,0-.832.937.915.915,0,0,0,1.821-.156m-6.283-8.468a.489.489,0,0,1,.481.481.481.481,0,0,1-.963,0,.489.489,0,0,1,.481-.481m.494-1a.383.383,0,0,1,.39.39.39.39,0,1,1-.39-.39m.611-.6a.247.247,0,1,1-.247.247.256.256,0,0,1,.247-.247m1.587,5.932a.611.611,0,0,1-.611-.611.622.622,0,0,1,.611-.624.618.618,0,0,1,0,1.236m-.6.9a.394.394,0,0,1-.39-.4.4.4,0,1,1,.793,0,.4.4,0,0,1-.4.4m-.611.6a.247.247,0,1,1,.247-.247.247.247,0,0,1-.247.247m-.624.494a.247.247,0,0,1-.247-.247.247.247,0,0,1,.494,0,.247.247,0,0,1-.247.247m-.689.39a.247.247,0,0,1,0-.494.256.256,0,0,1,.247.247.247.247,0,0,1-.247.247m-.663.1a.247.247,0,0,1,0-.494.247.247,0,1,1,0,.494m-.858-.039a.247.247,0,1,1,0-.494.239.239,0,0,1,.247.247.232.232,0,0,1-.247.247m-.95-.2a.247.247,0,0,1-.247-.247.247.247,0,1,1,.494,0,.239.239,0,0,1-.247.247m-.819-.364a.247.247,0,1,1,0-.494.247.247,0,0,1,.247.247.239.239,0,0,1-.247.247m-.637-.494a.4.4,0,0,1-.4-.39.4.4,0,1,1,.4.39m-.832-.741a.481.481,0,1,1,0-.963.48.48,0,0,1,.481.481.472.472,0,0,1-.481.481m-.624.937a.405.405,0,0,1-.4-.4.394.394,0,0,1,.4-.39.4.4,0,0,1,0,.793m-.833.364a.247.247,0,0,1-.247-.247.239.239,0,0,1,.247-.247.247.247,0,1,1,0,.494m-.728.208a.247.247,0,0,1-.247-.247.256.256,0,0,1,.247-.247.247.247,0,1,1,0,.494m-.924,0a.247.247,0,1,1,0-.494.247.247,0,1,1,0,.494m-.585-.4a.239.239,0,0,1-.247-.247.247.247,0,1,1,.247.247m-.676-.429a.39.39,0,1,1,.39-.39.391.391,0,0,1-.39.39m-.052.728a.239.239,0,0,1-.247-.247.247.247,0,0,1,.494,0,.247.247,0,0,1-.247.247m.156,1.249a.239.239,0,0,1-.247-.247.247.247,0,0,1,.494,0,.239.239,0,0,1-.247.247m.7-.3a.247.247,0,1,1,0-.494.239.239,0,0,1,.247.247.256.256,0,0,1-.247.247m.754.338a.247.247,0,1,1,0-.494.247.247,0,0,1,0,.494m.858-.039a.239.239,0,0,1-.247-.247.247.247,0,0,1,.247-.247.239.239,0,0,1,.247.247.247.247,0,0,1-.247.247m.689-.3a.256.256,0,0,1-.247-.247.247.247,0,0,1,.247-.247.239.239,0,0,1,.247.247.247.247,0,0,1-.247.247m.754.338a.247.247,0,0,1-.247-.247.247.247,0,1,1,.247.247m.663-.039a.239.239,0,0,1-.247-.247.247.247,0,1,1,.247.247m.689-.3a.247.247,0,1,1,.247-.247.247.247,0,0,1-.247.247m.754.338a.247.247,0,1,1,0-.494.247.247,0,0,1,.247.247.256.256,0,0,1-.247.247m.793-.039a.247.247,0,0,1-.247-.247.256.256,0,0,1,.247-.247.239.239,0,0,1,.247.247.247.247,0,0,1-.247.247m.689-.3a.247.247,0,0,1-.247-.247.239.239,0,0,1,.247-.247.247.247,0,0,1,0,.494m.754.338a.247.247,0,0,1-.247-.247.247.247,0,0,1,.494,0,.247.247,0,0,1-.247.247m1.158-.039a.247.247,0,1,1,0-.494.239.239,0,0,1,.247.247.247.247,0,0,1-.247.247m.689-.3a.247.247,0,0,1-.247-.247.247.247,0,1,1,.247.247m.754.338a.247.247,0,1,1,0-.494.247.247,0,0,1,0,.494m-10.432,1.782a.247.247,0,1,0,.247.247.247.247,0,0,0-.247-.247m.689.286a.239.239,0,0,0-.247.247.247.247,0,1,0,.494,0,.247.247,0,0,0-.247-.247m.754-.325a.247.247,0,1,0,0,.494.256.256,0,0,0,.247-.247.247.247,0,0,0-.247-.247m.859.039a.247.247,0,1,0,.247.247.247.247,0,0,0-.247-.247m.689.286a.247.247,0,1,0,.247.247.239.239,0,0,0-.247-.247m.754-.325a.247.247,0,0,0,0,.494.247.247,0,0,0,.247-.247.239.239,0,0,0-.247-.247m.663.039a.239.239,0,0,0-.247.247.247.247,0,1,0,.247-.247m.689.286a.239.239,0,0,0-.247.247.247.247,0,0,0,.247.247.256.256,0,0,0,.247-.247.247.247,0,0,0-.247-.247m.754-.325a.247.247,0,1,0,0,.494.247.247,0,0,0,.247-.247.239.239,0,0,0-.247-.247m.793.039a.247.247,0,1,0,.247.247.239.239,0,0,0-.247-.247m.689.286a.239.239,0,0,0-.247.247.247.247,0,0,0,.247.247.256.256,0,0,0,.247-.247.239.239,0,0,0-.247-.247m.754-.325a.247.247,0,0,0,0,.494.247.247,0,0,0,.247-.247.239.239,0,0,0-.247-.247m.989.039a.247.247,0,0,0-.247.247.247.247,0,1,0,.247-.247m.689.286a.247.247,0,0,0-.247.247.256.256,0,0,0,.247.247.247.247,0,0,0,.247-.247.239.239,0,0,0-.247-.247m.767-.325a.247.247,0,1,0,0,.494.256.256,0,0,0,.247-.247.247.247,0,0,0-.247-.247m-16.325-12.761a.663.663,0,1,1-.663.663.666.666,0,0,1,.663-.663m1.3.286a.405.405,0,0,1,.4.4.4.4,0,1,1-.4-.4m.989.4a.39.39,0,1,1-.39.39.391.391,0,0,1,.39-.39m.871.585a.239.239,0,0,1,.247.247.247.247,0,1,1-.494,0,.256.256,0,0,1,.247-.247m.728.468a.247.247,0,1,1,0,.494.247.247,0,1,1,0-.494m.6.585a.247.247,0,1,1-.247.247.247.247,0,0,1,.247-.247m.39.533a.247.247,0,1,1-.247.247.247.247,0,0,1,.247-.247m0,.859a.247.247,0,0,1,.247.247.247.247,0,1,1-.494,0,.247.247,0,0,1,.247-.247m-2.237-2.042a.247.247,0,0,1,.247.247.247.247,0,0,1-.494,0,.247.247,0,0,1,.247-.247m.2.846a.247.247,0,1,1-.247.247.247.247,0,0,1,.247-.247m16.9.819a.481.481,0,1,0,0,.963.481.481,0,1,0,0-.963m-.494-1a.39.39,0,0,0,0,.78.383.383,0,0,0,.39-.39.391.391,0,0,0-.39-.39m-.611-.6a.247.247,0,0,0-.247.247.256.256,0,0,0,.247.247.247.247,0,1,0,0-.494m-.989,6.829a.4.4,0,1,0-.39-.4.386.386,0,0,0,.39.4m.611.6a.247.247,0,0,0,.247-.247.247.247,0,1,0-.247.247m.624.494a.247.247,0,1,0,0-.494.247.247,0,1,0,0,.494m.689.39a.247.247,0,1,0,0-.494.247.247,0,0,0,0,.494m.663.1a.247.247,0,1,0,0-.494.256.256,0,0,0-.247.247.247.247,0,0,0,.247.247m.859-.039a.239.239,0,0,0,.247-.247.247.247,0,1,0-.494,0,.239.239,0,0,0,.247.247m.95-.2a.247.247,0,1,0,0-.494.256.256,0,0,0-.247.247.247.247,0,0,0,.247.247m.832-.364a.247.247,0,1,0-.247-.247.239.239,0,0,0,.247.247m.637-.494a.39.39,0,1,0-.39-.39.376.376,0,0,0,.39.39m.819-.741a.481.481,0,1,0,0-.963.481.481,0,0,0,0,.963m.624.937a.4.4,0,0,0,0-.793.4.4,0,0,0,0,.793m.846.364a.247.247,0,0,0,.247-.247.247.247,0,1,0-.247.247m.728.208a.256.256,0,0,0,.247-.247.247.247,0,0,0-.494,0,.239.239,0,0,0,.247.247m.91,0a.247.247,0,0,0,.247-.247.247.247,0,1,0-.247.247m.6-.4a.239.239,0,0,0,.247-.247.247.247,0,0,0-.247-.247.256.256,0,0,0-.247.247.239.239,0,0,0,.247.247m.676-.429a.39.39,0,1,0,0-.78.4.4,0,0,0-.4.39.394.394,0,0,0,.4.39m.052.728a.247.247,0,0,0,.247-.247.247.247,0,0,0-.494,0,.239.239,0,0,0,.247.247m-.169,1.249a.247.247,0,1,0,0-.494.247.247,0,1,0,0,.494m-.689-.3a.256.256,0,0,0,.247-.247.247.247,0,0,0-.247-.247.247.247,0,1,0,0,.494m-.767.338a.247.247,0,1,0,0-.494.247.247,0,1,0,0,.494m-.845-.039a.247.247,0,0,0,.247-.247.256.256,0,0,0-.247-.247.239.239,0,0,0-.247.247.232.232,0,0,0,.247.247m-.7-.3a.247.247,0,0,0,.247-.247.239.239,0,0,0-.247-.247.247.247,0,1,0,0,.494m-.754.338a.247.247,0,0,0,0-.494.247.247,0,0,0-.247.247.256.256,0,0,0,.247.247m-.65-.039a.247.247,0,0,0,.247-.247.256.256,0,0,0-.247-.247.247.247,0,1,0,0,.494m-.689-.3a.256.256,0,0,0,.247-.247.247.247,0,0,0-.247-.247.239.239,0,0,0-.247.247.232.232,0,0,0,.247.247m-.767.338a.247.247,0,1,0-.247-.247.256.256,0,0,0,.247.247m-.793-.039a.239.239,0,0,0,.247-.247.247.247,0,1,0-.247.247m-.689-.3a.256.256,0,0,0,.247-.247.247.247,0,0,0-.247-.247.239.239,0,0,0-.247.247.247.247,0,0,0,.247.247m-.754.338a.247.247,0,1,0-.247-.247.247.247,0,0,0,.247.247m-1.158-.039a.239.239,0,0,0,.247-.247.256.256,0,0,0-.247-.247.247.247,0,1,0,0,.494m-.689-.3a.247.247,0,0,0,.247-.247.247.247,0,0,0-.494,0,.247.247,0,0,0,.247.247m-.754.338a.247.247,0,1,0-.247-.247.256.256,0,0,0,.247.247m10.445,1.782a.247.247,0,1,1,0,.494.247.247,0,1,1,0-.494m-.7.286a.247.247,0,0,1,.247.247.247.247,0,1,1-.494,0,.247.247,0,0,1,.247-.247m-.754-.325a.247.247,0,0,1,.247.247.247.247,0,0,1-.494,0,.247.247,0,0,1,.247-.247m-.859.039a.247.247,0,1,1,0,.494.239.239,0,0,1-.247-.247.247.247,0,0,1,.247-.247m-.689.286a.239.239,0,0,1,.247.247.247.247,0,1,1-.494,0,.247.247,0,0,1,.247-.247m-.754-.325a.247.247,0,1,1-.247.247.247.247,0,0,1,.247-.247m-.663.039a.247.247,0,1,1,0,.494.239.239,0,0,1-.247-.247.247.247,0,0,1,.247-.247m-.689.286a.247.247,0,0,1,.247.247.256.256,0,0,1-.247.247.247.247,0,1,1,0-.494m-.754-.325a.247.247,0,0,1,.247.247.247.247,0,0,1-.494,0,.247.247,0,0,1,.247-.247m-.793.039a.239.239,0,0,1,.247.247.247.247,0,1,1-.247-.247m-.689.286a.247.247,0,0,1,.247.247.256.256,0,0,1-.247.247.247.247,0,0,1-.247-.247.239.239,0,0,1,.247-.247m-.754-.325a.247.247,0,1,1,0,.494.256.256,0,0,1-.247-.247.239.239,0,0,1,.247-.247m-.989.039a.247.247,0,1,1,0,.494.247.247,0,0,1-.247-.247.239.239,0,0,1,.247-.247m-.689.286a.239.239,0,0,1,.247.247.247.247,0,0,1-.247.247.256.256,0,0,1-.247-.247.239.239,0,0,1,.247-.247m-.767-.325a.247.247,0,0,1,.247.247.247.247,0,0,1-.494,0,.247.247,0,0,1,.247-.247m16.325-12.761a.663.663,0,1,0,.663.663.658.658,0,0,0-.663-.663m-1.3.286a.39.39,0,1,0,.39.39.391.391,0,0,0-.39-.39m-.989.4a.4.4,0,0,0-.4.39.394.394,0,0,0,.4.39.39.39,0,0,0,0-.78m-.872.585a.247.247,0,0,0-.247.247.256.256,0,0,0,.247.247.247.247,0,0,0,.247-.247.256.256,0,0,0-.247-.247m-.728.468a.247.247,0,1,0,0,.494.247.247,0,0,0,0-.494m-.6.585a.256.256,0,0,0-.247.247.247.247,0,0,0,.247.247.247.247,0,1,0,0-.494m-.39.533a.247.247,0,0,0-.247.247.247.247,0,0,0,.494,0,.239.239,0,0,0-.247-.247m0,.859a.239.239,0,0,0-.247.247.247.247,0,0,0,.494,0,.239.239,0,0,0-.247-.247m2.237-2.042a.239.239,0,0,0-.247.247.247.247,0,1,0,.494,0,.239.239,0,0,0-.247-.247m-.2.846a.256.256,0,0,0-.247.247.239.239,0,0,0,.247.247.247.247,0,1,0,0-.494m-23.44,3.252a.239.239,0,0,1-.247-.247.247.247,0,0,1,.247-.247.239.239,0,0,1,.247.247.247.247,0,0,1-.247.247m.091-.793a.247.247,0,1,1,.247-.247.239.239,0,0,1-.247.247m.442-.754a.4.4,0,0,1-.4-.39.4.4,0,0,1,.793,0,.383.383,0,0,1-.39.39m.859-.637a.489.489,0,0,1-.481-.481.481.481,0,1,1,.963,0,.489.489,0,0,1-.481.481m1.054.312a.39.39,0,1,1,0-.78.39.39,0,1,1,0,.78m.611.559a.247.247,0,1,1,0-.494.247.247,0,0,1,0,.494m.3.689a.247.247,0,1,1,0-.494.247.247,0,0,1,0,.494m.13.754a.247.247,0,1,1,0-.494.247.247,0,1,1,0,.494m-.065.859a.247.247,0,1,1,0-.494.247.247,0,1,1,0,.494m-.559.624a.247.247,0,1,1,.247-.247.247.247,0,0,1-.247.247m-2.732-.885a.247.247,0,0,1-.247-.247.247.247,0,1,1,.247.247m.364.663a.247.247,0,0,1-.247-.247.239.239,0,0,1,.247-.247.247.247,0,1,1,0,.494m.52.52a.247.247,0,1,1,0-.494.239.239,0,0,1,.247.247.247.247,0,0,1-.247.247m17.352-1.912a.247.247,0,0,0,.247-.247.256.256,0,0,0-.247-.247.239.239,0,0,0-.247.247.247.247,0,0,0,.247.247m-.091-.793a.256.256,0,0,0,.247-.247.247.247,0,0,0-.247-.247.247.247,0,1,0,0,.494m-.442-.754a.4.4,0,0,0,.39-.39.391.391,0,0,0-.39-.39.39.39,0,1,0,0,.78m-.859-.637a.481.481,0,1,0,0-.963.469.469,0,0,0-.468.481.461.461,0,0,0,.468.481m-1.054.312a.39.39,0,1,0,0-.78.39.39,0,1,0,0,.78m-.611.559a.247.247,0,1,0-.247-.247.247.247,0,0,0,.247.247m-.3.689a.247.247,0,1,0,0-.494.256.256,0,0,0-.247.247.247.247,0,0,0,.247.247m-.13.754a.247.247,0,1,0,0-.494.247.247,0,1,0,0,.494m.065.859a.247.247,0,0,0,0-.494.239.239,0,0,0-.247.247.247.247,0,0,0,.247.247m.559.624a.247.247,0,1,0,0-.494.247.247,0,1,0,0,.494m2.732-.885a.256.256,0,0,0,.247-.247.247.247,0,0,0-.247-.247.247.247,0,1,0,0,.494m-.364.663a.247.247,0,0,0,.247-.247.239.239,0,0,0-.247-.247.247.247,0,1,0,0,.494m-.52.52a.247.247,0,1,0,0-.494.247.247,0,1,0,0,.494m-8.156,6.361h-.052l-11.59-.013c-.234-.364-.039-.937-.039-1.34-.689-.312-.312-.689-.377-1.392.234.026.3-.52.013-.52-.065-.182-.221-.481.039-.585.117-.234.117-.234-.091-.273-.442-.052-.4-1.639-.377-1.938.247-.338-.221-2.393-1.171-2.471-1.665-2.12-.52-3.967-3.161-3.941-1.613.013-2.55-1.782-.715-2.055a6.308,6.308,0,0,1,2.823.833,8.793,8.793,0,0,1,3.018,2.471c.78,1.639,1.561,2.745,1.2,3.59-.026,0-.039-.013-.065-.013-.364.585-.872.859-1.392.325a2.07,2.07,0,0,0,.286.95c.312.039.481.624.624.885a.253.253,0,0,1,.1-.013,1.831,1.831,0,0,0,2.068.377c.026-.156.182-.208.3-.3,0-.039.013-.208.013-.247.182-.078.208-.182.208-.364-.416-.039-.65-.117-.624-.611-.078-.117-.1-.2-.234-.234a3.619,3.619,0,0,1-.416-2.914,1.55,1.55,0,0,1,.2-.117,2.355,2.355,0,0,1,1.561-1.834,2.681,2.681,0,0,1,1.99,1.457,2.3,2.3,0,0,1,.26.117,4.1,4.1,0,0,1,.351,2.992c.013.013-.156.182-.078.312.1.169.247.585-.13.728-.1.013-.338.13-.377.117,0,.247-.078.247-.026.351.026,0,.221.13.26.143.026.234.351.377.507.559,1.171.377,3.057.4,3.356-1.093a1.194,1.194,0,0,0,.039-1.873c0,.741-.3,1.093-1.067,1.093-1.392-.351-1.288-2.146-1.041-3.265a6.648,6.648,0,0,1,1.171-1.951c.052-.663.2-.611.819-.728.911-.689-.3-1.314.819-1.821a2.091,2.091,0,0,1,.95-.1,2.5,2.5,0,0,1,.95.1c1.119.507-.091,1.145.82,1.821.624.117.767.065.819.728a6.484,6.484,0,0,1,1.171,1.951c.26,1.106.364,2.9-1.028,3.265-.781,0-1.08-.338-1.067-1.093a1.194,1.194,0,0,0,.039,1.873c.3,1.5,2.185,1.47,3.369,1.093.156-.182.481-.325.507-.559.026-.013.234-.143.247-.143.065-.1-.013-.1-.013-.351-.039.013-.273-.1-.364-.117-.377-.143-.247-.559-.13-.728.078-.117-.091-.286-.078-.312a4.03,4.03,0,0,1,.351-2.992c.065-.039.2-.078.273-.117a2.7,2.7,0,0,1,1.99-1.457,2.374,2.374,0,0,1,1.561,1.834,1.546,1.546,0,0,1,.2.117,3.619,3.619,0,0,1-.416,2.914c-.13.039-.156.117-.247.234.026.494-.208.572-.624.611.013.182.026.286.208.364,0,.039.013.208.013.247.117.091.273.143.3.3a1.831,1.831,0,0,0,2.068-.377c.026,0,.065.013.091.013.143-.26.312-.846.624-.885a1.926,1.926,0,0,0,.286-.95c-.533.533-1.041.26-1.4-.325a.563.563,0,0,1-.065.013c-.377-.833.416-1.938,1.2-3.59a8.943,8.943,0,0,1,3.018-2.471,6.206,6.206,0,0,1,2.836-.833c1.821.273.885,2.068-.715,2.055-2.628-.013-1.483,1.834-3.148,3.941-.95.078-1.431,2.133-1.184,2.471.013.3.065,1.886-.377,1.938-.208.039-.208.039-.091.273.26.1.1.4.052.585-.3,0-.234.546.013.52-.078.7.312,1.08-.39,1.392,0,.4.2.976-.039,1.34Zm-10.029-7.818-.013.117-.2.559-.143-.052-.182.2-.221.169-.26.13-.247.039.156.13.13.169.1.169.078.156.065.13h.039l.208.26.065.065.065.052.078.039.091.039.1.039.1.026.117.026.117.013h.234l.117-.013.117-.013.117-.026.065-.013.078-.091.078-.065.052-.039v-.143l-.13-.078-.143-.156-.091-.2-.039-.208v-.078l-.117-.039-.143-.221-.078-.143-.078-.156-.078-.169-.078-.182-.065-.2Zm20.006,0-.052.182-.065.2-.065.182-.078.169-.078.156-.078.143-.143.221-.117.039v.078l-.039.208-.091.2-.156.156-.13.078v.156l.052.039.078.065.078.091.065.013.117.026.117.013.117.013h.234l.117-.013.1-.026.1-.026.091-.039.091-.039.078-.039.065-.052.065-.065.2-.26h.039l.065-.13.078-.156.091-.169.13-.169.156-.13-.247-.039-.273-.13-.221-.169-.182-.208-.143.039-.2-.546Zm-6.426,2.667h.234l.234-.013.234-.026.234-.039.221-.052.117-.039.013-.013.091-.078.078-.065.065-.052.052-.039.026-.026.052-.208-.169-.1-.169-.182-.078-.208-.026-.2.026-.182.039-.156.052-.117-.039-.065-.013-.065-.052-.26-.039-.247-.026-.234-.026-.221v-.416l.013-.2.026-.2.039-.182.052-.182.052-.182.065-.182.065-.182.065-.182.078-.182.13-.325.169-.078.039-.013.039-.013.052-.026.026-.039.1-.156.1-.143.117-.143.117-.13.117-.13.13-.117.13-.1.143-.1.156-.091.156-.091.169-.078.169-.065.182-.052.182-.052.286-.052.273.091.182.078.169.091.169.1.143.117.13.13.13.13.117.143.1.143.091.143.078.156.078.156.065.156.065.169.065.169.013.026h.013l.026.013.026.013.143.091.117.351.052.234.039.247.013.247v.013l.026-.078.091-.234.1-.234.117-.247.13-.247.13-.26.13-.273.143-.273.143-.286.169-.338.2-.234.169-.2.169-.2.169-.182.169-.182.182-.169.182-.169.2-.156.2-.156.2-.156.208-.143.208-.143.221-.143.234-.143.234-.13.247-.13.1-.052.117-.065.143-.065.156-.065.169-.078.182-.078.2-.078.208-.078.208-.078.221-.065.221-.065.221-.052.221-.039.234-.026.221-.013.247.013.377.078.312.13.26.169.208.221.13.26.052.273-.026.273-.078.26-.13.234-.169.221-.208.2-.247.169-.273.143-.312.1-.325.065-.325.013-.429.026-.325.052-.234.078-.169.091-.13.117-.117.143-.091.182-.091.221-.091.273-.078.3-.1.338-.117.364-.156.377-.182.4-.247.416-.377.533-.273.065-.091.039-.091.065-.1.1-.091.13-.091.156-.091.182-.078.182-.065.2-.052.182-.039.182-.013.169-.013.13v.143l.052.1.013.143v.7l-.013.182-.013.182-.026.182-.026.182-.039.169-.052.169-.078.156-.1.156-.052.039.052.2v.169l-.026.143-.026.117-.026.091-.039.13h.052l-.013.572.013.2.026.2.013.221-.026.26-.117.26-.221.221-.039.026v.065l.026.182.026.2v.208l-.013.221-.052.234-.2.4-11.837.013h-.039l-11.837-.013-.2-.4-.052-.234-.013-.221.013-.208.026-.2.026-.182v-.065l-.039-.026-.221-.221-.117-.26-.026-.26.013-.221.026-.2.013-.2-.013-.234v-.455l-.026-.091-.039-.117-.026-.143v-.169l.052-.2-.052-.039-.1-.156-.065-.156-.052-.169-.039-.169-.026-.182-.026-.182-.013-.182-.013-.182v-.7l.013-.156.052-.1v-.143l-.013-.13-.013-.169-.039-.182-.052-.182-.065-.2-.078-.182-.091-.182-.091-.156-.1-.13-.091-.1-.091-.065-.078-.039-.273-.065-.377-.533-.247-.416-.2-.4-.143-.377-.117-.364-.1-.338-.091-.3-.091-.273-.117-.221-.091-.182-.1-.143-.13-.117-.169-.091-.234-.078-.325-.052-.429-.026-.325-.013-.325-.065-.3-.1-.273-.143-.247-.169-.208-.2-.169-.221-.13-.234-.078-.26-.013-.273.052-.273.13-.26.2-.221.26-.169.312-.13.377-.078.247-.013.221.013.234.026.221.039.221.052.221.065.221.065.208.078.2.078.2.078.182.078.169.078.156.065.143.065.13.065.1.052.247.13.234.13.234.143.221.143.208.143.208.143.2.156.2.156.2.156.182.169.182.169.169.182.169.182.169.2.169.2.2.234.169.338.143.286.143.273.143.273.13.26.13.247.117.247.1.234.091.234.026.078v-.013l.013-.247.039-.234.052-.247.117-.351.143-.091.013-.013.026-.013h.013V158.2l.065-.169.065-.169.065-.156.078-.156.078-.156.091-.143.1-.143.117-.143.117-.13.13-.13.143-.117.156-.1.169-.091.182-.078.273-.091.286.052.2.052.182.052.169.065.169.078.156.091.143.091.143.1.143.1.13.117.13.13.117.13.1.143.1.143.1.156.026.039h.013l.039.013.039.013.039.013.169.078.143.325.078.182.065.182.065.182.052.182.052.182.052.182.026.182.026.2.013.2v.416l-.013.221-.026.234-.039.247-.052.26-.013.065-.039.078.052.117.039.156.026.182-.026.2-.091.208-.156.182-.182.1.052.208.026.026.052.039.065.052.078.065.091.078.013.013.117.039.221.052.234.039.234.026.234.013h.234l.234-.013.221-.039.2-.052.182-.065.156-.091.143-.1.117-.117.1-.143.078-.169.091-.351.182-.156.065-.065.052-.065.039-.078.026-.078.026-.091V161.5l-.208.169-.273.117-.3.065-.364.026-.351-.117-.273-.143-.234-.182-.2-.208-.169-.247-.117-.247-.091-.26-.065-.26-.039-.273-.013-.273v-.273l.013-.273.026-.26.039-.247.039-.247.052-.247.065-.2.065-.156.065-.156.065-.143.065-.143.078-.13.078-.13.078-.13.078-.117.091-.117.078-.117.078-.117.078-.1.091-.117.078-.117.026-.026.013-.13.052-.221.1-.208.169-.169.2-.1.182-.052.2-.039.1-.013.039-.026.065-.078.026-.052.013-.052v-.143l-.013-.091-.026-.1-.013-.13-.013-.156.013-.169.052-.2.1-.182.156-.169.182-.143.26-.13.182-.052.143-.026.143-.026.13-.026.13-.013h.286l.091.013.091-.013h.286l.13.013.13.026.143.026.143.026.182.052.247.13.182.143.156.169.1.182.052.2.013.169-.013.156-.026.13-.013.1-.013.091v.078l.013.065.013.052.026.065.065.078.039.026.1.013.2.039.2.052.2.1.169.169.1.208.052.221.013.13.026.026.091.117.078.117.078.117.078.1.078.117.078.117.078.117.078.13.078.13.078.13.065.143.065.143.065.156.065.156.065.2.052.247.039.247.039.247.026.26.013.273v.273l-.026.273-.039.273-.065.26-.091.26-.117.247-.156.234-.2.208-.234.182-.273.143-.351.117-.377-.026-.286-.065-.273-.117-.208-.169v.013l.026.091.039.078.039.078.052.065.065.065.182.156.1.351.078.169.091.143.117.117.143.1.169.091.182.065.2.052.221.039Zm32.845,32.1c-.026-1.535-.052-3.07-.091-4.592-1.717-2.563-3.421-2.341-2.224-5.775,2.523-2.016,2.914-3.889,1.47-5.541-1.171-1.288-3.265-2.6-3.954-3.915-.767-1.47,1.4-.858,2.836-2.029-.351-.208-.82-.065-.442-.3.676-.39,1.8-.872,1.964-1.21-.494-.013-1.171.234-1.093-.026.182-.585,1.223-.143,1.444-.364-1.236-1.483-3.928-1.99-6.361.052a7.275,7.275,0,0,0,.169-7.4,5.926,5.926,0,0,0-2.406-2.276,4.635,4.635,0,0,0-3.265-.312,6.779,6.779,0,0,0-1.9,1.483c-.208.2-.572.338-.794.559-.507,1.106-.676,1.561-.3,2.511.7.078,1.418.156,2.12.247-.767.325-2.3.767-3.07-.065a2.412,2.412,0,0,1-.065-1.925c-.468.221-.872.78-1.08.754-.247-.039-.26-.819-.767-.819-.26,2.172-.364,2.9,1.288,3.59a3.6,3.6,0,0,0,2.094,0c.364,1.093,2.459.754,2.211,1.379a17.7,17.7,0,0,0-3.46.247c-1.509-.247-3.317-1.366-3.525-3.07-.234-1.2-.039-2.016-.572-3.018a2.277,2.277,0,0,0-1.483-1.041,1.928,1.928,0,0,0-1.054-.026c-.481.2-.481.377-.429.807a2.431,2.431,0,0,1-.182,1.6,1.439,1.439,0,0,0,.7,1.262c.234.182.6.533.273,1.574-.169.624.6,1.366,1,1.249l.364-.156a10.592,10.592,0,0,1,.078,2.5c.26.65.377.715.377,1.145-.78,1.678-.312,5.567.494,5.71.013-.572-.013-1.4.338-1.392.026,2.836.1,2.979-.026,3.369a4.845,4.845,0,0,1-1.3,1.223,6.886,6.886,0,0,0-2.459.39c-1.236.9-1.314,1.184-1.067,2.367.052.3.351.793.82.728a25.05,25.05,0,0,1,3.408-.182,12,12,0,0,0,3.512-3.5c1.067-.429,1.886-.039,3-.468l.937.2a3.682,3.682,0,0,1,1.626,1.288c-1.691-.325-3.837,2.094-5.71,2.38.234.689.689.416.468.859-1.6,1.236-2.966,3.018-2.836,5.125a.919.919,0,0,1,1.028-.208c.78.819.4,2.107-.182,2.914-1.392.442-3.681-.247-3.694,2.38a.683.683,0,0,0,.65.507c1.34,0,2.563.13,3.876.026.377-.026.377.026.546-.273.976-1.8,2.224-2.836,4.162-2.693a4.239,4.239,0,0,1-.416-3.135c.728-1.431,1.275-1.886,3.265-1.7a3.678,3.678,0,0,1-.091,1.2c1-.442,1.353,1.392.846,2.589a10.907,10.907,0,0,1,3.187.052c.585-.806.859-1.015,1.626-.572a1.481,1.481,0,0,1,.169,1.4,6.956,6.956,0,0,1-2.55.1l-1.522,1.379c0,1.925.117,1.535,2.094,1.717l5.372-.091a1,1,0,0,0,.546-.78m-1.262.169c.468-.091.468-.507.455-1.093a34.9,34.9,0,0,0-.078-3.5c-.637-1.132-1.613-1.73-2.354-2.784a5.264,5.264,0,0,1,.325-3.421c1.392-1.041,3.343-2.758,1.886-4.735-.806-.858-4.319-3.5-4.319-4.553-.286-1.99,1.717-1.6,2.25-1.873-.247-.091-.468-.234-.728-.325.468-.65,1.353-.247,1.665-.911a3.413,3.413,0,0,0-1.353-.585,5.806,5.806,0,0,0,2.133-.637c-2.927-.937-5.749,1.275-4.579,4.891.9,2.354,2.745,2.927,3.746,4.254a1.345,1.345,0,0,1-1.041,2.185,7.823,7.823,0,0,1-3.59-2,11.213,11.213,0,0,1-2.745-4.162c-.2.338-2.771,1.21-3.72.689a1.5,1.5,0,0,0-1.028-1.912c-.7.026-1.431,1.158-2.25,2-.338-.351-.286-2.107-.637-2.445-.963.052-1.366.65-1.509,1.626a28.37,28.37,0,0,0,.013,3.863c-.273.572-.546.858-1.873,1.925-1.015.052-3.031-.026-2.888,1.574.052.3.364.689.637.7a1.325,1.325,0,0,1,.364-1.028c.351.117.1.846.832.833a1.209,1.209,0,0,1,.715-.9c.182.234-.065.416.169.832a1.667,1.667,0,0,0,1.366-.39,10.824,10.824,0,0,0,2.654-3.148c1.041-.286,2.537,0,3.512-.611,2.081.754,4.019,2.328,4.579,3.655a4.8,4.8,0,0,0-.442,3.928,2.756,2.756,0,0,1-.026,1.431c.273,0,.533.312.611.39a2.014,2.014,0,0,1,.429,2.042c1.691.039,2.016.4,3.174-.754,1.353-.065,1.938,2.081,1.522,3.07-1.353.039-2.745-.208-3.577.559-.481.442-.663,1.47.3,1.548.091-.247.143-.924.234-1.158.156-.013.3-.039.455-.052a1.4,1.4,0,0,0,.754,1.262c.1-.247.143-.976.234-1.21.091-.026.169-.052.247-.078a2.951,2.951,0,0,1,.52,1.028c1.106.026,1.275-.065,2.953-.026m-16.039.026c.585-.637,1.522-2.3,2.068-2.576a4.993,4.993,0,0,1,1.834-.351c-.442-1.548-.429-3.759,1.912-4.878a4.5,4.5,0,0,1,1.717-.26c-.65-2.914.3-2.693.208-3.655-.065-.7-.26-.82-.845-1-1.912-.585-4.006,2.094-5.19,2.042l.637.65c-.715.078-3.512,2.758-3.356,4.162.963-.312,1.028-.026,1.314.338a2.769,2.769,0,0,1,.039,2.25c-.364.885-.481,1.3-1.522,1.717a6.358,6.358,0,0,0-1.938.2c-.364.182-.676,1.327-.052,1.483a2.131,2.131,0,0,1,.364-.963c.156-.013.3-.039.442-.052-.117.351.325,1.106.559.963.052-.117.208-.741.247-.846l.468-.026c.2.7.455.754,1.093.807m14.113-13.853c1.457-.728-.494-2.263-1.366-2.862-3.369-2.9-2.432-4.774-2.211-6.348-.6,1.7-1.9,2.524-2.107,3.6a3.969,3.969,0,0,0,.937,2.12c1.054,1.366,3.5,3.863,4.748,3.486m-6.322-6.582c2.25-2.367,5.229-7.571,2.5-10.8-1.444-2.185-3.434-2.823-5.658-1.769-1.2.872-1.548,1.119-1.522,2.966a4.928,4.928,0,0,0,2.224.429,1.155,1.155,0,0,1,0,1.964c-.885.3-.937.338-1.5.247v.247a9.08,9.08,0,0,1,2.6.52c.221.351-.039.676-.6.793-.924.2-2.654.052-4.293.377-.767.143-1.067.572-1.691.976a5.56,5.56,0,0,0-2.38,2.484,3.842,3.842,0,0,0,.052,2.732c.741-1.574,1.275-2,2.25-2.172.455-1.184,1.951-2.211,4.123-2.589-2.484.989-3.616,2.25-3.538,2.55.559.637.546,2.354.624,2,.091-.468,1.106-1.366,2.185-2.237a8.394,8.394,0,0,1,2.953-1.522,4.327,4.327,0,0,0,3.148-3.213c-.052.663-.859,2.888-2.615,3.382-1.782.507-3.252,1.886-3.031,2.2.338.442,1.171,1.431,1.028,1.743,1.015.481,2.2-.6,3.135-1.314m-9.938-3.239a12.39,12.39,0,0,1,2.563-1.743c-1.2-.546-2.979-1.951-2.966-3.057-.1-1.769.481-3.72-1.808-3.967a1.211,1.211,0,0,0-.676.234,1.43,1.43,0,0,1,1.054.754c-.364.078-.637-.026-1.054.351.26.4.65.364.976.872.039.846.078,1.7.117,2.563.013.806.637.611,1.119.364.169.754,0,3.5.676,3.629m8.884-3.733a2.443,2.443,0,0,1,.3-1.418c.143-.3,2.159-2.016,2.25,1.34.247-1.665-.715-3.72.208-2.914a2.858,2.858,0,0,0-1.574-1.73c.416,1.093.494,1.886-.325,2.432a1.429,1.429,0,0,1-1.262.065,2.4,2.4,0,0,1-.052,2.029,2,2,0,0,1,.455.2m-4.8-.429a10.477,10.477,0,0,1,2.719-.364c-1.756-.689-3.746.78-3.811-1.73-.2-.026-.481.481-.689.455-.143-.026-.286-.273-.429-.52a1.858,1.858,0,0,0,2.211,2.159m1.21-2.263a2.09,2.09,0,0,1,1.158-.846,1.591,1.591,0,0,0-1.106-.1,5.737,5.737,0,0,0-.052.95M379.436,164c.156-.2.325-.377.481-.546-.052-.1-.1-.2-.156-.3H378.6v.364a1.361,1.361,0,0,0,.832.481M318,195.293c.026-1.535.065-3.07.091-4.592,1.717-2.563,3.421-2.341,2.224-5.775-2.523-2.016-2.914-3.889-1.47-5.541,1.171-1.288,3.265-2.6,3.954-3.915.767-1.47-1.4-.858-2.836-2.029.351-.208.819-.065.442-.3-.676-.39-1.8-.872-1.964-1.21.494-.013,1.171.234,1.093-.026-.182-.585-1.223-.143-1.444-.364,1.236-1.483,3.928-1.99,6.348.052a7.275,7.275,0,0,1-.169-7.4,5.926,5.926,0,0,1,2.406-2.276,4.647,4.647,0,0,1,3.265-.312,6.535,6.535,0,0,1,1.886,1.483c.208.2.585.338.806.559.52,1.106.676,1.561.3,2.511-.715.078-1.418.156-2.12.247.768.325,2.3.767,3.07-.065a2.413,2.413,0,0,0,.065-1.925c.481.221.859.78,1.08.754.247-.039.26-.819.767-.819.26,2.172.351,2.9-1.288,3.59a3.592,3.592,0,0,1-2.094,0c-.364,1.093-2.445.754-2.211,1.379a17.52,17.52,0,0,1,3.447.247c1.509-.247,3.317-1.366,3.538-3.07.221-1.2.026-2.016.572-3.018a2.277,2.277,0,0,1,1.483-1.041,1.932,1.932,0,0,1,1.054-.026c.468.2.468.377.429.807a2.431,2.431,0,0,0,.182,1.6,1.456,1.456,0,0,1-.689,1.262c-.234.182-.6.533-.273,1.574.156.624-.6,1.366-1.015,1.249l-.364-.156a10.588,10.588,0,0,0-.078,2.5c-.26.65-.377.715-.377,1.145.793,1.678.312,5.567-.494,5.71-.013-.572.013-1.4-.351-1.392-.013,2.836-.1,2.979.026,3.369a4.844,4.844,0,0,0,1.3,1.223,6.842,6.842,0,0,1,2.458.39c1.236.9,1.314,1.184,1.067,2.367-.065.3-.351.793-.832.728a25.052,25.052,0,0,0-3.408-.182,12.2,12.2,0,0,1-3.525-3.5c-1.054-.429-1.873-.039-2.992-.468l-.937.2a3.613,3.613,0,0,0-1.626,1.288c1.691-.325,3.837,2.094,5.71,2.38-.234.689-.689.416-.468.859,1.587,1.236,2.953,3.018,2.823,5.125a.9.9,0,0,0-1.015-.208,2.321,2.321,0,0,0,.182,2.914c1.392.442,3.681-.247,3.694,2.38a.68.68,0,0,1-.637.507c-1.34,0-2.563.13-3.876.026-.377-.026-.377.026-.546-.273-.976-1.8-2.224-2.836-4.162-2.693a4.239,4.239,0,0,0,.416-3.135c-.741-1.431-1.275-1.886-3.265-1.7a3.676,3.676,0,0,0,.091,1.2c-1-.442-1.34,1.392-.846,2.589a10.9,10.9,0,0,0-3.187.052c-.585-.806-.859-1.015-1.626-.572a1.481,1.481,0,0,0-.169,1.4,6.956,6.956,0,0,0,2.549.1l1.509,1.379c0,1.925-.117,1.535-2.081,1.717l-5.359-.091a1.051,1.051,0,0,1-.533-.78m1.262.169c-.468-.091-.468-.507-.455-1.093a34.91,34.91,0,0,1,.078-3.5c.637-1.132,1.613-1.73,2.354-2.784a5.264,5.264,0,0,0-.325-3.421c-1.392-1.041-3.343-2.758-1.886-4.735.806-.858,4.319-3.5,4.319-4.553.286-1.99-1.7-1.6-2.25-1.873.247-.091.468-.234.728-.325-.481-.65-1.366-.247-1.678-.911a3.413,3.413,0,0,1,1.353-.585,5.806,5.806,0,0,1-2.133-.637c2.927-.937,5.749,1.275,4.592,4.891-.9,2.354-2.745,2.927-3.746,4.254a1.345,1.345,0,0,0,1.041,2.185,7.757,7.757,0,0,0,3.59-2,11.053,11.053,0,0,0,2.745-4.162c.2.338,2.771,1.21,3.72.689a1.5,1.5,0,0,1,1.041-1.912c.689.026,1.431,1.158,2.25,2,.338-.351.3-2.107.65-2.445.963.052,1.366.65,1.522,1.626a26.014,26.014,0,0,1-.026,3.863c.273.572.546.858,1.873,1.925,1.028.052,3.031-.026,2.888,1.574-.052.3-.364.689-.637.7a1.376,1.376,0,0,0-.364-1.028c-.351.117-.1.846-.832.833a1.2,1.2,0,0,0-.728-.9c-.182.234.065.416-.169.832a1.667,1.667,0,0,1-1.366-.39,10.823,10.823,0,0,1-2.654-3.148c-1.041-.286-2.536,0-3.512-.611-2.081.754-4.019,2.328-4.579,3.655a4.8,4.8,0,0,1,.442,3.928,2.756,2.756,0,0,0,.026,1.431c-.273,0-.533.312-.611.39a2.014,2.014,0,0,0-.429,2.042c-1.691.039-2.016.4-3.174-.754-1.366-.065-1.938,2.081-1.522,3.07,1.353.039,2.745-.208,3.577.559.481.442.663,1.47-.3,1.548-.091-.247-.13-.924-.234-1.158-.156-.013-.3-.039-.455-.052a1.4,1.4,0,0,1-.754,1.262c-.1-.247-.143-.976-.234-1.21-.078-.026-.169-.052-.247-.078a2.951,2.951,0,0,0-.52,1.028c-1.106.026-1.275-.065-2.966-.026m16.052.026c-.585-.637-1.522-2.3-2.081-2.576a4.977,4.977,0,0,0-1.821-.351c.442-1.548.429-3.759-1.925-4.878a4.534,4.534,0,0,0-1.73-.26c.663-2.914-.286-2.693-.2-3.655.065-.7.26-.82.845-1,1.912-.585,4.006,2.094,5.2,2.042l-.637.65c.715.078,3.512,2.758,3.356,4.162-.963-.312-1.028-.026-1.314.338a2.822,2.822,0,0,0-.039,2.25c.364.885.494,1.3,1.535,1.717a6.409,6.409,0,0,1,1.938.2c.364.182.663,1.327.052,1.483a2.131,2.131,0,0,0-.364-.963c-.156-.013-.3-.039-.442-.052.117.351-.325,1.106-.559.963-.065-.117-.2-.741-.247-.846l-.468-.026c-.208.7-.481.754-1.106.807M321.2,181.635c-1.457-.728.481-2.263,1.366-2.862,3.369-2.9,2.432-4.774,2.211-6.348.6,1.7,1.9,2.524,2.107,3.6a3.969,3.969,0,0,1-.937,2.12c-1.067,1.366-3.5,3.863-4.748,3.486m6.309-6.582c-2.263-2.367-5.229-7.571-2.484-10.8,1.444-2.185,3.434-2.823,5.658-1.769,1.2.872,1.548,1.119,1.522,2.966a4.929,4.929,0,0,1-2.224.429,1.155,1.155,0,0,0,0,1.964c.885.3.937.338,1.5.247v.247a9.079,9.079,0,0,0-2.6.52c-.221.351.039.676.6.793.923.2,2.654.052,4.293.377.768.143,1.067.572,1.691.976a5.559,5.559,0,0,1,2.38,2.484,3.842,3.842,0,0,1-.052,2.732c-.741-1.574-1.275-2-2.237-2.172-.455-1.184-1.964-2.211-4.123-2.589,2.5.989,3.616,2.25,3.538,2.55-.559.637-.559,2.354-.624,2-.1-.468-1.106-1.366-2.185-2.237a8.507,8.507,0,0,0-2.953-1.522c-2.081-.6-2.6-1.808-3.148-3.213.052.663.859,2.888,2.615,3.382,1.8.507,3.265,1.886,3.031,2.2-.338.442-1.171,1.431-1.028,1.743-1.028.481-2.224-.6-3.161-1.314m9.938-3.239a12.39,12.39,0,0,0-2.563-1.743c1.2-.546,2.979-1.951,2.953-3.057.1-1.769-.481-3.72,1.808-3.967a1.289,1.289,0,0,1,.689.234,1.431,1.431,0,0,0-1.054.754c.364.078.637-.026,1.041.351-.26.4-.65.364-.976.872-.052.846-.091,1.7-.13,2.563-.013.806-.637.611-1.119.364-.13.754.039,3.5-.65,3.629m-8.871-3.733a2.443,2.443,0,0,0-.3-1.418c-.143-.3-2.159-2.016-2.25,1.34-.247-1.665.728-3.72-.2-2.914a2.859,2.859,0,0,1,1.574-1.73c-.429,1.093-.507,1.886.325,2.432a1.432,1.432,0,0,0,1.262.065,2.4,2.4,0,0,0,.052,2.029,1.872,1.872,0,0,0-.468.2m4.8-.429a10.477,10.477,0,0,0-2.719-.364c1.756-.689,3.759.78,3.811-1.73.2-.026.481.481.689.455.143-.026.286-.273.442-.52a1.881,1.881,0,0,1-2.224,2.159m-1.21-2.263a2.134,2.134,0,0,0-1.158-.846,1.6,1.6,0,0,1,1.106-.1,7.6,7.6,0,0,1,.052.95M329.759,164c-.156-.2-.325-.377-.481-.546.052-.1.1-.2.156-.3h1.158v.364a1.436,1.436,0,0,1-.833.481" transform="translate(-192.949 0)"/><path class="a" d="M220.49,472.709l-1.366-3.473h-5.736l-.806,2.068a4.373,4.373,0,0,0-.312,1.639,2.2,2.2,0,0,0,.52,1.431,1.915,1.915,0,0,0,1.444.65v.663h-5.619v-.663c1.249-.182,2.263-1.262,3.031-3.239l4.2-10.757a2.03,2.03,0,0,0-.689-.767,3.068,3.068,0,0,0-1.067-.273v-.6L217,458.4h1.119l5.619,14.335a4.469,4.469,0,0,0,.976,1.639,3.282,3.282,0,0,0,1.483.65v.663h-7.232v-.663a5.334,5.334,0,0,0,1.4-.286.738.738,0,0,0,.468-.754,3.376,3.376,0,0,0-.351-1.275m-6.816-4.253h5.151l-2.589-6.543Zm7.922,3.811-4.345-10.992a3.479,3.479,0,0,0-.65-1.171,1.22,1.22,0,0,0-.937-.338,3.381,3.381,0,0,0-.572.039,1.928,1.928,0,0,1,.885.637,4.837,4.837,0,0,1,.559,1.106l4.306,10.992a4.251,4.251,0,0,1,.4,1.522.849.849,0,0,1-.13.507,3.892,3.892,0,0,1-.533.455h.26a1.254,1.254,0,0,0,.885-.3.977.977,0,0,0,.312-.715,6,6,0,0,0-.442-1.743m-11.707,2.758h2.328a1.826,1.826,0,0,1-.767-1.5,2.964,2.964,0,0,1,.026-.4,7.055,7.055,0,0,1-.663,1.028,3.755,3.755,0,0,1-.924.872m-36.149-1.678,3-7.362h2.979v.377a1.917,1.917,0,0,0-.976.182.657.657,0,0,0-.325.494,10.852,10.852,0,0,0-.052,1.2v5.945a1.6,1.6,0,0,0,.117.689.655.655,0,0,0,.39.325,3.383,3.383,0,0,0,.846.13v.377h-4.436v-.377a2.091,2.091,0,0,0,.95-.169.633.633,0,0,0,.351-.429,4.786,4.786,0,0,0,.052-.885v-6.647l-3.421,8.494h-.4l-3.382-8.221V473.1a2.551,2.551,0,0,0,.364,1.483,1.852,1.852,0,0,0,1.2.715v.377h-3.473V475.3a1.6,1.6,0,0,0,1.132-.572,2.189,2.189,0,0,0,.4-1.392v-6.387a1.864,1.864,0,0,0-.676-.468,2.057,2.057,0,0,0-.859-.13v-.377h3.148Zm3.577.754v-6.647a3.007,3.007,0,0,1,.13-1.106.6.6,0,0,0-.4.156.718.718,0,0,0-.143.377c-.013.156-.026.4-.026.767v6.634a1.572,1.572,0,0,1-.1.676,1.111,1.111,0,0,1-.4.351h.247q.468,0,.585-.273a2.575,2.575,0,0,0,.117-.937m-8.455-7.74h-.247a1.585,1.585,0,0,1,.663.455,3.345,3.345,0,0,1,.494.911l3.187,7.584a1.03,1.03,0,0,0,.156-.481,1.594,1.594,0,0,0-.156-.559l-2.745-6.647a3.2,3.2,0,0,0-.533-.963,1.111,1.111,0,0,0-.819-.3m-.533,8.949h1.444a1.088,1.088,0,0,1-.4-.364,1.8,1.8,0,0,1-.234-.533,1.362,1.362,0,0,1-.3.494,1.781,1.781,0,0,1-.507.4m15.479-4.423v3.031a3,3,0,0,0,.078.78.662.662,0,0,0,.26.416,1.177,1.177,0,0,0,.546.169,9.838,9.838,0,0,0,.989.039,3.641,3.641,0,0,0,1.353-.234,3.9,3.9,0,0,0,1.132-.676,10.578,10.578,0,0,0,1.171-1.21h.559l-.859,2.5h-8.468v-.377a4.057,4.057,0,0,0,.937-.1.8.8,0,0,0,.455-.312,1.175,1.175,0,0,0,.13-.624v-6.8a1.37,1.37,0,0,0-.13-.7.64.64,0,0,0-.416-.3,5.456,5.456,0,0,0-.976-.117v-.377h8.13l.832,2.2h-.481a5.029,5.029,0,0,0-.976-.911,5.48,5.48,0,0,0-1.288-.663,4.424,4.424,0,0,0-1.509-.247,2.472,2.472,0,0,0-.937.13.752.752,0,0,0-.416.377,1.714,1.714,0,0,0-.1.637v3H185.2c1.21,0,1.821-.559,1.834-1.652h.481v3.655H187.1a2.049,2.049,0,0,0-.468-1.223,1.633,1.633,0,0,0-1.2-.377h-1.626Zm4.553,4.423.481-1.2a4.556,4.556,0,0,1-.741.663c-.221.143-.52.325-.937.546h1.2Zm-1.418-3.98v-1.353a1.6,1.6,0,0,1-.976.676,2.181,2.181,0,0,1,.6.247,1.359,1.359,0,0,1,.377.429m1.119-4.969h-1.249a4.31,4.31,0,0,1,.924.416c.26.156.546.351.846.572Zm-5.736,1.171v6.66a1.751,1.751,0,0,1-.117.741,1.006,1.006,0,0,1-.351.39.8.8,0,0,0,.741-.3,1.928,1.928,0,0,0,.169-.95V467.4a1,1,0,0,0-.208-.768,1.047,1.047,0,0,0-.7-.208.892.892,0,0,1,.364.364,2.039,2.039,0,0,1,.1.741m13.944,8.169h-5.463v-.377a4.055,4.055,0,0,0,.872-.1.672.672,0,0,0,.416-.325,1.6,1.6,0,0,0,.117-.689v-6.92a.707.707,0,0,0-.325-.689,2.888,2.888,0,0,0-1.067-.234v-.377H196.5a5.482,5.482,0,0,1,2.042.364,4.59,4.59,0,0,1,2.641,2.6,5.152,5.152,0,0,1,.364,1.951,4.851,4.851,0,0,1-.377,1.9,4.339,4.339,0,0,1-1.08,1.522,4.863,4.863,0,0,1-1.691,1,6.028,6.028,0,0,1-2.133.377m-3.382-1.457v-6.361a3.011,3.011,0,0,0-.156-1.158c-.1-.221-.364-.338-.793-.338a.737.737,0,0,1,.39.377,1.867,1.867,0,0,1,.091.689v6.621a2.956,2.956,0,0,1-.052.663.79.79,0,0,1-.143.364.711.711,0,0,1-.286.208.923.923,0,0,0,.728-.247,1.189,1.189,0,0,0,.221-.82m1.054-5.893v5.554a3.46,3.46,0,0,0,.078.872.629.629,0,0,0,.39.4,2.725,2.725,0,0,0,1,.13,5.263,5.263,0,0,0,1.34-.156,3.491,3.491,0,0,0,1.132-.546,3.92,3.92,0,0,0,.989-.976,3.976,3.976,0,0,0,.52-1.2,6.573,6.573,0,0,0,.169-1.5,4.561,4.561,0,0,0-1.444-3.681,3.342,3.342,0,0,0-1.262-.689,5.639,5.639,0,0,0-1.639-.208,1.574,1.574,0,0,0-.911.2.717.717,0,0,0-.312.546,9.173,9.173,0,0,0-.052,1.249m3.213,6.959a3.176,3.176,0,0,0,1.587-.611,3.316,3.316,0,0,0,1.106-1.47,5.744,5.744,0,0,0,.4-2.276,7.187,7.187,0,0,0-.2-1.73,4.548,4.548,0,0,0-.585-1.379,3.024,3.024,0,0,0-.924-.937,2.614,2.614,0,0,0-.663-.325c-.234-.078-.481-.13-.754-.2,1.756.689,2.641,2.224,2.641,4.6a5.715,5.715,0,0,1-.286,1.9,3.757,3.757,0,0,1-.872,1.431,3.956,3.956,0,0,1-1.457.989m5.554-9.327h4.579v.377a2.788,2.788,0,0,0-1,.169.651.651,0,0,0-.377.624c-.013.2-.026.351-.026.455s-.013.169-.013.143V474.1a1.818,1.818,0,0,0,.091.65.568.568,0,0,0,.247.338,1.016,1.016,0,0,0,.364.143,7.238,7.238,0,0,0,.728.078v.377h-4.592v-.377a2.737,2.737,0,0,0,.924-.13.605.605,0,0,0,.4-.39,2.7,2.7,0,0,0,.091-.845v-6.153a4.343,4.343,0,0,0-.052-.82.649.649,0,0,0-.2-.377.823.823,0,0,0-.39-.156,5.849,5.849,0,0,0-.794-.091v-.364Zm1.652,1.626v6.855a.858.858,0,0,1-.117.507,1.53,1.53,0,0,1-.429.325,1.89,1.89,0,0,0,.728-.156.589.589,0,0,0,.273-.585v-7.3a1.077,1.077,0,0,0-.2-.7.921.921,0,0,0-.767-.221,1.062,1.062,0,0,1,.52,1.041v.1a.539.539,0,0,0-.013.13M129.266,474l-.767-1.964h-3.252l-.455,1.171a2.538,2.538,0,0,0-.182.924,1.213,1.213,0,0,0,.3.806,1.112,1.112,0,0,0,.82.377v.377h-3.187v-.377q1.054-.156,1.717-1.834l2.393-6.1a1.162,1.162,0,0,0-.39-.429,1.592,1.592,0,0,0-.611-.156v-.338l1.652-.559h.637l3.187,8.13a2.475,2.475,0,0,0,.559.937,1.71,1.71,0,0,0,.832.364v.377h-4.084v-.377a2.939,2.939,0,0,0,.793-.169.418.418,0,0,0,.26-.429,2.107,2.107,0,0,0-.221-.728M125.4,471.59h2.927l-1.47-3.707Zm4.488,2.159-2.458-6.231a1.894,1.894,0,0,0-.377-.663.728.728,0,0,0-.533-.2,1.167,1.167,0,0,0-.325.026,1.05,1.05,0,0,1,.494.364,2.759,2.759,0,0,1,.325.624l2.432,6.231a2.3,2.3,0,0,1,.221.859c0,.13-.013.234-.078.286a2.463,2.463,0,0,1-.3.26h.156a.743.743,0,0,0,.507-.169.541.541,0,0,0,.169-.4,2.6,2.6,0,0,0-.234-.989m-6.621,1.561H124.6a1.03,1.03,0,0,1-.429-.846,1.194,1.194,0,0,1,.013-.234,3.038,3.038,0,0,1-.377.585,2.47,2.47,0,0,1-.533.494m14.764-9.327h3.174v.377a1.459,1.459,0,0,0-1.015.611,6.823,6.823,0,0,0-.924,1.743l-2.849,7.167h-.377l-3.512-8.364a3.03,3.03,0,0,0-.507-.95,1.309,1.309,0,0,0-.806-.208v-.377h4.149v.377h-.117a1.167,1.167,0,0,0-.7.169.516.516,0,0,0-.247.455c0-.013.013.065.052.234a1.641,1.641,0,0,0,.1.39l2.5,6,1.808-4.527a4.256,4.256,0,0,0,.39-1.535,1.215,1.215,0,0,0-.286-.872,1.039,1.039,0,0,0-.806-.312v-.377Zm2.055.377h-1.353a1.238,1.238,0,0,1,.6,1.093,2.437,2.437,0,0,1,.754-1.093m-7.349,1.054,3.382,8.091a1.405,1.405,0,0,0,.2-.533,1.72,1.72,0,0,0-.2-.585l-2.888-6.907c-.13-.3-.234-.52-.325-.689a.91.91,0,0,0-.351-.351,1.611,1.611,0,0,0-.6-.143.836.836,0,0,1,.4.325,4.171,4.171,0,0,1,.377.793m12.566,3.473v3.031a3,3,0,0,0,.078.78.721.721,0,0,0,.26.416,1.184,1.184,0,0,0,.559.169,9.661,9.661,0,0,0,.989.039,3.641,3.641,0,0,0,1.353-.234,3.9,3.9,0,0,0,1.132-.676,10.578,10.578,0,0,0,1.171-1.21h.559l-.858,2.5h-8.468v-.377a4.057,4.057,0,0,0,.937-.1.8.8,0,0,0,.455-.312,1.175,1.175,0,0,0,.13-.624v-6.8a1.37,1.37,0,0,0-.13-.7.64.64,0,0,0-.416-.3,5.455,5.455,0,0,0-.976-.117v-.377h8.13l.833,2.2h-.494a4.682,4.682,0,0,0-.976-.911,5.016,5.016,0,0,0-1.288-.663,4.424,4.424,0,0,0-1.509-.247,2.594,2.594,0,0,0-.95.13.751.751,0,0,0-.416.377,1.713,1.713,0,0,0-.1.637v3H146.7c1.21,0,1.821-.559,1.834-1.652h.481v3.655h-.429a1.9,1.9,0,0,0-.468-1.223,1.6,1.6,0,0,0-1.184-.377H145.3Zm4.54,4.423.481-1.2a4.557,4.557,0,0,1-.741.663q-.332.215-.937.546h1.2Zm-1.4-3.98v-1.353a1.6,1.6,0,0,1-.976.676,2.181,2.181,0,0,1,.6.247,1.541,1.541,0,0,1,.377.429m1.106-4.969H148.3a3.929,3.929,0,0,1,.911.416c.26.156.546.351.846.572Zm-5.736,1.171v6.66a1.751,1.751,0,0,1-.117.741,1.006,1.006,0,0,1-.351.39.8.8,0,0,0,.741-.3,1.928,1.928,0,0,0,.169-.95V467.4a1.069,1.069,0,0,0-.2-.768,1.088,1.088,0,0,0-.715-.208.82.82,0,0,1,.364.364,2.039,2.039,0,0,1,.1.741m8.182-1.171v-.377h4.787v.377h-.208a2.554,2.554,0,0,0-.82.1.642.642,0,0,0-.4.351,1.807,1.807,0,0,0-.117.728v6.738a1.147,1.147,0,0,0,.143.611.785.785,0,0,0,.481.312,3.812,3.812,0,0,0,.989.1,4.858,4.858,0,0,0,1-.091,4.1,4.1,0,0,0,.9-.312,3.887,3.887,0,0,0,.924-.65,7.081,7.081,0,0,0,.963-1.054h.637l-.911,2.484h-8.338v-.377h.091a2.6,2.6,0,0,0,.911-.117.7.7,0,0,0,.4-.364,1.632,1.632,0,0,0,.1-.689v-6.517a2.353,2.353,0,0,0-.091-.78.64.64,0,0,0-.416-.377,4.006,4.006,0,0,0-1.028-.1m1.743,1.054v7.05a.964.964,0,0,1-.117.52.993.993,0,0,1-.364.325.572.572,0,0,1,.117.013.446.446,0,0,0,.117.013c.455,0,.689-.325.689-1v-6.608a3.935,3.935,0,0,0-.1-1.028c-.078-.221-.273-.338-.624-.338h-.208a1.068,1.068,0,0,1,.39.364,1.6,1.6,0,0,1,.1.689m4.657,7.9h1.262l.6-1.353a5.267,5.267,0,0,1-.833.793,4.086,4.086,0,0,1-1.028.559M97.045,458.543h15.44l.872,4.006h-.872a7.5,7.5,0,0,0-1.951-2.289,4.708,4.708,0,0,0-1.925-.872,15.712,15.712,0,0,0-2.354-.169v13.814a2.374,2.374,0,0,0,.26,1.223,1.325,1.325,0,0,0,.846.572,7.668,7.668,0,0,0,1.626.2v.663h-8.52v-.663a7.047,7.047,0,0,0,1.626-.169,1.3,1.3,0,0,0,.846-.585,2.586,2.586,0,0,0,.286-1.392V459.219a9.821,9.821,0,0,0-2.289.26,5.368,5.368,0,0,0-1.626.676,5.2,5.2,0,0,0-1.093.911c-.286.312-.715.819-1.275,1.5H96.2Zm14.946,2.615-.546-1.951h-2.289a5.052,5.052,0,0,1,1.548.754,9.69,9.69,0,0,1,1.288,1.2m-7.6,11.447V460.663a2.46,2.46,0,0,0-.169-1.054.676.676,0,0,0-.611-.39v13.814a3.433,3.433,0,0,1-.182,1.21,1.788,1.788,0,0,1-.689.794h.273a1.1,1.1,0,0,0,1.132-.559,5.33,5.33,0,0,0,.247-1.873m-5.086-13.385H97.345l-.481,2.068a8.353,8.353,0,0,1,1.08-1.21,6.589,6.589,0,0,1,1.366-.859M116.687,475.7h-4.774v-.377a4.21,4.21,0,0,0,.989-.1.668.668,0,0,0,.442-.338,1.779,1.779,0,0,0,.117-.754V467.7a2.554,2.554,0,0,0-.1-.82.6.6,0,0,0-.429-.377,3.58,3.58,0,0,0-1.028-.13V466h5.437a4.292,4.292,0,0,1,1.8.351,2.717,2.717,0,0,1,1.158.937,2.236,2.236,0,0,1,.208,2.146,2.173,2.173,0,0,1-.52.767,2.747,2.747,0,0,1-.819.585,3.939,3.939,0,0,1-1.106.351c.312.312.7.767,1.171,1.34l.676.806c.039.039.078.091.13.156s.13.143.221.234c.221.26.4.481.559.663a5.018,5.018,0,0,0,.455.455,4.008,4.008,0,0,0,.429.338,1.553,1.553,0,0,0,.455.2v.377h-1.3a1.862,1.862,0,0,1-.833-.2,2.9,2.9,0,0,1-.754-.559,8.317,8.317,0,0,1-.82-.95l-.963-1.223c-.442-.585-.78-.976-.989-1.21a.9.9,0,0,0-.572-.338h-.767v2.927a1.642,1.642,0,0,0,.1.676.68.68,0,0,0,.481.351,3.547,3.547,0,0,0,.481.091,1.905,1.905,0,0,0,.442.026v.4Zm-2.992-8.065v6.79a.9.9,0,0,1-.468.885c.6-.013.9-.247.9-.689v-6.946a4.07,4.07,0,0,0-.065-.807.6.6,0,0,0-.273-.4,1.118,1.118,0,0,0-.65-.117.806.806,0,0,1,.455.416,2.753,2.753,0,0,1,.1.872m1.483.117v3.109H116.3a3.581,3.581,0,0,0,1.106-.182,1.856,1.856,0,0,0,1.392-2.068,2.121,2.121,0,0,0-.872-1.886,1.916,1.916,0,0,0-.65-.286,3.97,3.97,0,0,0-.859-.065,1.759,1.759,0,0,0-.793.143.7.7,0,0,0-.364.429,3.086,3.086,0,0,0-.078.806m1.8,3.486h-.559a4.422,4.422,0,0,1,.572.559c.221.247.494.585.819,1s.663.846,1,1.288a6.475,6.475,0,0,0,.846.9,2.329,2.329,0,0,0,.689.4,2.519,2.519,0,0,0,.65.1,3.339,3.339,0,0,1-.82-.572,8.557,8.557,0,0,1-.845-.911c-.3-.364-.611-.754-.924-1.171s-.65-.794-.989-1.158a1.116,1.116,0,0,0-.169-.221,1.8,1.8,0,0,0-.273-.221m.6-.416a2.2,2.2,0,0,0,1.418-.689,2.731,2.731,0,0,0,.052-3.057,1.865,1.865,0,0,0-1.262-.676,2.1,2.1,0,0,1,.924.846,2.794,2.794,0,0,1,.312,1.418,2.238,2.238,0,0,1-.364,1.4,2.15,2.15,0,0,1-1.08.754" transform="translate(0 -265.5)"/></g></svg>